G04 #@! TF.GenerationSoftware,KiCad,Pcbnew,5.1.5+dfsg1-2build2*
G04 #@! TF.CreationDate,2022-10-18T14:32:14+02:00*
G04 #@! TF.ProjectId,controllerBoard,636f6e74-726f-46c6-9c65-72426f617264,rev?*
G04 #@! TF.SameCoordinates,Original*
G04 #@! TF.FileFunction,Soldermask,Top*
G04 #@! TF.FilePolarity,Negative*
%FSLAX46Y46*%
G04 Gerber Fmt 4.6, Leading zero omitted, Abs format (unit mm)*
G04 Created by KiCad (PCBNEW 5.1.5+dfsg1-2build2) date 2022-10-18 14:32:14*
%MOMM*%
%LPD*%
G04 APERTURE LIST*
%ADD10C,0.100000*%
G04 APERTURE END LIST*
D10*
G36*
X168927331Y-95550211D02*
G01*
X169255092Y-95685974D01*
X169550070Y-95883072D01*
X169800928Y-96133930D01*
X169998026Y-96428908D01*
X170133789Y-96756669D01*
X170203000Y-97104616D01*
X170203000Y-97459384D01*
X170133789Y-97807331D01*
X169998026Y-98135092D01*
X169800928Y-98430070D01*
X169550070Y-98680928D01*
X169255092Y-98878026D01*
X168927331Y-99013789D01*
X168579384Y-99083000D01*
X168224616Y-99083000D01*
X167876669Y-99013789D01*
X167548908Y-98878026D01*
X167253930Y-98680928D01*
X167003072Y-98430070D01*
X166805974Y-98135092D01*
X166670211Y-97807331D01*
X166601000Y-97459384D01*
X166601000Y-97104616D01*
X166670211Y-96756669D01*
X166805974Y-96428908D01*
X167003072Y-96133930D01*
X167253930Y-95883072D01*
X167548908Y-95685974D01*
X167876669Y-95550211D01*
X168224616Y-95481000D01*
X168579384Y-95481000D01*
X168927331Y-95550211D01*
G37*
G36*
X54627331Y-95550211D02*
G01*
X54955092Y-95685974D01*
X55250070Y-95883072D01*
X55500928Y-96133930D01*
X55698026Y-96428908D01*
X55833789Y-96756669D01*
X55903000Y-97104616D01*
X55903000Y-97459384D01*
X55833789Y-97807331D01*
X55698026Y-98135092D01*
X55500928Y-98430070D01*
X55250070Y-98680928D01*
X54955092Y-98878026D01*
X54627331Y-99013789D01*
X54279384Y-99083000D01*
X53924616Y-99083000D01*
X53576669Y-99013789D01*
X53248908Y-98878026D01*
X52953930Y-98680928D01*
X52703072Y-98430070D01*
X52505974Y-98135092D01*
X52370211Y-97807331D01*
X52301000Y-97459384D01*
X52301000Y-97104616D01*
X52370211Y-96756669D01*
X52505974Y-96428908D01*
X52703072Y-96133930D01*
X52953930Y-95883072D01*
X53248908Y-95685974D01*
X53576669Y-95550211D01*
X53924616Y-95481000D01*
X54279384Y-95481000D01*
X54627331Y-95550211D01*
G37*
G36*
X48881512Y-97274927D02*
G01*
X49030812Y-97304624D01*
X49194784Y-97372544D01*
X49342354Y-97471147D01*
X49467853Y-97596646D01*
X49566456Y-97744216D01*
X49634376Y-97908188D01*
X49669000Y-98082259D01*
X49669000Y-98259741D01*
X49634376Y-98433812D01*
X49566456Y-98597784D01*
X49467853Y-98745354D01*
X49342354Y-98870853D01*
X49194784Y-98969456D01*
X49030812Y-99037376D01*
X48881512Y-99067073D01*
X48856742Y-99072000D01*
X48679258Y-99072000D01*
X48654488Y-99067073D01*
X48505188Y-99037376D01*
X48341216Y-98969456D01*
X48193646Y-98870853D01*
X48068147Y-98745354D01*
X47969544Y-98597784D01*
X47901624Y-98433812D01*
X47867000Y-98259741D01*
X47867000Y-98082259D01*
X47901624Y-97908188D01*
X47969544Y-97744216D01*
X48068147Y-97596646D01*
X48193646Y-97471147D01*
X48341216Y-97372544D01*
X48505188Y-97304624D01*
X48654488Y-97274927D01*
X48679258Y-97270000D01*
X48856742Y-97270000D01*
X48881512Y-97274927D01*
G37*
G36*
X46341512Y-97274927D02*
G01*
X46490812Y-97304624D01*
X46654784Y-97372544D01*
X46802354Y-97471147D01*
X46927853Y-97596646D01*
X47026456Y-97744216D01*
X47094376Y-97908188D01*
X47129000Y-98082259D01*
X47129000Y-98259741D01*
X47094376Y-98433812D01*
X47026456Y-98597784D01*
X46927853Y-98745354D01*
X46802354Y-98870853D01*
X46654784Y-98969456D01*
X46490812Y-99037376D01*
X46341512Y-99067073D01*
X46316742Y-99072000D01*
X46139258Y-99072000D01*
X46114488Y-99067073D01*
X45965188Y-99037376D01*
X45801216Y-98969456D01*
X45653646Y-98870853D01*
X45528147Y-98745354D01*
X45429544Y-98597784D01*
X45361624Y-98433812D01*
X45327000Y-98259741D01*
X45327000Y-98082259D01*
X45361624Y-97908188D01*
X45429544Y-97744216D01*
X45528147Y-97596646D01*
X45653646Y-97471147D01*
X45801216Y-97372544D01*
X45965188Y-97304624D01*
X46114488Y-97274927D01*
X46139258Y-97270000D01*
X46316742Y-97270000D01*
X46341512Y-97274927D01*
G37*
G36*
X92580104Y-95629585D02*
G01*
X92748626Y-95699389D01*
X92900291Y-95800728D01*
X93029272Y-95929709D01*
X93130611Y-96081374D01*
X93200415Y-96249896D01*
X93236000Y-96428797D01*
X93236000Y-96611203D01*
X93200415Y-96790104D01*
X93130611Y-96958626D01*
X93029272Y-97110291D01*
X92900291Y-97239272D01*
X92748626Y-97340611D01*
X92580104Y-97410415D01*
X92401203Y-97446000D01*
X92218797Y-97446000D01*
X92039896Y-97410415D01*
X91871374Y-97340611D01*
X91719709Y-97239272D01*
X91590728Y-97110291D01*
X91489389Y-96958626D01*
X91419585Y-96790104D01*
X91384000Y-96611203D01*
X91384000Y-96428797D01*
X91419585Y-96249896D01*
X91489389Y-96081374D01*
X91590728Y-95929709D01*
X91719709Y-95800728D01*
X91871374Y-95699389D01*
X92039896Y-95629585D01*
X92218797Y-95594000D01*
X92401203Y-95594000D01*
X92580104Y-95629585D01*
G37*
G36*
X64730104Y-95629585D02*
G01*
X64898626Y-95699389D01*
X65050291Y-95800728D01*
X65179272Y-95929709D01*
X65280611Y-96081374D01*
X65350415Y-96249896D01*
X65386000Y-96428797D01*
X65386000Y-96611203D01*
X65350415Y-96790104D01*
X65280611Y-96958626D01*
X65179272Y-97110291D01*
X65050291Y-97239272D01*
X64898626Y-97340611D01*
X64730104Y-97410415D01*
X64551203Y-97446000D01*
X64368797Y-97446000D01*
X64189896Y-97410415D01*
X64021374Y-97340611D01*
X63869709Y-97239272D01*
X63740728Y-97110291D01*
X63639389Y-96958626D01*
X63569585Y-96790104D01*
X63534000Y-96611203D01*
X63534000Y-96428797D01*
X63569585Y-96249896D01*
X63639389Y-96081374D01*
X63740728Y-95929709D01*
X63869709Y-95800728D01*
X64021374Y-95699389D01*
X64189896Y-95629585D01*
X64368797Y-95594000D01*
X64551203Y-95594000D01*
X64730104Y-95629585D01*
G37*
G36*
X61886000Y-97446000D02*
G01*
X60034000Y-97446000D01*
X60034000Y-95594000D01*
X61886000Y-95594000D01*
X61886000Y-97446000D01*
G37*
G36*
X134490104Y-95629585D02*
G01*
X134658626Y-95699389D01*
X134810291Y-95800728D01*
X134939272Y-95929709D01*
X135040611Y-96081374D01*
X135110415Y-96249896D01*
X135146000Y-96428797D01*
X135146000Y-96611203D01*
X135110415Y-96790104D01*
X135040611Y-96958626D01*
X134939272Y-97110291D01*
X134810291Y-97239272D01*
X134658626Y-97340611D01*
X134490104Y-97410415D01*
X134311203Y-97446000D01*
X134128797Y-97446000D01*
X133949896Y-97410415D01*
X133781374Y-97340611D01*
X133629709Y-97239272D01*
X133500728Y-97110291D01*
X133399389Y-96958626D01*
X133329585Y-96790104D01*
X133294000Y-96611203D01*
X133294000Y-96428797D01*
X133329585Y-96249896D01*
X133399389Y-96081374D01*
X133500728Y-95929709D01*
X133629709Y-95800728D01*
X133781374Y-95699389D01*
X133949896Y-95629585D01*
X134128797Y-95594000D01*
X134311203Y-95594000D01*
X134490104Y-95629585D01*
G37*
G36*
X131646000Y-97446000D02*
G01*
X129794000Y-97446000D01*
X129794000Y-95594000D01*
X131646000Y-95594000D01*
X131646000Y-97446000D01*
G37*
G36*
X148460104Y-95629585D02*
G01*
X148628626Y-95699389D01*
X148780291Y-95800728D01*
X148909272Y-95929709D01*
X149010611Y-96081374D01*
X149080415Y-96249896D01*
X149116000Y-96428797D01*
X149116000Y-96611203D01*
X149080415Y-96790104D01*
X149010611Y-96958626D01*
X148909272Y-97110291D01*
X148780291Y-97239272D01*
X148628626Y-97340611D01*
X148460104Y-97410415D01*
X148281203Y-97446000D01*
X148098797Y-97446000D01*
X147919896Y-97410415D01*
X147751374Y-97340611D01*
X147599709Y-97239272D01*
X147470728Y-97110291D01*
X147369389Y-96958626D01*
X147299585Y-96790104D01*
X147264000Y-96611203D01*
X147264000Y-96428797D01*
X147299585Y-96249896D01*
X147369389Y-96081374D01*
X147470728Y-95929709D01*
X147599709Y-95800728D01*
X147751374Y-95699389D01*
X147919896Y-95629585D01*
X148098797Y-95594000D01*
X148281203Y-95594000D01*
X148460104Y-95629585D01*
G37*
G36*
X89736000Y-97446000D02*
G01*
X87884000Y-97446000D01*
X87884000Y-95594000D01*
X89736000Y-95594000D01*
X89736000Y-97446000D01*
G37*
G36*
X78610104Y-95629585D02*
G01*
X78778626Y-95699389D01*
X78930291Y-95800728D01*
X79059272Y-95929709D01*
X79160611Y-96081374D01*
X79230415Y-96249896D01*
X79266000Y-96428797D01*
X79266000Y-96611203D01*
X79230415Y-96790104D01*
X79160611Y-96958626D01*
X79059272Y-97110291D01*
X78930291Y-97239272D01*
X78778626Y-97340611D01*
X78610104Y-97410415D01*
X78431203Y-97446000D01*
X78248797Y-97446000D01*
X78069896Y-97410415D01*
X77901374Y-97340611D01*
X77749709Y-97239272D01*
X77620728Y-97110291D01*
X77519389Y-96958626D01*
X77449585Y-96790104D01*
X77414000Y-96611203D01*
X77414000Y-96428797D01*
X77449585Y-96249896D01*
X77519389Y-96081374D01*
X77620728Y-95929709D01*
X77749709Y-95800728D01*
X77901374Y-95699389D01*
X78069896Y-95629585D01*
X78248797Y-95594000D01*
X78431203Y-95594000D01*
X78610104Y-95629585D01*
G37*
G36*
X75766000Y-97446000D02*
G01*
X73914000Y-97446000D01*
X73914000Y-95594000D01*
X75766000Y-95594000D01*
X75766000Y-97446000D01*
G37*
G36*
X106550104Y-95629585D02*
G01*
X106718626Y-95699389D01*
X106870291Y-95800728D01*
X106999272Y-95929709D01*
X107100611Y-96081374D01*
X107170415Y-96249896D01*
X107206000Y-96428797D01*
X107206000Y-96611203D01*
X107170415Y-96790104D01*
X107100611Y-96958626D01*
X106999272Y-97110291D01*
X106870291Y-97239272D01*
X106718626Y-97340611D01*
X106550104Y-97410415D01*
X106371203Y-97446000D01*
X106188797Y-97446000D01*
X106009896Y-97410415D01*
X105841374Y-97340611D01*
X105689709Y-97239272D01*
X105560728Y-97110291D01*
X105459389Y-96958626D01*
X105389585Y-96790104D01*
X105354000Y-96611203D01*
X105354000Y-96428797D01*
X105389585Y-96249896D01*
X105459389Y-96081374D01*
X105560728Y-95929709D01*
X105689709Y-95800728D01*
X105841374Y-95699389D01*
X106009896Y-95629585D01*
X106188797Y-95594000D01*
X106371203Y-95594000D01*
X106550104Y-95629585D01*
G37*
G36*
X103706000Y-97446000D02*
G01*
X101854000Y-97446000D01*
X101854000Y-95594000D01*
X103706000Y-95594000D01*
X103706000Y-97446000D01*
G37*
G36*
X120520104Y-95629585D02*
G01*
X120688626Y-95699389D01*
X120840291Y-95800728D01*
X120969272Y-95929709D01*
X121070611Y-96081374D01*
X121140415Y-96249896D01*
X121176000Y-96428797D01*
X121176000Y-96611203D01*
X121140415Y-96790104D01*
X121070611Y-96958626D01*
X120969272Y-97110291D01*
X120840291Y-97239272D01*
X120688626Y-97340611D01*
X120520104Y-97410415D01*
X120341203Y-97446000D01*
X120158797Y-97446000D01*
X119979896Y-97410415D01*
X119811374Y-97340611D01*
X119659709Y-97239272D01*
X119530728Y-97110291D01*
X119429389Y-96958626D01*
X119359585Y-96790104D01*
X119324000Y-96611203D01*
X119324000Y-96428797D01*
X119359585Y-96249896D01*
X119429389Y-96081374D01*
X119530728Y-95929709D01*
X119659709Y-95800728D01*
X119811374Y-95699389D01*
X119979896Y-95629585D01*
X120158797Y-95594000D01*
X120341203Y-95594000D01*
X120520104Y-95629585D01*
G37*
G36*
X117676000Y-97446000D02*
G01*
X115824000Y-97446000D01*
X115824000Y-95594000D01*
X117676000Y-95594000D01*
X117676000Y-97446000D01*
G37*
G36*
X162430104Y-95629585D02*
G01*
X162598626Y-95699389D01*
X162750291Y-95800728D01*
X162879272Y-95929709D01*
X162980611Y-96081374D01*
X163050415Y-96249896D01*
X163086000Y-96428797D01*
X163086000Y-96611203D01*
X163050415Y-96790104D01*
X162980611Y-96958626D01*
X162879272Y-97110291D01*
X162750291Y-97239272D01*
X162598626Y-97340611D01*
X162430104Y-97410415D01*
X162251203Y-97446000D01*
X162068797Y-97446000D01*
X161889896Y-97410415D01*
X161721374Y-97340611D01*
X161569709Y-97239272D01*
X161440728Y-97110291D01*
X161339389Y-96958626D01*
X161269585Y-96790104D01*
X161234000Y-96611203D01*
X161234000Y-96428797D01*
X161269585Y-96249896D01*
X161339389Y-96081374D01*
X161440728Y-95929709D01*
X161569709Y-95800728D01*
X161721374Y-95699389D01*
X161889896Y-95629585D01*
X162068797Y-95594000D01*
X162251203Y-95594000D01*
X162430104Y-95629585D01*
G37*
G36*
X145616000Y-97446000D02*
G01*
X143764000Y-97446000D01*
X143764000Y-95594000D01*
X145616000Y-95594000D01*
X145616000Y-97446000D01*
G37*
G36*
X159586000Y-97446000D02*
G01*
X157734000Y-97446000D01*
X157734000Y-95594000D01*
X159586000Y-95594000D01*
X159586000Y-97446000D01*
G37*
G36*
X46341512Y-94734927D02*
G01*
X46490812Y-94764624D01*
X46654784Y-94832544D01*
X46802354Y-94931147D01*
X46927853Y-95056646D01*
X47026456Y-95204216D01*
X47094376Y-95368188D01*
X47129000Y-95542259D01*
X47129000Y-95719741D01*
X47094376Y-95893812D01*
X47026456Y-96057784D01*
X46927853Y-96205354D01*
X46802354Y-96330853D01*
X46654784Y-96429456D01*
X46490812Y-96497376D01*
X46341512Y-96527073D01*
X46316742Y-96532000D01*
X46139258Y-96532000D01*
X46114488Y-96527073D01*
X45965188Y-96497376D01*
X45801216Y-96429456D01*
X45653646Y-96330853D01*
X45528147Y-96205354D01*
X45429544Y-96057784D01*
X45361624Y-95893812D01*
X45327000Y-95719741D01*
X45327000Y-95542259D01*
X45361624Y-95368188D01*
X45429544Y-95204216D01*
X45528147Y-95056646D01*
X45653646Y-94931147D01*
X45801216Y-94832544D01*
X45965188Y-94764624D01*
X46114488Y-94734927D01*
X46139258Y-94730000D01*
X46316742Y-94730000D01*
X46341512Y-94734927D01*
G37*
G36*
X48881512Y-94734927D02*
G01*
X49030812Y-94764624D01*
X49194784Y-94832544D01*
X49342354Y-94931147D01*
X49467853Y-95056646D01*
X49566456Y-95204216D01*
X49634376Y-95368188D01*
X49669000Y-95542259D01*
X49669000Y-95719741D01*
X49634376Y-95893812D01*
X49566456Y-96057784D01*
X49467853Y-96205354D01*
X49342354Y-96330853D01*
X49194784Y-96429456D01*
X49030812Y-96497376D01*
X48881512Y-96527073D01*
X48856742Y-96532000D01*
X48679258Y-96532000D01*
X48654488Y-96527073D01*
X48505188Y-96497376D01*
X48341216Y-96429456D01*
X48193646Y-96330853D01*
X48068147Y-96205354D01*
X47969544Y-96057784D01*
X47901624Y-95893812D01*
X47867000Y-95719741D01*
X47867000Y-95542259D01*
X47901624Y-95368188D01*
X47969544Y-95204216D01*
X48068147Y-95056646D01*
X48193646Y-94931147D01*
X48341216Y-94832544D01*
X48505188Y-94764624D01*
X48654488Y-94734927D01*
X48679258Y-94730000D01*
X48856742Y-94730000D01*
X48881512Y-94734927D01*
G37*
G36*
X46341512Y-92194927D02*
G01*
X46490812Y-92224624D01*
X46654784Y-92292544D01*
X46802354Y-92391147D01*
X46927853Y-92516646D01*
X47026456Y-92664216D01*
X47094376Y-92828188D01*
X47129000Y-93002259D01*
X47129000Y-93179741D01*
X47094376Y-93353812D01*
X47026456Y-93517784D01*
X46927853Y-93665354D01*
X46802354Y-93790853D01*
X46654784Y-93889456D01*
X46490812Y-93957376D01*
X46341512Y-93987073D01*
X46316742Y-93992000D01*
X46139258Y-93992000D01*
X46114488Y-93987073D01*
X45965188Y-93957376D01*
X45801216Y-93889456D01*
X45653646Y-93790853D01*
X45528147Y-93665354D01*
X45429544Y-93517784D01*
X45361624Y-93353812D01*
X45327000Y-93179741D01*
X45327000Y-93002259D01*
X45361624Y-92828188D01*
X45429544Y-92664216D01*
X45528147Y-92516646D01*
X45653646Y-92391147D01*
X45801216Y-92292544D01*
X45965188Y-92224624D01*
X46114488Y-92194927D01*
X46139258Y-92190000D01*
X46316742Y-92190000D01*
X46341512Y-92194927D01*
G37*
G36*
X48881512Y-92194927D02*
G01*
X49030812Y-92224624D01*
X49194784Y-92292544D01*
X49342354Y-92391147D01*
X49467853Y-92516646D01*
X49566456Y-92664216D01*
X49634376Y-92828188D01*
X49669000Y-93002259D01*
X49669000Y-93179741D01*
X49634376Y-93353812D01*
X49566456Y-93517784D01*
X49467853Y-93665354D01*
X49342354Y-93790853D01*
X49194784Y-93889456D01*
X49030812Y-93957376D01*
X48881512Y-93987073D01*
X48856742Y-93992000D01*
X48679258Y-93992000D01*
X48654488Y-93987073D01*
X48505188Y-93957376D01*
X48341216Y-93889456D01*
X48193646Y-93790853D01*
X48068147Y-93665354D01*
X47969544Y-93517784D01*
X47901624Y-93353812D01*
X47867000Y-93179741D01*
X47867000Y-93002259D01*
X47901624Y-92828188D01*
X47969544Y-92664216D01*
X48068147Y-92516646D01*
X48193646Y-92391147D01*
X48341216Y-92292544D01*
X48505188Y-92224624D01*
X48654488Y-92194927D01*
X48679258Y-92190000D01*
X48856742Y-92190000D01*
X48881512Y-92194927D01*
G37*
G36*
X150958433Y-91004893D02*
G01*
X151048657Y-91022839D01*
X151154267Y-91066585D01*
X151303621Y-91128449D01*
X151303622Y-91128450D01*
X151533086Y-91281772D01*
X151728228Y-91476914D01*
X151796209Y-91578656D01*
X151881551Y-91706379D01*
X151987161Y-91961344D01*
X152041000Y-92232012D01*
X152041000Y-92507988D01*
X151987161Y-92778656D01*
X151881551Y-93033621D01*
X151881550Y-93033622D01*
X151728228Y-93263086D01*
X151533086Y-93458228D01*
X151379763Y-93560675D01*
X151303621Y-93611551D01*
X151173729Y-93665354D01*
X151048657Y-93717161D01*
X150958433Y-93735107D01*
X150777988Y-93771000D01*
X150502012Y-93771000D01*
X150321567Y-93735107D01*
X150231343Y-93717161D01*
X150106271Y-93665354D01*
X149976379Y-93611551D01*
X149900237Y-93560675D01*
X149746914Y-93458228D01*
X149551772Y-93263086D01*
X149398450Y-93033622D01*
X149398449Y-93033621D01*
X149292839Y-92778656D01*
X149239000Y-92507988D01*
X149239000Y-92232012D01*
X149292839Y-91961344D01*
X149398449Y-91706379D01*
X149483791Y-91578656D01*
X149551772Y-91476914D01*
X149746914Y-91281772D01*
X149976378Y-91128450D01*
X149976379Y-91128449D01*
X150125733Y-91066585D01*
X150231343Y-91022839D01*
X150321567Y-91004893D01*
X150502012Y-90969000D01*
X150777988Y-90969000D01*
X150958433Y-91004893D01*
G37*
G36*
X67228433Y-91004893D02*
G01*
X67318657Y-91022839D01*
X67424267Y-91066585D01*
X67573621Y-91128449D01*
X67573622Y-91128450D01*
X67803086Y-91281772D01*
X67998228Y-91476914D01*
X68066209Y-91578656D01*
X68151551Y-91706379D01*
X68257161Y-91961344D01*
X68311000Y-92232012D01*
X68311000Y-92507988D01*
X68257161Y-92778656D01*
X68151551Y-93033621D01*
X68151550Y-93033622D01*
X67998228Y-93263086D01*
X67803086Y-93458228D01*
X67649763Y-93560675D01*
X67573621Y-93611551D01*
X67443729Y-93665354D01*
X67318657Y-93717161D01*
X67228433Y-93735107D01*
X67047988Y-93771000D01*
X66772012Y-93771000D01*
X66591567Y-93735107D01*
X66501343Y-93717161D01*
X66376271Y-93665354D01*
X66246379Y-93611551D01*
X66170237Y-93560675D01*
X66016914Y-93458228D01*
X65821772Y-93263086D01*
X65668450Y-93033622D01*
X65668449Y-93033621D01*
X65562839Y-92778656D01*
X65509000Y-92507988D01*
X65509000Y-92232012D01*
X65562839Y-91961344D01*
X65668449Y-91706379D01*
X65753791Y-91578656D01*
X65821772Y-91476914D01*
X66016914Y-91281772D01*
X66246378Y-91128450D01*
X66246379Y-91128449D01*
X66395733Y-91066585D01*
X66501343Y-91022839D01*
X66591567Y-91004893D01*
X66772012Y-90969000D01*
X67047988Y-90969000D01*
X67228433Y-91004893D01*
G37*
G36*
X95078433Y-91004893D02*
G01*
X95168657Y-91022839D01*
X95274267Y-91066585D01*
X95423621Y-91128449D01*
X95423622Y-91128450D01*
X95653086Y-91281772D01*
X95848228Y-91476914D01*
X95916209Y-91578656D01*
X96001551Y-91706379D01*
X96107161Y-91961344D01*
X96161000Y-92232012D01*
X96161000Y-92507988D01*
X96107161Y-92778656D01*
X96001551Y-93033621D01*
X96001550Y-93033622D01*
X95848228Y-93263086D01*
X95653086Y-93458228D01*
X95499763Y-93560675D01*
X95423621Y-93611551D01*
X95293729Y-93665354D01*
X95168657Y-93717161D01*
X95078433Y-93735107D01*
X94897988Y-93771000D01*
X94622012Y-93771000D01*
X94441567Y-93735107D01*
X94351343Y-93717161D01*
X94226271Y-93665354D01*
X94096379Y-93611551D01*
X94020237Y-93560675D01*
X93866914Y-93458228D01*
X93671772Y-93263086D01*
X93518450Y-93033622D01*
X93518449Y-93033621D01*
X93412839Y-92778656D01*
X93359000Y-92507988D01*
X93359000Y-92232012D01*
X93412839Y-91961344D01*
X93518449Y-91706379D01*
X93603791Y-91578656D01*
X93671772Y-91476914D01*
X93866914Y-91281772D01*
X94096378Y-91128450D01*
X94096379Y-91128449D01*
X94245733Y-91066585D01*
X94351343Y-91022839D01*
X94441567Y-91004893D01*
X94622012Y-90969000D01*
X94897988Y-90969000D01*
X95078433Y-91004893D01*
G37*
G36*
X81108433Y-91004893D02*
G01*
X81198657Y-91022839D01*
X81304267Y-91066585D01*
X81453621Y-91128449D01*
X81453622Y-91128450D01*
X81683086Y-91281772D01*
X81878228Y-91476914D01*
X81946209Y-91578656D01*
X82031551Y-91706379D01*
X82137161Y-91961344D01*
X82191000Y-92232012D01*
X82191000Y-92507988D01*
X82137161Y-92778656D01*
X82031551Y-93033621D01*
X82031550Y-93033622D01*
X81878228Y-93263086D01*
X81683086Y-93458228D01*
X81529763Y-93560675D01*
X81453621Y-93611551D01*
X81323729Y-93665354D01*
X81198657Y-93717161D01*
X81108433Y-93735107D01*
X80927988Y-93771000D01*
X80652012Y-93771000D01*
X80471567Y-93735107D01*
X80381343Y-93717161D01*
X80256271Y-93665354D01*
X80126379Y-93611551D01*
X80050237Y-93560675D01*
X79896914Y-93458228D01*
X79701772Y-93263086D01*
X79548450Y-93033622D01*
X79548449Y-93033621D01*
X79442839Y-92778656D01*
X79389000Y-92507988D01*
X79389000Y-92232012D01*
X79442839Y-91961344D01*
X79548449Y-91706379D01*
X79633791Y-91578656D01*
X79701772Y-91476914D01*
X79896914Y-91281772D01*
X80126378Y-91128450D01*
X80126379Y-91128449D01*
X80275733Y-91066585D01*
X80381343Y-91022839D01*
X80471567Y-91004893D01*
X80652012Y-90969000D01*
X80927988Y-90969000D01*
X81108433Y-91004893D01*
G37*
G36*
X123018433Y-91004893D02*
G01*
X123108657Y-91022839D01*
X123214267Y-91066585D01*
X123363621Y-91128449D01*
X123363622Y-91128450D01*
X123593086Y-91281772D01*
X123788228Y-91476914D01*
X123856209Y-91578656D01*
X123941551Y-91706379D01*
X124047161Y-91961344D01*
X124101000Y-92232012D01*
X124101000Y-92507988D01*
X124047161Y-92778656D01*
X123941551Y-93033621D01*
X123941550Y-93033622D01*
X123788228Y-93263086D01*
X123593086Y-93458228D01*
X123439763Y-93560675D01*
X123363621Y-93611551D01*
X123233729Y-93665354D01*
X123108657Y-93717161D01*
X123018433Y-93735107D01*
X122837988Y-93771000D01*
X122562012Y-93771000D01*
X122381567Y-93735107D01*
X122291343Y-93717161D01*
X122166271Y-93665354D01*
X122036379Y-93611551D01*
X121960237Y-93560675D01*
X121806914Y-93458228D01*
X121611772Y-93263086D01*
X121458450Y-93033622D01*
X121458449Y-93033621D01*
X121352839Y-92778656D01*
X121299000Y-92507988D01*
X121299000Y-92232012D01*
X121352839Y-91961344D01*
X121458449Y-91706379D01*
X121543791Y-91578656D01*
X121611772Y-91476914D01*
X121806914Y-91281772D01*
X122036378Y-91128450D01*
X122036379Y-91128449D01*
X122185733Y-91066585D01*
X122291343Y-91022839D01*
X122381567Y-91004893D01*
X122562012Y-90969000D01*
X122837988Y-90969000D01*
X123018433Y-91004893D01*
G37*
G36*
X109048433Y-91004893D02*
G01*
X109138657Y-91022839D01*
X109244267Y-91066585D01*
X109393621Y-91128449D01*
X109393622Y-91128450D01*
X109623086Y-91281772D01*
X109818228Y-91476914D01*
X109886209Y-91578656D01*
X109971551Y-91706379D01*
X110077161Y-91961344D01*
X110131000Y-92232012D01*
X110131000Y-92507988D01*
X110077161Y-92778656D01*
X109971551Y-93033621D01*
X109971550Y-93033622D01*
X109818228Y-93263086D01*
X109623086Y-93458228D01*
X109469763Y-93560675D01*
X109393621Y-93611551D01*
X109263729Y-93665354D01*
X109138657Y-93717161D01*
X109048433Y-93735107D01*
X108867988Y-93771000D01*
X108592012Y-93771000D01*
X108411567Y-93735107D01*
X108321343Y-93717161D01*
X108196271Y-93665354D01*
X108066379Y-93611551D01*
X107990237Y-93560675D01*
X107836914Y-93458228D01*
X107641772Y-93263086D01*
X107488450Y-93033622D01*
X107488449Y-93033621D01*
X107382839Y-92778656D01*
X107329000Y-92507988D01*
X107329000Y-92232012D01*
X107382839Y-91961344D01*
X107488449Y-91706379D01*
X107573791Y-91578656D01*
X107641772Y-91476914D01*
X107836914Y-91281772D01*
X108066378Y-91128450D01*
X108066379Y-91128449D01*
X108215733Y-91066585D01*
X108321343Y-91022839D01*
X108411567Y-91004893D01*
X108592012Y-90969000D01*
X108867988Y-90969000D01*
X109048433Y-91004893D01*
G37*
G36*
X164928433Y-91004893D02*
G01*
X165018657Y-91022839D01*
X165124267Y-91066585D01*
X165273621Y-91128449D01*
X165273622Y-91128450D01*
X165503086Y-91281772D01*
X165698228Y-91476914D01*
X165766209Y-91578656D01*
X165851551Y-91706379D01*
X165957161Y-91961344D01*
X166011000Y-92232012D01*
X166011000Y-92507988D01*
X165957161Y-92778656D01*
X165851551Y-93033621D01*
X165851550Y-93033622D01*
X165698228Y-93263086D01*
X165503086Y-93458228D01*
X165349763Y-93560675D01*
X165273621Y-93611551D01*
X165143729Y-93665354D01*
X165018657Y-93717161D01*
X164928433Y-93735107D01*
X164747988Y-93771000D01*
X164472012Y-93771000D01*
X164291567Y-93735107D01*
X164201343Y-93717161D01*
X164076271Y-93665354D01*
X163946379Y-93611551D01*
X163870237Y-93560675D01*
X163716914Y-93458228D01*
X163521772Y-93263086D01*
X163368450Y-93033622D01*
X163368449Y-93033621D01*
X163262839Y-92778656D01*
X163209000Y-92507988D01*
X163209000Y-92232012D01*
X163262839Y-91961344D01*
X163368449Y-91706379D01*
X163453791Y-91578656D01*
X163521772Y-91476914D01*
X163716914Y-91281772D01*
X163946378Y-91128450D01*
X163946379Y-91128449D01*
X164095733Y-91066585D01*
X164201343Y-91022839D01*
X164291567Y-91004893D01*
X164472012Y-90969000D01*
X164747988Y-90969000D01*
X164928433Y-91004893D01*
G37*
G36*
X136988433Y-91004893D02*
G01*
X137078657Y-91022839D01*
X137184267Y-91066585D01*
X137333621Y-91128449D01*
X137333622Y-91128450D01*
X137563086Y-91281772D01*
X137758228Y-91476914D01*
X137826209Y-91578656D01*
X137911551Y-91706379D01*
X138017161Y-91961344D01*
X138071000Y-92232012D01*
X138071000Y-92507988D01*
X138017161Y-92778656D01*
X137911551Y-93033621D01*
X137911550Y-93033622D01*
X137758228Y-93263086D01*
X137563086Y-93458228D01*
X137409763Y-93560675D01*
X137333621Y-93611551D01*
X137203729Y-93665354D01*
X137078657Y-93717161D01*
X136988433Y-93735107D01*
X136807988Y-93771000D01*
X136532012Y-93771000D01*
X136351567Y-93735107D01*
X136261343Y-93717161D01*
X136136271Y-93665354D01*
X136006379Y-93611551D01*
X135930237Y-93560675D01*
X135776914Y-93458228D01*
X135581772Y-93263086D01*
X135428450Y-93033622D01*
X135428449Y-93033621D01*
X135322839Y-92778656D01*
X135269000Y-92507988D01*
X135269000Y-92232012D01*
X135322839Y-91961344D01*
X135428449Y-91706379D01*
X135513791Y-91578656D01*
X135581772Y-91476914D01*
X135776914Y-91281772D01*
X136006378Y-91128450D01*
X136006379Y-91128449D01*
X136155733Y-91066585D01*
X136261343Y-91022839D01*
X136351567Y-91004893D01*
X136532012Y-90969000D01*
X136807988Y-90969000D01*
X136988433Y-91004893D01*
G37*
G36*
X142558433Y-89804893D02*
G01*
X142648657Y-89822839D01*
X142716998Y-89851147D01*
X142903621Y-89928449D01*
X142903622Y-89928450D01*
X143133086Y-90081772D01*
X143328228Y-90276914D01*
X143430675Y-90430237D01*
X143481551Y-90506379D01*
X143536791Y-90639741D01*
X143587161Y-90761343D01*
X143605107Y-90851567D01*
X143641000Y-91032012D01*
X143641000Y-91307988D01*
X143587161Y-91578656D01*
X143481551Y-91833621D01*
X143481550Y-91833622D01*
X143328228Y-92063086D01*
X143133086Y-92258228D01*
X142979763Y-92360675D01*
X142903621Y-92411551D01*
X142754267Y-92473415D01*
X142648657Y-92517161D01*
X142558433Y-92535107D01*
X142377988Y-92571000D01*
X142102012Y-92571000D01*
X141921567Y-92535107D01*
X141831343Y-92517161D01*
X141725733Y-92473415D01*
X141576379Y-92411551D01*
X141500237Y-92360675D01*
X141346914Y-92258228D01*
X141151772Y-92063086D01*
X140998450Y-91833622D01*
X140998449Y-91833621D01*
X140892839Y-91578656D01*
X140839000Y-91307988D01*
X140839000Y-91032012D01*
X140874893Y-90851567D01*
X140892839Y-90761343D01*
X140943209Y-90639741D01*
X140998449Y-90506379D01*
X141049325Y-90430237D01*
X141151772Y-90276914D01*
X141346914Y-90081772D01*
X141576378Y-89928450D01*
X141576379Y-89928449D01*
X141763002Y-89851147D01*
X141831343Y-89822839D01*
X141921567Y-89804893D01*
X142102012Y-89769000D01*
X142377988Y-89769000D01*
X142558433Y-89804893D01*
G37*
G36*
X128588433Y-89804893D02*
G01*
X128678657Y-89822839D01*
X128746998Y-89851147D01*
X128933621Y-89928449D01*
X128933622Y-89928450D01*
X129163086Y-90081772D01*
X129358228Y-90276914D01*
X129460675Y-90430237D01*
X129511551Y-90506379D01*
X129566791Y-90639741D01*
X129617161Y-90761343D01*
X129635107Y-90851567D01*
X129671000Y-91032012D01*
X129671000Y-91307988D01*
X129617161Y-91578656D01*
X129511551Y-91833621D01*
X129511550Y-91833622D01*
X129358228Y-92063086D01*
X129163086Y-92258228D01*
X129009763Y-92360675D01*
X128933621Y-92411551D01*
X128784267Y-92473415D01*
X128678657Y-92517161D01*
X128588433Y-92535107D01*
X128407988Y-92571000D01*
X128132012Y-92571000D01*
X127951567Y-92535107D01*
X127861343Y-92517161D01*
X127755733Y-92473415D01*
X127606379Y-92411551D01*
X127530237Y-92360675D01*
X127376914Y-92258228D01*
X127181772Y-92063086D01*
X127028450Y-91833622D01*
X127028449Y-91833621D01*
X126922839Y-91578656D01*
X126869000Y-91307988D01*
X126869000Y-91032012D01*
X126904893Y-90851567D01*
X126922839Y-90761343D01*
X126973209Y-90639741D01*
X127028449Y-90506379D01*
X127079325Y-90430237D01*
X127181772Y-90276914D01*
X127376914Y-90081772D01*
X127606378Y-89928450D01*
X127606379Y-89928449D01*
X127793002Y-89851147D01*
X127861343Y-89822839D01*
X127951567Y-89804893D01*
X128132012Y-89769000D01*
X128407988Y-89769000D01*
X128588433Y-89804893D01*
G37*
G36*
X58828433Y-89804893D02*
G01*
X58918657Y-89822839D01*
X58986998Y-89851147D01*
X59173621Y-89928449D01*
X59173622Y-89928450D01*
X59403086Y-90081772D01*
X59598228Y-90276914D01*
X59700675Y-90430237D01*
X59751551Y-90506379D01*
X59806791Y-90639741D01*
X59857161Y-90761343D01*
X59875107Y-90851567D01*
X59911000Y-91032012D01*
X59911000Y-91307988D01*
X59857161Y-91578656D01*
X59751551Y-91833621D01*
X59751550Y-91833622D01*
X59598228Y-92063086D01*
X59403086Y-92258228D01*
X59249763Y-92360675D01*
X59173621Y-92411551D01*
X59024267Y-92473415D01*
X58918657Y-92517161D01*
X58828433Y-92535107D01*
X58647988Y-92571000D01*
X58372012Y-92571000D01*
X58191567Y-92535107D01*
X58101343Y-92517161D01*
X57995733Y-92473415D01*
X57846379Y-92411551D01*
X57770237Y-92360675D01*
X57616914Y-92258228D01*
X57421772Y-92063086D01*
X57268450Y-91833622D01*
X57268449Y-91833621D01*
X57162839Y-91578656D01*
X57109000Y-91307988D01*
X57109000Y-91032012D01*
X57144893Y-90851567D01*
X57162839Y-90761343D01*
X57213209Y-90639741D01*
X57268449Y-90506379D01*
X57319325Y-90430237D01*
X57421772Y-90276914D01*
X57616914Y-90081772D01*
X57846378Y-89928450D01*
X57846379Y-89928449D01*
X58033002Y-89851147D01*
X58101343Y-89822839D01*
X58191567Y-89804893D01*
X58372012Y-89769000D01*
X58647988Y-89769000D01*
X58828433Y-89804893D01*
G37*
G36*
X114618433Y-89804893D02*
G01*
X114708657Y-89822839D01*
X114776998Y-89851147D01*
X114963621Y-89928449D01*
X114963622Y-89928450D01*
X115193086Y-90081772D01*
X115388228Y-90276914D01*
X115490675Y-90430237D01*
X115541551Y-90506379D01*
X115596791Y-90639741D01*
X115647161Y-90761343D01*
X115665107Y-90851567D01*
X115701000Y-91032012D01*
X115701000Y-91307988D01*
X115647161Y-91578656D01*
X115541551Y-91833621D01*
X115541550Y-91833622D01*
X115388228Y-92063086D01*
X115193086Y-92258228D01*
X115039763Y-92360675D01*
X114963621Y-92411551D01*
X114814267Y-92473415D01*
X114708657Y-92517161D01*
X114618433Y-92535107D01*
X114437988Y-92571000D01*
X114162012Y-92571000D01*
X113981567Y-92535107D01*
X113891343Y-92517161D01*
X113785733Y-92473415D01*
X113636379Y-92411551D01*
X113560237Y-92360675D01*
X113406914Y-92258228D01*
X113211772Y-92063086D01*
X113058450Y-91833622D01*
X113058449Y-91833621D01*
X112952839Y-91578656D01*
X112899000Y-91307988D01*
X112899000Y-91032012D01*
X112934893Y-90851567D01*
X112952839Y-90761343D01*
X113003209Y-90639741D01*
X113058449Y-90506379D01*
X113109325Y-90430237D01*
X113211772Y-90276914D01*
X113406914Y-90081772D01*
X113636378Y-89928450D01*
X113636379Y-89928449D01*
X113823002Y-89851147D01*
X113891343Y-89822839D01*
X113981567Y-89804893D01*
X114162012Y-89769000D01*
X114437988Y-89769000D01*
X114618433Y-89804893D01*
G37*
G36*
X72708433Y-89804893D02*
G01*
X72798657Y-89822839D01*
X72866998Y-89851147D01*
X73053621Y-89928449D01*
X73053622Y-89928450D01*
X73283086Y-90081772D01*
X73478228Y-90276914D01*
X73580675Y-90430237D01*
X73631551Y-90506379D01*
X73686791Y-90639741D01*
X73737161Y-90761343D01*
X73755107Y-90851567D01*
X73791000Y-91032012D01*
X73791000Y-91307988D01*
X73737161Y-91578656D01*
X73631551Y-91833621D01*
X73631550Y-91833622D01*
X73478228Y-92063086D01*
X73283086Y-92258228D01*
X73129763Y-92360675D01*
X73053621Y-92411551D01*
X72904267Y-92473415D01*
X72798657Y-92517161D01*
X72708433Y-92535107D01*
X72527988Y-92571000D01*
X72252012Y-92571000D01*
X72071567Y-92535107D01*
X71981343Y-92517161D01*
X71875733Y-92473415D01*
X71726379Y-92411551D01*
X71650237Y-92360675D01*
X71496914Y-92258228D01*
X71301772Y-92063086D01*
X71148450Y-91833622D01*
X71148449Y-91833621D01*
X71042839Y-91578656D01*
X70989000Y-91307988D01*
X70989000Y-91032012D01*
X71024893Y-90851567D01*
X71042839Y-90761343D01*
X71093209Y-90639741D01*
X71148449Y-90506379D01*
X71199325Y-90430237D01*
X71301772Y-90276914D01*
X71496914Y-90081772D01*
X71726378Y-89928450D01*
X71726379Y-89928449D01*
X71913002Y-89851147D01*
X71981343Y-89822839D01*
X72071567Y-89804893D01*
X72252012Y-89769000D01*
X72527988Y-89769000D01*
X72708433Y-89804893D01*
G37*
G36*
X156528433Y-89804893D02*
G01*
X156618657Y-89822839D01*
X156686998Y-89851147D01*
X156873621Y-89928449D01*
X156873622Y-89928450D01*
X157103086Y-90081772D01*
X157298228Y-90276914D01*
X157400675Y-90430237D01*
X157451551Y-90506379D01*
X157506791Y-90639741D01*
X157557161Y-90761343D01*
X157575107Y-90851567D01*
X157611000Y-91032012D01*
X157611000Y-91307988D01*
X157557161Y-91578656D01*
X157451551Y-91833621D01*
X157451550Y-91833622D01*
X157298228Y-92063086D01*
X157103086Y-92258228D01*
X156949763Y-92360675D01*
X156873621Y-92411551D01*
X156724267Y-92473415D01*
X156618657Y-92517161D01*
X156528433Y-92535107D01*
X156347988Y-92571000D01*
X156072012Y-92571000D01*
X155891567Y-92535107D01*
X155801343Y-92517161D01*
X155695733Y-92473415D01*
X155546379Y-92411551D01*
X155470237Y-92360675D01*
X155316914Y-92258228D01*
X155121772Y-92063086D01*
X154968450Y-91833622D01*
X154968449Y-91833621D01*
X154862839Y-91578656D01*
X154809000Y-91307988D01*
X154809000Y-91032012D01*
X154844893Y-90851567D01*
X154862839Y-90761343D01*
X154913209Y-90639741D01*
X154968449Y-90506379D01*
X155019325Y-90430237D01*
X155121772Y-90276914D01*
X155316914Y-90081772D01*
X155546378Y-89928450D01*
X155546379Y-89928449D01*
X155733002Y-89851147D01*
X155801343Y-89822839D01*
X155891567Y-89804893D01*
X156072012Y-89769000D01*
X156347988Y-89769000D01*
X156528433Y-89804893D01*
G37*
G36*
X86678433Y-89804893D02*
G01*
X86768657Y-89822839D01*
X86836998Y-89851147D01*
X87023621Y-89928449D01*
X87023622Y-89928450D01*
X87253086Y-90081772D01*
X87448228Y-90276914D01*
X87550675Y-90430237D01*
X87601551Y-90506379D01*
X87656791Y-90639741D01*
X87707161Y-90761343D01*
X87725107Y-90851567D01*
X87761000Y-91032012D01*
X87761000Y-91307988D01*
X87707161Y-91578656D01*
X87601551Y-91833621D01*
X87601550Y-91833622D01*
X87448228Y-92063086D01*
X87253086Y-92258228D01*
X87099763Y-92360675D01*
X87023621Y-92411551D01*
X86874267Y-92473415D01*
X86768657Y-92517161D01*
X86678433Y-92535107D01*
X86497988Y-92571000D01*
X86222012Y-92571000D01*
X86041567Y-92535107D01*
X85951343Y-92517161D01*
X85845733Y-92473415D01*
X85696379Y-92411551D01*
X85620237Y-92360675D01*
X85466914Y-92258228D01*
X85271772Y-92063086D01*
X85118450Y-91833622D01*
X85118449Y-91833621D01*
X85012839Y-91578656D01*
X84959000Y-91307988D01*
X84959000Y-91032012D01*
X84994893Y-90851567D01*
X85012839Y-90761343D01*
X85063209Y-90639741D01*
X85118449Y-90506379D01*
X85169325Y-90430237D01*
X85271772Y-90276914D01*
X85466914Y-90081772D01*
X85696378Y-89928450D01*
X85696379Y-89928449D01*
X85883002Y-89851147D01*
X85951343Y-89822839D01*
X86041567Y-89804893D01*
X86222012Y-89769000D01*
X86497988Y-89769000D01*
X86678433Y-89804893D01*
G37*
G36*
X100648433Y-89804893D02*
G01*
X100738657Y-89822839D01*
X100806998Y-89851147D01*
X100993621Y-89928449D01*
X100993622Y-89928450D01*
X101223086Y-90081772D01*
X101418228Y-90276914D01*
X101520675Y-90430237D01*
X101571551Y-90506379D01*
X101626791Y-90639741D01*
X101677161Y-90761343D01*
X101695107Y-90851567D01*
X101731000Y-91032012D01*
X101731000Y-91307988D01*
X101677161Y-91578656D01*
X101571551Y-91833621D01*
X101571550Y-91833622D01*
X101418228Y-92063086D01*
X101223086Y-92258228D01*
X101069763Y-92360675D01*
X100993621Y-92411551D01*
X100844267Y-92473415D01*
X100738657Y-92517161D01*
X100648433Y-92535107D01*
X100467988Y-92571000D01*
X100192012Y-92571000D01*
X100011567Y-92535107D01*
X99921343Y-92517161D01*
X99815733Y-92473415D01*
X99666379Y-92411551D01*
X99590237Y-92360675D01*
X99436914Y-92258228D01*
X99241772Y-92063086D01*
X99088450Y-91833622D01*
X99088449Y-91833621D01*
X98982839Y-91578656D01*
X98929000Y-91307988D01*
X98929000Y-91032012D01*
X98964893Y-90851567D01*
X98982839Y-90761343D01*
X99033209Y-90639741D01*
X99088449Y-90506379D01*
X99139325Y-90430237D01*
X99241772Y-90276914D01*
X99436914Y-90081772D01*
X99666378Y-89928450D01*
X99666379Y-89928449D01*
X99853002Y-89851147D01*
X99921343Y-89822839D01*
X100011567Y-89804893D01*
X100192012Y-89769000D01*
X100467988Y-89769000D01*
X100648433Y-89804893D01*
G37*
G36*
X48881512Y-89654927D02*
G01*
X49030812Y-89684624D01*
X49194784Y-89752544D01*
X49342354Y-89851147D01*
X49467853Y-89976646D01*
X49566456Y-90124216D01*
X49634376Y-90288188D01*
X49669000Y-90462259D01*
X49669000Y-90639741D01*
X49634376Y-90813812D01*
X49566456Y-90977784D01*
X49467853Y-91125354D01*
X49342354Y-91250853D01*
X49194784Y-91349456D01*
X49030812Y-91417376D01*
X48881512Y-91447073D01*
X48856742Y-91452000D01*
X48679258Y-91452000D01*
X48654488Y-91447073D01*
X48505188Y-91417376D01*
X48341216Y-91349456D01*
X48193646Y-91250853D01*
X48068147Y-91125354D01*
X47969544Y-90977784D01*
X47901624Y-90813812D01*
X47867000Y-90639741D01*
X47867000Y-90462259D01*
X47901624Y-90288188D01*
X47969544Y-90124216D01*
X48068147Y-89976646D01*
X48193646Y-89851147D01*
X48341216Y-89752544D01*
X48505188Y-89684624D01*
X48654488Y-89654927D01*
X48679258Y-89650000D01*
X48856742Y-89650000D01*
X48881512Y-89654927D01*
G37*
G36*
X46341512Y-89654927D02*
G01*
X46490812Y-89684624D01*
X46654784Y-89752544D01*
X46802354Y-89851147D01*
X46927853Y-89976646D01*
X47026456Y-90124216D01*
X47094376Y-90288188D01*
X47129000Y-90462259D01*
X47129000Y-90639741D01*
X47094376Y-90813812D01*
X47026456Y-90977784D01*
X46927853Y-91125354D01*
X46802354Y-91250853D01*
X46654784Y-91349456D01*
X46490812Y-91417376D01*
X46341512Y-91447073D01*
X46316742Y-91452000D01*
X46139258Y-91452000D01*
X46114488Y-91447073D01*
X45965188Y-91417376D01*
X45801216Y-91349456D01*
X45653646Y-91250853D01*
X45528147Y-91125354D01*
X45429544Y-90977784D01*
X45361624Y-90813812D01*
X45327000Y-90639741D01*
X45327000Y-90462259D01*
X45361624Y-90288188D01*
X45429544Y-90124216D01*
X45528147Y-89976646D01*
X45653646Y-89851147D01*
X45801216Y-89752544D01*
X45965188Y-89684624D01*
X46114488Y-89654927D01*
X46139258Y-89650000D01*
X46316742Y-89650000D01*
X46341512Y-89654927D01*
G37*
G36*
X46341512Y-87114927D02*
G01*
X46490812Y-87144624D01*
X46654784Y-87212544D01*
X46802354Y-87311147D01*
X46927853Y-87436646D01*
X47026456Y-87584216D01*
X47094376Y-87748188D01*
X47129000Y-87922259D01*
X47129000Y-88099741D01*
X47094376Y-88273812D01*
X47026456Y-88437784D01*
X46927853Y-88585354D01*
X46802354Y-88710853D01*
X46654784Y-88809456D01*
X46490812Y-88877376D01*
X46341512Y-88907073D01*
X46316742Y-88912000D01*
X46139258Y-88912000D01*
X46114488Y-88907073D01*
X45965188Y-88877376D01*
X45801216Y-88809456D01*
X45653646Y-88710853D01*
X45528147Y-88585354D01*
X45429544Y-88437784D01*
X45361624Y-88273812D01*
X45327000Y-88099741D01*
X45327000Y-87922259D01*
X45361624Y-87748188D01*
X45429544Y-87584216D01*
X45528147Y-87436646D01*
X45653646Y-87311147D01*
X45801216Y-87212544D01*
X45965188Y-87144624D01*
X46114488Y-87114927D01*
X46139258Y-87110000D01*
X46316742Y-87110000D01*
X46341512Y-87114927D01*
G37*
G36*
X48881512Y-87114927D02*
G01*
X49030812Y-87144624D01*
X49194784Y-87212544D01*
X49342354Y-87311147D01*
X49467853Y-87436646D01*
X49566456Y-87584216D01*
X49634376Y-87748188D01*
X49669000Y-87922259D01*
X49669000Y-88099741D01*
X49634376Y-88273812D01*
X49566456Y-88437784D01*
X49467853Y-88585354D01*
X49342354Y-88710853D01*
X49194784Y-88809456D01*
X49030812Y-88877376D01*
X48881512Y-88907073D01*
X48856742Y-88912000D01*
X48679258Y-88912000D01*
X48654488Y-88907073D01*
X48505188Y-88877376D01*
X48341216Y-88809456D01*
X48193646Y-88710853D01*
X48068147Y-88585354D01*
X47969544Y-88437784D01*
X47901624Y-88273812D01*
X47867000Y-88099741D01*
X47867000Y-87922259D01*
X47901624Y-87748188D01*
X47969544Y-87584216D01*
X48068147Y-87436646D01*
X48193646Y-87311147D01*
X48341216Y-87212544D01*
X48505188Y-87144624D01*
X48654488Y-87114927D01*
X48679258Y-87110000D01*
X48856742Y-87110000D01*
X48881512Y-87114927D01*
G37*
G36*
X124778205Y-84400461D02*
G01*
X124896153Y-84423922D01*
X124988194Y-84462047D01*
X125118359Y-84515963D01*
X125318342Y-84649587D01*
X125488413Y-84819658D01*
X125622037Y-85019641D01*
X125714078Y-85241848D01*
X125761000Y-85477741D01*
X125761000Y-85718259D01*
X125714078Y-85954152D01*
X125622037Y-86176359D01*
X125488413Y-86376342D01*
X125318342Y-86546413D01*
X125118359Y-86680037D01*
X124988194Y-86733953D01*
X124896153Y-86772078D01*
X124660259Y-86819000D01*
X124419741Y-86819000D01*
X124183847Y-86772078D01*
X124091806Y-86733953D01*
X123961641Y-86680037D01*
X123761658Y-86546413D01*
X123591587Y-86376342D01*
X123457963Y-86176359D01*
X123365922Y-85954152D01*
X123319000Y-85718259D01*
X123319000Y-85477741D01*
X123365922Y-85241848D01*
X123457963Y-85019641D01*
X123591587Y-84819658D01*
X123761658Y-84649587D01*
X123961641Y-84515963D01*
X124091806Y-84462047D01*
X124183847Y-84423922D01*
X124419741Y-84377000D01*
X124660259Y-84377000D01*
X124778205Y-84400461D01*
G37*
G36*
X78978205Y-84400461D02*
G01*
X79096153Y-84423922D01*
X79188194Y-84462047D01*
X79318359Y-84515963D01*
X79518342Y-84649587D01*
X79688413Y-84819658D01*
X79822037Y-85019641D01*
X79914078Y-85241848D01*
X79961000Y-85477741D01*
X79961000Y-85718259D01*
X79914078Y-85954152D01*
X79822037Y-86176359D01*
X79688413Y-86376342D01*
X79518342Y-86546413D01*
X79318359Y-86680037D01*
X79188194Y-86733953D01*
X79096153Y-86772078D01*
X78860259Y-86819000D01*
X78619741Y-86819000D01*
X78383847Y-86772078D01*
X78291806Y-86733953D01*
X78161641Y-86680037D01*
X77961658Y-86546413D01*
X77791587Y-86376342D01*
X77657963Y-86176359D01*
X77565922Y-85954152D01*
X77519000Y-85718259D01*
X77519000Y-85477741D01*
X77565922Y-85241848D01*
X77657963Y-85019641D01*
X77791587Y-84819658D01*
X77961658Y-84649587D01*
X78161641Y-84515963D01*
X78291806Y-84462047D01*
X78383847Y-84423922D01*
X78501795Y-84400461D01*
X78619741Y-84377000D01*
X78860259Y-84377000D01*
X78978205Y-84400461D01*
G37*
G36*
X68978205Y-84400461D02*
G01*
X69096153Y-84423922D01*
X69188194Y-84462047D01*
X69318359Y-84515963D01*
X69518342Y-84649587D01*
X69688413Y-84819658D01*
X69822037Y-85019641D01*
X69914078Y-85241848D01*
X69961000Y-85477741D01*
X69961000Y-85718259D01*
X69914078Y-85954152D01*
X69822037Y-86176359D01*
X69688413Y-86376342D01*
X69518342Y-86546413D01*
X69318359Y-86680037D01*
X69188194Y-86733953D01*
X69096153Y-86772078D01*
X68860259Y-86819000D01*
X68619741Y-86819000D01*
X68383847Y-86772078D01*
X68291806Y-86733953D01*
X68161641Y-86680037D01*
X67961658Y-86546413D01*
X67791587Y-86376342D01*
X67657963Y-86176359D01*
X67565922Y-85954152D01*
X67519000Y-85718259D01*
X67519000Y-85477741D01*
X67565922Y-85241848D01*
X67657963Y-85019641D01*
X67791587Y-84819658D01*
X67961658Y-84649587D01*
X68161641Y-84515963D01*
X68291806Y-84462047D01*
X68383847Y-84423922D01*
X68501795Y-84400461D01*
X68619741Y-84377000D01*
X68860259Y-84377000D01*
X68978205Y-84400461D01*
G37*
G36*
X73978205Y-84400461D02*
G01*
X74096153Y-84423922D01*
X74188194Y-84462047D01*
X74318359Y-84515963D01*
X74518342Y-84649587D01*
X74688413Y-84819658D01*
X74822037Y-85019641D01*
X74914078Y-85241848D01*
X74961000Y-85477741D01*
X74961000Y-85718259D01*
X74914078Y-85954152D01*
X74822037Y-86176359D01*
X74688413Y-86376342D01*
X74518342Y-86546413D01*
X74318359Y-86680037D01*
X74188194Y-86733953D01*
X74096153Y-86772078D01*
X73860259Y-86819000D01*
X73619741Y-86819000D01*
X73383847Y-86772078D01*
X73291806Y-86733953D01*
X73161641Y-86680037D01*
X72961658Y-86546413D01*
X72791587Y-86376342D01*
X72657963Y-86176359D01*
X72565922Y-85954152D01*
X72519000Y-85718259D01*
X72519000Y-85477741D01*
X72565922Y-85241848D01*
X72657963Y-85019641D01*
X72791587Y-84819658D01*
X72961658Y-84649587D01*
X73161641Y-84515963D01*
X73291806Y-84462047D01*
X73383847Y-84423922D01*
X73501795Y-84400461D01*
X73619741Y-84377000D01*
X73860259Y-84377000D01*
X73978205Y-84400461D01*
G37*
G36*
X94378205Y-84400461D02*
G01*
X94496153Y-84423922D01*
X94588194Y-84462047D01*
X94718359Y-84515963D01*
X94918342Y-84649587D01*
X95088413Y-84819658D01*
X95222037Y-85019641D01*
X95314078Y-85241848D01*
X95361000Y-85477741D01*
X95361000Y-85718259D01*
X95314078Y-85954152D01*
X95222037Y-86176359D01*
X95088413Y-86376342D01*
X94918342Y-86546413D01*
X94718359Y-86680037D01*
X94588194Y-86733953D01*
X94496153Y-86772078D01*
X94260259Y-86819000D01*
X94019741Y-86819000D01*
X93783847Y-86772078D01*
X93691806Y-86733953D01*
X93561641Y-86680037D01*
X93361658Y-86546413D01*
X93191587Y-86376342D01*
X93057963Y-86176359D01*
X92965922Y-85954152D01*
X92919000Y-85718259D01*
X92919000Y-85477741D01*
X92965922Y-85241848D01*
X93057963Y-85019641D01*
X93191587Y-84819658D01*
X93361658Y-84649587D01*
X93561641Y-84515963D01*
X93691806Y-84462047D01*
X93783847Y-84423922D01*
X93901795Y-84400461D01*
X94019741Y-84377000D01*
X94260259Y-84377000D01*
X94378205Y-84400461D01*
G37*
G36*
X119778205Y-84400461D02*
G01*
X119896153Y-84423922D01*
X119988194Y-84462047D01*
X120118359Y-84515963D01*
X120318342Y-84649587D01*
X120488413Y-84819658D01*
X120622037Y-85019641D01*
X120714078Y-85241848D01*
X120761000Y-85477741D01*
X120761000Y-85718259D01*
X120714078Y-85954152D01*
X120622037Y-86176359D01*
X120488413Y-86376342D01*
X120318342Y-86546413D01*
X120118359Y-86680037D01*
X119988194Y-86733953D01*
X119896153Y-86772078D01*
X119660259Y-86819000D01*
X119419741Y-86819000D01*
X119183847Y-86772078D01*
X119091806Y-86733953D01*
X118961641Y-86680037D01*
X118761658Y-86546413D01*
X118591587Y-86376342D01*
X118457963Y-86176359D01*
X118365922Y-85954152D01*
X118319000Y-85718259D01*
X118319000Y-85477741D01*
X118365922Y-85241848D01*
X118457963Y-85019641D01*
X118591587Y-84819658D01*
X118761658Y-84649587D01*
X118961641Y-84515963D01*
X119091806Y-84462047D01*
X119183847Y-84423922D01*
X119419741Y-84377000D01*
X119660259Y-84377000D01*
X119778205Y-84400461D01*
G37*
G36*
X129778205Y-84400461D02*
G01*
X129896153Y-84423922D01*
X129988194Y-84462047D01*
X130118359Y-84515963D01*
X130318342Y-84649587D01*
X130488413Y-84819658D01*
X130622037Y-85019641D01*
X130714078Y-85241848D01*
X130761000Y-85477741D01*
X130761000Y-85718259D01*
X130714078Y-85954152D01*
X130622037Y-86176359D01*
X130488413Y-86376342D01*
X130318342Y-86546413D01*
X130118359Y-86680037D01*
X129988194Y-86733953D01*
X129896153Y-86772078D01*
X129660259Y-86819000D01*
X129419741Y-86819000D01*
X129183847Y-86772078D01*
X129091806Y-86733953D01*
X128961641Y-86680037D01*
X128761658Y-86546413D01*
X128591587Y-86376342D01*
X128457963Y-86176359D01*
X128365922Y-85954152D01*
X128319000Y-85718259D01*
X128319000Y-85477741D01*
X128365922Y-85241848D01*
X128457963Y-85019641D01*
X128591587Y-84819658D01*
X128761658Y-84649587D01*
X128961641Y-84515963D01*
X129091806Y-84462047D01*
X129183847Y-84423922D01*
X129419741Y-84377000D01*
X129660259Y-84377000D01*
X129778205Y-84400461D01*
G37*
G36*
X104378205Y-84400461D02*
G01*
X104496153Y-84423922D01*
X104588194Y-84462047D01*
X104718359Y-84515963D01*
X104918342Y-84649587D01*
X105088413Y-84819658D01*
X105222037Y-85019641D01*
X105314078Y-85241848D01*
X105361000Y-85477741D01*
X105361000Y-85718259D01*
X105314078Y-85954152D01*
X105222037Y-86176359D01*
X105088413Y-86376342D01*
X104918342Y-86546413D01*
X104718359Y-86680037D01*
X104588194Y-86733953D01*
X104496153Y-86772078D01*
X104260259Y-86819000D01*
X104019741Y-86819000D01*
X103783847Y-86772078D01*
X103691806Y-86733953D01*
X103561641Y-86680037D01*
X103361658Y-86546413D01*
X103191587Y-86376342D01*
X103057963Y-86176359D01*
X102965922Y-85954152D01*
X102919000Y-85718259D01*
X102919000Y-85477741D01*
X102965922Y-85241848D01*
X103057963Y-85019641D01*
X103191587Y-84819658D01*
X103361658Y-84649587D01*
X103561641Y-84515963D01*
X103691806Y-84462047D01*
X103783847Y-84423922D01*
X103901795Y-84400461D01*
X104019741Y-84377000D01*
X104260259Y-84377000D01*
X104378205Y-84400461D01*
G37*
G36*
X145178205Y-84400461D02*
G01*
X145296153Y-84423922D01*
X145388194Y-84462047D01*
X145518359Y-84515963D01*
X145718342Y-84649587D01*
X145888413Y-84819658D01*
X146022037Y-85019641D01*
X146114078Y-85241848D01*
X146161000Y-85477741D01*
X146161000Y-85718259D01*
X146114078Y-85954152D01*
X146022037Y-86176359D01*
X145888413Y-86376342D01*
X145718342Y-86546413D01*
X145518359Y-86680037D01*
X145388194Y-86733953D01*
X145296153Y-86772078D01*
X145060259Y-86819000D01*
X144819741Y-86819000D01*
X144583847Y-86772078D01*
X144491806Y-86733953D01*
X144361641Y-86680037D01*
X144161658Y-86546413D01*
X143991587Y-86376342D01*
X143857963Y-86176359D01*
X143765922Y-85954152D01*
X143719000Y-85718259D01*
X143719000Y-85477741D01*
X143765922Y-85241848D01*
X143857963Y-85019641D01*
X143991587Y-84819658D01*
X144161658Y-84649587D01*
X144361641Y-84515963D01*
X144491806Y-84462047D01*
X144583847Y-84423922D01*
X144819741Y-84377000D01*
X145060259Y-84377000D01*
X145178205Y-84400461D01*
G37*
G36*
X150178205Y-84400461D02*
G01*
X150296153Y-84423922D01*
X150388194Y-84462047D01*
X150518359Y-84515963D01*
X150718342Y-84649587D01*
X150888413Y-84819658D01*
X151022037Y-85019641D01*
X151114078Y-85241848D01*
X151161000Y-85477741D01*
X151161000Y-85718259D01*
X151114078Y-85954152D01*
X151022037Y-86176359D01*
X150888413Y-86376342D01*
X150718342Y-86546413D01*
X150518359Y-86680037D01*
X150388194Y-86733953D01*
X150296153Y-86772078D01*
X150060259Y-86819000D01*
X149819741Y-86819000D01*
X149583847Y-86772078D01*
X149491806Y-86733953D01*
X149361641Y-86680037D01*
X149161658Y-86546413D01*
X148991587Y-86376342D01*
X148857963Y-86176359D01*
X148765922Y-85954152D01*
X148719000Y-85718259D01*
X148719000Y-85477741D01*
X148765922Y-85241848D01*
X148857963Y-85019641D01*
X148991587Y-84819658D01*
X149161658Y-84649587D01*
X149361641Y-84515963D01*
X149491806Y-84462047D01*
X149583847Y-84423922D01*
X149819741Y-84377000D01*
X150060259Y-84377000D01*
X150178205Y-84400461D01*
G37*
G36*
X155178205Y-84400461D02*
G01*
X155296153Y-84423922D01*
X155388194Y-84462047D01*
X155518359Y-84515963D01*
X155718342Y-84649587D01*
X155888413Y-84819658D01*
X156022037Y-85019641D01*
X156114078Y-85241848D01*
X156161000Y-85477741D01*
X156161000Y-85718259D01*
X156114078Y-85954152D01*
X156022037Y-86176359D01*
X155888413Y-86376342D01*
X155718342Y-86546413D01*
X155518359Y-86680037D01*
X155388194Y-86733953D01*
X155296153Y-86772078D01*
X155060259Y-86819000D01*
X154819741Y-86819000D01*
X154583847Y-86772078D01*
X154491806Y-86733953D01*
X154361641Y-86680037D01*
X154161658Y-86546413D01*
X153991587Y-86376342D01*
X153857963Y-86176359D01*
X153765922Y-85954152D01*
X153719000Y-85718259D01*
X153719000Y-85477741D01*
X153765922Y-85241848D01*
X153857963Y-85019641D01*
X153991587Y-84819658D01*
X154161658Y-84649587D01*
X154361641Y-84515963D01*
X154491806Y-84462047D01*
X154583847Y-84423922D01*
X154819741Y-84377000D01*
X155060259Y-84377000D01*
X155178205Y-84400461D01*
G37*
G36*
X99378205Y-84400461D02*
G01*
X99496153Y-84423922D01*
X99588194Y-84462047D01*
X99718359Y-84515963D01*
X99918342Y-84649587D01*
X100088413Y-84819658D01*
X100222037Y-85019641D01*
X100314078Y-85241848D01*
X100361000Y-85477741D01*
X100361000Y-85718259D01*
X100314078Y-85954152D01*
X100222037Y-86176359D01*
X100088413Y-86376342D01*
X99918342Y-86546413D01*
X99718359Y-86680037D01*
X99588194Y-86733953D01*
X99496153Y-86772078D01*
X99260259Y-86819000D01*
X99019741Y-86819000D01*
X98783847Y-86772078D01*
X98691806Y-86733953D01*
X98561641Y-86680037D01*
X98361658Y-86546413D01*
X98191587Y-86376342D01*
X98057963Y-86176359D01*
X97965922Y-85954152D01*
X97919000Y-85718259D01*
X97919000Y-85477741D01*
X97965922Y-85241848D01*
X98057963Y-85019641D01*
X98191587Y-84819658D01*
X98361658Y-84649587D01*
X98561641Y-84515963D01*
X98691806Y-84462047D01*
X98783847Y-84423922D01*
X98901795Y-84400461D01*
X99019741Y-84377000D01*
X99260259Y-84377000D01*
X99378205Y-84400461D01*
G37*
G36*
X47129000Y-86372000D02*
G01*
X45327000Y-86372000D01*
X45327000Y-84570000D01*
X47129000Y-84570000D01*
X47129000Y-86372000D01*
G37*
G36*
X48881512Y-84574927D02*
G01*
X49030812Y-84604624D01*
X49194784Y-84672544D01*
X49342354Y-84771147D01*
X49467853Y-84896646D01*
X49566456Y-85044216D01*
X49634376Y-85208188D01*
X49669000Y-85382259D01*
X49669000Y-85559741D01*
X49634376Y-85733812D01*
X49566456Y-85897784D01*
X49467853Y-86045354D01*
X49342354Y-86170853D01*
X49194784Y-86269456D01*
X49030812Y-86337376D01*
X48881512Y-86367073D01*
X48856742Y-86372000D01*
X48679258Y-86372000D01*
X48654488Y-86367073D01*
X48505188Y-86337376D01*
X48341216Y-86269456D01*
X48193646Y-86170853D01*
X48068147Y-86045354D01*
X47969544Y-85897784D01*
X47901624Y-85733812D01*
X47867000Y-85559741D01*
X47867000Y-85382259D01*
X47901624Y-85208188D01*
X47969544Y-85044216D01*
X48068147Y-84896646D01*
X48193646Y-84771147D01*
X48341216Y-84672544D01*
X48505188Y-84604624D01*
X48654488Y-84574927D01*
X48679258Y-84570000D01*
X48856742Y-84570000D01*
X48881512Y-84574927D01*
G37*
G36*
X160522228Y-81985703D02*
G01*
X160677100Y-82049853D01*
X160816481Y-82142985D01*
X160935015Y-82261519D01*
X161028147Y-82400900D01*
X161092297Y-82555772D01*
X161125000Y-82720184D01*
X161125000Y-82887816D01*
X161092297Y-83052228D01*
X161028147Y-83207100D01*
X160935015Y-83346481D01*
X160816481Y-83465015D01*
X160677100Y-83558147D01*
X160522228Y-83622297D01*
X160357816Y-83655000D01*
X160190184Y-83655000D01*
X160025772Y-83622297D01*
X159870900Y-83558147D01*
X159731519Y-83465015D01*
X159612985Y-83346481D01*
X159519853Y-83207100D01*
X159455703Y-83052228D01*
X159423000Y-82887816D01*
X159423000Y-82720184D01*
X159455703Y-82555772D01*
X159519853Y-82400900D01*
X159612985Y-82261519D01*
X159731519Y-82142985D01*
X159870900Y-82049853D01*
X160025772Y-81985703D01*
X160190184Y-81953000D01*
X160357816Y-81953000D01*
X160522228Y-81985703D01*
G37*
G36*
X151632228Y-81985703D02*
G01*
X151787100Y-82049853D01*
X151926481Y-82142985D01*
X152045015Y-82261519D01*
X152138147Y-82400900D01*
X152202297Y-82555772D01*
X152235000Y-82720184D01*
X152235000Y-82887816D01*
X152202297Y-83052228D01*
X152138147Y-83207100D01*
X152045015Y-83346481D01*
X151926481Y-83465015D01*
X151787100Y-83558147D01*
X151632228Y-83622297D01*
X151467816Y-83655000D01*
X151300184Y-83655000D01*
X151135772Y-83622297D01*
X150980900Y-83558147D01*
X150841519Y-83465015D01*
X150722985Y-83346481D01*
X150629853Y-83207100D01*
X150565703Y-83052228D01*
X150533000Y-82887816D01*
X150533000Y-82720184D01*
X150565703Y-82555772D01*
X150629853Y-82400900D01*
X150722985Y-82261519D01*
X150841519Y-82142985D01*
X150980900Y-82049853D01*
X151135772Y-81985703D01*
X151300184Y-81953000D01*
X151467816Y-81953000D01*
X151632228Y-81985703D01*
G37*
G36*
X100578228Y-81731703D02*
G01*
X100733100Y-81795853D01*
X100872481Y-81888985D01*
X100991015Y-82007519D01*
X101084147Y-82146900D01*
X101148297Y-82301772D01*
X101181000Y-82466184D01*
X101181000Y-82633816D01*
X101148297Y-82798228D01*
X101084147Y-82953100D01*
X100991015Y-83092481D01*
X100872481Y-83211015D01*
X100733100Y-83304147D01*
X100578228Y-83368297D01*
X100413816Y-83401000D01*
X100246184Y-83401000D01*
X100081772Y-83368297D01*
X99926900Y-83304147D01*
X99787519Y-83211015D01*
X99668985Y-83092481D01*
X99575853Y-82953100D01*
X99511703Y-82798228D01*
X99479000Y-82633816D01*
X99479000Y-82466184D01*
X99511703Y-82301772D01*
X99575853Y-82146900D01*
X99668985Y-82007519D01*
X99787519Y-81888985D01*
X99926900Y-81795853D01*
X100081772Y-81731703D01*
X100246184Y-81699000D01*
X100413816Y-81699000D01*
X100578228Y-81731703D01*
G37*
G36*
X75813228Y-81731703D02*
G01*
X75968100Y-81795853D01*
X76107481Y-81888985D01*
X76226015Y-82007519D01*
X76319147Y-82146900D01*
X76383297Y-82301772D01*
X76416000Y-82466184D01*
X76416000Y-82633816D01*
X76383297Y-82798228D01*
X76319147Y-82953100D01*
X76226015Y-83092481D01*
X76107481Y-83211015D01*
X75968100Y-83304147D01*
X75813228Y-83368297D01*
X75648816Y-83401000D01*
X75481184Y-83401000D01*
X75316772Y-83368297D01*
X75161900Y-83304147D01*
X75022519Y-83211015D01*
X74903985Y-83092481D01*
X74810853Y-82953100D01*
X74746703Y-82798228D01*
X74714000Y-82633816D01*
X74714000Y-82466184D01*
X74746703Y-82301772D01*
X74810853Y-82146900D01*
X74903985Y-82007519D01*
X75022519Y-81888985D01*
X75161900Y-81795853D01*
X75316772Y-81731703D01*
X75481184Y-81699000D01*
X75648816Y-81699000D01*
X75813228Y-81731703D01*
G37*
G36*
X86608228Y-81731703D02*
G01*
X86763100Y-81795853D01*
X86902481Y-81888985D01*
X87021015Y-82007519D01*
X87114147Y-82146900D01*
X87178297Y-82301772D01*
X87211000Y-82466184D01*
X87211000Y-82633816D01*
X87178297Y-82798228D01*
X87114147Y-82953100D01*
X87021015Y-83092481D01*
X86902481Y-83211015D01*
X86763100Y-83304147D01*
X86608228Y-83368297D01*
X86443816Y-83401000D01*
X86276184Y-83401000D01*
X86111772Y-83368297D01*
X85956900Y-83304147D01*
X85817519Y-83211015D01*
X85698985Y-83092481D01*
X85605853Y-82953100D01*
X85541703Y-82798228D01*
X85509000Y-82633816D01*
X85509000Y-82466184D01*
X85541703Y-82301772D01*
X85605853Y-82146900D01*
X85698985Y-82007519D01*
X85817519Y-81888985D01*
X85956900Y-81795853D01*
X86111772Y-81731703D01*
X86276184Y-81699000D01*
X86443816Y-81699000D01*
X86608228Y-81731703D01*
G37*
G36*
X112008228Y-81731703D02*
G01*
X112163100Y-81795853D01*
X112302481Y-81888985D01*
X112421015Y-82007519D01*
X112514147Y-82146900D01*
X112578297Y-82301772D01*
X112611000Y-82466184D01*
X112611000Y-82633816D01*
X112578297Y-82798228D01*
X112514147Y-82953100D01*
X112421015Y-83092481D01*
X112302481Y-83211015D01*
X112163100Y-83304147D01*
X112008228Y-83368297D01*
X111843816Y-83401000D01*
X111676184Y-83401000D01*
X111511772Y-83368297D01*
X111356900Y-83304147D01*
X111217519Y-83211015D01*
X111098985Y-83092481D01*
X111005853Y-82953100D01*
X110941703Y-82798228D01*
X110909000Y-82633816D01*
X110909000Y-82466184D01*
X110941703Y-82301772D01*
X111005853Y-82146900D01*
X111098985Y-82007519D01*
X111217519Y-81888985D01*
X111356900Y-81795853D01*
X111511772Y-81731703D01*
X111676184Y-81699000D01*
X111843816Y-81699000D01*
X112008228Y-81731703D01*
G37*
G36*
X126613228Y-81731703D02*
G01*
X126768100Y-81795853D01*
X126907481Y-81888985D01*
X127026015Y-82007519D01*
X127119147Y-82146900D01*
X127183297Y-82301772D01*
X127216000Y-82466184D01*
X127216000Y-82633816D01*
X127183297Y-82798228D01*
X127119147Y-82953100D01*
X127026015Y-83092481D01*
X126907481Y-83211015D01*
X126768100Y-83304147D01*
X126613228Y-83368297D01*
X126448816Y-83401000D01*
X126281184Y-83401000D01*
X126116772Y-83368297D01*
X125961900Y-83304147D01*
X125822519Y-83211015D01*
X125703985Y-83092481D01*
X125610853Y-82953100D01*
X125546703Y-82798228D01*
X125514000Y-82633816D01*
X125514000Y-82466184D01*
X125546703Y-82301772D01*
X125610853Y-82146900D01*
X125703985Y-82007519D01*
X125822519Y-81888985D01*
X125961900Y-81795853D01*
X126116772Y-81731703D01*
X126281184Y-81699000D01*
X126448816Y-81699000D01*
X126613228Y-81731703D01*
G37*
G36*
X134868228Y-81731703D02*
G01*
X135023100Y-81795853D01*
X135162481Y-81888985D01*
X135281015Y-82007519D01*
X135374147Y-82146900D01*
X135438297Y-82301772D01*
X135471000Y-82466184D01*
X135471000Y-82633816D01*
X135438297Y-82798228D01*
X135374147Y-82953100D01*
X135281015Y-83092481D01*
X135162481Y-83211015D01*
X135023100Y-83304147D01*
X134868228Y-83368297D01*
X134703816Y-83401000D01*
X134536184Y-83401000D01*
X134371772Y-83368297D01*
X134216900Y-83304147D01*
X134077519Y-83211015D01*
X133958985Y-83092481D01*
X133865853Y-82953100D01*
X133801703Y-82798228D01*
X133769000Y-82633816D01*
X133769000Y-82466184D01*
X133801703Y-82301772D01*
X133865853Y-82146900D01*
X133958985Y-82007519D01*
X134077519Y-81888985D01*
X134216900Y-81795853D01*
X134371772Y-81731703D01*
X134536184Y-81699000D01*
X134703816Y-81699000D01*
X134868228Y-81731703D01*
G37*
G36*
X74797879Y-69350113D02*
G01*
X75507815Y-69644178D01*
X76146742Y-70071095D01*
X76690105Y-70614458D01*
X77117022Y-71253385D01*
X77411087Y-71963321D01*
X77561000Y-72716984D01*
X77561000Y-73485416D01*
X77411087Y-74239079D01*
X77117022Y-74949015D01*
X76690105Y-75587942D01*
X76146742Y-76131305D01*
X75507815Y-76558222D01*
X74797879Y-76852287D01*
X74044216Y-77002200D01*
X73275784Y-77002200D01*
X72522121Y-76852287D01*
X71812185Y-76558222D01*
X71173258Y-76131305D01*
X70629895Y-75587942D01*
X70202978Y-74949015D01*
X69908913Y-74239079D01*
X69759000Y-73485416D01*
X69759000Y-72716984D01*
X69908913Y-71963321D01*
X70202978Y-71253385D01*
X70629895Y-70614458D01*
X71173258Y-70071095D01*
X71812185Y-69644178D01*
X72522121Y-69350113D01*
X73275784Y-69200200D01*
X74044216Y-69200200D01*
X74797879Y-69350113D01*
G37*
G36*
X150997879Y-69299313D02*
G01*
X151707815Y-69593378D01*
X152346742Y-70020295D01*
X152890105Y-70563658D01*
X153317022Y-71202585D01*
X153611087Y-71912521D01*
X153761000Y-72666184D01*
X153761000Y-73434616D01*
X153611087Y-74188279D01*
X153317022Y-74898215D01*
X152890105Y-75537142D01*
X152346742Y-76080505D01*
X151707815Y-76507422D01*
X150997879Y-76801487D01*
X150244216Y-76951400D01*
X149475784Y-76951400D01*
X148722121Y-76801487D01*
X148012185Y-76507422D01*
X147373258Y-76080505D01*
X146829895Y-75537142D01*
X146402978Y-74898215D01*
X146108913Y-74188279D01*
X145959000Y-73434616D01*
X145959000Y-72666184D01*
X146108913Y-71912521D01*
X146402978Y-71202585D01*
X146829895Y-70563658D01*
X147373258Y-70020295D01*
X148012185Y-69593378D01*
X148722121Y-69299313D01*
X149475784Y-69149400D01*
X150244216Y-69149400D01*
X150997879Y-69299313D01*
G37*
G36*
X100197879Y-69299313D02*
G01*
X100907815Y-69593378D01*
X101546742Y-70020295D01*
X102090105Y-70563658D01*
X102517022Y-71202585D01*
X102811087Y-71912521D01*
X102961000Y-72666184D01*
X102961000Y-73434616D01*
X102811087Y-74188279D01*
X102517022Y-74898215D01*
X102090105Y-75537142D01*
X101546742Y-76080505D01*
X100907815Y-76507422D01*
X100197879Y-76801487D01*
X99444216Y-76951400D01*
X98675784Y-76951400D01*
X97922121Y-76801487D01*
X97212185Y-76507422D01*
X96573258Y-76080505D01*
X96029895Y-75537142D01*
X95602978Y-74898215D01*
X95308913Y-74188279D01*
X95159000Y-73434616D01*
X95159000Y-72666184D01*
X95308913Y-71912521D01*
X95602978Y-71202585D01*
X96029895Y-70563658D01*
X96573258Y-70020295D01*
X97212185Y-69593378D01*
X97922121Y-69299313D01*
X98675784Y-69149400D01*
X99444216Y-69149400D01*
X100197879Y-69299313D01*
G37*
G36*
X125597879Y-69299313D02*
G01*
X126307815Y-69593378D01*
X126946742Y-70020295D01*
X127490105Y-70563658D01*
X127917022Y-71202585D01*
X128211087Y-71912521D01*
X128361000Y-72666184D01*
X128361000Y-73434616D01*
X128211087Y-74188279D01*
X127917022Y-74898215D01*
X127490105Y-75537142D01*
X126946742Y-76080505D01*
X126307815Y-76507422D01*
X125597879Y-76801487D01*
X124844216Y-76951400D01*
X124075784Y-76951400D01*
X123322121Y-76801487D01*
X122612185Y-76507422D01*
X121973258Y-76080505D01*
X121429895Y-75537142D01*
X121002978Y-74898215D01*
X120708913Y-74188279D01*
X120559000Y-73434616D01*
X120559000Y-72666184D01*
X120708913Y-71912521D01*
X121002978Y-71202585D01*
X121429895Y-70563658D01*
X121973258Y-70020295D01*
X122612185Y-69593378D01*
X123322121Y-69299313D01*
X124075784Y-69149400D01*
X124844216Y-69149400D01*
X125597879Y-69299313D01*
G37*
G36*
X66190185Y-71529202D02*
G01*
X66340010Y-71559004D01*
X66622274Y-71675921D01*
X66876305Y-71845659D01*
X67092341Y-72061695D01*
X67262079Y-72315726D01*
X67378996Y-72597990D01*
X67438600Y-72897640D01*
X67438600Y-73203160D01*
X67378996Y-73502810D01*
X67262079Y-73785074D01*
X67092341Y-74039105D01*
X66876305Y-74255141D01*
X66622274Y-74424879D01*
X66340010Y-74541796D01*
X66190185Y-74571598D01*
X66040361Y-74601400D01*
X65734839Y-74601400D01*
X65585015Y-74571598D01*
X65435190Y-74541796D01*
X65152926Y-74424879D01*
X64898895Y-74255141D01*
X64682859Y-74039105D01*
X64513121Y-73785074D01*
X64396204Y-73502810D01*
X64336600Y-73203160D01*
X64336600Y-72897640D01*
X64396204Y-72597990D01*
X64513121Y-72315726D01*
X64682859Y-72061695D01*
X64898895Y-71845659D01*
X65152926Y-71675921D01*
X65435190Y-71559004D01*
X65585015Y-71529202D01*
X65734839Y-71499400D01*
X66040361Y-71499400D01*
X66190185Y-71529202D01*
G37*
G36*
X142390185Y-71529202D02*
G01*
X142540010Y-71559004D01*
X142822274Y-71675921D01*
X143076305Y-71845659D01*
X143292341Y-72061695D01*
X143462079Y-72315726D01*
X143578996Y-72597990D01*
X143638600Y-72897640D01*
X143638600Y-73203160D01*
X143578996Y-73502810D01*
X143462079Y-73785074D01*
X143292341Y-74039105D01*
X143076305Y-74255141D01*
X142822274Y-74424879D01*
X142540010Y-74541796D01*
X142390185Y-74571598D01*
X142240361Y-74601400D01*
X141934839Y-74601400D01*
X141785015Y-74571598D01*
X141635190Y-74541796D01*
X141352926Y-74424879D01*
X141098895Y-74255141D01*
X140882859Y-74039105D01*
X140713121Y-73785074D01*
X140596204Y-73502810D01*
X140536600Y-73203160D01*
X140536600Y-72897640D01*
X140596204Y-72597990D01*
X140713121Y-72315726D01*
X140882859Y-72061695D01*
X141098895Y-71845659D01*
X141352926Y-71675921D01*
X141635190Y-71559004D01*
X141785015Y-71529202D01*
X141934839Y-71499400D01*
X142240361Y-71499400D01*
X142390185Y-71529202D01*
G37*
G36*
X91590185Y-71529202D02*
G01*
X91740010Y-71559004D01*
X92022274Y-71675921D01*
X92276305Y-71845659D01*
X92492341Y-72061695D01*
X92662079Y-72315726D01*
X92778996Y-72597990D01*
X92838600Y-72897640D01*
X92838600Y-73203160D01*
X92778996Y-73502810D01*
X92662079Y-73785074D01*
X92492341Y-74039105D01*
X92276305Y-74255141D01*
X92022274Y-74424879D01*
X91740010Y-74541796D01*
X91590185Y-74571598D01*
X91440361Y-74601400D01*
X91134839Y-74601400D01*
X90985015Y-74571598D01*
X90835190Y-74541796D01*
X90552926Y-74424879D01*
X90298895Y-74255141D01*
X90082859Y-74039105D01*
X89913121Y-73785074D01*
X89796204Y-73502810D01*
X89736600Y-73203160D01*
X89736600Y-72897640D01*
X89796204Y-72597990D01*
X89913121Y-72315726D01*
X90082859Y-72061695D01*
X90298895Y-71845659D01*
X90552926Y-71675921D01*
X90835190Y-71559004D01*
X90985015Y-71529202D01*
X91134839Y-71499400D01*
X91440361Y-71499400D01*
X91590185Y-71529202D01*
G37*
G36*
X117040985Y-71529202D02*
G01*
X117190810Y-71559004D01*
X117473074Y-71675921D01*
X117727105Y-71845659D01*
X117943141Y-72061695D01*
X118112879Y-72315726D01*
X118229796Y-72597990D01*
X118289400Y-72897640D01*
X118289400Y-73203160D01*
X118229796Y-73502810D01*
X118112879Y-73785074D01*
X117943141Y-74039105D01*
X117727105Y-74255141D01*
X117473074Y-74424879D01*
X117190810Y-74541796D01*
X117040985Y-74571598D01*
X116891161Y-74601400D01*
X116585639Y-74601400D01*
X116435815Y-74571598D01*
X116285990Y-74541796D01*
X116003726Y-74424879D01*
X115749695Y-74255141D01*
X115533659Y-74039105D01*
X115363921Y-73785074D01*
X115247004Y-73502810D01*
X115187400Y-73203160D01*
X115187400Y-72897640D01*
X115247004Y-72597990D01*
X115363921Y-72315726D01*
X115533659Y-72061695D01*
X115749695Y-71845659D01*
X116003726Y-71675921D01*
X116285990Y-71559004D01*
X116435815Y-71529202D01*
X116585639Y-71499400D01*
X116891161Y-71499400D01*
X117040985Y-71529202D01*
G37*
G36*
X128091564Y-65084389D02*
G01*
X128282833Y-65163615D01*
X128282835Y-65163616D01*
X128454973Y-65278635D01*
X128601365Y-65425027D01*
X128716385Y-65597167D01*
X128795611Y-65788436D01*
X128836000Y-65991484D01*
X128836000Y-66198516D01*
X128795611Y-66401564D01*
X128739166Y-66537835D01*
X128716384Y-66592835D01*
X128601365Y-66764973D01*
X128454973Y-66911365D01*
X128282835Y-67026384D01*
X128282834Y-67026385D01*
X128282833Y-67026385D01*
X128091564Y-67105611D01*
X127888516Y-67146000D01*
X127681484Y-67146000D01*
X127478436Y-67105611D01*
X127287167Y-67026385D01*
X127287166Y-67026385D01*
X127287165Y-67026384D01*
X127115027Y-66911365D01*
X126968635Y-66764973D01*
X126853616Y-66592835D01*
X126830834Y-66537835D01*
X126774389Y-66401564D01*
X126734000Y-66198516D01*
X126734000Y-65991484D01*
X126774389Y-65788436D01*
X126853615Y-65597167D01*
X126968635Y-65425027D01*
X127115027Y-65278635D01*
X127287165Y-65163616D01*
X127287167Y-65163615D01*
X127478436Y-65084389D01*
X127681484Y-65044000D01*
X127888516Y-65044000D01*
X128091564Y-65084389D01*
G37*
G36*
X153468564Y-65084389D02*
G01*
X153659833Y-65163615D01*
X153659835Y-65163616D01*
X153831973Y-65278635D01*
X153978365Y-65425027D01*
X154093385Y-65597167D01*
X154172611Y-65788436D01*
X154213000Y-65991484D01*
X154213000Y-66198516D01*
X154172611Y-66401564D01*
X154116166Y-66537835D01*
X154093384Y-66592835D01*
X153978365Y-66764973D01*
X153831973Y-66911365D01*
X153659835Y-67026384D01*
X153659834Y-67026385D01*
X153659833Y-67026385D01*
X153468564Y-67105611D01*
X153265516Y-67146000D01*
X153058484Y-67146000D01*
X152855436Y-67105611D01*
X152664167Y-67026385D01*
X152664166Y-67026385D01*
X152664165Y-67026384D01*
X152492027Y-66911365D01*
X152345635Y-66764973D01*
X152230616Y-66592835D01*
X152207834Y-66537835D01*
X152151389Y-66401564D01*
X152111000Y-66198516D01*
X152111000Y-65991484D01*
X152151389Y-65788436D01*
X152230615Y-65597167D01*
X152345635Y-65425027D01*
X152492027Y-65278635D01*
X152664165Y-65163616D01*
X152664167Y-65163615D01*
X152855436Y-65084389D01*
X153058484Y-65044000D01*
X153265516Y-65044000D01*
X153468564Y-65084389D01*
G37*
G36*
X146968564Y-65084389D02*
G01*
X147159833Y-65163615D01*
X147159835Y-65163616D01*
X147331973Y-65278635D01*
X147478365Y-65425027D01*
X147593385Y-65597167D01*
X147672611Y-65788436D01*
X147713000Y-65991484D01*
X147713000Y-66198516D01*
X147672611Y-66401564D01*
X147616166Y-66537835D01*
X147593384Y-66592835D01*
X147478365Y-66764973D01*
X147331973Y-66911365D01*
X147159835Y-67026384D01*
X147159834Y-67026385D01*
X147159833Y-67026385D01*
X146968564Y-67105611D01*
X146765516Y-67146000D01*
X146558484Y-67146000D01*
X146355436Y-67105611D01*
X146164167Y-67026385D01*
X146164166Y-67026385D01*
X146164165Y-67026384D01*
X145992027Y-66911365D01*
X145845635Y-66764973D01*
X145730616Y-66592835D01*
X145707834Y-66537835D01*
X145651389Y-66401564D01*
X145611000Y-66198516D01*
X145611000Y-65991484D01*
X145651389Y-65788436D01*
X145730615Y-65597167D01*
X145845635Y-65425027D01*
X145992027Y-65278635D01*
X146164165Y-65163616D01*
X146164167Y-65163615D01*
X146355436Y-65084389D01*
X146558484Y-65044000D01*
X146765516Y-65044000D01*
X146968564Y-65084389D01*
G37*
G36*
X121591564Y-65084389D02*
G01*
X121782833Y-65163615D01*
X121782835Y-65163616D01*
X121954973Y-65278635D01*
X122101365Y-65425027D01*
X122216385Y-65597167D01*
X122295611Y-65788436D01*
X122336000Y-65991484D01*
X122336000Y-66198516D01*
X122295611Y-66401564D01*
X122239166Y-66537835D01*
X122216384Y-66592835D01*
X122101365Y-66764973D01*
X121954973Y-66911365D01*
X121782835Y-67026384D01*
X121782834Y-67026385D01*
X121782833Y-67026385D01*
X121591564Y-67105611D01*
X121388516Y-67146000D01*
X121181484Y-67146000D01*
X120978436Y-67105611D01*
X120787167Y-67026385D01*
X120787166Y-67026385D01*
X120787165Y-67026384D01*
X120615027Y-66911365D01*
X120468635Y-66764973D01*
X120353616Y-66592835D01*
X120330834Y-66537835D01*
X120274389Y-66401564D01*
X120234000Y-66198516D01*
X120234000Y-65991484D01*
X120274389Y-65788436D01*
X120353615Y-65597167D01*
X120468635Y-65425027D01*
X120615027Y-65278635D01*
X120787165Y-65163616D01*
X120787167Y-65163615D01*
X120978436Y-65084389D01*
X121181484Y-65044000D01*
X121388516Y-65044000D01*
X121591564Y-65084389D01*
G37*
G36*
X77268564Y-65029389D02*
G01*
X77459833Y-65108615D01*
X77459835Y-65108616D01*
X77542147Y-65163615D01*
X77631973Y-65223635D01*
X77778365Y-65370027D01*
X77893385Y-65542167D01*
X77972611Y-65733436D01*
X78013000Y-65936484D01*
X78013000Y-66143516D01*
X77972611Y-66346564D01*
X77893385Y-66537833D01*
X77893384Y-66537835D01*
X77778365Y-66709973D01*
X77631973Y-66856365D01*
X77459835Y-66971384D01*
X77459834Y-66971385D01*
X77459833Y-66971385D01*
X77268564Y-67050611D01*
X77065516Y-67091000D01*
X76858484Y-67091000D01*
X76655436Y-67050611D01*
X76464167Y-66971385D01*
X76464166Y-66971385D01*
X76464165Y-66971384D01*
X76292027Y-66856365D01*
X76145635Y-66709973D01*
X76030616Y-66537835D01*
X76030615Y-66537833D01*
X75951389Y-66346564D01*
X75911000Y-66143516D01*
X75911000Y-65936484D01*
X75951389Y-65733436D01*
X76030615Y-65542167D01*
X76145635Y-65370027D01*
X76292027Y-65223635D01*
X76381853Y-65163615D01*
X76464165Y-65108616D01*
X76464167Y-65108615D01*
X76655436Y-65029389D01*
X76858484Y-64989000D01*
X77065516Y-64989000D01*
X77268564Y-65029389D01*
G37*
G36*
X70768564Y-65029389D02*
G01*
X70959833Y-65108615D01*
X70959835Y-65108616D01*
X71042147Y-65163615D01*
X71131973Y-65223635D01*
X71278365Y-65370027D01*
X71393385Y-65542167D01*
X71472611Y-65733436D01*
X71513000Y-65936484D01*
X71513000Y-66143516D01*
X71472611Y-66346564D01*
X71393385Y-66537833D01*
X71393384Y-66537835D01*
X71278365Y-66709973D01*
X71131973Y-66856365D01*
X70959835Y-66971384D01*
X70959834Y-66971385D01*
X70959833Y-66971385D01*
X70768564Y-67050611D01*
X70565516Y-67091000D01*
X70358484Y-67091000D01*
X70155436Y-67050611D01*
X69964167Y-66971385D01*
X69964166Y-66971385D01*
X69964165Y-66971384D01*
X69792027Y-66856365D01*
X69645635Y-66709973D01*
X69530616Y-66537835D01*
X69530615Y-66537833D01*
X69451389Y-66346564D01*
X69411000Y-66143516D01*
X69411000Y-65936484D01*
X69451389Y-65733436D01*
X69530615Y-65542167D01*
X69645635Y-65370027D01*
X69792027Y-65223635D01*
X69881853Y-65163615D01*
X69964165Y-65108616D01*
X69964167Y-65108615D01*
X70155436Y-65029389D01*
X70358484Y-64989000D01*
X70565516Y-64989000D01*
X70768564Y-65029389D01*
G37*
G36*
X96168564Y-65029389D02*
G01*
X96359833Y-65108615D01*
X96359835Y-65108616D01*
X96442147Y-65163615D01*
X96531973Y-65223635D01*
X96678365Y-65370027D01*
X96793385Y-65542167D01*
X96872611Y-65733436D01*
X96913000Y-65936484D01*
X96913000Y-66143516D01*
X96872611Y-66346564D01*
X96793385Y-66537833D01*
X96793384Y-66537835D01*
X96678365Y-66709973D01*
X96531973Y-66856365D01*
X96359835Y-66971384D01*
X96359834Y-66971385D01*
X96359833Y-66971385D01*
X96168564Y-67050611D01*
X95965516Y-67091000D01*
X95758484Y-67091000D01*
X95555436Y-67050611D01*
X95364167Y-66971385D01*
X95364166Y-66971385D01*
X95364165Y-66971384D01*
X95192027Y-66856365D01*
X95045635Y-66709973D01*
X94930616Y-66537835D01*
X94930615Y-66537833D01*
X94851389Y-66346564D01*
X94811000Y-66143516D01*
X94811000Y-65936484D01*
X94851389Y-65733436D01*
X94930615Y-65542167D01*
X95045635Y-65370027D01*
X95192027Y-65223635D01*
X95281853Y-65163615D01*
X95364165Y-65108616D01*
X95364167Y-65108615D01*
X95555436Y-65029389D01*
X95758484Y-64989000D01*
X95965516Y-64989000D01*
X96168564Y-65029389D01*
G37*
G36*
X102668564Y-65029389D02*
G01*
X102859833Y-65108615D01*
X102859835Y-65108616D01*
X102942147Y-65163615D01*
X103031973Y-65223635D01*
X103178365Y-65370027D01*
X103293385Y-65542167D01*
X103372611Y-65733436D01*
X103413000Y-65936484D01*
X103413000Y-66143516D01*
X103372611Y-66346564D01*
X103293385Y-66537833D01*
X103293384Y-66537835D01*
X103178365Y-66709973D01*
X103031973Y-66856365D01*
X102859835Y-66971384D01*
X102859834Y-66971385D01*
X102859833Y-66971385D01*
X102668564Y-67050611D01*
X102465516Y-67091000D01*
X102258484Y-67091000D01*
X102055436Y-67050611D01*
X101864167Y-66971385D01*
X101864166Y-66971385D01*
X101864165Y-66971384D01*
X101692027Y-66856365D01*
X101545635Y-66709973D01*
X101430616Y-66537835D01*
X101430615Y-66537833D01*
X101351389Y-66346564D01*
X101311000Y-66143516D01*
X101311000Y-65936484D01*
X101351389Y-65733436D01*
X101430615Y-65542167D01*
X101545635Y-65370027D01*
X101692027Y-65223635D01*
X101781853Y-65163615D01*
X101864165Y-65108616D01*
X101864167Y-65108615D01*
X102055436Y-65029389D01*
X102258484Y-64989000D01*
X102465516Y-64989000D01*
X102668564Y-65029389D01*
G37*
G36*
X153468564Y-60584389D02*
G01*
X153659833Y-60663615D01*
X153659835Y-60663616D01*
X153831973Y-60778635D01*
X153978365Y-60925027D01*
X154093385Y-61097167D01*
X154172611Y-61288436D01*
X154213000Y-61491484D01*
X154213000Y-61698516D01*
X154172611Y-61901564D01*
X154116166Y-62037835D01*
X154093384Y-62092835D01*
X153978365Y-62264973D01*
X153831973Y-62411365D01*
X153659835Y-62526384D01*
X153659834Y-62526385D01*
X153659833Y-62526385D01*
X153468564Y-62605611D01*
X153265516Y-62646000D01*
X153058484Y-62646000D01*
X152855436Y-62605611D01*
X152664167Y-62526385D01*
X152664166Y-62526385D01*
X152664165Y-62526384D01*
X152492027Y-62411365D01*
X152345635Y-62264973D01*
X152230616Y-62092835D01*
X152207834Y-62037835D01*
X152151389Y-61901564D01*
X152111000Y-61698516D01*
X152111000Y-61491484D01*
X152151389Y-61288436D01*
X152230615Y-61097167D01*
X152345635Y-60925027D01*
X152492027Y-60778635D01*
X152664165Y-60663616D01*
X152664167Y-60663615D01*
X152855436Y-60584389D01*
X153058484Y-60544000D01*
X153265516Y-60544000D01*
X153468564Y-60584389D01*
G37*
G36*
X146968564Y-60584389D02*
G01*
X147159833Y-60663615D01*
X147159835Y-60663616D01*
X147331973Y-60778635D01*
X147478365Y-60925027D01*
X147593385Y-61097167D01*
X147672611Y-61288436D01*
X147713000Y-61491484D01*
X147713000Y-61698516D01*
X147672611Y-61901564D01*
X147616166Y-62037835D01*
X147593384Y-62092835D01*
X147478365Y-62264973D01*
X147331973Y-62411365D01*
X147159835Y-62526384D01*
X147159834Y-62526385D01*
X147159833Y-62526385D01*
X146968564Y-62605611D01*
X146765516Y-62646000D01*
X146558484Y-62646000D01*
X146355436Y-62605611D01*
X146164167Y-62526385D01*
X146164166Y-62526385D01*
X146164165Y-62526384D01*
X145992027Y-62411365D01*
X145845635Y-62264973D01*
X145730616Y-62092835D01*
X145707834Y-62037835D01*
X145651389Y-61901564D01*
X145611000Y-61698516D01*
X145611000Y-61491484D01*
X145651389Y-61288436D01*
X145730615Y-61097167D01*
X145845635Y-60925027D01*
X145992027Y-60778635D01*
X146164165Y-60663616D01*
X146164167Y-60663615D01*
X146355436Y-60584389D01*
X146558484Y-60544000D01*
X146765516Y-60544000D01*
X146968564Y-60584389D01*
G37*
G36*
X128091564Y-60584389D02*
G01*
X128282833Y-60663615D01*
X128282835Y-60663616D01*
X128454973Y-60778635D01*
X128601365Y-60925027D01*
X128716385Y-61097167D01*
X128795611Y-61288436D01*
X128836000Y-61491484D01*
X128836000Y-61698516D01*
X128795611Y-61901564D01*
X128739166Y-62037835D01*
X128716384Y-62092835D01*
X128601365Y-62264973D01*
X128454973Y-62411365D01*
X128282835Y-62526384D01*
X128282834Y-62526385D01*
X128282833Y-62526385D01*
X128091564Y-62605611D01*
X127888516Y-62646000D01*
X127681484Y-62646000D01*
X127478436Y-62605611D01*
X127287167Y-62526385D01*
X127287166Y-62526385D01*
X127287165Y-62526384D01*
X127115027Y-62411365D01*
X126968635Y-62264973D01*
X126853616Y-62092835D01*
X126830834Y-62037835D01*
X126774389Y-61901564D01*
X126734000Y-61698516D01*
X126734000Y-61491484D01*
X126774389Y-61288436D01*
X126853615Y-61097167D01*
X126968635Y-60925027D01*
X127115027Y-60778635D01*
X127287165Y-60663616D01*
X127287167Y-60663615D01*
X127478436Y-60584389D01*
X127681484Y-60544000D01*
X127888516Y-60544000D01*
X128091564Y-60584389D01*
G37*
G36*
X121591564Y-60584389D02*
G01*
X121782833Y-60663615D01*
X121782835Y-60663616D01*
X121954973Y-60778635D01*
X122101365Y-60925027D01*
X122216385Y-61097167D01*
X122295611Y-61288436D01*
X122336000Y-61491484D01*
X122336000Y-61698516D01*
X122295611Y-61901564D01*
X122239166Y-62037835D01*
X122216384Y-62092835D01*
X122101365Y-62264973D01*
X121954973Y-62411365D01*
X121782835Y-62526384D01*
X121782834Y-62526385D01*
X121782833Y-62526385D01*
X121591564Y-62605611D01*
X121388516Y-62646000D01*
X121181484Y-62646000D01*
X120978436Y-62605611D01*
X120787167Y-62526385D01*
X120787166Y-62526385D01*
X120787165Y-62526384D01*
X120615027Y-62411365D01*
X120468635Y-62264973D01*
X120353616Y-62092835D01*
X120330834Y-62037835D01*
X120274389Y-61901564D01*
X120234000Y-61698516D01*
X120234000Y-61491484D01*
X120274389Y-61288436D01*
X120353615Y-61097167D01*
X120468635Y-60925027D01*
X120615027Y-60778635D01*
X120787165Y-60663616D01*
X120787167Y-60663615D01*
X120978436Y-60584389D01*
X121181484Y-60544000D01*
X121388516Y-60544000D01*
X121591564Y-60584389D01*
G37*
G36*
X70768564Y-60529389D02*
G01*
X70959833Y-60608615D01*
X70959835Y-60608616D01*
X71042147Y-60663615D01*
X71131973Y-60723635D01*
X71278365Y-60870027D01*
X71393385Y-61042167D01*
X71472611Y-61233436D01*
X71513000Y-61436484D01*
X71513000Y-61643516D01*
X71472611Y-61846564D01*
X71393385Y-62037833D01*
X71393384Y-62037835D01*
X71278365Y-62209973D01*
X71131973Y-62356365D01*
X70959835Y-62471384D01*
X70959834Y-62471385D01*
X70959833Y-62471385D01*
X70768564Y-62550611D01*
X70565516Y-62591000D01*
X70358484Y-62591000D01*
X70155436Y-62550611D01*
X69964167Y-62471385D01*
X69964166Y-62471385D01*
X69964165Y-62471384D01*
X69792027Y-62356365D01*
X69645635Y-62209973D01*
X69530616Y-62037835D01*
X69530615Y-62037833D01*
X69451389Y-61846564D01*
X69411000Y-61643516D01*
X69411000Y-61436484D01*
X69451389Y-61233436D01*
X69530615Y-61042167D01*
X69645635Y-60870027D01*
X69792027Y-60723635D01*
X69881853Y-60663615D01*
X69964165Y-60608616D01*
X69964167Y-60608615D01*
X70155436Y-60529389D01*
X70358484Y-60489000D01*
X70565516Y-60489000D01*
X70768564Y-60529389D01*
G37*
G36*
X102668564Y-60529389D02*
G01*
X102859833Y-60608615D01*
X102859835Y-60608616D01*
X102942147Y-60663615D01*
X103031973Y-60723635D01*
X103178365Y-60870027D01*
X103293385Y-61042167D01*
X103372611Y-61233436D01*
X103413000Y-61436484D01*
X103413000Y-61643516D01*
X103372611Y-61846564D01*
X103293385Y-62037833D01*
X103293384Y-62037835D01*
X103178365Y-62209973D01*
X103031973Y-62356365D01*
X102859835Y-62471384D01*
X102859834Y-62471385D01*
X102859833Y-62471385D01*
X102668564Y-62550611D01*
X102465516Y-62591000D01*
X102258484Y-62591000D01*
X102055436Y-62550611D01*
X101864167Y-62471385D01*
X101864166Y-62471385D01*
X101864165Y-62471384D01*
X101692027Y-62356365D01*
X101545635Y-62209973D01*
X101430616Y-62037835D01*
X101430615Y-62037833D01*
X101351389Y-61846564D01*
X101311000Y-61643516D01*
X101311000Y-61436484D01*
X101351389Y-61233436D01*
X101430615Y-61042167D01*
X101545635Y-60870027D01*
X101692027Y-60723635D01*
X101781853Y-60663615D01*
X101864165Y-60608616D01*
X101864167Y-60608615D01*
X102055436Y-60529389D01*
X102258484Y-60489000D01*
X102465516Y-60489000D01*
X102668564Y-60529389D01*
G37*
G36*
X96168564Y-60529389D02*
G01*
X96359833Y-60608615D01*
X96359835Y-60608616D01*
X96442147Y-60663615D01*
X96531973Y-60723635D01*
X96678365Y-60870027D01*
X96793385Y-61042167D01*
X96872611Y-61233436D01*
X96913000Y-61436484D01*
X96913000Y-61643516D01*
X96872611Y-61846564D01*
X96793385Y-62037833D01*
X96793384Y-62037835D01*
X96678365Y-62209973D01*
X96531973Y-62356365D01*
X96359835Y-62471384D01*
X96359834Y-62471385D01*
X96359833Y-62471385D01*
X96168564Y-62550611D01*
X95965516Y-62591000D01*
X95758484Y-62591000D01*
X95555436Y-62550611D01*
X95364167Y-62471385D01*
X95364166Y-62471385D01*
X95364165Y-62471384D01*
X95192027Y-62356365D01*
X95045635Y-62209973D01*
X94930616Y-62037835D01*
X94930615Y-62037833D01*
X94851389Y-61846564D01*
X94811000Y-61643516D01*
X94811000Y-61436484D01*
X94851389Y-61233436D01*
X94930615Y-61042167D01*
X95045635Y-60870027D01*
X95192027Y-60723635D01*
X95281853Y-60663615D01*
X95364165Y-60608616D01*
X95364167Y-60608615D01*
X95555436Y-60529389D01*
X95758484Y-60489000D01*
X95965516Y-60489000D01*
X96168564Y-60529389D01*
G37*
G36*
X77268564Y-60529389D02*
G01*
X77459833Y-60608615D01*
X77459835Y-60608616D01*
X77542147Y-60663615D01*
X77631973Y-60723635D01*
X77778365Y-60870027D01*
X77893385Y-61042167D01*
X77972611Y-61233436D01*
X78013000Y-61436484D01*
X78013000Y-61643516D01*
X77972611Y-61846564D01*
X77893385Y-62037833D01*
X77893384Y-62037835D01*
X77778365Y-62209973D01*
X77631973Y-62356365D01*
X77459835Y-62471384D01*
X77459834Y-62471385D01*
X77459833Y-62471385D01*
X77268564Y-62550611D01*
X77065516Y-62591000D01*
X76858484Y-62591000D01*
X76655436Y-62550611D01*
X76464167Y-62471385D01*
X76464166Y-62471385D01*
X76464165Y-62471384D01*
X76292027Y-62356365D01*
X76145635Y-62209973D01*
X76030616Y-62037835D01*
X76030615Y-62037833D01*
X75951389Y-61846564D01*
X75911000Y-61643516D01*
X75911000Y-61436484D01*
X75951389Y-61233436D01*
X76030615Y-61042167D01*
X76145635Y-60870027D01*
X76292027Y-60723635D01*
X76381853Y-60663615D01*
X76464165Y-60608616D01*
X76464167Y-60608615D01*
X76655436Y-60529389D01*
X76858484Y-60489000D01*
X77065516Y-60489000D01*
X77268564Y-60529389D01*
G37*
G36*
X47302823Y-60121313D02*
G01*
X47463242Y-60169976D01*
X47595906Y-60240886D01*
X47611078Y-60248996D01*
X47740659Y-60355341D01*
X47847004Y-60484922D01*
X47847005Y-60484924D01*
X47926024Y-60632758D01*
X47974687Y-60793177D01*
X47991117Y-60960000D01*
X47974687Y-61126823D01*
X47926024Y-61287242D01*
X47855114Y-61419906D01*
X47847004Y-61435078D01*
X47740659Y-61564659D01*
X47611078Y-61671004D01*
X47611076Y-61671005D01*
X47463242Y-61750024D01*
X47302823Y-61798687D01*
X47177804Y-61811000D01*
X46294196Y-61811000D01*
X46169177Y-61798687D01*
X46008758Y-61750024D01*
X45860924Y-61671005D01*
X45860922Y-61671004D01*
X45731341Y-61564659D01*
X45624996Y-61435078D01*
X45616886Y-61419906D01*
X45545976Y-61287242D01*
X45497313Y-61126823D01*
X45480883Y-60960000D01*
X45497313Y-60793177D01*
X45545976Y-60632758D01*
X45624995Y-60484924D01*
X45624996Y-60484922D01*
X45731341Y-60355341D01*
X45860922Y-60248996D01*
X45876094Y-60240886D01*
X46008758Y-60169976D01*
X46169177Y-60121313D01*
X46294196Y-60109000D01*
X47177804Y-60109000D01*
X47302823Y-60121313D01*
G37*
G36*
X54922823Y-60121313D02*
G01*
X55083242Y-60169976D01*
X55215906Y-60240886D01*
X55231078Y-60248996D01*
X55360659Y-60355341D01*
X55467004Y-60484922D01*
X55467005Y-60484924D01*
X55546024Y-60632758D01*
X55594687Y-60793177D01*
X55611117Y-60960000D01*
X55594687Y-61126823D01*
X55546024Y-61287242D01*
X55475114Y-61419906D01*
X55467004Y-61435078D01*
X55360659Y-61564659D01*
X55231078Y-61671004D01*
X55231076Y-61671005D01*
X55083242Y-61750024D01*
X54922823Y-61798687D01*
X54797804Y-61811000D01*
X53914196Y-61811000D01*
X53789177Y-61798687D01*
X53628758Y-61750024D01*
X53480924Y-61671005D01*
X53480922Y-61671004D01*
X53351341Y-61564659D01*
X53244996Y-61435078D01*
X53236886Y-61419906D01*
X53165976Y-61287242D01*
X53117313Y-61126823D01*
X53100883Y-60960000D01*
X53117313Y-60793177D01*
X53165976Y-60632758D01*
X53244995Y-60484924D01*
X53244996Y-60484922D01*
X53351341Y-60355341D01*
X53480922Y-60248996D01*
X53496094Y-60240886D01*
X53628758Y-60169976D01*
X53789177Y-60121313D01*
X53914196Y-60109000D01*
X54797804Y-60109000D01*
X54922823Y-60121313D01*
G37*
G36*
X47302823Y-57581313D02*
G01*
X47463242Y-57629976D01*
X47595906Y-57700886D01*
X47611078Y-57708996D01*
X47740659Y-57815341D01*
X47847004Y-57944922D01*
X47847005Y-57944924D01*
X47926024Y-58092758D01*
X47926025Y-58092761D01*
X47935083Y-58122620D01*
X47974687Y-58253177D01*
X47991117Y-58420000D01*
X47974687Y-58586823D01*
X47926024Y-58747242D01*
X47855114Y-58879906D01*
X47847004Y-58895078D01*
X47740659Y-59024659D01*
X47611078Y-59131004D01*
X47611076Y-59131005D01*
X47463242Y-59210024D01*
X47302823Y-59258687D01*
X47177804Y-59271000D01*
X46294196Y-59271000D01*
X46169177Y-59258687D01*
X46008758Y-59210024D01*
X45860924Y-59131005D01*
X45860922Y-59131004D01*
X45731341Y-59024659D01*
X45624996Y-58895078D01*
X45616886Y-58879906D01*
X45545976Y-58747242D01*
X45497313Y-58586823D01*
X45480883Y-58420000D01*
X45497313Y-58253177D01*
X45536917Y-58122620D01*
X45545975Y-58092761D01*
X45545976Y-58092758D01*
X45624995Y-57944924D01*
X45624996Y-57944922D01*
X45731341Y-57815341D01*
X45860922Y-57708996D01*
X45876094Y-57700886D01*
X46008758Y-57629976D01*
X46169177Y-57581313D01*
X46294196Y-57569000D01*
X47177804Y-57569000D01*
X47302823Y-57581313D01*
G37*
G36*
X54922823Y-57581313D02*
G01*
X55083242Y-57629976D01*
X55215906Y-57700886D01*
X55231078Y-57708996D01*
X55360659Y-57815341D01*
X55467004Y-57944922D01*
X55467005Y-57944924D01*
X55546024Y-58092758D01*
X55546025Y-58092761D01*
X55555083Y-58122620D01*
X55594687Y-58253177D01*
X55611117Y-58420000D01*
X55594687Y-58586823D01*
X55546024Y-58747242D01*
X55475114Y-58879906D01*
X55467004Y-58895078D01*
X55360659Y-59024659D01*
X55231078Y-59131004D01*
X55231076Y-59131005D01*
X55083242Y-59210024D01*
X54922823Y-59258687D01*
X54797804Y-59271000D01*
X53914196Y-59271000D01*
X53789177Y-59258687D01*
X53628758Y-59210024D01*
X53480924Y-59131005D01*
X53480922Y-59131004D01*
X53351341Y-59024659D01*
X53244996Y-58895078D01*
X53236886Y-58879906D01*
X53165976Y-58747242D01*
X53117313Y-58586823D01*
X53100883Y-58420000D01*
X53117313Y-58253177D01*
X53156917Y-58122620D01*
X53165975Y-58092761D01*
X53165976Y-58092758D01*
X53244995Y-57944924D01*
X53244996Y-57944922D01*
X53351341Y-57815341D01*
X53480922Y-57708996D01*
X53496094Y-57700886D01*
X53628758Y-57629976D01*
X53789177Y-57581313D01*
X53914196Y-57569000D01*
X54797804Y-57569000D01*
X54922823Y-57581313D01*
G37*
G36*
X99378205Y-55952461D02*
G01*
X99496153Y-55975922D01*
X99588194Y-56014047D01*
X99718359Y-56067963D01*
X99918342Y-56201587D01*
X100088413Y-56371658D01*
X100222037Y-56571641D01*
X100314078Y-56793848D01*
X100361000Y-57029741D01*
X100361000Y-57270259D01*
X100314078Y-57506152D01*
X100222037Y-57728359D01*
X100088413Y-57928342D01*
X99918342Y-58098413D01*
X99718359Y-58232037D01*
X99667322Y-58253177D01*
X99496153Y-58324078D01*
X99260259Y-58371000D01*
X99019741Y-58371000D01*
X98783847Y-58324078D01*
X98612678Y-58253177D01*
X98561641Y-58232037D01*
X98361658Y-58098413D01*
X98191587Y-57928342D01*
X98057963Y-57728359D01*
X97965922Y-57506152D01*
X97919000Y-57270259D01*
X97919000Y-57029741D01*
X97965922Y-56793848D01*
X98057963Y-56571641D01*
X98191587Y-56371658D01*
X98361658Y-56201587D01*
X98561641Y-56067963D01*
X98691806Y-56014047D01*
X98783847Y-55975922D01*
X98901795Y-55952461D01*
X99019741Y-55929000D01*
X99260259Y-55929000D01*
X99378205Y-55952461D01*
G37*
G36*
X94378205Y-55952461D02*
G01*
X94496153Y-55975922D01*
X94588194Y-56014047D01*
X94718359Y-56067963D01*
X94918342Y-56201587D01*
X95088413Y-56371658D01*
X95222037Y-56571641D01*
X95314078Y-56793848D01*
X95361000Y-57029741D01*
X95361000Y-57270259D01*
X95314078Y-57506152D01*
X95222037Y-57728359D01*
X95088413Y-57928342D01*
X94918342Y-58098413D01*
X94718359Y-58232037D01*
X94667322Y-58253177D01*
X94496153Y-58324078D01*
X94260259Y-58371000D01*
X94019741Y-58371000D01*
X93783847Y-58324078D01*
X93612678Y-58253177D01*
X93561641Y-58232037D01*
X93361658Y-58098413D01*
X93191587Y-57928342D01*
X93057963Y-57728359D01*
X92965922Y-57506152D01*
X92919000Y-57270259D01*
X92919000Y-57029741D01*
X92965922Y-56793848D01*
X93057963Y-56571641D01*
X93191587Y-56371658D01*
X93361658Y-56201587D01*
X93561641Y-56067963D01*
X93691806Y-56014047D01*
X93783847Y-55975922D01*
X93901795Y-55952461D01*
X94019741Y-55929000D01*
X94260259Y-55929000D01*
X94378205Y-55952461D01*
G37*
G36*
X104378205Y-55952461D02*
G01*
X104496153Y-55975922D01*
X104588194Y-56014047D01*
X104718359Y-56067963D01*
X104918342Y-56201587D01*
X105088413Y-56371658D01*
X105222037Y-56571641D01*
X105314078Y-56793848D01*
X105361000Y-57029741D01*
X105361000Y-57270259D01*
X105314078Y-57506152D01*
X105222037Y-57728359D01*
X105088413Y-57928342D01*
X104918342Y-58098413D01*
X104718359Y-58232037D01*
X104667322Y-58253177D01*
X104496153Y-58324078D01*
X104260259Y-58371000D01*
X104019741Y-58371000D01*
X103783847Y-58324078D01*
X103612678Y-58253177D01*
X103561641Y-58232037D01*
X103361658Y-58098413D01*
X103191587Y-57928342D01*
X103057963Y-57728359D01*
X102965922Y-57506152D01*
X102919000Y-57270259D01*
X102919000Y-57029741D01*
X102965922Y-56793848D01*
X103057963Y-56571641D01*
X103191587Y-56371658D01*
X103361658Y-56201587D01*
X103561641Y-56067963D01*
X103691806Y-56014047D01*
X103783847Y-55975922D01*
X103901795Y-55952461D01*
X104019741Y-55929000D01*
X104260259Y-55929000D01*
X104378205Y-55952461D01*
G37*
G36*
X119778205Y-55952461D02*
G01*
X119896153Y-55975922D01*
X119988194Y-56014047D01*
X120118359Y-56067963D01*
X120318342Y-56201587D01*
X120488413Y-56371658D01*
X120622037Y-56571641D01*
X120714078Y-56793848D01*
X120761000Y-57029741D01*
X120761000Y-57270259D01*
X120714078Y-57506152D01*
X120622037Y-57728359D01*
X120488413Y-57928342D01*
X120318342Y-58098413D01*
X120118359Y-58232037D01*
X120067322Y-58253177D01*
X119896153Y-58324078D01*
X119660259Y-58371000D01*
X119419741Y-58371000D01*
X119183847Y-58324078D01*
X119012678Y-58253177D01*
X118961641Y-58232037D01*
X118761658Y-58098413D01*
X118591587Y-57928342D01*
X118457963Y-57728359D01*
X118365922Y-57506152D01*
X118319000Y-57270259D01*
X118319000Y-57029741D01*
X118365922Y-56793848D01*
X118457963Y-56571641D01*
X118591587Y-56371658D01*
X118761658Y-56201587D01*
X118961641Y-56067963D01*
X119091806Y-56014047D01*
X119183847Y-55975922D01*
X119301795Y-55952461D01*
X119419741Y-55929000D01*
X119660259Y-55929000D01*
X119778205Y-55952461D01*
G37*
G36*
X124778205Y-55952461D02*
G01*
X124896153Y-55975922D01*
X124988194Y-56014047D01*
X125118359Y-56067963D01*
X125318342Y-56201587D01*
X125488413Y-56371658D01*
X125622037Y-56571641D01*
X125714078Y-56793848D01*
X125761000Y-57029741D01*
X125761000Y-57270259D01*
X125714078Y-57506152D01*
X125622037Y-57728359D01*
X125488413Y-57928342D01*
X125318342Y-58098413D01*
X125118359Y-58232037D01*
X125067322Y-58253177D01*
X124896153Y-58324078D01*
X124660259Y-58371000D01*
X124419741Y-58371000D01*
X124183847Y-58324078D01*
X124012678Y-58253177D01*
X123961641Y-58232037D01*
X123761658Y-58098413D01*
X123591587Y-57928342D01*
X123457963Y-57728359D01*
X123365922Y-57506152D01*
X123319000Y-57270259D01*
X123319000Y-57029741D01*
X123365922Y-56793848D01*
X123457963Y-56571641D01*
X123591587Y-56371658D01*
X123761658Y-56201587D01*
X123961641Y-56067963D01*
X124091806Y-56014047D01*
X124183847Y-55975922D01*
X124301795Y-55952461D01*
X124419741Y-55929000D01*
X124660259Y-55929000D01*
X124778205Y-55952461D01*
G37*
G36*
X155178205Y-55952461D02*
G01*
X155296153Y-55975922D01*
X155388194Y-56014047D01*
X155518359Y-56067963D01*
X155718342Y-56201587D01*
X155888413Y-56371658D01*
X156022037Y-56571641D01*
X156114078Y-56793848D01*
X156161000Y-57029741D01*
X156161000Y-57270259D01*
X156114078Y-57506152D01*
X156022037Y-57728359D01*
X155888413Y-57928342D01*
X155718342Y-58098413D01*
X155518359Y-58232037D01*
X155467322Y-58253177D01*
X155296153Y-58324078D01*
X155060259Y-58371000D01*
X154819741Y-58371000D01*
X154583847Y-58324078D01*
X154412678Y-58253177D01*
X154361641Y-58232037D01*
X154161658Y-58098413D01*
X153991587Y-57928342D01*
X153857963Y-57728359D01*
X153765922Y-57506152D01*
X153719000Y-57270259D01*
X153719000Y-57029741D01*
X153765922Y-56793848D01*
X153857963Y-56571641D01*
X153991587Y-56371658D01*
X154161658Y-56201587D01*
X154361641Y-56067963D01*
X154491806Y-56014047D01*
X154583847Y-55975922D01*
X154701795Y-55952461D01*
X154819741Y-55929000D01*
X155060259Y-55929000D01*
X155178205Y-55952461D01*
G37*
G36*
X73978205Y-55952461D02*
G01*
X74096153Y-55975922D01*
X74188194Y-56014047D01*
X74318359Y-56067963D01*
X74518342Y-56201587D01*
X74688413Y-56371658D01*
X74822037Y-56571641D01*
X74914078Y-56793848D01*
X74961000Y-57029741D01*
X74961000Y-57270259D01*
X74914078Y-57506152D01*
X74822037Y-57728359D01*
X74688413Y-57928342D01*
X74518342Y-58098413D01*
X74318359Y-58232037D01*
X74267322Y-58253177D01*
X74096153Y-58324078D01*
X73860259Y-58371000D01*
X73619741Y-58371000D01*
X73383847Y-58324078D01*
X73212678Y-58253177D01*
X73161641Y-58232037D01*
X72961658Y-58098413D01*
X72791587Y-57928342D01*
X72657963Y-57728359D01*
X72565922Y-57506152D01*
X72519000Y-57270259D01*
X72519000Y-57029741D01*
X72565922Y-56793848D01*
X72657963Y-56571641D01*
X72791587Y-56371658D01*
X72961658Y-56201587D01*
X73161641Y-56067963D01*
X73291806Y-56014047D01*
X73383847Y-55975922D01*
X73501795Y-55952461D01*
X73619741Y-55929000D01*
X73860259Y-55929000D01*
X73978205Y-55952461D01*
G37*
G36*
X78978205Y-55952461D02*
G01*
X79096153Y-55975922D01*
X79188194Y-56014047D01*
X79318359Y-56067963D01*
X79518342Y-56201587D01*
X79688413Y-56371658D01*
X79822037Y-56571641D01*
X79914078Y-56793848D01*
X79961000Y-57029741D01*
X79961000Y-57270259D01*
X79914078Y-57506152D01*
X79822037Y-57728359D01*
X79688413Y-57928342D01*
X79518342Y-58098413D01*
X79318359Y-58232037D01*
X79267322Y-58253177D01*
X79096153Y-58324078D01*
X78860259Y-58371000D01*
X78619741Y-58371000D01*
X78383847Y-58324078D01*
X78212678Y-58253177D01*
X78161641Y-58232037D01*
X77961658Y-58098413D01*
X77791587Y-57928342D01*
X77657963Y-57728359D01*
X77565922Y-57506152D01*
X77519000Y-57270259D01*
X77519000Y-57029741D01*
X77565922Y-56793848D01*
X77657963Y-56571641D01*
X77791587Y-56371658D01*
X77961658Y-56201587D01*
X78161641Y-56067963D01*
X78291806Y-56014047D01*
X78383847Y-55975922D01*
X78501795Y-55952461D01*
X78619741Y-55929000D01*
X78860259Y-55929000D01*
X78978205Y-55952461D01*
G37*
G36*
X129778205Y-55952461D02*
G01*
X129896153Y-55975922D01*
X129988194Y-56014047D01*
X130118359Y-56067963D01*
X130318342Y-56201587D01*
X130488413Y-56371658D01*
X130622037Y-56571641D01*
X130714078Y-56793848D01*
X130761000Y-57029741D01*
X130761000Y-57270259D01*
X130714078Y-57506152D01*
X130622037Y-57728359D01*
X130488413Y-57928342D01*
X130318342Y-58098413D01*
X130118359Y-58232037D01*
X130067322Y-58253177D01*
X129896153Y-58324078D01*
X129660259Y-58371000D01*
X129419741Y-58371000D01*
X129183847Y-58324078D01*
X129012678Y-58253177D01*
X128961641Y-58232037D01*
X128761658Y-58098413D01*
X128591587Y-57928342D01*
X128457963Y-57728359D01*
X128365922Y-57506152D01*
X128319000Y-57270259D01*
X128319000Y-57029741D01*
X128365922Y-56793848D01*
X128457963Y-56571641D01*
X128591587Y-56371658D01*
X128761658Y-56201587D01*
X128961641Y-56067963D01*
X129091806Y-56014047D01*
X129183847Y-55975922D01*
X129301795Y-55952461D01*
X129419741Y-55929000D01*
X129660259Y-55929000D01*
X129778205Y-55952461D01*
G37*
G36*
X150178205Y-55952461D02*
G01*
X150296153Y-55975922D01*
X150388194Y-56014047D01*
X150518359Y-56067963D01*
X150718342Y-56201587D01*
X150888413Y-56371658D01*
X151022037Y-56571641D01*
X151114078Y-56793848D01*
X151161000Y-57029741D01*
X151161000Y-57270259D01*
X151114078Y-57506152D01*
X151022037Y-57728359D01*
X150888413Y-57928342D01*
X150718342Y-58098413D01*
X150518359Y-58232037D01*
X150467322Y-58253177D01*
X150296153Y-58324078D01*
X150060259Y-58371000D01*
X149819741Y-58371000D01*
X149583847Y-58324078D01*
X149412678Y-58253177D01*
X149361641Y-58232037D01*
X149161658Y-58098413D01*
X148991587Y-57928342D01*
X148857963Y-57728359D01*
X148765922Y-57506152D01*
X148719000Y-57270259D01*
X148719000Y-57029741D01*
X148765922Y-56793848D01*
X148857963Y-56571641D01*
X148991587Y-56371658D01*
X149161658Y-56201587D01*
X149361641Y-56067963D01*
X149491806Y-56014047D01*
X149583847Y-55975922D01*
X149701795Y-55952461D01*
X149819741Y-55929000D01*
X150060259Y-55929000D01*
X150178205Y-55952461D01*
G37*
G36*
X68978205Y-55952461D02*
G01*
X69096153Y-55975922D01*
X69188194Y-56014047D01*
X69318359Y-56067963D01*
X69518342Y-56201587D01*
X69688413Y-56371658D01*
X69822037Y-56571641D01*
X69914078Y-56793848D01*
X69961000Y-57029741D01*
X69961000Y-57270259D01*
X69914078Y-57506152D01*
X69822037Y-57728359D01*
X69688413Y-57928342D01*
X69518342Y-58098413D01*
X69318359Y-58232037D01*
X69267322Y-58253177D01*
X69096153Y-58324078D01*
X68860259Y-58371000D01*
X68619741Y-58371000D01*
X68383847Y-58324078D01*
X68212678Y-58253177D01*
X68161641Y-58232037D01*
X67961658Y-58098413D01*
X67791587Y-57928342D01*
X67657963Y-57728359D01*
X67565922Y-57506152D01*
X67519000Y-57270259D01*
X67519000Y-57029741D01*
X67565922Y-56793848D01*
X67657963Y-56571641D01*
X67791587Y-56371658D01*
X67961658Y-56201587D01*
X68161641Y-56067963D01*
X68291806Y-56014047D01*
X68383847Y-55975922D01*
X68501795Y-55952461D01*
X68619741Y-55929000D01*
X68860259Y-55929000D01*
X68978205Y-55952461D01*
G37*
G36*
X145178205Y-55952461D02*
G01*
X145296153Y-55975922D01*
X145388194Y-56014047D01*
X145518359Y-56067963D01*
X145718342Y-56201587D01*
X145888413Y-56371658D01*
X146022037Y-56571641D01*
X146114078Y-56793848D01*
X146161000Y-57029741D01*
X146161000Y-57270259D01*
X146114078Y-57506152D01*
X146022037Y-57728359D01*
X145888413Y-57928342D01*
X145718342Y-58098413D01*
X145518359Y-58232037D01*
X145467322Y-58253177D01*
X145296153Y-58324078D01*
X145060259Y-58371000D01*
X144819741Y-58371000D01*
X144583847Y-58324078D01*
X144412678Y-58253177D01*
X144361641Y-58232037D01*
X144161658Y-58098413D01*
X143991587Y-57928342D01*
X143857963Y-57728359D01*
X143765922Y-57506152D01*
X143719000Y-57270259D01*
X143719000Y-57029741D01*
X143765922Y-56793848D01*
X143857963Y-56571641D01*
X143991587Y-56371658D01*
X144161658Y-56201587D01*
X144361641Y-56067963D01*
X144491806Y-56014047D01*
X144583847Y-55975922D01*
X144701795Y-55952461D01*
X144819741Y-55929000D01*
X145060259Y-55929000D01*
X145178205Y-55952461D01*
G37*
G36*
X54922823Y-55041313D02*
G01*
X55083242Y-55089976D01*
X55215906Y-55160886D01*
X55231078Y-55168996D01*
X55360659Y-55275341D01*
X55467004Y-55404922D01*
X55467005Y-55404924D01*
X55546024Y-55552758D01*
X55594687Y-55713177D01*
X55611117Y-55880000D01*
X55594687Y-56046823D01*
X55594686Y-56046825D01*
X55547740Y-56201587D01*
X55546024Y-56207242D01*
X55475114Y-56339906D01*
X55467004Y-56355078D01*
X55360659Y-56484659D01*
X55231078Y-56591004D01*
X55231076Y-56591005D01*
X55083242Y-56670024D01*
X54922823Y-56718687D01*
X54797804Y-56731000D01*
X53914196Y-56731000D01*
X53789177Y-56718687D01*
X53628758Y-56670024D01*
X53480924Y-56591005D01*
X53480922Y-56591004D01*
X53351341Y-56484659D01*
X53244996Y-56355078D01*
X53236886Y-56339906D01*
X53165976Y-56207242D01*
X53164261Y-56201587D01*
X53117314Y-56046825D01*
X53117313Y-56046823D01*
X53100883Y-55880000D01*
X53117313Y-55713177D01*
X53165976Y-55552758D01*
X53244995Y-55404924D01*
X53244996Y-55404922D01*
X53351341Y-55275341D01*
X53480922Y-55168996D01*
X53496094Y-55160886D01*
X53628758Y-55089976D01*
X53789177Y-55041313D01*
X53914196Y-55029000D01*
X54797804Y-55029000D01*
X54922823Y-55041313D01*
G37*
G36*
X47302823Y-55041313D02*
G01*
X47463242Y-55089976D01*
X47595906Y-55160886D01*
X47611078Y-55168996D01*
X47740659Y-55275341D01*
X47847004Y-55404922D01*
X47847005Y-55404924D01*
X47926024Y-55552758D01*
X47974687Y-55713177D01*
X47991117Y-55880000D01*
X47974687Y-56046823D01*
X47974686Y-56046825D01*
X47927740Y-56201587D01*
X47926024Y-56207242D01*
X47855114Y-56339906D01*
X47847004Y-56355078D01*
X47740659Y-56484659D01*
X47611078Y-56591004D01*
X47611076Y-56591005D01*
X47463242Y-56670024D01*
X47302823Y-56718687D01*
X47177804Y-56731000D01*
X46294196Y-56731000D01*
X46169177Y-56718687D01*
X46008758Y-56670024D01*
X45860924Y-56591005D01*
X45860922Y-56591004D01*
X45731341Y-56484659D01*
X45624996Y-56355078D01*
X45616886Y-56339906D01*
X45545976Y-56207242D01*
X45544261Y-56201587D01*
X45497314Y-56046825D01*
X45497313Y-56046823D01*
X45480883Y-55880000D01*
X45497313Y-55713177D01*
X45545976Y-55552758D01*
X45624995Y-55404924D01*
X45624996Y-55404922D01*
X45731341Y-55275341D01*
X45860922Y-55168996D01*
X45876094Y-55160886D01*
X46008758Y-55089976D01*
X46169177Y-55041313D01*
X46294196Y-55029000D01*
X47177804Y-55029000D01*
X47302823Y-55041313D01*
G37*
G36*
X77083228Y-53156703D02*
G01*
X77238100Y-53220853D01*
X77377481Y-53313985D01*
X77496015Y-53432519D01*
X77589147Y-53571900D01*
X77653297Y-53726772D01*
X77686000Y-53891184D01*
X77686000Y-54058816D01*
X77653297Y-54223228D01*
X77589147Y-54378100D01*
X77496015Y-54517481D01*
X77377481Y-54636015D01*
X77238100Y-54729147D01*
X77083228Y-54793297D01*
X76918816Y-54826000D01*
X76751184Y-54826000D01*
X76586772Y-54793297D01*
X76431900Y-54729147D01*
X76292519Y-54636015D01*
X76173985Y-54517481D01*
X76080853Y-54378100D01*
X76016703Y-54223228D01*
X75984000Y-54058816D01*
X75984000Y-53891184D01*
X76016703Y-53726772D01*
X76080853Y-53571900D01*
X76173985Y-53432519D01*
X76292519Y-53313985D01*
X76431900Y-53220853D01*
X76586772Y-53156703D01*
X76751184Y-53124000D01*
X76918816Y-53124000D01*
X77083228Y-53156703D01*
G37*
G36*
X87243228Y-53156703D02*
G01*
X87398100Y-53220853D01*
X87537481Y-53313985D01*
X87656015Y-53432519D01*
X87749147Y-53571900D01*
X87813297Y-53726772D01*
X87846000Y-53891184D01*
X87846000Y-54058816D01*
X87813297Y-54223228D01*
X87749147Y-54378100D01*
X87656015Y-54517481D01*
X87537481Y-54636015D01*
X87398100Y-54729147D01*
X87243228Y-54793297D01*
X87078816Y-54826000D01*
X86911184Y-54826000D01*
X86746772Y-54793297D01*
X86591900Y-54729147D01*
X86452519Y-54636015D01*
X86333985Y-54517481D01*
X86240853Y-54378100D01*
X86176703Y-54223228D01*
X86144000Y-54058816D01*
X86144000Y-53891184D01*
X86176703Y-53726772D01*
X86240853Y-53571900D01*
X86333985Y-53432519D01*
X86452519Y-53313985D01*
X86591900Y-53220853D01*
X86746772Y-53156703D01*
X86911184Y-53124000D01*
X87078816Y-53124000D01*
X87243228Y-53156703D01*
G37*
G36*
X162808228Y-53156703D02*
G01*
X162963100Y-53220853D01*
X163102481Y-53313985D01*
X163221015Y-53432519D01*
X163314147Y-53571900D01*
X163378297Y-53726772D01*
X163411000Y-53891184D01*
X163411000Y-54058816D01*
X163378297Y-54223228D01*
X163314147Y-54378100D01*
X163221015Y-54517481D01*
X163102481Y-54636015D01*
X162963100Y-54729147D01*
X162808228Y-54793297D01*
X162643816Y-54826000D01*
X162476184Y-54826000D01*
X162311772Y-54793297D01*
X162156900Y-54729147D01*
X162017519Y-54636015D01*
X161898985Y-54517481D01*
X161805853Y-54378100D01*
X161741703Y-54223228D01*
X161709000Y-54058816D01*
X161709000Y-53891184D01*
X161741703Y-53726772D01*
X161805853Y-53571900D01*
X161898985Y-53432519D01*
X162017519Y-53313985D01*
X162156900Y-53220853D01*
X162311772Y-53156703D01*
X162476184Y-53124000D01*
X162643816Y-53124000D01*
X162808228Y-53156703D01*
G37*
G36*
X152648228Y-53156703D02*
G01*
X152803100Y-53220853D01*
X152942481Y-53313985D01*
X153061015Y-53432519D01*
X153154147Y-53571900D01*
X153218297Y-53726772D01*
X153251000Y-53891184D01*
X153251000Y-54058816D01*
X153218297Y-54223228D01*
X153154147Y-54378100D01*
X153061015Y-54517481D01*
X152942481Y-54636015D01*
X152803100Y-54729147D01*
X152648228Y-54793297D01*
X152483816Y-54826000D01*
X152316184Y-54826000D01*
X152151772Y-54793297D01*
X151996900Y-54729147D01*
X151857519Y-54636015D01*
X151738985Y-54517481D01*
X151645853Y-54378100D01*
X151581703Y-54223228D01*
X151549000Y-54058816D01*
X151549000Y-53891184D01*
X151581703Y-53726772D01*
X151645853Y-53571900D01*
X151738985Y-53432519D01*
X151857519Y-53313985D01*
X151996900Y-53220853D01*
X152151772Y-53156703D01*
X152316184Y-53124000D01*
X152483816Y-53124000D01*
X152648228Y-53156703D01*
G37*
G36*
X101848228Y-53156703D02*
G01*
X102003100Y-53220853D01*
X102142481Y-53313985D01*
X102261015Y-53432519D01*
X102354147Y-53571900D01*
X102418297Y-53726772D01*
X102451000Y-53891184D01*
X102451000Y-54058816D01*
X102418297Y-54223228D01*
X102354147Y-54378100D01*
X102261015Y-54517481D01*
X102142481Y-54636015D01*
X102003100Y-54729147D01*
X101848228Y-54793297D01*
X101683816Y-54826000D01*
X101516184Y-54826000D01*
X101351772Y-54793297D01*
X101196900Y-54729147D01*
X101057519Y-54636015D01*
X100938985Y-54517481D01*
X100845853Y-54378100D01*
X100781703Y-54223228D01*
X100749000Y-54058816D01*
X100749000Y-53891184D01*
X100781703Y-53726772D01*
X100845853Y-53571900D01*
X100938985Y-53432519D01*
X101057519Y-53313985D01*
X101196900Y-53220853D01*
X101351772Y-53156703D01*
X101516184Y-53124000D01*
X101683816Y-53124000D01*
X101848228Y-53156703D01*
G37*
G36*
X138678228Y-53156703D02*
G01*
X138833100Y-53220853D01*
X138972481Y-53313985D01*
X139091015Y-53432519D01*
X139184147Y-53571900D01*
X139248297Y-53726772D01*
X139281000Y-53891184D01*
X139281000Y-54058816D01*
X139248297Y-54223228D01*
X139184147Y-54378100D01*
X139091015Y-54517481D01*
X138972481Y-54636015D01*
X138833100Y-54729147D01*
X138678228Y-54793297D01*
X138513816Y-54826000D01*
X138346184Y-54826000D01*
X138181772Y-54793297D01*
X138026900Y-54729147D01*
X137887519Y-54636015D01*
X137768985Y-54517481D01*
X137675853Y-54378100D01*
X137611703Y-54223228D01*
X137579000Y-54058816D01*
X137579000Y-53891184D01*
X137611703Y-53726772D01*
X137675853Y-53571900D01*
X137768985Y-53432519D01*
X137887519Y-53313985D01*
X138026900Y-53220853D01*
X138181772Y-53156703D01*
X138346184Y-53124000D01*
X138513816Y-53124000D01*
X138678228Y-53156703D01*
G37*
G36*
X113913228Y-53156703D02*
G01*
X114068100Y-53220853D01*
X114207481Y-53313985D01*
X114326015Y-53432519D01*
X114419147Y-53571900D01*
X114483297Y-53726772D01*
X114516000Y-53891184D01*
X114516000Y-54058816D01*
X114483297Y-54223228D01*
X114419147Y-54378100D01*
X114326015Y-54517481D01*
X114207481Y-54636015D01*
X114068100Y-54729147D01*
X113913228Y-54793297D01*
X113748816Y-54826000D01*
X113581184Y-54826000D01*
X113416772Y-54793297D01*
X113261900Y-54729147D01*
X113122519Y-54636015D01*
X113003985Y-54517481D01*
X112910853Y-54378100D01*
X112846703Y-54223228D01*
X112814000Y-54058816D01*
X112814000Y-53891184D01*
X112846703Y-53726772D01*
X112910853Y-53571900D01*
X113003985Y-53432519D01*
X113122519Y-53313985D01*
X113261900Y-53220853D01*
X113416772Y-53156703D01*
X113581184Y-53124000D01*
X113748816Y-53124000D01*
X113913228Y-53156703D01*
G37*
G36*
X126613228Y-53156703D02*
G01*
X126768100Y-53220853D01*
X126907481Y-53313985D01*
X127026015Y-53432519D01*
X127119147Y-53571900D01*
X127183297Y-53726772D01*
X127216000Y-53891184D01*
X127216000Y-54058816D01*
X127183297Y-54223228D01*
X127119147Y-54378100D01*
X127026015Y-54517481D01*
X126907481Y-54636015D01*
X126768100Y-54729147D01*
X126613228Y-54793297D01*
X126448816Y-54826000D01*
X126281184Y-54826000D01*
X126116772Y-54793297D01*
X125961900Y-54729147D01*
X125822519Y-54636015D01*
X125703985Y-54517481D01*
X125610853Y-54378100D01*
X125546703Y-54223228D01*
X125514000Y-54058816D01*
X125514000Y-53891184D01*
X125546703Y-53726772D01*
X125610853Y-53571900D01*
X125703985Y-53432519D01*
X125822519Y-53313985D01*
X125961900Y-53220853D01*
X126116772Y-53156703D01*
X126281184Y-53124000D01*
X126448816Y-53124000D01*
X126613228Y-53156703D01*
G37*
G36*
X54922823Y-52501313D02*
G01*
X55083242Y-52549976D01*
X55215906Y-52620886D01*
X55231078Y-52628996D01*
X55360659Y-52735341D01*
X55467004Y-52864922D01*
X55467005Y-52864924D01*
X55546024Y-53012758D01*
X55594687Y-53173177D01*
X55611117Y-53340000D01*
X55594687Y-53506823D01*
X55546024Y-53667242D01*
X55475114Y-53799906D01*
X55467004Y-53815078D01*
X55360659Y-53944659D01*
X55231078Y-54051004D01*
X55231076Y-54051005D01*
X55083242Y-54130024D01*
X54922823Y-54178687D01*
X54797804Y-54191000D01*
X53914196Y-54191000D01*
X53789177Y-54178687D01*
X53628758Y-54130024D01*
X53480924Y-54051005D01*
X53480922Y-54051004D01*
X53351341Y-53944659D01*
X53244996Y-53815078D01*
X53236886Y-53799906D01*
X53165976Y-53667242D01*
X53117313Y-53506823D01*
X53100883Y-53340000D01*
X53117313Y-53173177D01*
X53165976Y-53012758D01*
X53244995Y-52864924D01*
X53244996Y-52864922D01*
X53351341Y-52735341D01*
X53480922Y-52628996D01*
X53496094Y-52620886D01*
X53628758Y-52549976D01*
X53789177Y-52501313D01*
X53914196Y-52489000D01*
X54797804Y-52489000D01*
X54922823Y-52501313D01*
G37*
G36*
X47302823Y-52501313D02*
G01*
X47463242Y-52549976D01*
X47595906Y-52620886D01*
X47611078Y-52628996D01*
X47740659Y-52735341D01*
X47847004Y-52864922D01*
X47847005Y-52864924D01*
X47926024Y-53012758D01*
X47974687Y-53173177D01*
X47991117Y-53340000D01*
X47974687Y-53506823D01*
X47926024Y-53667242D01*
X47855114Y-53799906D01*
X47847004Y-53815078D01*
X47740659Y-53944659D01*
X47611078Y-54051004D01*
X47611076Y-54051005D01*
X47463242Y-54130024D01*
X47302823Y-54178687D01*
X47177804Y-54191000D01*
X46294196Y-54191000D01*
X46169177Y-54178687D01*
X46008758Y-54130024D01*
X45860924Y-54051005D01*
X45860922Y-54051004D01*
X45731341Y-53944659D01*
X45624996Y-53815078D01*
X45616886Y-53799906D01*
X45545976Y-53667242D01*
X45497313Y-53506823D01*
X45480883Y-53340000D01*
X45497313Y-53173177D01*
X45545976Y-53012758D01*
X45624995Y-52864924D01*
X45624996Y-52864922D01*
X45731341Y-52735341D01*
X45860922Y-52628996D01*
X45876094Y-52620886D01*
X46008758Y-52549976D01*
X46169177Y-52501313D01*
X46294196Y-52489000D01*
X47177804Y-52489000D01*
X47302823Y-52501313D01*
G37*
G36*
X54922823Y-49961313D02*
G01*
X55083242Y-50009976D01*
X55215906Y-50080886D01*
X55231078Y-50088996D01*
X55360659Y-50195341D01*
X55467004Y-50324922D01*
X55467005Y-50324924D01*
X55546024Y-50472758D01*
X55594687Y-50633177D01*
X55611117Y-50800000D01*
X55594687Y-50966823D01*
X55546024Y-51127242D01*
X55475114Y-51259906D01*
X55467004Y-51275078D01*
X55360659Y-51404659D01*
X55231078Y-51511004D01*
X55231076Y-51511005D01*
X55083242Y-51590024D01*
X54922823Y-51638687D01*
X54797804Y-51651000D01*
X53914196Y-51651000D01*
X53789177Y-51638687D01*
X53628758Y-51590024D01*
X53480924Y-51511005D01*
X53480922Y-51511004D01*
X53351341Y-51404659D01*
X53244996Y-51275078D01*
X53236886Y-51259906D01*
X53165976Y-51127242D01*
X53117313Y-50966823D01*
X53100883Y-50800000D01*
X53117313Y-50633177D01*
X53165976Y-50472758D01*
X53244995Y-50324924D01*
X53244996Y-50324922D01*
X53351341Y-50195341D01*
X53480922Y-50088996D01*
X53496094Y-50080886D01*
X53628758Y-50009976D01*
X53789177Y-49961313D01*
X53914196Y-49949000D01*
X54797804Y-49949000D01*
X54922823Y-49961313D01*
G37*
G36*
X47302823Y-49961313D02*
G01*
X47463242Y-50009976D01*
X47595906Y-50080886D01*
X47611078Y-50088996D01*
X47740659Y-50195341D01*
X47847004Y-50324922D01*
X47847005Y-50324924D01*
X47926024Y-50472758D01*
X47974687Y-50633177D01*
X47991117Y-50800000D01*
X47974687Y-50966823D01*
X47926024Y-51127242D01*
X47855114Y-51259906D01*
X47847004Y-51275078D01*
X47740659Y-51404659D01*
X47611078Y-51511004D01*
X47611076Y-51511005D01*
X47463242Y-51590024D01*
X47302823Y-51638687D01*
X47177804Y-51651000D01*
X46294196Y-51651000D01*
X46169177Y-51638687D01*
X46008758Y-51590024D01*
X45860924Y-51511005D01*
X45860922Y-51511004D01*
X45731341Y-51404659D01*
X45624996Y-51275078D01*
X45616886Y-51259906D01*
X45545976Y-51127242D01*
X45497313Y-50966823D01*
X45480883Y-50800000D01*
X45497313Y-50633177D01*
X45545976Y-50472758D01*
X45624995Y-50324924D01*
X45624996Y-50324922D01*
X45731341Y-50195341D01*
X45860922Y-50088996D01*
X45876094Y-50080886D01*
X46008758Y-50009976D01*
X46169177Y-49961313D01*
X46294196Y-49949000D01*
X47177804Y-49949000D01*
X47302823Y-49961313D01*
G37*
G36*
X54922823Y-47421313D02*
G01*
X55083242Y-47469976D01*
X55215906Y-47540886D01*
X55231078Y-47548996D01*
X55360659Y-47655341D01*
X55467004Y-47784922D01*
X55467005Y-47784924D01*
X55546024Y-47932758D01*
X55594687Y-48093177D01*
X55611117Y-48260000D01*
X55594687Y-48426823D01*
X55546024Y-48587242D01*
X55475114Y-48719906D01*
X55467004Y-48735078D01*
X55360659Y-48864659D01*
X55231078Y-48971004D01*
X55231076Y-48971005D01*
X55083242Y-49050024D01*
X54922823Y-49098687D01*
X54797804Y-49111000D01*
X53914196Y-49111000D01*
X53789177Y-49098687D01*
X53628758Y-49050024D01*
X53480924Y-48971005D01*
X53480922Y-48971004D01*
X53351341Y-48864659D01*
X53244996Y-48735078D01*
X53236886Y-48719906D01*
X53165976Y-48587242D01*
X53117313Y-48426823D01*
X53100883Y-48260000D01*
X53117313Y-48093177D01*
X53165976Y-47932758D01*
X53244995Y-47784924D01*
X53244996Y-47784922D01*
X53351341Y-47655341D01*
X53480922Y-47548996D01*
X53496094Y-47540886D01*
X53628758Y-47469976D01*
X53789177Y-47421313D01*
X53914196Y-47409000D01*
X54797804Y-47409000D01*
X54922823Y-47421313D01*
G37*
G36*
X47302823Y-47421313D02*
G01*
X47463242Y-47469976D01*
X47595906Y-47540886D01*
X47611078Y-47548996D01*
X47740659Y-47655341D01*
X47847004Y-47784922D01*
X47847005Y-47784924D01*
X47926024Y-47932758D01*
X47974687Y-48093177D01*
X47991117Y-48260000D01*
X47974687Y-48426823D01*
X47926024Y-48587242D01*
X47855114Y-48719906D01*
X47847004Y-48735078D01*
X47740659Y-48864659D01*
X47611078Y-48971004D01*
X47611076Y-48971005D01*
X47463242Y-49050024D01*
X47302823Y-49098687D01*
X47177804Y-49111000D01*
X46294196Y-49111000D01*
X46169177Y-49098687D01*
X46008758Y-49050024D01*
X45860924Y-48971005D01*
X45860922Y-48971004D01*
X45731341Y-48864659D01*
X45624996Y-48735078D01*
X45616886Y-48719906D01*
X45545976Y-48587242D01*
X45497313Y-48426823D01*
X45480883Y-48260000D01*
X45497313Y-48093177D01*
X45545976Y-47932758D01*
X45624995Y-47784924D01*
X45624996Y-47784922D01*
X45731341Y-47655341D01*
X45860922Y-47548996D01*
X45876094Y-47540886D01*
X46008758Y-47469976D01*
X46169177Y-47421313D01*
X46294196Y-47409000D01*
X47177804Y-47409000D01*
X47302823Y-47421313D01*
G37*
G36*
X125648679Y-40851313D02*
G01*
X126358615Y-41145378D01*
X126997542Y-41572295D01*
X127540905Y-42115658D01*
X127967822Y-42754585D01*
X128261887Y-43464521D01*
X128411800Y-44218184D01*
X128411800Y-44986616D01*
X128261887Y-45740279D01*
X127967822Y-46450215D01*
X127540905Y-47089142D01*
X126997542Y-47632505D01*
X126358615Y-48059422D01*
X125648679Y-48353487D01*
X124895016Y-48503400D01*
X124126584Y-48503400D01*
X123372921Y-48353487D01*
X122662985Y-48059422D01*
X122024058Y-47632505D01*
X121480695Y-47089142D01*
X121053778Y-46450215D01*
X120759713Y-45740279D01*
X120609800Y-44986616D01*
X120609800Y-44218184D01*
X120759713Y-43464521D01*
X121053778Y-42754585D01*
X121480695Y-42115658D01*
X122024058Y-41572295D01*
X122662985Y-41145378D01*
X123372921Y-40851313D01*
X124126584Y-40701400D01*
X124895016Y-40701400D01*
X125648679Y-40851313D01*
G37*
G36*
X151099479Y-40851313D02*
G01*
X151809415Y-41145378D01*
X152448342Y-41572295D01*
X152991705Y-42115658D01*
X153418622Y-42754585D01*
X153712687Y-43464521D01*
X153862600Y-44218184D01*
X153862600Y-44986616D01*
X153712687Y-45740279D01*
X153418622Y-46450215D01*
X152991705Y-47089142D01*
X152448342Y-47632505D01*
X151809415Y-48059422D01*
X151099479Y-48353487D01*
X150345816Y-48503400D01*
X149577384Y-48503400D01*
X148823721Y-48353487D01*
X148113785Y-48059422D01*
X147474858Y-47632505D01*
X146931495Y-47089142D01*
X146504578Y-46450215D01*
X146210513Y-45740279D01*
X146060600Y-44986616D01*
X146060600Y-44218184D01*
X146210513Y-43464521D01*
X146504578Y-42754585D01*
X146931495Y-42115658D01*
X147474858Y-41572295D01*
X148113785Y-41145378D01*
X148823721Y-40851313D01*
X149577384Y-40701400D01*
X150345816Y-40701400D01*
X151099479Y-40851313D01*
G37*
G36*
X100261379Y-40825913D02*
G01*
X100971315Y-41119978D01*
X101610242Y-41546895D01*
X102153605Y-42090258D01*
X102580522Y-42729185D01*
X102874587Y-43439121D01*
X103024500Y-44192784D01*
X103024500Y-44961216D01*
X102874587Y-45714879D01*
X102580522Y-46424815D01*
X102153605Y-47063742D01*
X101610242Y-47607105D01*
X100971315Y-48034022D01*
X100261379Y-48328087D01*
X99507716Y-48478000D01*
X98739284Y-48478000D01*
X97985621Y-48328087D01*
X97275685Y-48034022D01*
X96636758Y-47607105D01*
X96093395Y-47063742D01*
X95666478Y-46424815D01*
X95372413Y-45714879D01*
X95222500Y-44961216D01*
X95222500Y-44192784D01*
X95372413Y-43439121D01*
X95666478Y-42729185D01*
X96093395Y-42090258D01*
X96636758Y-41546895D01*
X97275685Y-41119978D01*
X97985621Y-40825913D01*
X98739284Y-40676000D01*
X99507716Y-40676000D01*
X100261379Y-40825913D01*
G37*
G36*
X74848679Y-40825913D02*
G01*
X75558615Y-41119978D01*
X76197542Y-41546895D01*
X76740905Y-42090258D01*
X77167822Y-42729185D01*
X77461887Y-43439121D01*
X77611800Y-44192784D01*
X77611800Y-44961216D01*
X77461887Y-45714879D01*
X77167822Y-46424815D01*
X76740905Y-47063742D01*
X76197542Y-47607105D01*
X75558615Y-48034022D01*
X74848679Y-48328087D01*
X74095016Y-48478000D01*
X73326584Y-48478000D01*
X72572921Y-48328087D01*
X71862985Y-48034022D01*
X71224058Y-47607105D01*
X70680695Y-47063742D01*
X70253778Y-46424815D01*
X69959713Y-45714879D01*
X69809800Y-44961216D01*
X69809800Y-44192784D01*
X69959713Y-43439121D01*
X70253778Y-42729185D01*
X70680695Y-42090258D01*
X71224058Y-41546895D01*
X71862985Y-41119978D01*
X72572921Y-40825913D01*
X73326584Y-40676000D01*
X74095016Y-40676000D01*
X74848679Y-40825913D01*
G37*
G36*
X47302823Y-44881313D02*
G01*
X47463242Y-44929976D01*
X47569206Y-44986615D01*
X47611078Y-45008996D01*
X47740659Y-45115341D01*
X47847004Y-45244922D01*
X47847005Y-45244924D01*
X47926024Y-45392758D01*
X47974687Y-45553177D01*
X47991117Y-45720000D01*
X47974687Y-45886823D01*
X47926024Y-46047242D01*
X47901140Y-46093796D01*
X47847004Y-46195078D01*
X47740659Y-46324659D01*
X47611078Y-46431004D01*
X47611076Y-46431005D01*
X47463242Y-46510024D01*
X47302823Y-46558687D01*
X47177804Y-46571000D01*
X46294196Y-46571000D01*
X46169177Y-46558687D01*
X46008758Y-46510024D01*
X45860924Y-46431005D01*
X45860922Y-46431004D01*
X45731341Y-46324659D01*
X45624996Y-46195078D01*
X45570860Y-46093796D01*
X45545976Y-46047242D01*
X45497313Y-45886823D01*
X45480883Y-45720000D01*
X45497313Y-45553177D01*
X45545976Y-45392758D01*
X45624995Y-45244924D01*
X45624996Y-45244922D01*
X45731341Y-45115341D01*
X45860922Y-45008996D01*
X45902794Y-44986615D01*
X46008758Y-44929976D01*
X46169177Y-44881313D01*
X46294196Y-44869000D01*
X47177804Y-44869000D01*
X47302823Y-44881313D01*
G37*
G36*
X54922823Y-44881313D02*
G01*
X55083242Y-44929976D01*
X55189206Y-44986615D01*
X55231078Y-45008996D01*
X55360659Y-45115341D01*
X55467004Y-45244922D01*
X55467005Y-45244924D01*
X55546024Y-45392758D01*
X55594687Y-45553177D01*
X55611117Y-45720000D01*
X55594687Y-45886823D01*
X55546024Y-46047242D01*
X55521140Y-46093796D01*
X55467004Y-46195078D01*
X55360659Y-46324659D01*
X55231078Y-46431004D01*
X55231076Y-46431005D01*
X55083242Y-46510024D01*
X54922823Y-46558687D01*
X54797804Y-46571000D01*
X53914196Y-46571000D01*
X53789177Y-46558687D01*
X53628758Y-46510024D01*
X53480924Y-46431005D01*
X53480922Y-46431004D01*
X53351341Y-46324659D01*
X53244996Y-46195078D01*
X53190860Y-46093796D01*
X53165976Y-46047242D01*
X53117313Y-45886823D01*
X53100883Y-45720000D01*
X53117313Y-45553177D01*
X53165976Y-45392758D01*
X53244995Y-45244924D01*
X53244996Y-45244922D01*
X53351341Y-45115341D01*
X53480922Y-45008996D01*
X53522794Y-44986615D01*
X53628758Y-44929976D01*
X53789177Y-44881313D01*
X53914196Y-44869000D01*
X54797804Y-44869000D01*
X54922823Y-44881313D01*
G37*
G36*
X91590185Y-43081202D02*
G01*
X91740010Y-43111004D01*
X92022274Y-43227921D01*
X92276305Y-43397659D01*
X92492341Y-43613695D01*
X92662079Y-43867726D01*
X92778996Y-44149990D01*
X92838600Y-44449640D01*
X92838600Y-44755160D01*
X92778996Y-45054810D01*
X92662079Y-45337074D01*
X92492341Y-45591105D01*
X92276305Y-45807141D01*
X92022274Y-45976879D01*
X91740010Y-46093796D01*
X91590185Y-46123598D01*
X91440361Y-46153400D01*
X91134839Y-46153400D01*
X90985015Y-46123598D01*
X90835190Y-46093796D01*
X90552926Y-45976879D01*
X90298895Y-45807141D01*
X90082859Y-45591105D01*
X89913121Y-45337074D01*
X89796204Y-45054810D01*
X89736600Y-44755160D01*
X89736600Y-44449640D01*
X89796204Y-44149990D01*
X89913121Y-43867726D01*
X90082859Y-43613695D01*
X90298895Y-43397659D01*
X90552926Y-43227921D01*
X90835190Y-43111004D01*
X90985015Y-43081202D01*
X91134839Y-43051400D01*
X91440361Y-43051400D01*
X91590185Y-43081202D01*
G37*
G36*
X66190185Y-43081202D02*
G01*
X66340010Y-43111004D01*
X66622274Y-43227921D01*
X66876305Y-43397659D01*
X67092341Y-43613695D01*
X67262079Y-43867726D01*
X67378996Y-44149990D01*
X67438600Y-44449640D01*
X67438600Y-44755160D01*
X67378996Y-45054810D01*
X67262079Y-45337074D01*
X67092341Y-45591105D01*
X66876305Y-45807141D01*
X66622274Y-45976879D01*
X66340010Y-46093796D01*
X66190185Y-46123598D01*
X66040361Y-46153400D01*
X65734839Y-46153400D01*
X65585015Y-46123598D01*
X65435190Y-46093796D01*
X65152926Y-45976879D01*
X64898895Y-45807141D01*
X64682859Y-45591105D01*
X64513121Y-45337074D01*
X64396204Y-45054810D01*
X64336600Y-44755160D01*
X64336600Y-44449640D01*
X64396204Y-44149990D01*
X64513121Y-43867726D01*
X64682859Y-43613695D01*
X64898895Y-43397659D01*
X65152926Y-43227921D01*
X65435190Y-43111004D01*
X65585015Y-43081202D01*
X65734839Y-43051400D01*
X66040361Y-43051400D01*
X66190185Y-43081202D01*
G37*
G36*
X116990185Y-43081202D02*
G01*
X117140010Y-43111004D01*
X117422274Y-43227921D01*
X117676305Y-43397659D01*
X117892341Y-43613695D01*
X118062079Y-43867726D01*
X118178996Y-44149990D01*
X118238600Y-44449640D01*
X118238600Y-44755160D01*
X118178996Y-45054810D01*
X118062079Y-45337074D01*
X117892341Y-45591105D01*
X117676305Y-45807141D01*
X117422274Y-45976879D01*
X117140010Y-46093796D01*
X116990185Y-46123598D01*
X116840361Y-46153400D01*
X116534839Y-46153400D01*
X116385015Y-46123598D01*
X116235190Y-46093796D01*
X115952926Y-45976879D01*
X115698895Y-45807141D01*
X115482859Y-45591105D01*
X115313121Y-45337074D01*
X115196204Y-45054810D01*
X115136600Y-44755160D01*
X115136600Y-44449640D01*
X115196204Y-44149990D01*
X115313121Y-43867726D01*
X115482859Y-43613695D01*
X115698895Y-43397659D01*
X115952926Y-43227921D01*
X116235190Y-43111004D01*
X116385015Y-43081202D01*
X116534839Y-43051400D01*
X116840361Y-43051400D01*
X116990185Y-43081202D01*
G37*
G36*
X142390185Y-43081202D02*
G01*
X142540010Y-43111004D01*
X142822274Y-43227921D01*
X143076305Y-43397659D01*
X143292341Y-43613695D01*
X143462079Y-43867726D01*
X143578996Y-44149990D01*
X143638600Y-44449640D01*
X143638600Y-44755160D01*
X143578996Y-45054810D01*
X143462079Y-45337074D01*
X143292341Y-45591105D01*
X143076305Y-45807141D01*
X142822274Y-45976879D01*
X142540010Y-46093796D01*
X142390185Y-46123598D01*
X142240361Y-46153400D01*
X141934839Y-46153400D01*
X141785015Y-46123598D01*
X141635190Y-46093796D01*
X141352926Y-45976879D01*
X141098895Y-45807141D01*
X140882859Y-45591105D01*
X140713121Y-45337074D01*
X140596204Y-45054810D01*
X140536600Y-44755160D01*
X140536600Y-44449640D01*
X140596204Y-44149990D01*
X140713121Y-43867726D01*
X140882859Y-43613695D01*
X141098895Y-43397659D01*
X141352926Y-43227921D01*
X141635190Y-43111004D01*
X141785015Y-43081202D01*
X141934839Y-43051400D01*
X142240361Y-43051400D01*
X142390185Y-43081202D01*
G37*
G36*
X54922823Y-42341313D02*
G01*
X55083242Y-42389976D01*
X55215906Y-42460886D01*
X55231078Y-42468996D01*
X55360659Y-42575341D01*
X55467004Y-42704922D01*
X55467005Y-42704924D01*
X55546024Y-42852758D01*
X55594687Y-43013177D01*
X55611117Y-43180000D01*
X55594687Y-43346823D01*
X55546024Y-43507242D01*
X55489124Y-43613695D01*
X55467004Y-43655078D01*
X55360659Y-43784659D01*
X55231078Y-43891004D01*
X55231076Y-43891005D01*
X55083242Y-43970024D01*
X54922823Y-44018687D01*
X54797804Y-44031000D01*
X53914196Y-44031000D01*
X53789177Y-44018687D01*
X53628758Y-43970024D01*
X53480924Y-43891005D01*
X53480922Y-43891004D01*
X53351341Y-43784659D01*
X53244996Y-43655078D01*
X53222876Y-43613695D01*
X53165976Y-43507242D01*
X53117313Y-43346823D01*
X53100883Y-43180000D01*
X53117313Y-43013177D01*
X53165976Y-42852758D01*
X53244995Y-42704924D01*
X53244996Y-42704922D01*
X53351341Y-42575341D01*
X53480922Y-42468996D01*
X53496094Y-42460886D01*
X53628758Y-42389976D01*
X53789177Y-42341313D01*
X53914196Y-42329000D01*
X54797804Y-42329000D01*
X54922823Y-42341313D01*
G37*
G36*
X47987000Y-44031000D02*
G01*
X45485000Y-44031000D01*
X45485000Y-42329000D01*
X47987000Y-42329000D01*
X47987000Y-44031000D01*
G37*
G36*
X46595512Y-37457927D02*
G01*
X46744812Y-37487624D01*
X46908784Y-37555544D01*
X47056354Y-37654147D01*
X47181853Y-37779646D01*
X47280456Y-37927216D01*
X47348376Y-38091188D01*
X47383000Y-38265259D01*
X47383000Y-38442741D01*
X47348376Y-38616812D01*
X47280456Y-38780784D01*
X47181853Y-38928354D01*
X47056354Y-39053853D01*
X46908784Y-39152456D01*
X46744812Y-39220376D01*
X46595512Y-39250073D01*
X46570742Y-39255000D01*
X46393258Y-39255000D01*
X46368488Y-39250073D01*
X46219188Y-39220376D01*
X46055216Y-39152456D01*
X45907646Y-39053853D01*
X45782147Y-38928354D01*
X45683544Y-38780784D01*
X45615624Y-38616812D01*
X45581000Y-38442741D01*
X45581000Y-38265259D01*
X45615624Y-38091188D01*
X45683544Y-37927216D01*
X45782147Y-37779646D01*
X45907646Y-37654147D01*
X46055216Y-37555544D01*
X46219188Y-37487624D01*
X46368488Y-37457927D01*
X46393258Y-37453000D01*
X46570742Y-37453000D01*
X46595512Y-37457927D01*
G37*
G36*
X49135512Y-37457927D02*
G01*
X49284812Y-37487624D01*
X49448784Y-37555544D01*
X49596354Y-37654147D01*
X49721853Y-37779646D01*
X49820456Y-37927216D01*
X49888376Y-38091188D01*
X49923000Y-38265259D01*
X49923000Y-38442741D01*
X49888376Y-38616812D01*
X49820456Y-38780784D01*
X49721853Y-38928354D01*
X49596354Y-39053853D01*
X49448784Y-39152456D01*
X49284812Y-39220376D01*
X49135512Y-39250073D01*
X49110742Y-39255000D01*
X48933258Y-39255000D01*
X48908488Y-39250073D01*
X48759188Y-39220376D01*
X48595216Y-39152456D01*
X48447646Y-39053853D01*
X48322147Y-38928354D01*
X48223544Y-38780784D01*
X48155624Y-38616812D01*
X48121000Y-38442741D01*
X48121000Y-38265259D01*
X48155624Y-38091188D01*
X48223544Y-37927216D01*
X48322147Y-37779646D01*
X48447646Y-37654147D01*
X48595216Y-37555544D01*
X48759188Y-37487624D01*
X48908488Y-37457927D01*
X48933258Y-37453000D01*
X49110742Y-37453000D01*
X49135512Y-37457927D01*
G37*
G36*
X146968564Y-36509389D02*
G01*
X147159833Y-36588615D01*
X147159835Y-36588616D01*
X147195514Y-36612456D01*
X147331973Y-36703635D01*
X147478365Y-36850027D01*
X147593385Y-37022167D01*
X147672611Y-37213436D01*
X147713000Y-37416484D01*
X147713000Y-37623516D01*
X147672611Y-37826564D01*
X147593385Y-38017833D01*
X147593384Y-38017835D01*
X147478365Y-38189973D01*
X147331973Y-38336365D01*
X147159835Y-38451384D01*
X147159834Y-38451385D01*
X147159833Y-38451385D01*
X146968564Y-38530611D01*
X146765516Y-38571000D01*
X146558484Y-38571000D01*
X146355436Y-38530611D01*
X146164167Y-38451385D01*
X146164166Y-38451385D01*
X146164165Y-38451384D01*
X145992027Y-38336365D01*
X145845635Y-38189973D01*
X145730616Y-38017835D01*
X145730615Y-38017833D01*
X145651389Y-37826564D01*
X145611000Y-37623516D01*
X145611000Y-37416484D01*
X145651389Y-37213436D01*
X145730615Y-37022167D01*
X145845635Y-36850027D01*
X145992027Y-36703635D01*
X146128486Y-36612456D01*
X146164165Y-36588616D01*
X146164167Y-36588615D01*
X146355436Y-36509389D01*
X146558484Y-36469000D01*
X146765516Y-36469000D01*
X146968564Y-36509389D01*
G37*
G36*
X153468564Y-36509389D02*
G01*
X153659833Y-36588615D01*
X153659835Y-36588616D01*
X153695514Y-36612456D01*
X153831973Y-36703635D01*
X153978365Y-36850027D01*
X154093385Y-37022167D01*
X154172611Y-37213436D01*
X154213000Y-37416484D01*
X154213000Y-37623516D01*
X154172611Y-37826564D01*
X154093385Y-38017833D01*
X154093384Y-38017835D01*
X153978365Y-38189973D01*
X153831973Y-38336365D01*
X153659835Y-38451384D01*
X153659834Y-38451385D01*
X153659833Y-38451385D01*
X153468564Y-38530611D01*
X153265516Y-38571000D01*
X153058484Y-38571000D01*
X152855436Y-38530611D01*
X152664167Y-38451385D01*
X152664166Y-38451385D01*
X152664165Y-38451384D01*
X152492027Y-38336365D01*
X152345635Y-38189973D01*
X152230616Y-38017835D01*
X152230615Y-38017833D01*
X152151389Y-37826564D01*
X152111000Y-37623516D01*
X152111000Y-37416484D01*
X152151389Y-37213436D01*
X152230615Y-37022167D01*
X152345635Y-36850027D01*
X152492027Y-36703635D01*
X152628486Y-36612456D01*
X152664165Y-36588616D01*
X152664167Y-36588615D01*
X152855436Y-36509389D01*
X153058484Y-36469000D01*
X153265516Y-36469000D01*
X153468564Y-36509389D01*
G37*
G36*
X128068564Y-36509389D02*
G01*
X128259833Y-36588615D01*
X128259835Y-36588616D01*
X128295514Y-36612456D01*
X128431973Y-36703635D01*
X128578365Y-36850027D01*
X128693385Y-37022167D01*
X128772611Y-37213436D01*
X128813000Y-37416484D01*
X128813000Y-37623516D01*
X128772611Y-37826564D01*
X128693385Y-38017833D01*
X128693384Y-38017835D01*
X128578365Y-38189973D01*
X128431973Y-38336365D01*
X128259835Y-38451384D01*
X128259834Y-38451385D01*
X128259833Y-38451385D01*
X128068564Y-38530611D01*
X127865516Y-38571000D01*
X127658484Y-38571000D01*
X127455436Y-38530611D01*
X127264167Y-38451385D01*
X127264166Y-38451385D01*
X127264165Y-38451384D01*
X127092027Y-38336365D01*
X126945635Y-38189973D01*
X126830616Y-38017835D01*
X126830615Y-38017833D01*
X126751389Y-37826564D01*
X126711000Y-37623516D01*
X126711000Y-37416484D01*
X126751389Y-37213436D01*
X126830615Y-37022167D01*
X126945635Y-36850027D01*
X127092027Y-36703635D01*
X127228486Y-36612456D01*
X127264165Y-36588616D01*
X127264167Y-36588615D01*
X127455436Y-36509389D01*
X127658484Y-36469000D01*
X127865516Y-36469000D01*
X128068564Y-36509389D01*
G37*
G36*
X121568564Y-36509389D02*
G01*
X121759833Y-36588615D01*
X121759835Y-36588616D01*
X121795514Y-36612456D01*
X121931973Y-36703635D01*
X122078365Y-36850027D01*
X122193385Y-37022167D01*
X122272611Y-37213436D01*
X122313000Y-37416484D01*
X122313000Y-37623516D01*
X122272611Y-37826564D01*
X122193385Y-38017833D01*
X122193384Y-38017835D01*
X122078365Y-38189973D01*
X121931973Y-38336365D01*
X121759835Y-38451384D01*
X121759834Y-38451385D01*
X121759833Y-38451385D01*
X121568564Y-38530611D01*
X121365516Y-38571000D01*
X121158484Y-38571000D01*
X120955436Y-38530611D01*
X120764167Y-38451385D01*
X120764166Y-38451385D01*
X120764165Y-38451384D01*
X120592027Y-38336365D01*
X120445635Y-38189973D01*
X120330616Y-38017835D01*
X120330615Y-38017833D01*
X120251389Y-37826564D01*
X120211000Y-37623516D01*
X120211000Y-37416484D01*
X120251389Y-37213436D01*
X120330615Y-37022167D01*
X120445635Y-36850027D01*
X120592027Y-36703635D01*
X120728486Y-36612456D01*
X120764165Y-36588616D01*
X120764167Y-36588615D01*
X120955436Y-36509389D01*
X121158484Y-36469000D01*
X121365516Y-36469000D01*
X121568564Y-36509389D01*
G37*
G36*
X102668564Y-36509389D02*
G01*
X102859833Y-36588615D01*
X102859835Y-36588616D01*
X102895514Y-36612456D01*
X103031973Y-36703635D01*
X103178365Y-36850027D01*
X103293385Y-37022167D01*
X103372611Y-37213436D01*
X103413000Y-37416484D01*
X103413000Y-37623516D01*
X103372611Y-37826564D01*
X103293385Y-38017833D01*
X103293384Y-38017835D01*
X103178365Y-38189973D01*
X103031973Y-38336365D01*
X102859835Y-38451384D01*
X102859834Y-38451385D01*
X102859833Y-38451385D01*
X102668564Y-38530611D01*
X102465516Y-38571000D01*
X102258484Y-38571000D01*
X102055436Y-38530611D01*
X101864167Y-38451385D01*
X101864166Y-38451385D01*
X101864165Y-38451384D01*
X101692027Y-38336365D01*
X101545635Y-38189973D01*
X101430616Y-38017835D01*
X101430615Y-38017833D01*
X101351389Y-37826564D01*
X101311000Y-37623516D01*
X101311000Y-37416484D01*
X101351389Y-37213436D01*
X101430615Y-37022167D01*
X101545635Y-36850027D01*
X101692027Y-36703635D01*
X101828486Y-36612456D01*
X101864165Y-36588616D01*
X101864167Y-36588615D01*
X102055436Y-36509389D01*
X102258484Y-36469000D01*
X102465516Y-36469000D01*
X102668564Y-36509389D01*
G37*
G36*
X77268564Y-36509389D02*
G01*
X77459833Y-36588615D01*
X77459835Y-36588616D01*
X77495514Y-36612456D01*
X77631973Y-36703635D01*
X77778365Y-36850027D01*
X77893385Y-37022167D01*
X77972611Y-37213436D01*
X78013000Y-37416484D01*
X78013000Y-37623516D01*
X77972611Y-37826564D01*
X77893385Y-38017833D01*
X77893384Y-38017835D01*
X77778365Y-38189973D01*
X77631973Y-38336365D01*
X77459835Y-38451384D01*
X77459834Y-38451385D01*
X77459833Y-38451385D01*
X77268564Y-38530611D01*
X77065516Y-38571000D01*
X76858484Y-38571000D01*
X76655436Y-38530611D01*
X76464167Y-38451385D01*
X76464166Y-38451385D01*
X76464165Y-38451384D01*
X76292027Y-38336365D01*
X76145635Y-38189973D01*
X76030616Y-38017835D01*
X76030615Y-38017833D01*
X75951389Y-37826564D01*
X75911000Y-37623516D01*
X75911000Y-37416484D01*
X75951389Y-37213436D01*
X76030615Y-37022167D01*
X76145635Y-36850027D01*
X76292027Y-36703635D01*
X76428486Y-36612456D01*
X76464165Y-36588616D01*
X76464167Y-36588615D01*
X76655436Y-36509389D01*
X76858484Y-36469000D01*
X77065516Y-36469000D01*
X77268564Y-36509389D01*
G37*
G36*
X70768564Y-36509389D02*
G01*
X70959833Y-36588615D01*
X70959835Y-36588616D01*
X70995514Y-36612456D01*
X71131973Y-36703635D01*
X71278365Y-36850027D01*
X71393385Y-37022167D01*
X71472611Y-37213436D01*
X71513000Y-37416484D01*
X71513000Y-37623516D01*
X71472611Y-37826564D01*
X71393385Y-38017833D01*
X71393384Y-38017835D01*
X71278365Y-38189973D01*
X71131973Y-38336365D01*
X70959835Y-38451384D01*
X70959834Y-38451385D01*
X70959833Y-38451385D01*
X70768564Y-38530611D01*
X70565516Y-38571000D01*
X70358484Y-38571000D01*
X70155436Y-38530611D01*
X69964167Y-38451385D01*
X69964166Y-38451385D01*
X69964165Y-38451384D01*
X69792027Y-38336365D01*
X69645635Y-38189973D01*
X69530616Y-38017835D01*
X69530615Y-38017833D01*
X69451389Y-37826564D01*
X69411000Y-37623516D01*
X69411000Y-37416484D01*
X69451389Y-37213436D01*
X69530615Y-37022167D01*
X69645635Y-36850027D01*
X69792027Y-36703635D01*
X69928486Y-36612456D01*
X69964165Y-36588616D01*
X69964167Y-36588615D01*
X70155436Y-36509389D01*
X70358484Y-36469000D01*
X70565516Y-36469000D01*
X70768564Y-36509389D01*
G37*
G36*
X96168564Y-36509389D02*
G01*
X96359833Y-36588615D01*
X96359835Y-36588616D01*
X96395514Y-36612456D01*
X96531973Y-36703635D01*
X96678365Y-36850027D01*
X96793385Y-37022167D01*
X96872611Y-37213436D01*
X96913000Y-37416484D01*
X96913000Y-37623516D01*
X96872611Y-37826564D01*
X96793385Y-38017833D01*
X96793384Y-38017835D01*
X96678365Y-38189973D01*
X96531973Y-38336365D01*
X96359835Y-38451384D01*
X96359834Y-38451385D01*
X96359833Y-38451385D01*
X96168564Y-38530611D01*
X95965516Y-38571000D01*
X95758484Y-38571000D01*
X95555436Y-38530611D01*
X95364167Y-38451385D01*
X95364166Y-38451385D01*
X95364165Y-38451384D01*
X95192027Y-38336365D01*
X95045635Y-38189973D01*
X94930616Y-38017835D01*
X94930615Y-38017833D01*
X94851389Y-37826564D01*
X94811000Y-37623516D01*
X94811000Y-37416484D01*
X94851389Y-37213436D01*
X94930615Y-37022167D01*
X95045635Y-36850027D01*
X95192027Y-36703635D01*
X95328486Y-36612456D01*
X95364165Y-36588616D01*
X95364167Y-36588615D01*
X95555436Y-36509389D01*
X95758484Y-36469000D01*
X95965516Y-36469000D01*
X96168564Y-36509389D01*
G37*
G36*
X46595512Y-34917927D02*
G01*
X46744812Y-34947624D01*
X46908784Y-35015544D01*
X47056354Y-35114147D01*
X47181853Y-35239646D01*
X47280456Y-35387216D01*
X47348376Y-35551188D01*
X47383000Y-35725259D01*
X47383000Y-35902741D01*
X47348376Y-36076812D01*
X47280456Y-36240784D01*
X47181853Y-36388354D01*
X47056354Y-36513853D01*
X46908784Y-36612456D01*
X46744812Y-36680376D01*
X46595512Y-36710073D01*
X46570742Y-36715000D01*
X46393258Y-36715000D01*
X46368488Y-36710073D01*
X46219188Y-36680376D01*
X46055216Y-36612456D01*
X45907646Y-36513853D01*
X45782147Y-36388354D01*
X45683544Y-36240784D01*
X45615624Y-36076812D01*
X45581000Y-35902741D01*
X45581000Y-35725259D01*
X45615624Y-35551188D01*
X45683544Y-35387216D01*
X45782147Y-35239646D01*
X45907646Y-35114147D01*
X46055216Y-35015544D01*
X46219188Y-34947624D01*
X46368488Y-34917927D01*
X46393258Y-34913000D01*
X46570742Y-34913000D01*
X46595512Y-34917927D01*
G37*
G36*
X49135512Y-34917927D02*
G01*
X49284812Y-34947624D01*
X49448784Y-35015544D01*
X49596354Y-35114147D01*
X49721853Y-35239646D01*
X49820456Y-35387216D01*
X49888376Y-35551188D01*
X49923000Y-35725259D01*
X49923000Y-35902741D01*
X49888376Y-36076812D01*
X49820456Y-36240784D01*
X49721853Y-36388354D01*
X49596354Y-36513853D01*
X49448784Y-36612456D01*
X49284812Y-36680376D01*
X49135512Y-36710073D01*
X49110742Y-36715000D01*
X48933258Y-36715000D01*
X48908488Y-36710073D01*
X48759188Y-36680376D01*
X48595216Y-36612456D01*
X48447646Y-36513853D01*
X48322147Y-36388354D01*
X48223544Y-36240784D01*
X48155624Y-36076812D01*
X48121000Y-35902741D01*
X48121000Y-35725259D01*
X48155624Y-35551188D01*
X48223544Y-35387216D01*
X48322147Y-35239646D01*
X48447646Y-35114147D01*
X48595216Y-35015544D01*
X48759188Y-34947624D01*
X48908488Y-34917927D01*
X48933258Y-34913000D01*
X49110742Y-34913000D01*
X49135512Y-34917927D01*
G37*
G36*
X53842228Y-32709703D02*
G01*
X53997100Y-32773853D01*
X54136481Y-32866985D01*
X54255015Y-32985519D01*
X54348147Y-33124900D01*
X54412297Y-33279772D01*
X54445000Y-33444184D01*
X54445000Y-33611816D01*
X54412297Y-33776228D01*
X54348147Y-33931100D01*
X54255015Y-34070481D01*
X54136481Y-34189015D01*
X53997100Y-34282147D01*
X53842228Y-34346297D01*
X53677816Y-34379000D01*
X53510184Y-34379000D01*
X53345772Y-34346297D01*
X53190900Y-34282147D01*
X53051519Y-34189015D01*
X52932985Y-34070481D01*
X52839853Y-33931100D01*
X52775703Y-33776228D01*
X52743000Y-33611816D01*
X52743000Y-33444184D01*
X52775703Y-33279772D01*
X52839853Y-33124900D01*
X52932985Y-32985519D01*
X53051519Y-32866985D01*
X53190900Y-32773853D01*
X53345772Y-32709703D01*
X53510184Y-32677000D01*
X53677816Y-32677000D01*
X53842228Y-32709703D01*
G37*
G36*
X46595512Y-32377927D02*
G01*
X46744812Y-32407624D01*
X46908784Y-32475544D01*
X47056354Y-32574147D01*
X47181853Y-32699646D01*
X47280456Y-32847216D01*
X47348376Y-33011188D01*
X47383000Y-33185259D01*
X47383000Y-33362741D01*
X47348376Y-33536812D01*
X47280456Y-33700784D01*
X47181853Y-33848354D01*
X47056354Y-33973853D01*
X46908784Y-34072456D01*
X46744812Y-34140376D01*
X46595512Y-34170073D01*
X46570742Y-34175000D01*
X46393258Y-34175000D01*
X46368488Y-34170073D01*
X46219188Y-34140376D01*
X46055216Y-34072456D01*
X45907646Y-33973853D01*
X45782147Y-33848354D01*
X45683544Y-33700784D01*
X45615624Y-33536812D01*
X45581000Y-33362741D01*
X45581000Y-33185259D01*
X45615624Y-33011188D01*
X45683544Y-32847216D01*
X45782147Y-32699646D01*
X45907646Y-32574147D01*
X46055216Y-32475544D01*
X46219188Y-32407624D01*
X46368488Y-32377927D01*
X46393258Y-32373000D01*
X46570742Y-32373000D01*
X46595512Y-32377927D01*
G37*
G36*
X49135512Y-32377927D02*
G01*
X49284812Y-32407624D01*
X49448784Y-32475544D01*
X49596354Y-32574147D01*
X49721853Y-32699646D01*
X49820456Y-32847216D01*
X49888376Y-33011188D01*
X49923000Y-33185259D01*
X49923000Y-33362741D01*
X49888376Y-33536812D01*
X49820456Y-33700784D01*
X49721853Y-33848354D01*
X49596354Y-33973853D01*
X49448784Y-34072456D01*
X49284812Y-34140376D01*
X49135512Y-34170073D01*
X49110742Y-34175000D01*
X48933258Y-34175000D01*
X48908488Y-34170073D01*
X48759188Y-34140376D01*
X48595216Y-34072456D01*
X48447646Y-33973853D01*
X48322147Y-33848354D01*
X48223544Y-33700784D01*
X48155624Y-33536812D01*
X48121000Y-33362741D01*
X48121000Y-33185259D01*
X48155624Y-33011188D01*
X48223544Y-32847216D01*
X48322147Y-32699646D01*
X48447646Y-32574147D01*
X48595216Y-32475544D01*
X48759188Y-32407624D01*
X48908488Y-32377927D01*
X48933258Y-32373000D01*
X49110742Y-32373000D01*
X49135512Y-32377927D01*
G37*
G36*
X96168564Y-32009389D02*
G01*
X96359833Y-32088615D01*
X96359835Y-32088616D01*
X96531973Y-32203635D01*
X96678365Y-32350027D01*
X96793385Y-32522167D01*
X96872611Y-32713436D01*
X96913000Y-32916484D01*
X96913000Y-33123516D01*
X96872611Y-33326564D01*
X96823891Y-33444184D01*
X96793384Y-33517835D01*
X96678365Y-33689973D01*
X96531973Y-33836365D01*
X96359835Y-33951384D01*
X96359834Y-33951385D01*
X96359833Y-33951385D01*
X96168564Y-34030611D01*
X95965516Y-34071000D01*
X95758484Y-34071000D01*
X95555436Y-34030611D01*
X95364167Y-33951385D01*
X95364166Y-33951385D01*
X95364165Y-33951384D01*
X95192027Y-33836365D01*
X95045635Y-33689973D01*
X94930616Y-33517835D01*
X94900109Y-33444184D01*
X94851389Y-33326564D01*
X94811000Y-33123516D01*
X94811000Y-32916484D01*
X94851389Y-32713436D01*
X94930615Y-32522167D01*
X95045635Y-32350027D01*
X95192027Y-32203635D01*
X95364165Y-32088616D01*
X95364167Y-32088615D01*
X95555436Y-32009389D01*
X95758484Y-31969000D01*
X95965516Y-31969000D01*
X96168564Y-32009389D01*
G37*
G36*
X102668564Y-32009389D02*
G01*
X102859833Y-32088615D01*
X102859835Y-32088616D01*
X103031973Y-32203635D01*
X103178365Y-32350027D01*
X103293385Y-32522167D01*
X103372611Y-32713436D01*
X103413000Y-32916484D01*
X103413000Y-33123516D01*
X103372611Y-33326564D01*
X103323891Y-33444184D01*
X103293384Y-33517835D01*
X103178365Y-33689973D01*
X103031973Y-33836365D01*
X102859835Y-33951384D01*
X102859834Y-33951385D01*
X102859833Y-33951385D01*
X102668564Y-34030611D01*
X102465516Y-34071000D01*
X102258484Y-34071000D01*
X102055436Y-34030611D01*
X101864167Y-33951385D01*
X101864166Y-33951385D01*
X101864165Y-33951384D01*
X101692027Y-33836365D01*
X101545635Y-33689973D01*
X101430616Y-33517835D01*
X101400109Y-33444184D01*
X101351389Y-33326564D01*
X101311000Y-33123516D01*
X101311000Y-32916484D01*
X101351389Y-32713436D01*
X101430615Y-32522167D01*
X101545635Y-32350027D01*
X101692027Y-32203635D01*
X101864165Y-32088616D01*
X101864167Y-32088615D01*
X102055436Y-32009389D01*
X102258484Y-31969000D01*
X102465516Y-31969000D01*
X102668564Y-32009389D01*
G37*
G36*
X77268564Y-32009389D02*
G01*
X77459833Y-32088615D01*
X77459835Y-32088616D01*
X77631973Y-32203635D01*
X77778365Y-32350027D01*
X77893385Y-32522167D01*
X77972611Y-32713436D01*
X78013000Y-32916484D01*
X78013000Y-33123516D01*
X77972611Y-33326564D01*
X77923891Y-33444184D01*
X77893384Y-33517835D01*
X77778365Y-33689973D01*
X77631973Y-33836365D01*
X77459835Y-33951384D01*
X77459834Y-33951385D01*
X77459833Y-33951385D01*
X77268564Y-34030611D01*
X77065516Y-34071000D01*
X76858484Y-34071000D01*
X76655436Y-34030611D01*
X76464167Y-33951385D01*
X76464166Y-33951385D01*
X76464165Y-33951384D01*
X76292027Y-33836365D01*
X76145635Y-33689973D01*
X76030616Y-33517835D01*
X76000109Y-33444184D01*
X75951389Y-33326564D01*
X75911000Y-33123516D01*
X75911000Y-32916484D01*
X75951389Y-32713436D01*
X76030615Y-32522167D01*
X76145635Y-32350027D01*
X76292027Y-32203635D01*
X76464165Y-32088616D01*
X76464167Y-32088615D01*
X76655436Y-32009389D01*
X76858484Y-31969000D01*
X77065516Y-31969000D01*
X77268564Y-32009389D01*
G37*
G36*
X70768564Y-32009389D02*
G01*
X70959833Y-32088615D01*
X70959835Y-32088616D01*
X71131973Y-32203635D01*
X71278365Y-32350027D01*
X71393385Y-32522167D01*
X71472611Y-32713436D01*
X71513000Y-32916484D01*
X71513000Y-33123516D01*
X71472611Y-33326564D01*
X71423891Y-33444184D01*
X71393384Y-33517835D01*
X71278365Y-33689973D01*
X71131973Y-33836365D01*
X70959835Y-33951384D01*
X70959834Y-33951385D01*
X70959833Y-33951385D01*
X70768564Y-34030611D01*
X70565516Y-34071000D01*
X70358484Y-34071000D01*
X70155436Y-34030611D01*
X69964167Y-33951385D01*
X69964166Y-33951385D01*
X69964165Y-33951384D01*
X69792027Y-33836365D01*
X69645635Y-33689973D01*
X69530616Y-33517835D01*
X69500109Y-33444184D01*
X69451389Y-33326564D01*
X69411000Y-33123516D01*
X69411000Y-32916484D01*
X69451389Y-32713436D01*
X69530615Y-32522167D01*
X69645635Y-32350027D01*
X69792027Y-32203635D01*
X69964165Y-32088616D01*
X69964167Y-32088615D01*
X70155436Y-32009389D01*
X70358484Y-31969000D01*
X70565516Y-31969000D01*
X70768564Y-32009389D01*
G37*
G36*
X121568564Y-32009389D02*
G01*
X121759833Y-32088615D01*
X121759835Y-32088616D01*
X121931973Y-32203635D01*
X122078365Y-32350027D01*
X122193385Y-32522167D01*
X122272611Y-32713436D01*
X122313000Y-32916484D01*
X122313000Y-33123516D01*
X122272611Y-33326564D01*
X122223891Y-33444184D01*
X122193384Y-33517835D01*
X122078365Y-33689973D01*
X121931973Y-33836365D01*
X121759835Y-33951384D01*
X121759834Y-33951385D01*
X121759833Y-33951385D01*
X121568564Y-34030611D01*
X121365516Y-34071000D01*
X121158484Y-34071000D01*
X120955436Y-34030611D01*
X120764167Y-33951385D01*
X120764166Y-33951385D01*
X120764165Y-33951384D01*
X120592027Y-33836365D01*
X120445635Y-33689973D01*
X120330616Y-33517835D01*
X120300109Y-33444184D01*
X120251389Y-33326564D01*
X120211000Y-33123516D01*
X120211000Y-32916484D01*
X120251389Y-32713436D01*
X120330615Y-32522167D01*
X120445635Y-32350027D01*
X120592027Y-32203635D01*
X120764165Y-32088616D01*
X120764167Y-32088615D01*
X120955436Y-32009389D01*
X121158484Y-31969000D01*
X121365516Y-31969000D01*
X121568564Y-32009389D01*
G37*
G36*
X128068564Y-32009389D02*
G01*
X128259833Y-32088615D01*
X128259835Y-32088616D01*
X128431973Y-32203635D01*
X128578365Y-32350027D01*
X128693385Y-32522167D01*
X128772611Y-32713436D01*
X128813000Y-32916484D01*
X128813000Y-33123516D01*
X128772611Y-33326564D01*
X128723891Y-33444184D01*
X128693384Y-33517835D01*
X128578365Y-33689973D01*
X128431973Y-33836365D01*
X128259835Y-33951384D01*
X128259834Y-33951385D01*
X128259833Y-33951385D01*
X128068564Y-34030611D01*
X127865516Y-34071000D01*
X127658484Y-34071000D01*
X127455436Y-34030611D01*
X127264167Y-33951385D01*
X127264166Y-33951385D01*
X127264165Y-33951384D01*
X127092027Y-33836365D01*
X126945635Y-33689973D01*
X126830616Y-33517835D01*
X126800109Y-33444184D01*
X126751389Y-33326564D01*
X126711000Y-33123516D01*
X126711000Y-32916484D01*
X126751389Y-32713436D01*
X126830615Y-32522167D01*
X126945635Y-32350027D01*
X127092027Y-32203635D01*
X127264165Y-32088616D01*
X127264167Y-32088615D01*
X127455436Y-32009389D01*
X127658484Y-31969000D01*
X127865516Y-31969000D01*
X128068564Y-32009389D01*
G37*
G36*
X146968564Y-32009389D02*
G01*
X147159833Y-32088615D01*
X147159835Y-32088616D01*
X147331973Y-32203635D01*
X147478365Y-32350027D01*
X147593385Y-32522167D01*
X147672611Y-32713436D01*
X147713000Y-32916484D01*
X147713000Y-33123516D01*
X147672611Y-33326564D01*
X147623891Y-33444184D01*
X147593384Y-33517835D01*
X147478365Y-33689973D01*
X147331973Y-33836365D01*
X147159835Y-33951384D01*
X147159834Y-33951385D01*
X147159833Y-33951385D01*
X146968564Y-34030611D01*
X146765516Y-34071000D01*
X146558484Y-34071000D01*
X146355436Y-34030611D01*
X146164167Y-33951385D01*
X146164166Y-33951385D01*
X146164165Y-33951384D01*
X145992027Y-33836365D01*
X145845635Y-33689973D01*
X145730616Y-33517835D01*
X145700109Y-33444184D01*
X145651389Y-33326564D01*
X145611000Y-33123516D01*
X145611000Y-32916484D01*
X145651389Y-32713436D01*
X145730615Y-32522167D01*
X145845635Y-32350027D01*
X145992027Y-32203635D01*
X146164165Y-32088616D01*
X146164167Y-32088615D01*
X146355436Y-32009389D01*
X146558484Y-31969000D01*
X146765516Y-31969000D01*
X146968564Y-32009389D01*
G37*
G36*
X153468564Y-32009389D02*
G01*
X153659833Y-32088615D01*
X153659835Y-32088616D01*
X153831973Y-32203635D01*
X153978365Y-32350027D01*
X154093385Y-32522167D01*
X154172611Y-32713436D01*
X154213000Y-32916484D01*
X154213000Y-33123516D01*
X154172611Y-33326564D01*
X154123891Y-33444184D01*
X154093384Y-33517835D01*
X153978365Y-33689973D01*
X153831973Y-33836365D01*
X153659835Y-33951384D01*
X153659834Y-33951385D01*
X153659833Y-33951385D01*
X153468564Y-34030611D01*
X153265516Y-34071000D01*
X153058484Y-34071000D01*
X152855436Y-34030611D01*
X152664167Y-33951385D01*
X152664166Y-33951385D01*
X152664165Y-33951384D01*
X152492027Y-33836365D01*
X152345635Y-33689973D01*
X152230616Y-33517835D01*
X152200109Y-33444184D01*
X152151389Y-33326564D01*
X152111000Y-33123516D01*
X152111000Y-32916484D01*
X152151389Y-32713436D01*
X152230615Y-32522167D01*
X152345635Y-32350027D01*
X152492027Y-32203635D01*
X152664165Y-32088616D01*
X152664167Y-32088615D01*
X152855436Y-32009389D01*
X153058484Y-31969000D01*
X153265516Y-31969000D01*
X153468564Y-32009389D01*
G37*
G36*
X49135512Y-29837927D02*
G01*
X49284812Y-29867624D01*
X49448784Y-29935544D01*
X49596354Y-30034147D01*
X49721853Y-30159646D01*
X49820456Y-30307216D01*
X49888376Y-30471188D01*
X49923000Y-30645259D01*
X49923000Y-30822741D01*
X49888376Y-30996812D01*
X49820456Y-31160784D01*
X49721853Y-31308354D01*
X49596354Y-31433853D01*
X49448784Y-31532456D01*
X49284812Y-31600376D01*
X49135512Y-31630073D01*
X49110742Y-31635000D01*
X48933258Y-31635000D01*
X48908488Y-31630073D01*
X48759188Y-31600376D01*
X48595216Y-31532456D01*
X48447646Y-31433853D01*
X48322147Y-31308354D01*
X48223544Y-31160784D01*
X48155624Y-30996812D01*
X48121000Y-30822741D01*
X48121000Y-30645259D01*
X48155624Y-30471188D01*
X48223544Y-30307216D01*
X48322147Y-30159646D01*
X48447646Y-30034147D01*
X48595216Y-29935544D01*
X48759188Y-29867624D01*
X48908488Y-29837927D01*
X48933258Y-29833000D01*
X49110742Y-29833000D01*
X49135512Y-29837927D01*
G37*
G36*
X46595512Y-29837927D02*
G01*
X46744812Y-29867624D01*
X46908784Y-29935544D01*
X47056354Y-30034147D01*
X47181853Y-30159646D01*
X47280456Y-30307216D01*
X47348376Y-30471188D01*
X47383000Y-30645259D01*
X47383000Y-30822741D01*
X47348376Y-30996812D01*
X47280456Y-31160784D01*
X47181853Y-31308354D01*
X47056354Y-31433853D01*
X46908784Y-31532456D01*
X46744812Y-31600376D01*
X46595512Y-31630073D01*
X46570742Y-31635000D01*
X46393258Y-31635000D01*
X46368488Y-31630073D01*
X46219188Y-31600376D01*
X46055216Y-31532456D01*
X45907646Y-31433853D01*
X45782147Y-31308354D01*
X45683544Y-31160784D01*
X45615624Y-30996812D01*
X45581000Y-30822741D01*
X45581000Y-30645259D01*
X45615624Y-30471188D01*
X45683544Y-30307216D01*
X45782147Y-30159646D01*
X45907646Y-30034147D01*
X46055216Y-29935544D01*
X46219188Y-29867624D01*
X46368488Y-29837927D01*
X46393258Y-29833000D01*
X46570742Y-29833000D01*
X46595512Y-29837927D01*
G37*
G36*
X86678433Y-27004893D02*
G01*
X86768657Y-27022839D01*
X86874267Y-27066585D01*
X87023621Y-27128449D01*
X87023622Y-27128450D01*
X87253086Y-27281772D01*
X87448228Y-27476914D01*
X87459743Y-27494148D01*
X87601551Y-27706379D01*
X87626751Y-27767218D01*
X87694671Y-27931189D01*
X87707161Y-27961344D01*
X87761000Y-28232012D01*
X87761000Y-28507988D01*
X87725107Y-28688433D01*
X87709211Y-28768353D01*
X87707161Y-28778656D01*
X87601551Y-29033621D01*
X87583674Y-29060376D01*
X87448228Y-29263086D01*
X87253086Y-29458228D01*
X87099763Y-29560675D01*
X87023621Y-29611551D01*
X86874267Y-29673415D01*
X86768657Y-29717161D01*
X86678433Y-29735107D01*
X86497988Y-29771000D01*
X86222012Y-29771000D01*
X86041567Y-29735107D01*
X85951343Y-29717161D01*
X85845733Y-29673415D01*
X85696379Y-29611551D01*
X85620237Y-29560675D01*
X85466914Y-29458228D01*
X85271772Y-29263086D01*
X85136326Y-29060376D01*
X85118449Y-29033621D01*
X85012839Y-28778656D01*
X85010790Y-28768353D01*
X84994893Y-28688433D01*
X84959000Y-28507988D01*
X84959000Y-28232012D01*
X85012839Y-27961344D01*
X85025330Y-27931189D01*
X85093249Y-27767218D01*
X85118449Y-27706379D01*
X85260257Y-27494148D01*
X85271772Y-27476914D01*
X85466914Y-27281772D01*
X85696378Y-27128450D01*
X85696379Y-27128449D01*
X85845733Y-27066585D01*
X85951343Y-27022839D01*
X86041567Y-27004893D01*
X86222012Y-26969000D01*
X86497988Y-26969000D01*
X86678433Y-27004893D01*
G37*
G36*
X100648433Y-27004893D02*
G01*
X100738657Y-27022839D01*
X100844267Y-27066585D01*
X100993621Y-27128449D01*
X100993622Y-27128450D01*
X101223086Y-27281772D01*
X101418228Y-27476914D01*
X101429743Y-27494148D01*
X101571551Y-27706379D01*
X101596751Y-27767218D01*
X101664671Y-27931189D01*
X101677161Y-27961344D01*
X101731000Y-28232012D01*
X101731000Y-28507988D01*
X101695107Y-28688433D01*
X101679211Y-28768353D01*
X101677161Y-28778656D01*
X101571551Y-29033621D01*
X101553674Y-29060376D01*
X101418228Y-29263086D01*
X101223086Y-29458228D01*
X101069763Y-29560675D01*
X100993621Y-29611551D01*
X100844267Y-29673415D01*
X100738657Y-29717161D01*
X100648433Y-29735107D01*
X100467988Y-29771000D01*
X100192012Y-29771000D01*
X100011567Y-29735107D01*
X99921343Y-29717161D01*
X99815733Y-29673415D01*
X99666379Y-29611551D01*
X99590237Y-29560675D01*
X99436914Y-29458228D01*
X99241772Y-29263086D01*
X99106326Y-29060376D01*
X99088449Y-29033621D01*
X98982839Y-28778656D01*
X98980790Y-28768353D01*
X98964893Y-28688433D01*
X98929000Y-28507988D01*
X98929000Y-28232012D01*
X98982839Y-27961344D01*
X98995330Y-27931189D01*
X99063249Y-27767218D01*
X99088449Y-27706379D01*
X99230257Y-27494148D01*
X99241772Y-27476914D01*
X99436914Y-27281772D01*
X99666378Y-27128450D01*
X99666379Y-27128449D01*
X99815733Y-27066585D01*
X99921343Y-27022839D01*
X100011567Y-27004893D01*
X100192012Y-26969000D01*
X100467988Y-26969000D01*
X100648433Y-27004893D01*
G37*
G36*
X114618433Y-27004893D02*
G01*
X114708657Y-27022839D01*
X114814267Y-27066585D01*
X114963621Y-27128449D01*
X114963622Y-27128450D01*
X115193086Y-27281772D01*
X115388228Y-27476914D01*
X115399743Y-27494148D01*
X115541551Y-27706379D01*
X115566751Y-27767218D01*
X115634671Y-27931189D01*
X115647161Y-27961344D01*
X115701000Y-28232012D01*
X115701000Y-28507988D01*
X115665107Y-28688433D01*
X115649211Y-28768353D01*
X115647161Y-28778656D01*
X115541551Y-29033621D01*
X115523674Y-29060376D01*
X115388228Y-29263086D01*
X115193086Y-29458228D01*
X115039763Y-29560675D01*
X114963621Y-29611551D01*
X114814267Y-29673415D01*
X114708657Y-29717161D01*
X114618433Y-29735107D01*
X114437988Y-29771000D01*
X114162012Y-29771000D01*
X113981567Y-29735107D01*
X113891343Y-29717161D01*
X113785733Y-29673415D01*
X113636379Y-29611551D01*
X113560237Y-29560675D01*
X113406914Y-29458228D01*
X113211772Y-29263086D01*
X113076326Y-29060376D01*
X113058449Y-29033621D01*
X112952839Y-28778656D01*
X112950790Y-28768353D01*
X112934893Y-28688433D01*
X112899000Y-28507988D01*
X112899000Y-28232012D01*
X112952839Y-27961344D01*
X112965330Y-27931189D01*
X113033249Y-27767218D01*
X113058449Y-27706379D01*
X113200257Y-27494148D01*
X113211772Y-27476914D01*
X113406914Y-27281772D01*
X113636378Y-27128450D01*
X113636379Y-27128449D01*
X113785733Y-27066585D01*
X113891343Y-27022839D01*
X113981567Y-27004893D01*
X114162012Y-26969000D01*
X114437988Y-26969000D01*
X114618433Y-27004893D01*
G37*
G36*
X128588433Y-27004893D02*
G01*
X128678657Y-27022839D01*
X128784267Y-27066585D01*
X128933621Y-27128449D01*
X128933622Y-27128450D01*
X129163086Y-27281772D01*
X129358228Y-27476914D01*
X129369743Y-27494148D01*
X129511551Y-27706379D01*
X129536751Y-27767218D01*
X129604671Y-27931189D01*
X129617161Y-27961344D01*
X129671000Y-28232012D01*
X129671000Y-28507988D01*
X129635107Y-28688433D01*
X129619211Y-28768353D01*
X129617161Y-28778656D01*
X129511551Y-29033621D01*
X129493674Y-29060376D01*
X129358228Y-29263086D01*
X129163086Y-29458228D01*
X129009763Y-29560675D01*
X128933621Y-29611551D01*
X128784267Y-29673415D01*
X128678657Y-29717161D01*
X128588433Y-29735107D01*
X128407988Y-29771000D01*
X128132012Y-29771000D01*
X127951567Y-29735107D01*
X127861343Y-29717161D01*
X127755733Y-29673415D01*
X127606379Y-29611551D01*
X127530237Y-29560675D01*
X127376914Y-29458228D01*
X127181772Y-29263086D01*
X127046326Y-29060376D01*
X127028449Y-29033621D01*
X126922839Y-28778656D01*
X126920790Y-28768353D01*
X126904893Y-28688433D01*
X126869000Y-28507988D01*
X126869000Y-28232012D01*
X126922839Y-27961344D01*
X126935330Y-27931189D01*
X127003249Y-27767218D01*
X127028449Y-27706379D01*
X127170257Y-27494148D01*
X127181772Y-27476914D01*
X127376914Y-27281772D01*
X127606378Y-27128450D01*
X127606379Y-27128449D01*
X127755733Y-27066585D01*
X127861343Y-27022839D01*
X127951567Y-27004893D01*
X128132012Y-26969000D01*
X128407988Y-26969000D01*
X128588433Y-27004893D01*
G37*
G36*
X142558433Y-27004893D02*
G01*
X142648657Y-27022839D01*
X142754267Y-27066585D01*
X142903621Y-27128449D01*
X142903622Y-27128450D01*
X143133086Y-27281772D01*
X143328228Y-27476914D01*
X143339743Y-27494148D01*
X143481551Y-27706379D01*
X143506751Y-27767218D01*
X143574671Y-27931189D01*
X143587161Y-27961344D01*
X143641000Y-28232012D01*
X143641000Y-28507988D01*
X143605107Y-28688433D01*
X143589211Y-28768353D01*
X143587161Y-28778656D01*
X143481551Y-29033621D01*
X143463674Y-29060376D01*
X143328228Y-29263086D01*
X143133086Y-29458228D01*
X142979763Y-29560675D01*
X142903621Y-29611551D01*
X142754267Y-29673415D01*
X142648657Y-29717161D01*
X142558433Y-29735107D01*
X142377988Y-29771000D01*
X142102012Y-29771000D01*
X141921567Y-29735107D01*
X141831343Y-29717161D01*
X141725733Y-29673415D01*
X141576379Y-29611551D01*
X141500237Y-29560675D01*
X141346914Y-29458228D01*
X141151772Y-29263086D01*
X141016326Y-29060376D01*
X140998449Y-29033621D01*
X140892839Y-28778656D01*
X140890790Y-28768353D01*
X140874893Y-28688433D01*
X140839000Y-28507988D01*
X140839000Y-28232012D01*
X140892839Y-27961344D01*
X140905330Y-27931189D01*
X140973249Y-27767218D01*
X140998449Y-27706379D01*
X141140257Y-27494148D01*
X141151772Y-27476914D01*
X141346914Y-27281772D01*
X141576378Y-27128450D01*
X141576379Y-27128449D01*
X141725733Y-27066585D01*
X141831343Y-27022839D01*
X141921567Y-27004893D01*
X142102012Y-26969000D01*
X142377988Y-26969000D01*
X142558433Y-27004893D01*
G37*
G36*
X156528433Y-27004893D02*
G01*
X156618657Y-27022839D01*
X156724267Y-27066585D01*
X156873621Y-27128449D01*
X156873622Y-27128450D01*
X157103086Y-27281772D01*
X157298228Y-27476914D01*
X157309743Y-27494148D01*
X157451551Y-27706379D01*
X157476751Y-27767218D01*
X157544671Y-27931189D01*
X157557161Y-27961344D01*
X157611000Y-28232012D01*
X157611000Y-28507988D01*
X157575107Y-28688433D01*
X157559211Y-28768353D01*
X157557161Y-28778656D01*
X157451551Y-29033621D01*
X157433674Y-29060376D01*
X157298228Y-29263086D01*
X157103086Y-29458228D01*
X156949763Y-29560675D01*
X156873621Y-29611551D01*
X156724267Y-29673415D01*
X156618657Y-29717161D01*
X156528433Y-29735107D01*
X156347988Y-29771000D01*
X156072012Y-29771000D01*
X155891567Y-29735107D01*
X155801343Y-29717161D01*
X155695733Y-29673415D01*
X155546379Y-29611551D01*
X155470237Y-29560675D01*
X155316914Y-29458228D01*
X155121772Y-29263086D01*
X154986326Y-29060376D01*
X154968449Y-29033621D01*
X154862839Y-28778656D01*
X154860790Y-28768353D01*
X154844893Y-28688433D01*
X154809000Y-28507988D01*
X154809000Y-28232012D01*
X154862839Y-27961344D01*
X154875330Y-27931189D01*
X154943249Y-27767218D01*
X154968449Y-27706379D01*
X155110257Y-27494148D01*
X155121772Y-27476914D01*
X155316914Y-27281772D01*
X155546378Y-27128450D01*
X155546379Y-27128449D01*
X155695733Y-27066585D01*
X155801343Y-27022839D01*
X155891567Y-27004893D01*
X156072012Y-26969000D01*
X156347988Y-26969000D01*
X156528433Y-27004893D01*
G37*
G36*
X72708433Y-27004893D02*
G01*
X72798657Y-27022839D01*
X72904267Y-27066585D01*
X73053621Y-27128449D01*
X73053622Y-27128450D01*
X73283086Y-27281772D01*
X73478228Y-27476914D01*
X73489743Y-27494148D01*
X73631551Y-27706379D01*
X73656751Y-27767218D01*
X73724671Y-27931189D01*
X73737161Y-27961344D01*
X73791000Y-28232012D01*
X73791000Y-28507988D01*
X73755107Y-28688433D01*
X73739211Y-28768353D01*
X73737161Y-28778656D01*
X73631551Y-29033621D01*
X73613674Y-29060376D01*
X73478228Y-29263086D01*
X73283086Y-29458228D01*
X73129763Y-29560675D01*
X73053621Y-29611551D01*
X72904267Y-29673415D01*
X72798657Y-29717161D01*
X72708433Y-29735107D01*
X72527988Y-29771000D01*
X72252012Y-29771000D01*
X72071567Y-29735107D01*
X71981343Y-29717161D01*
X71875733Y-29673415D01*
X71726379Y-29611551D01*
X71650237Y-29560675D01*
X71496914Y-29458228D01*
X71301772Y-29263086D01*
X71166326Y-29060376D01*
X71148449Y-29033621D01*
X71042839Y-28778656D01*
X71040790Y-28768353D01*
X71024893Y-28688433D01*
X70989000Y-28507988D01*
X70989000Y-28232012D01*
X71042839Y-27961344D01*
X71055330Y-27931189D01*
X71123249Y-27767218D01*
X71148449Y-27706379D01*
X71290257Y-27494148D01*
X71301772Y-27476914D01*
X71496914Y-27281772D01*
X71726378Y-27128450D01*
X71726379Y-27128449D01*
X71875733Y-27066585D01*
X71981343Y-27022839D01*
X72071567Y-27004893D01*
X72252012Y-26969000D01*
X72527988Y-26969000D01*
X72708433Y-27004893D01*
G37*
G36*
X58828433Y-27004893D02*
G01*
X58918657Y-27022839D01*
X59024267Y-27066585D01*
X59173621Y-27128449D01*
X59173622Y-27128450D01*
X59403086Y-27281772D01*
X59598228Y-27476914D01*
X59609743Y-27494148D01*
X59751551Y-27706379D01*
X59776751Y-27767218D01*
X59844671Y-27931189D01*
X59857161Y-27961344D01*
X59911000Y-28232012D01*
X59911000Y-28507988D01*
X59875107Y-28688433D01*
X59859211Y-28768353D01*
X59857161Y-28778656D01*
X59751551Y-29033621D01*
X59733674Y-29060376D01*
X59598228Y-29263086D01*
X59403086Y-29458228D01*
X59249763Y-29560675D01*
X59173621Y-29611551D01*
X59024267Y-29673415D01*
X58918657Y-29717161D01*
X58828433Y-29735107D01*
X58647988Y-29771000D01*
X58372012Y-29771000D01*
X58191567Y-29735107D01*
X58101343Y-29717161D01*
X57995733Y-29673415D01*
X57846379Y-29611551D01*
X57770237Y-29560675D01*
X57616914Y-29458228D01*
X57421772Y-29263086D01*
X57286326Y-29060376D01*
X57268449Y-29033621D01*
X57162839Y-28778656D01*
X57160790Y-28768353D01*
X57144893Y-28688433D01*
X57109000Y-28507988D01*
X57109000Y-28232012D01*
X57162839Y-27961344D01*
X57175330Y-27931189D01*
X57243249Y-27767218D01*
X57268449Y-27706379D01*
X57410257Y-27494148D01*
X57421772Y-27476914D01*
X57616914Y-27281772D01*
X57846378Y-27128450D01*
X57846379Y-27128449D01*
X57995733Y-27066585D01*
X58101343Y-27022839D01*
X58191567Y-27004893D01*
X58372012Y-26969000D01*
X58647988Y-26969000D01*
X58828433Y-27004893D01*
G37*
G36*
X53842228Y-27629703D02*
G01*
X53997100Y-27693853D01*
X54136481Y-27786985D01*
X54255015Y-27905519D01*
X54348147Y-28044900D01*
X54412297Y-28199772D01*
X54445000Y-28364184D01*
X54445000Y-28531816D01*
X54412297Y-28696228D01*
X54348147Y-28851100D01*
X54255015Y-28990481D01*
X54136481Y-29109015D01*
X53997100Y-29202147D01*
X53842228Y-29266297D01*
X53677816Y-29299000D01*
X53510184Y-29299000D01*
X53345772Y-29266297D01*
X53190900Y-29202147D01*
X53051519Y-29109015D01*
X52932985Y-28990481D01*
X52839853Y-28851100D01*
X52775703Y-28696228D01*
X52743000Y-28531816D01*
X52743000Y-28364184D01*
X52775703Y-28199772D01*
X52839853Y-28044900D01*
X52932985Y-27905519D01*
X53051519Y-27786985D01*
X53190900Y-27693853D01*
X53345772Y-27629703D01*
X53510184Y-27597000D01*
X53677816Y-27597000D01*
X53842228Y-27629703D01*
G37*
G36*
X49135512Y-27297927D02*
G01*
X49284812Y-27327624D01*
X49448784Y-27395544D01*
X49596354Y-27494147D01*
X49721853Y-27619646D01*
X49820456Y-27767216D01*
X49888376Y-27931188D01*
X49923000Y-28105259D01*
X49923000Y-28282741D01*
X49888376Y-28456812D01*
X49820456Y-28620784D01*
X49721853Y-28768354D01*
X49596354Y-28893853D01*
X49448784Y-28992456D01*
X49284812Y-29060376D01*
X49135512Y-29090073D01*
X49110742Y-29095000D01*
X48933258Y-29095000D01*
X48908488Y-29090073D01*
X48759188Y-29060376D01*
X48595216Y-28992456D01*
X48447646Y-28893853D01*
X48322147Y-28768354D01*
X48223544Y-28620784D01*
X48155624Y-28456812D01*
X48121000Y-28282741D01*
X48121000Y-28105259D01*
X48155624Y-27931188D01*
X48223544Y-27767216D01*
X48322147Y-27619646D01*
X48447646Y-27494147D01*
X48595216Y-27395544D01*
X48759188Y-27327624D01*
X48908488Y-27297927D01*
X48933258Y-27293000D01*
X49110742Y-27293000D01*
X49135512Y-27297927D01*
G37*
G36*
X46595512Y-27297927D02*
G01*
X46744812Y-27327624D01*
X46908784Y-27395544D01*
X47056354Y-27494147D01*
X47181853Y-27619646D01*
X47280456Y-27767216D01*
X47348376Y-27931188D01*
X47383000Y-28105259D01*
X47383000Y-28282741D01*
X47348376Y-28456812D01*
X47280456Y-28620784D01*
X47181853Y-28768354D01*
X47056354Y-28893853D01*
X46908784Y-28992456D01*
X46744812Y-29060376D01*
X46595512Y-29090073D01*
X46570742Y-29095000D01*
X46393258Y-29095000D01*
X46368488Y-29090073D01*
X46219188Y-29060376D01*
X46055216Y-28992456D01*
X45907646Y-28893853D01*
X45782147Y-28768354D01*
X45683544Y-28620784D01*
X45615624Y-28456812D01*
X45581000Y-28282741D01*
X45581000Y-28105259D01*
X45615624Y-27931188D01*
X45683544Y-27767216D01*
X45782147Y-27619646D01*
X45907646Y-27494147D01*
X46055216Y-27395544D01*
X46219188Y-27327624D01*
X46368488Y-27297927D01*
X46393258Y-27293000D01*
X46570742Y-27293000D01*
X46595512Y-27297927D01*
G37*
G36*
X164928433Y-25804893D02*
G01*
X165018657Y-25822839D01*
X165124267Y-25866585D01*
X165273621Y-25928449D01*
X165273622Y-25928450D01*
X165503086Y-26081772D01*
X165698228Y-26276914D01*
X165800675Y-26430237D01*
X165851551Y-26506379D01*
X165871690Y-26555000D01*
X165957161Y-26761343D01*
X166011000Y-27032014D01*
X166011000Y-27307986D01*
X165957161Y-27578657D01*
X165940182Y-27619647D01*
X165851551Y-27833621D01*
X165851550Y-27833622D01*
X165698228Y-28063086D01*
X165503086Y-28258228D01*
X165349763Y-28360675D01*
X165273621Y-28411551D01*
X165164351Y-28456812D01*
X165018657Y-28517161D01*
X164944985Y-28531815D01*
X164747988Y-28571000D01*
X164472012Y-28571000D01*
X164275015Y-28531815D01*
X164201343Y-28517161D01*
X164055649Y-28456812D01*
X163946379Y-28411551D01*
X163870237Y-28360675D01*
X163716914Y-28258228D01*
X163521772Y-28063086D01*
X163368450Y-27833622D01*
X163368449Y-27833621D01*
X163279818Y-27619647D01*
X163262839Y-27578657D01*
X163209000Y-27307986D01*
X163209000Y-27032014D01*
X163262839Y-26761343D01*
X163348310Y-26555000D01*
X163368449Y-26506379D01*
X163419325Y-26430237D01*
X163521772Y-26276914D01*
X163716914Y-26081772D01*
X163946378Y-25928450D01*
X163946379Y-25928449D01*
X164095733Y-25866585D01*
X164201343Y-25822839D01*
X164291567Y-25804893D01*
X164472012Y-25769000D01*
X164747988Y-25769000D01*
X164928433Y-25804893D01*
G37*
G36*
X136988433Y-25804893D02*
G01*
X137078657Y-25822839D01*
X137184267Y-25866585D01*
X137333621Y-25928449D01*
X137333622Y-25928450D01*
X137563086Y-26081772D01*
X137758228Y-26276914D01*
X137860675Y-26430237D01*
X137911551Y-26506379D01*
X137931690Y-26555000D01*
X138017161Y-26761343D01*
X138071000Y-27032014D01*
X138071000Y-27307986D01*
X138017161Y-27578657D01*
X138000182Y-27619647D01*
X137911551Y-27833621D01*
X137911550Y-27833622D01*
X137758228Y-28063086D01*
X137563086Y-28258228D01*
X137409763Y-28360675D01*
X137333621Y-28411551D01*
X137224351Y-28456812D01*
X137078657Y-28517161D01*
X137004985Y-28531815D01*
X136807988Y-28571000D01*
X136532012Y-28571000D01*
X136335015Y-28531815D01*
X136261343Y-28517161D01*
X136115649Y-28456812D01*
X136006379Y-28411551D01*
X135930237Y-28360675D01*
X135776914Y-28258228D01*
X135581772Y-28063086D01*
X135428450Y-27833622D01*
X135428449Y-27833621D01*
X135339818Y-27619647D01*
X135322839Y-27578657D01*
X135269000Y-27307986D01*
X135269000Y-27032014D01*
X135322839Y-26761343D01*
X135408310Y-26555000D01*
X135428449Y-26506379D01*
X135479325Y-26430237D01*
X135581772Y-26276914D01*
X135776914Y-26081772D01*
X136006378Y-25928450D01*
X136006379Y-25928449D01*
X136155733Y-25866585D01*
X136261343Y-25822839D01*
X136351567Y-25804893D01*
X136532012Y-25769000D01*
X136807988Y-25769000D01*
X136988433Y-25804893D01*
G37*
G36*
X150958433Y-25804893D02*
G01*
X151048657Y-25822839D01*
X151154267Y-25866585D01*
X151303621Y-25928449D01*
X151303622Y-25928450D01*
X151533086Y-26081772D01*
X151728228Y-26276914D01*
X151830675Y-26430237D01*
X151881551Y-26506379D01*
X151901690Y-26555000D01*
X151987161Y-26761343D01*
X152041000Y-27032014D01*
X152041000Y-27307986D01*
X151987161Y-27578657D01*
X151970182Y-27619647D01*
X151881551Y-27833621D01*
X151881550Y-27833622D01*
X151728228Y-28063086D01*
X151533086Y-28258228D01*
X151379763Y-28360675D01*
X151303621Y-28411551D01*
X151194351Y-28456812D01*
X151048657Y-28517161D01*
X150974985Y-28531815D01*
X150777988Y-28571000D01*
X150502012Y-28571000D01*
X150305015Y-28531815D01*
X150231343Y-28517161D01*
X150085649Y-28456812D01*
X149976379Y-28411551D01*
X149900237Y-28360675D01*
X149746914Y-28258228D01*
X149551772Y-28063086D01*
X149398450Y-27833622D01*
X149398449Y-27833621D01*
X149309818Y-27619647D01*
X149292839Y-27578657D01*
X149239000Y-27307986D01*
X149239000Y-27032014D01*
X149292839Y-26761343D01*
X149378310Y-26555000D01*
X149398449Y-26506379D01*
X149449325Y-26430237D01*
X149551772Y-26276914D01*
X149746914Y-26081772D01*
X149976378Y-25928450D01*
X149976379Y-25928449D01*
X150125733Y-25866585D01*
X150231343Y-25822839D01*
X150321567Y-25804893D01*
X150502012Y-25769000D01*
X150777988Y-25769000D01*
X150958433Y-25804893D01*
G37*
G36*
X95078433Y-25804893D02*
G01*
X95168657Y-25822839D01*
X95274267Y-25866585D01*
X95423621Y-25928449D01*
X95423622Y-25928450D01*
X95653086Y-26081772D01*
X95848228Y-26276914D01*
X95950675Y-26430237D01*
X96001551Y-26506379D01*
X96021690Y-26555000D01*
X96107161Y-26761343D01*
X96161000Y-27032014D01*
X96161000Y-27307986D01*
X96107161Y-27578657D01*
X96090182Y-27619647D01*
X96001551Y-27833621D01*
X96001550Y-27833622D01*
X95848228Y-28063086D01*
X95653086Y-28258228D01*
X95499763Y-28360675D01*
X95423621Y-28411551D01*
X95314351Y-28456812D01*
X95168657Y-28517161D01*
X95094985Y-28531815D01*
X94897988Y-28571000D01*
X94622012Y-28571000D01*
X94425015Y-28531815D01*
X94351343Y-28517161D01*
X94205649Y-28456812D01*
X94096379Y-28411551D01*
X94020237Y-28360675D01*
X93866914Y-28258228D01*
X93671772Y-28063086D01*
X93518450Y-27833622D01*
X93518449Y-27833621D01*
X93429818Y-27619647D01*
X93412839Y-27578657D01*
X93359000Y-27307986D01*
X93359000Y-27032014D01*
X93412839Y-26761343D01*
X93498310Y-26555000D01*
X93518449Y-26506379D01*
X93569325Y-26430237D01*
X93671772Y-26276914D01*
X93866914Y-26081772D01*
X94096378Y-25928450D01*
X94096379Y-25928449D01*
X94245733Y-25866585D01*
X94351343Y-25822839D01*
X94441567Y-25804893D01*
X94622012Y-25769000D01*
X94897988Y-25769000D01*
X95078433Y-25804893D01*
G37*
G36*
X81108433Y-25804893D02*
G01*
X81198657Y-25822839D01*
X81304267Y-25866585D01*
X81453621Y-25928449D01*
X81453622Y-25928450D01*
X81683086Y-26081772D01*
X81878228Y-26276914D01*
X81980675Y-26430237D01*
X82031551Y-26506379D01*
X82051690Y-26555000D01*
X82137161Y-26761343D01*
X82191000Y-27032014D01*
X82191000Y-27307986D01*
X82137161Y-27578657D01*
X82120182Y-27619647D01*
X82031551Y-27833621D01*
X82031550Y-27833622D01*
X81878228Y-28063086D01*
X81683086Y-28258228D01*
X81529763Y-28360675D01*
X81453621Y-28411551D01*
X81344351Y-28456812D01*
X81198657Y-28517161D01*
X81124985Y-28531815D01*
X80927988Y-28571000D01*
X80652012Y-28571000D01*
X80455015Y-28531815D01*
X80381343Y-28517161D01*
X80235649Y-28456812D01*
X80126379Y-28411551D01*
X80050237Y-28360675D01*
X79896914Y-28258228D01*
X79701772Y-28063086D01*
X79548450Y-27833622D01*
X79548449Y-27833621D01*
X79459818Y-27619647D01*
X79442839Y-27578657D01*
X79389000Y-27307986D01*
X79389000Y-27032014D01*
X79442839Y-26761343D01*
X79528310Y-26555000D01*
X79548449Y-26506379D01*
X79599325Y-26430237D01*
X79701772Y-26276914D01*
X79896914Y-26081772D01*
X80126378Y-25928450D01*
X80126379Y-25928449D01*
X80275733Y-25866585D01*
X80381343Y-25822839D01*
X80471567Y-25804893D01*
X80652012Y-25769000D01*
X80927988Y-25769000D01*
X81108433Y-25804893D01*
G37*
G36*
X109048433Y-25804893D02*
G01*
X109138657Y-25822839D01*
X109244267Y-25866585D01*
X109393621Y-25928449D01*
X109393622Y-25928450D01*
X109623086Y-26081772D01*
X109818228Y-26276914D01*
X109920675Y-26430237D01*
X109971551Y-26506379D01*
X109991690Y-26555000D01*
X110077161Y-26761343D01*
X110131000Y-27032014D01*
X110131000Y-27307986D01*
X110077161Y-27578657D01*
X110060182Y-27619647D01*
X109971551Y-27833621D01*
X109971550Y-27833622D01*
X109818228Y-28063086D01*
X109623086Y-28258228D01*
X109469763Y-28360675D01*
X109393621Y-28411551D01*
X109284351Y-28456812D01*
X109138657Y-28517161D01*
X109064985Y-28531815D01*
X108867988Y-28571000D01*
X108592012Y-28571000D01*
X108395015Y-28531815D01*
X108321343Y-28517161D01*
X108175649Y-28456812D01*
X108066379Y-28411551D01*
X107990237Y-28360675D01*
X107836914Y-28258228D01*
X107641772Y-28063086D01*
X107488450Y-27833622D01*
X107488449Y-27833621D01*
X107399818Y-27619647D01*
X107382839Y-27578657D01*
X107329000Y-27307986D01*
X107329000Y-27032014D01*
X107382839Y-26761343D01*
X107468310Y-26555000D01*
X107488449Y-26506379D01*
X107539325Y-26430237D01*
X107641772Y-26276914D01*
X107836914Y-26081772D01*
X108066378Y-25928450D01*
X108066379Y-25928449D01*
X108215733Y-25866585D01*
X108321343Y-25822839D01*
X108411567Y-25804893D01*
X108592012Y-25769000D01*
X108867988Y-25769000D01*
X109048433Y-25804893D01*
G37*
G36*
X67228433Y-25804893D02*
G01*
X67318657Y-25822839D01*
X67424267Y-25866585D01*
X67573621Y-25928449D01*
X67573622Y-25928450D01*
X67803086Y-26081772D01*
X67998228Y-26276914D01*
X68100675Y-26430237D01*
X68151551Y-26506379D01*
X68171690Y-26555000D01*
X68257161Y-26761343D01*
X68311000Y-27032014D01*
X68311000Y-27307986D01*
X68257161Y-27578657D01*
X68240182Y-27619647D01*
X68151551Y-27833621D01*
X68151550Y-27833622D01*
X67998228Y-28063086D01*
X67803086Y-28258228D01*
X67649763Y-28360675D01*
X67573621Y-28411551D01*
X67464351Y-28456812D01*
X67318657Y-28517161D01*
X67244985Y-28531815D01*
X67047988Y-28571000D01*
X66772012Y-28571000D01*
X66575015Y-28531815D01*
X66501343Y-28517161D01*
X66355649Y-28456812D01*
X66246379Y-28411551D01*
X66170237Y-28360675D01*
X66016914Y-28258228D01*
X65821772Y-28063086D01*
X65668450Y-27833622D01*
X65668449Y-27833621D01*
X65579818Y-27619647D01*
X65562839Y-27578657D01*
X65509000Y-27307986D01*
X65509000Y-27032014D01*
X65562839Y-26761343D01*
X65648310Y-26555000D01*
X65668449Y-26506379D01*
X65719325Y-26430237D01*
X65821772Y-26276914D01*
X66016914Y-26081772D01*
X66246378Y-25928450D01*
X66246379Y-25928449D01*
X66395733Y-25866585D01*
X66501343Y-25822839D01*
X66591567Y-25804893D01*
X66772012Y-25769000D01*
X67047988Y-25769000D01*
X67228433Y-25804893D01*
G37*
G36*
X123018433Y-25804893D02*
G01*
X123108657Y-25822839D01*
X123214267Y-25866585D01*
X123363621Y-25928449D01*
X123363622Y-25928450D01*
X123593086Y-26081772D01*
X123788228Y-26276914D01*
X123890675Y-26430237D01*
X123941551Y-26506379D01*
X123961690Y-26555000D01*
X124047161Y-26761343D01*
X124101000Y-27032014D01*
X124101000Y-27307986D01*
X124047161Y-27578657D01*
X124030182Y-27619647D01*
X123941551Y-27833621D01*
X123941550Y-27833622D01*
X123788228Y-28063086D01*
X123593086Y-28258228D01*
X123439763Y-28360675D01*
X123363621Y-28411551D01*
X123254351Y-28456812D01*
X123108657Y-28517161D01*
X123034985Y-28531815D01*
X122837988Y-28571000D01*
X122562012Y-28571000D01*
X122365015Y-28531815D01*
X122291343Y-28517161D01*
X122145649Y-28456812D01*
X122036379Y-28411551D01*
X121960237Y-28360675D01*
X121806914Y-28258228D01*
X121611772Y-28063086D01*
X121458450Y-27833622D01*
X121458449Y-27833621D01*
X121369818Y-27619647D01*
X121352839Y-27578657D01*
X121299000Y-27307986D01*
X121299000Y-27032014D01*
X121352839Y-26761343D01*
X121438310Y-26555000D01*
X121458449Y-26506379D01*
X121509325Y-26430237D01*
X121611772Y-26276914D01*
X121806914Y-26081772D01*
X122036378Y-25928450D01*
X122036379Y-25928449D01*
X122185733Y-25866585D01*
X122291343Y-25822839D01*
X122381567Y-25804893D01*
X122562012Y-25769000D01*
X122837988Y-25769000D01*
X123018433Y-25804893D01*
G37*
G36*
X49923000Y-26555000D02*
G01*
X48121000Y-26555000D01*
X48121000Y-24753000D01*
X49923000Y-24753000D01*
X49923000Y-26555000D01*
G37*
G36*
X46595512Y-24757927D02*
G01*
X46744812Y-24787624D01*
X46908784Y-24855544D01*
X47056354Y-24954147D01*
X47181853Y-25079646D01*
X47280456Y-25227216D01*
X47348376Y-25391188D01*
X47383000Y-25565259D01*
X47383000Y-25742741D01*
X47348376Y-25916812D01*
X47280456Y-26080784D01*
X47181853Y-26228354D01*
X47056354Y-26353853D01*
X46908784Y-26452456D01*
X46744812Y-26520376D01*
X46595512Y-26550073D01*
X46570742Y-26555000D01*
X46393258Y-26555000D01*
X46368488Y-26550073D01*
X46219188Y-26520376D01*
X46055216Y-26452456D01*
X45907646Y-26353853D01*
X45782147Y-26228354D01*
X45683544Y-26080784D01*
X45615624Y-25916812D01*
X45581000Y-25742741D01*
X45581000Y-25565259D01*
X45615624Y-25391188D01*
X45683544Y-25227216D01*
X45782147Y-25079646D01*
X45907646Y-24954147D01*
X46055216Y-24855544D01*
X46219188Y-24787624D01*
X46368488Y-24757927D01*
X46393258Y-24753000D01*
X46570742Y-24753000D01*
X46595512Y-24757927D01*
G37*
G36*
X130990104Y-22129585D02*
G01*
X131158626Y-22199389D01*
X131310291Y-22300728D01*
X131439272Y-22429709D01*
X131540611Y-22581374D01*
X131610415Y-22749896D01*
X131646000Y-22928797D01*
X131646000Y-23111203D01*
X131610415Y-23290104D01*
X131540611Y-23458626D01*
X131439272Y-23610291D01*
X131310291Y-23739272D01*
X131158626Y-23840611D01*
X130990104Y-23910415D01*
X130811203Y-23946000D01*
X130628797Y-23946000D01*
X130449896Y-23910415D01*
X130281374Y-23840611D01*
X130129709Y-23739272D01*
X130000728Y-23610291D01*
X129899389Y-23458626D01*
X129829585Y-23290104D01*
X129794000Y-23111203D01*
X129794000Y-22928797D01*
X129829585Y-22749896D01*
X129899389Y-22581374D01*
X130000728Y-22429709D01*
X130129709Y-22300728D01*
X130281374Y-22199389D01*
X130449896Y-22129585D01*
X130628797Y-22094000D01*
X130811203Y-22094000D01*
X130990104Y-22129585D01*
G37*
G36*
X144960104Y-22129585D02*
G01*
X145128626Y-22199389D01*
X145280291Y-22300728D01*
X145409272Y-22429709D01*
X145510611Y-22581374D01*
X145580415Y-22749896D01*
X145616000Y-22928797D01*
X145616000Y-23111203D01*
X145580415Y-23290104D01*
X145510611Y-23458626D01*
X145409272Y-23610291D01*
X145280291Y-23739272D01*
X145128626Y-23840611D01*
X144960104Y-23910415D01*
X144781203Y-23946000D01*
X144598797Y-23946000D01*
X144419896Y-23910415D01*
X144251374Y-23840611D01*
X144099709Y-23739272D01*
X143970728Y-23610291D01*
X143869389Y-23458626D01*
X143799585Y-23290104D01*
X143764000Y-23111203D01*
X143764000Y-22928797D01*
X143799585Y-22749896D01*
X143869389Y-22581374D01*
X143970728Y-22429709D01*
X144099709Y-22300728D01*
X144251374Y-22199389D01*
X144419896Y-22129585D01*
X144598797Y-22094000D01*
X144781203Y-22094000D01*
X144960104Y-22129585D01*
G37*
G36*
X158930104Y-22129585D02*
G01*
X159098626Y-22199389D01*
X159250291Y-22300728D01*
X159379272Y-22429709D01*
X159480611Y-22581374D01*
X159550415Y-22749896D01*
X159586000Y-22928797D01*
X159586000Y-23111203D01*
X159550415Y-23290104D01*
X159480611Y-23458626D01*
X159379272Y-23610291D01*
X159250291Y-23739272D01*
X159098626Y-23840611D01*
X158930104Y-23910415D01*
X158751203Y-23946000D01*
X158568797Y-23946000D01*
X158389896Y-23910415D01*
X158221374Y-23840611D01*
X158069709Y-23739272D01*
X157940728Y-23610291D01*
X157839389Y-23458626D01*
X157769585Y-23290104D01*
X157734000Y-23111203D01*
X157734000Y-22928797D01*
X157769585Y-22749896D01*
X157839389Y-22581374D01*
X157940728Y-22429709D01*
X158069709Y-22300728D01*
X158221374Y-22199389D01*
X158389896Y-22129585D01*
X158568797Y-22094000D01*
X158751203Y-22094000D01*
X158930104Y-22129585D01*
G37*
G36*
X89080104Y-22129585D02*
G01*
X89248626Y-22199389D01*
X89400291Y-22300728D01*
X89529272Y-22429709D01*
X89630611Y-22581374D01*
X89700415Y-22749896D01*
X89736000Y-22928797D01*
X89736000Y-23111203D01*
X89700415Y-23290104D01*
X89630611Y-23458626D01*
X89529272Y-23610291D01*
X89400291Y-23739272D01*
X89248626Y-23840611D01*
X89080104Y-23910415D01*
X88901203Y-23946000D01*
X88718797Y-23946000D01*
X88539896Y-23910415D01*
X88371374Y-23840611D01*
X88219709Y-23739272D01*
X88090728Y-23610291D01*
X87989389Y-23458626D01*
X87919585Y-23290104D01*
X87884000Y-23111203D01*
X87884000Y-22928797D01*
X87919585Y-22749896D01*
X87989389Y-22581374D01*
X88090728Y-22429709D01*
X88219709Y-22300728D01*
X88371374Y-22199389D01*
X88539896Y-22129585D01*
X88718797Y-22094000D01*
X88901203Y-22094000D01*
X89080104Y-22129585D01*
G37*
G36*
X117020104Y-22129585D02*
G01*
X117188626Y-22199389D01*
X117340291Y-22300728D01*
X117469272Y-22429709D01*
X117570611Y-22581374D01*
X117640415Y-22749896D01*
X117676000Y-22928797D01*
X117676000Y-23111203D01*
X117640415Y-23290104D01*
X117570611Y-23458626D01*
X117469272Y-23610291D01*
X117340291Y-23739272D01*
X117188626Y-23840611D01*
X117020104Y-23910415D01*
X116841203Y-23946000D01*
X116658797Y-23946000D01*
X116479896Y-23910415D01*
X116311374Y-23840611D01*
X116159709Y-23739272D01*
X116030728Y-23610291D01*
X115929389Y-23458626D01*
X115859585Y-23290104D01*
X115824000Y-23111203D01*
X115824000Y-22928797D01*
X115859585Y-22749896D01*
X115929389Y-22581374D01*
X116030728Y-22429709D01*
X116159709Y-22300728D01*
X116311374Y-22199389D01*
X116479896Y-22129585D01*
X116658797Y-22094000D01*
X116841203Y-22094000D01*
X117020104Y-22129585D01*
G37*
G36*
X75110104Y-22129585D02*
G01*
X75278626Y-22199389D01*
X75430291Y-22300728D01*
X75559272Y-22429709D01*
X75660611Y-22581374D01*
X75730415Y-22749896D01*
X75766000Y-22928797D01*
X75766000Y-23111203D01*
X75730415Y-23290104D01*
X75660611Y-23458626D01*
X75559272Y-23610291D01*
X75430291Y-23739272D01*
X75278626Y-23840611D01*
X75110104Y-23910415D01*
X74931203Y-23946000D01*
X74748797Y-23946000D01*
X74569896Y-23910415D01*
X74401374Y-23840611D01*
X74249709Y-23739272D01*
X74120728Y-23610291D01*
X74019389Y-23458626D01*
X73949585Y-23290104D01*
X73914000Y-23111203D01*
X73914000Y-22928797D01*
X73949585Y-22749896D01*
X74019389Y-22581374D01*
X74120728Y-22429709D01*
X74249709Y-22300728D01*
X74401374Y-22199389D01*
X74569896Y-22129585D01*
X74748797Y-22094000D01*
X74931203Y-22094000D01*
X75110104Y-22129585D01*
G37*
G36*
X61230104Y-22129585D02*
G01*
X61398626Y-22199389D01*
X61550291Y-22300728D01*
X61679272Y-22429709D01*
X61780611Y-22581374D01*
X61850415Y-22749896D01*
X61886000Y-22928797D01*
X61886000Y-23111203D01*
X61850415Y-23290104D01*
X61780611Y-23458626D01*
X61679272Y-23610291D01*
X61550291Y-23739272D01*
X61398626Y-23840611D01*
X61230104Y-23910415D01*
X61051203Y-23946000D01*
X60868797Y-23946000D01*
X60689896Y-23910415D01*
X60521374Y-23840611D01*
X60369709Y-23739272D01*
X60240728Y-23610291D01*
X60139389Y-23458626D01*
X60069585Y-23290104D01*
X60034000Y-23111203D01*
X60034000Y-22928797D01*
X60069585Y-22749896D01*
X60139389Y-22581374D01*
X60240728Y-22429709D01*
X60369709Y-22300728D01*
X60521374Y-22199389D01*
X60689896Y-22129585D01*
X60868797Y-22094000D01*
X61051203Y-22094000D01*
X61230104Y-22129585D01*
G37*
G36*
X103050104Y-22129585D02*
G01*
X103218626Y-22199389D01*
X103370291Y-22300728D01*
X103499272Y-22429709D01*
X103600611Y-22581374D01*
X103670415Y-22749896D01*
X103706000Y-22928797D01*
X103706000Y-23111203D01*
X103670415Y-23290104D01*
X103600611Y-23458626D01*
X103499272Y-23610291D01*
X103370291Y-23739272D01*
X103218626Y-23840611D01*
X103050104Y-23910415D01*
X102871203Y-23946000D01*
X102688797Y-23946000D01*
X102509896Y-23910415D01*
X102341374Y-23840611D01*
X102189709Y-23739272D01*
X102060728Y-23610291D01*
X101959389Y-23458626D01*
X101889585Y-23290104D01*
X101854000Y-23111203D01*
X101854000Y-22928797D01*
X101889585Y-22749896D01*
X101959389Y-22581374D01*
X102060728Y-22429709D01*
X102189709Y-22300728D01*
X102341374Y-22199389D01*
X102509896Y-22129585D01*
X102688797Y-22094000D01*
X102871203Y-22094000D01*
X103050104Y-22129585D01*
G37*
G36*
X54627331Y-19350211D02*
G01*
X54955092Y-19485974D01*
X55250070Y-19683072D01*
X55500928Y-19933930D01*
X55698026Y-20228908D01*
X55833789Y-20556669D01*
X55903000Y-20904616D01*
X55903000Y-21259384D01*
X55833789Y-21607331D01*
X55698026Y-21935092D01*
X55500928Y-22230070D01*
X55250070Y-22480928D01*
X54955092Y-22678026D01*
X54627331Y-22813789D01*
X54279384Y-22883000D01*
X53924616Y-22883000D01*
X53576669Y-22813789D01*
X53248908Y-22678026D01*
X52953930Y-22480928D01*
X52703072Y-22230070D01*
X52505974Y-21935092D01*
X52370211Y-21607331D01*
X52301000Y-21259384D01*
X52301000Y-20904616D01*
X52370211Y-20556669D01*
X52505974Y-20228908D01*
X52703072Y-19933930D01*
X52953930Y-19683072D01*
X53248908Y-19485974D01*
X53576669Y-19350211D01*
X53924616Y-19281000D01*
X54279384Y-19281000D01*
X54627331Y-19350211D01*
G37*
G36*
X168927331Y-19350211D02*
G01*
X169255092Y-19485974D01*
X169550070Y-19683072D01*
X169800928Y-19933930D01*
X169998026Y-20228908D01*
X170133789Y-20556669D01*
X170203000Y-20904616D01*
X170203000Y-21259384D01*
X170133789Y-21607331D01*
X169998026Y-21935092D01*
X169800928Y-22230070D01*
X169550070Y-22480928D01*
X169255092Y-22678026D01*
X168927331Y-22813789D01*
X168579384Y-22883000D01*
X168224616Y-22883000D01*
X167876669Y-22813789D01*
X167548908Y-22678026D01*
X167253930Y-22480928D01*
X167003072Y-22230070D01*
X166805974Y-21935092D01*
X166670211Y-21607331D01*
X166601000Y-21259384D01*
X166601000Y-20904616D01*
X166670211Y-20556669D01*
X166805974Y-20228908D01*
X167003072Y-19933930D01*
X167253930Y-19683072D01*
X167548908Y-19485974D01*
X167876669Y-19350211D01*
X168224616Y-19281000D01*
X168579384Y-19281000D01*
X168927331Y-19350211D01*
G37*
M02*
