M48
; DRILL file {KiCad 6.0.8-f2edbf62ab~116~ubuntu20.04.1} date mar. 15 nov. 2022 13:36:38
; FORMAT={-:-/ absolute / inch / decimal}
; #@! TF.CreationDate,2022-11-15T13:36:38+01:00
; #@! TF.GenerationSoftware,Kicad,Pcbnew,6.0.8-f2edbf62ab~116~ubuntu20.04.1
; #@! TF.FileFunction,Plated,1,2,PTH
FMAT,2
INCH
; #@! TA.AperFunction,Plated,PTH,ComponentDrill
T1C0.0315
; #@! TA.AperFunction,Plated,PTH,ComponentDrill
T2C0.0394
; #@! TA.AperFunction,Plated,PTH,ComponentDrill
T3C0.0433
; #@! TA.AperFunction,Plated,PTH,ComponentDrill
T4C0.0472
; #@! TA.AperFunction,Plated,PTH,ComponentDrill
T5C0.0512
; #@! TA.AperFunction,Plated,PTH,ComponentDrill
T6C0.0669
%
G90
G05
T1
X1.84Y-1.7
X1.84Y-1.8
X1.84Y-1.9
X1.84Y-2.0
X1.84Y-2.1
X1.84Y-2.2
X1.84Y-2.3
X1.84Y-2.4
X2.11Y-1.12
X2.11Y-1.32
X2.14Y-1.7
X2.14Y-1.8
X2.14Y-1.9
X2.14Y-2.0
X2.14Y-2.1
X2.14Y-2.2
X2.14Y-2.3
X2.14Y-2.4
X2.975Y-3.25
X3.025Y-2.125
X3.4Y-3.25
X3.425Y-2.125
X3.95Y-3.25
X4.0Y-2.125
X4.4Y-3.25
X4.475Y-2.125
X4.975Y-2.125
X4.975Y-3.25
X5.3Y-3.25
X5.45Y-2.125
X5.96Y-3.26
X6.0Y-2.125
X6.31Y-3.26
X6.4Y-2.125
T2
X1.82Y-3.365
X1.82Y-3.465
X1.82Y-3.565
X1.82Y-3.665
X1.82Y-3.765
X1.82Y-3.865
X1.83Y-1.01
X1.83Y-1.11
X1.83Y-1.21
X1.83Y-1.31
X1.83Y-1.41
X1.83Y-1.51
X1.92Y-3.365
X1.92Y-3.465
X1.92Y-3.565
X1.92Y-3.665
X1.92Y-3.765
X1.92Y-3.865
X1.93Y-1.01
X1.93Y-1.11
X1.93Y-1.21
X1.93Y-1.31
X1.93Y-1.41
X1.93Y-1.51
T3
X2.7741Y-1.3
X2.7741Y-1.4772
X2.7741Y-2.4228
X2.7741Y-2.6
X3.03Y-1.3
X3.03Y-1.4772
X3.03Y-2.4228
X3.03Y-2.6
X3.7741Y-1.3
X3.7741Y-1.4772
X3.7741Y-2.4228
X3.7741Y-2.6
X4.03Y-1.3
X4.03Y-1.4772
X4.03Y-2.4228
X4.03Y-2.6
X4.7741Y-1.3
X4.7741Y-1.4772
X4.775Y-2.425
X4.775Y-2.6022
X5.03Y-1.3
X5.03Y-1.4772
X5.0309Y-2.425
X5.0309Y-2.6022
X5.7741Y-1.3
X5.7741Y-1.4772
X5.7741Y-2.425
X5.7741Y-2.6022
X6.03Y-1.3
X6.03Y-1.4772
X6.03Y-2.425
X6.03Y-2.6022
T4
X2.4Y-0.9063
X2.4Y-3.8
X2.5378Y-3.8
X2.9465Y-0.9063
X2.9465Y-3.8
X3.0843Y-3.8
X3.4965Y-0.9063
X3.4965Y-3.8
X3.6343Y-3.8
X4.0465Y-0.9063
X4.0465Y-3.8
X4.1843Y-3.8
X4.5965Y-0.9063
X4.5965Y-3.8
X4.7343Y-3.8
X5.1465Y-0.9063
X5.1465Y-3.8
X5.2843Y-3.8
X5.6965Y-0.9063
X5.6965Y-3.8
X5.8343Y-3.8
X6.2465Y-0.9063
X6.2465Y-3.8
X6.3843Y-3.8
T5
X2.7063Y-2.25
X2.7063Y-3.37
X2.9031Y-2.25
X2.9031Y-3.37
X3.1Y-2.25
X3.1Y-3.37
X3.7063Y-2.25
X3.7063Y-3.37
X3.9031Y-2.25
X3.9031Y-3.37
X4.1Y-2.25
X4.1Y-3.37
X4.7063Y-2.25
X4.7063Y-3.37
X4.9031Y-2.25
X4.9031Y-3.37
X5.1Y-2.25
X5.1Y-3.37
X5.7063Y-2.25
X5.7063Y-3.37
X5.9031Y-2.25
X5.9031Y-3.37
X6.1Y-2.25
X6.1Y-3.37
T6
X2.3035Y-1.1169
X2.3035Y-3.5894
X2.6343Y-1.0697
X2.6343Y-3.6366
X2.85Y-1.1169
X2.85Y-3.5894
X3.1807Y-1.0697
X3.1807Y-3.6366
X3.4Y-1.1169
X3.4Y-3.5894
X3.7307Y-1.0697
X3.7307Y-3.6366
X3.95Y-1.1169
X3.95Y-3.5894
X4.2807Y-1.0697
X4.2807Y-3.6366
X4.5Y-1.1169
X4.5Y-3.5894
X4.8307Y-1.0697
X4.8307Y-3.6366
X5.05Y-1.1169
X5.05Y-3.5894
X5.3807Y-1.0697
X5.3807Y-3.6366
X5.6Y-1.1169
X5.6Y-3.5894
X5.9307Y-1.0697
X5.9307Y-3.6366
X6.15Y-1.1169
X6.15Y-3.5894
X6.4807Y-1.0697
X6.4807Y-3.6366
T0
M30
