G04 #@! TF.GenerationSoftware,KiCad,Pcbnew,5.1.5+dfsg1-2build2*
G04 #@! TF.CreationDate,2022-10-18T14:32:14+02:00*
G04 #@! TF.ProjectId,controllerBoard,636f6e74-726f-46c6-9c65-72426f617264,rev?*
G04 #@! TF.SameCoordinates,Original*
G04 #@! TF.FileFunction,Copper,L1,Top*
G04 #@! TF.FilePolarity,Positive*
%FSLAX46Y46*%
G04 Gerber Fmt 4.6, Leading zero omitted, Abs format (unit mm)*
G04 Created by KiCad (PCBNEW 5.1.5+dfsg1-2build2) date 2022-10-18 14:32:14*
%MOMM*%
%LPD*%
G04 APERTURE LIST*
%ADD10R,1.700000X1.700000*%
%ADD11O,1.700000X1.700000*%
%ADD12R,1.750000X1.750000*%
%ADD13C,1.750000*%
%ADD14C,2.700000*%
%ADD15O,1.600000X1.600000*%
%ADD16C,1.600000*%
%ADD17C,2.000000*%
%ADD18C,2.340000*%
%ADD19R,2.400000X1.600000*%
%ADD20O,2.400000X1.600000*%
%ADD21C,0.250000*%
%ADD22C,0.450000*%
%ADD23C,0.650000*%
G04 APERTURE END LIST*
D10*
X49022000Y-25654000D03*
D11*
X46482000Y-25654000D03*
X49022000Y-28194000D03*
X46482000Y-28194000D03*
X49022000Y-30734000D03*
X46482000Y-30734000D03*
X49022000Y-33274000D03*
X46482000Y-33274000D03*
X49022000Y-35814000D03*
X46482000Y-35814000D03*
X49022000Y-38354000D03*
X46482000Y-38354000D03*
D12*
X116750000Y-96520000D03*
D13*
X120250000Y-96520000D03*
X116750000Y-23020000D03*
D14*
X114300000Y-91170000D03*
X114300000Y-28370000D03*
X122700000Y-92370000D03*
X122700000Y-27170000D03*
D12*
X102780000Y-96520000D03*
D13*
X106280000Y-96520000D03*
X102780000Y-23020000D03*
D14*
X100330000Y-91170000D03*
X100330000Y-28370000D03*
X108730000Y-92370000D03*
X108730000Y-27170000D03*
D12*
X74840000Y-96520000D03*
D13*
X78340000Y-96520000D03*
X74840000Y-23020000D03*
D14*
X72390000Y-91170000D03*
X72390000Y-28370000D03*
X80790000Y-92370000D03*
X80790000Y-27170000D03*
D12*
X88810000Y-96520000D03*
D13*
X92310000Y-96520000D03*
X88810000Y-23020000D03*
D14*
X86360000Y-91170000D03*
X86360000Y-28370000D03*
X94760000Y-92370000D03*
X94760000Y-27170000D03*
D12*
X144690000Y-96520000D03*
D13*
X148190000Y-96520000D03*
X144690000Y-23020000D03*
D14*
X142240000Y-91170000D03*
X142240000Y-28370000D03*
X150640000Y-92370000D03*
X150640000Y-27170000D03*
D12*
X130720000Y-96520000D03*
D13*
X134220000Y-96520000D03*
X130720000Y-23020000D03*
D14*
X128270000Y-91170000D03*
X128270000Y-28370000D03*
X136670000Y-92370000D03*
X136670000Y-27170000D03*
D12*
X158660000Y-96520000D03*
D13*
X162160000Y-96520000D03*
X158660000Y-23020000D03*
D14*
X156210000Y-91170000D03*
X156210000Y-28370000D03*
X164610000Y-92370000D03*
X164610000Y-27170000D03*
D15*
X138430000Y-53975000D03*
D16*
X126365000Y-53975000D03*
D15*
X160274000Y-82804000D03*
D16*
X151384000Y-82804000D03*
D15*
X134620000Y-82550000D03*
D16*
X126365000Y-82550000D03*
D15*
X111760000Y-82550000D03*
D16*
X100330000Y-82550000D03*
D15*
X86360000Y-82550000D03*
D16*
X75565000Y-82550000D03*
D15*
X162560000Y-53975000D03*
D16*
X152400000Y-53975000D03*
D15*
X113665000Y-53975000D03*
D16*
X101600000Y-53975000D03*
D15*
X86995000Y-53975000D03*
D16*
X76835000Y-53975000D03*
D17*
X153162000Y-61595000D03*
X153162000Y-66095000D03*
X146662000Y-61595000D03*
X146662000Y-66095000D03*
X127785000Y-61595000D03*
X127785000Y-66095000D03*
X121285000Y-61595000D03*
X121285000Y-66095000D03*
X102362000Y-61540000D03*
X102362000Y-66040000D03*
X95862000Y-61540000D03*
X95862000Y-66040000D03*
X76962000Y-61540000D03*
X76962000Y-66040000D03*
X70462000Y-61540000D03*
X70462000Y-66040000D03*
D18*
X104140000Y-57150000D03*
X99140000Y-57150000D03*
X94140000Y-57150000D03*
X78740000Y-57150000D03*
X73740000Y-57150000D03*
X68740000Y-57150000D03*
D17*
X146662000Y-37520000D03*
X146662000Y-33020000D03*
X153162000Y-37520000D03*
X153162000Y-33020000D03*
X127762000Y-33020000D03*
X127762000Y-37520000D03*
X121262000Y-33020000D03*
X121262000Y-37520000D03*
X102362000Y-33020000D03*
X102362000Y-37520000D03*
X95862000Y-33020000D03*
X95862000Y-37520000D03*
X76962000Y-33020000D03*
X76962000Y-37520000D03*
X70462000Y-33020000D03*
X70462000Y-37520000D03*
D18*
X119540000Y-85598000D03*
X124540000Y-85598000D03*
X129540000Y-85598000D03*
X104140000Y-85598000D03*
X99140000Y-85598000D03*
X94140000Y-85598000D03*
X78740000Y-85598000D03*
X73740000Y-85598000D03*
X68740000Y-85598000D03*
X154940000Y-85598000D03*
X149940000Y-85598000D03*
X144940000Y-85598000D03*
X154940000Y-57150000D03*
X149940000Y-57150000D03*
X144940000Y-57150000D03*
X129540000Y-57150000D03*
X124540000Y-57150000D03*
X119540000Y-57150000D03*
D12*
X60960000Y-96520000D03*
D13*
X64460000Y-96520000D03*
X60960000Y-23020000D03*
D14*
X58510000Y-91170000D03*
X58510000Y-28370000D03*
X66910000Y-92370000D03*
X66910000Y-27170000D03*
D16*
X53594000Y-28448000D03*
X53594000Y-33528000D03*
D19*
X46736000Y-43180000D03*
D20*
X54356000Y-60960000D03*
X46736000Y-45720000D03*
X54356000Y-58420000D03*
X46736000Y-48260000D03*
X54356000Y-55880000D03*
X46736000Y-50800000D03*
X54356000Y-53340000D03*
X46736000Y-53340000D03*
X54356000Y-50800000D03*
X46736000Y-55880000D03*
X54356000Y-48260000D03*
X46736000Y-58420000D03*
X54356000Y-45720000D03*
X46736000Y-60960000D03*
X54356000Y-43180000D03*
D10*
X46228000Y-85471000D03*
D11*
X48768000Y-85471000D03*
X46228000Y-88011000D03*
X48768000Y-88011000D03*
X46228000Y-90551000D03*
X48768000Y-90551000D03*
X46228000Y-93091000D03*
X48768000Y-93091000D03*
X46228000Y-95631000D03*
X48768000Y-95631000D03*
X46228000Y-98171000D03*
X48768000Y-98171000D03*
D21*
X44196000Y-25654000D02*
X44196000Y-33528000D01*
X45974000Y-23876000D02*
X44196000Y-25654000D01*
X46228000Y-64516000D02*
X46228000Y-85471000D01*
X43434000Y-61722000D02*
X46228000Y-64516000D01*
X48344000Y-23876000D02*
X45974000Y-23876000D01*
X44196000Y-33528000D02*
X43434000Y-34290000D01*
X49022000Y-24554000D02*
X48344000Y-23876000D01*
X43434000Y-34290000D02*
X43434000Y-61722000D01*
X49022000Y-25654000D02*
X49022000Y-24554000D01*
D22*
X60960000Y-23020000D02*
X60546000Y-23020000D01*
D23*
X46482000Y-38354000D02*
X49022000Y-38354000D01*
D22*
X60292000Y-23020000D02*
X60960000Y-23020000D01*
X55880000Y-28702000D02*
X55880000Y-27432000D01*
X55880000Y-27432000D02*
X60292000Y-23020000D01*
X51308000Y-33274000D02*
X55880000Y-28702000D01*
X51308000Y-36830000D02*
X51308000Y-33274000D01*
X49784000Y-38354000D02*
X51308000Y-36830000D01*
D23*
X60960000Y-95195000D02*
X61667000Y-94488000D01*
X65532000Y-94488000D02*
X67564000Y-96520000D01*
X67564000Y-96520000D02*
X74840000Y-96520000D01*
X61667000Y-94488000D02*
X65532000Y-94488000D01*
X60960000Y-96520000D02*
X60960000Y-95195000D01*
X64930000Y-60960000D02*
X68740000Y-57150000D01*
X55118000Y-60960000D02*
X64930000Y-60960000D01*
X57150000Y-58928000D02*
X55118000Y-60960000D01*
X57150000Y-50292000D02*
X57150000Y-58928000D01*
X55118000Y-48260000D02*
X57150000Y-50292000D01*
X53848000Y-48260000D02*
X55118000Y-48260000D01*
D21*
X47498000Y-43180000D02*
X46228000Y-43180000D01*
X49276000Y-41402000D02*
X47498000Y-43180000D01*
X54699360Y-41402000D02*
X49276000Y-41402000D01*
X58636360Y-37465000D02*
X54699360Y-41402000D01*
X69795000Y-37465000D02*
X58636360Y-37465000D01*
X69850000Y-37520000D02*
X69795000Y-37465000D01*
X47678000Y-45720000D02*
X46228000Y-45720000D01*
X51562000Y-49604000D02*
X47678000Y-45720000D01*
X51562000Y-66167000D02*
X51562000Y-49604000D01*
X52705000Y-67310000D02*
X51562000Y-66167000D01*
X69192000Y-67310000D02*
X52705000Y-67310000D01*
X70462000Y-66040000D02*
X69192000Y-67310000D01*
X45465998Y-40894002D02*
X44934033Y-41425967D01*
X54500238Y-40894002D02*
X45465998Y-40894002D01*
X44934033Y-41425967D02*
X44934033Y-46966033D01*
X44934033Y-46966033D02*
X46228000Y-48260000D01*
X94156000Y-35814000D02*
X59580242Y-35814000D01*
X59580242Y-35814000D02*
X54500238Y-40894002D01*
X95862000Y-37520000D02*
X94156000Y-35814000D01*
X47678000Y-50800000D02*
X46228000Y-50800000D01*
X64262000Y-80010000D02*
X50800000Y-66548000D01*
X50800000Y-53922000D02*
X47678000Y-50800000D01*
X81407000Y-80010000D02*
X64262000Y-80010000D01*
X50800000Y-66548000D02*
X50800000Y-53922000D01*
X86995000Y-74422000D02*
X81407000Y-80010000D01*
X86995000Y-70485000D02*
X86995000Y-74422000D01*
X91440000Y-66040000D02*
X86995000Y-70485000D01*
X95862000Y-66040000D02*
X91440000Y-66040000D01*
X118921000Y-35179000D02*
X59508120Y-35179000D01*
X59508120Y-35179000D02*
X54293127Y-40393991D01*
X54293127Y-40393991D02*
X45258887Y-40393991D01*
X45258887Y-40393991D02*
X44434022Y-41218856D01*
X121262000Y-37520000D02*
X118921000Y-35179000D01*
X44434022Y-51546022D02*
X46228000Y-53340000D01*
X44434022Y-41218856D02*
X44434022Y-51546022D01*
X50038000Y-67691000D02*
X50038000Y-58240000D01*
X62872989Y-80525989D02*
X50038000Y-67691000D01*
X106926011Y-80525989D02*
X62872989Y-80525989D01*
X111760000Y-75692000D02*
X106926011Y-80525989D01*
X47678000Y-55880000D02*
X46228000Y-55880000D01*
X111760000Y-68453000D02*
X111760000Y-75692000D01*
X50038000Y-58240000D02*
X47678000Y-55880000D01*
X114118000Y-66095000D02*
X111760000Y-68453000D01*
X121285000Y-66095000D02*
X114118000Y-66095000D01*
X43934011Y-41011745D02*
X43934011Y-56126011D01*
X43934011Y-56126011D02*
X46228000Y-58420000D01*
X45051776Y-39893980D02*
X43934011Y-41011745D01*
X59435997Y-34544000D02*
X54086016Y-39893980D01*
X54086016Y-39893980D02*
X45051776Y-39893980D01*
X143686000Y-34544000D02*
X59435997Y-34544000D01*
X146662000Y-37520000D02*
X143686000Y-34544000D01*
X61341000Y-81026000D02*
X47752000Y-67437000D01*
X137541000Y-76327000D02*
X132842000Y-81026000D01*
X137541000Y-69596000D02*
X137541000Y-76327000D01*
X47752000Y-67437000D02*
X47752000Y-65278000D01*
X140970000Y-66167000D02*
X137541000Y-69596000D01*
X146590000Y-66167000D02*
X140970000Y-66167000D01*
X132842000Y-81026000D02*
X61341000Y-81026000D01*
X146662000Y-66095000D02*
X146590000Y-66167000D01*
X47752000Y-65278000D02*
X47752000Y-64262000D01*
X47752000Y-64516000D02*
X47752000Y-64262000D01*
X46482000Y-60960000D02*
X46228000Y-60960000D01*
X47752000Y-62230000D02*
X46482000Y-60960000D01*
X47752000Y-64262000D02*
X47752000Y-62230000D01*
M02*
