%TF.GenerationSoftware,KiCad,Pcbnew,9.0.8-9.0.8~ubuntu24.04.1*%
%TF.CreationDate,2026-04-21T09:31:54+02:00*%
%TF.ProjectId,TheLine_parametric,5468654c-696e-4655-9f70-6172616d6574,rev?*%
%TF.SameCoordinates,Original*%
%TF.FileFunction,Paste,Top*%
%TF.FilePolarity,Positive*%
%FSLAX46Y46*%
G04 Gerber Fmt 4.6, Leading zero omitted, Abs format (unit mm)*
G04 Created by KiCad (PCBNEW 9.0.8-9.0.8~ubuntu24.04.1) date 2026-04-21 09:31:54*
%MOMM*%
%LPD*%
G01*
G04 APERTURE LIST*
G04 Aperture macros list*
%AMRoundRect*
0 Rectangle with rounded corners*
0 $1 Rounding radius*
0 $2 $3 $4 $5 $6 $7 $8 $9 X,Y pos of 4 corners*
0 Add a 4 corners polygon primitive as box body*
4,1,4,$2,$3,$4,$5,$6,$7,$8,$9,$2,$3,0*
0 Add four circle primitives for the rounded corners*
1,1,$1+$1,$2,$3*
1,1,$1+$1,$4,$5*
1,1,$1+$1,$6,$7*
1,1,$1+$1,$8,$9*
0 Add four rect primitives between the rounded corners*
20,1,$1+$1,$2,$3,$4,$5,0*
20,1,$1+$1,$4,$5,$6,$7,0*
20,1,$1+$1,$6,$7,$8,$9,0*
20,1,$1+$1,$8,$9,$2,$3,0*%
G04 Aperture macros list end*
%ADD10RoundRect,0.250000X0.250000X0.475000X-0.250000X0.475000X-0.250000X-0.475000X0.250000X-0.475000X0*%
%ADD11RoundRect,0.250000X0.625000X-0.312500X0.625000X0.312500X-0.625000X0.312500X-0.625000X-0.312500X0*%
%ADD12RoundRect,0.250000X-0.250000X-0.475000X0.250000X-0.475000X0.250000X0.475000X-0.250000X0.475000X0*%
%ADD13RoundRect,0.250000X-0.625000X0.312500X-0.625000X-0.312500X0.625000X-0.312500X0.625000X0.312500X0*%
%ADD14RoundRect,0.250000X-0.312500X-0.625000X0.312500X-0.625000X0.312500X0.625000X-0.312500X0.625000X0*%
%ADD15RoundRect,0.125000X-0.125000X-0.125000X0.125000X-0.125000X0.125000X0.125000X-0.125000X0.125000X0*%
%ADD16RoundRect,0.062500X-0.350000X-0.062500X0.350000X-0.062500X0.350000X0.062500X-0.350000X0.062500X0*%
%ADD17RoundRect,0.062500X-0.062500X-0.350000X0.062500X-0.350000X0.062500X0.350000X-0.062500X0.350000X0*%
%ADD18RoundRect,0.250000X0.475000X-0.250000X0.475000X0.250000X-0.475000X0.250000X-0.475000X-0.250000X0*%
%ADD19RoundRect,0.218750X-0.381250X0.218750X-0.381250X-0.218750X0.381250X-0.218750X0.381250X0.218750X0*%
%ADD20RoundRect,0.250000X-0.475000X0.250000X-0.475000X-0.250000X0.475000X-0.250000X0.475000X0.250000X0*%
%ADD21R,0.450000X1.475000*%
%ADD22RoundRect,0.250000X0.312500X0.625000X-0.312500X0.625000X-0.312500X-0.625000X0.312500X-0.625000X0*%
%ADD23RoundRect,0.218750X0.218750X0.256250X-0.218750X0.256250X-0.218750X-0.256250X0.218750X-0.256250X0*%
G04 APERTURE END LIST*
D10*
%TO.C,C24*%
X661244571Y-132588000D03*
X659344571Y-132588000D03*
%TD*%
D11*
%TO.C,R13*%
X57962400Y-78572100D03*
X57962400Y-75647100D03*
%TD*%
D12*
%TO.C,C11*%
X302887428Y-132510000D03*
X304787428Y-132510000D03*
%TD*%
D13*
%TO.C,R12*%
X56387600Y-80320700D03*
X56387600Y-83245700D03*
%TD*%
D10*
%TO.C,C9*%
X296437428Y-129910000D03*
X294537428Y-129910000D03*
%TD*%
D14*
%TO.C,R9*%
X68037500Y-59000000D03*
X70962500Y-59000000D03*
%TD*%
D10*
%TO.C,C25*%
X776666286Y-130779000D03*
X774766286Y-130779000D03*
%TD*%
D15*
%TO.C,U3*%
X176998214Y-126433500D03*
X176998214Y-127053500D03*
X177618214Y-126433500D03*
X177618214Y-127053500D03*
D16*
X175870714Y-125993500D03*
X175870714Y-126493500D03*
X175870714Y-126993500D03*
X175870714Y-127493500D03*
D17*
X176558214Y-128181000D03*
X177058214Y-128181000D03*
X177558214Y-128181000D03*
X178058214Y-128181000D03*
D16*
X178745714Y-127493500D03*
X178745714Y-126993500D03*
X178745714Y-126493500D03*
X178745714Y-125993500D03*
D17*
X178058214Y-125306000D03*
X177558214Y-125306000D03*
X177058214Y-125306000D03*
X176558214Y-125306000D03*
%TD*%
D10*
%TO.C,C16*%
X421272713Y-132588000D03*
X419372713Y-132588000D03*
%TD*%
%TO.C,C30*%
X896792000Y-133364000D03*
X894892000Y-133364000D03*
%TD*%
%TO.C,C5*%
X176645714Y-129993500D03*
X174745714Y-129993500D03*
%TD*%
D18*
%TO.C,C37*%
X56343601Y-113266782D03*
X56343601Y-111366782D03*
%TD*%
D13*
%TO.C,R14*%
X60661601Y-97846148D03*
X60661601Y-100771148D03*
%TD*%
%TO.C,R10*%
X60502400Y-75647100D03*
X60502400Y-78572100D03*
%TD*%
D12*
%TO.C,C15*%
X423272713Y-132588000D03*
X425172713Y-132588000D03*
%TD*%
D10*
%TO.C,C8*%
X181095714Y-132593500D03*
X179195714Y-132593500D03*
%TD*%
D15*
%TO.C,U5*%
X417175213Y-126428000D03*
X417175213Y-127048000D03*
X417795213Y-126428000D03*
X417795213Y-127048000D03*
D16*
X416047713Y-125988000D03*
X416047713Y-126488000D03*
X416047713Y-126988000D03*
X416047713Y-127488000D03*
D17*
X416735213Y-128175500D03*
X417235213Y-128175500D03*
X417735213Y-128175500D03*
X418235213Y-128175500D03*
D16*
X418922713Y-127488000D03*
X418922713Y-126988000D03*
X418922713Y-126488000D03*
X418922713Y-125988000D03*
D17*
X418235213Y-125300500D03*
X417735213Y-125300500D03*
X417235213Y-125300500D03*
X416735213Y-125300500D03*
%TD*%
D10*
%TO.C,C12*%
X300887428Y-132510000D03*
X298987428Y-132510000D03*
%TD*%
D15*
%TO.C,U8*%
X777018786Y-126428000D03*
X777018786Y-127048000D03*
X777638786Y-126428000D03*
X777638786Y-127048000D03*
D16*
X775891286Y-125988000D03*
X775891286Y-126488000D03*
X775891286Y-126988000D03*
X775891286Y-127488000D03*
D17*
X776578786Y-128175500D03*
X777078786Y-128175500D03*
X777578786Y-128175500D03*
X778078786Y-128175500D03*
D16*
X778766286Y-127488000D03*
X778766286Y-126988000D03*
X778766286Y-126488000D03*
X778766286Y-125988000D03*
D17*
X778078786Y-125300500D03*
X777578786Y-125300500D03*
X777078786Y-125300500D03*
X776578786Y-125300500D03*
%TD*%
D10*
%TO.C,C6*%
X176645714Y-132293500D03*
X174745714Y-132293500D03*
%TD*%
%TO.C,C18*%
X536668856Y-132856000D03*
X534768856Y-132856000D03*
%TD*%
D19*
%TO.C,FB3*%
X180745714Y-128631000D03*
X180745714Y-130756000D03*
%TD*%
%TO.C,FB8*%
X423422713Y-128588000D03*
X423422713Y-130713000D03*
%TD*%
D13*
%TO.C,R5*%
X773840286Y-135443500D03*
X773840286Y-138368500D03*
%TD*%
%TO.C,R6*%
X773840286Y-125537500D03*
X773840286Y-128462500D03*
%TD*%
D19*
%TO.C,FB12*%
X663394571Y-128588000D03*
X663394571Y-130713000D03*
%TD*%
D13*
%TO.C,R7*%
X893712000Y-135443500D03*
X893712000Y-138368500D03*
%TD*%
D15*
%TO.C,U2*%
X57860000Y-127897400D03*
X57860000Y-128517400D03*
X58480000Y-127897400D03*
X58480000Y-128517400D03*
D16*
X56732500Y-127457400D03*
X56732500Y-127957400D03*
X56732500Y-128457400D03*
X56732500Y-128957400D03*
D17*
X57420000Y-129644900D03*
X57920000Y-129644900D03*
X58420000Y-129644900D03*
X58920000Y-129644900D03*
D16*
X59607500Y-128957400D03*
X59607500Y-128457400D03*
X59607500Y-127957400D03*
X59607500Y-127457400D03*
D17*
X58920000Y-126769900D03*
X58420000Y-126769900D03*
X57920000Y-126769900D03*
X57420000Y-126769900D03*
%TD*%
D11*
%TO.C,R3*%
X653968571Y-138368500D03*
X653968571Y-135443500D03*
%TD*%
D20*
%TO.C,C39*%
X55561069Y-98536050D03*
X55561069Y-100436050D03*
%TD*%
D12*
%TO.C,C7*%
X183095714Y-132593500D03*
X184995714Y-132593500D03*
%TD*%
D19*
%TO.C,FB9*%
X540768856Y-128625500D03*
X540768856Y-130750500D03*
%TD*%
%TO.C,FB7*%
X420922713Y-128625500D03*
X420922713Y-130750500D03*
%TD*%
D18*
%TO.C,C36*%
X56387600Y-87036000D03*
X56387600Y-85136000D03*
%TD*%
D21*
%TO.C,IC2*%
X60366601Y-102854155D03*
X59716601Y-102854155D03*
X59066601Y-102854155D03*
X58416601Y-102854155D03*
X58416601Y-108730155D03*
X59066601Y-108730155D03*
X59716601Y-108730155D03*
X60366601Y-108730155D03*
%TD*%
D10*
%TO.C,C38*%
X61154401Y-113620701D03*
X59254401Y-113620701D03*
%TD*%
D13*
%TO.C,R2*%
X533588856Y-125537500D03*
X533588856Y-128462500D03*
%TD*%
D15*
%TO.C,U9*%
X897144500Y-126428000D03*
X897144500Y-127048000D03*
X897764500Y-126428000D03*
X897764500Y-127048000D03*
D16*
X896017000Y-125988000D03*
X896017000Y-126488000D03*
X896017000Y-126988000D03*
X896017000Y-127488000D03*
D17*
X896704500Y-128175500D03*
X897204500Y-128175500D03*
X897704500Y-128175500D03*
X898204500Y-128175500D03*
D16*
X898892000Y-127488000D03*
X898892000Y-126988000D03*
X898892000Y-126488000D03*
X898892000Y-125988000D03*
D17*
X898204500Y-125300500D03*
X897704500Y-125300500D03*
X897204500Y-125300500D03*
X896704500Y-125300500D03*
%TD*%
D10*
%TO.C,C26*%
X776666286Y-133079000D03*
X774766286Y-133079000D03*
%TD*%
D19*
%TO.C,FB14*%
X783266286Y-128588000D03*
X783266286Y-130713000D03*
%TD*%
%TO.C,FB4*%
X183245714Y-128593500D03*
X183245714Y-130718500D03*
%TD*%
D12*
%TO.C,C31*%
X903242000Y-132588000D03*
X905142000Y-132588000D03*
%TD*%
D19*
%TO.C,FB5*%
X300537428Y-128547500D03*
X300537428Y-130672500D03*
%TD*%
%TO.C,FB6*%
X303037428Y-128510000D03*
X303037428Y-130635000D03*
%TD*%
D18*
%TO.C,C33*%
X56387600Y-90846000D03*
X56387600Y-88946000D03*
%TD*%
D10*
%TO.C,C22*%
X656794571Y-133310000D03*
X654894571Y-133310000D03*
%TD*%
D18*
%TO.C,C40*%
X56292801Y-109223504D03*
X56292801Y-107323504D03*
%TD*%
D12*
%TO.C,C23*%
X663244571Y-132588000D03*
X665144571Y-132588000D03*
%TD*%
D19*
%TO.C,FB11*%
X660894571Y-128625500D03*
X660894571Y-130750500D03*
%TD*%
%TO.C,FB13*%
X780766286Y-128625500D03*
X780766286Y-130750500D03*
%TD*%
D11*
%TO.C,R17*%
X58121601Y-100697010D03*
X58121601Y-97772010D03*
%TD*%
D13*
%TO.C,R16*%
X56362672Y-102453951D03*
X56362672Y-105378951D03*
%TD*%
D10*
%TO.C,C32*%
X901242000Y-132588000D03*
X899342000Y-132588000D03*
%TD*%
D11*
%TO.C,R8*%
X893966000Y-128462500D03*
X893966000Y-125537500D03*
%TD*%
D10*
%TO.C,C2*%
X57507500Y-133757400D03*
X55607500Y-133757400D03*
%TD*%
D15*
%TO.C,U7*%
X657147071Y-126428000D03*
X657147071Y-127048000D03*
X657767071Y-126428000D03*
X657767071Y-127048000D03*
D16*
X656019571Y-125988000D03*
X656019571Y-126488000D03*
X656019571Y-126988000D03*
X656019571Y-127488000D03*
D17*
X656707071Y-128175500D03*
X657207071Y-128175500D03*
X657707071Y-128175500D03*
X658207071Y-128175500D03*
D16*
X658894571Y-127488000D03*
X658894571Y-126988000D03*
X658894571Y-126488000D03*
X658894571Y-125988000D03*
D17*
X658207071Y-125300500D03*
X657707071Y-125300500D03*
X657207071Y-125300500D03*
X656707071Y-125300500D03*
%TD*%
D12*
%TO.C,C3*%
X63957500Y-134057400D03*
X65857500Y-134057400D03*
%TD*%
D19*
%TO.C,FB15*%
X900892000Y-128625500D03*
X900892000Y-130750500D03*
%TD*%
D10*
%TO.C,C17*%
X536668856Y-130556000D03*
X534768856Y-130556000D03*
%TD*%
%TO.C,C21*%
X656794571Y-131010000D03*
X654894571Y-131010000D03*
%TD*%
D12*
%TO.C,C19*%
X543118856Y-132588000D03*
X545018856Y-132588000D03*
%TD*%
D10*
%TO.C,C20*%
X541118856Y-132588000D03*
X539218856Y-132588000D03*
%TD*%
D19*
%TO.C,FB1*%
X61607500Y-130094900D03*
X61607500Y-132219900D03*
%TD*%
D15*
%TO.C,U4*%
X296789928Y-126350000D03*
X296789928Y-126970000D03*
X297409928Y-126350000D03*
X297409928Y-126970000D03*
D16*
X295662428Y-125910000D03*
X295662428Y-126410000D03*
X295662428Y-126910000D03*
X295662428Y-127410000D03*
D17*
X296349928Y-128097500D03*
X296849928Y-128097500D03*
X297349928Y-128097500D03*
X297849928Y-128097500D03*
D16*
X298537428Y-127410000D03*
X298537428Y-126910000D03*
X298537428Y-126410000D03*
X298537428Y-125910000D03*
D17*
X297849928Y-125222500D03*
X297349928Y-125222500D03*
X296849928Y-125222500D03*
X296349928Y-125222500D03*
%TD*%
D19*
%TO.C,FB2*%
X64107500Y-130057400D03*
X64107500Y-132182400D03*
%TD*%
D10*
%TO.C,C1*%
X57507500Y-131457400D03*
X55607500Y-131457400D03*
%TD*%
D19*
%TO.C,FB10*%
X543268856Y-128588000D03*
X543268856Y-130713000D03*
%TD*%
D22*
%TO.C,R11*%
X61668441Y-89034909D03*
X58743441Y-89034909D03*
%TD*%
D13*
%TO.C,R4*%
X653968571Y-125537500D03*
X653968571Y-128462500D03*
%TD*%
D12*
%TO.C,C4*%
X60057500Y-134057400D03*
X61957500Y-134057400D03*
%TD*%
D13*
%TO.C,R1*%
X413295213Y-125283500D03*
X413295213Y-128208500D03*
%TD*%
D10*
%TO.C,C34*%
X61249200Y-91333600D03*
X59349200Y-91333600D03*
%TD*%
D19*
%TO.C,FB16*%
X903392000Y-128588000D03*
X903392000Y-130713000D03*
%TD*%
D10*
%TO.C,C13*%
X416822713Y-130230924D03*
X414922713Y-130230924D03*
%TD*%
D20*
%TO.C,C35*%
X55524000Y-76159600D03*
X55524000Y-78059600D03*
%TD*%
D10*
%TO.C,C28*%
X781116286Y-132588000D03*
X779216286Y-132588000D03*
%TD*%
D23*
%TO.C,D1*%
X76123500Y-59228000D03*
X74548500Y-59228000D03*
%TD*%
D21*
%TO.C,IC1*%
X60309000Y-80674000D03*
X59659000Y-80674000D03*
X59009000Y-80674000D03*
X58359000Y-80674000D03*
X58359000Y-86550000D03*
X59009000Y-86550000D03*
X59659000Y-86550000D03*
X60309000Y-86550000D03*
%TD*%
D12*
%TO.C,C27*%
X783116286Y-132588000D03*
X785016286Y-132588000D03*
%TD*%
D10*
%TO.C,C14*%
X416822713Y-132530924D03*
X414922713Y-132530924D03*
%TD*%
%TO.C,C29*%
X896792000Y-131064000D03*
X894892000Y-131064000D03*
%TD*%
D15*
%TO.C,U6*%
X537021356Y-126428000D03*
X537021356Y-127048000D03*
X537641356Y-126428000D03*
X537641356Y-127048000D03*
D16*
X535893856Y-125988000D03*
X535893856Y-126488000D03*
X535893856Y-126988000D03*
X535893856Y-127488000D03*
D17*
X536581356Y-128175500D03*
X537081356Y-128175500D03*
X537581356Y-128175500D03*
X538081356Y-128175500D03*
D16*
X538768856Y-127488000D03*
X538768856Y-126988000D03*
X538768856Y-126488000D03*
X538768856Y-125988000D03*
D17*
X538081356Y-125300500D03*
X537581356Y-125300500D03*
X537081356Y-125300500D03*
X536581356Y-125300500D03*
%TD*%
D10*
%TO.C,C10*%
X296437428Y-132210000D03*
X294537428Y-132210000D03*
%TD*%
D22*
%TO.C,R15*%
X61616101Y-111415993D03*
X58691101Y-111415993D03*
%TD*%
M02*
