%TF.GenerationSoftware,KiCad,Pcbnew,9.0.8-9.0.8~ubuntu24.04.1*%
%TF.CreationDate,2026-04-21T09:31:54+02:00*%
%TF.ProjectId,TheLine_parametric,5468654c-696e-4655-9f70-6172616d6574,rev?*%
%TF.SameCoordinates,Original*%
%TF.FileFunction,Copper,L1,Top*%
%TF.FilePolarity,Positive*%
%FSLAX46Y46*%
G04 Gerber Fmt 4.6, Leading zero omitted, Abs format (unit mm)*
G04 Created by KiCad (PCBNEW 9.0.8-9.0.8~ubuntu24.04.1) date 2026-04-21 09:31:54*
%MOMM*%
%LPD*%
G01*
G04 APERTURE LIST*
G04 Aperture macros list*
%AMRoundRect*
0 Rectangle with rounded corners*
0 $1 Rounding radius*
0 $2 $3 $4 $5 $6 $7 $8 $9 X,Y pos of 4 corners*
0 Add a 4 corners polygon primitive as box body*
4,1,4,$2,$3,$4,$5,$6,$7,$8,$9,$2,$3,0*
0 Add four circle primitives for the rounded corners*
1,1,$1+$1,$2,$3*
1,1,$1+$1,$4,$5*
1,1,$1+$1,$6,$7*
1,1,$1+$1,$8,$9*
0 Add four rect primitives between the rounded corners*
20,1,$1+$1,$2,$3,$4,$5,0*
20,1,$1+$1,$4,$5,$6,$7,0*
20,1,$1+$1,$6,$7,$8,$9,0*
20,1,$1+$1,$8,$9,$2,$3,0*%
G04 Aperture macros list end*
%TA.AperFunction,SMDPad,CuDef*%
%ADD10RoundRect,0.250000X0.250000X0.475000X-0.250000X0.475000X-0.250000X-0.475000X0.250000X-0.475000X0*%
%TD*%
%TA.AperFunction,ComponentPad*%
%ADD11C,3.100000*%
%TD*%
%TA.AperFunction,ConnectorPad*%
%ADD12C,4.700000*%
%TD*%
%TA.AperFunction,ComponentPad*%
%ADD13RoundRect,0.300000X-0.300000X-0.600000X0.300000X-0.600000X0.300000X0.600000X-0.300000X0.600000X0*%
%TD*%
%TA.AperFunction,ComponentPad*%
%ADD14O,1.200000X1.800000*%
%TD*%
%TA.AperFunction,SMDPad,CuDef*%
%ADD15RoundRect,0.250000X0.625000X-0.312500X0.625000X0.312500X-0.625000X0.312500X-0.625000X-0.312500X0*%
%TD*%
%TA.AperFunction,ComponentPad*%
%ADD16C,5.000000*%
%TD*%
%TA.AperFunction,ComponentPad*%
%ADD17R,1.700000X1.700000*%
%TD*%
%TA.AperFunction,ComponentPad*%
%ADD18O,1.700000X1.700000*%
%TD*%
%TA.AperFunction,SMDPad,CuDef*%
%ADD19RoundRect,0.250000X-0.250000X-0.475000X0.250000X-0.475000X0.250000X0.475000X-0.250000X0.475000X0*%
%TD*%
%TA.AperFunction,SMDPad,CuDef*%
%ADD20RoundRect,0.250000X-0.625000X0.312500X-0.625000X-0.312500X0.625000X-0.312500X0.625000X0.312500X0*%
%TD*%
%TA.AperFunction,SMDPad,CuDef*%
%ADD21RoundRect,0.250000X-0.312500X-0.625000X0.312500X-0.625000X0.312500X0.625000X-0.312500X0.625000X0*%
%TD*%
%TA.AperFunction,SMDPad,CuDef*%
%ADD22RoundRect,0.062500X-0.350000X-0.062500X0.350000X-0.062500X0.350000X0.062500X-0.350000X0.062500X0*%
%TD*%
%TA.AperFunction,SMDPad,CuDef*%
%ADD23RoundRect,0.062500X-0.062500X-0.350000X0.062500X-0.350000X0.062500X0.350000X-0.062500X0.350000X0*%
%TD*%
%TA.AperFunction,HeatsinkPad*%
%ADD24R,1.230000X1.230000*%
%TD*%
%TA.AperFunction,SMDPad,CuDef*%
%ADD25RoundRect,0.250000X0.475000X-0.250000X0.475000X0.250000X-0.475000X0.250000X-0.475000X-0.250000X0*%
%TD*%
%TA.AperFunction,SMDPad,CuDef*%
%ADD26RoundRect,0.218750X-0.381250X0.218750X-0.381250X-0.218750X0.381250X-0.218750X0.381250X0.218750X0*%
%TD*%
%TA.AperFunction,SMDPad,CuDef*%
%ADD27RoundRect,0.250000X-0.475000X0.250000X-0.475000X-0.250000X0.475000X-0.250000X0.475000X0.250000X0*%
%TD*%
%TA.AperFunction,SMDPad,CuDef*%
%ADD28R,0.450000X1.475000*%
%TD*%
%TA.AperFunction,SMDPad,CuDef*%
%ADD29RoundRect,0.250000X0.312500X0.625000X-0.312500X0.625000X-0.312500X-0.625000X0.312500X-0.625000X0*%
%TD*%
%TA.AperFunction,SMDPad,CuDef*%
%ADD30RoundRect,0.218750X0.218750X0.256250X-0.218750X0.256250X-0.218750X-0.256250X0.218750X-0.256250X0*%
%TD*%
%TA.AperFunction,ViaPad*%
%ADD31C,0.600000*%
%TD*%
%TA.AperFunction,Conductor*%
%ADD32C,0.254000*%
%TD*%
%TA.AperFunction,Conductor*%
%ADD33C,0.300000*%
%TD*%
%TA.AperFunction,Conductor*%
%ADD34C,0.200000*%
%TD*%
%TA.AperFunction,Conductor*%
%ADD35C,0.400000*%
%TD*%
G04 APERTURE END LIST*
D10*
%TO.P,C24,1*%
%TO.N,/DAC6/OUT+*%
X661244571Y-132588000D03*
%TO.P,C24,2*%
%TO.N,GND*%
X659344571Y-132588000D03*
%TD*%
D11*
%TO.P,REF\u002A\u002A_LS5,1*%
%TO.N,N/C*%
X537149999Y-43195001D03*
D12*
X537149999Y-43195001D03*
%TD*%
D13*
%TO.P,REF\u002A\u002A_LS5,1*%
%TO.N,/DAC5/OUT+*%
X587399999Y-143695001D03*
D14*
%TO.P,REF\u002A\u002A_LS5,2*%
%TO.N,/DAC5/OUT-*%
X589399999Y-143695001D03*
%TD*%
D15*
%TO.P,R13,1*%
%TO.N,/Pin_3_OUT*%
X57962400Y-78572100D03*
%TO.P,R13,2*%
%TO.N,Net-(IC1-Y0)*%
X57962400Y-75647100D03*
%TD*%
D11*
%TO.P,REF\u002A\u002A_LS4,1*%
%TO.N,N/C*%
X417149999Y-146695001D03*
D12*
X417149999Y-146695001D03*
%TD*%
D16*
%TO.P,,1*%
%TO.N,N/C*%
X57150000Y-122174000D03*
%TD*%
D11*
%TO.P,REF\u002A\u002A_LS7,1*%
%TO.N,N/C*%
X777150000Y-146695001D03*
D12*
X777150000Y-146695001D03*
%TD*%
D17*
%TO.P,LS4,1,1*%
%TO.N,/DAC4/OUT+*%
X418399999Y-136245001D03*
D18*
%TO.P,LS4,2,2*%
%TO.N,/DAC4/OUT-*%
X420899999Y-136245001D03*
%TD*%
D16*
%TO.P,,1*%
%TO.N,N/C*%
X65783122Y-122211958D03*
%TD*%
D19*
%TO.P,C11,1*%
%TO.N,/DAC3/OUT-*%
X302887428Y-132510000D03*
%TO.P,C11,2*%
%TO.N,GND*%
X304787428Y-132510000D03*
%TD*%
D20*
%TO.P,R12,1*%
%TO.N,VCC*%
X56387600Y-80320700D03*
%TO.P,R12,2*%
%TO.N,Net-(IC1-1G)*%
X56387600Y-83245700D03*
%TD*%
D10*
%TO.P,C9,1*%
%TO.N,VDD*%
X296437428Y-129910000D03*
%TO.P,C9,2*%
%TO.N,GND*%
X294537428Y-129910000D03*
%TD*%
D21*
%TO.P,R9,1*%
%TO.N,VCC*%
X68037500Y-59000000D03*
%TO.P,R9,2*%
%TO.N,Net-(D1-A)*%
X70962500Y-59000000D03*
%TD*%
D10*
%TO.P,C25,1*%
%TO.N,VDD*%
X776666286Y-130779000D03*
%TO.P,C25,2*%
%TO.N,GND*%
X774766286Y-130779000D03*
%TD*%
D22*
%TO.P,U3,1,DIN*%
%TO.N,DIN*%
X175870714Y-125993500D03*
%TO.P,U3,2,GAIN_SLOT*%
%TO.N,VDD*%
X175870714Y-126493500D03*
%TO.P,U3,3,GND*%
%TO.N,GND*%
X175870714Y-126993500D03*
%TO.P,U3,4,~{SD_MODE}*%
%TO.N,VDD*%
X175870714Y-127493500D03*
D23*
%TO.P,U3,5,NC*%
%TO.N,unconnected-(U3-NC-Pad5)*%
X176558214Y-128181000D03*
%TO.P,U3,6,NC*%
%TO.N,unconnected-(U3-NC-Pad6)*%
X177058214Y-128181000D03*
%TO.P,U3,7,VDD*%
%TO.N,VDD*%
X177558214Y-128181000D03*
%TO.P,U3,8,VDD*%
X178058214Y-128181000D03*
D22*
%TO.P,U3,9,OUTP*%
%TO.N,Net-(U3-OUTP)*%
X178745714Y-127493500D03*
%TO.P,U3,10,OUTN*%
%TO.N,Net-(U3-OUTN)*%
X178745714Y-126993500D03*
%TO.P,U3,11,GND*%
%TO.N,GND*%
X178745714Y-126493500D03*
%TO.P,U3,12,NC*%
%TO.N,unconnected-(U3-NC-Pad12)*%
X178745714Y-125993500D03*
D23*
%TO.P,U3,13,NC*%
%TO.N,unconnected-(U3-NC-Pad13)*%
X178058214Y-125306000D03*
%TO.P,U3,14,LRCLK*%
%TO.N,LRBCLK*%
X177558214Y-125306000D03*
%TO.P,U3,15,GND*%
%TO.N,GND*%
X177058214Y-125306000D03*
%TO.P,U3,16,BCLK*%
%TO.N,BCLK*%
X176558214Y-125306000D03*
D24*
%TO.P,U3,17,PAD*%
%TO.N,unconnected-(U3-PAD-Pad17)*%
X177308214Y-126743500D03*
%TD*%
D13*
%TO.P,REF\u002A\u002A_LS4,1*%
%TO.N,/DAC4/OUT+*%
X467399999Y-143695001D03*
D14*
%TO.P,REF\u002A\u002A_LS4,2*%
%TO.N,/DAC4/OUT-*%
X469399999Y-143695001D03*
%TD*%
D13*
%TO.P,REF\u002A\u002A_LS2,1*%
%TO.N,/DAC2/OUT+*%
X227400000Y-143695001D03*
D14*
%TO.P,REF\u002A\u002A_LS2,2*%
%TO.N,/DAC2/OUT-*%
X229400000Y-143695001D03*
%TD*%
D11*
%TO.P,REF\u002A\u002A_LS1,1*%
%TO.N,N/C*%
X160687492Y-146632283D03*
D12*
X160687492Y-146632283D03*
%TD*%
D11*
%TO.P,REF\u002A\u002A_LS6,1*%
%TO.N,N/C*%
X657150000Y-43195001D03*
D12*
X657150000Y-43195001D03*
%TD*%
D10*
%TO.P,C16,1*%
%TO.N,/DAC4/OUT+*%
X421272713Y-132588000D03*
%TO.P,C16,2*%
%TO.N,GND*%
X419372713Y-132588000D03*
%TD*%
%TO.P,C30,1*%
%TO.N,VDD*%
X896792000Y-133364000D03*
%TO.P,C30,2*%
%TO.N,GND*%
X894892000Y-133364000D03*
%TD*%
%TO.P,C5,1*%
%TO.N,VDD*%
X176645714Y-129993500D03*
%TO.P,C5,2*%
%TO.N,GND*%
X174745714Y-129993500D03*
%TD*%
D17*
%TO.P,LS8,1,1*%
%TO.N,/DAC8/OUT+*%
X898400000Y-136245000D03*
D18*
%TO.P,LS8,2,2*%
%TO.N,/DAC8/OUT-*%
X900900000Y-136245000D03*
%TD*%
D25*
%TO.P,C37,1*%
%TO.N,VCC*%
X56343601Y-113266782D03*
%TO.P,C37,2*%
%TO.N,GND*%
X56343601Y-111366782D03*
%TD*%
D11*
%TO.P,REF\u002A\u002A_LS4,1*%
%TO.N,N/C*%
X417149999Y-43195001D03*
D12*
X417149999Y-43195001D03*
%TD*%
D20*
%TO.P,R14,1*%
%TO.N,/Pin_5*%
X60661601Y-97846148D03*
%TO.P,R14,2*%
%TO.N,Net-(IC2-CLKIN)*%
X60661601Y-100771148D03*
%TD*%
D13*
%TO.P,REF\u002A\u002A_LS7,1*%
%TO.N,/DAC7/OUT+*%
X827400000Y-143695001D03*
D14*
%TO.P,REF\u002A\u002A_LS7,2*%
%TO.N,/DAC7/OUT-*%
X829400000Y-143695001D03*
%TD*%
D11*
%TO.P,REF\u002A\u002A_LS1,1*%
%TO.N,N/C*%
X160650000Y-43195001D03*
D12*
X160650000Y-43195001D03*
%TD*%
D20*
%TO.P,R10,1*%
%TO.N,/Pin_3*%
X60502400Y-75647100D03*
%TO.P,R10,2*%
%TO.N,Net-(IC1-CLKIN)*%
X60502400Y-78572100D03*
%TD*%
D19*
%TO.P,C15,1*%
%TO.N,/DAC4/OUT-*%
X423272713Y-132588000D03*
%TO.P,C15,2*%
%TO.N,GND*%
X425172713Y-132588000D03*
%TD*%
D11*
%TO.P,REF\u002A\u002A_LS3,1*%
%TO.N,N/C*%
X400687491Y-146632283D03*
D12*
X400687491Y-146632283D03*
%TD*%
D10*
%TO.P,C8,1*%
%TO.N,/DAC2/OUT+*%
X181095714Y-132593500D03*
%TO.P,C8,2*%
%TO.N,GND*%
X179195714Y-132593500D03*
%TD*%
D11*
%TO.P,REF\u002A\u002A_LS5,1*%
%TO.N,N/C*%
X537149999Y-146695001D03*
D12*
X537149999Y-146695001D03*
%TD*%
D22*
%TO.P,U5,1,DIN*%
%TO.N,DIN*%
X416047713Y-125988000D03*
%TO.P,U5,2,GAIN_SLOT*%
%TO.N,/DAC4/GAIN*%
X416047713Y-126488000D03*
%TO.P,U5,3,GND*%
%TO.N,GND*%
X416047713Y-126988000D03*
%TO.P,U5,4,~{SD_MODE}*%
%TO.N,VDD*%
X416047713Y-127488000D03*
D23*
%TO.P,U5,5,NC*%
%TO.N,unconnected-(U5-NC-Pad5)*%
X416735213Y-128175500D03*
%TO.P,U5,6,NC*%
%TO.N,unconnected-(U5-NC-Pad6)*%
X417235213Y-128175500D03*
%TO.P,U5,7,VDD*%
%TO.N,VDD*%
X417735213Y-128175500D03*
%TO.P,U5,8,VDD*%
X418235213Y-128175500D03*
D22*
%TO.P,U5,9,OUTP*%
%TO.N,Net-(U5-OUTP)*%
X418922713Y-127488000D03*
%TO.P,U5,10,OUTN*%
%TO.N,Net-(U5-OUTN)*%
X418922713Y-126988000D03*
%TO.P,U5,11,GND*%
%TO.N,GND*%
X418922713Y-126488000D03*
%TO.P,U5,12,NC*%
%TO.N,unconnected-(U5-NC-Pad12)*%
X418922713Y-125988000D03*
D23*
%TO.P,U5,13,NC*%
%TO.N,unconnected-(U5-NC-Pad13)*%
X418235213Y-125300500D03*
%TO.P,U5,14,LRCLK*%
%TO.N,LRBCLK*%
X417735213Y-125300500D03*
%TO.P,U5,15,GND*%
%TO.N,GND*%
X417235213Y-125300500D03*
%TO.P,U5,16,BCLK*%
%TO.N,BCLK*%
X416735213Y-125300500D03*
D24*
%TO.P,U5,17,PAD*%
%TO.N,unconnected-(U5-PAD-Pad17)*%
X417485213Y-126738000D03*
%TD*%
D11*
%TO.P,REF\u002A\u002A_LS5,1*%
%TO.N,N/C*%
X640687491Y-146632283D03*
D12*
X640687491Y-146632283D03*
%TD*%
D10*
%TO.P,C12,1*%
%TO.N,/DAC3/OUT+*%
X300887428Y-132510000D03*
%TO.P,C12,2*%
%TO.N,GND*%
X298987428Y-132510000D03*
%TD*%
D22*
%TO.P,U8,1,DIN*%
%TO.N,DIN*%
X775891286Y-125988000D03*
%TO.P,U8,2,GAIN_SLOT*%
%TO.N,/DAC7/GAIN*%
X775891286Y-126488000D03*
%TO.P,U8,3,GND*%
%TO.N,GND*%
X775891286Y-126988000D03*
%TO.P,U8,4,~{SD_MODE}*%
%TO.N,/DAC7/MODE*%
X775891286Y-127488000D03*
D23*
%TO.P,U8,5,NC*%
%TO.N,unconnected-(U8-NC-Pad5)*%
X776578786Y-128175500D03*
%TO.P,U8,6,NC*%
%TO.N,unconnected-(U8-NC-Pad6)*%
X777078786Y-128175500D03*
%TO.P,U8,7,VDD*%
%TO.N,VDD*%
X777578786Y-128175500D03*
%TO.P,U8,8,VDD*%
X778078786Y-128175500D03*
D22*
%TO.P,U8,9,OUTP*%
%TO.N,Net-(U8-OUTP)*%
X778766286Y-127488000D03*
%TO.P,U8,10,OUTN*%
%TO.N,Net-(U8-OUTN)*%
X778766286Y-126988000D03*
%TO.P,U8,11,GND*%
%TO.N,GND*%
X778766286Y-126488000D03*
%TO.P,U8,12,NC*%
%TO.N,unconnected-(U8-NC-Pad12)*%
X778766286Y-125988000D03*
D23*
%TO.P,U8,13,NC*%
%TO.N,unconnected-(U8-NC-Pad13)*%
X778078786Y-125300500D03*
%TO.P,U8,14,LRCLK*%
%TO.N,LRBCLK*%
X777578786Y-125300500D03*
%TO.P,U8,15,GND*%
%TO.N,GND*%
X777078786Y-125300500D03*
%TO.P,U8,16,BCLK*%
%TO.N,BCLK*%
X776578786Y-125300500D03*
D24*
%TO.P,U8,17,PAD*%
%TO.N,unconnected-(U8-PAD-Pad17)*%
X777328786Y-126738000D03*
%TD*%
D10*
%TO.P,C6,1*%
%TO.N,VDD*%
X176645714Y-132293500D03*
%TO.P,C6,2*%
%TO.N,GND*%
X174745714Y-132293500D03*
%TD*%
D11*
%TO.P,REF\u002A\u002A_LS2,1*%
%TO.N,N/C*%
X177150000Y-43195001D03*
D12*
X177150000Y-43195001D03*
%TD*%
D10*
%TO.P,C18,1*%
%TO.N,VDD*%
X536668856Y-132856000D03*
%TO.P,C18,2*%
%TO.N,GND*%
X534768856Y-132856000D03*
%TD*%
D26*
%TO.P,FB3,1*%
%TO.N,Net-(U3-OUTP)*%
X180745714Y-128631000D03*
%TO.P,FB3,2*%
%TO.N,/DAC2/OUT+*%
X180745714Y-130756000D03*
%TD*%
%TO.P,FB8,1*%
%TO.N,Net-(U5-OUTN)*%
X423422713Y-128588000D03*
%TO.P,FB8,2*%
%TO.N,/DAC4/OUT-*%
X423422713Y-130713000D03*
%TD*%
D20*
%TO.P,R5,1*%
%TO.N,Net-(JP101-B)*%
X773840286Y-135443500D03*
%TO.P,R5,2*%
%TO.N,VDD*%
X773840286Y-138368500D03*
%TD*%
%TO.P,R6,1*%
%TO.N,Net-(JP101-A)*%
X773840286Y-125537500D03*
%TO.P,R6,2*%
%TO.N,VDD*%
X773840286Y-128462500D03*
%TD*%
D13*
%TO.P,REF\u002A\u002A_LS6,1*%
%TO.N,/DAC6/OUT+*%
X707400000Y-143695001D03*
D14*
%TO.P,REF\u002A\u002A_LS6,2*%
%TO.N,/DAC6/OUT-*%
X709400000Y-143695001D03*
%TD*%
D26*
%TO.P,FB12,1*%
%TO.N,Net-(U7-OUTN)*%
X663394571Y-128588000D03*
%TO.P,FB12,2*%
%TO.N,/DAC6/OUT-*%
X663394571Y-130713000D03*
%TD*%
D17*
%TO.P,LS6,1,1*%
%TO.N,/DAC6/OUT+*%
X658400000Y-136245001D03*
D18*
%TO.P,LS6,2,2*%
%TO.N,/DAC6/OUT-*%
X660900000Y-136245001D03*
%TD*%
D16*
%TO.P,,1*%
%TO.N,N/C*%
X65807380Y-64200386D03*
%TD*%
D17*
%TO.P,LS1,1,1*%
%TO.N,/DAC1/OUT+*%
X58400000Y-136245001D03*
D18*
%TO.P,LS1,2,2*%
%TO.N,/DAC1/OUT-*%
X60900000Y-136245001D03*
%TD*%
D20*
%TO.P,R7,1*%
%TO.N,Net-(JP102-B)*%
X893712000Y-135443500D03*
%TO.P,R7,2*%
%TO.N,VDD*%
X893712000Y-138368500D03*
%TD*%
D11*
%TO.P,REF\u002A\u002A_LS8,1*%
%TO.N,N/C*%
X897150000Y-146695000D03*
D12*
X897150000Y-146695000D03*
%TD*%
D22*
%TO.P,U2,1,DIN*%
%TO.N,DIN*%
X56732500Y-127457400D03*
%TO.P,U2,2,GAIN_SLOT*%
%TO.N,GND*%
X56732500Y-127957400D03*
%TO.P,U2,3,GND*%
X56732500Y-128457400D03*
%TO.P,U2,4,~{SD_MODE}*%
%TO.N,VDD*%
X56732500Y-128957400D03*
D23*
%TO.P,U2,5,NC*%
%TO.N,unconnected-(U2-NC-Pad5)*%
X57420000Y-129644900D03*
%TO.P,U2,6,NC*%
%TO.N,unconnected-(U2-NC-Pad6)*%
X57920000Y-129644900D03*
%TO.P,U2,7,VDD*%
%TO.N,VDD*%
X58420000Y-129644900D03*
%TO.P,U2,8,VDD*%
X58920000Y-129644900D03*
D22*
%TO.P,U2,9,OUTP*%
%TO.N,Net-(U2-OUTP)*%
X59607500Y-128957400D03*
%TO.P,U2,10,OUTN*%
%TO.N,Net-(U2-OUTN)*%
X59607500Y-128457400D03*
%TO.P,U2,11,GND*%
%TO.N,GND*%
X59607500Y-127957400D03*
%TO.P,U2,12,NC*%
%TO.N,unconnected-(U2-NC-Pad12)*%
X59607500Y-127457400D03*
D23*
%TO.P,U2,13,NC*%
%TO.N,unconnected-(U2-NC-Pad13)*%
X58920000Y-126769900D03*
%TO.P,U2,14,LRCLK*%
%TO.N,LRBCLK*%
X58420000Y-126769900D03*
%TO.P,U2,15,GND*%
%TO.N,GND*%
X57920000Y-126769900D03*
%TO.P,U2,16,BCLK*%
%TO.N,BCLK*%
X57420000Y-126769900D03*
D24*
%TO.P,U2,17,PAD*%
%TO.N,unconnected-(U2-PAD-Pad17)*%
X58170000Y-128207400D03*
%TD*%
D15*
%TO.P,R3,1*%
%TO.N,Net-(JP100-B)*%
X653968571Y-138368500D03*
%TO.P,R3,2*%
%TO.N,VDD*%
X653968571Y-135443500D03*
%TD*%
D27*
%TO.P,C39,1*%
%TO.N,GND*%
X55561069Y-98536050D03*
%TO.P,C39,2*%
%TO.N,/Pin_5_OUT*%
X55561069Y-100436050D03*
%TD*%
D13*
%TO.P,REF\u002A\u002A_LS8,1*%
%TO.N,/DAC8/OUT+*%
X947400000Y-143695000D03*
D14*
%TO.P,REF\u002A\u002A_LS8,2*%
%TO.N,/DAC8/OUT-*%
X949400000Y-143695000D03*
%TD*%
D19*
%TO.P,C7,1*%
%TO.N,/DAC2/OUT-*%
X183095714Y-132593500D03*
%TO.P,C7,2*%
%TO.N,GND*%
X184995714Y-132593500D03*
%TD*%
D26*
%TO.P,FB9,1*%
%TO.N,Net-(U6-OUTP)*%
X540768856Y-128625500D03*
%TO.P,FB9,2*%
%TO.N,/DAC5/OUT+*%
X540768856Y-130750500D03*
%TD*%
%TO.P,FB7,1*%
%TO.N,Net-(U5-OUTP)*%
X420922713Y-128625500D03*
%TO.P,FB7,2*%
%TO.N,/DAC4/OUT+*%
X420922713Y-130750500D03*
%TD*%
D25*
%TO.P,C36,1*%
%TO.N,GND*%
X56387600Y-87036000D03*
%TO.P,C36,2*%
%TO.N,Net-(IC1-CLKIN)*%
X56387600Y-85136000D03*
%TD*%
D28*
%TO.P,IC2,1,CLKIN*%
%TO.N,Net-(IC2-CLKIN)*%
X60366601Y-102854155D03*
%TO.P,IC2,2,1G*%
%TO.N,Net-(IC2-1G)*%
X59716601Y-102854155D03*
%TO.P,IC2,3,Y0*%
%TO.N,Net-(IC2-Y0)*%
X59066601Y-102854155D03*
%TO.P,IC2,4,GND*%
%TO.N,GND*%
X58416601Y-102854155D03*
%TO.P,IC2,5,NC_1*%
%TO.N,unconnected-(IC2-NC_1-Pad5)*%
X58416601Y-108730155D03*
%TO.P,IC2,6,VDD*%
%TO.N,VCC*%
X59066601Y-108730155D03*
%TO.P,IC2,7,NC_2*%
%TO.N,unconnected-(IC2-NC_2-Pad7)*%
X59716601Y-108730155D03*
%TO.P,IC2,8,Y1*%
%TO.N,Net-(IC2-Y1)*%
X60366601Y-108730155D03*
%TD*%
D11*
%TO.P,REF\u002A\u002A_LS2,1*%
%TO.N,N/C*%
X177150000Y-146695001D03*
D12*
X177150000Y-146695001D03*
%TD*%
D10*
%TO.P,C38,1*%
%TO.N,GND*%
X61154401Y-113620701D03*
%TO.P,C38,2*%
%TO.N,LRBCLK*%
X59254401Y-113620701D03*
%TD*%
D11*
%TO.P,REF\u002A\u002A_LS4,1*%
%TO.N,N/C*%
X520649999Y-43195001D03*
D12*
X520649999Y-43195001D03*
%TD*%
D20*
%TO.P,R2,1*%
%TO.N,/DAC5/GAIN*%
X533588856Y-125537500D03*
%TO.P,R2,2*%
%TO.N,GND*%
X533588856Y-128462500D03*
%TD*%
D22*
%TO.P,U9,1,DIN*%
%TO.N,DIN*%
X896017000Y-125988000D03*
%TO.P,U9,2,GAIN_SLOT*%
%TO.N,VDD*%
X896017000Y-126488000D03*
%TO.P,U9,3,GND*%
%TO.N,GND*%
X896017000Y-126988000D03*
%TO.P,U9,4,~{SD_MODE}*%
%TO.N,/DAC8/MODE*%
X896017000Y-127488000D03*
D23*
%TO.P,U9,5,NC*%
%TO.N,unconnected-(U9-NC-Pad5)*%
X896704500Y-128175500D03*
%TO.P,U9,6,NC*%
%TO.N,unconnected-(U9-NC-Pad6)*%
X897204500Y-128175500D03*
%TO.P,U9,7,VDD*%
%TO.N,VDD*%
X897704500Y-128175500D03*
%TO.P,U9,8,VDD*%
X898204500Y-128175500D03*
D22*
%TO.P,U9,9,OUTP*%
%TO.N,Net-(U9-OUTP)*%
X898892000Y-127488000D03*
%TO.P,U9,10,OUTN*%
%TO.N,Net-(U9-OUTN)*%
X898892000Y-126988000D03*
%TO.P,U9,11,GND*%
%TO.N,GND*%
X898892000Y-126488000D03*
%TO.P,U9,12,NC*%
%TO.N,unconnected-(U9-NC-Pad12)*%
X898892000Y-125988000D03*
D23*
%TO.P,U9,13,NC*%
%TO.N,unconnected-(U9-NC-Pad13)*%
X898204500Y-125300500D03*
%TO.P,U9,14,LRCLK*%
%TO.N,LRBCLK*%
X897704500Y-125300500D03*
%TO.P,U9,15,GND*%
%TO.N,GND*%
X897204500Y-125300500D03*
%TO.P,U9,16,BCLK*%
%TO.N,BCLK*%
X896704500Y-125300500D03*
D24*
%TO.P,U9,17,PAD*%
%TO.N,unconnected-(U9-PAD-Pad17)*%
X897454500Y-126738000D03*
%TD*%
D17*
%TO.P,LS7,1,1*%
%TO.N,/DAC7/OUT+*%
X778400000Y-136245001D03*
D18*
%TO.P,LS7,2,2*%
%TO.N,/DAC7/OUT-*%
X780900000Y-136245001D03*
%TD*%
D10*
%TO.P,C26,1*%
%TO.N,VDD*%
X776666286Y-133079000D03*
%TO.P,C26,2*%
%TO.N,GND*%
X774766286Y-133079000D03*
%TD*%
D11*
%TO.P,REF\u002A\u002A_LS7,1*%
%TO.N,N/C*%
X880650000Y-43195001D03*
D12*
X880650000Y-43195001D03*
%TD*%
D11*
%TO.P,REF\u002A\u002A_LS1,1*%
%TO.N,N/C*%
X57150000Y-43195001D03*
D12*
X57150000Y-43195001D03*
%TD*%
D26*
%TO.P,FB14,1*%
%TO.N,Net-(U8-OUTN)*%
X783266286Y-128588000D03*
%TO.P,FB14,2*%
%TO.N,/DAC7/OUT-*%
X783266286Y-130713000D03*
%TD*%
%TO.P,FB4,1*%
%TO.N,Net-(U3-OUTN)*%
X183245714Y-128593500D03*
%TO.P,FB4,2*%
%TO.N,/DAC2/OUT-*%
X183245714Y-130718500D03*
%TD*%
D19*
%TO.P,C31,1*%
%TO.N,/DAC8/OUT-*%
X903242000Y-132588000D03*
%TO.P,C31,2*%
%TO.N,GND*%
X905142000Y-132588000D03*
%TD*%
D26*
%TO.P,FB5,1*%
%TO.N,Net-(U4-OUTP)*%
X300537428Y-128547500D03*
%TO.P,FB5,2*%
%TO.N,/DAC3/OUT+*%
X300537428Y-130672500D03*
%TD*%
%TO.P,FB6,1*%
%TO.N,Net-(U4-OUTN)*%
X303037428Y-128510000D03*
%TO.P,FB6,2*%
%TO.N,/DAC3/OUT-*%
X303037428Y-130635000D03*
%TD*%
D11*
%TO.P,REF\u002A\u002A_LS8,1*%
%TO.N,N/C*%
X1000687492Y-146632282D03*
D12*
X1000687492Y-146632282D03*
%TD*%
D25*
%TO.P,C33,1*%
%TO.N,VCC*%
X56387600Y-90846000D03*
%TO.P,C33,2*%
%TO.N,GND*%
X56387600Y-88946000D03*
%TD*%
D11*
%TO.P,REF\u002A\u002A_LS7,1*%
%TO.N,N/C*%
X777150000Y-43195001D03*
D12*
X777150000Y-43195001D03*
%TD*%
D11*
%TO.P,REF\u002A\u002A_LS5,1*%
%TO.N,N/C*%
X640649999Y-43195001D03*
D12*
X640649999Y-43195001D03*
%TD*%
D10*
%TO.P,C22,1*%
%TO.N,VDD*%
X656794571Y-133310000D03*
%TO.P,C22,2*%
%TO.N,GND*%
X654894571Y-133310000D03*
%TD*%
D25*
%TO.P,C40,1*%
%TO.N,GND*%
X56292801Y-109223504D03*
%TO.P,C40,2*%
%TO.N,Net-(IC2-CLKIN)*%
X56292801Y-107323504D03*
%TD*%
D19*
%TO.P,C23,1*%
%TO.N,/DAC6/OUT-*%
X663244571Y-132588000D03*
%TO.P,C23,2*%
%TO.N,GND*%
X665144571Y-132588000D03*
%TD*%
D26*
%TO.P,FB11,1*%
%TO.N,Net-(U7-OUTP)*%
X660894571Y-128625500D03*
%TO.P,FB11,2*%
%TO.N,/DAC6/OUT+*%
X660894571Y-130750500D03*
%TD*%
%TO.P,FB13,1*%
%TO.N,Net-(U8-OUTP)*%
X780766286Y-128625500D03*
%TO.P,FB13,2*%
%TO.N,/DAC7/OUT+*%
X780766286Y-130750500D03*
%TD*%
D15*
%TO.P,R17,1*%
%TO.N,/Pin_5_OUT*%
X58121601Y-100697010D03*
%TO.P,R17,2*%
%TO.N,Net-(IC2-Y0)*%
X58121601Y-97772010D03*
%TD*%
D11*
%TO.P,REF\u002A\u002A_LS6,1*%
%TO.N,N/C*%
X657150000Y-146695001D03*
D12*
X657150000Y-146695001D03*
%TD*%
D20*
%TO.P,R16,1*%
%TO.N,VCC*%
X56362672Y-102453951D03*
%TO.P,R16,2*%
%TO.N,Net-(IC2-1G)*%
X56362672Y-105378951D03*
%TD*%
D17*
%TO.P,LS2,1,1*%
%TO.N,/DAC2/OUT+*%
X178400000Y-136245001D03*
D18*
%TO.P,LS2,2,2*%
%TO.N,/DAC2/OUT-*%
X180900000Y-136245001D03*
%TD*%
D10*
%TO.P,C32,1*%
%TO.N,/DAC8/OUT+*%
X901242000Y-132588000D03*
%TO.P,C32,2*%
%TO.N,GND*%
X899342000Y-132588000D03*
%TD*%
D11*
%TO.P,REF\u002A\u002A_LS3,1*%
%TO.N,N/C*%
X297149999Y-146695001D03*
D12*
X297149999Y-146695001D03*
%TD*%
D15*
%TO.P,R8,1*%
%TO.N,Net-(JP102-A)*%
X893966000Y-128462500D03*
%TO.P,R8,2*%
%TO.N,VDD*%
X893966000Y-125537500D03*
%TD*%
D10*
%TO.P,C2,1*%
%TO.N,VDD*%
X57507500Y-133757400D03*
%TO.P,C2,2*%
%TO.N,GND*%
X55607500Y-133757400D03*
%TD*%
D22*
%TO.P,U7,1,DIN*%
%TO.N,DIN*%
X656019571Y-125988000D03*
%TO.P,U7,2,GAIN_SLOT*%
%TO.N,GND*%
X656019571Y-126488000D03*
%TO.P,U7,3,GND*%
X656019571Y-126988000D03*
%TO.P,U7,4,~{SD_MODE}*%
%TO.N,/DAC6/MODE*%
X656019571Y-127488000D03*
D23*
%TO.P,U7,5,NC*%
%TO.N,unconnected-(U7-NC-Pad5)*%
X656707071Y-128175500D03*
%TO.P,U7,6,NC*%
%TO.N,unconnected-(U7-NC-Pad6)*%
X657207071Y-128175500D03*
%TO.P,U7,7,VDD*%
%TO.N,VDD*%
X657707071Y-128175500D03*
%TO.P,U7,8,VDD*%
X658207071Y-128175500D03*
D22*
%TO.P,U7,9,OUTP*%
%TO.N,Net-(U7-OUTP)*%
X658894571Y-127488000D03*
%TO.P,U7,10,OUTN*%
%TO.N,Net-(U7-OUTN)*%
X658894571Y-126988000D03*
%TO.P,U7,11,GND*%
%TO.N,GND*%
X658894571Y-126488000D03*
%TO.P,U7,12,NC*%
%TO.N,unconnected-(U7-NC-Pad12)*%
X658894571Y-125988000D03*
D23*
%TO.P,U7,13,NC*%
%TO.N,unconnected-(U7-NC-Pad13)*%
X658207071Y-125300500D03*
%TO.P,U7,14,LRCLK*%
%TO.N,LRBCLK*%
X657707071Y-125300500D03*
%TO.P,U7,15,GND*%
%TO.N,GND*%
X657207071Y-125300500D03*
%TO.P,U7,16,BCLK*%
%TO.N,BCLK*%
X656707071Y-125300500D03*
D24*
%TO.P,U7,17,PAD*%
%TO.N,unconnected-(U7-PAD-Pad17)*%
X657457071Y-126738000D03*
%TD*%
D11*
%TO.P,REF\u002A\u002A_LS2,1*%
%TO.N,N/C*%
X280687492Y-146632283D03*
D12*
X280687492Y-146632283D03*
%TD*%
D11*
%TO.P,REF\u002A\u002A_LS7,1*%
%TO.N,N/C*%
X880687492Y-146632283D03*
D12*
X880687492Y-146632283D03*
%TD*%
D11*
%TO.P,REF\u002A\u002A_LS8,1*%
%TO.N,N/C*%
X897150000Y-43195000D03*
D12*
X897150000Y-43195000D03*
%TD*%
D11*
%TO.P,REF\u002A\u002A_LS6,1*%
%TO.N,N/C*%
X760650000Y-43195001D03*
D12*
X760650000Y-43195001D03*
%TD*%
D19*
%TO.P,C3,1*%
%TO.N,/DAC1/OUT-*%
X63957500Y-134057400D03*
%TO.P,C3,2*%
%TO.N,GND*%
X65857500Y-134057400D03*
%TD*%
D16*
%TO.P,,1*%
%TO.N,N/C*%
X57150000Y-64212518D03*
%TD*%
D26*
%TO.P,FB15,1*%
%TO.N,Net-(U9-OUTP)*%
X900892000Y-128625500D03*
%TO.P,FB15,2*%
%TO.N,/DAC8/OUT+*%
X900892000Y-130750500D03*
%TD*%
D11*
%TO.P,REF\u002A\u002A_LS3,1*%
%TO.N,N/C*%
X400649999Y-43195001D03*
D12*
X400649999Y-43195001D03*
%TD*%
D10*
%TO.P,C17,1*%
%TO.N,VDD*%
X536668856Y-130556000D03*
%TO.P,C17,2*%
%TO.N,GND*%
X534768856Y-130556000D03*
%TD*%
%TO.P,C21,1*%
%TO.N,VDD*%
X656794571Y-131010000D03*
%TO.P,C21,2*%
%TO.N,GND*%
X654894571Y-131010000D03*
%TD*%
D11*
%TO.P,REF\u002A\u002A_LS3,1*%
%TO.N,N/C*%
X297149999Y-43195001D03*
D12*
X297149999Y-43195001D03*
%TD*%
D19*
%TO.P,C19,1*%
%TO.N,/DAC5/OUT-*%
X543118856Y-132588000D03*
%TO.P,C19,2*%
%TO.N,GND*%
X545018856Y-132588000D03*
%TD*%
D11*
%TO.P,REF\u002A\u002A_LS1,1*%
%TO.N,N/C*%
X57150000Y-146695001D03*
D12*
X57150000Y-146695001D03*
%TD*%
D10*
%TO.P,C20,1*%
%TO.N,/DAC5/OUT+*%
X541118856Y-132588000D03*
%TO.P,C20,2*%
%TO.N,GND*%
X539218856Y-132588000D03*
%TD*%
D11*
%TO.P,REF\u002A\u002A_LS2,1*%
%TO.N,N/C*%
X280650000Y-43195001D03*
D12*
X280650000Y-43195001D03*
%TD*%
D17*
%TO.P,J2,1,Pin_1*%
%TO.N,GND*%
X66635765Y-69120000D03*
D18*
%TO.P,J2,2,Pin_2*%
%TO.N,/Pin_2*%
X64095765Y-69120000D03*
%TO.P,J2,3,Pin_3*%
%TO.N,/Pin_3*%
X66635765Y-71660000D03*
%TO.P,J2,4,Pin_4*%
%TO.N,/Pin_4*%
X64095765Y-71660000D03*
%TO.P,J2,5,Pin_5*%
%TO.N,/Pin_5*%
X66635765Y-74200000D03*
%TO.P,J2,6,Pin_6*%
%TO.N,/Pin_6*%
X64095765Y-74200000D03*
%TO.P,J2,7,Pin_7*%
%TO.N,/Pin_7*%
X66635765Y-76740000D03*
%TO.P,J2,8,Pin_8*%
%TO.N,/Pin_8*%
X64095765Y-76740000D03*
%TO.P,J2,9,Pin_9*%
%TO.N,/Pin_9*%
X66635765Y-79280000D03*
%TO.P,J2,10,Pin_10*%
%TO.N,/Pin_10*%
X64095765Y-79280000D03*
%TO.P,J2,11,Pin_11*%
%TO.N,/Pin_11*%
X66635765Y-81820000D03*
%TO.P,J2,12,Pin_12*%
%TO.N,/Pin_12*%
X64095765Y-81820000D03*
%TO.P,J2,13,Pin_13*%
%TO.N,/Pin_13*%
X66635765Y-84360000D03*
%TO.P,J2,14,Pin_14*%
%TO.N,/Pin_14*%
X64095765Y-84360000D03*
%TO.P,J2,15,Pin_15*%
%TO.N,/Pin_15*%
X66635765Y-86900000D03*
%TO.P,J2,16,Pin_16*%
%TO.N,/Pin_16*%
X64095765Y-86900000D03*
%TO.P,J2,17,Pin_17*%
%TO.N,/Pin_17*%
X66635765Y-89440000D03*
%TO.P,J2,18,Pin_18*%
%TO.N,/Pin_18*%
X64095765Y-89440000D03*
%TO.P,J2,19,Pin_19*%
%TO.N,/Pin_19*%
X66635765Y-91980000D03*
%TO.P,J2,20,Pin_20*%
%TO.N,/Pin_20*%
X64095765Y-91980000D03*
%TO.P,J2,21,Pin_21*%
%TO.N,/Pin_21*%
X66635765Y-94520000D03*
%TO.P,J2,22,Pin_22*%
%TO.N,/Pin_22*%
X64095765Y-94520000D03*
%TO.P,J2,23,Pin_23*%
%TO.N,/Pin_23*%
X66635765Y-97060000D03*
%TO.P,J2,24,Pin_24*%
%TO.N,/Pin_24*%
X64095765Y-97060000D03*
%TO.P,J2,25,Pin_25*%
%TO.N,/Pin_25*%
X66635765Y-99600000D03*
%TO.P,J2,26,Pin_26*%
%TO.N,/Pin_26*%
X64095765Y-99600000D03*
%TO.P,J2,27,Pin_27*%
%TO.N,/Pin_27*%
X66635765Y-102140000D03*
%TO.P,J2,28,Pin_28*%
%TO.N,/Pin_28*%
X64095765Y-102140000D03*
%TO.P,J2,29,Pin_29*%
%TO.N,/Pin_29*%
X66635765Y-104680000D03*
%TO.P,J2,30,Pin_30*%
%TO.N,/Pin_30*%
X64095765Y-104680000D03*
%TO.P,J2,31,Pin_31*%
%TO.N,/Pin_31*%
X66635765Y-107220000D03*
%TO.P,J2,32,Pin_32*%
%TO.N,/Pin_32*%
X64095765Y-107220000D03*
%TO.P,J2,33,Pin_33*%
%TO.N,/Pin_33*%
X66635765Y-109760000D03*
%TO.P,J2,34,Pin_34*%
%TO.N,/Pin_34*%
X64095765Y-109760000D03*
%TO.P,J2,35,Pin_35*%
%TO.N,/Pin_35*%
X66635765Y-112300000D03*
%TO.P,J2,36,Pin_36*%
%TO.N,/Pin_36*%
X64095765Y-112300000D03*
%TO.P,J2,37,Pin_37*%
%TO.N,GND*%
X66635765Y-114840000D03*
%TO.P,J2,38,Pin_38*%
X64095765Y-114840000D03*
%TO.P,J2,39,Pin_39*%
%TO.N,VCC*%
X66635765Y-117380000D03*
%TO.P,J2,40,Pin_40*%
X64095765Y-117380000D03*
%TD*%
D26*
%TO.P,FB1,1*%
%TO.N,Net-(U2-OUTP)*%
X61607500Y-130094900D03*
%TO.P,FB1,2*%
%TO.N,/DAC1/OUT+*%
X61607500Y-132219900D03*
%TD*%
D22*
%TO.P,U4,1,DIN*%
%TO.N,DIN*%
X295662428Y-125910000D03*
%TO.P,U4,2,GAIN_SLOT*%
%TO.N,/DAC3/GAIN*%
X295662428Y-126410000D03*
%TO.P,U4,3,GND*%
%TO.N,GND*%
X295662428Y-126910000D03*
%TO.P,U4,4,~{SD_MODE}*%
%TO.N,VDD*%
X295662428Y-127410000D03*
D23*
%TO.P,U4,5,NC*%
%TO.N,unconnected-(U4-NC-Pad5)*%
X296349928Y-128097500D03*
%TO.P,U4,6,NC*%
%TO.N,unconnected-(U4-NC-Pad6)*%
X296849928Y-128097500D03*
%TO.P,U4,7,VDD*%
%TO.N,VDD*%
X297349928Y-128097500D03*
%TO.P,U4,8,VDD*%
X297849928Y-128097500D03*
D22*
%TO.P,U4,9,OUTP*%
%TO.N,Net-(U4-OUTP)*%
X298537428Y-127410000D03*
%TO.P,U4,10,OUTN*%
%TO.N,Net-(U4-OUTN)*%
X298537428Y-126910000D03*
%TO.P,U4,11,GND*%
%TO.N,GND*%
X298537428Y-126410000D03*
%TO.P,U4,12,NC*%
%TO.N,unconnected-(U4-NC-Pad12)*%
X298537428Y-125910000D03*
D23*
%TO.P,U4,13,NC*%
%TO.N,unconnected-(U4-NC-Pad13)*%
X297849928Y-125222500D03*
%TO.P,U4,14,LRCLK*%
%TO.N,LRBCLK*%
X297349928Y-125222500D03*
%TO.P,U4,15,GND*%
%TO.N,GND*%
X296849928Y-125222500D03*
%TO.P,U4,16,BCLK*%
%TO.N,BCLK*%
X296349928Y-125222500D03*
D24*
%TO.P,U4,17,PAD*%
%TO.N,unconnected-(U4-PAD-Pad17)*%
X297099928Y-126660000D03*
%TD*%
D26*
%TO.P,FB2,1*%
%TO.N,Net-(U2-OUTN)*%
X64107500Y-130057400D03*
%TO.P,FB2,2*%
%TO.N,/DAC1/OUT-*%
X64107500Y-132182400D03*
%TD*%
D17*
%TO.P,LS5,1,1*%
%TO.N,/DAC5/OUT+*%
X538399999Y-136245001D03*
D18*
%TO.P,LS5,2,2*%
%TO.N,/DAC5/OUT-*%
X540899999Y-136245001D03*
%TD*%
D10*
%TO.P,C1,1*%
%TO.N,VDD*%
X57507500Y-131457400D03*
%TO.P,C1,2*%
%TO.N,GND*%
X55607500Y-131457400D03*
%TD*%
D26*
%TO.P,FB10,1*%
%TO.N,Net-(U6-OUTN)*%
X543268856Y-128588000D03*
%TO.P,FB10,2*%
%TO.N,/DAC5/OUT-*%
X543268856Y-130713000D03*
%TD*%
D29*
%TO.P,R11,1*%
%TO.N,Net-(IC1-Y1)*%
X61668441Y-89034909D03*
%TO.P,R11,2*%
%TO.N,BCLK*%
X58743441Y-89034909D03*
%TD*%
D20*
%TO.P,R4,1*%
%TO.N,Net-(JP100-A)*%
X653968571Y-125537500D03*
%TO.P,R4,2*%
%TO.N,VDD*%
X653968571Y-128462500D03*
%TD*%
D19*
%TO.P,C4,1*%
%TO.N,/DAC1/OUT+*%
X60057500Y-134057400D03*
%TO.P,C4,2*%
%TO.N,GND*%
X61957500Y-134057400D03*
%TD*%
D11*
%TO.P,REF\u002A\u002A_LS4,1*%
%TO.N,N/C*%
X520687491Y-146632283D03*
D12*
X520687491Y-146632283D03*
%TD*%
D20*
%TO.P,R1,1*%
%TO.N,/DAC4/GAIN*%
X413295213Y-125283500D03*
%TO.P,R1,2*%
%TO.N,VDD*%
X413295213Y-128208500D03*
%TD*%
D17*
%TO.P,LS3,1,1*%
%TO.N,/DAC3/OUT+*%
X298399999Y-136245001D03*
D18*
%TO.P,LS3,2,2*%
%TO.N,/DAC3/OUT-*%
X300899999Y-136245001D03*
%TD*%
D13*
%TO.P,REF\u002A\u002A_LS3,1*%
%TO.N,/DAC3/OUT+*%
X347399999Y-143695001D03*
D14*
%TO.P,REF\u002A\u002A_LS3,2*%
%TO.N,/DAC3/OUT-*%
X349399999Y-143695001D03*
%TD*%
D17*
%TO.P,J3,1,Pin_1*%
%TO.N,GND*%
X1006965714Y-69140000D03*
D16*
X1008235714Y-64314000D03*
X1008235714Y-122293503D03*
D18*
%TO.P,J3,2,Pin_2*%
%TO.N,/Pin_2*%
X1009505714Y-69140000D03*
%TO.P,J3,3,Pin_3*%
%TO.N,/Pin_3_OUT*%
X1006965714Y-71680000D03*
%TO.P,J3,4,Pin_4*%
%TO.N,/Pin_4*%
X1009505714Y-71680000D03*
%TO.P,J3,5,Pin_5*%
%TO.N,/Pin_5_OUT*%
X1006965714Y-74220000D03*
%TO.P,J3,6,Pin_6*%
%TO.N,/Pin_6*%
X1009505714Y-74220000D03*
%TO.P,J3,7,Pin_7*%
%TO.N,/Pin_7*%
X1006965714Y-76760000D03*
%TO.P,J3,8,Pin_8*%
%TO.N,/Pin_8*%
X1009505714Y-76760000D03*
%TO.P,J3,9,Pin_9*%
%TO.N,/Pin_9*%
X1006965714Y-79300000D03*
%TO.P,J3,10,Pin_10*%
%TO.N,/Pin_10*%
X1009505714Y-79300000D03*
%TO.P,J3,11,Pin_11*%
%TO.N,/Pin_11*%
X1006965714Y-81840000D03*
%TO.P,J3,12,Pin_12*%
%TO.N,/Pin_12*%
X1009505714Y-81840000D03*
%TO.P,J3,13,Pin_13*%
%TO.N,/Pin_13*%
X1006965714Y-84380000D03*
%TO.P,J3,14,Pin_14*%
%TO.N,/Pin_14*%
X1009505714Y-84380000D03*
%TO.P,J3,15,Pin_15*%
%TO.N,/Pin_15*%
X1006965714Y-86920000D03*
%TO.P,J3,16,Pin_16*%
%TO.N,/Pin_16*%
X1009505714Y-86920000D03*
%TO.P,J3,17,Pin_17*%
%TO.N,/Pin_17*%
X1006965714Y-89460000D03*
%TO.P,J3,18,Pin_18*%
%TO.N,/Pin_18*%
X1009505714Y-89460000D03*
%TO.P,J3,19,Pin_19*%
%TO.N,/Pin_19*%
X1006965714Y-92000000D03*
%TO.P,J3,20,Pin_20*%
%TO.N,/Pin_20*%
X1009505714Y-92000000D03*
%TO.P,J3,21,Pin_21*%
%TO.N,/Pin_21*%
X1006965714Y-94540000D03*
%TO.P,J3,22,Pin_22*%
%TO.N,/Pin_22*%
X1009505714Y-94540000D03*
%TO.P,J3,23,Pin_23*%
%TO.N,/Pin_23*%
X1006965714Y-97080000D03*
%TO.P,J3,24,Pin_24*%
%TO.N,/Pin_24*%
X1009505714Y-97080000D03*
%TO.P,J3,25,Pin_25*%
%TO.N,/Pin_25*%
X1006965714Y-99620000D03*
%TO.P,J3,26,Pin_26*%
%TO.N,/Pin_26*%
X1009505714Y-99620000D03*
%TO.P,J3,27,Pin_27*%
%TO.N,/Pin_27*%
X1006965714Y-102160000D03*
%TO.P,J3,28,Pin_28*%
%TO.N,/Pin_28*%
X1009505714Y-102160000D03*
%TO.P,J3,29,Pin_29*%
%TO.N,/Pin_29*%
X1006965714Y-104700000D03*
%TO.P,J3,30,Pin_30*%
%TO.N,/Pin_30*%
X1009505714Y-104700000D03*
%TO.P,J3,31,Pin_31*%
%TO.N,/Pin_31*%
X1006965714Y-107240000D03*
%TO.P,J3,32,Pin_32*%
%TO.N,/Pin_32*%
X1009505714Y-107240000D03*
%TO.P,J3,33,Pin_33*%
%TO.N,/Pin_33*%
X1006965714Y-109780000D03*
%TO.P,J3,34,Pin_34*%
%TO.N,/Pin_34*%
X1009505714Y-109780000D03*
%TO.P,J3,35,Pin_35*%
%TO.N,/Pin_35*%
X1006965714Y-112320000D03*
%TO.P,J3,36,Pin_36*%
%TO.N,/Pin_36*%
X1009505714Y-112320000D03*
%TO.P,J3,37,Pin_37*%
%TO.N,GND*%
X1006965714Y-114860000D03*
%TO.P,J3,38,Pin_38*%
X1009505714Y-114860000D03*
%TO.P,J3,39,Pin_39*%
%TO.N,VCC*%
X1006965714Y-117400000D03*
%TO.P,J3,40,Pin_40*%
X1009505714Y-117400000D03*
%TD*%
D13*
%TO.P,REF\u002A\u002A_LS1,1*%
%TO.N,/DAC1/OUT+*%
X107400000Y-143695001D03*
D14*
%TO.P,REF\u002A\u002A_LS1,2*%
%TO.N,/DAC1/OUT-*%
X109400000Y-143695001D03*
%TD*%
D10*
%TO.P,C34,1*%
%TO.N,GND*%
X61249200Y-91333600D03*
%TO.P,C34,2*%
%TO.N,BCLK*%
X59349200Y-91333600D03*
%TD*%
D26*
%TO.P,FB16,1*%
%TO.N,Net-(U9-OUTN)*%
X903392000Y-128588000D03*
%TO.P,FB16,2*%
%TO.N,/DAC8/OUT-*%
X903392000Y-130713000D03*
%TD*%
D10*
%TO.P,C13,1*%
%TO.N,VDD*%
X416822713Y-130230924D03*
%TO.P,C13,2*%
%TO.N,GND*%
X414922713Y-130230924D03*
%TD*%
D27*
%TO.P,C35,1*%
%TO.N,GND*%
X55524000Y-76159600D03*
%TO.P,C35,2*%
%TO.N,/Pin_3_OUT*%
X55524000Y-78059600D03*
%TD*%
D10*
%TO.P,C28,1*%
%TO.N,/DAC7/OUT+*%
X781116286Y-132588000D03*
%TO.P,C28,2*%
%TO.N,GND*%
X779216286Y-132588000D03*
%TD*%
D30*
%TO.P,D1,1,K*%
%TO.N,GND*%
X76123500Y-59228000D03*
%TO.P,D1,2,A*%
%TO.N,Net-(D1-A)*%
X74548500Y-59228000D03*
%TD*%
D28*
%TO.P,IC1,1,CLKIN*%
%TO.N,Net-(IC1-CLKIN)*%
X60309000Y-80674000D03*
%TO.P,IC1,2,1G*%
%TO.N,Net-(IC1-1G)*%
X59659000Y-80674000D03*
%TO.P,IC1,3,Y0*%
%TO.N,Net-(IC1-Y0)*%
X59009000Y-80674000D03*
%TO.P,IC1,4,GND*%
%TO.N,GND*%
X58359000Y-80674000D03*
%TO.P,IC1,5,NC_1*%
%TO.N,unconnected-(IC1-NC_1-Pad5)*%
X58359000Y-86550000D03*
%TO.P,IC1,6,VDD*%
%TO.N,VCC*%
X59009000Y-86550000D03*
%TO.P,IC1,7,NC_2*%
%TO.N,unconnected-(IC1-NC_2-Pad7)*%
X59659000Y-86550000D03*
%TO.P,IC1,8,Y1*%
%TO.N,Net-(IC1-Y1)*%
X60309000Y-86550000D03*
%TD*%
D11*
%TO.P,REF\u002A\u002A_LS6,1*%
%TO.N,N/C*%
X760687492Y-146632283D03*
D12*
X760687492Y-146632283D03*
%TD*%
D19*
%TO.P,C27,1*%
%TO.N,/DAC7/OUT-*%
X783116286Y-132588000D03*
%TO.P,C27,2*%
%TO.N,GND*%
X785016286Y-132588000D03*
%TD*%
D10*
%TO.P,C14,1*%
%TO.N,VDD*%
X416822713Y-132530924D03*
%TO.P,C14,2*%
%TO.N,GND*%
X414922713Y-132530924D03*
%TD*%
%TO.P,C29,1*%
%TO.N,VDD*%
X896792000Y-131064000D03*
%TO.P,C29,2*%
%TO.N,GND*%
X894892000Y-131064000D03*
%TD*%
D11*
%TO.P,REF\u002A\u002A_LS8,1*%
%TO.N,N/C*%
X1000650000Y-43195000D03*
D12*
X1000650000Y-43195000D03*
%TD*%
D22*
%TO.P,U6,1,DIN*%
%TO.N,DIN*%
X535893856Y-125988000D03*
%TO.P,U6,2,GAIN_SLOT*%
%TO.N,/DAC5/GAIN*%
X535893856Y-126488000D03*
%TO.P,U6,3,GND*%
%TO.N,GND*%
X535893856Y-126988000D03*
%TO.P,U6,4,~{SD_MODE}*%
%TO.N,VDD*%
X535893856Y-127488000D03*
D23*
%TO.P,U6,5,NC*%
%TO.N,unconnected-(U6-NC-Pad5)*%
X536581356Y-128175500D03*
%TO.P,U6,6,NC*%
%TO.N,unconnected-(U6-NC-Pad6)*%
X537081356Y-128175500D03*
%TO.P,U6,7,VDD*%
%TO.N,VDD*%
X537581356Y-128175500D03*
%TO.P,U6,8,VDD*%
X538081356Y-128175500D03*
D22*
%TO.P,U6,9,OUTP*%
%TO.N,Net-(U6-OUTP)*%
X538768856Y-127488000D03*
%TO.P,U6,10,OUTN*%
%TO.N,Net-(U6-OUTN)*%
X538768856Y-126988000D03*
%TO.P,U6,11,GND*%
%TO.N,GND*%
X538768856Y-126488000D03*
%TO.P,U6,12,NC*%
%TO.N,unconnected-(U6-NC-Pad12)*%
X538768856Y-125988000D03*
D23*
%TO.P,U6,13,NC*%
%TO.N,unconnected-(U6-NC-Pad13)*%
X538081356Y-125300500D03*
%TO.P,U6,14,LRCLK*%
%TO.N,LRBCLK*%
X537581356Y-125300500D03*
%TO.P,U6,15,GND*%
%TO.N,GND*%
X537081356Y-125300500D03*
%TO.P,U6,16,BCLK*%
%TO.N,BCLK*%
X536581356Y-125300500D03*
D24*
%TO.P,U6,17,PAD*%
%TO.N,unconnected-(U6-PAD-Pad17)*%
X537331356Y-126738000D03*
%TD*%
D10*
%TO.P,C10,1*%
%TO.N,VDD*%
X296437428Y-132210000D03*
%TO.P,C10,2*%
%TO.N,GND*%
X294537428Y-132210000D03*
%TD*%
D29*
%TO.P,R15,1*%
%TO.N,Net-(IC2-Y1)*%
X61616101Y-111415993D03*
%TO.P,R15,2*%
%TO.N,LRBCLK*%
X58691101Y-111415993D03*
%TD*%
D17*
%TO.P,J4,1,Pin_1*%
%TO.N,GND*%
X1009716714Y-54361000D03*
D18*
%TO.P,J4,2,Pin_2*%
%TO.N,VDD*%
X1009716714Y-51821000D03*
%TD*%
D17*
%TO.P,J1,1,Pin_1*%
%TO.N,GND*%
X64090000Y-54386000D03*
D18*
%TO.P,J1,2,Pin_2*%
%TO.N,VDD*%
X64090000Y-51846000D03*
%TD*%
D31*
%TO.N,GND*%
X774094286Y-127400000D03*
X175195714Y-133793500D03*
X660170306Y-126363735D03*
X416765142Y-124206000D03*
X296849929Y-124206000D03*
X55107500Y-128457400D03*
X175121045Y-127953556D03*
X538368856Y-130988000D03*
X178345714Y-130993500D03*
X658494571Y-130988000D03*
X177058214Y-124367700D03*
X180021449Y-126369235D03*
X55524000Y-74468000D03*
X773840286Y-133350000D03*
X58069294Y-125767409D03*
X657016571Y-124325000D03*
X905442000Y-130838000D03*
X60883235Y-127833135D03*
X540044592Y-126363735D03*
X779936286Y-125730000D03*
X184793714Y-130870100D03*
X665269571Y-131013000D03*
X55524000Y-110536000D03*
X76352000Y-60244000D03*
X420198449Y-126363735D03*
X62865000Y-132969000D03*
X55102500Y-130073400D03*
X535218856Y-134265777D03*
X534350856Y-127000000D03*
X895342000Y-134864000D03*
X894982000Y-127508000D03*
X653714571Y-133096000D03*
X294037429Y-126910000D03*
X294987428Y-133710000D03*
X56032000Y-97328000D03*
X778412286Y-134874000D03*
X900167735Y-126363735D03*
X898492000Y-130988000D03*
X536917260Y-124071000D03*
X777142286Y-124206000D03*
X545018857Y-130588000D03*
X65430000Y-132634000D03*
X55016000Y-89200000D03*
X57556000Y-103932000D03*
X304411429Y-130856000D03*
X897204500Y-124206000D03*
X418522713Y-130988000D03*
X415372714Y-133788000D03*
X56057500Y-135257400D03*
X62636000Y-113076000D03*
X298137429Y-130910000D03*
X654222571Y-126988000D03*
X61620000Y-92756000D03*
X785016286Y-130838000D03*
X415045213Y-126988000D03*
X56032000Y-110028000D03*
X425295214Y-130926750D03*
X57556000Y-81580000D03*
X54800000Y-87168000D03*
X299813164Y-126285735D03*
%TO.N,VDD*%
X771808286Y-137922000D03*
X415090613Y-127842000D03*
X294380528Y-128190599D03*
X656553570Y-134810000D03*
X536718856Y-134265777D03*
X535366857Y-128777999D03*
X58937900Y-131064000D03*
X176695714Y-133793500D03*
X58801000Y-133858000D03*
X296487428Y-133710000D03*
X891680000Y-137922000D03*
X175776714Y-128570000D03*
X775872286Y-131826000D03*
X894220000Y-127000000D03*
X774569159Y-129374191D03*
X55585100Y-129286000D03*
X174497138Y-126124136D03*
X655111571Y-129158999D03*
X896842000Y-134864000D03*
X653460571Y-133858000D03*
X416872714Y-133788000D03*
%TO.N,/Pin_35*%
X876440000Y-120186823D03*
%TO.N,/Pin_27*%
X889902000Y-106500706D03*
%TO.N,/Pin_7*%
X839339068Y-73996176D03*
%TO.N,/Pin_23*%
X859548999Y-99657647D03*
%TO.N,/Pin_20*%
X812305000Y-92814588D03*
%TO.N,/Pin_17*%
X825894000Y-91103823D03*
%TO.N,/Pin_15*%
X829196000Y-87682294D03*
%TO.N,VCC*%
X57556000Y-91740000D03*
X61620000Y-74584600D03*
X60873000Y-116244506D03*
X57566323Y-79634600D03*
%TO.N,BCLK*%
X655746571Y-124714000D03*
X59588000Y-94280000D03*
X59552500Y-124724500D03*
X895744000Y-124071000D03*
X175776714Y-124071000D03*
X415495142Y-124206000D03*
X295369428Y-124206000D03*
X775872286Y-124460000D03*
X535874857Y-124460000D03*
%TO.N,/Pin_30*%
X903491000Y-111633000D03*
%TO.N,/Pin_18*%
X856217366Y-89393059D03*
%TO.N,/Pin_26*%
X900078933Y-104769521D03*
%TO.N,/Pin_13*%
X852843400Y-84260764D03*
%TO.N,/Pin_19*%
X822465001Y-94525353D03*
%TO.N,/Pin_10*%
X802272000Y-75706941D03*
%TO.N,/Pin_24*%
X896760000Y-101368412D03*
%TO.N,/Pin_29*%
X886600000Y-109922235D03*
%TO.N,/Pin_36*%
X873036000Y-121920000D03*
%TO.N,/Pin_21*%
X819187999Y-97969294D03*
%TO.N,/Pin_22*%
X815734000Y-96236117D03*
%TO.N,/Pin_11*%
X805641734Y-80839235D03*
%TO.N,LRBCLK*%
X659978571Y-125250000D03*
X59685000Y-126000000D03*
X779224286Y-124250000D03*
X539607857Y-125125000D03*
X299491429Y-125250000D03*
X179245714Y-125250000D03*
X899970000Y-124500000D03*
X419737142Y-125250000D03*
%TO.N,/Pin_28*%
X862978000Y-108211470D03*
%TO.N,/Pin_34*%
X869713232Y-118486200D03*
%TO.N,/Pin_14*%
X832599599Y-82550000D03*
%TO.N,/Pin_8*%
X846087000Y-72285412D03*
%TO.N,/Pin_6*%
X843975904Y-69013000D03*
%TO.N,/Pin_31*%
X883247198Y-113343764D03*
%TO.N,/Pin_25*%
X893458000Y-103079176D03*
%TO.N,/Pin_16*%
X809003000Y-85971529D03*
%TO.N,/Pin_32*%
X866313866Y-115076941D03*
%TO.N,/Pin_9*%
X835973568Y-77417706D03*
%TO.N,/Pin_33*%
X879869000Y-116765294D03*
%TO.N,/Pin_12*%
X849516000Y-79128470D03*
%TO.N,/DAC6/MODE*%
X655746571Y-128524000D03*
%TO.N,/DAC7/MODE*%
X775364286Y-129286000D03*
%TO.N,DIN*%
X906818400Y-123250000D03*
X63017000Y-127935000D03*
X55626000Y-127453400D03*
%TO.N,/Pin_4*%
X797725000Y-65464765D03*
%TO.N,/DAC8/MODE*%
X893720000Y-129750000D03*
%TO.N,Net-(JP100-B)*%
X656279571Y-129167000D03*
%TO.N,Net-(JP100-A)*%
X650920571Y-127762000D03*
%TO.N,Net-(JP101-A)*%
X773586286Y-131826000D03*
%TO.N,Net-(JP101-B)*%
X772824286Y-133858000D03*
%TO.N,Net-(JP102-A)*%
X781450915Y-126135136D03*
%TO.N,Net-(JP102-B)*%
X894007386Y-134239198D03*
%TO.N,/Pin_3_OUT*%
X56540000Y-73452000D03*
X68732000Y-72395000D03*
%TO.N,/Pin_5_OUT*%
X57048000Y-95804000D03*
X68224000Y-74468000D03*
%TD*%
D32*
%TO.N,GND*%
X779936286Y-125730000D02*
X779936286Y-125784484D01*
D33*
X653714571Y-133096000D02*
X654680571Y-133096000D01*
D32*
X779225286Y-126441000D02*
X779178286Y-126488000D01*
X177058214Y-124367700D02*
X177058214Y-125306000D01*
D33*
X654894571Y-130810000D02*
X654894571Y-133310000D01*
D32*
X897204500Y-124206000D02*
X897204500Y-125300500D01*
X895502000Y-126988000D02*
X894982000Y-127508000D01*
X298537429Y-126410000D02*
X299688899Y-126410000D01*
D33*
X654680571Y-133096000D02*
X654894571Y-133310000D01*
D32*
X58069294Y-125767409D02*
X57920000Y-125916703D01*
X55524000Y-110547181D02*
X56343601Y-111366782D01*
X777078786Y-124206000D02*
X777142286Y-124206000D01*
X896017000Y-126988000D02*
X895502000Y-126988000D01*
D33*
X894892000Y-133364000D02*
X894892000Y-134414000D01*
D32*
X655019571Y-126988000D02*
X655519571Y-126488000D01*
D33*
X905142000Y-132588000D02*
X905142000Y-132138000D01*
D32*
X538768857Y-126488000D02*
X539920326Y-126488000D01*
X656019571Y-126988000D02*
X654222571Y-126988000D01*
D33*
X538368856Y-131738000D02*
X538368856Y-130988000D01*
D32*
X775372286Y-126988000D02*
X775891286Y-126988000D01*
X56387600Y-89047600D02*
X56387600Y-88946000D01*
X658894571Y-126488000D02*
X660046041Y-126488000D01*
D33*
X298987428Y-132509999D02*
X298987428Y-131759999D01*
X774766286Y-130579000D02*
X774766286Y-133079000D01*
X778462286Y-134824000D02*
X778462286Y-133342000D01*
X55607500Y-134807400D02*
X56057500Y-135257400D01*
X778462286Y-133342000D02*
X779216286Y-132588000D01*
D32*
X535368856Y-126988000D02*
X535893857Y-126988000D01*
X418922713Y-126488000D02*
X420074183Y-126488000D01*
X900043470Y-126488000D02*
X900167735Y-126363735D01*
X56235200Y-89200000D02*
X56387600Y-89047600D01*
D33*
X55607500Y-133757400D02*
X55607500Y-134807400D01*
D32*
X61154401Y-113620701D02*
X62091299Y-113620701D01*
X533334856Y-127954500D02*
X533334856Y-128208499D01*
X175121045Y-127953556D02*
X175121045Y-127142821D01*
D33*
X785016286Y-130838000D02*
X785016286Y-132588000D01*
X659344571Y-132588000D02*
X659344571Y-131838000D01*
X774495286Y-133350000D02*
X774766286Y-133079000D01*
D32*
X56255600Y-87168000D02*
X56387600Y-87036000D01*
X55524000Y-74468000D02*
X55524000Y-76159600D01*
X774094286Y-127400000D02*
X774494286Y-127000000D01*
X56007000Y-128270000D02*
X56007000Y-128457400D01*
D33*
X179195714Y-132593500D02*
X179195714Y-131843500D01*
D32*
X56292801Y-109767199D02*
X56032000Y-110028000D01*
X57920000Y-125916703D02*
X57920000Y-126769900D01*
D33*
X174745714Y-129793500D02*
X174745714Y-132293500D01*
X539218857Y-132588000D02*
X538368856Y-131738000D01*
X179195714Y-131843500D02*
X178345714Y-130993500D01*
D32*
X417235213Y-125300500D02*
X417235213Y-124676071D01*
D33*
X304787429Y-131241999D02*
X304787429Y-132060000D01*
D32*
X654222571Y-126988000D02*
X655019571Y-126988000D01*
D33*
X778412286Y-134874000D02*
X778462286Y-134824000D01*
X665144571Y-132588000D02*
X665144571Y-132138000D01*
D32*
X534350856Y-127000000D02*
X533621156Y-127729700D01*
D33*
X665269571Y-132013000D02*
X665269571Y-131013000D01*
D32*
X535356857Y-127000000D02*
X535368856Y-126988000D01*
X539920326Y-126488000D02*
X540044592Y-126363735D01*
D33*
X894892000Y-130864000D02*
X894892000Y-133364000D01*
D32*
X295662429Y-126910000D02*
X294037429Y-126910000D01*
D33*
X905442000Y-131838000D02*
X905442000Y-130838000D01*
D32*
X58416601Y-102854155D02*
X58416601Y-103071399D01*
X61249200Y-91333600D02*
X61249200Y-92385200D01*
D33*
X414922713Y-133338000D02*
X415372714Y-133788000D01*
X294537429Y-133259999D02*
X294987428Y-133710000D01*
D32*
X416047713Y-126988000D02*
X415045213Y-126988000D01*
X299688899Y-126410000D02*
X299813164Y-126285735D01*
D33*
X773840286Y-133350000D02*
X774495286Y-133350000D01*
X65857500Y-133607400D02*
X65857500Y-134057400D01*
X294537429Y-129710000D02*
X294537429Y-132210000D01*
D32*
X55607500Y-131457400D02*
X55607500Y-130578400D01*
X537081357Y-124711244D02*
X537081357Y-125300500D01*
X59607500Y-127957400D02*
X60758970Y-127957400D01*
X56732500Y-127957400D02*
X56319600Y-127957400D01*
D33*
X899342000Y-131838000D02*
X898492000Y-130988000D01*
D32*
X175121045Y-127142821D02*
X175270366Y-126993500D01*
X536917260Y-124071000D02*
X536917260Y-124547147D01*
X179897184Y-126493500D02*
X180021449Y-126369235D01*
X777078786Y-124206000D02*
X777078786Y-125300500D01*
X774494286Y-127000000D02*
X775360286Y-127000000D01*
X657207071Y-124515500D02*
X657207071Y-125300500D01*
D33*
X174745714Y-133343500D02*
X175195714Y-133793500D01*
X899342000Y-132588000D02*
X899342000Y-131838000D01*
D32*
X660046041Y-126488000D02*
X660170306Y-126363735D01*
D33*
X304411429Y-130856000D02*
X304411429Y-130866000D01*
X304411429Y-130866000D02*
X304787429Y-131241999D01*
D32*
X657016571Y-124325000D02*
X657207071Y-124515500D01*
X533559657Y-127729700D02*
X533334856Y-127954500D01*
D33*
X55607500Y-131257400D02*
X55607500Y-133757400D01*
X294537429Y-132210000D02*
X294537429Y-133259999D01*
D32*
X534350856Y-127000000D02*
X535356857Y-127000000D01*
X55561069Y-98536050D02*
X55561069Y-97798931D01*
X779279770Y-126441000D02*
X779225286Y-126441000D01*
X55524000Y-110536000D02*
X55524000Y-110547181D01*
X55607500Y-130578400D02*
X55102500Y-130073400D01*
D33*
X298987428Y-131759999D02*
X298137429Y-130910000D01*
D32*
X779178286Y-126488000D02*
X778766286Y-126488000D01*
D33*
X418522713Y-131738000D02*
X418522713Y-130988000D01*
D32*
X61957500Y-133876500D02*
X62865000Y-132969000D01*
D33*
X184995714Y-131072100D02*
X184793714Y-130870100D01*
X414922713Y-132530924D02*
X414922713Y-133338000D01*
X414922713Y-129788000D02*
X414922713Y-132530924D01*
D32*
X420074183Y-126488000D02*
X420198449Y-126363735D01*
X55016000Y-89200000D02*
X56235200Y-89200000D01*
D33*
X534768857Y-133815777D02*
X535218856Y-134265777D01*
D32*
X175270366Y-126993500D02*
X175870714Y-126993500D01*
D34*
X76123500Y-60015500D02*
X76352000Y-60244000D01*
D32*
X533621156Y-127729700D02*
X533559657Y-127729700D01*
X775360286Y-127000000D02*
X775372286Y-126988000D01*
X779936286Y-125784484D02*
X779279770Y-126441000D01*
X56319600Y-127957400D02*
X56007000Y-128270000D01*
D33*
X659344571Y-131838000D02*
X658494571Y-130988000D01*
X174745714Y-132293500D02*
X174745714Y-133343500D01*
D32*
X58416601Y-103071399D02*
X57556000Y-103932000D01*
X56007000Y-128457400D02*
X55107500Y-128457400D01*
X178745714Y-126493500D02*
X179897184Y-126493500D01*
D34*
X76123500Y-59228000D02*
X76123500Y-60015500D01*
D32*
X417235213Y-124676071D02*
X416765142Y-124206000D01*
X61249200Y-92385200D02*
X61620000Y-92756000D01*
D33*
X184995714Y-132593500D02*
X184995714Y-131072100D01*
D32*
X61957500Y-134057400D02*
X61957500Y-133876500D01*
D33*
X534768857Y-130265777D02*
X534768857Y-132856000D01*
D32*
X655519571Y-126488000D02*
X656019571Y-126488000D01*
D33*
X894892000Y-134414000D02*
X895342000Y-134864000D01*
X65430000Y-132634000D02*
X65430000Y-133179900D01*
D32*
X536917260Y-124547147D02*
X537081357Y-124711244D01*
D33*
X905142000Y-132138000D02*
X905442000Y-131838000D01*
X534768857Y-132856000D02*
X534768857Y-133815777D01*
X65430000Y-133179900D02*
X65857500Y-133607400D01*
D32*
X55561069Y-97798931D02*
X56032000Y-97328000D01*
D33*
X425172713Y-132138000D02*
X425295214Y-132015500D01*
X665144571Y-132138000D02*
X665269571Y-132013000D01*
D32*
X60758970Y-127957400D02*
X60883235Y-127833135D01*
X58359000Y-80777000D02*
X57556000Y-81580000D01*
X56292801Y-109223504D02*
X56292801Y-109767199D01*
X56732500Y-128457400D02*
X56007000Y-128457400D01*
D33*
X419372714Y-132588000D02*
X418522713Y-131738000D01*
D32*
X54800000Y-87168000D02*
X56255600Y-87168000D01*
X296849929Y-124206000D02*
X296849929Y-125222500D01*
X58359000Y-80674000D02*
X58359000Y-80777000D01*
X898892000Y-126488000D02*
X900043470Y-126488000D01*
X62091299Y-113620701D02*
X62636000Y-113076000D01*
D33*
X425295214Y-132015500D02*
X425295214Y-130926750D01*
X545018857Y-130588000D02*
X545018857Y-132588000D01*
D32*
%TO.N,VDD*%
X653968571Y-135443500D02*
X653968571Y-134366000D01*
D33*
X897704500Y-129075500D02*
X897704500Y-130651500D01*
D32*
X295662429Y-127410000D02*
X295161128Y-127410000D01*
X776666286Y-133079000D02*
X776666286Y-131826000D01*
X415395413Y-127842000D02*
X415749413Y-127488000D01*
D33*
X178058214Y-128580999D02*
X177558214Y-129080999D01*
D32*
X896017000Y-126488000D02*
X894732000Y-126488000D01*
X57507500Y-133757400D02*
X57507500Y-131457400D01*
D33*
X418235213Y-128175500D02*
X418235213Y-128575500D01*
D32*
X416822713Y-132530924D02*
X416822713Y-130230923D01*
D33*
X417735213Y-129575500D02*
X417322713Y-129988000D01*
X58007500Y-131457400D02*
X57507500Y-131457400D01*
D32*
X893966000Y-126746000D02*
X894220000Y-127000000D01*
X535893857Y-128251000D02*
X535366857Y-128777999D01*
D33*
X177558214Y-128181000D02*
X177558214Y-129080999D01*
D32*
X414841914Y-128050500D02*
X413453213Y-128050500D01*
D33*
X777166286Y-130279000D02*
X776666286Y-130779000D01*
X417735213Y-129075500D02*
X417735213Y-129575500D01*
D32*
X773840286Y-128645318D02*
X773840286Y-128462500D01*
X174890106Y-126493500D02*
X175870714Y-126493500D01*
D33*
X417735213Y-128175500D02*
X417735213Y-129075500D01*
X58313800Y-131151100D02*
X58400900Y-131064000D01*
D32*
X893966000Y-125537500D02*
X893966000Y-126746000D01*
D33*
X297349929Y-128097500D02*
X297349929Y-128997500D01*
D32*
X772447286Y-138561000D02*
X771808286Y-137922000D01*
D33*
X657294571Y-131009999D02*
X656794571Y-131009999D01*
D32*
X656794571Y-133310000D02*
X656794571Y-134760000D01*
X893712000Y-138368500D02*
X892126500Y-138368500D01*
X174497138Y-126124136D02*
X174520742Y-126124136D01*
X176645714Y-132293500D02*
X176645714Y-129993500D01*
X536668857Y-132856000D02*
X536668857Y-134215777D01*
D33*
X657707071Y-129075500D02*
X657707071Y-130597500D01*
D32*
X415050413Y-127842000D02*
X414841914Y-128050500D01*
D33*
X897704500Y-128175500D02*
X897704500Y-129075500D01*
D32*
X776666286Y-131826000D02*
X775872286Y-131826000D01*
D33*
X58920000Y-130044900D02*
X58420000Y-130544900D01*
X297349929Y-128997500D02*
X297349929Y-129497500D01*
D32*
X892126500Y-138368500D02*
X891680000Y-137922000D01*
X176645714Y-132293500D02*
X176645714Y-133743500D01*
X56732500Y-128957400D02*
X55913700Y-128957400D01*
D33*
X538081357Y-128575500D02*
X537581357Y-129075500D01*
X177558214Y-129080999D02*
X177558214Y-129580999D01*
X777578786Y-129103500D02*
X777166286Y-129515999D01*
X777166286Y-129515999D02*
X777166286Y-130279000D01*
D32*
X296437428Y-132210000D02*
X296437428Y-129910000D01*
X774569159Y-129374191D02*
X773840286Y-128645318D01*
D33*
X58400900Y-131064000D02*
X58937900Y-131064000D01*
D32*
X894732000Y-126488000D02*
X894220000Y-127000000D01*
D33*
X537581357Y-128175500D02*
X537581357Y-129075500D01*
X898204500Y-128575500D02*
X897704500Y-129075500D01*
D32*
X776666286Y-133079000D02*
X776666286Y-130779000D01*
X295161128Y-127410000D02*
X294380528Y-128190599D01*
X773840286Y-138114500D02*
X773393786Y-138561000D01*
X174520742Y-126124136D02*
X174890106Y-126493500D01*
D33*
X537581357Y-129575500D02*
X536668857Y-130488000D01*
D32*
X536668857Y-134215777D02*
X536718856Y-134265777D01*
X175903714Y-127808000D02*
X175870714Y-127775000D01*
X415090613Y-127842000D02*
X415395413Y-127842000D01*
D33*
X58920000Y-129644900D02*
X58920000Y-130044900D01*
X417065637Y-129988000D02*
X416822713Y-130230923D01*
X537581357Y-129075500D02*
X537581357Y-129575500D01*
D32*
X58700400Y-133757400D02*
X58801000Y-133858000D01*
D33*
X177145714Y-129993500D02*
X176645714Y-129993500D01*
X58313800Y-131151100D02*
X58007500Y-131457400D01*
X658207071Y-128175500D02*
X658207071Y-128575500D01*
X777578786Y-129075500D02*
X777578786Y-129103500D01*
X778078786Y-128575500D02*
X777578786Y-129075500D01*
D32*
X535893857Y-127488000D02*
X535893857Y-128251000D01*
X536668857Y-132856000D02*
X536668857Y-130556000D01*
X896792000Y-133364000D02*
X896792000Y-131064000D01*
D33*
X297849929Y-128497500D02*
X297349929Y-128997500D01*
X898204500Y-128175500D02*
X898204500Y-128575500D01*
D32*
X656794571Y-133310000D02*
X656794571Y-131009999D01*
X896792000Y-133364000D02*
X896792000Y-134814000D01*
D33*
X538081357Y-128175500D02*
X538081357Y-128575500D01*
D32*
X413453213Y-128050500D02*
X413295213Y-128208499D01*
D33*
X58420000Y-130544900D02*
X58420000Y-131044900D01*
D32*
X415749413Y-127488000D02*
X416047713Y-127488000D01*
D33*
X58420000Y-131044900D02*
X58313800Y-131151100D01*
X778078786Y-128175500D02*
X778078786Y-128575500D01*
X417322713Y-129988000D02*
X417065637Y-129988000D01*
D32*
X296437428Y-132210000D02*
X296437428Y-133660000D01*
X175776714Y-128570000D02*
X175903714Y-128443000D01*
X654415071Y-128462500D02*
X653968571Y-128462500D01*
X55913700Y-128957400D02*
X55585100Y-129286000D01*
D33*
X296937428Y-129910000D02*
X296437428Y-129910000D01*
D32*
X416822713Y-132530924D02*
X416822713Y-133738000D01*
D33*
X658207071Y-128575500D02*
X657707071Y-129075500D01*
D32*
X653968571Y-134366000D02*
X653460571Y-133858000D01*
D33*
X657707071Y-128175500D02*
X657707071Y-129075500D01*
D32*
X57507500Y-133757400D02*
X58700400Y-133757400D01*
X175870714Y-127775000D02*
X175870714Y-127493500D01*
D33*
X418235213Y-128575500D02*
X417735213Y-129075500D01*
X297349929Y-129497500D02*
X296937428Y-129910000D01*
X657707071Y-130597500D02*
X657294571Y-131009999D01*
D32*
X773393786Y-138561000D02*
X772447286Y-138561000D01*
X175903714Y-128443000D02*
X175903714Y-127808000D01*
D33*
X536668857Y-130488000D02*
X536668857Y-130556000D01*
X897292000Y-131064000D02*
X896792000Y-131064000D01*
X297849929Y-128097500D02*
X297849929Y-128497500D01*
X897704500Y-130651500D02*
X897292000Y-131064000D01*
X777578786Y-128175500D02*
X777578786Y-129075500D01*
X177558214Y-129580999D02*
X177145714Y-129993500D01*
X178058214Y-128181000D02*
X178058214Y-128580999D01*
D32*
X655111571Y-129158999D02*
X654415071Y-128462500D01*
D33*
X58420000Y-129644900D02*
X58420000Y-130544900D01*
D32*
X415090613Y-127842000D02*
X415050413Y-127842000D01*
%TO.N,/DAC1/OUT-*%
X64107500Y-133982400D02*
X64107500Y-132182400D01*
D34*
X60900000Y-136245001D02*
X63600000Y-138945001D01*
X63600000Y-138945001D02*
X107900000Y-138945001D01*
D32*
X64100000Y-133757400D02*
X64100000Y-134727400D01*
X60900000Y-136576400D02*
X62251000Y-136576400D01*
D34*
X109400000Y-140445001D02*
X109400000Y-143695001D01*
D32*
X64100000Y-134727400D02*
X62251000Y-136576400D01*
D34*
X107900000Y-138945001D02*
X109400000Y-140445001D01*
%TO.N,/DAC1/OUT+*%
X58400000Y-139195001D02*
X58400000Y-136245001D01*
X60400000Y-141195001D02*
X58400000Y-139195001D01*
D32*
X61607500Y-132507400D02*
X60057500Y-134057400D01*
X58400000Y-135714900D02*
X58400000Y-136250000D01*
D34*
X104900000Y-141195001D02*
X60400000Y-141195001D01*
D32*
X60057500Y-134057400D02*
X58400000Y-135714900D01*
X61607500Y-132219900D02*
X61607500Y-132507400D01*
D34*
X107400000Y-143695001D02*
X104900000Y-141195001D01*
%TO.N,/DAC2/OUT-*%
X227900000Y-138945001D02*
X229400000Y-140445001D01*
D32*
X183245714Y-132518499D02*
X183245714Y-130718500D01*
D34*
X229400000Y-140445001D02*
X229400000Y-143695001D01*
X183600000Y-138945001D02*
X227900000Y-138945001D01*
D32*
X183095714Y-132593500D02*
X183095714Y-134647786D01*
D34*
X180900000Y-136245001D02*
X183600000Y-138945001D01*
D32*
X183095714Y-134647786D02*
X180900000Y-136843500D01*
%TO.N,/DAC2/OUT+*%
X181095714Y-134147786D02*
X178400000Y-136843500D01*
X181095714Y-132593500D02*
X181095714Y-134147786D01*
D34*
X178400000Y-139195001D02*
X178400000Y-136245001D01*
D33*
X180745714Y-130556000D02*
X180745714Y-132543500D01*
D34*
X227400000Y-143695001D02*
X224900000Y-141195001D01*
X180400000Y-141195001D02*
X178400000Y-139195001D01*
X224900000Y-141195001D02*
X180400000Y-141195001D01*
D32*
%TO.N,/DAC4/OUT-*%
X423422713Y-132513000D02*
X423422713Y-130713000D01*
D34*
X469399999Y-140445001D02*
X469399999Y-143695001D01*
X420899999Y-136245001D02*
X423599999Y-138945001D01*
X467899999Y-138945001D02*
X469399999Y-140445001D01*
D32*
X423272713Y-133394857D02*
X423272713Y-132588000D01*
D34*
X423599999Y-138945001D02*
X467899999Y-138945001D01*
D32*
X423272713Y-133273357D02*
X423272713Y-132588000D01*
X420417570Y-136250000D02*
X423272713Y-133394857D01*
%TO.N,/DAC3/OUT-*%
X303037429Y-132435000D02*
X303037429Y-130634999D01*
D34*
X303599999Y-138945001D02*
X347899999Y-138945001D01*
X349399999Y-140445001D02*
X349399999Y-143695001D01*
X347899999Y-138945001D02*
X349399999Y-140445001D01*
D32*
X300698499Y-136450000D02*
X302887429Y-134261071D01*
X302887429Y-134261071D02*
X302887429Y-132509999D01*
D34*
X300899999Y-136245001D02*
X303599999Y-138945001D01*
D32*
%TO.N,/DAC5/OUT-*%
X543118856Y-134031142D02*
X540900000Y-136250000D01*
D34*
X543599999Y-138945001D02*
X587899999Y-138945001D01*
D32*
X543118856Y-132588000D02*
X543118856Y-134031142D01*
X543268857Y-132513000D02*
X543268857Y-130713000D01*
D34*
X589399999Y-140445001D02*
X589399999Y-143695001D01*
X587899999Y-138945001D02*
X589399999Y-140445001D01*
X540899999Y-136245001D02*
X543599999Y-138945001D01*
%TO.N,/DAC4/OUT+*%
X464899999Y-141195001D02*
X420399999Y-141195001D01*
D32*
X421272713Y-132588000D02*
X421272713Y-132709499D01*
D34*
X418399999Y-139195001D02*
X418399999Y-136245001D01*
X420399999Y-141195001D02*
X418399999Y-139195001D01*
D32*
X421272713Y-132709499D02*
X417917570Y-136064643D01*
D33*
X420922713Y-130550500D02*
X420922713Y-132538000D01*
D32*
X417917570Y-136064643D02*
X417917570Y-136250000D01*
D34*
X467399999Y-143695001D02*
X464899999Y-141195001D01*
D33*
%TO.N,/DAC3/OUT+*%
X300537429Y-130472500D02*
X300537429Y-132460000D01*
D32*
X300887429Y-132509999D02*
X300887429Y-133761070D01*
D34*
X298399999Y-139195001D02*
X298399999Y-136245001D01*
D32*
X300887429Y-133761070D02*
X298198499Y-136450000D01*
D34*
X344899999Y-141195001D02*
X300399999Y-141195001D01*
X300399999Y-141195001D02*
X298399999Y-139195001D01*
X347399999Y-143695001D02*
X344899999Y-141195001D01*
%TO.N,/DAC5/OUT+*%
X538399999Y-139195001D02*
X538399999Y-136245001D01*
X540399999Y-141195001D02*
X538399999Y-139195001D01*
D32*
X541118856Y-132588000D02*
X541118856Y-133531142D01*
X541118856Y-133531142D02*
X538400000Y-136250000D01*
D34*
X584899999Y-141195001D02*
X540399999Y-141195001D01*
X587399999Y-143695001D02*
X584899999Y-141195001D01*
D33*
X540768857Y-130550500D02*
X540768857Y-132538000D01*
D32*
%TO.N,/DAC6/OUT-*%
X660900000Y-136250000D02*
X663244571Y-133905429D01*
X663244571Y-132588000D02*
X663244571Y-133905429D01*
D34*
X709400000Y-140445001D02*
X709400000Y-143695001D01*
X707900000Y-138945001D02*
X709400000Y-140445001D01*
X663600000Y-138945001D02*
X707900000Y-138945001D01*
X660900000Y-136245001D02*
X663600000Y-138945001D01*
D32*
X663394571Y-132513000D02*
X663394571Y-130713000D01*
%TO.N,/DAC7/OUT-*%
X782986286Y-134163714D02*
X782986286Y-132717999D01*
D34*
X780900000Y-136245001D02*
X783600000Y-138945001D01*
D32*
X783266286Y-132513000D02*
X783266286Y-130713000D01*
X782986286Y-132717999D02*
X783116286Y-132588000D01*
D34*
X783600000Y-138945001D02*
X827900000Y-138945001D01*
D32*
X780900000Y-136250000D02*
X782986286Y-134163714D01*
D34*
X829400000Y-140445001D02*
X829400000Y-143695001D01*
X827900000Y-138945001D02*
X829400000Y-140445001D01*
D32*
%TO.N,/DAC6/OUT+*%
X658400000Y-136250000D02*
X658400000Y-136030571D01*
D34*
X660400000Y-141195001D02*
X658400000Y-139195001D01*
D32*
X658400000Y-136030571D02*
X661244571Y-133186000D01*
D33*
X660894571Y-130550500D02*
X660894571Y-132538000D01*
D34*
X658400000Y-139195001D02*
X658400000Y-136245001D01*
X704900000Y-141195001D02*
X660400000Y-141195001D01*
X707400000Y-143695001D02*
X704900000Y-141195001D01*
D32*
X661244571Y-133186000D02*
X661244571Y-132588000D01*
%TO.N,/DAC7/OUT+*%
X780986286Y-132717999D02*
X780986286Y-133663714D01*
D34*
X824900000Y-141195001D02*
X780400000Y-141195001D01*
X827400000Y-143695001D02*
X824900000Y-141195001D01*
D32*
X781116286Y-132588000D02*
X780986286Y-132717999D01*
X780986286Y-133663714D02*
X778400000Y-136250000D01*
D34*
X780400000Y-141195001D02*
X778400000Y-139195001D01*
X778400000Y-139195001D02*
X778400000Y-136245001D01*
D33*
X780952286Y-130736500D02*
X780952286Y-132352000D01*
D32*
%TO.N,/Pin_35*%
X999517310Y-120151596D02*
X1006992354Y-112676553D01*
X66635765Y-112300000D02*
X66635765Y-112677000D01*
X74168000Y-120209235D02*
X999459671Y-120209235D01*
X66635765Y-112677000D02*
X74168000Y-120209235D01*
X999460119Y-120208788D02*
X999517310Y-120151596D01*
X999459671Y-120209235D02*
X999517310Y-120151596D01*
X1006992354Y-112676553D02*
X1006992354Y-112299553D01*
%TO.N,/Pin_27*%
X998541182Y-106523118D02*
X74070883Y-106523118D01*
X1006992354Y-102139553D02*
X1003940354Y-102139553D01*
X1003940354Y-102139553D02*
X999557236Y-106522671D01*
X69687765Y-102140000D02*
X66635765Y-102140000D01*
X998541629Y-106522671D02*
X998541182Y-106523118D01*
X999557236Y-106522671D02*
X998541629Y-106522671D01*
X74070883Y-106523118D02*
X69687765Y-102140000D01*
%TO.N,/Pin_7*%
X998541629Y-74018141D02*
X999400354Y-74018141D01*
X74227765Y-74018588D02*
X74123176Y-74123176D01*
X74123176Y-74123176D02*
X71506353Y-76740000D01*
X71506353Y-76740000D02*
X66635765Y-76740000D01*
X1002121766Y-76739553D02*
X1006992354Y-76739553D01*
X74227764Y-74018588D02*
X998541182Y-74018588D01*
X998541182Y-74018588D02*
X998541629Y-74018141D01*
X999400354Y-74018141D02*
X1002121766Y-76739553D01*
X74123176Y-74123176D02*
X74227764Y-74018588D01*
%TO.N,/Pin_23*%
X999478348Y-99680059D02*
X1002098854Y-97059553D01*
X66635765Y-97060000D02*
X71529265Y-97060000D01*
X74149324Y-99680059D02*
X999478348Y-99680059D01*
X1002098854Y-97059553D02*
X1006992354Y-97059553D01*
X71529265Y-97060000D02*
X74149324Y-99680059D01*
%TO.N,/Pin_20*%
X1008354354Y-90801553D02*
X1009532354Y-91979553D01*
X72065765Y-90802000D02*
X74100765Y-92837000D01*
X74100765Y-92837000D02*
X999526907Y-92837000D01*
X999526907Y-92837000D02*
X1001562354Y-90801553D01*
X65273765Y-90802000D02*
X72065765Y-90802000D01*
X1001562354Y-90801553D02*
X1008354354Y-90801553D01*
X64095765Y-91980000D02*
X65273765Y-90802000D01*
%TO.N,/Pin_17*%
X74168000Y-91126235D02*
X72481765Y-89440000D01*
X72481765Y-89440000D02*
X66635765Y-89440000D01*
X999460119Y-91125788D02*
X998541629Y-91125788D01*
X1001146354Y-89439553D02*
X999460119Y-91125788D01*
X998541629Y-91125788D02*
X998541182Y-91126235D01*
X1006992354Y-89439553D02*
X1001146354Y-89439553D01*
X998541182Y-91126235D02*
X74168000Y-91126235D01*
%TO.N,/Pin_15*%
X66635765Y-86900000D02*
X73370765Y-86900000D01*
X998541629Y-87704259D02*
X998541182Y-87704706D01*
X1006992354Y-86899553D02*
X1000257354Y-86899553D01*
X998541182Y-87704706D02*
X74481765Y-87704706D01*
X73370765Y-86900000D02*
X74175471Y-87704706D01*
X1000257354Y-86899553D02*
X999452648Y-87704259D01*
X999146354Y-87704259D02*
X998541629Y-87704259D01*
X999400354Y-87704259D02*
X999146354Y-87704259D01*
X999452648Y-87704259D02*
X999146354Y-87704259D01*
X74227765Y-87704706D02*
X74481765Y-87704706D01*
X74175471Y-87704706D02*
X74481765Y-87704706D01*
%TO.N,VCC*%
X57937333Y-110409333D02*
X58552011Y-109794655D01*
X57556000Y-110790666D02*
X57937333Y-110409333D01*
D35*
X66095000Y-59000000D02*
X68037500Y-59000000D01*
D32*
X54627000Y-107451631D02*
X55370768Y-108195399D01*
D35*
X68037500Y-59000000D02*
X73443500Y-53594000D01*
D32*
X55370768Y-108195399D02*
X56812624Y-108195399D01*
D35*
X62103000Y-67310000D02*
X62103000Y-62992000D01*
X1012965714Y-63750000D02*
X1012965714Y-113940000D01*
X1002809714Y-53594000D02*
X1012965714Y-63750000D01*
D32*
X56387600Y-80320700D02*
X56880223Y-80320700D01*
X57853941Y-89379659D02*
X57853941Y-87886059D01*
D35*
X1012965714Y-113940000D02*
X1009505714Y-117400000D01*
D32*
X58552011Y-109794655D02*
X58993601Y-109794655D01*
X59009000Y-87541500D02*
X59009000Y-86550000D01*
X57864601Y-110336601D02*
X57937333Y-110409333D01*
X58936000Y-87614500D02*
X59009000Y-87541500D01*
X56880223Y-80320700D02*
X57566323Y-79634600D01*
X56343601Y-113266782D02*
X57556000Y-112054383D01*
D35*
X60325500Y-69087500D02*
X62103000Y-67310000D01*
X61112000Y-72436000D02*
X60325500Y-71649500D01*
D32*
X57853941Y-87886059D02*
X58125500Y-87614500D01*
X56387600Y-90846000D02*
X56662000Y-90846000D01*
X59066601Y-109721655D02*
X59066601Y-108730155D01*
X57556000Y-112054383D02*
X57556000Y-110790666D01*
X56343601Y-113387601D02*
X56343601Y-113266782D01*
X54627000Y-104366951D02*
X54627000Y-107451631D01*
X60873000Y-116244506D02*
X59200506Y-116244506D01*
D35*
X60325500Y-71649500D02*
X60325500Y-69087500D01*
X62103000Y-62992000D02*
X66095000Y-59000000D01*
D32*
X58993601Y-109794655D02*
X59066601Y-109721655D01*
X56387600Y-90846000D02*
X57853941Y-89379659D01*
D35*
X61620000Y-74584600D02*
X61112000Y-74076600D01*
D32*
X57864601Y-109247376D02*
X57864601Y-110336601D01*
X58125500Y-87614500D02*
X58936000Y-87614500D01*
X56662000Y-90846000D02*
X57556000Y-91740000D01*
X56540000Y-102453951D02*
X54627000Y-104366951D01*
D35*
X61112000Y-74076600D02*
X61112000Y-72436000D01*
D32*
X56812624Y-108195399D02*
X57864601Y-109247376D01*
D35*
X1007441363Y-117827601D02*
X1008972294Y-116943718D01*
X73443500Y-53594000D02*
X1002809714Y-53594000D01*
D32*
X59200506Y-116244506D02*
X56343601Y-113387601D01*
%TO.N,BCLK*%
X295369428Y-124242000D02*
X296349929Y-125222500D01*
X175776714Y-124071000D02*
X175776714Y-124524500D01*
D34*
X58743441Y-89034909D02*
X58743441Y-90727841D01*
X59349200Y-91333600D02*
X59588000Y-91572400D01*
D32*
X776380286Y-124460000D02*
X776578786Y-124658500D01*
X415640713Y-124206000D02*
X416735213Y-125300500D01*
X896117000Y-124071000D02*
X896704500Y-124658500D01*
X59137591Y-125139409D02*
X59552500Y-124724500D01*
X415495142Y-124206000D02*
X415640713Y-124206000D01*
X895744000Y-124071000D02*
X896117000Y-124071000D01*
X655746571Y-124714000D02*
X656517444Y-124714000D01*
D34*
X59588000Y-91572400D02*
X59588000Y-94280000D01*
D32*
X775872286Y-124460000D02*
X776380286Y-124460000D01*
X656517444Y-124714000D02*
X656707071Y-124903627D01*
X776578786Y-124658500D02*
X776578786Y-125300500D01*
X656707071Y-124903627D02*
X656707071Y-125300500D01*
X57809167Y-125139409D02*
X59137591Y-125139409D01*
X535874857Y-124460000D02*
X535874857Y-124594000D01*
X57420000Y-126769900D02*
X57420000Y-125528576D01*
X175776714Y-124524500D02*
X176558214Y-125306000D01*
X295369428Y-124206000D02*
X295369428Y-124242000D01*
X896704500Y-124658500D02*
X896704500Y-125300500D01*
D34*
X58743441Y-90727841D02*
X59349200Y-91333600D01*
D32*
X57420000Y-125528576D02*
X57809167Y-125139409D01*
X535874857Y-124594000D02*
X536581357Y-125300500D01*
%TO.N,/Pin_30*%
X999631495Y-111655412D02*
X73996178Y-111655412D01*
X73996178Y-111655412D02*
X73816883Y-111476117D01*
X1008293907Y-105918000D02*
X1005368907Y-105918000D01*
X73816883Y-111476117D02*
X73996177Y-111655412D01*
X64095765Y-104680000D02*
X65273765Y-105858000D01*
X1005368907Y-105918000D02*
X999631495Y-111655412D01*
X65273765Y-105858000D02*
X68198765Y-105858000D01*
X1009532354Y-104679553D02*
X1008293907Y-105918000D01*
X68198765Y-105858000D02*
X73816883Y-111476117D01*
%TO.N,/Pin_18*%
X1008230354Y-88137553D02*
X1009532354Y-89439553D01*
X72830765Y-88138000D02*
X74108236Y-89415471D01*
X1000797354Y-88137553D02*
X1008230354Y-88137553D01*
X65397765Y-88138000D02*
X72830765Y-88138000D01*
X64095765Y-89440000D02*
X65397765Y-88138000D01*
X999519436Y-89415471D02*
X1000797354Y-88137553D01*
X74108236Y-89415471D02*
X999519436Y-89415471D01*
%TO.N,/Pin_26*%
X65273765Y-100778000D02*
X64095765Y-99600000D01*
X70045737Y-100778000D02*
X65273765Y-100778000D01*
X1003521935Y-100838000D02*
X999547582Y-104812353D01*
X1008293907Y-100838000D02*
X1003521935Y-100838000D01*
X1009532354Y-99599553D02*
X1008293907Y-100838000D01*
X74080090Y-104812353D02*
X70045737Y-100778000D01*
X999547582Y-104812353D02*
X74080090Y-104812353D01*
%TO.N,/Pin_13*%
X76708000Y-84283176D02*
X1006868890Y-84283176D01*
X76708000Y-84283176D02*
X76631176Y-84360000D01*
X76631176Y-84360000D02*
X66635765Y-84360000D01*
X1006915530Y-84282729D02*
X1006992354Y-84359553D01*
X1006868890Y-84283176D02*
X1006965714Y-84380000D01*
%TO.N,/Pin_19*%
X998541629Y-94547318D02*
X998541182Y-94547765D01*
X1002162354Y-91979553D02*
X999594589Y-94547318D01*
X999594589Y-94547318D02*
X998541629Y-94547318D01*
X998541182Y-94547765D02*
X74033530Y-94547765D01*
X1006992354Y-91979553D02*
X1002162354Y-91979553D01*
X74033530Y-94547765D02*
X71465765Y-91980000D01*
X71465765Y-91980000D02*
X66635765Y-91980000D01*
%TO.N,/Pin_2*%
X65939265Y-67437000D02*
X64256265Y-69120000D01*
X1008630714Y-67310000D02*
X1004185714Y-67310000D01*
X64256265Y-69120000D02*
X64095765Y-69120000D01*
X68385765Y-67437000D02*
X65939265Y-67437000D01*
X1009532354Y-69119553D02*
X1009532354Y-68211640D01*
X1004185714Y-67310000D02*
X1000629714Y-63754000D01*
X72068765Y-63754000D02*
X68385765Y-67437000D01*
X1000629714Y-63754000D02*
X72068765Y-63754000D01*
X1009532354Y-68211640D02*
X1008630714Y-67310000D01*
%TO.N,/Pin_10*%
X999146354Y-75728906D02*
X998541629Y-75728906D01*
X65457765Y-77918000D02*
X64095765Y-79280000D01*
X998541182Y-75729353D02*
X74190412Y-75729353D01*
X1001813801Y-78105000D02*
X1008357801Y-78105000D01*
X998541629Y-75728906D02*
X998541182Y-75729353D01*
X1008357801Y-78105000D02*
X1009532354Y-79279553D01*
X999146354Y-75728906D02*
X999437707Y-75728906D01*
X999437707Y-75728906D02*
X1001813801Y-78105000D01*
X72001765Y-77918000D02*
X65457765Y-77918000D01*
X74190412Y-75729353D02*
X72001765Y-77918000D01*
X999400354Y-75728906D02*
X999146354Y-75728906D01*
%TO.N,/Pin_24*%
X998541182Y-101390824D02*
X74018590Y-101390824D01*
X74018590Y-101390824D02*
X73880383Y-101252617D01*
X70865765Y-98238000D02*
X73880383Y-101252617D01*
X1009532354Y-97059553D02*
X1008166907Y-98425000D01*
X73880383Y-101252617D02*
X74018589Y-101390824D01*
X1002574907Y-98425000D02*
X999609530Y-101390377D01*
X64095765Y-97060000D02*
X65273765Y-98238000D01*
X65273765Y-98238000D02*
X70865765Y-98238000D01*
X999609530Y-101390377D02*
X998541629Y-101390377D01*
X1008166907Y-98425000D02*
X1002574907Y-98425000D01*
X998541629Y-101390377D02*
X998541182Y-101390824D01*
%TO.N,/Pin_29*%
X999564260Y-109944647D02*
X1004829354Y-104679553D01*
X66635765Y-104680000D02*
X68798765Y-104680000D01*
X74063412Y-109944647D02*
X999564260Y-109944647D01*
X68798765Y-104680000D02*
X74063412Y-109944647D01*
X1004829354Y-104679553D02*
X1006992354Y-104679553D01*
%TO.N,/Pin_36*%
X64095765Y-112300000D02*
X65273765Y-113478000D01*
X1005114907Y-116205000D02*
X1007614714Y-116205000D01*
X65273765Y-115143944D02*
X66147821Y-116018000D01*
X777040286Y-121920000D02*
X998541182Y-121920000D01*
X1008249714Y-113582193D02*
X1009532354Y-112299553D01*
X998541629Y-121919553D02*
X999400354Y-121919553D01*
X74227765Y-121920000D02*
X777040286Y-121920000D01*
X68325765Y-116018000D02*
X74227765Y-121920000D01*
X999400354Y-121919553D02*
X1005114907Y-116205000D01*
X65273765Y-113478000D02*
X65273765Y-115143944D01*
X998541182Y-121920000D02*
X998541629Y-121919553D01*
X1007614714Y-116205000D02*
X1008249714Y-115570000D01*
X1008249714Y-115570000D02*
X1008249714Y-113582193D01*
X66147821Y-116018000D02*
X68325765Y-116018000D01*
%TO.N,/Pin_21*%
X67365765Y-95250000D02*
X66635765Y-94520000D01*
X71306765Y-95250000D02*
X67365765Y-95250000D01*
X1006262354Y-95249553D02*
X1002321354Y-95249553D01*
X998541629Y-97968847D02*
X998541182Y-97969294D01*
X1002321354Y-95249553D02*
X999602060Y-97968847D01*
X1006992354Y-94519553D02*
X1006262354Y-95249553D01*
X531079735Y-97969294D02*
X531057323Y-97946882D01*
X998541182Y-97969294D02*
X74026059Y-97969294D01*
X531200856Y-97969294D02*
X531079735Y-97969294D01*
X74026059Y-97969294D02*
X71306765Y-95250000D01*
X999602060Y-97968847D02*
X998541629Y-97968847D01*
%TO.N,/Pin_22*%
X1009532354Y-94519553D02*
X1008230354Y-93217553D01*
X71052765Y-93218000D02*
X65397765Y-93218000D01*
X65397765Y-93218000D02*
X64095765Y-94520000D01*
X1002575354Y-93217553D02*
X999534378Y-96258529D01*
X1008230354Y-93217553D02*
X1002575354Y-93217553D01*
X999534378Y-96258529D02*
X74093294Y-96258529D01*
X74093294Y-96258529D02*
X71052765Y-93218000D01*
%TO.N,/Pin_11*%
X998541629Y-80861200D02*
X999400354Y-80861200D01*
X998541182Y-80861647D02*
X998541629Y-80861200D01*
X66635765Y-81820000D02*
X73269412Y-81820000D01*
X73269412Y-81820000D02*
X74227765Y-80861647D01*
X1000358707Y-81819553D02*
X1006992354Y-81819553D01*
X74227765Y-80861647D02*
X998541182Y-80861647D01*
X999400354Y-80861200D02*
X1000358707Y-81819553D01*
%TO.N,LRBCLK*%
X537581357Y-124834016D02*
X537581357Y-125300500D01*
X177558214Y-124839516D02*
X177558214Y-125306000D01*
X59254401Y-111979293D02*
X58691101Y-111415993D01*
X659288571Y-124560000D02*
X657981087Y-124560000D01*
X779224286Y-124250000D02*
X778162802Y-124250000D01*
X58723416Y-126000000D02*
X58420000Y-126303416D01*
X297462055Y-124482000D02*
X297349929Y-124594127D01*
X59685000Y-126000000D02*
X60253000Y-126000000D01*
X539607857Y-125125000D02*
X539042856Y-124560000D01*
X659978571Y-125250000D02*
X659288571Y-124560000D01*
X537855373Y-124560000D02*
X537581357Y-124834016D01*
X657707071Y-124834016D02*
X657707071Y-125300500D01*
X178561214Y-124565500D02*
X177832230Y-124565500D01*
X60253000Y-126000000D02*
X61500000Y-124753000D01*
X539042856Y-124560000D02*
X537855373Y-124560000D01*
X298723429Y-124482000D02*
X297462055Y-124482000D01*
X897704500Y-124834016D02*
X897704500Y-125300500D01*
X58420000Y-126303416D02*
X58420000Y-126769900D01*
X59685000Y-126000000D02*
X58723416Y-126000000D01*
X418009229Y-124560000D02*
X417735213Y-124834016D01*
X417735213Y-124834016D02*
X417735213Y-125300500D01*
X297349929Y-124594127D02*
X297349929Y-125222500D01*
X179245714Y-125250000D02*
X178561214Y-124565500D01*
X657981087Y-124560000D02*
X657707071Y-124834016D01*
X419047142Y-124560000D02*
X418009229Y-124560000D01*
X299491429Y-125250000D02*
X298723429Y-124482000D01*
X898038516Y-124500000D02*
X897704500Y-124834016D01*
X778162802Y-124250000D02*
X777578786Y-124834016D01*
X59254401Y-113620701D02*
X59254401Y-111979293D01*
X177832230Y-124565500D02*
X177558214Y-124839516D01*
X777578786Y-124834016D02*
X777578786Y-125300500D01*
X61500000Y-115866300D02*
X59254401Y-113620701D01*
X419737142Y-125250000D02*
X419047142Y-124560000D01*
X899970000Y-124500000D02*
X898038516Y-124500000D01*
X61500000Y-124753000D02*
X61500000Y-115866300D01*
%TO.N,/Pin_28*%
X998541182Y-108233882D02*
X74003647Y-108233882D01*
X74003647Y-108233882D02*
X69087765Y-103318000D01*
X998541629Y-108233435D02*
X998541182Y-108233882D01*
X1004352907Y-103505000D02*
X999624472Y-108233435D01*
X1009532354Y-102139553D02*
X1008166907Y-103505000D01*
X1008166907Y-103505000D02*
X1004352907Y-103505000D01*
X65273765Y-103318000D02*
X64095765Y-102140000D01*
X69087765Y-103318000D02*
X65273765Y-103318000D01*
X999624472Y-108233435D02*
X998541629Y-108233435D01*
%TO.N,/Pin_34*%
X998971243Y-118498471D02*
X1006471714Y-110998000D01*
X67813765Y-111812056D02*
X67123709Y-111122000D01*
X67123709Y-111122000D02*
X65457765Y-111122000D01*
X67813765Y-112204000D02*
X67813765Y-111812056D01*
X74108236Y-118498471D02*
X998971243Y-118498471D01*
X1008293907Y-110998000D02*
X1006471714Y-110998000D01*
X1009532354Y-109759553D02*
X1008293907Y-110998000D01*
X74108236Y-118498471D02*
X67813765Y-112204000D01*
X65457765Y-111122000D02*
X64095765Y-109760000D01*
%TO.N,/Pin_14*%
X999273354Y-82571965D02*
X999549766Y-82571965D01*
X999273354Y-82571965D02*
X998541629Y-82571965D01*
X998541629Y-82571965D02*
X998541182Y-82572412D01*
X1008357801Y-83185000D02*
X1009532354Y-84359553D01*
X999549766Y-82571965D02*
X1000162801Y-83185000D01*
X999400354Y-82571965D02*
X999273354Y-82571965D01*
X1000162801Y-83185000D02*
X1008357801Y-83185000D01*
X74227765Y-82572412D02*
X74354765Y-82572412D01*
X73652765Y-82998000D02*
X65457765Y-82998000D01*
X74078353Y-82572412D02*
X73652765Y-82998000D01*
X74354765Y-82572412D02*
X74078353Y-82572412D01*
X65457765Y-82998000D02*
X64095765Y-84360000D01*
X998541182Y-82572412D02*
X74354765Y-82572412D01*
%TO.N,/Pin_8*%
X999400354Y-72307377D02*
X999399907Y-72307824D01*
X1008230801Y-75438000D02*
X1002530977Y-75438000D01*
X65273765Y-75562000D02*
X64095765Y-76740000D01*
X70973589Y-75562000D02*
X65273765Y-75562000D01*
X999399907Y-72307824D02*
X74227765Y-72307824D01*
X74227765Y-72307824D02*
X70973589Y-75562000D01*
X1002530977Y-75438000D02*
X999400354Y-72307377D01*
X1009532354Y-76739553D02*
X1008230801Y-75438000D01*
%TO.N,/Pin_6*%
X64095765Y-74200000D02*
X65273765Y-73022000D01*
X70092059Y-73022000D02*
X74227765Y-68886294D01*
X1003412507Y-72898000D02*
X1008230801Y-72898000D01*
X999400801Y-68886294D02*
X1003412507Y-72898000D01*
X65273765Y-73022000D02*
X70092059Y-73022000D01*
X74227765Y-68886294D02*
X999400801Y-68886294D01*
X1008230801Y-72898000D02*
X1009532354Y-74199553D01*
%TO.N,/Pin_31*%
X67909765Y-107220000D02*
X66635765Y-107220000D01*
X1006992354Y-107219553D02*
X1005718354Y-107219553D01*
X74055941Y-113366176D02*
X67909765Y-107220000D01*
X999571731Y-113366176D02*
X74055941Y-113366176D01*
X1005718354Y-107219553D02*
X999571731Y-113366176D01*
%TO.N,/Pin_25*%
X70576765Y-99600000D02*
X74078353Y-103101588D01*
X74078353Y-103101588D02*
X999549319Y-103101588D01*
X1003051354Y-99599553D02*
X1006992354Y-99599553D01*
X66635765Y-99600000D02*
X70576765Y-99600000D01*
X999549319Y-103101588D02*
X1003051354Y-99599553D01*
%TO.N,/Pin_16*%
X73843765Y-85722000D02*
X74115706Y-85993941D01*
X65273765Y-85722000D02*
X73843765Y-85722000D01*
X999784354Y-85721553D02*
X1008354354Y-85721553D01*
X1008354354Y-85721553D02*
X1009532354Y-86899553D01*
X999511966Y-85993941D02*
X999784354Y-85721553D01*
X64095765Y-86900000D02*
X65273765Y-85722000D01*
X74115706Y-85993941D02*
X999511966Y-85993941D01*
%TO.N,/Pin_32*%
X65273765Y-108398000D02*
X67436765Y-108398000D01*
X1006130907Y-108458000D02*
X999511966Y-115076941D01*
X999511966Y-115076941D02*
X74115705Y-115076941D01*
X74007382Y-114968618D02*
X74115706Y-115076941D01*
X1008293907Y-108458000D02*
X1006130907Y-108458000D01*
X67436765Y-108398000D02*
X74007382Y-114968618D01*
X64095765Y-107220000D02*
X65273765Y-108398000D01*
X74115705Y-115076941D02*
X74007382Y-114968618D01*
X1009532354Y-107219553D02*
X1008293907Y-108458000D01*
%TO.N,/Pin_9*%
X66635765Y-79280000D02*
X72387883Y-79280000D01*
X999399907Y-77440118D02*
X74227764Y-77440118D01*
X999400354Y-77439671D02*
X999399907Y-77440118D01*
X1001240236Y-79279553D02*
X999400354Y-77439671D01*
X72387883Y-79280000D02*
X74119441Y-77548441D01*
X1006992354Y-79279553D02*
X1001240236Y-79279553D01*
X74119441Y-77548441D02*
X74227765Y-77440118D01*
X74227764Y-77440118D02*
X74119441Y-77548441D01*
%TO.N,/Pin_33*%
X73921471Y-116787706D02*
X73880383Y-116746617D01*
X1006734354Y-109759553D02*
X1006992354Y-109759553D01*
X999706201Y-116787706D02*
X1006734354Y-109759553D01*
X73880383Y-116746617D02*
X73921472Y-116787706D01*
X73921472Y-116787706D02*
X999706201Y-116787706D01*
X66893765Y-109760000D02*
X66635765Y-109760000D01*
X73880383Y-116746617D02*
X66893765Y-109760000D01*
%TO.N,/Pin_12*%
X999273354Y-79150435D02*
X999557236Y-79150435D01*
X72763765Y-80458000D02*
X65457765Y-80458000D01*
X998541629Y-79150435D02*
X998541182Y-79150882D01*
X999400354Y-79150435D02*
X999273354Y-79150435D01*
X1000924801Y-80518000D02*
X1008230801Y-80518000D01*
X65457765Y-80458000D02*
X64095765Y-81820000D01*
X1008230801Y-80518000D02*
X1009532354Y-81819553D01*
X999273354Y-79150435D02*
X998541629Y-79150435D01*
X998541182Y-79150882D02*
X74070883Y-79150882D01*
X74070883Y-79150882D02*
X72763765Y-80458000D01*
X999557236Y-79150435D02*
X1000924801Y-80518000D01*
%TO.N,/DAC6/MODE*%
X655746571Y-127761000D02*
X656019571Y-127488000D01*
X655746571Y-128524000D02*
X655746571Y-127761000D01*
%TO.N,/DAC7/MODE*%
X775364286Y-129286000D02*
X775364286Y-128014999D01*
X775364286Y-128014999D02*
X775891286Y-127488000D01*
%TO.N,DIN*%
X536636856Y-123444000D02*
X416593886Y-123444000D01*
X905523000Y-123444000D02*
X894220000Y-123444000D01*
X533334856Y-123444000D02*
X535878856Y-125988000D01*
X657334944Y-123444000D02*
X536636856Y-123444000D01*
X55630000Y-127457400D02*
X56732500Y-127457400D01*
X773508628Y-123444000D02*
X777016159Y-123444000D01*
X905717000Y-123250000D02*
X905523000Y-123444000D01*
X63017000Y-127935000D02*
X63371600Y-127580400D01*
X63371600Y-127580400D02*
X66826000Y-127580400D01*
X416593886Y-123444000D02*
X297147429Y-123444000D01*
X655496571Y-125988000D02*
X656019571Y-125988000D01*
X174760714Y-123952000D02*
X175268714Y-123444000D01*
X67843000Y-124785400D02*
X69184400Y-123444000D01*
X297147429Y-123444000D02*
X293196428Y-123444000D01*
X535878856Y-125988000D02*
X535893857Y-125988000D01*
X775891286Y-125988000D02*
X775887286Y-125984000D01*
X175253214Y-125993500D02*
X174760714Y-125501000D01*
X175870714Y-125993500D02*
X175253214Y-125993500D01*
X536636856Y-123444000D02*
X533334856Y-123444000D01*
X653636913Y-123444000D02*
X655171571Y-124978658D01*
X777016159Y-123444000D02*
X894220000Y-123444000D01*
X896017000Y-125988000D02*
X895236000Y-125207000D01*
X775364286Y-125984000D02*
X775043286Y-125663000D01*
X895236000Y-125207000D02*
X895236000Y-124460000D01*
X416593886Y-123444000D02*
X413503713Y-123444000D01*
X775887286Y-125984000D02*
X775364286Y-125984000D01*
X777016159Y-123444000D02*
X657334944Y-123444000D01*
X657334944Y-123444000D02*
X653636913Y-123444000D01*
X67843000Y-126563400D02*
X67843000Y-124785400D01*
X55630000Y-127457400D02*
X55626000Y-127453400D01*
X895236000Y-124460000D02*
X894220000Y-123444000D01*
X775043286Y-125663000D02*
X775043286Y-124978658D01*
X655171571Y-124978658D02*
X655171571Y-125663000D01*
X655171571Y-125663000D02*
X655496571Y-125988000D01*
X66826000Y-127580400D02*
X67843000Y-126563400D01*
X293196428Y-123444000D02*
X295662429Y-125910000D01*
X775043286Y-124978658D02*
X773508628Y-123444000D01*
X69184400Y-123444000D02*
X297147429Y-123444000D01*
X174760714Y-125501000D02*
X174760714Y-123952000D01*
X906818400Y-123250000D02*
X905717000Y-123250000D01*
X413503713Y-123444000D02*
X416047713Y-125988000D01*
%TO.N,/DAC4/GAIN*%
X413295213Y-125283500D02*
X413453213Y-125125500D01*
X414170213Y-125125500D02*
X415532713Y-126488000D01*
X413453213Y-125125500D02*
X414170213Y-125125500D01*
X415532713Y-126488000D02*
X416047713Y-126488000D01*
%TO.N,/Pin_4*%
X1008230801Y-70358000D02*
X1009532354Y-71659553D01*
X1004734801Y-70358000D02*
X1008230801Y-70358000D01*
X999273354Y-65464318D02*
X999841119Y-65464318D01*
X73787000Y-65464765D02*
X999272907Y-65464765D01*
X68953765Y-70298000D02*
X65457765Y-70298000D01*
X65457765Y-70298000D02*
X64095765Y-71660000D01*
X73787000Y-65464765D02*
X68953765Y-70298000D01*
X999841119Y-65464318D02*
X1004734801Y-70358000D01*
X999272907Y-65464765D02*
X999273354Y-65464318D01*
D34*
%TO.N,/DAC8/OUT-*%
X903600000Y-138945000D02*
X947900000Y-138945000D01*
D32*
X903392000Y-132513000D02*
X903392000Y-130713000D01*
D34*
X900900000Y-136245000D02*
X903600000Y-138945000D01*
X949400000Y-140445000D02*
X949400000Y-143695000D01*
X947900000Y-138945000D02*
X949400000Y-140445000D01*
D32*
X903242000Y-132588000D02*
X903242000Y-133868000D01*
X903242000Y-133868000D02*
X900900000Y-136210000D01*
%TO.N,/DAC8/OUT+*%
X901242000Y-132588000D02*
X901242000Y-133368000D01*
D33*
X900892000Y-130550500D02*
X900892000Y-132538000D01*
D32*
X901242000Y-133368000D02*
X898400000Y-136210000D01*
D34*
X947400000Y-143695000D02*
X944900000Y-141195000D01*
X900400000Y-141195000D02*
X898400000Y-139195000D01*
X898400000Y-139195000D02*
X898400000Y-136245000D01*
X944900000Y-141195000D02*
X900400000Y-141195000D01*
D32*
%TO.N,/DAC8/MODE*%
X894656658Y-129750000D02*
X896017000Y-128389658D01*
X896017000Y-128389658D02*
X896017000Y-127488000D01*
X893720000Y-129750000D02*
X894656658Y-129750000D01*
%TO.N,/DAC5/GAIN*%
X534892356Y-126488000D02*
X535893857Y-126488000D01*
X533687857Y-125283500D02*
X534892356Y-126488000D01*
%TO.N,Net-(U2-OUTP)*%
X60470000Y-128957400D02*
X61607500Y-130094900D01*
X59607500Y-128957400D02*
X60470000Y-128957400D01*
%TO.N,Net-(U2-OUTN)*%
X61147097Y-128457400D02*
X61143362Y-128461135D01*
X62507500Y-128457400D02*
X61147097Y-128457400D01*
X60619373Y-128457400D02*
X59607500Y-128457400D01*
X61143362Y-128461135D02*
X60623108Y-128461135D01*
X64107500Y-130057400D02*
X62507500Y-128457400D01*
X60623108Y-128461135D02*
X60619373Y-128457400D01*
%TO.N,Net-(U3-OUTP)*%
X178745714Y-127493500D02*
X179608214Y-127493500D01*
X179608214Y-127493500D02*
X180745714Y-128631000D01*
%TO.N,Net-(U3-OUTN)*%
X181645714Y-126993500D02*
X180285311Y-126993500D01*
X180281576Y-126997235D02*
X179761322Y-126997235D01*
X180285311Y-126993500D02*
X180281576Y-126997235D01*
X183245714Y-128593500D02*
X181645714Y-126993500D01*
X179761322Y-126997235D02*
X179757587Y-126993500D01*
X179757587Y-126993500D02*
X178745714Y-126993500D01*
%TO.N,Net-(U4-OUTP)*%
X299399929Y-127410000D02*
X300537429Y-128547500D01*
X298537429Y-127410000D02*
X299399929Y-127410000D01*
%TO.N,Net-(U4-OUTN)*%
X299549302Y-126910000D02*
X298537429Y-126910000D01*
X300073291Y-126913735D02*
X299553037Y-126913735D01*
X303037429Y-128509999D02*
X301437428Y-126910000D01*
X300077026Y-126910000D02*
X300073291Y-126913735D01*
X301437428Y-126910000D02*
X300077026Y-126910000D01*
X299553037Y-126913735D02*
X299549302Y-126910000D01*
%TO.N,Net-(U5-OUTP)*%
X418922713Y-127488000D02*
X419785213Y-127488000D01*
X419785213Y-127488000D02*
X420922713Y-128625499D01*
%TO.N,Net-(U5-OUTN)*%
X419938322Y-126991735D02*
X419934586Y-126988000D01*
X421822713Y-126988000D02*
X420462310Y-126988000D01*
X420458575Y-126991735D02*
X419938322Y-126991735D01*
X423422713Y-128588000D02*
X421822713Y-126988000D01*
X420462310Y-126988000D02*
X420458575Y-126991735D01*
X419934586Y-126988000D02*
X418922713Y-126988000D01*
%TO.N,Net-(U6-OUTP)*%
X539631357Y-127488000D02*
X540768857Y-128625499D01*
X538768857Y-127488000D02*
X539631357Y-127488000D01*
%TO.N,Net-(U6-OUTN)*%
X539780730Y-126988000D02*
X538768857Y-126988000D01*
X540308454Y-126988000D02*
X540304719Y-126991735D01*
X543268857Y-128588000D02*
X541668857Y-126988000D01*
X540304719Y-126991735D02*
X539784465Y-126991735D01*
X541668857Y-126988000D02*
X540308454Y-126988000D01*
X539784465Y-126991735D02*
X539780730Y-126988000D01*
%TO.N,Net-(U7-OUTP)*%
X658894571Y-127488000D02*
X659757071Y-127488000D01*
X659757071Y-127488000D02*
X660894571Y-128625499D01*
%TO.N,Net-(U7-OUTN)*%
X660430433Y-126991735D02*
X659910179Y-126991735D01*
X663394571Y-128588000D02*
X661794571Y-126988000D01*
X659910179Y-126991735D02*
X659906444Y-126988000D01*
X661794571Y-126988000D02*
X660434168Y-126988000D01*
X660434168Y-126988000D02*
X660430433Y-126991735D01*
X659906444Y-126988000D02*
X658894571Y-126988000D01*
%TO.N,Net-(U8-OUTP)*%
X778766286Y-127488000D02*
X779628786Y-127488000D01*
X779628786Y-127488000D02*
X780766286Y-128625499D01*
%TO.N,Net-(U8-OUTN)*%
X779778159Y-126988000D02*
X778766286Y-126988000D01*
X780305883Y-126988000D02*
X780302148Y-126991735D01*
X779781894Y-126991735D02*
X779778159Y-126988000D01*
X780302148Y-126991735D02*
X779781894Y-126991735D01*
X781666286Y-126988000D02*
X780305883Y-126988000D01*
X783266286Y-128588000D02*
X781666286Y-126988000D01*
%TO.N,Net-(U9-OUTP)*%
X898892000Y-127488000D02*
X899754500Y-127488000D01*
X899754500Y-127488000D02*
X900892000Y-128625499D01*
%TO.N,Net-(U9-OUTN)*%
X903392000Y-128588000D02*
X901792000Y-126988000D01*
X901792000Y-126988000D02*
X900431597Y-126988000D01*
X900427862Y-126991735D02*
X899907608Y-126991735D01*
X899907608Y-126991735D02*
X899903873Y-126988000D01*
X899903873Y-126988000D02*
X898892000Y-126988000D01*
X900431597Y-126988000D02*
X900427862Y-126991735D01*
%TO.N,Net-(JP100-B)*%
X652766571Y-131590071D02*
X652766571Y-137166500D01*
X655488571Y-129958000D02*
X654398643Y-129958000D01*
X654398643Y-129958000D02*
X652766571Y-131590071D01*
X652766571Y-137166500D02*
X653968571Y-138368500D01*
X656279571Y-129167000D02*
X655488571Y-129958000D01*
%TO.N,Net-(JP100-A)*%
X651744071Y-127762000D02*
X653968571Y-125537500D01*
X650920571Y-127762000D02*
X651744071Y-127762000D01*
%TO.N,Net-(JP101-A)*%
X773840286Y-126119468D02*
X773840286Y-125537500D01*
X773586286Y-131826000D02*
X772637286Y-130877000D01*
X772637286Y-127322468D02*
X773840286Y-126119468D01*
X772637286Y-130877000D02*
X772637286Y-127322468D01*
%TO.N,Net-(JP101-B)*%
X773393786Y-135189500D02*
X773840286Y-135189500D01*
X772824286Y-134620000D02*
X773393786Y-135189500D01*
X772824286Y-133858000D02*
X772824286Y-134620000D01*
%TO.N,Net-(JP102-A)*%
X781807779Y-126492000D02*
X891934000Y-126492000D01*
X891934000Y-126492000D02*
X893904500Y-128462500D01*
X781450915Y-126135136D02*
X781807779Y-126492000D01*
X893904500Y-128462500D02*
X893966000Y-128462500D01*
%TO.N,Net-(JP102-B)*%
X893712000Y-134534584D02*
X893712000Y-135443500D01*
X894007386Y-134239198D02*
X893712000Y-134534584D01*
D34*
%TO.N,Net-(D1-A)*%
X71190500Y-59228000D02*
X70962500Y-59000000D01*
X74548500Y-59228000D02*
X71190500Y-59228000D01*
D32*
%TO.N,/Pin_3_OUT*%
X1003884825Y-71659553D02*
X999400354Y-67175082D01*
X57962400Y-77830827D02*
X57962400Y-78572100D01*
X57449900Y-78059600D02*
X57962400Y-78572100D01*
X999399907Y-67175529D02*
X74227765Y-67175529D01*
X69743294Y-71660000D02*
X69467000Y-71660000D01*
X56760400Y-73672400D02*
X56760400Y-76628827D01*
X74227765Y-67175529D02*
X69743294Y-71660000D01*
X56540000Y-73452000D02*
X56760400Y-73672400D01*
X55524000Y-78059600D02*
X57449900Y-78059600D01*
X1006992354Y-71659553D02*
X1003884825Y-71659553D01*
X56760400Y-76628827D02*
X57962400Y-77830827D01*
X69467000Y-71660000D02*
X68732000Y-72395000D01*
X999400354Y-67175082D02*
X999399907Y-67175529D01*
%TO.N,Net-(IC1-CLKIN)*%
X59795500Y-82154000D02*
X60309000Y-81640500D01*
X56387600Y-85136000D02*
X56656800Y-85136000D01*
X60309000Y-80674000D02*
X60309000Y-78765500D01*
X60309000Y-81640500D02*
X60309000Y-80674000D01*
X56656800Y-85136000D02*
X57672800Y-84120000D01*
X60309000Y-78765500D02*
X60502400Y-78572100D01*
X59795500Y-83013300D02*
X59795500Y-82154000D01*
X58688800Y-84120000D02*
X59795500Y-83013300D01*
X57672800Y-84120000D02*
X58688800Y-84120000D01*
%TO.N,/Pin_5_OUT*%
X1003003295Y-74199553D02*
X999400354Y-70596612D01*
X999399907Y-70597059D02*
X74227765Y-70597059D01*
X999400354Y-70596612D02*
X999399907Y-70597059D01*
X55561069Y-100436050D02*
X57860641Y-100436050D01*
X57860641Y-100436050D02*
X58121601Y-100697010D01*
X1006992354Y-74199553D02*
X1003003295Y-74199553D01*
X57048000Y-95804000D02*
X56659000Y-96193000D01*
X70356824Y-74468000D02*
X68224000Y-74468000D01*
X56659000Y-96193000D02*
X56659000Y-99234409D01*
X56659000Y-99234409D02*
X58121601Y-100697010D01*
X74227765Y-70597059D02*
X70356824Y-74468000D01*
%TO.N,Net-(IC2-CLKIN)*%
X60661601Y-102559155D02*
X60366601Y-102854155D01*
X60366601Y-103974704D02*
X60366601Y-102854155D01*
X56292801Y-107323504D02*
X57017801Y-107323504D01*
X57017801Y-107323504D02*
X60366601Y-103974704D01*
X60661601Y-100771148D02*
X60661601Y-102559155D01*
D34*
%TO.N,Net-(IC1-Y1)*%
X61668441Y-89034909D02*
X61668441Y-87909441D01*
X61668441Y-87909441D02*
X60309000Y-86550000D01*
D32*
%TO.N,Net-(IC1-Y0)*%
X57962400Y-75647100D02*
X59164400Y-76849100D01*
X59164400Y-79527100D02*
X59009000Y-79682500D01*
X59009000Y-79682500D02*
X59009000Y-80674000D01*
X59164400Y-76849100D02*
X59164400Y-79527100D01*
%TO.N,Net-(IC1-1G)*%
X58053800Y-83245700D02*
X56387600Y-83245700D01*
X59659000Y-81640500D02*
X58053800Y-83245700D01*
X59659000Y-80674000D02*
X59659000Y-81640500D01*
%TO.N,Net-(IC2-1G)*%
X58158305Y-105378951D02*
X56540000Y-105378951D01*
X59716601Y-103820655D02*
X58158305Y-105378951D01*
X59716601Y-102854155D02*
X59716601Y-103820655D01*
%TO.N,Net-(IC2-Y1)*%
X61616101Y-111415993D02*
X61616101Y-109979655D01*
X61616101Y-109979655D02*
X60366601Y-108730155D01*
%TO.N,Net-(IC2-Y0)*%
X59066601Y-102854155D02*
X59066601Y-101512438D01*
X59066601Y-101512438D02*
X59459601Y-101119438D01*
X59459601Y-99110010D02*
X58121601Y-97772010D01*
X59459601Y-101119438D02*
X59459601Y-99110010D01*
%TO.N,/Pin_3*%
X61456900Y-75647100D02*
X60502400Y-75647100D01*
X62918765Y-74185235D02*
X61456900Y-75647100D01*
X62918765Y-73694853D02*
X62918765Y-74185235D01*
X64397295Y-73023000D02*
X63590618Y-73023000D01*
X65760295Y-71660000D02*
X64397295Y-73023000D01*
X63590618Y-73023000D02*
X62918765Y-73694853D01*
X66635765Y-71660000D02*
X65760295Y-71660000D01*
%TO.N,/Pin_5*%
X62557941Y-76613294D02*
X62557941Y-95949808D01*
X63687235Y-75484000D02*
X62557941Y-76613294D01*
X66635765Y-74200000D02*
X65760295Y-74200000D01*
X64476295Y-75484000D02*
X63687235Y-75484000D01*
X62557941Y-95949808D02*
X60661601Y-97846148D01*
X65760295Y-74200000D02*
X64476295Y-75484000D01*
%TD*%
M02*
