%TF.GenerationSoftware,KiCad,Pcbnew,9.0.8-9.0.8~ubuntu24.04.1*%
%TF.CreationDate,2026-04-21T09:31:54+02:00*%
%TF.ProjectId,TheLine_parametric,5468654c-696e-4655-9f70-6172616d6574,rev?*%
%TF.SameCoordinates,Original*%
%TF.FileFunction,Soldermask,Bot*%
%TF.FilePolarity,Negative*%
%FSLAX46Y46*%
G04 Gerber Fmt 4.6, Leading zero omitted, Abs format (unit mm)*
G04 Created by KiCad (PCBNEW 9.0.8-9.0.8~ubuntu24.04.1) date 2026-04-21 09:31:54*
%MOMM*%
%LPD*%
G01*
G04 APERTURE LIST*
G04 Aperture macros list*
%AMRoundRect*
0 Rectangle with rounded corners*
0 $1 Rounding radius*
0 $2 $3 $4 $5 $6 $7 $8 $9 X,Y pos of 4 corners*
0 Add a 4 corners polygon primitive as box body*
4,1,4,$2,$3,$4,$5,$6,$7,$8,$9,$2,$3,0*
0 Add four circle primitives for the rounded corners*
1,1,$1+$1,$2,$3*
1,1,$1+$1,$4,$5*
1,1,$1+$1,$6,$7*
1,1,$1+$1,$8,$9*
0 Add four rect primitives between the rounded corners*
20,1,$1+$1,$2,$3,$4,$5,0*
20,1,$1+$1,$4,$5,$6,$7,0*
20,1,$1+$1,$6,$7,$8,$9,0*
20,1,$1+$1,$8,$9,$2,$3,0*%
%AMFreePoly0*
4,1,6,1.000000,0.000000,0.500000,-0.750000,-0.500000,-0.750000,-0.500000,0.750000,0.500000,0.750000,1.000000,0.000000,1.000000,0.000000,$1*%
%AMFreePoly1*
4,1,6,0.500000,-0.750000,-0.650000,-0.750000,-0.150000,0.000000,-0.650000,0.750000,0.500000,0.750000,0.500000,-0.750000,0.500000,-0.750000,$1*%
G04 Aperture macros list end*
%ADD10C,3.100000*%
%ADD11RoundRect,0.300000X-0.300000X-0.600000X0.300000X-0.600000X0.300000X0.600000X-0.300000X0.600000X0*%
%ADD12O,1.200000X1.800000*%
%ADD13C,5.000000*%
%ADD14R,1.700000X1.700000*%
%ADD15O,1.700000X1.700000*%
%ADD16FreePoly0,270.000000*%
%ADD17FreePoly1,270.000000*%
%ADD18R,1.000000X1.500000*%
G04 APERTURE END LIST*
%TO.C,JP5*%
G36*
X811605800Y-67863000D02*
G01*
X813105800Y-67863000D01*
X813105800Y-70313000D01*
X811605800Y-70313000D01*
X811605800Y-67863000D01*
G37*
%TO.C,JP101*%
G36*
X779994286Y-129044000D02*
G01*
X778394286Y-129044000D01*
X778394286Y-130544000D01*
X779994286Y-130544000D01*
X779994286Y-129044000D01*
G37*
%TO.C,JP12*%
G36*
X835223567Y-67863000D02*
G01*
X836723567Y-67863000D01*
X836723567Y-70313000D01*
X835223567Y-70313000D01*
X835223567Y-67863000D01*
G37*
%TO.C,JP17*%
G36*
X852093400Y-67863000D02*
G01*
X853593400Y-67863000D01*
X853593400Y-70313000D01*
X852093400Y-70313000D01*
X852093400Y-67863000D01*
G37*
%TO.C,JP27*%
G36*
X885833067Y-67863000D02*
G01*
X887333067Y-67863000D01*
X887333067Y-70313000D01*
X885833067Y-70313000D01*
X885833067Y-67863000D01*
G37*
%TO.C,JP11*%
G36*
X831849600Y-67863000D02*
G01*
X833349600Y-67863000D01*
X833349600Y-70313000D01*
X831849600Y-70313000D01*
X831849600Y-67863000D01*
G37*
%TO.C,JP21*%
G36*
X865589267Y-67863000D02*
G01*
X867089267Y-67863000D01*
X867089267Y-70313000D01*
X865589267Y-70313000D01*
X865589267Y-67863000D01*
G37*
%TO.C,JP100*%
G36*
X779964286Y-126250000D02*
G01*
X778364286Y-126250000D01*
X778364286Y-127750000D01*
X779964286Y-127750000D01*
X779964286Y-126250000D01*
G37*
%TO.C,JP23*%
G36*
X872337200Y-67863000D02*
G01*
X873837200Y-67863000D01*
X873837200Y-70313000D01*
X872337200Y-70313000D01*
X872337200Y-67863000D01*
G37*
%TO.C,JP25*%
G36*
X879085133Y-67863000D02*
G01*
X880585133Y-67863000D01*
X880585133Y-70313000D01*
X879085133Y-70313000D01*
X879085133Y-67863000D01*
G37*
%TO.C,JP7*%
G36*
X818353733Y-67863000D02*
G01*
X819853733Y-67863000D01*
X819853733Y-70313000D01*
X818353733Y-70313000D01*
X818353733Y-67863000D01*
G37*
%TO.C,JP4*%
G36*
X808231833Y-67863000D02*
G01*
X809731833Y-67863000D01*
X809731833Y-70313000D01*
X808231833Y-70313000D01*
X808231833Y-67863000D01*
G37*
%TO.C,JP13*%
G36*
X838597533Y-67863000D02*
G01*
X840097533Y-67863000D01*
X840097533Y-70313000D01*
X838597533Y-70313000D01*
X838597533Y-67863000D01*
G37*
%TO.C,JP30*%
G36*
X895954967Y-67863000D02*
G01*
X897454967Y-67863000D01*
X897454967Y-70313000D01*
X895954967Y-70313000D01*
X895954967Y-67863000D01*
G37*
%TO.C,JP31*%
G36*
X899328933Y-67863000D02*
G01*
X900828933Y-67863000D01*
X900828933Y-70313000D01*
X899328933Y-70313000D01*
X899328933Y-67863000D01*
G37*
%TO.C,JP22*%
G36*
X868963233Y-67863000D02*
G01*
X870463233Y-67863000D01*
X870463233Y-70313000D01*
X868963233Y-70313000D01*
X868963233Y-67863000D01*
G37*
%TO.C,JP14*%
G36*
X841971500Y-67863000D02*
G01*
X843471500Y-67863000D01*
X843471500Y-70313000D01*
X841971500Y-70313000D01*
X841971500Y-67863000D01*
G37*
%TO.C,JP8*%
G36*
X821727700Y-67863000D02*
G01*
X823227700Y-67863000D01*
X823227700Y-70313000D01*
X821727700Y-70313000D01*
X821727700Y-67863000D01*
G37*
%TO.C,JP32*%
G36*
X902702900Y-67863000D02*
G01*
X904202900Y-67863000D01*
X904202900Y-70313000D01*
X902702900Y-70313000D01*
X902702900Y-67863000D01*
G37*
%TO.C,JP9*%
G36*
X825101667Y-67863000D02*
G01*
X826601667Y-67863000D01*
X826601667Y-70313000D01*
X825101667Y-70313000D01*
X825101667Y-67863000D01*
G37*
%TO.C,JP18*%
G36*
X855467367Y-67863000D02*
G01*
X856967367Y-67863000D01*
X856967367Y-70313000D01*
X855467367Y-70313000D01*
X855467367Y-67863000D01*
G37*
%TO.C,JP102*%
G36*
X779994286Y-131838000D02*
G01*
X778394286Y-131838000D01*
X778394286Y-133338000D01*
X779994286Y-133338000D01*
X779994286Y-131838000D01*
G37*
%TO.C,JP16*%
G36*
X848719433Y-67863000D02*
G01*
X850219433Y-67863000D01*
X850219433Y-70313000D01*
X848719433Y-70313000D01*
X848719433Y-67863000D01*
G37*
%TO.C,JP1*%
G36*
X798225000Y-67887000D02*
G01*
X799725000Y-67887000D01*
X799725000Y-70337000D01*
X798225000Y-70337000D01*
X798225000Y-67887000D01*
G37*
%TO.C,JP6*%
G36*
X814979767Y-67863000D02*
G01*
X816479767Y-67863000D01*
X816479767Y-70313000D01*
X814979767Y-70313000D01*
X814979767Y-67863000D01*
G37*
%TO.C,JP24*%
G36*
X875711167Y-67863000D02*
G01*
X877211167Y-67863000D01*
X877211167Y-70313000D01*
X875711167Y-70313000D01*
X875711167Y-67863000D01*
G37*
%TO.C,JP20*%
G36*
X862215300Y-67863000D02*
G01*
X863715300Y-67863000D01*
X863715300Y-70313000D01*
X862215300Y-70313000D01*
X862215300Y-67863000D01*
G37*
%TO.C,JP10*%
G36*
X828475633Y-67863000D02*
G01*
X829975633Y-67863000D01*
X829975633Y-70313000D01*
X828475633Y-70313000D01*
X828475633Y-67863000D01*
G37*
%TO.C,JP28*%
G36*
X889207033Y-67863000D02*
G01*
X890707033Y-67863000D01*
X890707033Y-70313000D01*
X889207033Y-70313000D01*
X889207033Y-67863000D01*
G37*
%TO.C,JP15*%
G36*
X845345467Y-67863000D02*
G01*
X846845467Y-67863000D01*
X846845467Y-70313000D01*
X845345467Y-70313000D01*
X845345467Y-67863000D01*
G37*
%TO.C,JP3*%
G36*
X804857867Y-67863000D02*
G01*
X806357867Y-67863000D01*
X806357867Y-70313000D01*
X804857867Y-70313000D01*
X804857867Y-67863000D01*
G37*
%TO.C,JP2*%
G36*
X801483900Y-67863000D02*
G01*
X802983900Y-67863000D01*
X802983900Y-70313000D01*
X801483900Y-70313000D01*
X801483900Y-67863000D01*
G37*
%TO.C,JP29*%
G36*
X892581000Y-67863000D02*
G01*
X894081000Y-67863000D01*
X894081000Y-70313000D01*
X892581000Y-70313000D01*
X892581000Y-67863000D01*
G37*
%TO.C,JP19*%
G36*
X858841333Y-67863000D02*
G01*
X860341333Y-67863000D01*
X860341333Y-70313000D01*
X858841333Y-70313000D01*
X858841333Y-67863000D01*
G37*
%TO.C,JP26*%
G36*
X882459100Y-67863000D02*
G01*
X883959100Y-67863000D01*
X883959100Y-70313000D01*
X882459100Y-70313000D01*
X882459100Y-67863000D01*
G37*
%TD*%
D10*
%TO.C,REF\u002A\u002A_LS5*%
X537149999Y-43195001D03*
%TD*%
D11*
%TO.C,REF\u002A\u002A_LS5*%
X587399999Y-143695001D03*
D12*
X589399999Y-143695001D03*
%TD*%
D10*
%TO.C,REF\u002A\u002A_LS4*%
X417149999Y-146695001D03*
%TD*%
D13*
%TO.C,*%
X57150000Y-122174000D03*
%TD*%
D10*
%TO.C,REF\u002A\u002A_LS7*%
X777150000Y-146695001D03*
%TD*%
D14*
%TO.C,LS4*%
X418399999Y-136245001D03*
D15*
X420899999Y-136245001D03*
%TD*%
D13*
%TO.C,*%
X65783122Y-122211958D03*
%TD*%
D11*
%TO.C,REF\u002A\u002A_LS4*%
X467399999Y-143695001D03*
D12*
X469399999Y-143695001D03*
%TD*%
D11*
%TO.C,REF\u002A\u002A_LS2*%
X227400000Y-143695001D03*
D12*
X229400000Y-143695001D03*
%TD*%
D10*
%TO.C,REF\u002A\u002A_LS1*%
X160687492Y-146632283D03*
%TD*%
%TO.C,REF\u002A\u002A_LS6*%
X657150000Y-43195001D03*
%TD*%
D14*
%TO.C,LS8*%
X898400000Y-136245000D03*
D15*
X900900000Y-136245000D03*
%TD*%
D10*
%TO.C,REF\u002A\u002A_LS4*%
X417149999Y-43195001D03*
%TD*%
D11*
%TO.C,REF\u002A\u002A_LS7*%
X827400000Y-143695001D03*
D12*
X829400000Y-143695001D03*
%TD*%
D10*
%TO.C,REF\u002A\u002A_LS1*%
X160650000Y-43195001D03*
%TD*%
%TO.C,REF\u002A\u002A_LS3*%
X400687491Y-146632283D03*
%TD*%
%TO.C,REF\u002A\u002A_LS5*%
X537149999Y-146695001D03*
%TD*%
%TO.C,REF\u002A\u002A_LS5*%
X640687491Y-146632283D03*
%TD*%
%TO.C,REF\u002A\u002A_LS2*%
X177150000Y-43195001D03*
%TD*%
D11*
%TO.C,REF\u002A\u002A_LS6*%
X707400000Y-143695001D03*
D12*
X709400000Y-143695001D03*
%TD*%
D14*
%TO.C,LS6*%
X658400000Y-136245001D03*
D15*
X660900000Y-136245001D03*
%TD*%
D13*
%TO.C,*%
X65807380Y-64200386D03*
%TD*%
D14*
%TO.C,LS1*%
X58400000Y-136245001D03*
D15*
X60900000Y-136245001D03*
%TD*%
D10*
%TO.C,REF\u002A\u002A_LS8*%
X897150000Y-146695000D03*
%TD*%
D11*
%TO.C,REF\u002A\u002A_LS8*%
X947400000Y-143695000D03*
D12*
X949400000Y-143695000D03*
%TD*%
D10*
%TO.C,REF\u002A\u002A_LS2*%
X177150000Y-146695001D03*
%TD*%
%TO.C,REF\u002A\u002A_LS4*%
X520649999Y-43195001D03*
%TD*%
D14*
%TO.C,LS7*%
X778400000Y-136245001D03*
D15*
X780900000Y-136245001D03*
%TD*%
D10*
%TO.C,REF\u002A\u002A_LS7*%
X880650000Y-43195001D03*
%TD*%
%TO.C,REF\u002A\u002A_LS1*%
X57150000Y-43195001D03*
%TD*%
%TO.C,REF\u002A\u002A_LS8*%
X1000687492Y-146632282D03*
%TD*%
%TO.C,REF\u002A\u002A_LS7*%
X777150000Y-43195001D03*
%TD*%
%TO.C,REF\u002A\u002A_LS5*%
X640649999Y-43195001D03*
%TD*%
%TO.C,REF\u002A\u002A_LS6*%
X657150000Y-146695001D03*
%TD*%
D14*
%TO.C,LS2*%
X178400000Y-136245001D03*
D15*
X180900000Y-136245001D03*
%TD*%
D10*
%TO.C,REF\u002A\u002A_LS3*%
X297149999Y-146695001D03*
%TD*%
%TO.C,REF\u002A\u002A_LS2*%
X280687492Y-146632283D03*
%TD*%
%TO.C,REF\u002A\u002A_LS7*%
X880687492Y-146632283D03*
%TD*%
%TO.C,REF\u002A\u002A_LS8*%
X897150000Y-43195000D03*
%TD*%
%TO.C,REF\u002A\u002A_LS6*%
X760650000Y-43195001D03*
%TD*%
D13*
%TO.C,*%
X57150000Y-64212518D03*
%TD*%
D10*
%TO.C,REF\u002A\u002A_LS3*%
X400649999Y-43195001D03*
%TD*%
%TO.C,REF\u002A\u002A_LS3*%
X297149999Y-43195001D03*
%TD*%
%TO.C,REF\u002A\u002A_LS1*%
X57150000Y-146695001D03*
%TD*%
%TO.C,REF\u002A\u002A_LS2*%
X280650000Y-43195001D03*
%TD*%
D14*
%TO.C,J2*%
X66635765Y-69120000D03*
D15*
X64095765Y-69120000D03*
X66635765Y-71660000D03*
X64095765Y-71660000D03*
X66635765Y-74200000D03*
X64095765Y-74200000D03*
X66635765Y-76740000D03*
X64095765Y-76740000D03*
X66635765Y-79280000D03*
X64095765Y-79280000D03*
X66635765Y-81820000D03*
X64095765Y-81820000D03*
X66635765Y-84360000D03*
X64095765Y-84360000D03*
X66635765Y-86900000D03*
X64095765Y-86900000D03*
X66635765Y-89440000D03*
X64095765Y-89440000D03*
X66635765Y-91980000D03*
X64095765Y-91980000D03*
X66635765Y-94520000D03*
X64095765Y-94520000D03*
X66635765Y-97060000D03*
X64095765Y-97060000D03*
X66635765Y-99600000D03*
X64095765Y-99600000D03*
X66635765Y-102140000D03*
X64095765Y-102140000D03*
X66635765Y-104680000D03*
X64095765Y-104680000D03*
X66635765Y-107220000D03*
X64095765Y-107220000D03*
X66635765Y-109760000D03*
X64095765Y-109760000D03*
X66635765Y-112300000D03*
X64095765Y-112300000D03*
X66635765Y-114840000D03*
X64095765Y-114840000D03*
X66635765Y-117380000D03*
X64095765Y-117380000D03*
%TD*%
D14*
%TO.C,LS5*%
X538399999Y-136245001D03*
D15*
X540899999Y-136245001D03*
%TD*%
D10*
%TO.C,REF\u002A\u002A_LS4*%
X520687491Y-146632283D03*
%TD*%
D14*
%TO.C,LS3*%
X298399999Y-136245001D03*
D15*
X300899999Y-136245001D03*
%TD*%
D11*
%TO.C,REF\u002A\u002A_LS3*%
X347399999Y-143695001D03*
D12*
X349399999Y-143695001D03*
%TD*%
D14*
%TO.C,J3*%
X1006965714Y-69140000D03*
D13*
X1008235714Y-64314000D03*
X1008235714Y-122293503D03*
D15*
X1009505714Y-69140000D03*
X1006965714Y-71680000D03*
X1009505714Y-71680000D03*
X1006965714Y-74220000D03*
X1009505714Y-74220000D03*
X1006965714Y-76760000D03*
X1009505714Y-76760000D03*
X1006965714Y-79300000D03*
X1009505714Y-79300000D03*
X1006965714Y-81840000D03*
X1009505714Y-81840000D03*
X1006965714Y-84380000D03*
X1009505714Y-84380000D03*
X1006965714Y-86920000D03*
X1009505714Y-86920000D03*
X1006965714Y-89460000D03*
X1009505714Y-89460000D03*
X1006965714Y-92000000D03*
X1009505714Y-92000000D03*
X1006965714Y-94540000D03*
X1009505714Y-94540000D03*
X1006965714Y-97080000D03*
X1009505714Y-97080000D03*
X1006965714Y-99620000D03*
X1009505714Y-99620000D03*
X1006965714Y-102160000D03*
X1009505714Y-102160000D03*
X1006965714Y-104700000D03*
X1009505714Y-104700000D03*
X1006965714Y-107240000D03*
X1009505714Y-107240000D03*
X1006965714Y-109780000D03*
X1009505714Y-109780000D03*
X1006965714Y-112320000D03*
X1009505714Y-112320000D03*
X1006965714Y-114860000D03*
X1009505714Y-114860000D03*
X1006965714Y-117400000D03*
X1009505714Y-117400000D03*
%TD*%
D11*
%TO.C,REF\u002A\u002A_LS1*%
X107400000Y-143695001D03*
D12*
X109400000Y-143695001D03*
%TD*%
D10*
%TO.C,REF\u002A\u002A_LS6*%
X760687492Y-146632283D03*
%TD*%
%TO.C,REF\u002A\u002A_LS8*%
X1000650000Y-43195000D03*
%TD*%
D16*
%TO.C,JP5*%
X812355800Y-68363000D03*
D17*
X812355800Y-69813000D03*
%TD*%
D18*
%TO.C,JP101*%
X780494286Y-129794000D03*
X779194286Y-129794000D03*
X777894286Y-129794000D03*
%TD*%
D16*
%TO.C,JP12*%
X835973567Y-68363000D03*
D17*
X835973567Y-69813000D03*
%TD*%
D16*
%TO.C,JP17*%
X852843400Y-68363000D03*
D17*
X852843400Y-69813000D03*
%TD*%
D16*
%TO.C,JP27*%
X886583067Y-68363000D03*
D17*
X886583067Y-69813000D03*
%TD*%
D14*
%TO.C,J4*%
X1009716714Y-54361000D03*
D15*
X1009716714Y-51821000D03*
%TD*%
D16*
%TO.C,JP11*%
X832599600Y-68363000D03*
D17*
X832599600Y-69813000D03*
%TD*%
D16*
%TO.C,JP21*%
X866339267Y-68363000D03*
D17*
X866339267Y-69813000D03*
%TD*%
D18*
%TO.C,JP100*%
X780464286Y-127000000D03*
X779164286Y-127000000D03*
X777864286Y-127000000D03*
%TD*%
D16*
%TO.C,JP23*%
X873087200Y-68363000D03*
D17*
X873087200Y-69813000D03*
%TD*%
D16*
%TO.C,JP25*%
X879835133Y-68363000D03*
D17*
X879835133Y-69813000D03*
%TD*%
D16*
%TO.C,JP7*%
X819103733Y-68363000D03*
D17*
X819103733Y-69813000D03*
%TD*%
D16*
%TO.C,JP4*%
X808981833Y-68363000D03*
D17*
X808981833Y-69813000D03*
%TD*%
D16*
%TO.C,JP13*%
X839347533Y-68363000D03*
D17*
X839347533Y-69813000D03*
%TD*%
D16*
%TO.C,JP30*%
X896704967Y-68363000D03*
D17*
X896704967Y-69813000D03*
%TD*%
D16*
%TO.C,JP31*%
X900078933Y-68363000D03*
D17*
X900078933Y-69813000D03*
%TD*%
D16*
%TO.C,JP22*%
X869713233Y-68363000D03*
D17*
X869713233Y-69813000D03*
%TD*%
D16*
%TO.C,JP14*%
X842721500Y-68363000D03*
D17*
X842721500Y-69813000D03*
%TD*%
D16*
%TO.C,JP8*%
X822477700Y-68363000D03*
D17*
X822477700Y-69813000D03*
%TD*%
D14*
%TO.C,J1*%
X64090000Y-54386000D03*
D15*
X64090000Y-51846000D03*
%TD*%
D16*
%TO.C,JP32*%
X903452900Y-68363000D03*
D17*
X903452900Y-69813000D03*
%TD*%
D16*
%TO.C,JP9*%
X825851667Y-68363000D03*
D17*
X825851667Y-69813000D03*
%TD*%
D16*
%TO.C,JP18*%
X856217367Y-68363000D03*
D17*
X856217367Y-69813000D03*
%TD*%
D18*
%TO.C,JP102*%
X780494286Y-132588000D03*
X779194286Y-132588000D03*
X777894286Y-132588000D03*
%TD*%
D16*
%TO.C,JP16*%
X849469433Y-68363000D03*
D17*
X849469433Y-69813000D03*
%TD*%
D16*
%TO.C,JP1*%
X798975000Y-68387000D03*
D17*
X798975000Y-69837000D03*
%TD*%
D16*
%TO.C,JP6*%
X815729767Y-68363000D03*
D17*
X815729767Y-69813000D03*
%TD*%
D16*
%TO.C,JP24*%
X876461167Y-68363000D03*
D17*
X876461167Y-69813000D03*
%TD*%
D16*
%TO.C,JP20*%
X862965300Y-68363000D03*
D17*
X862965300Y-69813000D03*
%TD*%
D16*
%TO.C,JP10*%
X829225633Y-68363000D03*
D17*
X829225633Y-69813000D03*
%TD*%
D16*
%TO.C,JP28*%
X889957033Y-68363000D03*
D17*
X889957033Y-69813000D03*
%TD*%
D16*
%TO.C,JP15*%
X846095467Y-68363000D03*
D17*
X846095467Y-69813000D03*
%TD*%
D16*
%TO.C,JP3*%
X805607867Y-68363000D03*
D17*
X805607867Y-69813000D03*
%TD*%
D16*
%TO.C,JP2*%
X802233900Y-68363000D03*
D17*
X802233900Y-69813000D03*
%TD*%
D16*
%TO.C,JP29*%
X893331000Y-68363000D03*
D17*
X893331000Y-69813000D03*
%TD*%
D16*
%TO.C,JP19*%
X859591333Y-68363000D03*
D17*
X859591333Y-69813000D03*
%TD*%
D16*
%TO.C,JP26*%
X883209100Y-68363000D03*
D17*
X883209100Y-69813000D03*
%TD*%
M02*
