%TF.GenerationSoftware,KiCad,Pcbnew,9.0.8-9.0.8~ubuntu24.04.1*%
%TF.CreationDate,2026-04-21T09:31:54+02:00*%
%TF.ProjectId,TheLine_parametric,5468654c-696e-4655-9f70-6172616d6574,rev?*%
%TF.SameCoordinates,Original*%
%TF.FileFunction,Copper,L4,Bot*%
%TF.FilePolarity,Positive*%
%FSLAX46Y46*%
G04 Gerber Fmt 4.6, Leading zero omitted, Abs format (unit mm)*
G04 Created by KiCad (PCBNEW 9.0.8-9.0.8~ubuntu24.04.1) date 2026-04-21 09:31:54*
%MOMM*%
%LPD*%
G01*
G04 APERTURE LIST*
G04 Aperture macros list*
%AMRoundRect*
0 Rectangle with rounded corners*
0 $1 Rounding radius*
0 $2 $3 $4 $5 $6 $7 $8 $9 X,Y pos of 4 corners*
0 Add a 4 corners polygon primitive as box body*
4,1,4,$2,$3,$4,$5,$6,$7,$8,$9,$2,$3,0*
0 Add four circle primitives for the rounded corners*
1,1,$1+$1,$2,$3*
1,1,$1+$1,$4,$5*
1,1,$1+$1,$6,$7*
1,1,$1+$1,$8,$9*
0 Add four rect primitives between the rounded corners*
20,1,$1+$1,$2,$3,$4,$5,0*
20,1,$1+$1,$4,$5,$6,$7,0*
20,1,$1+$1,$6,$7,$8,$9,0*
20,1,$1+$1,$8,$9,$2,$3,0*%
%AMFreePoly0*
4,1,6,1.000000,0.000000,0.500000,-0.750000,-0.500000,-0.750000,-0.500000,0.750000,0.500000,0.750000,1.000000,0.000000,1.000000,0.000000,$1*%
%AMFreePoly1*
4,1,6,0.500000,-0.750000,-0.650000,-0.750000,-0.150000,0.000000,-0.650000,0.750000,0.500000,0.750000,0.500000,-0.750000,0.500000,-0.750000,$1*%
G04 Aperture macros list end*
%TA.AperFunction,EtchedComponent*%
%ADD10C,0.000000*%
%TD*%
%TA.AperFunction,ComponentPad*%
%ADD11C,3.100000*%
%TD*%
%TA.AperFunction,ComponentPad*%
%ADD12RoundRect,0.300000X-0.300000X-0.600000X0.300000X-0.600000X0.300000X0.600000X-0.300000X0.600000X0*%
%TD*%
%TA.AperFunction,ComponentPad*%
%ADD13O,1.200000X1.800000*%
%TD*%
%TA.AperFunction,ComponentPad*%
%ADD14C,5.000000*%
%TD*%
%TA.AperFunction,ComponentPad*%
%ADD15R,1.700000X1.700000*%
%TD*%
%TA.AperFunction,ComponentPad*%
%ADD16O,1.700000X1.700000*%
%TD*%
%TA.AperFunction,SMDPad,CuDef*%
%ADD17FreePoly0,270.000000*%
%TD*%
%TA.AperFunction,SMDPad,CuDef*%
%ADD18FreePoly1,270.000000*%
%TD*%
%TA.AperFunction,SMDPad,CuDef*%
%ADD19R,1.000000X1.500000*%
%TD*%
%TA.AperFunction,ViaPad*%
%ADD20C,0.600000*%
%TD*%
%TA.AperFunction,Conductor*%
%ADD21C,0.254000*%
%TD*%
%TA.AperFunction,Conductor*%
%ADD22C,0.400000*%
%TD*%
%TA.AperFunction,Conductor*%
%ADD23C,0.300000*%
%TD*%
G04 APERTURE END LIST*
D10*
%TA.AperFunction,EtchedComponent*%
%TO.C,JP101*%
G36*
X780094286Y-130094000D02*
G01*
X779594286Y-130094000D01*
X779594286Y-129494000D01*
X780094286Y-129494000D01*
X780094286Y-130094000D01*
G37*
%TD.AperFunction*%
%TA.AperFunction,EtchedComponent*%
%TO.C,JP100*%
G36*
X780064286Y-127300000D02*
G01*
X779564286Y-127300000D01*
X779564286Y-126700000D01*
X780064286Y-126700000D01*
X780064286Y-127300000D01*
G37*
%TD.AperFunction*%
%TA.AperFunction,EtchedComponent*%
%TO.C,JP102*%
G36*
X780094286Y-132888000D02*
G01*
X779594286Y-132888000D01*
X779594286Y-132288000D01*
X780094286Y-132288000D01*
X780094286Y-132888000D01*
G37*
%TD.AperFunction*%
%TD*%
D11*
%TO.P,REF\u002A\u002A_LS5,1*%
%TO.N,N/C*%
X537149999Y-43195001D03*
%TD*%
D12*
%TO.P,REF\u002A\u002A_LS5,1*%
%TO.N,/DAC5/OUT+*%
X587399999Y-143695001D03*
D13*
%TO.P,REF\u002A\u002A_LS5,2*%
%TO.N,/DAC5/OUT-*%
X589399999Y-143695001D03*
%TD*%
D11*
%TO.P,REF\u002A\u002A_LS4,1*%
%TO.N,N/C*%
X417149999Y-146695001D03*
%TD*%
D14*
%TO.P,,1*%
%TO.N,N/C*%
X57150000Y-122174000D03*
%TD*%
D11*
%TO.P,REF\u002A\u002A_LS7,1*%
%TO.N,N/C*%
X777150000Y-146695001D03*
%TD*%
D15*
%TO.P,LS4,1,1*%
%TO.N,/DAC4/OUT+*%
X418399999Y-136245001D03*
D16*
%TO.P,LS4,2,2*%
%TO.N,/DAC4/OUT-*%
X420899999Y-136245001D03*
%TD*%
D14*
%TO.P,,1*%
%TO.N,N/C*%
X65783122Y-122211958D03*
%TD*%
D12*
%TO.P,REF\u002A\u002A_LS4,1*%
%TO.N,/DAC4/OUT+*%
X467399999Y-143695001D03*
D13*
%TO.P,REF\u002A\u002A_LS4,2*%
%TO.N,/DAC4/OUT-*%
X469399999Y-143695001D03*
%TD*%
D12*
%TO.P,REF\u002A\u002A_LS2,1*%
%TO.N,/DAC2/OUT+*%
X227400000Y-143695001D03*
D13*
%TO.P,REF\u002A\u002A_LS2,2*%
%TO.N,/DAC2/OUT-*%
X229400000Y-143695001D03*
%TD*%
D11*
%TO.P,REF\u002A\u002A_LS1,1*%
%TO.N,N/C*%
X160687492Y-146632283D03*
%TD*%
%TO.P,REF\u002A\u002A_LS6,1*%
%TO.N,N/C*%
X657150000Y-43195001D03*
%TD*%
D15*
%TO.P,LS8,1,1*%
%TO.N,/DAC8/OUT+*%
X898400000Y-136245000D03*
D16*
%TO.P,LS8,2,2*%
%TO.N,/DAC8/OUT-*%
X900900000Y-136245000D03*
%TD*%
D11*
%TO.P,REF\u002A\u002A_LS4,1*%
%TO.N,N/C*%
X417149999Y-43195001D03*
%TD*%
D12*
%TO.P,REF\u002A\u002A_LS7,1*%
%TO.N,/DAC7/OUT+*%
X827400000Y-143695001D03*
D13*
%TO.P,REF\u002A\u002A_LS7,2*%
%TO.N,/DAC7/OUT-*%
X829400000Y-143695001D03*
%TD*%
D11*
%TO.P,REF\u002A\u002A_LS1,1*%
%TO.N,N/C*%
X160650000Y-43195001D03*
%TD*%
%TO.P,REF\u002A\u002A_LS3,1*%
%TO.N,N/C*%
X400687491Y-146632283D03*
%TD*%
%TO.P,REF\u002A\u002A_LS5,1*%
%TO.N,N/C*%
X537149999Y-146695001D03*
%TD*%
%TO.P,REF\u002A\u002A_LS5,1*%
%TO.N,N/C*%
X640687491Y-146632283D03*
%TD*%
%TO.P,REF\u002A\u002A_LS2,1*%
%TO.N,N/C*%
X177150000Y-43195001D03*
%TD*%
D12*
%TO.P,REF\u002A\u002A_LS6,1*%
%TO.N,/DAC6/OUT+*%
X707400000Y-143695001D03*
D13*
%TO.P,REF\u002A\u002A_LS6,2*%
%TO.N,/DAC6/OUT-*%
X709400000Y-143695001D03*
%TD*%
D15*
%TO.P,LS6,1,1*%
%TO.N,/DAC6/OUT+*%
X658400000Y-136245001D03*
D16*
%TO.P,LS6,2,2*%
%TO.N,/DAC6/OUT-*%
X660900000Y-136245001D03*
%TD*%
D14*
%TO.P,,1*%
%TO.N,N/C*%
X65807380Y-64200386D03*
%TD*%
D15*
%TO.P,LS1,1,1*%
%TO.N,/DAC1/OUT+*%
X58400000Y-136245001D03*
D16*
%TO.P,LS1,2,2*%
%TO.N,/DAC1/OUT-*%
X60900000Y-136245001D03*
%TD*%
D11*
%TO.P,REF\u002A\u002A_LS8,1*%
%TO.N,N/C*%
X897150000Y-146695000D03*
%TD*%
D12*
%TO.P,REF\u002A\u002A_LS8,1*%
%TO.N,/DAC8/OUT+*%
X947400000Y-143695000D03*
D13*
%TO.P,REF\u002A\u002A_LS8,2*%
%TO.N,/DAC8/OUT-*%
X949400000Y-143695000D03*
%TD*%
D11*
%TO.P,REF\u002A\u002A_LS2,1*%
%TO.N,N/C*%
X177150000Y-146695001D03*
%TD*%
%TO.P,REF\u002A\u002A_LS4,1*%
%TO.N,N/C*%
X520649999Y-43195001D03*
%TD*%
D15*
%TO.P,LS7,1,1*%
%TO.N,/DAC7/OUT+*%
X778400000Y-136245001D03*
D16*
%TO.P,LS7,2,2*%
%TO.N,/DAC7/OUT-*%
X780900000Y-136245001D03*
%TD*%
D11*
%TO.P,REF\u002A\u002A_LS7,1*%
%TO.N,N/C*%
X880650000Y-43195001D03*
%TD*%
%TO.P,REF\u002A\u002A_LS1,1*%
%TO.N,N/C*%
X57150000Y-43195001D03*
%TD*%
%TO.P,REF\u002A\u002A_LS8,1*%
%TO.N,N/C*%
X1000687492Y-146632282D03*
%TD*%
%TO.P,REF\u002A\u002A_LS7,1*%
%TO.N,N/C*%
X777150000Y-43195001D03*
%TD*%
%TO.P,REF\u002A\u002A_LS5,1*%
%TO.N,N/C*%
X640649999Y-43195001D03*
%TD*%
%TO.P,REF\u002A\u002A_LS6,1*%
%TO.N,N/C*%
X657150000Y-146695001D03*
%TD*%
D15*
%TO.P,LS2,1,1*%
%TO.N,/DAC2/OUT+*%
X178400000Y-136245001D03*
D16*
%TO.P,LS2,2,2*%
%TO.N,/DAC2/OUT-*%
X180900000Y-136245001D03*
%TD*%
D11*
%TO.P,REF\u002A\u002A_LS3,1*%
%TO.N,N/C*%
X297149999Y-146695001D03*
%TD*%
%TO.P,REF\u002A\u002A_LS2,1*%
%TO.N,N/C*%
X280687492Y-146632283D03*
%TD*%
%TO.P,REF\u002A\u002A_LS7,1*%
%TO.N,N/C*%
X880687492Y-146632283D03*
%TD*%
%TO.P,REF\u002A\u002A_LS8,1*%
%TO.N,N/C*%
X897150000Y-43195000D03*
%TD*%
%TO.P,REF\u002A\u002A_LS6,1*%
%TO.N,N/C*%
X760650000Y-43195001D03*
%TD*%
D14*
%TO.P,,1*%
%TO.N,N/C*%
X57150000Y-64212518D03*
%TD*%
D11*
%TO.P,REF\u002A\u002A_LS3,1*%
%TO.N,N/C*%
X400649999Y-43195001D03*
%TD*%
%TO.P,REF\u002A\u002A_LS3,1*%
%TO.N,N/C*%
X297149999Y-43195001D03*
%TD*%
%TO.P,REF\u002A\u002A_LS1,1*%
%TO.N,N/C*%
X57150000Y-146695001D03*
%TD*%
%TO.P,REF\u002A\u002A_LS2,1*%
%TO.N,N/C*%
X280650000Y-43195001D03*
%TD*%
D15*
%TO.P,J2,1,Pin_1*%
%TO.N,GND*%
X66635765Y-69120000D03*
D16*
%TO.P,J2,2,Pin_2*%
%TO.N,/Pin_2*%
X64095765Y-69120000D03*
%TO.P,J2,3,Pin_3*%
%TO.N,/Pin_3*%
X66635765Y-71660000D03*
%TO.P,J2,4,Pin_4*%
%TO.N,/Pin_4*%
X64095765Y-71660000D03*
%TO.P,J2,5,Pin_5*%
%TO.N,/Pin_5*%
X66635765Y-74200000D03*
%TO.P,J2,6,Pin_6*%
%TO.N,/Pin_6*%
X64095765Y-74200000D03*
%TO.P,J2,7,Pin_7*%
%TO.N,/Pin_7*%
X66635765Y-76740000D03*
%TO.P,J2,8,Pin_8*%
%TO.N,/Pin_8*%
X64095765Y-76740000D03*
%TO.P,J2,9,Pin_9*%
%TO.N,/Pin_9*%
X66635765Y-79280000D03*
%TO.P,J2,10,Pin_10*%
%TO.N,/Pin_10*%
X64095765Y-79280000D03*
%TO.P,J2,11,Pin_11*%
%TO.N,/Pin_11*%
X66635765Y-81820000D03*
%TO.P,J2,12,Pin_12*%
%TO.N,/Pin_12*%
X64095765Y-81820000D03*
%TO.P,J2,13,Pin_13*%
%TO.N,/Pin_13*%
X66635765Y-84360000D03*
%TO.P,J2,14,Pin_14*%
%TO.N,/Pin_14*%
X64095765Y-84360000D03*
%TO.P,J2,15,Pin_15*%
%TO.N,/Pin_15*%
X66635765Y-86900000D03*
%TO.P,J2,16,Pin_16*%
%TO.N,/Pin_16*%
X64095765Y-86900000D03*
%TO.P,J2,17,Pin_17*%
%TO.N,/Pin_17*%
X66635765Y-89440000D03*
%TO.P,J2,18,Pin_18*%
%TO.N,/Pin_18*%
X64095765Y-89440000D03*
%TO.P,J2,19,Pin_19*%
%TO.N,/Pin_19*%
X66635765Y-91980000D03*
%TO.P,J2,20,Pin_20*%
%TO.N,/Pin_20*%
X64095765Y-91980000D03*
%TO.P,J2,21,Pin_21*%
%TO.N,/Pin_21*%
X66635765Y-94520000D03*
%TO.P,J2,22,Pin_22*%
%TO.N,/Pin_22*%
X64095765Y-94520000D03*
%TO.P,J2,23,Pin_23*%
%TO.N,/Pin_23*%
X66635765Y-97060000D03*
%TO.P,J2,24,Pin_24*%
%TO.N,/Pin_24*%
X64095765Y-97060000D03*
%TO.P,J2,25,Pin_25*%
%TO.N,/Pin_25*%
X66635765Y-99600000D03*
%TO.P,J2,26,Pin_26*%
%TO.N,/Pin_26*%
X64095765Y-99600000D03*
%TO.P,J2,27,Pin_27*%
%TO.N,/Pin_27*%
X66635765Y-102140000D03*
%TO.P,J2,28,Pin_28*%
%TO.N,/Pin_28*%
X64095765Y-102140000D03*
%TO.P,J2,29,Pin_29*%
%TO.N,/Pin_29*%
X66635765Y-104680000D03*
%TO.P,J2,30,Pin_30*%
%TO.N,/Pin_30*%
X64095765Y-104680000D03*
%TO.P,J2,31,Pin_31*%
%TO.N,/Pin_31*%
X66635765Y-107220000D03*
%TO.P,J2,32,Pin_32*%
%TO.N,/Pin_32*%
X64095765Y-107220000D03*
%TO.P,J2,33,Pin_33*%
%TO.N,/Pin_33*%
X66635765Y-109760000D03*
%TO.P,J2,34,Pin_34*%
%TO.N,/Pin_34*%
X64095765Y-109760000D03*
%TO.P,J2,35,Pin_35*%
%TO.N,/Pin_35*%
X66635765Y-112300000D03*
%TO.P,J2,36,Pin_36*%
%TO.N,/Pin_36*%
X64095765Y-112300000D03*
%TO.P,J2,37,Pin_37*%
%TO.N,GND*%
X66635765Y-114840000D03*
%TO.P,J2,38,Pin_38*%
X64095765Y-114840000D03*
%TO.P,J2,39,Pin_39*%
%TO.N,VCC*%
X66635765Y-117380000D03*
%TO.P,J2,40,Pin_40*%
X64095765Y-117380000D03*
%TD*%
D15*
%TO.P,LS5,1,1*%
%TO.N,/DAC5/OUT+*%
X538399999Y-136245001D03*
D16*
%TO.P,LS5,2,2*%
%TO.N,/DAC5/OUT-*%
X540899999Y-136245001D03*
%TD*%
D11*
%TO.P,REF\u002A\u002A_LS4,1*%
%TO.N,N/C*%
X520687491Y-146632283D03*
%TD*%
D15*
%TO.P,LS3,1,1*%
%TO.N,/DAC3/OUT+*%
X298399999Y-136245001D03*
D16*
%TO.P,LS3,2,2*%
%TO.N,/DAC3/OUT-*%
X300899999Y-136245001D03*
%TD*%
D12*
%TO.P,REF\u002A\u002A_LS3,1*%
%TO.N,/DAC3/OUT+*%
X347399999Y-143695001D03*
D13*
%TO.P,REF\u002A\u002A_LS3,2*%
%TO.N,/DAC3/OUT-*%
X349399999Y-143695001D03*
%TD*%
D15*
%TO.P,J3,1,Pin_1*%
%TO.N,GND*%
X1006965714Y-69140000D03*
D14*
X1008235714Y-64314000D03*
X1008235714Y-122293503D03*
D16*
%TO.P,J3,2,Pin_2*%
%TO.N,/Pin_2*%
X1009505714Y-69140000D03*
%TO.P,J3,3,Pin_3*%
%TO.N,/Pin_3_OUT*%
X1006965714Y-71680000D03*
%TO.P,J3,4,Pin_4*%
%TO.N,/Pin_4*%
X1009505714Y-71680000D03*
%TO.P,J3,5,Pin_5*%
%TO.N,/Pin_5_OUT*%
X1006965714Y-74220000D03*
%TO.P,J3,6,Pin_6*%
%TO.N,/Pin_6*%
X1009505714Y-74220000D03*
%TO.P,J3,7,Pin_7*%
%TO.N,/Pin_7*%
X1006965714Y-76760000D03*
%TO.P,J3,8,Pin_8*%
%TO.N,/Pin_8*%
X1009505714Y-76760000D03*
%TO.P,J3,9,Pin_9*%
%TO.N,/Pin_9*%
X1006965714Y-79300000D03*
%TO.P,J3,10,Pin_10*%
%TO.N,/Pin_10*%
X1009505714Y-79300000D03*
%TO.P,J3,11,Pin_11*%
%TO.N,/Pin_11*%
X1006965714Y-81840000D03*
%TO.P,J3,12,Pin_12*%
%TO.N,/Pin_12*%
X1009505714Y-81840000D03*
%TO.P,J3,13,Pin_13*%
%TO.N,/Pin_13*%
X1006965714Y-84380000D03*
%TO.P,J3,14,Pin_14*%
%TO.N,/Pin_14*%
X1009505714Y-84380000D03*
%TO.P,J3,15,Pin_15*%
%TO.N,/Pin_15*%
X1006965714Y-86920000D03*
%TO.P,J3,16,Pin_16*%
%TO.N,/Pin_16*%
X1009505714Y-86920000D03*
%TO.P,J3,17,Pin_17*%
%TO.N,/Pin_17*%
X1006965714Y-89460000D03*
%TO.P,J3,18,Pin_18*%
%TO.N,/Pin_18*%
X1009505714Y-89460000D03*
%TO.P,J3,19,Pin_19*%
%TO.N,/Pin_19*%
X1006965714Y-92000000D03*
%TO.P,J3,20,Pin_20*%
%TO.N,/Pin_20*%
X1009505714Y-92000000D03*
%TO.P,J3,21,Pin_21*%
%TO.N,/Pin_21*%
X1006965714Y-94540000D03*
%TO.P,J3,22,Pin_22*%
%TO.N,/Pin_22*%
X1009505714Y-94540000D03*
%TO.P,J3,23,Pin_23*%
%TO.N,/Pin_23*%
X1006965714Y-97080000D03*
%TO.P,J3,24,Pin_24*%
%TO.N,/Pin_24*%
X1009505714Y-97080000D03*
%TO.P,J3,25,Pin_25*%
%TO.N,/Pin_25*%
X1006965714Y-99620000D03*
%TO.P,J3,26,Pin_26*%
%TO.N,/Pin_26*%
X1009505714Y-99620000D03*
%TO.P,J3,27,Pin_27*%
%TO.N,/Pin_27*%
X1006965714Y-102160000D03*
%TO.P,J3,28,Pin_28*%
%TO.N,/Pin_28*%
X1009505714Y-102160000D03*
%TO.P,J3,29,Pin_29*%
%TO.N,/Pin_29*%
X1006965714Y-104700000D03*
%TO.P,J3,30,Pin_30*%
%TO.N,/Pin_30*%
X1009505714Y-104700000D03*
%TO.P,J3,31,Pin_31*%
%TO.N,/Pin_31*%
X1006965714Y-107240000D03*
%TO.P,J3,32,Pin_32*%
%TO.N,/Pin_32*%
X1009505714Y-107240000D03*
%TO.P,J3,33,Pin_33*%
%TO.N,/Pin_33*%
X1006965714Y-109780000D03*
%TO.P,J3,34,Pin_34*%
%TO.N,/Pin_34*%
X1009505714Y-109780000D03*
%TO.P,J3,35,Pin_35*%
%TO.N,/Pin_35*%
X1006965714Y-112320000D03*
%TO.P,J3,36,Pin_36*%
%TO.N,/Pin_36*%
X1009505714Y-112320000D03*
%TO.P,J3,37,Pin_37*%
%TO.N,GND*%
X1006965714Y-114860000D03*
%TO.P,J3,38,Pin_38*%
X1009505714Y-114860000D03*
%TO.P,J3,39,Pin_39*%
%TO.N,VCC*%
X1006965714Y-117400000D03*
%TO.P,J3,40,Pin_40*%
X1009505714Y-117400000D03*
%TD*%
D12*
%TO.P,REF\u002A\u002A_LS1,1*%
%TO.N,/DAC1/OUT+*%
X107400000Y-143695001D03*
D13*
%TO.P,REF\u002A\u002A_LS1,2*%
%TO.N,/DAC1/OUT-*%
X109400000Y-143695001D03*
%TD*%
D11*
%TO.P,REF\u002A\u002A_LS6,1*%
%TO.N,N/C*%
X760687492Y-146632283D03*
%TD*%
%TO.P,REF\u002A\u002A_LS8,1*%
%TO.N,N/C*%
X1000650000Y-43195000D03*
%TD*%
D17*
%TO.P,JP5,1,A*%
%TO.N,DIN*%
X812355800Y-68363000D03*
D18*
%TO.P,JP5,2,B*%
%TO.N,/Pin_20*%
X812355800Y-69813000D03*
%TD*%
D19*
%TO.P,JP101,1,A*%
%TO.N,Net-(JP101-A)*%
X780494286Y-129794000D03*
%TO.P,JP101,2,C*%
%TO.N,/DAC7/MODE*%
X779194286Y-129794000D03*
%TO.P,JP101,3,B*%
%TO.N,Net-(JP101-B)*%
X777894286Y-129794000D03*
%TD*%
D17*
%TO.P,JP12,1,A*%
%TO.N,DIN*%
X835973567Y-68363000D03*
D18*
%TO.P,JP12,2,B*%
%TO.N,/Pin_9*%
X835973567Y-69813000D03*
%TD*%
D17*
%TO.P,JP17,1,A*%
%TO.N,DIN*%
X852843400Y-68363000D03*
D18*
%TO.P,JP17,2,B*%
%TO.N,/Pin_13*%
X852843400Y-69813000D03*
%TD*%
D17*
%TO.P,JP27,1,A*%
%TO.N,DIN*%
X886583067Y-68363000D03*
D18*
%TO.P,JP27,2,B*%
%TO.N,/Pin_29*%
X886583067Y-69813000D03*
%TD*%
D15*
%TO.P,J4,1,Pin_1*%
%TO.N,GND*%
X1009716714Y-54361000D03*
D16*
%TO.P,J4,2,Pin_2*%
%TO.N,VDD*%
X1009716714Y-51821000D03*
%TD*%
D17*
%TO.P,JP11,1,A*%
%TO.N,DIN*%
X832599600Y-68363000D03*
D18*
%TO.P,JP11,2,B*%
%TO.N,/Pin_14*%
X832599600Y-69813000D03*
%TD*%
D17*
%TO.P,JP21,1,A*%
%TO.N,DIN*%
X866339267Y-68363000D03*
D18*
%TO.P,JP21,2,B*%
%TO.N,/Pin_32*%
X866339267Y-69813000D03*
%TD*%
D19*
%TO.P,JP100,1,A*%
%TO.N,Net-(JP100-A)*%
X780464286Y-127000000D03*
%TO.P,JP100,2,C*%
%TO.N,/DAC6/MODE*%
X779164286Y-127000000D03*
%TO.P,JP100,3,B*%
%TO.N,Net-(JP100-B)*%
X777864286Y-127000000D03*
%TD*%
D17*
%TO.P,JP23,1,A*%
%TO.N,DIN*%
X873087200Y-68363000D03*
D18*
%TO.P,JP23,2,B*%
%TO.N,/Pin_36*%
X873087200Y-69813000D03*
%TD*%
D17*
%TO.P,JP25,1,A*%
%TO.N,DIN*%
X879835133Y-68363000D03*
D18*
%TO.P,JP25,2,B*%
%TO.N,/Pin_33*%
X879835133Y-69813000D03*
%TD*%
D17*
%TO.P,JP7,1,A*%
%TO.N,DIN*%
X819103733Y-68363000D03*
D18*
%TO.P,JP7,2,B*%
%TO.N,/Pin_21*%
X819103733Y-69813000D03*
%TD*%
D17*
%TO.P,JP4,1,A*%
%TO.N,DIN*%
X808981833Y-68363000D03*
D18*
%TO.P,JP4,2,B*%
%TO.N,/Pin_16*%
X808981833Y-69813000D03*
%TD*%
D17*
%TO.P,JP13,1,A*%
%TO.N,DIN*%
X839347533Y-68363000D03*
D18*
%TO.P,JP13,2,B*%
%TO.N,/Pin_7*%
X839347533Y-69813000D03*
%TD*%
D17*
%TO.P,JP30,1,A*%
%TO.N,DIN*%
X896704967Y-68363000D03*
D18*
%TO.P,JP30,2,B*%
%TO.N,/Pin_24*%
X896704967Y-69813000D03*
%TD*%
D17*
%TO.P,JP31,1,A*%
%TO.N,DIN*%
X900078933Y-68363000D03*
D18*
%TO.P,JP31,2,B*%
%TO.N,/Pin_26*%
X900078933Y-69813000D03*
%TD*%
D17*
%TO.P,JP22,1,A*%
%TO.N,DIN*%
X869713233Y-68363000D03*
D18*
%TO.P,JP22,2,B*%
%TO.N,/Pin_34*%
X869713233Y-69813000D03*
%TD*%
D17*
%TO.P,JP14,1,A*%
%TO.N,DIN*%
X842721500Y-68363000D03*
D18*
%TO.P,JP14,2,B*%
%TO.N,/Pin_6*%
X842721500Y-69813000D03*
%TD*%
D17*
%TO.P,JP8,1,A*%
%TO.N,DIN*%
X822477700Y-68363000D03*
D18*
%TO.P,JP8,2,B*%
%TO.N,/Pin_19*%
X822477700Y-69813000D03*
%TD*%
D15*
%TO.P,J1,1,Pin_1*%
%TO.N,GND*%
X64090000Y-54386000D03*
D16*
%TO.P,J1,2,Pin_2*%
%TO.N,VDD*%
X64090000Y-51846000D03*
%TD*%
D17*
%TO.P,JP32,1,A*%
%TO.N,DIN*%
X903452900Y-68363000D03*
D18*
%TO.P,JP32,2,B*%
%TO.N,/Pin_30*%
X903452900Y-69813000D03*
%TD*%
D17*
%TO.P,JP9,1,A*%
%TO.N,DIN*%
X825851667Y-68363000D03*
D18*
%TO.P,JP9,2,B*%
%TO.N,/Pin_17*%
X825851667Y-69813000D03*
%TD*%
D17*
%TO.P,JP18,1,A*%
%TO.N,DIN*%
X856217367Y-68363000D03*
D18*
%TO.P,JP18,2,B*%
%TO.N,/Pin_18*%
X856217367Y-69813000D03*
%TD*%
D19*
%TO.P,JP102,1,A*%
%TO.N,Net-(JP102-A)*%
X780494286Y-132588000D03*
%TO.P,JP102,2,C*%
%TO.N,/DAC8/MODE*%
X779194286Y-132588000D03*
%TO.P,JP102,3,B*%
%TO.N,Net-(JP102-B)*%
X777894286Y-132588000D03*
%TD*%
D17*
%TO.P,JP16,1,A*%
%TO.N,DIN*%
X849469433Y-68363000D03*
D18*
%TO.P,JP16,2,B*%
%TO.N,/Pin_12*%
X849469433Y-69813000D03*
%TD*%
D17*
%TO.P,JP1,1,A*%
%TO.N,DIN*%
X798975000Y-68387000D03*
D18*
%TO.P,JP1,2,B*%
%TO.N,/Pin_4*%
X798975000Y-69837000D03*
%TD*%
D17*
%TO.P,JP6,1,A*%
%TO.N,DIN*%
X815729767Y-68363000D03*
D18*
%TO.P,JP6,2,B*%
%TO.N,/Pin_22*%
X815729767Y-69813000D03*
%TD*%
D17*
%TO.P,JP24,1,A*%
%TO.N,DIN*%
X876461167Y-68363000D03*
D18*
%TO.P,JP24,2,B*%
%TO.N,/Pin_35*%
X876461167Y-69813000D03*
%TD*%
D17*
%TO.P,JP20,1,A*%
%TO.N,DIN*%
X862965300Y-68363000D03*
D18*
%TO.P,JP20,2,B*%
%TO.N,/Pin_28*%
X862965300Y-69813000D03*
%TD*%
D17*
%TO.P,JP10,1,A*%
%TO.N,DIN*%
X829225633Y-68363000D03*
D18*
%TO.P,JP10,2,B*%
%TO.N,/Pin_15*%
X829225633Y-69813000D03*
%TD*%
D17*
%TO.P,JP28,1,A*%
%TO.N,DIN*%
X889957033Y-68363000D03*
D18*
%TO.P,JP28,2,B*%
%TO.N,/Pin_27*%
X889957033Y-69813000D03*
%TD*%
D17*
%TO.P,JP15,1,A*%
%TO.N,DIN*%
X846095467Y-68363000D03*
D18*
%TO.P,JP15,2,B*%
%TO.N,/Pin_8*%
X846095467Y-69813000D03*
%TD*%
D17*
%TO.P,JP3,1,A*%
%TO.N,DIN*%
X805607867Y-68363000D03*
D18*
%TO.P,JP3,2,B*%
%TO.N,/Pin_11*%
X805607867Y-69813000D03*
%TD*%
D17*
%TO.P,JP2,1,A*%
%TO.N,DIN*%
X802233900Y-68363000D03*
D18*
%TO.P,JP2,2,B*%
%TO.N,/Pin_10*%
X802233900Y-69813000D03*
%TD*%
D17*
%TO.P,JP29,1,A*%
%TO.N,DIN*%
X893331000Y-68363000D03*
D18*
%TO.P,JP29,2,B*%
%TO.N,/Pin_25*%
X893331000Y-69813000D03*
%TD*%
D17*
%TO.P,JP19,1,A*%
%TO.N,DIN*%
X859591333Y-68363000D03*
D18*
%TO.P,JP19,2,B*%
%TO.N,/Pin_23*%
X859591333Y-69813000D03*
%TD*%
D17*
%TO.P,JP26,1,A*%
%TO.N,DIN*%
X883209100Y-68363000D03*
D18*
%TO.P,JP26,2,B*%
%TO.N,/Pin_31*%
X883209100Y-69813000D03*
%TD*%
D20*
%TO.N,GND*%
X774094286Y-127400000D03*
X175195714Y-133793500D03*
X660170306Y-126363735D03*
X416765142Y-124206000D03*
X296849929Y-124206000D03*
X55107500Y-128457400D03*
X175121045Y-127953556D03*
X538368856Y-130988000D03*
X178345714Y-130993500D03*
X658494571Y-130988000D03*
X177058214Y-124367700D03*
X180021449Y-126369235D03*
X55524000Y-74468000D03*
X773840286Y-133350000D03*
X58069294Y-125767409D03*
X657016571Y-124325000D03*
X905442000Y-130838000D03*
X60883235Y-127833135D03*
X540044592Y-126363735D03*
X779936286Y-125730000D03*
X184793714Y-130870100D03*
X665269571Y-131013000D03*
X55524000Y-110536000D03*
X76352000Y-60244000D03*
X420198449Y-126363735D03*
X62865000Y-132969000D03*
X55102500Y-130073400D03*
X535218856Y-134265777D03*
X534350856Y-127000000D03*
X895342000Y-134864000D03*
X894982000Y-127508000D03*
X653714571Y-133096000D03*
X294037429Y-126910000D03*
X294987428Y-133710000D03*
X56032000Y-97328000D03*
X778412286Y-134874000D03*
X900167735Y-126363735D03*
X898492000Y-130988000D03*
X536917260Y-124071000D03*
X777142286Y-124206000D03*
X545018857Y-130588000D03*
X65430000Y-132634000D03*
X55016000Y-89200000D03*
X57556000Y-103932000D03*
X304411429Y-130856000D03*
X897204500Y-124206000D03*
X418522713Y-130988000D03*
X415372714Y-133788000D03*
X56057500Y-135257400D03*
X62636000Y-113076000D03*
X298137429Y-130910000D03*
X654222571Y-126988000D03*
X61620000Y-92756000D03*
X785016286Y-130838000D03*
X415045213Y-126988000D03*
X56032000Y-110028000D03*
X425295214Y-130926750D03*
X57556000Y-81580000D03*
X54800000Y-87168000D03*
X299813164Y-126285735D03*
%TO.N,VDD*%
X771808286Y-137922000D03*
X415090613Y-127842000D03*
X294380528Y-128190599D03*
X656553570Y-134810000D03*
X536718856Y-134265777D03*
X535366857Y-128777999D03*
X58937900Y-131064000D03*
X176695714Y-133793500D03*
X58801000Y-133858000D03*
X296487428Y-133710000D03*
X891680000Y-137922000D03*
X175776714Y-128570000D03*
X775872286Y-131826000D03*
X894220000Y-127000000D03*
X774569159Y-129374191D03*
X55585100Y-129286000D03*
X174497138Y-126124136D03*
X655111571Y-129158999D03*
X896842000Y-134864000D03*
X653460571Y-133858000D03*
X416872714Y-133788000D03*
%TO.N,/Pin_35*%
X876440000Y-120186823D03*
%TO.N,/Pin_27*%
X889902000Y-106500706D03*
%TO.N,/Pin_7*%
X839339068Y-73996176D03*
%TO.N,/Pin_23*%
X859548999Y-99657647D03*
%TO.N,/Pin_20*%
X812305000Y-92814588D03*
%TO.N,/Pin_17*%
X825894000Y-91103823D03*
%TO.N,/Pin_15*%
X829196000Y-87682294D03*
%TO.N,VCC*%
X57556000Y-91740000D03*
X61620000Y-74584600D03*
X60873000Y-116244506D03*
X57566323Y-79634600D03*
%TO.N,BCLK*%
X655746571Y-124714000D03*
X59588000Y-94280000D03*
X59552500Y-124724500D03*
X895744000Y-124071000D03*
X175776714Y-124071000D03*
X415495142Y-124206000D03*
X295369428Y-124206000D03*
X775872286Y-124460000D03*
X535874857Y-124460000D03*
%TO.N,/Pin_30*%
X903491000Y-111633000D03*
%TO.N,/Pin_18*%
X856217366Y-89393059D03*
%TO.N,/Pin_26*%
X900078933Y-104769521D03*
%TO.N,/Pin_13*%
X852843400Y-84260764D03*
%TO.N,/Pin_19*%
X822465001Y-94525353D03*
%TO.N,/Pin_10*%
X802272000Y-75706941D03*
%TO.N,/Pin_24*%
X896760000Y-101368412D03*
%TO.N,/Pin_29*%
X886600000Y-109922235D03*
%TO.N,/Pin_36*%
X873036000Y-121920000D03*
%TO.N,/Pin_21*%
X819187999Y-97969294D03*
%TO.N,/Pin_22*%
X815734000Y-96236117D03*
%TO.N,/Pin_11*%
X805641734Y-80839235D03*
%TO.N,LRBCLK*%
X659978571Y-125250000D03*
X59685000Y-126000000D03*
X779224286Y-124250000D03*
X539607857Y-125125000D03*
X299491429Y-125250000D03*
X179245714Y-125250000D03*
X899970000Y-124500000D03*
X419737142Y-125250000D03*
%TO.N,/Pin_28*%
X862978000Y-108211470D03*
%TO.N,/Pin_34*%
X869713232Y-118486200D03*
%TO.N,/Pin_14*%
X832599599Y-82550000D03*
%TO.N,/Pin_8*%
X846087000Y-72285412D03*
%TO.N,/Pin_6*%
X843975904Y-69013000D03*
%TO.N,/Pin_31*%
X883247198Y-113343764D03*
%TO.N,/Pin_25*%
X893458000Y-103079176D03*
%TO.N,/Pin_16*%
X809003000Y-85971529D03*
%TO.N,/Pin_32*%
X866313866Y-115076941D03*
%TO.N,/Pin_9*%
X835973568Y-77417706D03*
%TO.N,/Pin_33*%
X879869000Y-116765294D03*
%TO.N,/Pin_12*%
X849516000Y-79128470D03*
%TO.N,/DAC6/MODE*%
X655746571Y-128524000D03*
%TO.N,/DAC7/MODE*%
X775364286Y-129286000D03*
%TO.N,DIN*%
X906818400Y-123250000D03*
X63017000Y-127935000D03*
X55626000Y-127453400D03*
%TO.N,/Pin_4*%
X797725000Y-65464765D03*
%TO.N,/DAC8/MODE*%
X893720000Y-129750000D03*
%TO.N,Net-(JP100-B)*%
X656279571Y-129167000D03*
%TO.N,Net-(JP100-A)*%
X650920571Y-127762000D03*
%TO.N,Net-(JP101-A)*%
X773586286Y-131826000D03*
%TO.N,Net-(JP101-B)*%
X772824286Y-133858000D03*
%TO.N,Net-(JP102-A)*%
X781450915Y-126135136D03*
%TO.N,Net-(JP102-B)*%
X894007386Y-134239198D03*
%TO.N,/Pin_3_OUT*%
X56540000Y-73452000D03*
X68732000Y-72395000D03*
%TO.N,/Pin_5_OUT*%
X57048000Y-95804000D03*
X68224000Y-74468000D03*
%TD*%
D21*
%TO.N,/Pin_35*%
X876461167Y-69813000D02*
X876461167Y-120165656D01*
X876461167Y-120165656D02*
X876440000Y-120186823D01*
%TO.N,/Pin_27*%
X889957033Y-106445673D02*
X889902000Y-106500706D01*
X889957033Y-69813000D02*
X889957033Y-106445673D01*
%TO.N,/Pin_7*%
X839339066Y-69821467D02*
X839339066Y-73996176D01*
X839347533Y-69813000D02*
X839356000Y-69821467D01*
%TO.N,/Pin_23*%
X859591333Y-99615314D02*
X859548999Y-99657647D01*
X859591333Y-69813000D02*
X859591333Y-99615314D01*
%TO.N,/Pin_20*%
X812355800Y-69813000D02*
X812355800Y-92763788D01*
X812355800Y-92763788D02*
X812305000Y-92814588D01*
%TO.N,/Pin_17*%
X825851667Y-69813000D02*
X825851667Y-91061490D01*
X825851667Y-91061490D02*
X825894000Y-91103823D01*
%TO.N,/Pin_15*%
X829225633Y-69813000D02*
X829225633Y-87652661D01*
X829225633Y-87652661D02*
X829196000Y-87682294D01*
D22*
%TO.N,VCC*%
X60873000Y-116244506D02*
X60873000Y-116393000D01*
D21*
X57556000Y-91740000D02*
X59588000Y-91740000D01*
D22*
X61112000Y-116005506D02*
X60873000Y-116244506D01*
X61860000Y-117380000D02*
X64095765Y-117380000D01*
D21*
X57566323Y-79634600D02*
X57652923Y-79548000D01*
D22*
X60604000Y-84628000D02*
X60604000Y-92756000D01*
X60604000Y-114656000D02*
X61112000Y-115164000D01*
D21*
X57652923Y-79548000D02*
X60604000Y-79548000D01*
X59588000Y-91740000D02*
X60604000Y-92756000D01*
D22*
X60873000Y-116393000D02*
X61860000Y-117380000D01*
X60604000Y-79548000D02*
X60604000Y-84628000D01*
X61112000Y-115164000D02*
X61112000Y-116005506D01*
X61620000Y-74584600D02*
X60604000Y-75600600D01*
X60604000Y-75600600D02*
X60604000Y-79548000D01*
X64095765Y-117380000D02*
X66635765Y-117380000D01*
X60604000Y-92756000D02*
X60604000Y-114656000D01*
D21*
%TO.N,BCLK*%
X655746571Y-124714000D02*
X655746571Y-124706873D01*
X776888286Y-123444000D02*
X895117000Y-123444000D01*
X654476570Y-123444000D02*
X655746571Y-124714000D01*
X175776714Y-123998000D02*
X176330714Y-123444000D01*
X59588000Y-105456000D02*
X59588000Y-94280000D01*
X295369428Y-124206000D02*
X296131428Y-123444000D01*
X535874857Y-124460000D02*
X535874857Y-124225276D01*
X175776714Y-124071000D02*
X175776714Y-123998000D01*
X59552500Y-124724500D02*
X60077000Y-124200000D01*
X60077000Y-105945000D02*
X59588000Y-105456000D01*
X535874857Y-124225276D02*
X536656132Y-123444000D01*
X176330714Y-123444000D02*
X294607428Y-123444000D01*
X415495142Y-124206000D02*
X416257142Y-123444000D01*
X895117000Y-123444000D02*
X895744000Y-124071000D01*
X657009444Y-123444000D02*
X774856286Y-123444000D01*
X655746571Y-124706873D02*
X657009444Y-123444000D01*
X296131428Y-123444000D02*
X414733142Y-123444000D01*
X534858856Y-123444000D02*
X535874857Y-124460000D01*
X774856286Y-123444000D02*
X775872286Y-124460000D01*
X60223000Y-125395000D02*
X175268714Y-125395000D01*
X416257142Y-123444000D02*
X534858856Y-123444000D01*
X414733142Y-123444000D02*
X415495142Y-124206000D01*
X536656132Y-123444000D02*
X654476570Y-123444000D01*
X175268714Y-125395000D02*
X175776714Y-124887000D01*
X59552500Y-124724500D02*
X60223000Y-125395000D01*
X775872286Y-124460000D02*
X776888286Y-123444000D01*
X294607428Y-123444000D02*
X295369428Y-124206000D01*
X60077000Y-124200000D02*
X60077000Y-105945000D01*
X175776714Y-124887000D02*
X175776714Y-124071000D01*
%TO.N,/Pin_30*%
X903491000Y-111633000D02*
X903491000Y-111506000D01*
X903491000Y-111506000D02*
X903452900Y-111467900D01*
X903452900Y-111467900D02*
X903452900Y-69813000D01*
%TO.N,/Pin_18*%
X856217367Y-69910367D02*
X856217367Y-89393059D01*
X856217367Y-69813000D02*
X856120000Y-69910367D01*
%TO.N,/Pin_26*%
X900078933Y-69813000D02*
X900078933Y-104769521D01*
%TO.N,/Pin_13*%
X852843400Y-69813000D02*
X852945000Y-69914600D01*
X852843400Y-69914600D02*
X852843400Y-84260764D01*
%TO.N,/Pin_19*%
X822477700Y-94512653D02*
X822465001Y-94525353D01*
X822477700Y-69813000D02*
X822477700Y-94512653D01*
%TO.N,/Pin_10*%
X802233900Y-69813000D02*
X802233900Y-75668841D01*
X802233900Y-75668841D02*
X802272000Y-75706941D01*
%TO.N,/Pin_24*%
X896704967Y-69813000D02*
X896704967Y-101313379D01*
X896704967Y-101313379D02*
X896760000Y-101368412D01*
%TO.N,/Pin_29*%
X886583067Y-109905302D02*
X886600000Y-109922235D01*
X886583067Y-69813000D02*
X886583067Y-109905302D01*
%TO.N,/Pin_36*%
X873087200Y-69813000D02*
X873087200Y-121868800D01*
X873087200Y-121868800D02*
X873036000Y-121920000D01*
%TO.N,/Pin_21*%
X819103733Y-97885027D02*
X819103733Y-69813000D01*
X819187999Y-97969294D02*
X819103733Y-97885027D01*
%TO.N,/Pin_22*%
X815729767Y-69813000D02*
X815729767Y-96231884D01*
X815729767Y-96231884D02*
X815734000Y-96236117D01*
%TO.N,/Pin_11*%
X805607867Y-69813000D02*
X805574000Y-69846867D01*
X805641734Y-69846867D02*
X805641734Y-80839235D01*
%TO.N,LRBCLK*%
X659978571Y-125250000D02*
X778224286Y-125250000D01*
X59685000Y-126000000D02*
X60436135Y-126751135D01*
X539607857Y-125125000D02*
X539232857Y-125500000D01*
X779974286Y-125000000D02*
X899470000Y-125000000D01*
X179245714Y-125250000D02*
X179495714Y-125500000D01*
X299241429Y-125500000D02*
X299491429Y-125250000D01*
X299741429Y-125500000D02*
X419487142Y-125500000D01*
X539232857Y-125500000D02*
X419987142Y-125500000D01*
X778224286Y-125250000D02*
X779224286Y-124250000D01*
X299491429Y-125250000D02*
X299741429Y-125500000D01*
X659728571Y-125500000D02*
X659978571Y-125250000D01*
X419987142Y-125500000D02*
X419737142Y-125250000D01*
X60436135Y-126751135D02*
X177744579Y-126751135D01*
X419487142Y-125500000D02*
X419737142Y-125250000D01*
X539982857Y-125500000D02*
X659728571Y-125500000D01*
X539607857Y-125125000D02*
X539982857Y-125500000D01*
X179495714Y-125500000D02*
X299241429Y-125500000D01*
X899470000Y-125000000D02*
X899970000Y-124500000D01*
X177744579Y-126751135D02*
X179245714Y-125250000D01*
X779224286Y-124250000D02*
X779974286Y-125000000D01*
%TO.N,/Pin_28*%
X862965300Y-108198770D02*
X862978001Y-108211470D01*
X862965300Y-69813000D02*
X862965300Y-108198770D01*
%TO.N,/Pin_34*%
X869713233Y-69813000D02*
X869709000Y-69817233D01*
X869713233Y-69921400D02*
X869713233Y-118410000D01*
%TO.N,/Pin_14*%
X832599600Y-69914600D02*
X832599600Y-82550000D01*
X832599600Y-69813000D02*
X832498000Y-69914600D01*
%TO.N,/Pin_8*%
X846095467Y-72276945D02*
X846087000Y-72285412D01*
X846095467Y-69813000D02*
X846095467Y-72276945D01*
%TO.N,/Pin_6*%
X843975904Y-69746096D02*
X843909000Y-69813000D01*
X843975904Y-69013000D02*
X843975904Y-69746096D01*
X843909000Y-69813000D02*
X842721500Y-69813000D01*
%TO.N,/Pin_31*%
X883247200Y-113343764D02*
X883247200Y-69851100D01*
X883171000Y-69851100D02*
X883209100Y-69813000D01*
%TO.N,/Pin_25*%
X893331000Y-102952176D02*
X893458000Y-103079176D01*
X893331000Y-69813000D02*
X893331000Y-102952176D01*
%TO.N,/Pin_16*%
X808981833Y-69813000D02*
X808981833Y-85950362D01*
X808981833Y-85950362D02*
X809003000Y-85971529D01*
%TO.N,/Pin_32*%
X866339267Y-115051541D02*
X866313867Y-115076941D01*
X866339267Y-69870600D02*
X866339267Y-115051541D01*
%TO.N,/Pin_9*%
X835973567Y-69813000D02*
X836054000Y-69893433D01*
X835973567Y-69893433D02*
X835973567Y-77417706D01*
%TO.N,/Pin_33*%
X879835133Y-69813000D02*
X879835133Y-116731427D01*
X879835133Y-116731427D02*
X879869000Y-116765294D01*
%TO.N,/Pin_12*%
X849469433Y-69813000D02*
X849469433Y-79081903D01*
X849469433Y-79081903D02*
X849516000Y-79128470D01*
%TO.N,/DAC6/MODE*%
X655746571Y-128524000D02*
X660262571Y-128524000D01*
X660262571Y-128524000D02*
X663010571Y-125776000D01*
X778458286Y-125776000D02*
X779144286Y-126462000D01*
X663010571Y-125776000D02*
X778458286Y-125776000D01*
X779144286Y-126462000D02*
X779144286Y-127000000D01*
%TO.N,/DAC7/MODE*%
X778582220Y-128711000D02*
X775939286Y-128711000D01*
X775939286Y-128711000D02*
X775364286Y-129286000D01*
X779174285Y-129539999D02*
X779174285Y-129303066D01*
X779174285Y-129303066D02*
X778582220Y-128711000D01*
%TO.N,DIN*%
X63017000Y-127935000D02*
X62128000Y-127935000D01*
X61398135Y-127205135D02*
X55874265Y-127205135D01*
D23*
X798999000Y-68363000D02*
X798975000Y-68387000D01*
X905433000Y-68363000D02*
X802233900Y-68363000D01*
X906818400Y-69748400D02*
X905433000Y-68363000D01*
X906818400Y-123250000D02*
X906818400Y-69748400D01*
D21*
X62128000Y-127935000D02*
X61398135Y-127205135D01*
D23*
X802233900Y-68363000D02*
X798999000Y-68363000D01*
D21*
X55874265Y-127205135D02*
X55626000Y-127453400D01*
%TO.N,/Pin_4*%
X797892000Y-69024797D02*
X798587106Y-69719903D01*
X798587106Y-69719903D02*
X798857903Y-69719903D01*
X798857903Y-69719903D02*
X798975000Y-69837000D01*
X797725000Y-65464765D02*
X797892000Y-65631765D01*
X797892000Y-65631765D02*
X797892000Y-69024797D01*
%TO.N,/DAC8/MODE*%
X779224286Y-133114000D02*
X779194286Y-133084000D01*
X780224286Y-134500000D02*
X779224286Y-133500000D01*
X782224286Y-133250000D02*
X780974286Y-134500000D01*
X780974286Y-134500000D02*
X780224286Y-134500000D01*
X782224286Y-126500000D02*
X782224286Y-133250000D01*
X779224286Y-133500000D02*
X779224286Y-133114000D01*
X782974286Y-125750000D02*
X782224286Y-126500000D01*
X779194286Y-133084000D02*
X779194286Y-132588000D01*
X893720000Y-129750000D02*
X893720000Y-127500000D01*
X891970000Y-125750000D02*
X782974286Y-125750000D01*
X893720000Y-127500000D02*
X891970000Y-125750000D01*
%TO.N,Net-(JP100-B)*%
X777610286Y-126746000D02*
X777864286Y-127000000D01*
X660450624Y-128978000D02*
X662682622Y-126746000D01*
X656468571Y-128978000D02*
X660450624Y-128978000D01*
X656279571Y-129167000D02*
X656468571Y-128978000D01*
X662682622Y-126746000D02*
X777610286Y-126746000D01*
%TO.N,Net-(JP100-A)*%
X779992286Y-127000000D02*
X780464286Y-127000000D01*
X778557220Y-128078000D02*
X778552220Y-128083000D01*
X780464286Y-127488000D02*
X779874286Y-128078000D01*
X662735570Y-128083000D02*
X661024570Y-129794000D01*
X661024570Y-129794000D02*
X652952571Y-129794000D01*
X780464286Y-127000000D02*
X780464286Y-127488000D01*
X779874286Y-128078000D02*
X778557220Y-128078000D01*
X780196413Y-126358000D02*
X779992286Y-126358000D01*
X778552220Y-128083000D02*
X662735570Y-128083000D01*
X652952571Y-129794000D02*
X650920571Y-127762000D01*
X779992286Y-126358000D02*
X779992286Y-127000000D01*
%TO.N,Net-(JP101-A)*%
X774415286Y-130997000D02*
X773586286Y-131826000D01*
X780257286Y-130997000D02*
X774415286Y-130997000D01*
X780494286Y-129794000D02*
X780494286Y-130759999D01*
X780494286Y-130759999D02*
X780257286Y-130997000D01*
%TO.N,Net-(JP101-B)*%
X777433095Y-130001191D02*
X774522968Y-130001191D01*
X777894286Y-129794000D02*
X777640286Y-129794000D01*
X777640286Y-129794000D02*
X777433095Y-130001191D01*
X774522968Y-130001191D02*
X772824286Y-131699873D01*
X772824286Y-131699873D02*
X772824286Y-133858000D01*
%TO.N,Net-(JP102-A)*%
X781485286Y-131089000D02*
X780494286Y-132080000D01*
X781450915Y-126135136D02*
X781485286Y-126169507D01*
X780494286Y-132080000D02*
X780494286Y-132588000D01*
X781485286Y-126169507D02*
X781485286Y-131089000D01*
%TO.N,Net-(JP102-B)*%
X775364286Y-135128000D02*
X777894286Y-132598000D01*
X781724286Y-138176000D02*
X777150286Y-138176000D01*
X783520286Y-126204000D02*
X782974286Y-126750000D01*
X777150286Y-138176000D02*
X775364286Y-136390000D01*
X777894286Y-132598000D02*
X777894286Y-132588000D01*
X891720000Y-126204000D02*
X783520286Y-126204000D01*
X892970000Y-127500000D02*
X891720000Y-126250000D01*
X894007386Y-134239198D02*
X893220000Y-133451811D01*
X892970000Y-130500000D02*
X892970000Y-127500000D01*
X893220000Y-133451811D02*
X893220000Y-130750000D01*
X782974286Y-136926000D02*
X781724286Y-138176000D01*
X891720000Y-126250000D02*
X891720000Y-126204000D01*
X775364286Y-136390000D02*
X775364286Y-135128000D01*
X782974286Y-126750000D02*
X782974286Y-136926000D01*
X893220000Y-130750000D02*
X892970000Y-130500000D01*
%TO.N,/Pin_3_OUT*%
X68732000Y-72395000D02*
X68224000Y-72903000D01*
X68224000Y-72903000D02*
X57089000Y-72903000D01*
X57089000Y-72903000D02*
X56540000Y-73452000D01*
%TO.N,/Pin_5_OUT*%
X67315000Y-75377000D02*
X63545000Y-75377000D01*
X68224000Y-74468000D02*
X67315000Y-75377000D01*
X61360288Y-73957600D02*
X61357888Y-73960000D01*
X56032000Y-76564644D02*
X56032000Y-94788000D01*
X63545000Y-75377000D02*
X62128000Y-73960000D01*
X58636644Y-73960000D02*
X56032000Y-76564644D01*
X61882112Y-73960000D02*
X61879712Y-73957600D01*
X62128000Y-73960000D02*
X61882112Y-73960000D01*
X56032000Y-94788000D02*
X57048000Y-95804000D01*
X61357888Y-73960000D02*
X58636644Y-73960000D01*
X61879712Y-73957600D02*
X61360288Y-73957600D01*
%TD*%
M02*
