%TF.GenerationSoftware,KiCad,Pcbnew,9.0.8-9.0.8~ubuntu24.04.1*%
%TF.CreationDate,2026-04-28T17:03:27+02:00*%
%TF.ProjectId,TheLine,5468654c-696e-4652-9e6b-696361645f70,rev?*%
%TF.SameCoordinates,Original*%
%TF.FileFunction,Copper,L4,Bot*%
%TF.FilePolarity,Positive*%
%FSLAX46Y46*%
G04 Gerber Fmt 4.6, Leading zero omitted, Abs format (unit mm)*
G04 Created by KiCad (PCBNEW 9.0.8-9.0.8~ubuntu24.04.1) date 2026-04-28 17:03:27*
%MOMM*%
%LPD*%
G01*
G04 APERTURE LIST*
G04 Aperture macros list*
%AMFreePoly0*
4,1,6,1.000000,0.000000,0.500000,-0.750000,-0.500000,-0.750000,-0.500000,0.750000,0.500000,0.750000,1.000000,0.000000,1.000000,0.000000,$1*%
%AMFreePoly1*
4,1,6,0.500000,-0.750000,-0.650000,-0.750000,-0.150000,0.000000,-0.650000,0.750000,0.500000,0.750000,0.500000,-0.750000,0.500000,-0.750000,$1*%
G04 Aperture macros list end*
%TA.AperFunction,EtchedComponent*%
%ADD10C,0.000000*%
%TD*%
%TA.AperFunction,ComponentPad*%
%ADD11C,5.000000*%
%TD*%
%TA.AperFunction,ComponentPad*%
%ADD12R,1.700000X1.700000*%
%TD*%
%TA.AperFunction,ComponentPad*%
%ADD13O,1.700000X1.700000*%
%TD*%
%TA.AperFunction,SMDPad,CuDef*%
%ADD14FreePoly0,270.000000*%
%TD*%
%TA.AperFunction,SMDPad,CuDef*%
%ADD15FreePoly1,270.000000*%
%TD*%
%TA.AperFunction,SMDPad,CuDef*%
%ADD16R,1.000000X1.500000*%
%TD*%
%TA.AperFunction,ViaPad*%
%ADD17C,0.600000*%
%TD*%
%TA.AperFunction,Conductor*%
%ADD18C,0.254000*%
%TD*%
%TA.AperFunction,Conductor*%
%ADD19C,0.400000*%
%TD*%
%TA.AperFunction,Conductor*%
%ADD20C,0.300000*%
%TD*%
G04 APERTURE END LIST*
D10*
%TA.AperFunction,EtchedComponent*%
%TO.C,JP101*%
G36*
X204120000Y-130094000D02*
G01*
X203620000Y-130094000D01*
X203620000Y-129494000D01*
X204120000Y-129494000D01*
X204120000Y-130094000D01*
G37*
%TD.AperFunction*%
%TA.AperFunction,EtchedComponent*%
%TO.C,JP100*%
G36*
X204090000Y-127300000D02*
G01*
X203590000Y-127300000D01*
X203590000Y-126700000D01*
X204090000Y-126700000D01*
X204090000Y-127300000D01*
G37*
%TD.AperFunction*%
%TA.AperFunction,EtchedComponent*%
%TO.C,JP102*%
G36*
X204120000Y-132888000D02*
G01*
X203620000Y-132888000D01*
X203620000Y-132288000D01*
X204120000Y-132288000D01*
X204120000Y-132888000D01*
G37*
%TD.AperFunction*%
%TD*%
D11*
%TO.P,,1*%
%TO.N,N/C*%
X57150000Y-122174000D03*
%TD*%
%TO.P,LS8,*%
%TO.N,*%
X228030000Y-59210000D03*
X238930000Y-131710000D03*
D12*
%TO.P,LS8,1,1*%
%TO.N,/DAC8/OUT+*%
X226430000Y-136210000D03*
D13*
%TO.P,LS8,2,2*%
%TO.N,/DAC8/OUT-*%
X228930000Y-136210000D03*
%TD*%
D11*
%TO.P,,1*%
%TO.N,N/C*%
X65783122Y-122211958D03*
%TD*%
%TO.P,LS6,*%
%TO.N,*%
X180021429Y-59250000D03*
X190921429Y-131750000D03*
D12*
%TO.P,LS6,1,1*%
%TO.N,/DAC6/OUT+*%
X178421429Y-136250000D03*
D13*
%TO.P,LS6,2,2*%
%TO.N,/DAC6/OUT-*%
X180921429Y-136250000D03*
%TD*%
D11*
%TO.P,LS3,*%
%TO.N,*%
X108008571Y-59250000D03*
X118908571Y-131750000D03*
D12*
%TO.P,LS3,1,1*%
%TO.N,/DAC3/OUT+*%
X106408571Y-136250000D03*
D13*
%TO.P,LS3,2,2*%
%TO.N,/DAC3/OUT-*%
X108908571Y-136250000D03*
%TD*%
D11*
%TO.P,,1*%
%TO.N,N/C*%
X65807380Y-64200386D03*
%TD*%
%TO.P,LS4,*%
%TO.N,*%
X132012857Y-59250000D03*
X142912857Y-131750000D03*
D12*
%TO.P,LS4,1,1*%
%TO.N,/DAC4/OUT+*%
X130412857Y-136250000D03*
D13*
%TO.P,LS4,2,2*%
%TO.N,/DAC4/OUT-*%
X132912857Y-136250000D03*
%TD*%
D11*
%TO.P,LS1,*%
%TO.N,*%
X60000000Y-59250000D03*
X70900000Y-131750000D03*
D12*
%TO.P,LS1,1,1*%
%TO.N,/DAC1/OUT+*%
X58400000Y-136250000D03*
D13*
%TO.P,LS1,2,2*%
%TO.N,/DAC1/OUT-*%
X60900000Y-136250000D03*
%TD*%
D11*
%TO.P,LS7,*%
%TO.N,*%
X204025714Y-59250000D03*
X214925714Y-131750000D03*
D12*
%TO.P,LS7,1,1*%
%TO.N,/DAC7/OUT+*%
X202425714Y-136250000D03*
D13*
%TO.P,LS7,2,2*%
%TO.N,/DAC7/OUT-*%
X204925714Y-136250000D03*
%TD*%
D11*
%TO.P,,1*%
%TO.N,N/C*%
X57150000Y-64212518D03*
%TD*%
D12*
%TO.P,J2,1,Pin_1*%
%TO.N,GND*%
X66635765Y-69120000D03*
D13*
%TO.P,J2,2,Pin_2*%
%TO.N,/Pin_2*%
X64095765Y-69120000D03*
%TO.P,J2,3,Pin_3*%
%TO.N,/Pin_3*%
X66635765Y-71660000D03*
%TO.P,J2,4,Pin_4*%
%TO.N,/Pin_4*%
X64095765Y-71660000D03*
%TO.P,J2,5,Pin_5*%
%TO.N,/Pin_5*%
X66635765Y-74200000D03*
%TO.P,J2,6,Pin_6*%
%TO.N,/Pin_6*%
X64095765Y-74200000D03*
%TO.P,J2,7,Pin_7*%
%TO.N,/Pin_7*%
X66635765Y-76740000D03*
%TO.P,J2,8,Pin_8*%
%TO.N,/Pin_8*%
X64095765Y-76740000D03*
%TO.P,J2,9,Pin_9*%
%TO.N,/Pin_9*%
X66635765Y-79280000D03*
%TO.P,J2,10,Pin_10*%
%TO.N,/Pin_10*%
X64095765Y-79280000D03*
%TO.P,J2,11,Pin_11*%
%TO.N,/Pin_11*%
X66635765Y-81820000D03*
%TO.P,J2,12,Pin_12*%
%TO.N,/Pin_12*%
X64095765Y-81820000D03*
%TO.P,J2,13,Pin_13*%
%TO.N,/Pin_13*%
X66635765Y-84360000D03*
%TO.P,J2,14,Pin_14*%
%TO.N,/Pin_14*%
X64095765Y-84360000D03*
%TO.P,J2,15,Pin_15*%
%TO.N,/Pin_15*%
X66635765Y-86900000D03*
%TO.P,J2,16,Pin_16*%
%TO.N,/Pin_16*%
X64095765Y-86900000D03*
%TO.P,J2,17,Pin_17*%
%TO.N,/Pin_17*%
X66635765Y-89440000D03*
%TO.P,J2,18,Pin_18*%
%TO.N,/Pin_18*%
X64095765Y-89440000D03*
%TO.P,J2,19,Pin_19*%
%TO.N,/Pin_19*%
X66635765Y-91980000D03*
%TO.P,J2,20,Pin_20*%
%TO.N,/Pin_20*%
X64095765Y-91980000D03*
%TO.P,J2,21,Pin_21*%
%TO.N,/Pin_21*%
X66635765Y-94520000D03*
%TO.P,J2,22,Pin_22*%
%TO.N,/Pin_22*%
X64095765Y-94520000D03*
%TO.P,J2,23,Pin_23*%
%TO.N,/Pin_23*%
X66635765Y-97060000D03*
%TO.P,J2,24,Pin_24*%
%TO.N,/Pin_24*%
X64095765Y-97060000D03*
%TO.P,J2,25,Pin_25*%
%TO.N,/Pin_25*%
X66635765Y-99600000D03*
%TO.P,J2,26,Pin_26*%
%TO.N,/Pin_26*%
X64095765Y-99600000D03*
%TO.P,J2,27,Pin_27*%
%TO.N,/Pin_27*%
X66635765Y-102140000D03*
%TO.P,J2,28,Pin_28*%
%TO.N,/Pin_28*%
X64095765Y-102140000D03*
%TO.P,J2,29,Pin_29*%
%TO.N,/Pin_29*%
X66635765Y-104680000D03*
%TO.P,J2,30,Pin_30*%
%TO.N,/Pin_30*%
X64095765Y-104680000D03*
%TO.P,J2,31,Pin_31*%
%TO.N,/Pin_31*%
X66635765Y-107220000D03*
%TO.P,J2,32,Pin_32*%
%TO.N,/Pin_32*%
X64095765Y-107220000D03*
%TO.P,J2,33,Pin_33*%
%TO.N,/Pin_33*%
X66635765Y-109760000D03*
%TO.P,J2,34,Pin_34*%
%TO.N,/Pin_34*%
X64095765Y-109760000D03*
%TO.P,J2,35,Pin_35*%
%TO.N,/Pin_35*%
X66635765Y-112300000D03*
%TO.P,J2,36,Pin_36*%
%TO.N,/Pin_36*%
X64095765Y-112300000D03*
%TO.P,J2,37,Pin_37*%
%TO.N,GND*%
X66635765Y-114840000D03*
%TO.P,J2,38,Pin_38*%
X64095765Y-114840000D03*
%TO.P,J2,39,Pin_39*%
%TO.N,VCC*%
X66635765Y-117380000D03*
%TO.P,J2,40,Pin_40*%
X64095765Y-117380000D03*
%TD*%
D11*
%TO.P,LS5,*%
%TO.N,*%
X156017143Y-59250000D03*
X166917143Y-131750000D03*
D12*
%TO.P,LS5,1,1*%
%TO.N,/DAC5/OUT+*%
X154417143Y-136250000D03*
D13*
%TO.P,LS5,2,2*%
%TO.N,/DAC5/OUT-*%
X156917143Y-136250000D03*
%TD*%
D12*
%TO.P,J3,1,Pin_1*%
%TO.N,GND*%
X239000000Y-69140000D03*
D11*
X240270000Y-64314000D03*
X240270000Y-122293503D03*
D13*
%TO.P,J3,2,Pin_2*%
%TO.N,/Pin_2*%
X241540000Y-69140000D03*
%TO.P,J3,3,Pin_3*%
%TO.N,/Pin_3_OUT*%
X239000000Y-71680000D03*
%TO.P,J3,4,Pin_4*%
%TO.N,/Pin_4*%
X241540000Y-71680000D03*
%TO.P,J3,5,Pin_5*%
%TO.N,/Pin_5_OUT*%
X239000000Y-74220000D03*
%TO.P,J3,6,Pin_6*%
%TO.N,/Pin_6*%
X241540000Y-74220000D03*
%TO.P,J3,7,Pin_7*%
%TO.N,/Pin_7*%
X239000000Y-76760000D03*
%TO.P,J3,8,Pin_8*%
%TO.N,/Pin_8*%
X241540000Y-76760000D03*
%TO.P,J3,9,Pin_9*%
%TO.N,/Pin_9*%
X239000000Y-79300000D03*
%TO.P,J3,10,Pin_10*%
%TO.N,/Pin_10*%
X241540000Y-79300000D03*
%TO.P,J3,11,Pin_11*%
%TO.N,/Pin_11*%
X239000000Y-81840000D03*
%TO.P,J3,12,Pin_12*%
%TO.N,/Pin_12*%
X241540000Y-81840000D03*
%TO.P,J3,13,Pin_13*%
%TO.N,/Pin_13*%
X239000000Y-84380000D03*
%TO.P,J3,14,Pin_14*%
%TO.N,/Pin_14*%
X241540000Y-84380000D03*
%TO.P,J3,15,Pin_15*%
%TO.N,/Pin_15*%
X239000000Y-86920000D03*
%TO.P,J3,16,Pin_16*%
%TO.N,/Pin_16*%
X241540000Y-86920000D03*
%TO.P,J3,17,Pin_17*%
%TO.N,/Pin_17*%
X239000000Y-89460000D03*
%TO.P,J3,18,Pin_18*%
%TO.N,/Pin_18*%
X241540000Y-89460000D03*
%TO.P,J3,19,Pin_19*%
%TO.N,/Pin_19*%
X239000000Y-92000000D03*
%TO.P,J3,20,Pin_20*%
%TO.N,/Pin_20*%
X241540000Y-92000000D03*
%TO.P,J3,21,Pin_21*%
%TO.N,/Pin_21*%
X239000000Y-94540000D03*
%TO.P,J3,22,Pin_22*%
%TO.N,/Pin_22*%
X241540000Y-94540000D03*
%TO.P,J3,23,Pin_23*%
%TO.N,/Pin_23*%
X239000000Y-97080000D03*
%TO.P,J3,24,Pin_24*%
%TO.N,/Pin_24*%
X241540000Y-97080000D03*
%TO.P,J3,25,Pin_25*%
%TO.N,/Pin_25*%
X239000000Y-99620000D03*
%TO.P,J3,26,Pin_26*%
%TO.N,/Pin_26*%
X241540000Y-99620000D03*
%TO.P,J3,27,Pin_27*%
%TO.N,/Pin_27*%
X239000000Y-102160000D03*
%TO.P,J3,28,Pin_28*%
%TO.N,/Pin_28*%
X241540000Y-102160000D03*
%TO.P,J3,29,Pin_29*%
%TO.N,/Pin_29*%
X239000000Y-104700000D03*
%TO.P,J3,30,Pin_30*%
%TO.N,/Pin_30*%
X241540000Y-104700000D03*
%TO.P,J3,31,Pin_31*%
%TO.N,/Pin_31*%
X239000000Y-107240000D03*
%TO.P,J3,32,Pin_32*%
%TO.N,/Pin_32*%
X241540000Y-107240000D03*
%TO.P,J3,33,Pin_33*%
%TO.N,/Pin_33*%
X239000000Y-109780000D03*
%TO.P,J3,34,Pin_34*%
%TO.N,/Pin_34*%
X241540000Y-109780000D03*
%TO.P,J3,35,Pin_35*%
%TO.N,/Pin_35*%
X239000000Y-112320000D03*
%TO.P,J3,36,Pin_36*%
%TO.N,/Pin_36*%
X241540000Y-112320000D03*
%TO.P,J3,37,Pin_37*%
%TO.N,GND*%
X239000000Y-114860000D03*
%TO.P,J3,38,Pin_38*%
X241540000Y-114860000D03*
%TO.P,J3,39,Pin_39*%
%TO.N,VCC*%
X239000000Y-117400000D03*
%TO.P,J3,40,Pin_40*%
X241540000Y-117400000D03*
%TD*%
D11*
%TO.P,LS2,*%
%TO.N,*%
X84004286Y-59250000D03*
X94904286Y-131750000D03*
D12*
%TO.P,LS2,1,1*%
%TO.N,/DAC2/OUT+*%
X82404286Y-136250000D03*
D13*
%TO.P,LS2,2,2*%
%TO.N,/DAC2/OUT-*%
X84904286Y-136250000D03*
%TD*%
D14*
%TO.P,JP5,1,A*%
%TO.N,DIN*%
X140385800Y-68363000D03*
D15*
%TO.P,JP5,2,B*%
%TO.N,/Pin_20*%
X140385800Y-69813000D03*
%TD*%
D16*
%TO.P,JP101,1,A*%
%TO.N,Net-(JP101-A)*%
X204520000Y-129794000D03*
%TO.P,JP101,2,C*%
%TO.N,/DAC7/MODE*%
X203220000Y-129794000D03*
%TO.P,JP101,3,B*%
%TO.N,Net-(JP101-B)*%
X201920000Y-129794000D03*
%TD*%
D14*
%TO.P,JP12,1,A*%
%TO.N,DIN*%
X164003567Y-68363000D03*
D15*
%TO.P,JP12,2,B*%
%TO.N,/Pin_9*%
X164003567Y-69813000D03*
%TD*%
D14*
%TO.P,JP17,1,A*%
%TO.N,DIN*%
X180873400Y-68363000D03*
D15*
%TO.P,JP17,2,B*%
%TO.N,/Pin_13*%
X180873400Y-69813000D03*
%TD*%
D14*
%TO.P,JP27,1,A*%
%TO.N,DIN*%
X214613067Y-68363000D03*
D15*
%TO.P,JP27,2,B*%
%TO.N,/Pin_29*%
X214613067Y-69813000D03*
%TD*%
D12*
%TO.P,J4,1,Pin_1*%
%TO.N,GND*%
X241751000Y-54361000D03*
D13*
%TO.P,J4,2,Pin_2*%
%TO.N,VDD*%
X241751000Y-51821000D03*
%TD*%
D14*
%TO.P,JP11,1,A*%
%TO.N,DIN*%
X160629600Y-68363000D03*
D15*
%TO.P,JP11,2,B*%
%TO.N,/Pin_14*%
X160629600Y-69813000D03*
%TD*%
D14*
%TO.P,JP21,1,A*%
%TO.N,DIN*%
X194369267Y-68363000D03*
D15*
%TO.P,JP21,2,B*%
%TO.N,/Pin_32*%
X194369267Y-69813000D03*
%TD*%
D16*
%TO.P,JP100,1,A*%
%TO.N,Net-(JP100-A)*%
X204490000Y-127000000D03*
%TO.P,JP100,2,C*%
%TO.N,/DAC6/MODE*%
X203190000Y-127000000D03*
%TO.P,JP100,3,B*%
%TO.N,Net-(JP100-B)*%
X201890000Y-127000000D03*
%TD*%
D14*
%TO.P,JP23,1,A*%
%TO.N,DIN*%
X201117200Y-68363000D03*
D15*
%TO.P,JP23,2,B*%
%TO.N,/Pin_36*%
X201117200Y-69813000D03*
%TD*%
D14*
%TO.P,JP25,1,A*%
%TO.N,DIN*%
X207865133Y-68363000D03*
D15*
%TO.P,JP25,2,B*%
%TO.N,/Pin_33*%
X207865133Y-69813000D03*
%TD*%
D14*
%TO.P,JP7,1,A*%
%TO.N,DIN*%
X147133733Y-68363000D03*
D15*
%TO.P,JP7,2,B*%
%TO.N,/Pin_21*%
X147133733Y-69813000D03*
%TD*%
D14*
%TO.P,JP4,1,A*%
%TO.N,DIN*%
X137011833Y-68363000D03*
D15*
%TO.P,JP4,2,B*%
%TO.N,/Pin_16*%
X137011833Y-69813000D03*
%TD*%
D14*
%TO.P,JP13,1,A*%
%TO.N,DIN*%
X167377533Y-68363000D03*
D15*
%TO.P,JP13,2,B*%
%TO.N,/Pin_7*%
X167377533Y-69813000D03*
%TD*%
D14*
%TO.P,JP30,1,A*%
%TO.N,DIN*%
X224734967Y-68363000D03*
D15*
%TO.P,JP30,2,B*%
%TO.N,/Pin_24*%
X224734967Y-69813000D03*
%TD*%
D14*
%TO.P,JP31,1,A*%
%TO.N,DIN*%
X228108933Y-68363000D03*
D15*
%TO.P,JP31,2,B*%
%TO.N,/Pin_26*%
X228108933Y-69813000D03*
%TD*%
D14*
%TO.P,JP22,1,A*%
%TO.N,DIN*%
X197743233Y-68363000D03*
D15*
%TO.P,JP22,2,B*%
%TO.N,/Pin_34*%
X197743233Y-69813000D03*
%TD*%
D14*
%TO.P,JP14,1,A*%
%TO.N,DIN*%
X170751500Y-68363000D03*
D15*
%TO.P,JP14,2,B*%
%TO.N,/Pin_6*%
X170751500Y-69813000D03*
%TD*%
D14*
%TO.P,JP8,1,A*%
%TO.N,DIN*%
X150507700Y-68363000D03*
D15*
%TO.P,JP8,2,B*%
%TO.N,/Pin_19*%
X150507700Y-69813000D03*
%TD*%
D12*
%TO.P,J1,1,Pin_1*%
%TO.N,GND*%
X64090000Y-54386000D03*
D13*
%TO.P,J1,2,Pin_2*%
%TO.N,VDD*%
X64090000Y-51846000D03*
%TD*%
D14*
%TO.P,JP32,1,A*%
%TO.N,DIN*%
X231482900Y-68363000D03*
D15*
%TO.P,JP32,2,B*%
%TO.N,/Pin_30*%
X231482900Y-69813000D03*
%TD*%
D14*
%TO.P,JP9,1,A*%
%TO.N,DIN*%
X153881667Y-68363000D03*
D15*
%TO.P,JP9,2,B*%
%TO.N,/Pin_17*%
X153881667Y-69813000D03*
%TD*%
D14*
%TO.P,JP18,1,A*%
%TO.N,DIN*%
X184247367Y-68363000D03*
D15*
%TO.P,JP18,2,B*%
%TO.N,/Pin_18*%
X184247367Y-69813000D03*
%TD*%
D16*
%TO.P,JP102,1,A*%
%TO.N,Net-(JP102-A)*%
X204520000Y-132588000D03*
%TO.P,JP102,2,C*%
%TO.N,/DAC8/MODE*%
X203220000Y-132588000D03*
%TO.P,JP102,3,B*%
%TO.N,Net-(JP102-B)*%
X201920000Y-132588000D03*
%TD*%
D14*
%TO.P,JP16,1,A*%
%TO.N,DIN*%
X177499433Y-68363000D03*
D15*
%TO.P,JP16,2,B*%
%TO.N,/Pin_12*%
X177499433Y-69813000D03*
%TD*%
D14*
%TO.P,JP1,1,A*%
%TO.N,DIN*%
X127005000Y-68387000D03*
D15*
%TO.P,JP1,2,B*%
%TO.N,/Pin_4*%
X127005000Y-69837000D03*
%TD*%
D14*
%TO.P,JP6,1,A*%
%TO.N,DIN*%
X143759767Y-68363000D03*
D15*
%TO.P,JP6,2,B*%
%TO.N,/Pin_22*%
X143759767Y-69813000D03*
%TD*%
D14*
%TO.P,JP24,1,A*%
%TO.N,DIN*%
X204491167Y-68363000D03*
D15*
%TO.P,JP24,2,B*%
%TO.N,/Pin_35*%
X204491167Y-69813000D03*
%TD*%
D14*
%TO.P,JP20,1,A*%
%TO.N,DIN*%
X190995300Y-68363000D03*
D15*
%TO.P,JP20,2,B*%
%TO.N,/Pin_28*%
X190995300Y-69813000D03*
%TD*%
D14*
%TO.P,JP10,1,A*%
%TO.N,DIN*%
X157255633Y-68363000D03*
D15*
%TO.P,JP10,2,B*%
%TO.N,/Pin_15*%
X157255633Y-69813000D03*
%TD*%
D14*
%TO.P,JP28,1,A*%
%TO.N,DIN*%
X217987033Y-68363000D03*
D15*
%TO.P,JP28,2,B*%
%TO.N,/Pin_27*%
X217987033Y-69813000D03*
%TD*%
D14*
%TO.P,JP15,1,A*%
%TO.N,DIN*%
X174125467Y-68363000D03*
D15*
%TO.P,JP15,2,B*%
%TO.N,/Pin_8*%
X174125467Y-69813000D03*
%TD*%
D14*
%TO.P,JP3,1,A*%
%TO.N,DIN*%
X133637867Y-68363000D03*
D15*
%TO.P,JP3,2,B*%
%TO.N,/Pin_11*%
X133637867Y-69813000D03*
%TD*%
D14*
%TO.P,JP2,1,A*%
%TO.N,DIN*%
X130263900Y-68363000D03*
D15*
%TO.P,JP2,2,B*%
%TO.N,/Pin_10*%
X130263900Y-69813000D03*
%TD*%
D14*
%TO.P,JP29,1,A*%
%TO.N,DIN*%
X221361000Y-68363000D03*
D15*
%TO.P,JP29,2,B*%
%TO.N,/Pin_25*%
X221361000Y-69813000D03*
%TD*%
D14*
%TO.P,JP19,1,A*%
%TO.N,DIN*%
X187621333Y-68363000D03*
D15*
%TO.P,JP19,2,B*%
%TO.N,/Pin_23*%
X187621333Y-69813000D03*
%TD*%
D14*
%TO.P,JP26,1,A*%
%TO.N,DIN*%
X211239100Y-68363000D03*
D15*
%TO.P,JP26,2,B*%
%TO.N,/Pin_31*%
X211239100Y-69813000D03*
%TD*%
D17*
%TO.N,GND*%
X198120000Y-127400000D03*
X79200000Y-133793500D03*
X180191735Y-126363735D03*
X128778000Y-124206000D03*
X104858500Y-124206000D03*
X55107500Y-128457400D03*
X79125331Y-127953556D03*
X154386000Y-130988000D03*
X82350000Y-130993500D03*
X178516000Y-130988000D03*
X81062500Y-124367700D03*
X84025735Y-126369235D03*
X55524000Y-74468000D03*
X197866000Y-133350000D03*
X58069294Y-125767409D03*
X177038000Y-124325000D03*
X233472000Y-130838000D03*
X60883235Y-127833135D03*
X156061735Y-126363735D03*
X203962000Y-125730000D03*
X88798000Y-130870100D03*
X185291000Y-131013000D03*
X55524000Y-110536000D03*
X76352000Y-60244000D03*
X132211306Y-126363735D03*
X62865000Y-132969000D03*
X55102500Y-130073400D03*
X151236000Y-134265777D03*
X150368000Y-127000000D03*
X223372000Y-134864000D03*
X223012000Y-127508000D03*
X173736000Y-133096000D03*
X102046000Y-126910000D03*
X102996000Y-133710000D03*
X56032000Y-97328000D03*
X202438000Y-134874000D03*
X228197735Y-126363735D03*
X226522000Y-130988000D03*
X152934403Y-124071000D03*
X201168000Y-124206000D03*
X161036000Y-130588000D03*
X65430000Y-132634000D03*
X55016000Y-89200000D03*
X57556000Y-103932000D03*
X112420000Y-130856000D03*
X225234500Y-124206000D03*
X130535571Y-130988000D03*
X127385571Y-133788000D03*
X56057500Y-135257400D03*
X62636000Y-113076000D03*
X106146000Y-130910000D03*
X174244000Y-126988000D03*
X61620000Y-92756000D03*
X209042000Y-130838000D03*
X127058071Y-126988000D03*
X56032000Y-110028000D03*
X137308071Y-130926750D03*
X57556000Y-81580000D03*
X54800000Y-87168000D03*
X107821735Y-126285735D03*
%TO.N,VDD*%
X195834000Y-137922000D03*
X127103471Y-127842000D03*
X102389100Y-128190600D03*
X176575000Y-134810000D03*
X152736000Y-134265777D03*
X151384000Y-128778000D03*
X58937900Y-131064000D03*
X80700000Y-133793500D03*
X58801000Y-133858000D03*
X104496000Y-133710000D03*
X219710000Y-137922000D03*
X79781000Y-128570000D03*
X199898000Y-131826000D03*
X222250000Y-127000000D03*
X198594873Y-129374191D03*
X55585100Y-129286000D03*
X78501424Y-126124136D03*
X175133000Y-129159000D03*
X224872000Y-134864000D03*
X173482000Y-133858000D03*
X128885571Y-133788000D03*
%TO.N,/Pin_35*%
X204470000Y-120186823D03*
%TO.N,/Pin_27*%
X217932000Y-106500706D03*
%TO.N,/Pin_7*%
X167386000Y-73996176D03*
%TO.N,/Pin_23*%
X187579000Y-99657647D03*
%TO.N,/Pin_20*%
X140335000Y-92814588D03*
%TO.N,/Pin_17*%
X153924000Y-91103823D03*
%TO.N,/Pin_15*%
X157226000Y-87682294D03*
%TO.N,VCC*%
X57556000Y-91740000D03*
X61620000Y-74584600D03*
X60873000Y-116244506D03*
X57566323Y-79634600D03*
%TO.N,BCLK*%
X175768000Y-124714000D03*
X59588000Y-94280000D03*
X59552500Y-124724500D03*
X223774000Y-124071000D03*
X79781000Y-124071000D03*
X127508000Y-124206000D03*
X103378000Y-124206000D03*
X199898000Y-124460000D03*
X151892000Y-124460000D03*
%TO.N,/Pin_30*%
X231521000Y-111633000D03*
%TO.N,/Pin_18*%
X184150000Y-89393059D03*
%TO.N,/Pin_26*%
X228108933Y-104769521D03*
%TO.N,/Pin_13*%
X180975000Y-84260764D03*
%TO.N,/Pin_19*%
X150495000Y-94525353D03*
%TO.N,/Pin_10*%
X130302000Y-75706941D03*
%TO.N,/Pin_24*%
X224790000Y-101368412D03*
%TO.N,/Pin_29*%
X214630000Y-109922235D03*
%TO.N,/Pin_36*%
X201066000Y-121920000D03*
%TO.N,/Pin_21*%
X147218000Y-97969294D03*
%TO.N,/Pin_22*%
X143764000Y-96236117D03*
%TO.N,/Pin_11*%
X133604000Y-80839235D03*
%TO.N,LRBCLK*%
X180000000Y-125250000D03*
X59685000Y-126000000D03*
X203250000Y-124250000D03*
X155625000Y-125125000D03*
X107500000Y-125250000D03*
X83250000Y-125250000D03*
X228000000Y-124500000D03*
X131750000Y-125250000D03*
%TO.N,/Pin_28*%
X191008000Y-108211470D03*
%TO.N,/Pin_34*%
X197738600Y-118486200D03*
%TO.N,/Pin_14*%
X160528000Y-82550000D03*
%TO.N,/Pin_8*%
X174117000Y-72285412D03*
%TO.N,/Pin_6*%
X172005904Y-69013000D03*
%TO.N,/Pin_31*%
X211201000Y-113343764D03*
%TO.N,/Pin_25*%
X221488000Y-103079176D03*
%TO.N,/Pin_16*%
X137033000Y-85971529D03*
%TO.N,/Pin_32*%
X194335000Y-115076941D03*
%TO.N,/Pin_9*%
X164084000Y-77417706D03*
%TO.N,/Pin_33*%
X207899000Y-116765294D03*
%TO.N,/Pin_12*%
X177546000Y-79128470D03*
%TO.N,/DAC6/MODE*%
X175768000Y-128524000D03*
%TO.N,/DAC7/MODE*%
X199390000Y-129286000D03*
%TO.N,DIN*%
X234848400Y-123250000D03*
X63017000Y-127935000D03*
X55626000Y-127453400D03*
%TO.N,/Pin_4*%
X125755000Y-65464765D03*
%TO.N,/DAC8/MODE*%
X221750000Y-129750000D03*
%TO.N,Net-(JP100-B)*%
X176301000Y-129167000D03*
%TO.N,Net-(JP100-A)*%
X170942000Y-127762000D03*
%TO.N,Net-(JP101-A)*%
X197612000Y-131826000D03*
%TO.N,Net-(JP101-B)*%
X196850000Y-133858000D03*
%TO.N,Net-(JP102-A)*%
X205476629Y-126135136D03*
%TO.N,Net-(JP102-B)*%
X222037386Y-134239198D03*
%TO.N,/Pin_3_OUT*%
X56540000Y-73452000D03*
X68732000Y-72395000D03*
%TO.N,/Pin_5_OUT*%
X57048000Y-95804000D03*
X68224000Y-74468000D03*
%TD*%
D18*
%TO.N,/Pin_35*%
X204491167Y-69813000D02*
X204491167Y-120165656D01*
X204491167Y-120165656D02*
X204470000Y-120186823D01*
%TO.N,/Pin_27*%
X217987033Y-106445673D02*
X217932000Y-106500706D01*
X217987033Y-69813000D02*
X217987033Y-106445673D01*
%TO.N,/Pin_7*%
X167386000Y-69821467D02*
X167386000Y-73996176D01*
X167377533Y-69813000D02*
X167386000Y-69821467D01*
%TO.N,/Pin_23*%
X187621333Y-99615314D02*
X187579000Y-99657647D01*
X187621333Y-69813000D02*
X187621333Y-99615314D01*
%TO.N,/Pin_20*%
X140385800Y-69813000D02*
X140385800Y-92763788D01*
X140385800Y-92763788D02*
X140335000Y-92814588D01*
%TO.N,/Pin_17*%
X153881667Y-69813000D02*
X153881667Y-91061490D01*
X153881667Y-91061490D02*
X153924000Y-91103823D01*
%TO.N,/Pin_15*%
X157255633Y-69813000D02*
X157255633Y-87652661D01*
X157255633Y-87652661D02*
X157226000Y-87682294D01*
D19*
%TO.N,VCC*%
X60873000Y-116244506D02*
X60873000Y-116393000D01*
D18*
X57556000Y-91740000D02*
X59588000Y-91740000D01*
D19*
X61112000Y-116005506D02*
X60873000Y-116244506D01*
X61860000Y-117380000D02*
X64095765Y-117380000D01*
D18*
X57566323Y-79634600D02*
X57652923Y-79548000D01*
D19*
X60604000Y-84628000D02*
X60604000Y-92756000D01*
X60604000Y-114656000D02*
X61112000Y-115164000D01*
D18*
X57652923Y-79548000D02*
X60604000Y-79548000D01*
X59588000Y-91740000D02*
X60604000Y-92756000D01*
D19*
X60873000Y-116393000D02*
X61860000Y-117380000D01*
X60604000Y-79548000D02*
X60604000Y-84628000D01*
X61112000Y-115164000D02*
X61112000Y-116005506D01*
X61620000Y-74584600D02*
X60604000Y-75600600D01*
X60604000Y-75600600D02*
X60604000Y-79548000D01*
X64095765Y-117380000D02*
X66635765Y-117380000D01*
X60604000Y-92756000D02*
X60604000Y-114656000D01*
D18*
%TO.N,BCLK*%
X175768000Y-124714000D02*
X175768000Y-124706873D01*
X200914000Y-123444000D02*
X223147000Y-123444000D01*
X174498000Y-123444000D02*
X175768000Y-124714000D01*
X79781000Y-123998000D02*
X80335000Y-123444000D01*
X59588000Y-105456000D02*
X59588000Y-94280000D01*
X103378000Y-124206000D02*
X104140000Y-123444000D01*
X151892000Y-124460000D02*
X151892000Y-124225276D01*
X79781000Y-124071000D02*
X79781000Y-123998000D01*
X59552500Y-124724500D02*
X60077000Y-124200000D01*
X60077000Y-105945000D02*
X59588000Y-105456000D01*
X151892000Y-124225276D02*
X152673276Y-123444000D01*
X80335000Y-123444000D02*
X102616000Y-123444000D01*
X127508000Y-124206000D02*
X128270000Y-123444000D01*
X223147000Y-123444000D02*
X223774000Y-124071000D01*
X177030873Y-123444000D02*
X198882000Y-123444000D01*
X175768000Y-124706873D02*
X177030873Y-123444000D01*
X104140000Y-123444000D02*
X126746000Y-123444000D01*
X150876000Y-123444000D02*
X151892000Y-124460000D01*
X198882000Y-123444000D02*
X199898000Y-124460000D01*
X60223000Y-125395000D02*
X79273000Y-125395000D01*
X128270000Y-123444000D02*
X150876000Y-123444000D01*
X126746000Y-123444000D02*
X127508000Y-124206000D01*
X152673276Y-123444000D02*
X174498000Y-123444000D01*
X79273000Y-125395000D02*
X79781000Y-124887000D01*
X59552500Y-124724500D02*
X60223000Y-125395000D01*
X199898000Y-124460000D02*
X200914000Y-123444000D01*
X102616000Y-123444000D02*
X103378000Y-124206000D01*
X60077000Y-124200000D02*
X60077000Y-105945000D01*
X79781000Y-124887000D02*
X79781000Y-124071000D01*
%TO.N,/Pin_30*%
X231521000Y-111633000D02*
X231521000Y-111506000D01*
X231521000Y-111506000D02*
X231482900Y-111467900D01*
X231482900Y-111467900D02*
X231482900Y-69813000D01*
%TO.N,/Pin_18*%
X184150000Y-69910367D02*
X184150000Y-89393059D01*
X184247367Y-69813000D02*
X184150000Y-69910367D01*
%TO.N,/Pin_26*%
X228108933Y-69813000D02*
X228108933Y-104769521D01*
%TO.N,/Pin_13*%
X180873400Y-69813000D02*
X180975000Y-69914600D01*
X180975000Y-69914600D02*
X180975000Y-84260764D01*
%TO.N,/Pin_19*%
X150507700Y-94512653D02*
X150495000Y-94525353D01*
X150507700Y-69813000D02*
X150507700Y-94512653D01*
%TO.N,/Pin_10*%
X130263900Y-69813000D02*
X130263900Y-75668841D01*
X130263900Y-75668841D02*
X130302000Y-75706941D01*
%TO.N,/Pin_24*%
X224734967Y-69813000D02*
X224734967Y-101313379D01*
X224734967Y-101313379D02*
X224790000Y-101368412D01*
%TO.N,/Pin_29*%
X214613067Y-109905302D02*
X214630000Y-109922235D01*
X214613067Y-69813000D02*
X214613067Y-109905302D01*
%TO.N,/Pin_36*%
X201117200Y-69813000D02*
X201117200Y-121868800D01*
X201117200Y-121868800D02*
X201066000Y-121920000D01*
%TO.N,/Pin_21*%
X147133733Y-97885027D02*
X147133733Y-69813000D01*
X147218000Y-97969294D02*
X147133733Y-97885027D01*
%TO.N,/Pin_22*%
X143759767Y-69813000D02*
X143759767Y-96231884D01*
X143759767Y-96231884D02*
X143764000Y-96236117D01*
%TO.N,/Pin_11*%
X133637867Y-69813000D02*
X133604000Y-69846867D01*
X133604000Y-69846867D02*
X133604000Y-80839235D01*
%TO.N,LRBCLK*%
X180000000Y-125250000D02*
X202250000Y-125250000D01*
X59685000Y-126000000D02*
X60436135Y-126751135D01*
X155625000Y-125125000D02*
X155250000Y-125500000D01*
X204000000Y-125000000D02*
X227500000Y-125000000D01*
X83250000Y-125250000D02*
X83500000Y-125500000D01*
X107250000Y-125500000D02*
X107500000Y-125250000D01*
X107750000Y-125500000D02*
X131500000Y-125500000D01*
X155250000Y-125500000D02*
X132000000Y-125500000D01*
X202250000Y-125250000D02*
X203250000Y-124250000D01*
X107500000Y-125250000D02*
X107750000Y-125500000D01*
X179750000Y-125500000D02*
X180000000Y-125250000D01*
X132000000Y-125500000D02*
X131750000Y-125250000D01*
X60436135Y-126751135D02*
X81748865Y-126751135D01*
X131500000Y-125500000D02*
X131750000Y-125250000D01*
X156000000Y-125500000D02*
X179750000Y-125500000D01*
X155625000Y-125125000D02*
X156000000Y-125500000D01*
X83500000Y-125500000D02*
X107250000Y-125500000D01*
X227500000Y-125000000D02*
X228000000Y-124500000D01*
X81748865Y-126751135D02*
X83250000Y-125250000D01*
X203250000Y-124250000D02*
X204000000Y-125000000D01*
%TO.N,/Pin_28*%
X190995300Y-108198770D02*
X191008000Y-108211470D01*
X190995300Y-69813000D02*
X190995300Y-108198770D01*
%TO.N,/Pin_34*%
X197743233Y-69813000D02*
X197739000Y-69817233D01*
X197738600Y-69921400D02*
X197738600Y-118410000D01*
%TO.N,/Pin_14*%
X160528000Y-69914600D02*
X160528000Y-82550000D01*
X160629600Y-69813000D02*
X160528000Y-69914600D01*
%TO.N,/Pin_8*%
X174125467Y-72276945D02*
X174117000Y-72285412D01*
X174125467Y-69813000D02*
X174125467Y-72276945D01*
%TO.N,/Pin_6*%
X172005904Y-69746096D02*
X171939000Y-69813000D01*
X172005904Y-69013000D02*
X172005904Y-69746096D01*
X171939000Y-69813000D02*
X170751500Y-69813000D01*
%TO.N,/Pin_31*%
X211201000Y-113343764D02*
X211201000Y-69851100D01*
X211201000Y-69851100D02*
X211239100Y-69813000D01*
%TO.N,/Pin_25*%
X221361000Y-102952176D02*
X221488000Y-103079176D01*
X221361000Y-69813000D02*
X221361000Y-102952176D01*
%TO.N,/Pin_16*%
X137011833Y-69813000D02*
X137011833Y-85950362D01*
X137011833Y-85950362D02*
X137033000Y-85971529D01*
%TO.N,/Pin_32*%
X194360400Y-115051541D02*
X194335000Y-115076941D01*
X194360400Y-69870600D02*
X194360400Y-115051541D01*
%TO.N,/Pin_9*%
X164003567Y-69813000D02*
X164084000Y-69893433D01*
X164084000Y-69893433D02*
X164084000Y-77417706D01*
%TO.N,/Pin_33*%
X207865133Y-69813000D02*
X207865133Y-116731427D01*
X207865133Y-116731427D02*
X207899000Y-116765294D01*
%TO.N,/Pin_12*%
X177499433Y-69813000D02*
X177499433Y-79081903D01*
X177499433Y-79081903D02*
X177546000Y-79128470D01*
%TO.N,/DAC6/MODE*%
X175768000Y-128524000D02*
X180284000Y-128524000D01*
X180284000Y-128524000D02*
X183032000Y-125776000D01*
X202484000Y-125776000D02*
X203170000Y-126462000D01*
X183032000Y-125776000D02*
X202484000Y-125776000D01*
X203170000Y-126462000D02*
X203170000Y-127000000D01*
%TO.N,/DAC7/MODE*%
X202607934Y-128711000D02*
X199965000Y-128711000D01*
X199965000Y-128711000D02*
X199390000Y-129286000D01*
X203200000Y-129540000D02*
X203200000Y-129303066D01*
X203200000Y-129303066D02*
X202607934Y-128711000D01*
%TO.N,DIN*%
X63017000Y-127935000D02*
X62128000Y-127935000D01*
X61398135Y-127205135D02*
X55874265Y-127205135D01*
D20*
X127029000Y-68363000D02*
X127005000Y-68387000D01*
X233463000Y-68363000D02*
X130263900Y-68363000D01*
X234848400Y-69748400D02*
X233463000Y-68363000D01*
X234848400Y-123250000D02*
X234848400Y-69748400D01*
D18*
X62128000Y-127935000D02*
X61398135Y-127205135D01*
D20*
X130263900Y-68363000D02*
X127029000Y-68363000D01*
D18*
X55874265Y-127205135D02*
X55626000Y-127453400D01*
%TO.N,/Pin_4*%
X125922000Y-69024797D02*
X126617106Y-69719903D01*
X126617106Y-69719903D02*
X126887903Y-69719903D01*
X126887903Y-69719903D02*
X127005000Y-69837000D01*
X125755000Y-65464765D02*
X125922000Y-65631765D01*
X125922000Y-65631765D02*
X125922000Y-69024797D01*
%TO.N,/DAC8/MODE*%
X203250000Y-133114000D02*
X203220000Y-133084000D01*
X204250000Y-134500000D02*
X203250000Y-133500000D01*
X206250000Y-133250000D02*
X205000000Y-134500000D01*
X205000000Y-134500000D02*
X204250000Y-134500000D01*
X206250000Y-126500000D02*
X206250000Y-133250000D01*
X203250000Y-133500000D02*
X203250000Y-133114000D01*
X207000000Y-125750000D02*
X206250000Y-126500000D01*
X203220000Y-133084000D02*
X203220000Y-132588000D01*
X221750000Y-129750000D02*
X221750000Y-127500000D01*
X220000000Y-125750000D02*
X207000000Y-125750000D01*
X221750000Y-127500000D02*
X220000000Y-125750000D01*
%TO.N,Net-(JP100-B)*%
X201636000Y-126746000D02*
X201890000Y-127000000D01*
X180472053Y-128978000D02*
X182704052Y-126746000D01*
X176490000Y-128978000D02*
X180472053Y-128978000D01*
X176301000Y-129167000D02*
X176490000Y-128978000D01*
X182704052Y-126746000D02*
X201636000Y-126746000D01*
%TO.N,Net-(JP100-A)*%
X204018000Y-127000000D02*
X204490000Y-127000000D01*
X202582934Y-128078000D02*
X202577934Y-128083000D01*
X204490000Y-127488000D02*
X203900000Y-128078000D01*
X182757000Y-128083000D02*
X181046000Y-129794000D01*
X181046000Y-129794000D02*
X172974000Y-129794000D01*
X204490000Y-127000000D02*
X204490000Y-127488000D01*
X203900000Y-128078000D02*
X202582934Y-128078000D01*
X204222127Y-126358000D02*
X204018000Y-126358000D01*
X202577934Y-128083000D02*
X182757000Y-128083000D01*
X172974000Y-129794000D02*
X170942000Y-127762000D01*
X204018000Y-126358000D02*
X204018000Y-127000000D01*
%TO.N,Net-(JP101-A)*%
X198441000Y-130997000D02*
X197612000Y-131826000D01*
X204283000Y-130997000D02*
X198441000Y-130997000D01*
X204520000Y-129794000D02*
X204520000Y-130760000D01*
X204520000Y-130760000D02*
X204283000Y-130997000D01*
%TO.N,Net-(JP101-B)*%
X201458809Y-130001191D02*
X198548682Y-130001191D01*
X201920000Y-129794000D02*
X201666000Y-129794000D01*
X201666000Y-129794000D02*
X201458809Y-130001191D01*
X198548682Y-130001191D02*
X196850000Y-131699873D01*
X196850000Y-131699873D02*
X196850000Y-133858000D01*
%TO.N,Net-(JP102-A)*%
X205511000Y-131089000D02*
X204520000Y-132080000D01*
X205476629Y-126135136D02*
X205511000Y-126169507D01*
X204520000Y-132080000D02*
X204520000Y-132588000D01*
X205511000Y-126169507D02*
X205511000Y-131089000D01*
%TO.N,Net-(JP102-B)*%
X199390000Y-135128000D02*
X201920000Y-132598000D01*
X205750000Y-138176000D02*
X201176000Y-138176000D01*
X207546000Y-126204000D02*
X207000000Y-126750000D01*
X201176000Y-138176000D02*
X199390000Y-136390000D01*
X201920000Y-132598000D02*
X201920000Y-132588000D01*
X219750000Y-126204000D02*
X207546000Y-126204000D01*
X221000000Y-127500000D02*
X219750000Y-126250000D01*
X222037386Y-134239198D02*
X221250000Y-133451812D01*
X221000000Y-130500000D02*
X221000000Y-127500000D01*
X221250000Y-133451812D02*
X221250000Y-130750000D01*
X207000000Y-136926000D02*
X205750000Y-138176000D01*
X219750000Y-126250000D02*
X219750000Y-126204000D01*
X199390000Y-136390000D02*
X199390000Y-135128000D01*
X207000000Y-126750000D02*
X207000000Y-136926000D01*
X221250000Y-130750000D02*
X221000000Y-130500000D01*
%TO.N,/Pin_3_OUT*%
X68732000Y-72395000D02*
X68224000Y-72903000D01*
X68224000Y-72903000D02*
X57089000Y-72903000D01*
X57089000Y-72903000D02*
X56540000Y-73452000D01*
%TO.N,/Pin_5_OUT*%
X67315000Y-75377000D02*
X63545000Y-75377000D01*
X68224000Y-74468000D02*
X67315000Y-75377000D01*
X61360288Y-73957600D02*
X61357888Y-73960000D01*
X56032000Y-76564644D02*
X56032000Y-94788000D01*
X63545000Y-75377000D02*
X62128000Y-73960000D01*
X58636644Y-73960000D02*
X56032000Y-76564644D01*
X61882112Y-73960000D02*
X61879712Y-73957600D01*
X62128000Y-73960000D02*
X61882112Y-73960000D01*
X56032000Y-94788000D02*
X57048000Y-95804000D01*
X61357888Y-73960000D02*
X58636644Y-73960000D01*
X61879712Y-73957600D02*
X61360288Y-73957600D01*
%TD*%
M02*
