%TF.GenerationSoftware,KiCad,Pcbnew,9.0.8-9.0.8~ubuntu24.04.1*%
%TF.CreationDate,2026-04-28T17:03:27+02:00*%
%TF.ProjectId,TheLine,5468654c-696e-4652-9e6b-696361645f70,rev?*%
%TF.SameCoordinates,Original*%
%TF.FileFunction,Legend,Top*%
%TF.FilePolarity,Positive*%
%FSLAX46Y46*%
G04 Gerber Fmt 4.6, Leading zero omitted, Abs format (unit mm)*
G04 Created by KiCad (PCBNEW 9.0.8-9.0.8~ubuntu24.04.1) date 2026-04-28 17:03:27*
%MOMM*%
%LPD*%
G01*
G04 APERTURE LIST*
G04 Aperture macros list*
%AMRoundRect*
0 Rectangle with rounded corners*
0 $1 Rounding radius*
0 $2 $3 $4 $5 $6 $7 $8 $9 X,Y pos of 4 corners*
0 Add a 4 corners polygon primitive as box body*
4,1,4,$2,$3,$4,$5,$6,$7,$8,$9,$2,$3,0*
0 Add four circle primitives for the rounded corners*
1,1,$1+$1,$2,$3*
1,1,$1+$1,$4,$5*
1,1,$1+$1,$6,$7*
1,1,$1+$1,$8,$9*
0 Add four rect primitives between the rounded corners*
20,1,$1+$1,$2,$3,$4,$5,0*
20,1,$1+$1,$4,$5,$6,$7,0*
20,1,$1+$1,$6,$7,$8,$9,0*
20,1,$1+$1,$8,$9,$2,$3,0*%
G04 Aperture macros list end*
%ADD10C,0.150000*%
%ADD11C,0.100000*%
%ADD12C,0.250000*%
%ADD13C,0.120000*%
%ADD14C,0.200000*%
%ADD15RoundRect,0.250000X0.250000X0.475000X-0.250000X0.475000X-0.250000X-0.475000X0.250000X-0.475000X0*%
%ADD16RoundRect,0.250000X0.625000X-0.312500X0.625000X0.312500X-0.625000X0.312500X-0.625000X-0.312500X0*%
%ADD17C,5.000000*%
%ADD18R,1.700000X1.700000*%
%ADD19O,1.700000X1.700000*%
%ADD20RoundRect,0.250000X-0.250000X-0.475000X0.250000X-0.475000X0.250000X0.475000X-0.250000X0.475000X0*%
%ADD21RoundRect,0.250000X-0.625000X0.312500X-0.625000X-0.312500X0.625000X-0.312500X0.625000X0.312500X0*%
%ADD22RoundRect,0.250000X-0.312500X-0.625000X0.312500X-0.625000X0.312500X0.625000X-0.312500X0.625000X0*%
%ADD23RoundRect,0.062500X-0.350000X-0.062500X0.350000X-0.062500X0.350000X0.062500X-0.350000X0.062500X0*%
%ADD24RoundRect,0.062500X-0.062500X-0.350000X0.062500X-0.350000X0.062500X0.350000X-0.062500X0.350000X0*%
%ADD25R,1.230000X1.230000*%
%ADD26RoundRect,0.250000X0.475000X-0.250000X0.475000X0.250000X-0.475000X0.250000X-0.475000X-0.250000X0*%
%ADD27RoundRect,0.218750X-0.381250X0.218750X-0.381250X-0.218750X0.381250X-0.218750X0.381250X0.218750X0*%
%ADD28RoundRect,0.250000X-0.475000X0.250000X-0.475000X-0.250000X0.475000X-0.250000X0.475000X0.250000X0*%
%ADD29R,0.450000X1.475000*%
%ADD30RoundRect,0.250000X0.312500X0.625000X-0.312500X0.625000X-0.312500X-0.625000X0.312500X-0.625000X0*%
%ADD31RoundRect,0.218750X0.218750X0.256250X-0.218750X0.256250X-0.218750X-0.256250X0.218750X-0.256250X0*%
G04 APERTURE END LIST*
D10*
X179226142Y-134647580D02*
X179178523Y-134695200D01*
X179178523Y-134695200D02*
X179035666Y-134742819D01*
X179035666Y-134742819D02*
X178940428Y-134742819D01*
X178940428Y-134742819D02*
X178797571Y-134695200D01*
X178797571Y-134695200D02*
X178702333Y-134599961D01*
X178702333Y-134599961D02*
X178654714Y-134504723D01*
X178654714Y-134504723D02*
X178607095Y-134314247D01*
X178607095Y-134314247D02*
X178607095Y-134171390D01*
X178607095Y-134171390D02*
X178654714Y-133980914D01*
X178654714Y-133980914D02*
X178702333Y-133885676D01*
X178702333Y-133885676D02*
X178797571Y-133790438D01*
X178797571Y-133790438D02*
X178940428Y-133742819D01*
X178940428Y-133742819D02*
X179035666Y-133742819D01*
X179035666Y-133742819D02*
X179178523Y-133790438D01*
X179178523Y-133790438D02*
X179226142Y-133838057D01*
X179607095Y-133838057D02*
X179654714Y-133790438D01*
X179654714Y-133790438D02*
X179749952Y-133742819D01*
X179749952Y-133742819D02*
X179988047Y-133742819D01*
X179988047Y-133742819D02*
X180083285Y-133790438D01*
X180083285Y-133790438D02*
X180130904Y-133838057D01*
X180130904Y-133838057D02*
X180178523Y-133933295D01*
X180178523Y-133933295D02*
X180178523Y-134028533D01*
X180178523Y-134028533D02*
X180130904Y-134171390D01*
X180130904Y-134171390D02*
X179559476Y-134742819D01*
X179559476Y-134742819D02*
X180178523Y-134742819D01*
X181035666Y-134076152D02*
X181035666Y-134742819D01*
X180797571Y-133695200D02*
X180559476Y-134409485D01*
X180559476Y-134409485D02*
X181178523Y-134409485D01*
X58468019Y-73739257D02*
X57991828Y-74072590D01*
X58468019Y-74310685D02*
X57468019Y-74310685D01*
X57468019Y-74310685D02*
X57468019Y-73929733D01*
X57468019Y-73929733D02*
X57515638Y-73834495D01*
X57515638Y-73834495D02*
X57563257Y-73786876D01*
X57563257Y-73786876D02*
X57658495Y-73739257D01*
X57658495Y-73739257D02*
X57801352Y-73739257D01*
X57801352Y-73739257D02*
X57896590Y-73786876D01*
X57896590Y-73786876D02*
X57944209Y-73834495D01*
X57944209Y-73834495D02*
X57991828Y-73929733D01*
X57991828Y-73929733D02*
X57991828Y-74310685D01*
X58468019Y-72786876D02*
X58468019Y-73358304D01*
X58468019Y-73072590D02*
X57468019Y-73072590D01*
X57468019Y-73072590D02*
X57610876Y-73167828D01*
X57610876Y-73167828D02*
X57706114Y-73263066D01*
X57706114Y-73263066D02*
X57753733Y-73358304D01*
X57468019Y-72453542D02*
X57468019Y-71834495D01*
X57468019Y-71834495D02*
X57848971Y-72167828D01*
X57848971Y-72167828D02*
X57848971Y-72024971D01*
X57848971Y-72024971D02*
X57896590Y-71929733D01*
X57896590Y-71929733D02*
X57944209Y-71882114D01*
X57944209Y-71882114D02*
X58039447Y-71834495D01*
X58039447Y-71834495D02*
X58277542Y-71834495D01*
X58277542Y-71834495D02*
X58372780Y-71882114D01*
X58372780Y-71882114D02*
X58420400Y-71929733D01*
X58420400Y-71929733D02*
X58468019Y-72024971D01*
X58468019Y-72024971D02*
X58468019Y-72310685D01*
X58468019Y-72310685D02*
X58420400Y-72405923D01*
X58420400Y-72405923D02*
X58372780Y-72453542D01*
D11*
X234857142Y-66457419D02*
X234380952Y-66457419D01*
X234380952Y-66457419D02*
X234380952Y-65457419D01*
X235142857Y-66409800D02*
X235285714Y-66457419D01*
X235285714Y-66457419D02*
X235523809Y-66457419D01*
X235523809Y-66457419D02*
X235619047Y-66409800D01*
X235619047Y-66409800D02*
X235666666Y-66362180D01*
X235666666Y-66362180D02*
X235714285Y-66266942D01*
X235714285Y-66266942D02*
X235714285Y-66171704D01*
X235714285Y-66171704D02*
X235666666Y-66076466D01*
X235666666Y-66076466D02*
X235619047Y-66028847D01*
X235619047Y-66028847D02*
X235523809Y-65981228D01*
X235523809Y-65981228D02*
X235333333Y-65933609D01*
X235333333Y-65933609D02*
X235238095Y-65885990D01*
X235238095Y-65885990D02*
X235190476Y-65838371D01*
X235190476Y-65838371D02*
X235142857Y-65743133D01*
X235142857Y-65743133D02*
X235142857Y-65647895D01*
X235142857Y-65647895D02*
X235190476Y-65552657D01*
X235190476Y-65552657D02*
X235238095Y-65505038D01*
X235238095Y-65505038D02*
X235333333Y-65457419D01*
X235333333Y-65457419D02*
X235571428Y-65457419D01*
X235571428Y-65457419D02*
X235714285Y-65505038D01*
X236285714Y-65885990D02*
X236190476Y-65838371D01*
X236190476Y-65838371D02*
X236142857Y-65790752D01*
X236142857Y-65790752D02*
X236095238Y-65695514D01*
X236095238Y-65695514D02*
X236095238Y-65647895D01*
X236095238Y-65647895D02*
X236142857Y-65552657D01*
X236142857Y-65552657D02*
X236190476Y-65505038D01*
X236190476Y-65505038D02*
X236285714Y-65457419D01*
X236285714Y-65457419D02*
X236476190Y-65457419D01*
X236476190Y-65457419D02*
X236571428Y-65505038D01*
X236571428Y-65505038D02*
X236619047Y-65552657D01*
X236619047Y-65552657D02*
X236666666Y-65647895D01*
X236666666Y-65647895D02*
X236666666Y-65695514D01*
X236666666Y-65695514D02*
X236619047Y-65790752D01*
X236619047Y-65790752D02*
X236571428Y-65838371D01*
X236571428Y-65838371D02*
X236476190Y-65885990D01*
X236476190Y-65885990D02*
X236285714Y-65885990D01*
X236285714Y-65885990D02*
X236190476Y-65933609D01*
X236190476Y-65933609D02*
X236142857Y-65981228D01*
X236142857Y-65981228D02*
X236095238Y-66076466D01*
X236095238Y-66076466D02*
X236095238Y-66266942D01*
X236095238Y-66266942D02*
X236142857Y-66362180D01*
X236142857Y-66362180D02*
X236190476Y-66409800D01*
X236190476Y-66409800D02*
X236285714Y-66457419D01*
X236285714Y-66457419D02*
X236476190Y-66457419D01*
X236476190Y-66457419D02*
X236571428Y-66409800D01*
X236571428Y-66409800D02*
X236619047Y-66362180D01*
X236619047Y-66362180D02*
X236666666Y-66266942D01*
X236666666Y-66266942D02*
X236666666Y-66076466D01*
X236666666Y-66076466D02*
X236619047Y-65981228D01*
X236619047Y-65981228D02*
X236571428Y-65933609D01*
X236571428Y-65933609D02*
X236476190Y-65885990D01*
D10*
X110609142Y-134569580D02*
X110561523Y-134617200D01*
X110561523Y-134617200D02*
X110418666Y-134664819D01*
X110418666Y-134664819D02*
X110323428Y-134664819D01*
X110323428Y-134664819D02*
X110180571Y-134617200D01*
X110180571Y-134617200D02*
X110085333Y-134521961D01*
X110085333Y-134521961D02*
X110037714Y-134426723D01*
X110037714Y-134426723D02*
X109990095Y-134236247D01*
X109990095Y-134236247D02*
X109990095Y-134093390D01*
X109990095Y-134093390D02*
X110037714Y-133902914D01*
X110037714Y-133902914D02*
X110085333Y-133807676D01*
X110085333Y-133807676D02*
X110180571Y-133712438D01*
X110180571Y-133712438D02*
X110323428Y-133664819D01*
X110323428Y-133664819D02*
X110418666Y-133664819D01*
X110418666Y-133664819D02*
X110561523Y-133712438D01*
X110561523Y-133712438D02*
X110609142Y-133760057D01*
X111561523Y-134664819D02*
X110990095Y-134664819D01*
X111275809Y-134664819D02*
X111275809Y-133664819D01*
X111275809Y-133664819D02*
X111180571Y-133807676D01*
X111180571Y-133807676D02*
X111085333Y-133902914D01*
X111085333Y-133902914D02*
X110990095Y-133950533D01*
X112513904Y-134664819D02*
X111942476Y-134664819D01*
X112228190Y-134664819D02*
X112228190Y-133664819D01*
X112228190Y-133664819D02*
X112132952Y-133807676D01*
X112132952Y-133807676D02*
X112037714Y-133902914D01*
X112037714Y-133902914D02*
X111942476Y-133950533D01*
X55267056Y-82344552D02*
X54790865Y-82677885D01*
X55267056Y-82915980D02*
X54267056Y-82915980D01*
X54267056Y-82915980D02*
X54267056Y-82535028D01*
X54267056Y-82535028D02*
X54314675Y-82439790D01*
X54314675Y-82439790D02*
X54362294Y-82392171D01*
X54362294Y-82392171D02*
X54457532Y-82344552D01*
X54457532Y-82344552D02*
X54600389Y-82344552D01*
X54600389Y-82344552D02*
X54695627Y-82392171D01*
X54695627Y-82392171D02*
X54743246Y-82439790D01*
X54743246Y-82439790D02*
X54790865Y-82535028D01*
X54790865Y-82535028D02*
X54790865Y-82915980D01*
X55267056Y-81392171D02*
X55267056Y-81963599D01*
X55267056Y-81677885D02*
X54267056Y-81677885D01*
X54267056Y-81677885D02*
X54409913Y-81773123D01*
X54409913Y-81773123D02*
X54505151Y-81868361D01*
X54505151Y-81868361D02*
X54552770Y-81963599D01*
X54362294Y-81011218D02*
X54314675Y-80963599D01*
X54314675Y-80963599D02*
X54267056Y-80868361D01*
X54267056Y-80868361D02*
X54267056Y-80630266D01*
X54267056Y-80630266D02*
X54314675Y-80535028D01*
X54314675Y-80535028D02*
X54362294Y-80487409D01*
X54362294Y-80487409D02*
X54457532Y-80439790D01*
X54457532Y-80439790D02*
X54552770Y-80439790D01*
X54552770Y-80439790D02*
X54695627Y-80487409D01*
X54695627Y-80487409D02*
X55267056Y-81058837D01*
X55267056Y-81058837D02*
X55267056Y-80439790D01*
X105778433Y-130328180D02*
X105730814Y-130375800D01*
X105730814Y-130375800D02*
X105587957Y-130423419D01*
X105587957Y-130423419D02*
X105492719Y-130423419D01*
X105492719Y-130423419D02*
X105349862Y-130375800D01*
X105349862Y-130375800D02*
X105254624Y-130280561D01*
X105254624Y-130280561D02*
X105207005Y-130185323D01*
X105207005Y-130185323D02*
X105159386Y-129994847D01*
X105159386Y-129994847D02*
X105159386Y-129851990D01*
X105159386Y-129851990D02*
X105207005Y-129661514D01*
X105207005Y-129661514D02*
X105254624Y-129566276D01*
X105254624Y-129566276D02*
X105349862Y-129471038D01*
X105349862Y-129471038D02*
X105492719Y-129423419D01*
X105492719Y-129423419D02*
X105587957Y-129423419D01*
X105587957Y-129423419D02*
X105730814Y-129471038D01*
X105730814Y-129471038D02*
X105778433Y-129518657D01*
X106254624Y-130423419D02*
X106445100Y-130423419D01*
X106445100Y-130423419D02*
X106540338Y-130375800D01*
X106540338Y-130375800D02*
X106587957Y-130328180D01*
X106587957Y-130328180D02*
X106683195Y-130185323D01*
X106683195Y-130185323D02*
X106730814Y-129994847D01*
X106730814Y-129994847D02*
X106730814Y-129613895D01*
X106730814Y-129613895D02*
X106683195Y-129518657D01*
X106683195Y-129518657D02*
X106635576Y-129471038D01*
X106635576Y-129471038D02*
X106540338Y-129423419D01*
X106540338Y-129423419D02*
X106349862Y-129423419D01*
X106349862Y-129423419D02*
X106254624Y-129471038D01*
X106254624Y-129471038D02*
X106207005Y-129518657D01*
X106207005Y-129518657D02*
X106159386Y-129613895D01*
X106159386Y-129613895D02*
X106159386Y-129851990D01*
X106159386Y-129851990D02*
X106207005Y-129947228D01*
X106207005Y-129947228D02*
X106254624Y-129994847D01*
X106254624Y-129994847D02*
X106349862Y-130042466D01*
X106349862Y-130042466D02*
X106540338Y-130042466D01*
X106540338Y-130042466D02*
X106635576Y-129994847D01*
X106635576Y-129994847D02*
X106683195Y-129947228D01*
X106683195Y-129947228D02*
X106730814Y-129851990D01*
X69333333Y-57634819D02*
X69000000Y-57158628D01*
X68761905Y-57634819D02*
X68761905Y-56634819D01*
X68761905Y-56634819D02*
X69142857Y-56634819D01*
X69142857Y-56634819D02*
X69238095Y-56682438D01*
X69238095Y-56682438D02*
X69285714Y-56730057D01*
X69285714Y-56730057D02*
X69333333Y-56825295D01*
X69333333Y-56825295D02*
X69333333Y-56968152D01*
X69333333Y-56968152D02*
X69285714Y-57063390D01*
X69285714Y-57063390D02*
X69238095Y-57111009D01*
X69238095Y-57111009D02*
X69142857Y-57158628D01*
X69142857Y-57158628D02*
X68761905Y-57158628D01*
X69809524Y-57634819D02*
X70000000Y-57634819D01*
X70000000Y-57634819D02*
X70095238Y-57587200D01*
X70095238Y-57587200D02*
X70142857Y-57539580D01*
X70142857Y-57539580D02*
X70238095Y-57396723D01*
X70238095Y-57396723D02*
X70285714Y-57206247D01*
X70285714Y-57206247D02*
X70285714Y-56825295D01*
X70285714Y-56825295D02*
X70238095Y-56730057D01*
X70238095Y-56730057D02*
X70190476Y-56682438D01*
X70190476Y-56682438D02*
X70095238Y-56634819D01*
X70095238Y-56634819D02*
X69904762Y-56634819D01*
X69904762Y-56634819D02*
X69809524Y-56682438D01*
X69809524Y-56682438D02*
X69761905Y-56730057D01*
X69761905Y-56730057D02*
X69714286Y-56825295D01*
X69714286Y-56825295D02*
X69714286Y-57063390D01*
X69714286Y-57063390D02*
X69761905Y-57158628D01*
X69761905Y-57158628D02*
X69809524Y-57206247D01*
X69809524Y-57206247D02*
X69904762Y-57253866D01*
X69904762Y-57253866D02*
X70095238Y-57253866D01*
X70095238Y-57253866D02*
X70190476Y-57206247D01*
X70190476Y-57206247D02*
X70238095Y-57158628D01*
X70238095Y-57158628D02*
X70285714Y-57063390D01*
X202099142Y-131278580D02*
X202051523Y-131326200D01*
X202051523Y-131326200D02*
X201908666Y-131373819D01*
X201908666Y-131373819D02*
X201813428Y-131373819D01*
X201813428Y-131373819D02*
X201670571Y-131326200D01*
X201670571Y-131326200D02*
X201575333Y-131230961D01*
X201575333Y-131230961D02*
X201527714Y-131135723D01*
X201527714Y-131135723D02*
X201480095Y-130945247D01*
X201480095Y-130945247D02*
X201480095Y-130802390D01*
X201480095Y-130802390D02*
X201527714Y-130611914D01*
X201527714Y-130611914D02*
X201575333Y-130516676D01*
X201575333Y-130516676D02*
X201670571Y-130421438D01*
X201670571Y-130421438D02*
X201813428Y-130373819D01*
X201813428Y-130373819D02*
X201908666Y-130373819D01*
X201908666Y-130373819D02*
X202051523Y-130421438D01*
X202051523Y-130421438D02*
X202099142Y-130469057D01*
X202480095Y-130469057D02*
X202527714Y-130421438D01*
X202527714Y-130421438D02*
X202622952Y-130373819D01*
X202622952Y-130373819D02*
X202861047Y-130373819D01*
X202861047Y-130373819D02*
X202956285Y-130421438D01*
X202956285Y-130421438D02*
X203003904Y-130469057D01*
X203003904Y-130469057D02*
X203051523Y-130564295D01*
X203051523Y-130564295D02*
X203051523Y-130659533D01*
X203051523Y-130659533D02*
X203003904Y-130802390D01*
X203003904Y-130802390D02*
X202432476Y-131373819D01*
X202432476Y-131373819D02*
X203051523Y-131373819D01*
X203956285Y-130373819D02*
X203480095Y-130373819D01*
X203480095Y-130373819D02*
X203432476Y-130850009D01*
X203432476Y-130850009D02*
X203480095Y-130802390D01*
X203480095Y-130802390D02*
X203575333Y-130754771D01*
X203575333Y-130754771D02*
X203813428Y-130754771D01*
X203813428Y-130754771D02*
X203908666Y-130802390D01*
X203908666Y-130802390D02*
X203956285Y-130850009D01*
X203956285Y-130850009D02*
X204003904Y-130945247D01*
X204003904Y-130945247D02*
X204003904Y-131183342D01*
X204003904Y-131183342D02*
X203956285Y-131278580D01*
X203956285Y-131278580D02*
X203908666Y-131326200D01*
X203908666Y-131326200D02*
X203813428Y-131373819D01*
X203813428Y-131373819D02*
X203575333Y-131373819D01*
X203575333Y-131373819D02*
X203480095Y-131326200D01*
X203480095Y-131326200D02*
X203432476Y-131278580D01*
X77343095Y-125219519D02*
X77343095Y-126029042D01*
X77343095Y-126029042D02*
X77390714Y-126124280D01*
X77390714Y-126124280D02*
X77438333Y-126171900D01*
X77438333Y-126171900D02*
X77533571Y-126219519D01*
X77533571Y-126219519D02*
X77724047Y-126219519D01*
X77724047Y-126219519D02*
X77819285Y-126171900D01*
X77819285Y-126171900D02*
X77866904Y-126124280D01*
X77866904Y-126124280D02*
X77914523Y-126029042D01*
X77914523Y-126029042D02*
X77914523Y-125219519D01*
X78295476Y-125219519D02*
X78914523Y-125219519D01*
X78914523Y-125219519D02*
X78581190Y-125600471D01*
X78581190Y-125600471D02*
X78724047Y-125600471D01*
X78724047Y-125600471D02*
X78819285Y-125648090D01*
X78819285Y-125648090D02*
X78866904Y-125695709D01*
X78866904Y-125695709D02*
X78914523Y-125790947D01*
X78914523Y-125790947D02*
X78914523Y-126029042D01*
X78914523Y-126029042D02*
X78866904Y-126124280D01*
X78866904Y-126124280D02*
X78819285Y-126171900D01*
X78819285Y-126171900D02*
X78724047Y-126219519D01*
X78724047Y-126219519D02*
X78438333Y-126219519D01*
X78438333Y-126219519D02*
X78343095Y-126171900D01*
X78343095Y-126171900D02*
X78295476Y-126124280D01*
D11*
X188680135Y-69920895D02*
X188299183Y-69920895D01*
X188299183Y-69920895D02*
X188299183Y-69120895D01*
X188908706Y-69882800D02*
X189022992Y-69920895D01*
X189022992Y-69920895D02*
X189213468Y-69920895D01*
X189213468Y-69920895D02*
X189289659Y-69882800D01*
X189289659Y-69882800D02*
X189327754Y-69844704D01*
X189327754Y-69844704D02*
X189365849Y-69768514D01*
X189365849Y-69768514D02*
X189365849Y-69692323D01*
X189365849Y-69692323D02*
X189327754Y-69616133D01*
X189327754Y-69616133D02*
X189289659Y-69578038D01*
X189289659Y-69578038D02*
X189213468Y-69539942D01*
X189213468Y-69539942D02*
X189061087Y-69501847D01*
X189061087Y-69501847D02*
X188984897Y-69463752D01*
X188984897Y-69463752D02*
X188946802Y-69425657D01*
X188946802Y-69425657D02*
X188908706Y-69349466D01*
X188908706Y-69349466D02*
X188908706Y-69273276D01*
X188908706Y-69273276D02*
X188946802Y-69197085D01*
X188946802Y-69197085D02*
X188984897Y-69158990D01*
X188984897Y-69158990D02*
X189061087Y-69120895D01*
X189061087Y-69120895D02*
X189251564Y-69120895D01*
X189251564Y-69120895D02*
X189365849Y-69158990D01*
X190051564Y-69120895D02*
X189899183Y-69120895D01*
X189899183Y-69120895D02*
X189822992Y-69158990D01*
X189822992Y-69158990D02*
X189784897Y-69197085D01*
X189784897Y-69197085D02*
X189708707Y-69311371D01*
X189708707Y-69311371D02*
X189670611Y-69463752D01*
X189670611Y-69463752D02*
X189670611Y-69768514D01*
X189670611Y-69768514D02*
X189708707Y-69844704D01*
X189708707Y-69844704D02*
X189746802Y-69882800D01*
X189746802Y-69882800D02*
X189822992Y-69920895D01*
X189822992Y-69920895D02*
X189975373Y-69920895D01*
X189975373Y-69920895D02*
X190051564Y-69882800D01*
X190051564Y-69882800D02*
X190089659Y-69844704D01*
X190089659Y-69844704D02*
X190127754Y-69768514D01*
X190127754Y-69768514D02*
X190127754Y-69578038D01*
X190127754Y-69578038D02*
X190089659Y-69501847D01*
X190089659Y-69501847D02*
X190051564Y-69463752D01*
X190051564Y-69463752D02*
X189975373Y-69425657D01*
X189975373Y-69425657D02*
X189822992Y-69425657D01*
X189822992Y-69425657D02*
X189746802Y-69463752D01*
X189746802Y-69463752D02*
X189708707Y-69501847D01*
X189708707Y-69501847D02*
X189670611Y-69578038D01*
D10*
X131183142Y-134647580D02*
X131135523Y-134695200D01*
X131135523Y-134695200D02*
X130992666Y-134742819D01*
X130992666Y-134742819D02*
X130897428Y-134742819D01*
X130897428Y-134742819D02*
X130754571Y-134695200D01*
X130754571Y-134695200D02*
X130659333Y-134599961D01*
X130659333Y-134599961D02*
X130611714Y-134504723D01*
X130611714Y-134504723D02*
X130564095Y-134314247D01*
X130564095Y-134314247D02*
X130564095Y-134171390D01*
X130564095Y-134171390D02*
X130611714Y-133980914D01*
X130611714Y-133980914D02*
X130659333Y-133885676D01*
X130659333Y-133885676D02*
X130754571Y-133790438D01*
X130754571Y-133790438D02*
X130897428Y-133742819D01*
X130897428Y-133742819D02*
X130992666Y-133742819D01*
X130992666Y-133742819D02*
X131135523Y-133790438D01*
X131135523Y-133790438D02*
X131183142Y-133838057D01*
X132135523Y-134742819D02*
X131564095Y-134742819D01*
X131849809Y-134742819D02*
X131849809Y-133742819D01*
X131849809Y-133742819D02*
X131754571Y-133885676D01*
X131754571Y-133885676D02*
X131659333Y-133980914D01*
X131659333Y-133980914D02*
X131564095Y-134028533D01*
X132992666Y-133742819D02*
X132802190Y-133742819D01*
X132802190Y-133742819D02*
X132706952Y-133790438D01*
X132706952Y-133790438D02*
X132659333Y-133838057D01*
X132659333Y-133838057D02*
X132564095Y-133980914D01*
X132564095Y-133980914D02*
X132516476Y-134171390D01*
X132516476Y-134171390D02*
X132516476Y-134552342D01*
X132516476Y-134552342D02*
X132564095Y-134647580D01*
X132564095Y-134647580D02*
X132611714Y-134695200D01*
X132611714Y-134695200D02*
X132706952Y-134742819D01*
X132706952Y-134742819D02*
X132897428Y-134742819D01*
X132897428Y-134742819D02*
X132992666Y-134695200D01*
X132992666Y-134695200D02*
X133040285Y-134647580D01*
X133040285Y-134647580D02*
X133087904Y-134552342D01*
X133087904Y-134552342D02*
X133087904Y-134314247D01*
X133087904Y-134314247D02*
X133040285Y-134219009D01*
X133040285Y-134219009D02*
X132992666Y-134171390D01*
X132992666Y-134171390D02*
X132897428Y-134123771D01*
X132897428Y-134123771D02*
X132706952Y-134123771D01*
X132706952Y-134123771D02*
X132611714Y-134171390D01*
X132611714Y-134171390D02*
X132564095Y-134219009D01*
X132564095Y-134219009D02*
X132516476Y-134314247D01*
X223639142Y-135389580D02*
X223591523Y-135437200D01*
X223591523Y-135437200D02*
X223448666Y-135484819D01*
X223448666Y-135484819D02*
X223353428Y-135484819D01*
X223353428Y-135484819D02*
X223210571Y-135437200D01*
X223210571Y-135437200D02*
X223115333Y-135341961D01*
X223115333Y-135341961D02*
X223067714Y-135246723D01*
X223067714Y-135246723D02*
X223020095Y-135056247D01*
X223020095Y-135056247D02*
X223020095Y-134913390D01*
X223020095Y-134913390D02*
X223067714Y-134722914D01*
X223067714Y-134722914D02*
X223115333Y-134627676D01*
X223115333Y-134627676D02*
X223210571Y-134532438D01*
X223210571Y-134532438D02*
X223353428Y-134484819D01*
X223353428Y-134484819D02*
X223448666Y-134484819D01*
X223448666Y-134484819D02*
X223591523Y-134532438D01*
X223591523Y-134532438D02*
X223639142Y-134580057D01*
X223972476Y-134484819D02*
X224591523Y-134484819D01*
X224591523Y-134484819D02*
X224258190Y-134865771D01*
X224258190Y-134865771D02*
X224401047Y-134865771D01*
X224401047Y-134865771D02*
X224496285Y-134913390D01*
X224496285Y-134913390D02*
X224543904Y-134961009D01*
X224543904Y-134961009D02*
X224591523Y-135056247D01*
X224591523Y-135056247D02*
X224591523Y-135294342D01*
X224591523Y-135294342D02*
X224543904Y-135389580D01*
X224543904Y-135389580D02*
X224496285Y-135437200D01*
X224496285Y-135437200D02*
X224401047Y-135484819D01*
X224401047Y-135484819D02*
X224115333Y-135484819D01*
X224115333Y-135484819D02*
X224020095Y-135437200D01*
X224020095Y-135437200D02*
X223972476Y-135389580D01*
X225210571Y-134484819D02*
X225305809Y-134484819D01*
X225305809Y-134484819D02*
X225401047Y-134532438D01*
X225401047Y-134532438D02*
X225448666Y-134580057D01*
X225448666Y-134580057D02*
X225496285Y-134675295D01*
X225496285Y-134675295D02*
X225543904Y-134865771D01*
X225543904Y-134865771D02*
X225543904Y-135103866D01*
X225543904Y-135103866D02*
X225496285Y-135294342D01*
X225496285Y-135294342D02*
X225448666Y-135389580D01*
X225448666Y-135389580D02*
X225401047Y-135437200D01*
X225401047Y-135437200D02*
X225305809Y-135484819D01*
X225305809Y-135484819D02*
X225210571Y-135484819D01*
X225210571Y-135484819D02*
X225115333Y-135437200D01*
X225115333Y-135437200D02*
X225067714Y-135389580D01*
X225067714Y-135389580D02*
X225020095Y-135294342D01*
X225020095Y-135294342D02*
X224972476Y-135103866D01*
X224972476Y-135103866D02*
X224972476Y-134865771D01*
X224972476Y-134865771D02*
X225020095Y-134675295D01*
X225020095Y-134675295D02*
X225067714Y-134580057D01*
X225067714Y-134580057D02*
X225115333Y-134532438D01*
X225115333Y-134532438D02*
X225210571Y-134484819D01*
X82205533Y-130442280D02*
X82157914Y-130489900D01*
X82157914Y-130489900D02*
X82015057Y-130537519D01*
X82015057Y-130537519D02*
X81919819Y-130537519D01*
X81919819Y-130537519D02*
X81776962Y-130489900D01*
X81776962Y-130489900D02*
X81681724Y-130394661D01*
X81681724Y-130394661D02*
X81634105Y-130299423D01*
X81634105Y-130299423D02*
X81586486Y-130108947D01*
X81586486Y-130108947D02*
X81586486Y-129966090D01*
X81586486Y-129966090D02*
X81634105Y-129775614D01*
X81634105Y-129775614D02*
X81681724Y-129680376D01*
X81681724Y-129680376D02*
X81776962Y-129585138D01*
X81776962Y-129585138D02*
X81919819Y-129537519D01*
X81919819Y-129537519D02*
X82015057Y-129537519D01*
X82015057Y-129537519D02*
X82157914Y-129585138D01*
X82157914Y-129585138D02*
X82205533Y-129632757D01*
X83110295Y-129537519D02*
X82634105Y-129537519D01*
X82634105Y-129537519D02*
X82586486Y-130013709D01*
X82586486Y-130013709D02*
X82634105Y-129966090D01*
X82634105Y-129966090D02*
X82729343Y-129918471D01*
X82729343Y-129918471D02*
X82967438Y-129918471D01*
X82967438Y-129918471D02*
X83062676Y-129966090D01*
X83062676Y-129966090D02*
X83110295Y-130013709D01*
X83110295Y-130013709D02*
X83157914Y-130108947D01*
X83157914Y-130108947D02*
X83157914Y-130347042D01*
X83157914Y-130347042D02*
X83110295Y-130442280D01*
X83110295Y-130442280D02*
X83062676Y-130489900D01*
X83062676Y-130489900D02*
X82967438Y-130537519D01*
X82967438Y-130537519D02*
X82729343Y-130537519D01*
X82729343Y-130537519D02*
X82634105Y-130489900D01*
X82634105Y-130489900D02*
X82586486Y-130442280D01*
D11*
X114857142Y-66457419D02*
X114380952Y-66457419D01*
X114380952Y-66457419D02*
X114380952Y-65457419D01*
X115142857Y-66409800D02*
X115285714Y-66457419D01*
X115285714Y-66457419D02*
X115523809Y-66457419D01*
X115523809Y-66457419D02*
X115619047Y-66409800D01*
X115619047Y-66409800D02*
X115666666Y-66362180D01*
X115666666Y-66362180D02*
X115714285Y-66266942D01*
X115714285Y-66266942D02*
X115714285Y-66171704D01*
X115714285Y-66171704D02*
X115666666Y-66076466D01*
X115666666Y-66076466D02*
X115619047Y-66028847D01*
X115619047Y-66028847D02*
X115523809Y-65981228D01*
X115523809Y-65981228D02*
X115333333Y-65933609D01*
X115333333Y-65933609D02*
X115238095Y-65885990D01*
X115238095Y-65885990D02*
X115190476Y-65838371D01*
X115190476Y-65838371D02*
X115142857Y-65743133D01*
X115142857Y-65743133D02*
X115142857Y-65647895D01*
X115142857Y-65647895D02*
X115190476Y-65552657D01*
X115190476Y-65552657D02*
X115238095Y-65505038D01*
X115238095Y-65505038D02*
X115333333Y-65457419D01*
X115333333Y-65457419D02*
X115571428Y-65457419D01*
X115571428Y-65457419D02*
X115714285Y-65505038D01*
X116047619Y-65457419D02*
X116666666Y-65457419D01*
X116666666Y-65457419D02*
X116333333Y-65838371D01*
X116333333Y-65838371D02*
X116476190Y-65838371D01*
X116476190Y-65838371D02*
X116571428Y-65885990D01*
X116571428Y-65885990D02*
X116619047Y-65933609D01*
X116619047Y-65933609D02*
X116666666Y-66028847D01*
X116666666Y-66028847D02*
X116666666Y-66266942D01*
X116666666Y-66266942D02*
X116619047Y-66362180D01*
X116619047Y-66362180D02*
X116571428Y-66409800D01*
X116571428Y-66409800D02*
X116476190Y-66457419D01*
X116476190Y-66457419D02*
X116190476Y-66457419D01*
X116190476Y-66457419D02*
X116095238Y-66409800D01*
X116095238Y-66409800D02*
X116047619Y-66362180D01*
D10*
X56703181Y-116261639D02*
X56750801Y-116309258D01*
X56750801Y-116309258D02*
X56798420Y-116452115D01*
X56798420Y-116452115D02*
X56798420Y-116547353D01*
X56798420Y-116547353D02*
X56750801Y-116690210D01*
X56750801Y-116690210D02*
X56655562Y-116785448D01*
X56655562Y-116785448D02*
X56560324Y-116833067D01*
X56560324Y-116833067D02*
X56369848Y-116880686D01*
X56369848Y-116880686D02*
X56226991Y-116880686D01*
X56226991Y-116880686D02*
X56036515Y-116833067D01*
X56036515Y-116833067D02*
X55941277Y-116785448D01*
X55941277Y-116785448D02*
X55846039Y-116690210D01*
X55846039Y-116690210D02*
X55798420Y-116547353D01*
X55798420Y-116547353D02*
X55798420Y-116452115D01*
X55798420Y-116452115D02*
X55846039Y-116309258D01*
X55846039Y-116309258D02*
X55893658Y-116261639D01*
X55798420Y-115928305D02*
X55798420Y-115309258D01*
X55798420Y-115309258D02*
X56179372Y-115642591D01*
X56179372Y-115642591D02*
X56179372Y-115499734D01*
X56179372Y-115499734D02*
X56226991Y-115404496D01*
X56226991Y-115404496D02*
X56274610Y-115356877D01*
X56274610Y-115356877D02*
X56369848Y-115309258D01*
X56369848Y-115309258D02*
X56607943Y-115309258D01*
X56607943Y-115309258D02*
X56703181Y-115356877D01*
X56703181Y-115356877D02*
X56750801Y-115404496D01*
X56750801Y-115404496D02*
X56798420Y-115499734D01*
X56798420Y-115499734D02*
X56798420Y-115785448D01*
X56798420Y-115785448D02*
X56750801Y-115880686D01*
X56750801Y-115880686D02*
X56703181Y-115928305D01*
X55798420Y-114975924D02*
X55798420Y-114309258D01*
X55798420Y-114309258D02*
X56798420Y-114737829D01*
X61116420Y-95813367D02*
X60640229Y-96146700D01*
X61116420Y-96384795D02*
X60116420Y-96384795D01*
X60116420Y-96384795D02*
X60116420Y-96003843D01*
X60116420Y-96003843D02*
X60164039Y-95908605D01*
X60164039Y-95908605D02*
X60211658Y-95860986D01*
X60211658Y-95860986D02*
X60306896Y-95813367D01*
X60306896Y-95813367D02*
X60449753Y-95813367D01*
X60449753Y-95813367D02*
X60544991Y-95860986D01*
X60544991Y-95860986D02*
X60592610Y-95908605D01*
X60592610Y-95908605D02*
X60640229Y-96003843D01*
X60640229Y-96003843D02*
X60640229Y-96384795D01*
X61116420Y-94860986D02*
X61116420Y-95432414D01*
X61116420Y-95146700D02*
X60116420Y-95146700D01*
X60116420Y-95146700D02*
X60259277Y-95241938D01*
X60259277Y-95241938D02*
X60354515Y-95337176D01*
X60354515Y-95337176D02*
X60402134Y-95432414D01*
X60449753Y-94003843D02*
X61116420Y-94003843D01*
X60068801Y-94241938D02*
X60783086Y-94480033D01*
X60783086Y-94480033D02*
X60783086Y-93860986D01*
X60906419Y-73739257D02*
X60430228Y-74072590D01*
X60906419Y-74310685D02*
X59906419Y-74310685D01*
X59906419Y-74310685D02*
X59906419Y-73929733D01*
X59906419Y-73929733D02*
X59954038Y-73834495D01*
X59954038Y-73834495D02*
X60001657Y-73786876D01*
X60001657Y-73786876D02*
X60096895Y-73739257D01*
X60096895Y-73739257D02*
X60239752Y-73739257D01*
X60239752Y-73739257D02*
X60334990Y-73786876D01*
X60334990Y-73786876D02*
X60382609Y-73834495D01*
X60382609Y-73834495D02*
X60430228Y-73929733D01*
X60430228Y-73929733D02*
X60430228Y-74310685D01*
X60906419Y-72786876D02*
X60906419Y-73358304D01*
X60906419Y-73072590D02*
X59906419Y-73072590D01*
X59906419Y-73072590D02*
X60049276Y-73167828D01*
X60049276Y-73167828D02*
X60144514Y-73263066D01*
X60144514Y-73263066D02*
X60192133Y-73358304D01*
X59906419Y-72167828D02*
X59906419Y-72072590D01*
X59906419Y-72072590D02*
X59954038Y-71977352D01*
X59954038Y-71977352D02*
X60001657Y-71929733D01*
X60001657Y-71929733D02*
X60096895Y-71882114D01*
X60096895Y-71882114D02*
X60287371Y-71834495D01*
X60287371Y-71834495D02*
X60525466Y-71834495D01*
X60525466Y-71834495D02*
X60715942Y-71882114D01*
X60715942Y-71882114D02*
X60811180Y-71929733D01*
X60811180Y-71929733D02*
X60858800Y-71977352D01*
X60858800Y-71977352D02*
X60906419Y-72072590D01*
X60906419Y-72072590D02*
X60906419Y-72167828D01*
X60906419Y-72167828D02*
X60858800Y-72263066D01*
X60858800Y-72263066D02*
X60811180Y-72310685D01*
X60811180Y-72310685D02*
X60715942Y-72358304D01*
X60715942Y-72358304D02*
X60525466Y-72405923D01*
X60525466Y-72405923D02*
X60287371Y-72405923D01*
X60287371Y-72405923D02*
X60096895Y-72358304D01*
X60096895Y-72358304D02*
X60001657Y-72310685D01*
X60001657Y-72310685D02*
X59954038Y-72263066D01*
X59954038Y-72263066D02*
X59906419Y-72167828D01*
X134485142Y-134725580D02*
X134437523Y-134773200D01*
X134437523Y-134773200D02*
X134294666Y-134820819D01*
X134294666Y-134820819D02*
X134199428Y-134820819D01*
X134199428Y-134820819D02*
X134056571Y-134773200D01*
X134056571Y-134773200D02*
X133961333Y-134677961D01*
X133961333Y-134677961D02*
X133913714Y-134582723D01*
X133913714Y-134582723D02*
X133866095Y-134392247D01*
X133866095Y-134392247D02*
X133866095Y-134249390D01*
X133866095Y-134249390D02*
X133913714Y-134058914D01*
X133913714Y-134058914D02*
X133961333Y-133963676D01*
X133961333Y-133963676D02*
X134056571Y-133868438D01*
X134056571Y-133868438D02*
X134199428Y-133820819D01*
X134199428Y-133820819D02*
X134294666Y-133820819D01*
X134294666Y-133820819D02*
X134437523Y-133868438D01*
X134437523Y-133868438D02*
X134485142Y-133916057D01*
X135437523Y-134820819D02*
X134866095Y-134820819D01*
X135151809Y-134820819D02*
X135151809Y-133820819D01*
X135151809Y-133820819D02*
X135056571Y-133963676D01*
X135056571Y-133963676D02*
X134961333Y-134058914D01*
X134961333Y-134058914D02*
X134866095Y-134106533D01*
X136342285Y-133820819D02*
X135866095Y-133820819D01*
X135866095Y-133820819D02*
X135818476Y-134297009D01*
X135818476Y-134297009D02*
X135866095Y-134249390D01*
X135866095Y-134249390D02*
X135961333Y-134201771D01*
X135961333Y-134201771D02*
X136199428Y-134201771D01*
X136199428Y-134201771D02*
X136294666Y-134249390D01*
X136294666Y-134249390D02*
X136342285Y-134297009D01*
X136342285Y-134297009D02*
X136389904Y-134392247D01*
X136389904Y-134392247D02*
X136389904Y-134630342D01*
X136389904Y-134630342D02*
X136342285Y-134725580D01*
X136342285Y-134725580D02*
X136294666Y-134773200D01*
X136294666Y-134773200D02*
X136199428Y-134820819D01*
X136199428Y-134820819D02*
X135961333Y-134820819D01*
X135961333Y-134820819D02*
X135866095Y-134773200D01*
X135866095Y-134773200D02*
X135818476Y-134725580D01*
X83983333Y-134653080D02*
X83935714Y-134700700D01*
X83935714Y-134700700D02*
X83792857Y-134748319D01*
X83792857Y-134748319D02*
X83697619Y-134748319D01*
X83697619Y-134748319D02*
X83554762Y-134700700D01*
X83554762Y-134700700D02*
X83459524Y-134605461D01*
X83459524Y-134605461D02*
X83411905Y-134510223D01*
X83411905Y-134510223D02*
X83364286Y-134319747D01*
X83364286Y-134319747D02*
X83364286Y-134176890D01*
X83364286Y-134176890D02*
X83411905Y-133986414D01*
X83411905Y-133986414D02*
X83459524Y-133891176D01*
X83459524Y-133891176D02*
X83554762Y-133795938D01*
X83554762Y-133795938D02*
X83697619Y-133748319D01*
X83697619Y-133748319D02*
X83792857Y-133748319D01*
X83792857Y-133748319D02*
X83935714Y-133795938D01*
X83935714Y-133795938D02*
X83983333Y-133843557D01*
X84554762Y-134176890D02*
X84459524Y-134129271D01*
X84459524Y-134129271D02*
X84411905Y-134081652D01*
X84411905Y-134081652D02*
X84364286Y-133986414D01*
X84364286Y-133986414D02*
X84364286Y-133938795D01*
X84364286Y-133938795D02*
X84411905Y-133843557D01*
X84411905Y-133843557D02*
X84459524Y-133795938D01*
X84459524Y-133795938D02*
X84554762Y-133748319D01*
X84554762Y-133748319D02*
X84745238Y-133748319D01*
X84745238Y-133748319D02*
X84840476Y-133795938D01*
X84840476Y-133795938D02*
X84888095Y-133843557D01*
X84888095Y-133843557D02*
X84935714Y-133938795D01*
X84935714Y-133938795D02*
X84935714Y-133986414D01*
X84935714Y-133986414D02*
X84888095Y-134081652D01*
X84888095Y-134081652D02*
X84840476Y-134129271D01*
X84840476Y-134129271D02*
X84745238Y-134176890D01*
X84745238Y-134176890D02*
X84554762Y-134176890D01*
X84554762Y-134176890D02*
X84459524Y-134224509D01*
X84459524Y-134224509D02*
X84411905Y-134272128D01*
X84411905Y-134272128D02*
X84364286Y-134367366D01*
X84364286Y-134367366D02*
X84364286Y-134557842D01*
X84364286Y-134557842D02*
X84411905Y-134653080D01*
X84411905Y-134653080D02*
X84459524Y-134700700D01*
X84459524Y-134700700D02*
X84554762Y-134748319D01*
X84554762Y-134748319D02*
X84745238Y-134748319D01*
X84745238Y-134748319D02*
X84840476Y-134700700D01*
X84840476Y-134700700D02*
X84888095Y-134653080D01*
X84888095Y-134653080D02*
X84935714Y-134557842D01*
X84935714Y-134557842D02*
X84935714Y-134367366D01*
X84935714Y-134367366D02*
X84888095Y-134272128D01*
X84888095Y-134272128D02*
X84840476Y-134224509D01*
X84840476Y-134224509D02*
X84745238Y-134176890D01*
X131572095Y-124676819D02*
X131572095Y-125486342D01*
X131572095Y-125486342D02*
X131619714Y-125581580D01*
X131619714Y-125581580D02*
X131667333Y-125629200D01*
X131667333Y-125629200D02*
X131762571Y-125676819D01*
X131762571Y-125676819D02*
X131953047Y-125676819D01*
X131953047Y-125676819D02*
X132048285Y-125629200D01*
X132048285Y-125629200D02*
X132095904Y-125581580D01*
X132095904Y-125581580D02*
X132143523Y-125486342D01*
X132143523Y-125486342D02*
X132143523Y-124676819D01*
X133095904Y-124676819D02*
X132619714Y-124676819D01*
X132619714Y-124676819D02*
X132572095Y-125153009D01*
X132572095Y-125153009D02*
X132619714Y-125105390D01*
X132619714Y-125105390D02*
X132714952Y-125057771D01*
X132714952Y-125057771D02*
X132953047Y-125057771D01*
X132953047Y-125057771D02*
X133048285Y-125105390D01*
X133048285Y-125105390D02*
X133095904Y-125153009D01*
X133095904Y-125153009D02*
X133143523Y-125248247D01*
X133143523Y-125248247D02*
X133143523Y-125486342D01*
X133143523Y-125486342D02*
X133095904Y-125581580D01*
X133095904Y-125581580D02*
X133048285Y-125629200D01*
X133048285Y-125629200D02*
X132953047Y-125676819D01*
X132953047Y-125676819D02*
X132714952Y-125676819D01*
X132714952Y-125676819D02*
X132619714Y-125629200D01*
X132619714Y-125629200D02*
X132572095Y-125581580D01*
X106545142Y-134569580D02*
X106497523Y-134617200D01*
X106497523Y-134617200D02*
X106354666Y-134664819D01*
X106354666Y-134664819D02*
X106259428Y-134664819D01*
X106259428Y-134664819D02*
X106116571Y-134617200D01*
X106116571Y-134617200D02*
X106021333Y-134521961D01*
X106021333Y-134521961D02*
X105973714Y-134426723D01*
X105973714Y-134426723D02*
X105926095Y-134236247D01*
X105926095Y-134236247D02*
X105926095Y-134093390D01*
X105926095Y-134093390D02*
X105973714Y-133902914D01*
X105973714Y-133902914D02*
X106021333Y-133807676D01*
X106021333Y-133807676D02*
X106116571Y-133712438D01*
X106116571Y-133712438D02*
X106259428Y-133664819D01*
X106259428Y-133664819D02*
X106354666Y-133664819D01*
X106354666Y-133664819D02*
X106497523Y-133712438D01*
X106497523Y-133712438D02*
X106545142Y-133760057D01*
X107497523Y-134664819D02*
X106926095Y-134664819D01*
X107211809Y-134664819D02*
X107211809Y-133664819D01*
X107211809Y-133664819D02*
X107116571Y-133807676D01*
X107116571Y-133807676D02*
X107021333Y-133902914D01*
X107021333Y-133902914D02*
X106926095Y-133950533D01*
X107878476Y-133760057D02*
X107926095Y-133712438D01*
X107926095Y-133712438D02*
X108021333Y-133664819D01*
X108021333Y-133664819D02*
X108259428Y-133664819D01*
X108259428Y-133664819D02*
X108354666Y-133712438D01*
X108354666Y-133712438D02*
X108402285Y-133760057D01*
X108402285Y-133760057D02*
X108449904Y-133855295D01*
X108449904Y-133855295D02*
X108449904Y-133950533D01*
X108449904Y-133950533D02*
X108402285Y-134093390D01*
X108402285Y-134093390D02*
X107830857Y-134664819D01*
X107830857Y-134664819D02*
X108449904Y-134664819D01*
X203200095Y-124422819D02*
X203200095Y-125232342D01*
X203200095Y-125232342D02*
X203247714Y-125327580D01*
X203247714Y-125327580D02*
X203295333Y-125375200D01*
X203295333Y-125375200D02*
X203390571Y-125422819D01*
X203390571Y-125422819D02*
X203581047Y-125422819D01*
X203581047Y-125422819D02*
X203676285Y-125375200D01*
X203676285Y-125375200D02*
X203723904Y-125327580D01*
X203723904Y-125327580D02*
X203771523Y-125232342D01*
X203771523Y-125232342D02*
X203771523Y-124422819D01*
X204390571Y-124851390D02*
X204295333Y-124803771D01*
X204295333Y-124803771D02*
X204247714Y-124756152D01*
X204247714Y-124756152D02*
X204200095Y-124660914D01*
X204200095Y-124660914D02*
X204200095Y-124613295D01*
X204200095Y-124613295D02*
X204247714Y-124518057D01*
X204247714Y-124518057D02*
X204295333Y-124470438D01*
X204295333Y-124470438D02*
X204390571Y-124422819D01*
X204390571Y-124422819D02*
X204581047Y-124422819D01*
X204581047Y-124422819D02*
X204676285Y-124470438D01*
X204676285Y-124470438D02*
X204723904Y-124518057D01*
X204723904Y-124518057D02*
X204771523Y-124613295D01*
X204771523Y-124613295D02*
X204771523Y-124660914D01*
X204771523Y-124660914D02*
X204723904Y-124756152D01*
X204723904Y-124756152D02*
X204676285Y-124803771D01*
X204676285Y-124803771D02*
X204581047Y-124851390D01*
X204581047Y-124851390D02*
X204390571Y-124851390D01*
X204390571Y-124851390D02*
X204295333Y-124899009D01*
X204295333Y-124899009D02*
X204247714Y-124946628D01*
X204247714Y-124946628D02*
X204200095Y-125041866D01*
X204200095Y-125041866D02*
X204200095Y-125232342D01*
X204200095Y-125232342D02*
X204247714Y-125327580D01*
X204247714Y-125327580D02*
X204295333Y-125375200D01*
X204295333Y-125375200D02*
X204390571Y-125422819D01*
X204390571Y-125422819D02*
X204581047Y-125422819D01*
X204581047Y-125422819D02*
X204676285Y-125375200D01*
X204676285Y-125375200D02*
X204723904Y-125327580D01*
X204723904Y-125327580D02*
X204771523Y-125232342D01*
X204771523Y-125232342D02*
X204771523Y-125041866D01*
X204771523Y-125041866D02*
X204723904Y-124946628D01*
X204723904Y-124946628D02*
X204676285Y-124899009D01*
X204676285Y-124899009D02*
X204581047Y-124851390D01*
X79538533Y-134480880D02*
X79490914Y-134528500D01*
X79490914Y-134528500D02*
X79348057Y-134576119D01*
X79348057Y-134576119D02*
X79252819Y-134576119D01*
X79252819Y-134576119D02*
X79109962Y-134528500D01*
X79109962Y-134528500D02*
X79014724Y-134433261D01*
X79014724Y-134433261D02*
X78967105Y-134338023D01*
X78967105Y-134338023D02*
X78919486Y-134147547D01*
X78919486Y-134147547D02*
X78919486Y-134004690D01*
X78919486Y-134004690D02*
X78967105Y-133814214D01*
X78967105Y-133814214D02*
X79014724Y-133718976D01*
X79014724Y-133718976D02*
X79109962Y-133623738D01*
X79109962Y-133623738D02*
X79252819Y-133576119D01*
X79252819Y-133576119D02*
X79348057Y-133576119D01*
X79348057Y-133576119D02*
X79490914Y-133623738D01*
X79490914Y-133623738D02*
X79538533Y-133671357D01*
X80395676Y-133576119D02*
X80205200Y-133576119D01*
X80205200Y-133576119D02*
X80109962Y-133623738D01*
X80109962Y-133623738D02*
X80062343Y-133671357D01*
X80062343Y-133671357D02*
X79967105Y-133814214D01*
X79967105Y-133814214D02*
X79919486Y-134004690D01*
X79919486Y-134004690D02*
X79919486Y-134385642D01*
X79919486Y-134385642D02*
X79967105Y-134480880D01*
X79967105Y-134480880D02*
X80014724Y-134528500D01*
X80014724Y-134528500D02*
X80109962Y-134576119D01*
X80109962Y-134576119D02*
X80300438Y-134576119D01*
X80300438Y-134576119D02*
X80395676Y-134528500D01*
X80395676Y-134528500D02*
X80443295Y-134480880D01*
X80443295Y-134480880D02*
X80490914Y-134385642D01*
X80490914Y-134385642D02*
X80490914Y-134147547D01*
X80490914Y-134147547D02*
X80443295Y-134052309D01*
X80443295Y-134052309D02*
X80395676Y-134004690D01*
X80395676Y-134004690D02*
X80300438Y-133957071D01*
X80300438Y-133957071D02*
X80109962Y-133957071D01*
X80109962Y-133957071D02*
X80014724Y-134004690D01*
X80014724Y-134004690D02*
X79967105Y-134052309D01*
X79967105Y-134052309D02*
X79919486Y-134147547D01*
X151097942Y-134814780D02*
X151050323Y-134862400D01*
X151050323Y-134862400D02*
X150907466Y-134910019D01*
X150907466Y-134910019D02*
X150812228Y-134910019D01*
X150812228Y-134910019D02*
X150669371Y-134862400D01*
X150669371Y-134862400D02*
X150574133Y-134767161D01*
X150574133Y-134767161D02*
X150526514Y-134671923D01*
X150526514Y-134671923D02*
X150478895Y-134481447D01*
X150478895Y-134481447D02*
X150478895Y-134338590D01*
X150478895Y-134338590D02*
X150526514Y-134148114D01*
X150526514Y-134148114D02*
X150574133Y-134052876D01*
X150574133Y-134052876D02*
X150669371Y-133957638D01*
X150669371Y-133957638D02*
X150812228Y-133910019D01*
X150812228Y-133910019D02*
X150907466Y-133910019D01*
X150907466Y-133910019D02*
X151050323Y-133957638D01*
X151050323Y-133957638D02*
X151097942Y-134005257D01*
X152050323Y-134910019D02*
X151478895Y-134910019D01*
X151764609Y-134910019D02*
X151764609Y-133910019D01*
X151764609Y-133910019D02*
X151669371Y-134052876D01*
X151669371Y-134052876D02*
X151574133Y-134148114D01*
X151574133Y-134148114D02*
X151478895Y-134195733D01*
X152621752Y-134338590D02*
X152526514Y-134290971D01*
X152526514Y-134290971D02*
X152478895Y-134243352D01*
X152478895Y-134243352D02*
X152431276Y-134148114D01*
X152431276Y-134148114D02*
X152431276Y-134100495D01*
X152431276Y-134100495D02*
X152478895Y-134005257D01*
X152478895Y-134005257D02*
X152526514Y-133957638D01*
X152526514Y-133957638D02*
X152621752Y-133910019D01*
X152621752Y-133910019D02*
X152812228Y-133910019D01*
X152812228Y-133910019D02*
X152907466Y-133957638D01*
X152907466Y-133957638D02*
X152955085Y-134005257D01*
X152955085Y-134005257D02*
X153002704Y-134100495D01*
X153002704Y-134100495D02*
X153002704Y-134148114D01*
X153002704Y-134148114D02*
X152955085Y-134243352D01*
X152955085Y-134243352D02*
X152907466Y-134290971D01*
X152907466Y-134290971D02*
X152812228Y-134338590D01*
X152812228Y-134338590D02*
X152621752Y-134338590D01*
X152621752Y-134338590D02*
X152526514Y-134386209D01*
X152526514Y-134386209D02*
X152478895Y-134433828D01*
X152478895Y-134433828D02*
X152431276Y-134529066D01*
X152431276Y-134529066D02*
X152431276Y-134719542D01*
X152431276Y-134719542D02*
X152478895Y-134814780D01*
X152478895Y-134814780D02*
X152526514Y-134862400D01*
X152526514Y-134862400D02*
X152621752Y-134910019D01*
X152621752Y-134910019D02*
X152812228Y-134910019D01*
X152812228Y-134910019D02*
X152907466Y-134862400D01*
X152907466Y-134862400D02*
X152955085Y-134814780D01*
X152955085Y-134814780D02*
X153002704Y-134719542D01*
X153002704Y-134719542D02*
X153002704Y-134529066D01*
X153002704Y-134529066D02*
X152955085Y-134433828D01*
X152955085Y-134433828D02*
X152907466Y-134386209D01*
X152907466Y-134386209D02*
X152812228Y-134338590D01*
X84681009Y-127226833D02*
X84681009Y-127560166D01*
X85204819Y-127560166D02*
X84204819Y-127560166D01*
X84204819Y-127560166D02*
X84204819Y-127083976D01*
X84681009Y-126369690D02*
X84728628Y-126226833D01*
X84728628Y-126226833D02*
X84776247Y-126179214D01*
X84776247Y-126179214D02*
X84871485Y-126131595D01*
X84871485Y-126131595D02*
X85014342Y-126131595D01*
X85014342Y-126131595D02*
X85109580Y-126179214D01*
X85109580Y-126179214D02*
X85157200Y-126226833D01*
X85157200Y-126226833D02*
X85204819Y-126322071D01*
X85204819Y-126322071D02*
X85204819Y-126703023D01*
X85204819Y-126703023D02*
X84204819Y-126703023D01*
X84204819Y-126703023D02*
X84204819Y-126369690D01*
X84204819Y-126369690D02*
X84252438Y-126274452D01*
X84252438Y-126274452D02*
X84300057Y-126226833D01*
X84300057Y-126226833D02*
X84395295Y-126179214D01*
X84395295Y-126179214D02*
X84490533Y-126179214D01*
X84490533Y-126179214D02*
X84585771Y-126226833D01*
X84585771Y-126226833D02*
X84633390Y-126274452D01*
X84633390Y-126274452D02*
X84681009Y-126369690D01*
X84681009Y-126369690D02*
X84681009Y-126703023D01*
X84204819Y-125798261D02*
X84204819Y-125179214D01*
X84204819Y-125179214D02*
X84585771Y-125512547D01*
X84585771Y-125512547D02*
X84585771Y-125369690D01*
X84585771Y-125369690D02*
X84633390Y-125274452D01*
X84633390Y-125274452D02*
X84681009Y-125226833D01*
X84681009Y-125226833D02*
X84776247Y-125179214D01*
X84776247Y-125179214D02*
X85014342Y-125179214D01*
X85014342Y-125179214D02*
X85109580Y-125226833D01*
X85109580Y-125226833D02*
X85157200Y-125274452D01*
X85157200Y-125274452D02*
X85204819Y-125369690D01*
X85204819Y-125369690D02*
X85204819Y-125655404D01*
X85204819Y-125655404D02*
X85157200Y-125750642D01*
X85157200Y-125750642D02*
X85109580Y-125798261D01*
X135821009Y-127325333D02*
X135821009Y-127658666D01*
X136344819Y-127658666D02*
X135344819Y-127658666D01*
X135344819Y-127658666D02*
X135344819Y-127182476D01*
X135821009Y-126468190D02*
X135868628Y-126325333D01*
X135868628Y-126325333D02*
X135916247Y-126277714D01*
X135916247Y-126277714D02*
X136011485Y-126230095D01*
X136011485Y-126230095D02*
X136154342Y-126230095D01*
X136154342Y-126230095D02*
X136249580Y-126277714D01*
X136249580Y-126277714D02*
X136297200Y-126325333D01*
X136297200Y-126325333D02*
X136344819Y-126420571D01*
X136344819Y-126420571D02*
X136344819Y-126801523D01*
X136344819Y-126801523D02*
X135344819Y-126801523D01*
X135344819Y-126801523D02*
X135344819Y-126468190D01*
X135344819Y-126468190D02*
X135392438Y-126372952D01*
X135392438Y-126372952D02*
X135440057Y-126325333D01*
X135440057Y-126325333D02*
X135535295Y-126277714D01*
X135535295Y-126277714D02*
X135630533Y-126277714D01*
X135630533Y-126277714D02*
X135725771Y-126325333D01*
X135725771Y-126325333D02*
X135773390Y-126372952D01*
X135773390Y-126372952D02*
X135821009Y-126468190D01*
X135821009Y-126468190D02*
X135821009Y-126801523D01*
X135773390Y-125658666D02*
X135725771Y-125753904D01*
X135725771Y-125753904D02*
X135678152Y-125801523D01*
X135678152Y-125801523D02*
X135582914Y-125849142D01*
X135582914Y-125849142D02*
X135535295Y-125849142D01*
X135535295Y-125849142D02*
X135440057Y-125801523D01*
X135440057Y-125801523D02*
X135392438Y-125753904D01*
X135392438Y-125753904D02*
X135344819Y-125658666D01*
X135344819Y-125658666D02*
X135344819Y-125468190D01*
X135344819Y-125468190D02*
X135392438Y-125372952D01*
X135392438Y-125372952D02*
X135440057Y-125325333D01*
X135440057Y-125325333D02*
X135535295Y-125277714D01*
X135535295Y-125277714D02*
X135582914Y-125277714D01*
X135582914Y-125277714D02*
X135678152Y-125325333D01*
X135678152Y-125325333D02*
X135725771Y-125372952D01*
X135725771Y-125372952D02*
X135773390Y-125468190D01*
X135773390Y-125468190D02*
X135773390Y-125658666D01*
X135773390Y-125658666D02*
X135821009Y-125753904D01*
X135821009Y-125753904D02*
X135868628Y-125801523D01*
X135868628Y-125801523D02*
X135963866Y-125849142D01*
X135963866Y-125849142D02*
X136154342Y-125849142D01*
X136154342Y-125849142D02*
X136249580Y-125801523D01*
X136249580Y-125801523D02*
X136297200Y-125753904D01*
X136297200Y-125753904D02*
X136344819Y-125658666D01*
X136344819Y-125658666D02*
X136344819Y-125468190D01*
X136344819Y-125468190D02*
X136297200Y-125372952D01*
X136297200Y-125372952D02*
X136249580Y-125325333D01*
X136249580Y-125325333D02*
X136154342Y-125277714D01*
X136154342Y-125277714D02*
X135963866Y-125277714D01*
X135963866Y-125277714D02*
X135868628Y-125325333D01*
X135868628Y-125325333D02*
X135821009Y-125372952D01*
X135821009Y-125372952D02*
X135773390Y-125468190D01*
X200140819Y-137072666D02*
X199664628Y-137405999D01*
X200140819Y-137644094D02*
X199140819Y-137644094D01*
X199140819Y-137644094D02*
X199140819Y-137263142D01*
X199140819Y-137263142D02*
X199188438Y-137167904D01*
X199188438Y-137167904D02*
X199236057Y-137120285D01*
X199236057Y-137120285D02*
X199331295Y-137072666D01*
X199331295Y-137072666D02*
X199474152Y-137072666D01*
X199474152Y-137072666D02*
X199569390Y-137120285D01*
X199569390Y-137120285D02*
X199617009Y-137167904D01*
X199617009Y-137167904D02*
X199664628Y-137263142D01*
X199664628Y-137263142D02*
X199664628Y-137644094D01*
X199140819Y-136167904D02*
X199140819Y-136644094D01*
X199140819Y-136644094D02*
X199617009Y-136691713D01*
X199617009Y-136691713D02*
X199569390Y-136644094D01*
X199569390Y-136644094D02*
X199521771Y-136548856D01*
X199521771Y-136548856D02*
X199521771Y-136310761D01*
X199521771Y-136310761D02*
X199569390Y-136215523D01*
X199569390Y-136215523D02*
X199617009Y-136167904D01*
X199617009Y-136167904D02*
X199712247Y-136120285D01*
X199712247Y-136120285D02*
X199950342Y-136120285D01*
X199950342Y-136120285D02*
X200045580Y-136167904D01*
X200045580Y-136167904D02*
X200093200Y-136215523D01*
X200093200Y-136215523D02*
X200140819Y-136310761D01*
X200140819Y-136310761D02*
X200140819Y-136548856D01*
X200140819Y-136548856D02*
X200093200Y-136644094D01*
X200093200Y-136644094D02*
X200045580Y-136691713D01*
X198066819Y-130468666D02*
X197590628Y-130801999D01*
X198066819Y-131040094D02*
X197066819Y-131040094D01*
X197066819Y-131040094D02*
X197066819Y-130659142D01*
X197066819Y-130659142D02*
X197114438Y-130563904D01*
X197114438Y-130563904D02*
X197162057Y-130516285D01*
X197162057Y-130516285D02*
X197257295Y-130468666D01*
X197257295Y-130468666D02*
X197400152Y-130468666D01*
X197400152Y-130468666D02*
X197495390Y-130516285D01*
X197495390Y-130516285D02*
X197543009Y-130563904D01*
X197543009Y-130563904D02*
X197590628Y-130659142D01*
X197590628Y-130659142D02*
X197590628Y-131040094D01*
X197066819Y-129611523D02*
X197066819Y-129801999D01*
X197066819Y-129801999D02*
X197114438Y-129897237D01*
X197114438Y-129897237D02*
X197162057Y-129944856D01*
X197162057Y-129944856D02*
X197304914Y-130040094D01*
X197304914Y-130040094D02*
X197495390Y-130087713D01*
X197495390Y-130087713D02*
X197876342Y-130087713D01*
X197876342Y-130087713D02*
X197971580Y-130040094D01*
X197971580Y-130040094D02*
X198019200Y-129992475D01*
X198019200Y-129992475D02*
X198066819Y-129897237D01*
X198066819Y-129897237D02*
X198066819Y-129706761D01*
X198066819Y-129706761D02*
X198019200Y-129611523D01*
X198019200Y-129611523D02*
X197971580Y-129563904D01*
X197971580Y-129563904D02*
X197876342Y-129516285D01*
X197876342Y-129516285D02*
X197638247Y-129516285D01*
X197638247Y-129516285D02*
X197543009Y-129563904D01*
X197543009Y-129563904D02*
X197495390Y-129611523D01*
X197495390Y-129611523D02*
X197447771Y-129706761D01*
X197447771Y-129706761D02*
X197447771Y-129897237D01*
X197447771Y-129897237D02*
X197495390Y-129992475D01*
X197495390Y-129992475D02*
X197543009Y-130040094D01*
X197543009Y-130040094D02*
X197638247Y-130087713D01*
X183948266Y-127532757D02*
X183948266Y-127866090D01*
X184472076Y-127866090D02*
X183472076Y-127866090D01*
X183472076Y-127866090D02*
X183472076Y-127389900D01*
X183948266Y-126675614D02*
X183995885Y-126532757D01*
X183995885Y-126532757D02*
X184043504Y-126485138D01*
X184043504Y-126485138D02*
X184138742Y-126437519D01*
X184138742Y-126437519D02*
X184281599Y-126437519D01*
X184281599Y-126437519D02*
X184376837Y-126485138D01*
X184376837Y-126485138D02*
X184424457Y-126532757D01*
X184424457Y-126532757D02*
X184472076Y-126627995D01*
X184472076Y-126627995D02*
X184472076Y-127008947D01*
X184472076Y-127008947D02*
X183472076Y-127008947D01*
X183472076Y-127008947D02*
X183472076Y-126675614D01*
X183472076Y-126675614D02*
X183519695Y-126580376D01*
X183519695Y-126580376D02*
X183567314Y-126532757D01*
X183567314Y-126532757D02*
X183662552Y-126485138D01*
X183662552Y-126485138D02*
X183757790Y-126485138D01*
X183757790Y-126485138D02*
X183853028Y-126532757D01*
X183853028Y-126532757D02*
X183900647Y-126580376D01*
X183900647Y-126580376D02*
X183948266Y-126675614D01*
X183948266Y-126675614D02*
X183948266Y-127008947D01*
X184472076Y-125485138D02*
X184472076Y-126056566D01*
X184472076Y-125770852D02*
X183472076Y-125770852D01*
X183472076Y-125770852D02*
X183614933Y-125866090D01*
X183614933Y-125866090D02*
X183710171Y-125961328D01*
X183710171Y-125961328D02*
X183757790Y-126056566D01*
X183567314Y-125104185D02*
X183519695Y-125056566D01*
X183519695Y-125056566D02*
X183472076Y-124961328D01*
X183472076Y-124961328D02*
X183472076Y-124723233D01*
X183472076Y-124723233D02*
X183519695Y-124627995D01*
X183519695Y-124627995D02*
X183567314Y-124580376D01*
X183567314Y-124580376D02*
X183662552Y-124532757D01*
X183662552Y-124532757D02*
X183757790Y-124532757D01*
X183757790Y-124532757D02*
X183900647Y-124580376D01*
X183900647Y-124580376D02*
X184472076Y-125151804D01*
X184472076Y-125151804D02*
X184472076Y-124532757D01*
X224228819Y-137072666D02*
X223752628Y-137405999D01*
X224228819Y-137644094D02*
X223228819Y-137644094D01*
X223228819Y-137644094D02*
X223228819Y-137263142D01*
X223228819Y-137263142D02*
X223276438Y-137167904D01*
X223276438Y-137167904D02*
X223324057Y-137120285D01*
X223324057Y-137120285D02*
X223419295Y-137072666D01*
X223419295Y-137072666D02*
X223562152Y-137072666D01*
X223562152Y-137072666D02*
X223657390Y-137120285D01*
X223657390Y-137120285D02*
X223705009Y-137167904D01*
X223705009Y-137167904D02*
X223752628Y-137263142D01*
X223752628Y-137263142D02*
X223752628Y-137644094D01*
X223228819Y-136739332D02*
X223228819Y-136072666D01*
X223228819Y-136072666D02*
X224228819Y-136501237D01*
X54442195Y-126531019D02*
X54442195Y-127340542D01*
X54442195Y-127340542D02*
X54489814Y-127435780D01*
X54489814Y-127435780D02*
X54537433Y-127483400D01*
X54537433Y-127483400D02*
X54632671Y-127531019D01*
X54632671Y-127531019D02*
X54823147Y-127531019D01*
X54823147Y-127531019D02*
X54918385Y-127483400D01*
X54918385Y-127483400D02*
X54966004Y-127435780D01*
X54966004Y-127435780D02*
X55013623Y-127340542D01*
X55013623Y-127340542D02*
X55013623Y-126531019D01*
X55442195Y-126626257D02*
X55489814Y-126578638D01*
X55489814Y-126578638D02*
X55585052Y-126531019D01*
X55585052Y-126531019D02*
X55823147Y-126531019D01*
X55823147Y-126531019D02*
X55918385Y-126578638D01*
X55918385Y-126578638D02*
X55966004Y-126626257D01*
X55966004Y-126626257D02*
X56013623Y-126721495D01*
X56013623Y-126721495D02*
X56013623Y-126816733D01*
X56013623Y-126816733D02*
X55966004Y-126959590D01*
X55966004Y-126959590D02*
X55394576Y-127531019D01*
X55394576Y-127531019D02*
X56013623Y-127531019D01*
X176222819Y-137072666D02*
X175746628Y-137405999D01*
X176222819Y-137644094D02*
X175222819Y-137644094D01*
X175222819Y-137644094D02*
X175222819Y-137263142D01*
X175222819Y-137263142D02*
X175270438Y-137167904D01*
X175270438Y-137167904D02*
X175318057Y-137120285D01*
X175318057Y-137120285D02*
X175413295Y-137072666D01*
X175413295Y-137072666D02*
X175556152Y-137072666D01*
X175556152Y-137072666D02*
X175651390Y-137120285D01*
X175651390Y-137120285D02*
X175699009Y-137167904D01*
X175699009Y-137167904D02*
X175746628Y-137263142D01*
X175746628Y-137263142D02*
X175746628Y-137644094D01*
X175222819Y-136739332D02*
X175222819Y-136120285D01*
X175222819Y-136120285D02*
X175603771Y-136453618D01*
X175603771Y-136453618D02*
X175603771Y-136310761D01*
X175603771Y-136310761D02*
X175651390Y-136215523D01*
X175651390Y-136215523D02*
X175699009Y-136167904D01*
X175699009Y-136167904D02*
X175794247Y-136120285D01*
X175794247Y-136120285D02*
X176032342Y-136120285D01*
X176032342Y-136120285D02*
X176127580Y-136167904D01*
X176127580Y-136167904D02*
X176175200Y-136215523D01*
X176175200Y-136215523D02*
X176222819Y-136310761D01*
X176222819Y-136310761D02*
X176222819Y-136596475D01*
X176222819Y-136596475D02*
X176175200Y-136691713D01*
X176175200Y-136691713D02*
X176127580Y-136739332D01*
X55412649Y-96366613D02*
X55460269Y-96414232D01*
X55460269Y-96414232D02*
X55507888Y-96557089D01*
X55507888Y-96557089D02*
X55507888Y-96652327D01*
X55507888Y-96652327D02*
X55460269Y-96795184D01*
X55460269Y-96795184D02*
X55365030Y-96890422D01*
X55365030Y-96890422D02*
X55269792Y-96938041D01*
X55269792Y-96938041D02*
X55079316Y-96985660D01*
X55079316Y-96985660D02*
X54936459Y-96985660D01*
X54936459Y-96985660D02*
X54745983Y-96938041D01*
X54745983Y-96938041D02*
X54650745Y-96890422D01*
X54650745Y-96890422D02*
X54555507Y-96795184D01*
X54555507Y-96795184D02*
X54507888Y-96652327D01*
X54507888Y-96652327D02*
X54507888Y-96557089D01*
X54507888Y-96557089D02*
X54555507Y-96414232D01*
X54555507Y-96414232D02*
X54603126Y-96366613D01*
X54507888Y-96033279D02*
X54507888Y-95414232D01*
X54507888Y-95414232D02*
X54888840Y-95747565D01*
X54888840Y-95747565D02*
X54888840Y-95604708D01*
X54888840Y-95604708D02*
X54936459Y-95509470D01*
X54936459Y-95509470D02*
X54984078Y-95461851D01*
X54984078Y-95461851D02*
X55079316Y-95414232D01*
X55079316Y-95414232D02*
X55317411Y-95414232D01*
X55317411Y-95414232D02*
X55412649Y-95461851D01*
X55412649Y-95461851D02*
X55460269Y-95509470D01*
X55460269Y-95509470D02*
X55507888Y-95604708D01*
X55507888Y-95604708D02*
X55507888Y-95890422D01*
X55507888Y-95890422D02*
X55460269Y-95985660D01*
X55460269Y-95985660D02*
X55412649Y-96033279D01*
X55507888Y-94938041D02*
X55507888Y-94747565D01*
X55507888Y-94747565D02*
X55460269Y-94652327D01*
X55460269Y-94652327D02*
X55412649Y-94604708D01*
X55412649Y-94604708D02*
X55269792Y-94509470D01*
X55269792Y-94509470D02*
X55079316Y-94461851D01*
X55079316Y-94461851D02*
X54698364Y-94461851D01*
X54698364Y-94461851D02*
X54603126Y-94509470D01*
X54603126Y-94509470D02*
X54555507Y-94557089D01*
X54555507Y-94557089D02*
X54507888Y-94652327D01*
X54507888Y-94652327D02*
X54507888Y-94842803D01*
X54507888Y-94842803D02*
X54555507Y-94938041D01*
X54555507Y-94938041D02*
X54603126Y-94985660D01*
X54603126Y-94985660D02*
X54698364Y-95033279D01*
X54698364Y-95033279D02*
X54936459Y-95033279D01*
X54936459Y-95033279D02*
X55031697Y-94985660D01*
X55031697Y-94985660D02*
X55079316Y-94938041D01*
X55079316Y-94938041D02*
X55126935Y-94842803D01*
X55126935Y-94842803D02*
X55126935Y-94652327D01*
X55126935Y-94652327D02*
X55079316Y-94557089D01*
X55079316Y-94557089D02*
X55031697Y-94509470D01*
X55031697Y-94509470D02*
X54936459Y-94461851D01*
X87463333Y-134653080D02*
X87415714Y-134700700D01*
X87415714Y-134700700D02*
X87272857Y-134748319D01*
X87272857Y-134748319D02*
X87177619Y-134748319D01*
X87177619Y-134748319D02*
X87034762Y-134700700D01*
X87034762Y-134700700D02*
X86939524Y-134605461D01*
X86939524Y-134605461D02*
X86891905Y-134510223D01*
X86891905Y-134510223D02*
X86844286Y-134319747D01*
X86844286Y-134319747D02*
X86844286Y-134176890D01*
X86844286Y-134176890D02*
X86891905Y-133986414D01*
X86891905Y-133986414D02*
X86939524Y-133891176D01*
X86939524Y-133891176D02*
X87034762Y-133795938D01*
X87034762Y-133795938D02*
X87177619Y-133748319D01*
X87177619Y-133748319D02*
X87272857Y-133748319D01*
X87272857Y-133748319D02*
X87415714Y-133795938D01*
X87415714Y-133795938D02*
X87463333Y-133843557D01*
X87796667Y-133748319D02*
X88463333Y-133748319D01*
X88463333Y-133748319D02*
X88034762Y-134748319D01*
X157665009Y-127221333D02*
X157665009Y-127554666D01*
X158188819Y-127554666D02*
X157188819Y-127554666D01*
X157188819Y-127554666D02*
X157188819Y-127078476D01*
X157665009Y-126364190D02*
X157712628Y-126221333D01*
X157712628Y-126221333D02*
X157760247Y-126173714D01*
X157760247Y-126173714D02*
X157855485Y-126126095D01*
X157855485Y-126126095D02*
X157998342Y-126126095D01*
X157998342Y-126126095D02*
X158093580Y-126173714D01*
X158093580Y-126173714D02*
X158141200Y-126221333D01*
X158141200Y-126221333D02*
X158188819Y-126316571D01*
X158188819Y-126316571D02*
X158188819Y-126697523D01*
X158188819Y-126697523D02*
X157188819Y-126697523D01*
X157188819Y-126697523D02*
X157188819Y-126364190D01*
X157188819Y-126364190D02*
X157236438Y-126268952D01*
X157236438Y-126268952D02*
X157284057Y-126221333D01*
X157284057Y-126221333D02*
X157379295Y-126173714D01*
X157379295Y-126173714D02*
X157474533Y-126173714D01*
X157474533Y-126173714D02*
X157569771Y-126221333D01*
X157569771Y-126221333D02*
X157617390Y-126268952D01*
X157617390Y-126268952D02*
X157665009Y-126364190D01*
X157665009Y-126364190D02*
X157665009Y-126697523D01*
X158188819Y-125649904D02*
X158188819Y-125459428D01*
X158188819Y-125459428D02*
X158141200Y-125364190D01*
X158141200Y-125364190D02*
X158093580Y-125316571D01*
X158093580Y-125316571D02*
X157950723Y-125221333D01*
X157950723Y-125221333D02*
X157760247Y-125173714D01*
X157760247Y-125173714D02*
X157379295Y-125173714D01*
X157379295Y-125173714D02*
X157284057Y-125221333D01*
X157284057Y-125221333D02*
X157236438Y-125268952D01*
X157236438Y-125268952D02*
X157188819Y-125364190D01*
X157188819Y-125364190D02*
X157188819Y-125554666D01*
X157188819Y-125554666D02*
X157236438Y-125649904D01*
X157236438Y-125649904D02*
X157284057Y-125697523D01*
X157284057Y-125697523D02*
X157379295Y-125745142D01*
X157379295Y-125745142D02*
X157617390Y-125745142D01*
X157617390Y-125745142D02*
X157712628Y-125697523D01*
X157712628Y-125697523D02*
X157760247Y-125649904D01*
X157760247Y-125649904D02*
X157807866Y-125554666D01*
X157807866Y-125554666D02*
X157807866Y-125364190D01*
X157807866Y-125364190D02*
X157760247Y-125268952D01*
X157760247Y-125268952D02*
X157712628Y-125221333D01*
X157712628Y-125221333D02*
X157617390Y-125173714D01*
X134043009Y-127325333D02*
X134043009Y-127658666D01*
X134566819Y-127658666D02*
X133566819Y-127658666D01*
X133566819Y-127658666D02*
X133566819Y-127182476D01*
X134043009Y-126468190D02*
X134090628Y-126325333D01*
X134090628Y-126325333D02*
X134138247Y-126277714D01*
X134138247Y-126277714D02*
X134233485Y-126230095D01*
X134233485Y-126230095D02*
X134376342Y-126230095D01*
X134376342Y-126230095D02*
X134471580Y-126277714D01*
X134471580Y-126277714D02*
X134519200Y-126325333D01*
X134519200Y-126325333D02*
X134566819Y-126420571D01*
X134566819Y-126420571D02*
X134566819Y-126801523D01*
X134566819Y-126801523D02*
X133566819Y-126801523D01*
X133566819Y-126801523D02*
X133566819Y-126468190D01*
X133566819Y-126468190D02*
X133614438Y-126372952D01*
X133614438Y-126372952D02*
X133662057Y-126325333D01*
X133662057Y-126325333D02*
X133757295Y-126277714D01*
X133757295Y-126277714D02*
X133852533Y-126277714D01*
X133852533Y-126277714D02*
X133947771Y-126325333D01*
X133947771Y-126325333D02*
X133995390Y-126372952D01*
X133995390Y-126372952D02*
X134043009Y-126468190D01*
X134043009Y-126468190D02*
X134043009Y-126801523D01*
X133566819Y-125896761D02*
X133566819Y-125230095D01*
X133566819Y-125230095D02*
X134566819Y-125658666D01*
X55303480Y-86719451D02*
X55351100Y-86767070D01*
X55351100Y-86767070D02*
X55398719Y-86909927D01*
X55398719Y-86909927D02*
X55398719Y-87005165D01*
X55398719Y-87005165D02*
X55351100Y-87148022D01*
X55351100Y-87148022D02*
X55255861Y-87243260D01*
X55255861Y-87243260D02*
X55160623Y-87290879D01*
X55160623Y-87290879D02*
X54970147Y-87338498D01*
X54970147Y-87338498D02*
X54827290Y-87338498D01*
X54827290Y-87338498D02*
X54636814Y-87290879D01*
X54636814Y-87290879D02*
X54541576Y-87243260D01*
X54541576Y-87243260D02*
X54446338Y-87148022D01*
X54446338Y-87148022D02*
X54398719Y-87005165D01*
X54398719Y-87005165D02*
X54398719Y-86909927D01*
X54398719Y-86909927D02*
X54446338Y-86767070D01*
X54446338Y-86767070D02*
X54493957Y-86719451D01*
X54398719Y-86386117D02*
X54398719Y-85767070D01*
X54398719Y-85767070D02*
X54779671Y-86100403D01*
X54779671Y-86100403D02*
X54779671Y-85957546D01*
X54779671Y-85957546D02*
X54827290Y-85862308D01*
X54827290Y-85862308D02*
X54874909Y-85814689D01*
X54874909Y-85814689D02*
X54970147Y-85767070D01*
X54970147Y-85767070D02*
X55208242Y-85767070D01*
X55208242Y-85767070D02*
X55303480Y-85814689D01*
X55303480Y-85814689D02*
X55351100Y-85862308D01*
X55351100Y-85862308D02*
X55398719Y-85957546D01*
X55398719Y-85957546D02*
X55398719Y-86243260D01*
X55398719Y-86243260D02*
X55351100Y-86338498D01*
X55351100Y-86338498D02*
X55303480Y-86386117D01*
X54398719Y-84909927D02*
X54398719Y-85100403D01*
X54398719Y-85100403D02*
X54446338Y-85195641D01*
X54446338Y-85195641D02*
X54493957Y-85243260D01*
X54493957Y-85243260D02*
X54636814Y-85338498D01*
X54636814Y-85338498D02*
X54827290Y-85386117D01*
X54827290Y-85386117D02*
X55208242Y-85386117D01*
X55208242Y-85386117D02*
X55303480Y-85338498D01*
X55303480Y-85338498D02*
X55351100Y-85290879D01*
X55351100Y-85290879D02*
X55398719Y-85195641D01*
X55398719Y-85195641D02*
X55398719Y-85005165D01*
X55398719Y-85005165D02*
X55351100Y-84909927D01*
X55351100Y-84909927D02*
X55303480Y-84862308D01*
X55303480Y-84862308D02*
X55208242Y-84814689D01*
X55208242Y-84814689D02*
X54970147Y-84814689D01*
X54970147Y-84814689D02*
X54874909Y-84862308D01*
X54874909Y-84862308D02*
X54827290Y-84909927D01*
X54827290Y-84909927D02*
X54779671Y-85005165D01*
X54779671Y-85005165D02*
X54779671Y-85195641D01*
X54779671Y-85195641D02*
X54827290Y-85290879D01*
X54827290Y-85290879D02*
X54874909Y-85338498D01*
X54874909Y-85338498D02*
X54970147Y-85386117D01*
D12*
X62341220Y-106268344D02*
X61341220Y-106268344D01*
X62245981Y-105220726D02*
X62293601Y-105268345D01*
X62293601Y-105268345D02*
X62341220Y-105411202D01*
X62341220Y-105411202D02*
X62341220Y-105506440D01*
X62341220Y-105506440D02*
X62293601Y-105649297D01*
X62293601Y-105649297D02*
X62198362Y-105744535D01*
X62198362Y-105744535D02*
X62103124Y-105792154D01*
X62103124Y-105792154D02*
X61912648Y-105839773D01*
X61912648Y-105839773D02*
X61769791Y-105839773D01*
X61769791Y-105839773D02*
X61579315Y-105792154D01*
X61579315Y-105792154D02*
X61484077Y-105744535D01*
X61484077Y-105744535D02*
X61388839Y-105649297D01*
X61388839Y-105649297D02*
X61341220Y-105506440D01*
X61341220Y-105506440D02*
X61341220Y-105411202D01*
X61341220Y-105411202D02*
X61388839Y-105268345D01*
X61388839Y-105268345D02*
X61436458Y-105220726D01*
X61436458Y-104839773D02*
X61388839Y-104792154D01*
X61388839Y-104792154D02*
X61341220Y-104696916D01*
X61341220Y-104696916D02*
X61341220Y-104458821D01*
X61341220Y-104458821D02*
X61388839Y-104363583D01*
X61388839Y-104363583D02*
X61436458Y-104315964D01*
X61436458Y-104315964D02*
X61531696Y-104268345D01*
X61531696Y-104268345D02*
X61626934Y-104268345D01*
X61626934Y-104268345D02*
X61769791Y-104315964D01*
X61769791Y-104315964D02*
X62341220Y-104887392D01*
X62341220Y-104887392D02*
X62341220Y-104268345D01*
D11*
X138857142Y-66457419D02*
X138380952Y-66457419D01*
X138380952Y-66457419D02*
X138380952Y-65457419D01*
X139142857Y-66409800D02*
X139285714Y-66457419D01*
X139285714Y-66457419D02*
X139523809Y-66457419D01*
X139523809Y-66457419D02*
X139619047Y-66409800D01*
X139619047Y-66409800D02*
X139666666Y-66362180D01*
X139666666Y-66362180D02*
X139714285Y-66266942D01*
X139714285Y-66266942D02*
X139714285Y-66171704D01*
X139714285Y-66171704D02*
X139666666Y-66076466D01*
X139666666Y-66076466D02*
X139619047Y-66028847D01*
X139619047Y-66028847D02*
X139523809Y-65981228D01*
X139523809Y-65981228D02*
X139333333Y-65933609D01*
X139333333Y-65933609D02*
X139238095Y-65885990D01*
X139238095Y-65885990D02*
X139190476Y-65838371D01*
X139190476Y-65838371D02*
X139142857Y-65743133D01*
X139142857Y-65743133D02*
X139142857Y-65647895D01*
X139142857Y-65647895D02*
X139190476Y-65552657D01*
X139190476Y-65552657D02*
X139238095Y-65505038D01*
X139238095Y-65505038D02*
X139333333Y-65457419D01*
X139333333Y-65457419D02*
X139571428Y-65457419D01*
X139571428Y-65457419D02*
X139714285Y-65505038D01*
X140571428Y-65790752D02*
X140571428Y-66457419D01*
X140333333Y-65409800D02*
X140095238Y-66124085D01*
X140095238Y-66124085D02*
X140714285Y-66124085D01*
D10*
X59561543Y-115660281D02*
X59513924Y-115707901D01*
X59513924Y-115707901D02*
X59371067Y-115755520D01*
X59371067Y-115755520D02*
X59275829Y-115755520D01*
X59275829Y-115755520D02*
X59132972Y-115707901D01*
X59132972Y-115707901D02*
X59037734Y-115612662D01*
X59037734Y-115612662D02*
X58990115Y-115517424D01*
X58990115Y-115517424D02*
X58942496Y-115326948D01*
X58942496Y-115326948D02*
X58942496Y-115184091D01*
X58942496Y-115184091D02*
X58990115Y-114993615D01*
X58990115Y-114993615D02*
X59037734Y-114898377D01*
X59037734Y-114898377D02*
X59132972Y-114803139D01*
X59132972Y-114803139D02*
X59275829Y-114755520D01*
X59275829Y-114755520D02*
X59371067Y-114755520D01*
X59371067Y-114755520D02*
X59513924Y-114803139D01*
X59513924Y-114803139D02*
X59561543Y-114850758D01*
X59894877Y-114755520D02*
X60513924Y-114755520D01*
X60513924Y-114755520D02*
X60180591Y-115136472D01*
X60180591Y-115136472D02*
X60323448Y-115136472D01*
X60323448Y-115136472D02*
X60418686Y-115184091D01*
X60418686Y-115184091D02*
X60466305Y-115231710D01*
X60466305Y-115231710D02*
X60513924Y-115326948D01*
X60513924Y-115326948D02*
X60513924Y-115565043D01*
X60513924Y-115565043D02*
X60466305Y-115660281D01*
X60466305Y-115660281D02*
X60418686Y-115707901D01*
X60418686Y-115707901D02*
X60323448Y-115755520D01*
X60323448Y-115755520D02*
X60037734Y-115755520D01*
X60037734Y-115755520D02*
X59942496Y-115707901D01*
X59942496Y-115707901D02*
X59894877Y-115660281D01*
X61085353Y-115184091D02*
X60990115Y-115136472D01*
X60990115Y-115136472D02*
X60942496Y-115088853D01*
X60942496Y-115088853D02*
X60894877Y-114993615D01*
X60894877Y-114993615D02*
X60894877Y-114945996D01*
X60894877Y-114945996D02*
X60942496Y-114850758D01*
X60942496Y-114850758D02*
X60990115Y-114803139D01*
X60990115Y-114803139D02*
X61085353Y-114755520D01*
X61085353Y-114755520D02*
X61275829Y-114755520D01*
X61275829Y-114755520D02*
X61371067Y-114803139D01*
X61371067Y-114803139D02*
X61418686Y-114850758D01*
X61418686Y-114850758D02*
X61466305Y-114945996D01*
X61466305Y-114945996D02*
X61466305Y-114993615D01*
X61466305Y-114993615D02*
X61418686Y-115088853D01*
X61418686Y-115088853D02*
X61371067Y-115136472D01*
X61371067Y-115136472D02*
X61275829Y-115184091D01*
X61275829Y-115184091D02*
X61085353Y-115184091D01*
X61085353Y-115184091D02*
X60990115Y-115231710D01*
X60990115Y-115231710D02*
X60942496Y-115279329D01*
X60942496Y-115279329D02*
X60894877Y-115374567D01*
X60894877Y-115374567D02*
X60894877Y-115565043D01*
X60894877Y-115565043D02*
X60942496Y-115660281D01*
X60942496Y-115660281D02*
X60990115Y-115707901D01*
X60990115Y-115707901D02*
X61085353Y-115755520D01*
X61085353Y-115755520D02*
X61275829Y-115755520D01*
X61275829Y-115755520D02*
X61371067Y-115707901D01*
X61371067Y-115707901D02*
X61418686Y-115660281D01*
X61418686Y-115660281D02*
X61466305Y-115565043D01*
X61466305Y-115565043D02*
X61466305Y-115374567D01*
X61466305Y-115374567D02*
X61418686Y-115279329D01*
X61418686Y-115279329D02*
X61371067Y-115231710D01*
X61371067Y-115231710D02*
X61275829Y-115184091D01*
D11*
X66857142Y-66517184D02*
X66380952Y-66517184D01*
X66380952Y-66517184D02*
X66380952Y-65517184D01*
X67142857Y-66469565D02*
X67285714Y-66517184D01*
X67285714Y-66517184D02*
X67523809Y-66517184D01*
X67523809Y-66517184D02*
X67619047Y-66469565D01*
X67619047Y-66469565D02*
X67666666Y-66421945D01*
X67666666Y-66421945D02*
X67714285Y-66326707D01*
X67714285Y-66326707D02*
X67714285Y-66231469D01*
X67714285Y-66231469D02*
X67666666Y-66136231D01*
X67666666Y-66136231D02*
X67619047Y-66088612D01*
X67619047Y-66088612D02*
X67523809Y-66040993D01*
X67523809Y-66040993D02*
X67333333Y-65993374D01*
X67333333Y-65993374D02*
X67238095Y-65945755D01*
X67238095Y-65945755D02*
X67190476Y-65898136D01*
X67190476Y-65898136D02*
X67142857Y-65802898D01*
X67142857Y-65802898D02*
X67142857Y-65707660D01*
X67142857Y-65707660D02*
X67190476Y-65612422D01*
X67190476Y-65612422D02*
X67238095Y-65564803D01*
X67238095Y-65564803D02*
X67333333Y-65517184D01*
X67333333Y-65517184D02*
X67571428Y-65517184D01*
X67571428Y-65517184D02*
X67714285Y-65564803D01*
X68666666Y-66517184D02*
X68095238Y-66517184D01*
X68380952Y-66517184D02*
X68380952Y-65517184D01*
X68380952Y-65517184D02*
X68285714Y-65660041D01*
X68285714Y-65660041D02*
X68190476Y-65755279D01*
X68190476Y-65755279D02*
X68095238Y-65802898D01*
D10*
X150060819Y-130214666D02*
X149584628Y-130547999D01*
X150060819Y-130786094D02*
X149060819Y-130786094D01*
X149060819Y-130786094D02*
X149060819Y-130405142D01*
X149060819Y-130405142D02*
X149108438Y-130309904D01*
X149108438Y-130309904D02*
X149156057Y-130262285D01*
X149156057Y-130262285D02*
X149251295Y-130214666D01*
X149251295Y-130214666D02*
X149394152Y-130214666D01*
X149394152Y-130214666D02*
X149489390Y-130262285D01*
X149489390Y-130262285D02*
X149537009Y-130309904D01*
X149537009Y-130309904D02*
X149584628Y-130405142D01*
X149584628Y-130405142D02*
X149584628Y-130786094D01*
X149156057Y-129833713D02*
X149108438Y-129786094D01*
X149108438Y-129786094D02*
X149060819Y-129690856D01*
X149060819Y-129690856D02*
X149060819Y-129452761D01*
X149060819Y-129452761D02*
X149108438Y-129357523D01*
X149108438Y-129357523D02*
X149156057Y-129309904D01*
X149156057Y-129309904D02*
X149251295Y-129262285D01*
X149251295Y-129262285D02*
X149346533Y-129262285D01*
X149346533Y-129262285D02*
X149489390Y-129309904D01*
X149489390Y-129309904D02*
X150060819Y-129881332D01*
X150060819Y-129881332D02*
X150060819Y-129262285D01*
X227330095Y-124676819D02*
X227330095Y-125486342D01*
X227330095Y-125486342D02*
X227377714Y-125581580D01*
X227377714Y-125581580D02*
X227425333Y-125629200D01*
X227425333Y-125629200D02*
X227520571Y-125676819D01*
X227520571Y-125676819D02*
X227711047Y-125676819D01*
X227711047Y-125676819D02*
X227806285Y-125629200D01*
X227806285Y-125629200D02*
X227853904Y-125581580D01*
X227853904Y-125581580D02*
X227901523Y-125486342D01*
X227901523Y-125486342D02*
X227901523Y-124676819D01*
X228425333Y-125676819D02*
X228615809Y-125676819D01*
X228615809Y-125676819D02*
X228711047Y-125629200D01*
X228711047Y-125629200D02*
X228758666Y-125581580D01*
X228758666Y-125581580D02*
X228853904Y-125438723D01*
X228853904Y-125438723D02*
X228901523Y-125248247D01*
X228901523Y-125248247D02*
X228901523Y-124867295D01*
X228901523Y-124867295D02*
X228853904Y-124772057D01*
X228853904Y-124772057D02*
X228806285Y-124724438D01*
X228806285Y-124724438D02*
X228711047Y-124676819D01*
X228711047Y-124676819D02*
X228520571Y-124676819D01*
X228520571Y-124676819D02*
X228425333Y-124724438D01*
X228425333Y-124724438D02*
X228377714Y-124772057D01*
X228377714Y-124772057D02*
X228330095Y-124867295D01*
X228330095Y-124867295D02*
X228330095Y-125105390D01*
X228330095Y-125105390D02*
X228377714Y-125200628D01*
X228377714Y-125200628D02*
X228425333Y-125248247D01*
X228425333Y-125248247D02*
X228520571Y-125295866D01*
X228520571Y-125295866D02*
X228711047Y-125295866D01*
X228711047Y-125295866D02*
X228806285Y-125248247D01*
X228806285Y-125248247D02*
X228853904Y-125200628D01*
X228853904Y-125200628D02*
X228901523Y-125105390D01*
X199509142Y-135088580D02*
X199461523Y-135136200D01*
X199461523Y-135136200D02*
X199318666Y-135183819D01*
X199318666Y-135183819D02*
X199223428Y-135183819D01*
X199223428Y-135183819D02*
X199080571Y-135136200D01*
X199080571Y-135136200D02*
X198985333Y-135040961D01*
X198985333Y-135040961D02*
X198937714Y-134945723D01*
X198937714Y-134945723D02*
X198890095Y-134755247D01*
X198890095Y-134755247D02*
X198890095Y-134612390D01*
X198890095Y-134612390D02*
X198937714Y-134421914D01*
X198937714Y-134421914D02*
X198985333Y-134326676D01*
X198985333Y-134326676D02*
X199080571Y-134231438D01*
X199080571Y-134231438D02*
X199223428Y-134183819D01*
X199223428Y-134183819D02*
X199318666Y-134183819D01*
X199318666Y-134183819D02*
X199461523Y-134231438D01*
X199461523Y-134231438D02*
X199509142Y-134279057D01*
X199890095Y-134279057D02*
X199937714Y-134231438D01*
X199937714Y-134231438D02*
X200032952Y-134183819D01*
X200032952Y-134183819D02*
X200271047Y-134183819D01*
X200271047Y-134183819D02*
X200366285Y-134231438D01*
X200366285Y-134231438D02*
X200413904Y-134279057D01*
X200413904Y-134279057D02*
X200461523Y-134374295D01*
X200461523Y-134374295D02*
X200461523Y-134469533D01*
X200461523Y-134469533D02*
X200413904Y-134612390D01*
X200413904Y-134612390D02*
X199842476Y-135183819D01*
X199842476Y-135183819D02*
X200461523Y-135183819D01*
X201318666Y-134183819D02*
X201128190Y-134183819D01*
X201128190Y-134183819D02*
X201032952Y-134231438D01*
X201032952Y-134231438D02*
X200985333Y-134279057D01*
X200985333Y-134279057D02*
X200890095Y-134421914D01*
X200890095Y-134421914D02*
X200842476Y-134612390D01*
X200842476Y-134612390D02*
X200842476Y-134993342D01*
X200842476Y-134993342D02*
X200890095Y-135088580D01*
X200890095Y-135088580D02*
X200937714Y-135136200D01*
X200937714Y-135136200D02*
X201032952Y-135183819D01*
X201032952Y-135183819D02*
X201223428Y-135183819D01*
X201223428Y-135183819D02*
X201318666Y-135136200D01*
X201318666Y-135136200D02*
X201366285Y-135088580D01*
X201366285Y-135088580D02*
X201413904Y-134993342D01*
X201413904Y-134993342D02*
X201413904Y-134755247D01*
X201413904Y-134755247D02*
X201366285Y-134660009D01*
X201366285Y-134660009D02*
X201318666Y-134612390D01*
X201318666Y-134612390D02*
X201223428Y-134564771D01*
X201223428Y-134564771D02*
X201032952Y-134564771D01*
X201032952Y-134564771D02*
X200937714Y-134612390D01*
X200937714Y-134612390D02*
X200890095Y-134660009D01*
X200890095Y-134660009D02*
X200842476Y-134755247D01*
X207957009Y-127547523D02*
X207957009Y-127880856D01*
X208480819Y-127880856D02*
X207480819Y-127880856D01*
X207480819Y-127880856D02*
X207480819Y-127404666D01*
X207957009Y-126690380D02*
X208004628Y-126547523D01*
X208004628Y-126547523D02*
X208052247Y-126499904D01*
X208052247Y-126499904D02*
X208147485Y-126452285D01*
X208147485Y-126452285D02*
X208290342Y-126452285D01*
X208290342Y-126452285D02*
X208385580Y-126499904D01*
X208385580Y-126499904D02*
X208433200Y-126547523D01*
X208433200Y-126547523D02*
X208480819Y-126642761D01*
X208480819Y-126642761D02*
X208480819Y-127023713D01*
X208480819Y-127023713D02*
X207480819Y-127023713D01*
X207480819Y-127023713D02*
X207480819Y-126690380D01*
X207480819Y-126690380D02*
X207528438Y-126595142D01*
X207528438Y-126595142D02*
X207576057Y-126547523D01*
X207576057Y-126547523D02*
X207671295Y-126499904D01*
X207671295Y-126499904D02*
X207766533Y-126499904D01*
X207766533Y-126499904D02*
X207861771Y-126547523D01*
X207861771Y-126547523D02*
X207909390Y-126595142D01*
X207909390Y-126595142D02*
X207957009Y-126690380D01*
X207957009Y-126690380D02*
X207957009Y-127023713D01*
X208480819Y-125499904D02*
X208480819Y-126071332D01*
X208480819Y-125785618D02*
X207480819Y-125785618D01*
X207480819Y-125785618D02*
X207623676Y-125880856D01*
X207623676Y-125880856D02*
X207718914Y-125976094D01*
X207718914Y-125976094D02*
X207766533Y-126071332D01*
X207814152Y-124642761D02*
X208480819Y-124642761D01*
X207433200Y-124880856D02*
X208147485Y-125118951D01*
X208147485Y-125118951D02*
X208147485Y-124499904D01*
X87281009Y-127233033D02*
X87281009Y-127566366D01*
X87804819Y-127566366D02*
X86804819Y-127566366D01*
X86804819Y-127566366D02*
X86804819Y-127090176D01*
X87281009Y-126375890D02*
X87328628Y-126233033D01*
X87328628Y-126233033D02*
X87376247Y-126185414D01*
X87376247Y-126185414D02*
X87471485Y-126137795D01*
X87471485Y-126137795D02*
X87614342Y-126137795D01*
X87614342Y-126137795D02*
X87709580Y-126185414D01*
X87709580Y-126185414D02*
X87757200Y-126233033D01*
X87757200Y-126233033D02*
X87804819Y-126328271D01*
X87804819Y-126328271D02*
X87804819Y-126709223D01*
X87804819Y-126709223D02*
X86804819Y-126709223D01*
X86804819Y-126709223D02*
X86804819Y-126375890D01*
X86804819Y-126375890D02*
X86852438Y-126280652D01*
X86852438Y-126280652D02*
X86900057Y-126233033D01*
X86900057Y-126233033D02*
X86995295Y-126185414D01*
X86995295Y-126185414D02*
X87090533Y-126185414D01*
X87090533Y-126185414D02*
X87185771Y-126233033D01*
X87185771Y-126233033D02*
X87233390Y-126280652D01*
X87233390Y-126280652D02*
X87281009Y-126375890D01*
X87281009Y-126375890D02*
X87281009Y-126709223D01*
X87138152Y-125280652D02*
X87804819Y-125280652D01*
X86757200Y-125518747D02*
X87471485Y-125756842D01*
X87471485Y-125756842D02*
X87471485Y-125137795D01*
X230751142Y-134725580D02*
X230703523Y-134773200D01*
X230703523Y-134773200D02*
X230560666Y-134820819D01*
X230560666Y-134820819D02*
X230465428Y-134820819D01*
X230465428Y-134820819D02*
X230322571Y-134773200D01*
X230322571Y-134773200D02*
X230227333Y-134677961D01*
X230227333Y-134677961D02*
X230179714Y-134582723D01*
X230179714Y-134582723D02*
X230132095Y-134392247D01*
X230132095Y-134392247D02*
X230132095Y-134249390D01*
X230132095Y-134249390D02*
X230179714Y-134058914D01*
X230179714Y-134058914D02*
X230227333Y-133963676D01*
X230227333Y-133963676D02*
X230322571Y-133868438D01*
X230322571Y-133868438D02*
X230465428Y-133820819D01*
X230465428Y-133820819D02*
X230560666Y-133820819D01*
X230560666Y-133820819D02*
X230703523Y-133868438D01*
X230703523Y-133868438D02*
X230751142Y-133916057D01*
X231084476Y-133820819D02*
X231703523Y-133820819D01*
X231703523Y-133820819D02*
X231370190Y-134201771D01*
X231370190Y-134201771D02*
X231513047Y-134201771D01*
X231513047Y-134201771D02*
X231608285Y-134249390D01*
X231608285Y-134249390D02*
X231655904Y-134297009D01*
X231655904Y-134297009D02*
X231703523Y-134392247D01*
X231703523Y-134392247D02*
X231703523Y-134630342D01*
X231703523Y-134630342D02*
X231655904Y-134725580D01*
X231655904Y-134725580D02*
X231608285Y-134773200D01*
X231608285Y-134773200D02*
X231513047Y-134820819D01*
X231513047Y-134820819D02*
X231227333Y-134820819D01*
X231227333Y-134820819D02*
X231132095Y-134773200D01*
X231132095Y-134773200D02*
X231084476Y-134725580D01*
X232655904Y-134820819D02*
X232084476Y-134820819D01*
X232370190Y-134820819D02*
X232370190Y-133820819D01*
X232370190Y-133820819D02*
X232274952Y-133963676D01*
X232274952Y-133963676D02*
X232179714Y-134058914D01*
X232179714Y-134058914D02*
X232084476Y-134106533D01*
X108477009Y-127143333D02*
X108477009Y-127476666D01*
X109000819Y-127476666D02*
X108000819Y-127476666D01*
X108000819Y-127476666D02*
X108000819Y-127000476D01*
X108477009Y-126286190D02*
X108524628Y-126143333D01*
X108524628Y-126143333D02*
X108572247Y-126095714D01*
X108572247Y-126095714D02*
X108667485Y-126048095D01*
X108667485Y-126048095D02*
X108810342Y-126048095D01*
X108810342Y-126048095D02*
X108905580Y-126095714D01*
X108905580Y-126095714D02*
X108953200Y-126143333D01*
X108953200Y-126143333D02*
X109000819Y-126238571D01*
X109000819Y-126238571D02*
X109000819Y-126619523D01*
X109000819Y-126619523D02*
X108000819Y-126619523D01*
X108000819Y-126619523D02*
X108000819Y-126286190D01*
X108000819Y-126286190D02*
X108048438Y-126190952D01*
X108048438Y-126190952D02*
X108096057Y-126143333D01*
X108096057Y-126143333D02*
X108191295Y-126095714D01*
X108191295Y-126095714D02*
X108286533Y-126095714D01*
X108286533Y-126095714D02*
X108381771Y-126143333D01*
X108381771Y-126143333D02*
X108429390Y-126190952D01*
X108429390Y-126190952D02*
X108477009Y-126286190D01*
X108477009Y-126286190D02*
X108477009Y-126619523D01*
X108000819Y-125143333D02*
X108000819Y-125619523D01*
X108000819Y-125619523D02*
X108477009Y-125667142D01*
X108477009Y-125667142D02*
X108429390Y-125619523D01*
X108429390Y-125619523D02*
X108381771Y-125524285D01*
X108381771Y-125524285D02*
X108381771Y-125286190D01*
X108381771Y-125286190D02*
X108429390Y-125190952D01*
X108429390Y-125190952D02*
X108477009Y-125143333D01*
X108477009Y-125143333D02*
X108572247Y-125095714D01*
X108572247Y-125095714D02*
X108810342Y-125095714D01*
X108810342Y-125095714D02*
X108905580Y-125143333D01*
X108905580Y-125143333D02*
X108953200Y-125190952D01*
X108953200Y-125190952D02*
X109000819Y-125286190D01*
X109000819Y-125286190D02*
X109000819Y-125524285D01*
X109000819Y-125524285D02*
X108953200Y-125619523D01*
X108953200Y-125619523D02*
X108905580Y-125667142D01*
D11*
X210857142Y-66457419D02*
X210380952Y-66457419D01*
X210380952Y-66457419D02*
X210380952Y-65457419D01*
X211142857Y-66409800D02*
X211285714Y-66457419D01*
X211285714Y-66457419D02*
X211523809Y-66457419D01*
X211523809Y-66457419D02*
X211619047Y-66409800D01*
X211619047Y-66409800D02*
X211666666Y-66362180D01*
X211666666Y-66362180D02*
X211714285Y-66266942D01*
X211714285Y-66266942D02*
X211714285Y-66171704D01*
X211714285Y-66171704D02*
X211666666Y-66076466D01*
X211666666Y-66076466D02*
X211619047Y-66028847D01*
X211619047Y-66028847D02*
X211523809Y-65981228D01*
X211523809Y-65981228D02*
X211333333Y-65933609D01*
X211333333Y-65933609D02*
X211238095Y-65885990D01*
X211238095Y-65885990D02*
X211190476Y-65838371D01*
X211190476Y-65838371D02*
X211142857Y-65743133D01*
X211142857Y-65743133D02*
X211142857Y-65647895D01*
X211142857Y-65647895D02*
X211190476Y-65552657D01*
X211190476Y-65552657D02*
X211238095Y-65505038D01*
X211238095Y-65505038D02*
X211333333Y-65457419D01*
X211333333Y-65457419D02*
X211571428Y-65457419D01*
X211571428Y-65457419D02*
X211714285Y-65505038D01*
X212047619Y-65457419D02*
X212714285Y-65457419D01*
X212714285Y-65457419D02*
X212285714Y-66457419D01*
D10*
X111057709Y-127220533D02*
X111057709Y-127553866D01*
X111581519Y-127553866D02*
X110581519Y-127553866D01*
X110581519Y-127553866D02*
X110581519Y-127077676D01*
X111057709Y-126363390D02*
X111105328Y-126220533D01*
X111105328Y-126220533D02*
X111152947Y-126172914D01*
X111152947Y-126172914D02*
X111248185Y-126125295D01*
X111248185Y-126125295D02*
X111391042Y-126125295D01*
X111391042Y-126125295D02*
X111486280Y-126172914D01*
X111486280Y-126172914D02*
X111533900Y-126220533D01*
X111533900Y-126220533D02*
X111581519Y-126315771D01*
X111581519Y-126315771D02*
X111581519Y-126696723D01*
X111581519Y-126696723D02*
X110581519Y-126696723D01*
X110581519Y-126696723D02*
X110581519Y-126363390D01*
X110581519Y-126363390D02*
X110629138Y-126268152D01*
X110629138Y-126268152D02*
X110676757Y-126220533D01*
X110676757Y-126220533D02*
X110771995Y-126172914D01*
X110771995Y-126172914D02*
X110867233Y-126172914D01*
X110867233Y-126172914D02*
X110962471Y-126220533D01*
X110962471Y-126220533D02*
X111010090Y-126268152D01*
X111010090Y-126268152D02*
X111057709Y-126363390D01*
X111057709Y-126363390D02*
X111057709Y-126696723D01*
X110581519Y-125268152D02*
X110581519Y-125458628D01*
X110581519Y-125458628D02*
X110629138Y-125553866D01*
X110629138Y-125553866D02*
X110676757Y-125601485D01*
X110676757Y-125601485D02*
X110819614Y-125696723D01*
X110819614Y-125696723D02*
X111010090Y-125744342D01*
X111010090Y-125744342D02*
X111391042Y-125744342D01*
X111391042Y-125744342D02*
X111486280Y-125696723D01*
X111486280Y-125696723D02*
X111533900Y-125649104D01*
X111533900Y-125649104D02*
X111581519Y-125553866D01*
X111581519Y-125553866D02*
X111581519Y-125363390D01*
X111581519Y-125363390D02*
X111533900Y-125268152D01*
X111533900Y-125268152D02*
X111486280Y-125220533D01*
X111486280Y-125220533D02*
X111391042Y-125172914D01*
X111391042Y-125172914D02*
X111152947Y-125172914D01*
X111152947Y-125172914D02*
X111057709Y-125220533D01*
X111057709Y-125220533D02*
X111010090Y-125268152D01*
X111010090Y-125268152D02*
X110962471Y-125363390D01*
X110962471Y-125363390D02*
X110962471Y-125553866D01*
X110962471Y-125553866D02*
X111010090Y-125649104D01*
X111010090Y-125649104D02*
X111057709Y-125696723D01*
X111057709Y-125696723D02*
X111152947Y-125744342D01*
X56747180Y-93840857D02*
X56794800Y-93888476D01*
X56794800Y-93888476D02*
X56842419Y-94031333D01*
X56842419Y-94031333D02*
X56842419Y-94126571D01*
X56842419Y-94126571D02*
X56794800Y-94269428D01*
X56794800Y-94269428D02*
X56699561Y-94364666D01*
X56699561Y-94364666D02*
X56604323Y-94412285D01*
X56604323Y-94412285D02*
X56413847Y-94459904D01*
X56413847Y-94459904D02*
X56270990Y-94459904D01*
X56270990Y-94459904D02*
X56080514Y-94412285D01*
X56080514Y-94412285D02*
X55985276Y-94364666D01*
X55985276Y-94364666D02*
X55890038Y-94269428D01*
X55890038Y-94269428D02*
X55842419Y-94126571D01*
X55842419Y-94126571D02*
X55842419Y-94031333D01*
X55842419Y-94031333D02*
X55890038Y-93888476D01*
X55890038Y-93888476D02*
X55937657Y-93840857D01*
X55842419Y-93507523D02*
X55842419Y-92888476D01*
X55842419Y-92888476D02*
X56223371Y-93221809D01*
X56223371Y-93221809D02*
X56223371Y-93078952D01*
X56223371Y-93078952D02*
X56270990Y-92983714D01*
X56270990Y-92983714D02*
X56318609Y-92936095D01*
X56318609Y-92936095D02*
X56413847Y-92888476D01*
X56413847Y-92888476D02*
X56651942Y-92888476D01*
X56651942Y-92888476D02*
X56747180Y-92936095D01*
X56747180Y-92936095D02*
X56794800Y-92983714D01*
X56794800Y-92983714D02*
X56842419Y-93078952D01*
X56842419Y-93078952D02*
X56842419Y-93364666D01*
X56842419Y-93364666D02*
X56794800Y-93459904D01*
X56794800Y-93459904D02*
X56747180Y-93507523D01*
X55842419Y-92555142D02*
X55842419Y-91936095D01*
X55842419Y-91936095D02*
X56223371Y-92269428D01*
X56223371Y-92269428D02*
X56223371Y-92126571D01*
X56223371Y-92126571D02*
X56270990Y-92031333D01*
X56270990Y-92031333D02*
X56318609Y-91983714D01*
X56318609Y-91983714D02*
X56413847Y-91936095D01*
X56413847Y-91936095D02*
X56651942Y-91936095D01*
X56651942Y-91936095D02*
X56747180Y-91983714D01*
X56747180Y-91983714D02*
X56794800Y-92031333D01*
X56794800Y-92031333D02*
X56842419Y-92126571D01*
X56842419Y-92126571D02*
X56842419Y-92412285D01*
X56842419Y-92412285D02*
X56794800Y-92507523D01*
X56794800Y-92507523D02*
X56747180Y-92555142D01*
X175633142Y-135248580D02*
X175585523Y-135296200D01*
X175585523Y-135296200D02*
X175442666Y-135343819D01*
X175442666Y-135343819D02*
X175347428Y-135343819D01*
X175347428Y-135343819D02*
X175204571Y-135296200D01*
X175204571Y-135296200D02*
X175109333Y-135200961D01*
X175109333Y-135200961D02*
X175061714Y-135105723D01*
X175061714Y-135105723D02*
X175014095Y-134915247D01*
X175014095Y-134915247D02*
X175014095Y-134772390D01*
X175014095Y-134772390D02*
X175061714Y-134581914D01*
X175061714Y-134581914D02*
X175109333Y-134486676D01*
X175109333Y-134486676D02*
X175204571Y-134391438D01*
X175204571Y-134391438D02*
X175347428Y-134343819D01*
X175347428Y-134343819D02*
X175442666Y-134343819D01*
X175442666Y-134343819D02*
X175585523Y-134391438D01*
X175585523Y-134391438D02*
X175633142Y-134439057D01*
X176014095Y-134439057D02*
X176061714Y-134391438D01*
X176061714Y-134391438D02*
X176156952Y-134343819D01*
X176156952Y-134343819D02*
X176395047Y-134343819D01*
X176395047Y-134343819D02*
X176490285Y-134391438D01*
X176490285Y-134391438D02*
X176537904Y-134439057D01*
X176537904Y-134439057D02*
X176585523Y-134534295D01*
X176585523Y-134534295D02*
X176585523Y-134629533D01*
X176585523Y-134629533D02*
X176537904Y-134772390D01*
X176537904Y-134772390D02*
X175966476Y-135343819D01*
X175966476Y-135343819D02*
X176585523Y-135343819D01*
X176966476Y-134439057D02*
X177014095Y-134391438D01*
X177014095Y-134391438D02*
X177109333Y-134343819D01*
X177109333Y-134343819D02*
X177347428Y-134343819D01*
X177347428Y-134343819D02*
X177442666Y-134391438D01*
X177442666Y-134391438D02*
X177490285Y-134439057D01*
X177490285Y-134439057D02*
X177537904Y-134534295D01*
X177537904Y-134534295D02*
X177537904Y-134629533D01*
X177537904Y-134629533D02*
X177490285Y-134772390D01*
X177490285Y-134772390D02*
X176918857Y-135343819D01*
X176918857Y-135343819D02*
X177537904Y-135343819D01*
X55044926Y-108844337D02*
X55092546Y-108891956D01*
X55092546Y-108891956D02*
X55140165Y-109034813D01*
X55140165Y-109034813D02*
X55140165Y-109130051D01*
X55140165Y-109130051D02*
X55092546Y-109272908D01*
X55092546Y-109272908D02*
X54997307Y-109368146D01*
X54997307Y-109368146D02*
X54902069Y-109415765D01*
X54902069Y-109415765D02*
X54711593Y-109463384D01*
X54711593Y-109463384D02*
X54568736Y-109463384D01*
X54568736Y-109463384D02*
X54378260Y-109415765D01*
X54378260Y-109415765D02*
X54283022Y-109368146D01*
X54283022Y-109368146D02*
X54187784Y-109272908D01*
X54187784Y-109272908D02*
X54140165Y-109130051D01*
X54140165Y-109130051D02*
X54140165Y-109034813D01*
X54140165Y-109034813D02*
X54187784Y-108891956D01*
X54187784Y-108891956D02*
X54235403Y-108844337D01*
X54473498Y-107987194D02*
X55140165Y-107987194D01*
X54092546Y-108225289D02*
X54806831Y-108463384D01*
X54806831Y-108463384D02*
X54806831Y-107844337D01*
X54140165Y-107272908D02*
X54140165Y-107177670D01*
X54140165Y-107177670D02*
X54187784Y-107082432D01*
X54187784Y-107082432D02*
X54235403Y-107034813D01*
X54235403Y-107034813D02*
X54330641Y-106987194D01*
X54330641Y-106987194D02*
X54521117Y-106939575D01*
X54521117Y-106939575D02*
X54759212Y-106939575D01*
X54759212Y-106939575D02*
X54949688Y-106987194D01*
X54949688Y-106987194D02*
X55044926Y-107034813D01*
X55044926Y-107034813D02*
X55092546Y-107082432D01*
X55092546Y-107082432D02*
X55140165Y-107177670D01*
X55140165Y-107177670D02*
X55140165Y-107272908D01*
X55140165Y-107272908D02*
X55092546Y-107368146D01*
X55092546Y-107368146D02*
X55044926Y-107415765D01*
X55044926Y-107415765D02*
X54949688Y-107463384D01*
X54949688Y-107463384D02*
X54759212Y-107511003D01*
X54759212Y-107511003D02*
X54521117Y-107511003D01*
X54521117Y-107511003D02*
X54330641Y-107463384D01*
X54330641Y-107463384D02*
X54235403Y-107415765D01*
X54235403Y-107415765D02*
X54187784Y-107368146D01*
X54187784Y-107368146D02*
X54140165Y-107272908D01*
X182782142Y-134647580D02*
X182734523Y-134695200D01*
X182734523Y-134695200D02*
X182591666Y-134742819D01*
X182591666Y-134742819D02*
X182496428Y-134742819D01*
X182496428Y-134742819D02*
X182353571Y-134695200D01*
X182353571Y-134695200D02*
X182258333Y-134599961D01*
X182258333Y-134599961D02*
X182210714Y-134504723D01*
X182210714Y-134504723D02*
X182163095Y-134314247D01*
X182163095Y-134314247D02*
X182163095Y-134171390D01*
X182163095Y-134171390D02*
X182210714Y-133980914D01*
X182210714Y-133980914D02*
X182258333Y-133885676D01*
X182258333Y-133885676D02*
X182353571Y-133790438D01*
X182353571Y-133790438D02*
X182496428Y-133742819D01*
X182496428Y-133742819D02*
X182591666Y-133742819D01*
X182591666Y-133742819D02*
X182734523Y-133790438D01*
X182734523Y-133790438D02*
X182782142Y-133838057D01*
X183163095Y-133838057D02*
X183210714Y-133790438D01*
X183210714Y-133790438D02*
X183305952Y-133742819D01*
X183305952Y-133742819D02*
X183544047Y-133742819D01*
X183544047Y-133742819D02*
X183639285Y-133790438D01*
X183639285Y-133790438D02*
X183686904Y-133838057D01*
X183686904Y-133838057D02*
X183734523Y-133933295D01*
X183734523Y-133933295D02*
X183734523Y-134028533D01*
X183734523Y-134028533D02*
X183686904Y-134171390D01*
X183686904Y-134171390D02*
X183115476Y-134742819D01*
X183115476Y-134742819D02*
X183734523Y-134742819D01*
X184067857Y-133742819D02*
X184686904Y-133742819D01*
X184686904Y-133742819D02*
X184353571Y-134123771D01*
X184353571Y-134123771D02*
X184496428Y-134123771D01*
X184496428Y-134123771D02*
X184591666Y-134171390D01*
X184591666Y-134171390D02*
X184639285Y-134219009D01*
X184639285Y-134219009D02*
X184686904Y-134314247D01*
X184686904Y-134314247D02*
X184686904Y-134552342D01*
X184686904Y-134552342D02*
X184639285Y-134647580D01*
X184639285Y-134647580D02*
X184591666Y-134695200D01*
X184591666Y-134695200D02*
X184496428Y-134742819D01*
X184496428Y-134742819D02*
X184210714Y-134742819D01*
X184210714Y-134742819D02*
X184115476Y-134695200D01*
X184115476Y-134695200D02*
X184067857Y-134647580D01*
X181795009Y-127547523D02*
X181795009Y-127880856D01*
X182318819Y-127880856D02*
X181318819Y-127880856D01*
X181318819Y-127880856D02*
X181318819Y-127404666D01*
X181795009Y-126690380D02*
X181842628Y-126547523D01*
X181842628Y-126547523D02*
X181890247Y-126499904D01*
X181890247Y-126499904D02*
X181985485Y-126452285D01*
X181985485Y-126452285D02*
X182128342Y-126452285D01*
X182128342Y-126452285D02*
X182223580Y-126499904D01*
X182223580Y-126499904D02*
X182271200Y-126547523D01*
X182271200Y-126547523D02*
X182318819Y-126642761D01*
X182318819Y-126642761D02*
X182318819Y-127023713D01*
X182318819Y-127023713D02*
X181318819Y-127023713D01*
X181318819Y-127023713D02*
X181318819Y-126690380D01*
X181318819Y-126690380D02*
X181366438Y-126595142D01*
X181366438Y-126595142D02*
X181414057Y-126547523D01*
X181414057Y-126547523D02*
X181509295Y-126499904D01*
X181509295Y-126499904D02*
X181604533Y-126499904D01*
X181604533Y-126499904D02*
X181699771Y-126547523D01*
X181699771Y-126547523D02*
X181747390Y-126595142D01*
X181747390Y-126595142D02*
X181795009Y-126690380D01*
X181795009Y-126690380D02*
X181795009Y-127023713D01*
X182318819Y-125499904D02*
X182318819Y-126071332D01*
X182318819Y-125785618D02*
X181318819Y-125785618D01*
X181318819Y-125785618D02*
X181461676Y-125880856D01*
X181461676Y-125880856D02*
X181556914Y-125976094D01*
X181556914Y-125976094D02*
X181604533Y-126071332D01*
X182318819Y-124547523D02*
X182318819Y-125118951D01*
X182318819Y-124833237D02*
X181318819Y-124833237D01*
X181318819Y-124833237D02*
X181461676Y-124928475D01*
X181461676Y-124928475D02*
X181556914Y-125023713D01*
X181556914Y-125023713D02*
X181604533Y-125118951D01*
X205671009Y-127547523D02*
X205671009Y-127880856D01*
X206194819Y-127880856D02*
X205194819Y-127880856D01*
X205194819Y-127880856D02*
X205194819Y-127404666D01*
X205671009Y-126690380D02*
X205718628Y-126547523D01*
X205718628Y-126547523D02*
X205766247Y-126499904D01*
X205766247Y-126499904D02*
X205861485Y-126452285D01*
X205861485Y-126452285D02*
X206004342Y-126452285D01*
X206004342Y-126452285D02*
X206099580Y-126499904D01*
X206099580Y-126499904D02*
X206147200Y-126547523D01*
X206147200Y-126547523D02*
X206194819Y-126642761D01*
X206194819Y-126642761D02*
X206194819Y-127023713D01*
X206194819Y-127023713D02*
X205194819Y-127023713D01*
X205194819Y-127023713D02*
X205194819Y-126690380D01*
X205194819Y-126690380D02*
X205242438Y-126595142D01*
X205242438Y-126595142D02*
X205290057Y-126547523D01*
X205290057Y-126547523D02*
X205385295Y-126499904D01*
X205385295Y-126499904D02*
X205480533Y-126499904D01*
X205480533Y-126499904D02*
X205575771Y-126547523D01*
X205575771Y-126547523D02*
X205623390Y-126595142D01*
X205623390Y-126595142D02*
X205671009Y-126690380D01*
X205671009Y-126690380D02*
X205671009Y-127023713D01*
X206194819Y-125499904D02*
X206194819Y-126071332D01*
X206194819Y-125785618D02*
X205194819Y-125785618D01*
X205194819Y-125785618D02*
X205337676Y-125880856D01*
X205337676Y-125880856D02*
X205432914Y-125976094D01*
X205432914Y-125976094D02*
X205480533Y-126071332D01*
X205194819Y-125166570D02*
X205194819Y-124547523D01*
X205194819Y-124547523D02*
X205575771Y-124880856D01*
X205575771Y-124880856D02*
X205575771Y-124737999D01*
X205575771Y-124737999D02*
X205623390Y-124642761D01*
X205623390Y-124642761D02*
X205671009Y-124595142D01*
X205671009Y-124595142D02*
X205766247Y-124547523D01*
X205766247Y-124547523D02*
X206004342Y-124547523D01*
X206004342Y-124547523D02*
X206099580Y-124595142D01*
X206099580Y-124595142D02*
X206147200Y-124642761D01*
X206147200Y-124642761D02*
X206194819Y-124737999D01*
X206194819Y-124737999D02*
X206194819Y-125023713D01*
X206194819Y-125023713D02*
X206147200Y-125118951D01*
X206147200Y-125118951D02*
X206099580Y-125166570D01*
X58576420Y-95813367D02*
X58100229Y-96146700D01*
X58576420Y-96384795D02*
X57576420Y-96384795D01*
X57576420Y-96384795D02*
X57576420Y-96003843D01*
X57576420Y-96003843D02*
X57624039Y-95908605D01*
X57624039Y-95908605D02*
X57671658Y-95860986D01*
X57671658Y-95860986D02*
X57766896Y-95813367D01*
X57766896Y-95813367D02*
X57909753Y-95813367D01*
X57909753Y-95813367D02*
X58004991Y-95860986D01*
X58004991Y-95860986D02*
X58052610Y-95908605D01*
X58052610Y-95908605D02*
X58100229Y-96003843D01*
X58100229Y-96003843D02*
X58100229Y-96384795D01*
X58576420Y-94860986D02*
X58576420Y-95432414D01*
X58576420Y-95146700D02*
X57576420Y-95146700D01*
X57576420Y-95146700D02*
X57719277Y-95241938D01*
X57719277Y-95241938D02*
X57814515Y-95337176D01*
X57814515Y-95337176D02*
X57862134Y-95432414D01*
X57576420Y-94527652D02*
X57576420Y-93860986D01*
X57576420Y-93860986D02*
X58576420Y-94289557D01*
X55263271Y-104585288D02*
X54787080Y-104918621D01*
X55263271Y-105156716D02*
X54263271Y-105156716D01*
X54263271Y-105156716D02*
X54263271Y-104775764D01*
X54263271Y-104775764D02*
X54310890Y-104680526D01*
X54310890Y-104680526D02*
X54358509Y-104632907D01*
X54358509Y-104632907D02*
X54453747Y-104585288D01*
X54453747Y-104585288D02*
X54596604Y-104585288D01*
X54596604Y-104585288D02*
X54691842Y-104632907D01*
X54691842Y-104632907D02*
X54739461Y-104680526D01*
X54739461Y-104680526D02*
X54787080Y-104775764D01*
X54787080Y-104775764D02*
X54787080Y-105156716D01*
X55263271Y-103632907D02*
X55263271Y-104204335D01*
X55263271Y-103918621D02*
X54263271Y-103918621D01*
X54263271Y-103918621D02*
X54406128Y-104013859D01*
X54406128Y-104013859D02*
X54501366Y-104109097D01*
X54501366Y-104109097D02*
X54548985Y-104204335D01*
X54263271Y-102775764D02*
X54263271Y-102966240D01*
X54263271Y-102966240D02*
X54310890Y-103061478D01*
X54310890Y-103061478D02*
X54358509Y-103109097D01*
X54358509Y-103109097D02*
X54501366Y-103204335D01*
X54501366Y-103204335D02*
X54691842Y-103251954D01*
X54691842Y-103251954D02*
X55072794Y-103251954D01*
X55072794Y-103251954D02*
X55168032Y-103204335D01*
X55168032Y-103204335D02*
X55215652Y-103156716D01*
X55215652Y-103156716D02*
X55263271Y-103061478D01*
X55263271Y-103061478D02*
X55263271Y-102871002D01*
X55263271Y-102871002D02*
X55215652Y-102775764D01*
X55215652Y-102775764D02*
X55168032Y-102728145D01*
X55168032Y-102728145D02*
X55072794Y-102680526D01*
X55072794Y-102680526D02*
X54834699Y-102680526D01*
X54834699Y-102680526D02*
X54739461Y-102728145D01*
X54739461Y-102728145D02*
X54691842Y-102775764D01*
X54691842Y-102775764D02*
X54644223Y-102871002D01*
X54644223Y-102871002D02*
X54644223Y-103061478D01*
X54644223Y-103061478D02*
X54691842Y-103156716D01*
X54691842Y-103156716D02*
X54739461Y-103204335D01*
X54739461Y-103204335D02*
X54834699Y-103251954D01*
X227195142Y-134725580D02*
X227147523Y-134773200D01*
X227147523Y-134773200D02*
X227004666Y-134820819D01*
X227004666Y-134820819D02*
X226909428Y-134820819D01*
X226909428Y-134820819D02*
X226766571Y-134773200D01*
X226766571Y-134773200D02*
X226671333Y-134677961D01*
X226671333Y-134677961D02*
X226623714Y-134582723D01*
X226623714Y-134582723D02*
X226576095Y-134392247D01*
X226576095Y-134392247D02*
X226576095Y-134249390D01*
X226576095Y-134249390D02*
X226623714Y-134058914D01*
X226623714Y-134058914D02*
X226671333Y-133963676D01*
X226671333Y-133963676D02*
X226766571Y-133868438D01*
X226766571Y-133868438D02*
X226909428Y-133820819D01*
X226909428Y-133820819D02*
X227004666Y-133820819D01*
X227004666Y-133820819D02*
X227147523Y-133868438D01*
X227147523Y-133868438D02*
X227195142Y-133916057D01*
X227528476Y-133820819D02*
X228147523Y-133820819D01*
X228147523Y-133820819D02*
X227814190Y-134201771D01*
X227814190Y-134201771D02*
X227957047Y-134201771D01*
X227957047Y-134201771D02*
X228052285Y-134249390D01*
X228052285Y-134249390D02*
X228099904Y-134297009D01*
X228099904Y-134297009D02*
X228147523Y-134392247D01*
X228147523Y-134392247D02*
X228147523Y-134630342D01*
X228147523Y-134630342D02*
X228099904Y-134725580D01*
X228099904Y-134725580D02*
X228052285Y-134773200D01*
X228052285Y-134773200D02*
X227957047Y-134820819D01*
X227957047Y-134820819D02*
X227671333Y-134820819D01*
X227671333Y-134820819D02*
X227576095Y-134773200D01*
X227576095Y-134773200D02*
X227528476Y-134725580D01*
X228528476Y-133916057D02*
X228576095Y-133868438D01*
X228576095Y-133868438D02*
X228671333Y-133820819D01*
X228671333Y-133820819D02*
X228909428Y-133820819D01*
X228909428Y-133820819D02*
X229004666Y-133868438D01*
X229004666Y-133868438D02*
X229052285Y-133916057D01*
X229052285Y-133916057D02*
X229099904Y-134011295D01*
X229099904Y-134011295D02*
X229099904Y-134106533D01*
X229099904Y-134106533D02*
X229052285Y-134249390D01*
X229052285Y-134249390D02*
X228480857Y-134820819D01*
X228480857Y-134820819D02*
X229099904Y-134820819D01*
X222196819Y-130468666D02*
X221720628Y-130801999D01*
X222196819Y-131040094D02*
X221196819Y-131040094D01*
X221196819Y-131040094D02*
X221196819Y-130659142D01*
X221196819Y-130659142D02*
X221244438Y-130563904D01*
X221244438Y-130563904D02*
X221292057Y-130516285D01*
X221292057Y-130516285D02*
X221387295Y-130468666D01*
X221387295Y-130468666D02*
X221530152Y-130468666D01*
X221530152Y-130468666D02*
X221625390Y-130516285D01*
X221625390Y-130516285D02*
X221673009Y-130563904D01*
X221673009Y-130563904D02*
X221720628Y-130659142D01*
X221720628Y-130659142D02*
X221720628Y-131040094D01*
X221625390Y-129897237D02*
X221577771Y-129992475D01*
X221577771Y-129992475D02*
X221530152Y-130040094D01*
X221530152Y-130040094D02*
X221434914Y-130087713D01*
X221434914Y-130087713D02*
X221387295Y-130087713D01*
X221387295Y-130087713D02*
X221292057Y-130040094D01*
X221292057Y-130040094D02*
X221244438Y-129992475D01*
X221244438Y-129992475D02*
X221196819Y-129897237D01*
X221196819Y-129897237D02*
X221196819Y-129706761D01*
X221196819Y-129706761D02*
X221244438Y-129611523D01*
X221244438Y-129611523D02*
X221292057Y-129563904D01*
X221292057Y-129563904D02*
X221387295Y-129516285D01*
X221387295Y-129516285D02*
X221434914Y-129516285D01*
X221434914Y-129516285D02*
X221530152Y-129563904D01*
X221530152Y-129563904D02*
X221577771Y-129611523D01*
X221577771Y-129611523D02*
X221625390Y-129706761D01*
X221625390Y-129706761D02*
X221625390Y-129897237D01*
X221625390Y-129897237D02*
X221673009Y-129992475D01*
X221673009Y-129992475D02*
X221720628Y-130040094D01*
X221720628Y-130040094D02*
X221815866Y-130087713D01*
X221815866Y-130087713D02*
X222006342Y-130087713D01*
X222006342Y-130087713D02*
X222101580Y-130040094D01*
X222101580Y-130040094D02*
X222149200Y-129992475D01*
X222149200Y-129992475D02*
X222196819Y-129897237D01*
X222196819Y-129897237D02*
X222196819Y-129706761D01*
X222196819Y-129706761D02*
X222149200Y-129611523D01*
X222149200Y-129611523D02*
X222101580Y-129563904D01*
X222101580Y-129563904D02*
X222006342Y-129516285D01*
X222006342Y-129516285D02*
X221815866Y-129516285D01*
X221815866Y-129516285D02*
X221720628Y-129563904D01*
X221720628Y-129563904D02*
X221673009Y-129611523D01*
X221673009Y-129611523D02*
X221625390Y-129706761D01*
X56383633Y-135843180D02*
X56336014Y-135890800D01*
X56336014Y-135890800D02*
X56193157Y-135938419D01*
X56193157Y-135938419D02*
X56097919Y-135938419D01*
X56097919Y-135938419D02*
X55955062Y-135890800D01*
X55955062Y-135890800D02*
X55859824Y-135795561D01*
X55859824Y-135795561D02*
X55812205Y-135700323D01*
X55812205Y-135700323D02*
X55764586Y-135509847D01*
X55764586Y-135509847D02*
X55764586Y-135366990D01*
X55764586Y-135366990D02*
X55812205Y-135176514D01*
X55812205Y-135176514D02*
X55859824Y-135081276D01*
X55859824Y-135081276D02*
X55955062Y-134986038D01*
X55955062Y-134986038D02*
X56097919Y-134938419D01*
X56097919Y-134938419D02*
X56193157Y-134938419D01*
X56193157Y-134938419D02*
X56336014Y-134986038D01*
X56336014Y-134986038D02*
X56383633Y-135033657D01*
X56764586Y-135033657D02*
X56812205Y-134986038D01*
X56812205Y-134986038D02*
X56907443Y-134938419D01*
X56907443Y-134938419D02*
X57145538Y-134938419D01*
X57145538Y-134938419D02*
X57240776Y-134986038D01*
X57240776Y-134986038D02*
X57288395Y-135033657D01*
X57288395Y-135033657D02*
X57336014Y-135128895D01*
X57336014Y-135128895D02*
X57336014Y-135224133D01*
X57336014Y-135224133D02*
X57288395Y-135366990D01*
X57288395Y-135366990D02*
X56716967Y-135938419D01*
X56716967Y-135938419D02*
X57336014Y-135938419D01*
X179445203Y-124674134D02*
X179445203Y-125483657D01*
X179445203Y-125483657D02*
X179492822Y-125578895D01*
X179492822Y-125578895D02*
X179540441Y-125626515D01*
X179540441Y-125626515D02*
X179635679Y-125674134D01*
X179635679Y-125674134D02*
X179826155Y-125674134D01*
X179826155Y-125674134D02*
X179921393Y-125626515D01*
X179921393Y-125626515D02*
X179969012Y-125578895D01*
X179969012Y-125578895D02*
X180016631Y-125483657D01*
X180016631Y-125483657D02*
X180016631Y-124674134D01*
X180397584Y-124674134D02*
X181064250Y-124674134D01*
X181064250Y-124674134D02*
X180635679Y-125674134D01*
X63444833Y-136116980D02*
X63397214Y-136164600D01*
X63397214Y-136164600D02*
X63254357Y-136212219D01*
X63254357Y-136212219D02*
X63159119Y-136212219D01*
X63159119Y-136212219D02*
X63016262Y-136164600D01*
X63016262Y-136164600D02*
X62921024Y-136069361D01*
X62921024Y-136069361D02*
X62873405Y-135974123D01*
X62873405Y-135974123D02*
X62825786Y-135783647D01*
X62825786Y-135783647D02*
X62825786Y-135640790D01*
X62825786Y-135640790D02*
X62873405Y-135450314D01*
X62873405Y-135450314D02*
X62921024Y-135355076D01*
X62921024Y-135355076D02*
X63016262Y-135259838D01*
X63016262Y-135259838D02*
X63159119Y-135212219D01*
X63159119Y-135212219D02*
X63254357Y-135212219D01*
X63254357Y-135212219D02*
X63397214Y-135259838D01*
X63397214Y-135259838D02*
X63444833Y-135307457D01*
X63778167Y-135212219D02*
X64397214Y-135212219D01*
X64397214Y-135212219D02*
X64063881Y-135593171D01*
X64063881Y-135593171D02*
X64206738Y-135593171D01*
X64206738Y-135593171D02*
X64301976Y-135640790D01*
X64301976Y-135640790D02*
X64349595Y-135688409D01*
X64349595Y-135688409D02*
X64397214Y-135783647D01*
X64397214Y-135783647D02*
X64397214Y-136021742D01*
X64397214Y-136021742D02*
X64349595Y-136116980D01*
X64349595Y-136116980D02*
X64301976Y-136164600D01*
X64301976Y-136164600D02*
X64206738Y-136212219D01*
X64206738Y-136212219D02*
X63921024Y-136212219D01*
X63921024Y-136212219D02*
X63825786Y-136164600D01*
X63825786Y-136164600D02*
X63778167Y-136116980D01*
X229801009Y-127547523D02*
X229801009Y-127880856D01*
X230324819Y-127880856D02*
X229324819Y-127880856D01*
X229324819Y-127880856D02*
X229324819Y-127404666D01*
X229801009Y-126690380D02*
X229848628Y-126547523D01*
X229848628Y-126547523D02*
X229896247Y-126499904D01*
X229896247Y-126499904D02*
X229991485Y-126452285D01*
X229991485Y-126452285D02*
X230134342Y-126452285D01*
X230134342Y-126452285D02*
X230229580Y-126499904D01*
X230229580Y-126499904D02*
X230277200Y-126547523D01*
X230277200Y-126547523D02*
X230324819Y-126642761D01*
X230324819Y-126642761D02*
X230324819Y-127023713D01*
X230324819Y-127023713D02*
X229324819Y-127023713D01*
X229324819Y-127023713D02*
X229324819Y-126690380D01*
X229324819Y-126690380D02*
X229372438Y-126595142D01*
X229372438Y-126595142D02*
X229420057Y-126547523D01*
X229420057Y-126547523D02*
X229515295Y-126499904D01*
X229515295Y-126499904D02*
X229610533Y-126499904D01*
X229610533Y-126499904D02*
X229705771Y-126547523D01*
X229705771Y-126547523D02*
X229753390Y-126595142D01*
X229753390Y-126595142D02*
X229801009Y-126690380D01*
X229801009Y-126690380D02*
X229801009Y-127023713D01*
X230324819Y-125499904D02*
X230324819Y-126071332D01*
X230324819Y-125785618D02*
X229324819Y-125785618D01*
X229324819Y-125785618D02*
X229467676Y-125880856D01*
X229467676Y-125880856D02*
X229562914Y-125976094D01*
X229562914Y-125976094D02*
X229610533Y-126071332D01*
X229324819Y-124595142D02*
X229324819Y-125071332D01*
X229324819Y-125071332D02*
X229801009Y-125118951D01*
X229801009Y-125118951D02*
X229753390Y-125071332D01*
X229753390Y-125071332D02*
X229705771Y-124976094D01*
X229705771Y-124976094D02*
X229705771Y-124737999D01*
X229705771Y-124737999D02*
X229753390Y-124642761D01*
X229753390Y-124642761D02*
X229801009Y-124595142D01*
X229801009Y-124595142D02*
X229896247Y-124547523D01*
X229896247Y-124547523D02*
X230134342Y-124547523D01*
X230134342Y-124547523D02*
X230229580Y-124595142D01*
X230229580Y-124595142D02*
X230277200Y-124642761D01*
X230277200Y-124642761D02*
X230324819Y-124737999D01*
X230324819Y-124737999D02*
X230324819Y-124976094D01*
X230324819Y-124976094D02*
X230277200Y-125071332D01*
X230277200Y-125071332D02*
X230229580Y-125118951D01*
X153891942Y-130928580D02*
X153844323Y-130976200D01*
X153844323Y-130976200D02*
X153701466Y-131023819D01*
X153701466Y-131023819D02*
X153606228Y-131023819D01*
X153606228Y-131023819D02*
X153463371Y-130976200D01*
X153463371Y-130976200D02*
X153368133Y-130880961D01*
X153368133Y-130880961D02*
X153320514Y-130785723D01*
X153320514Y-130785723D02*
X153272895Y-130595247D01*
X153272895Y-130595247D02*
X153272895Y-130452390D01*
X153272895Y-130452390D02*
X153320514Y-130261914D01*
X153320514Y-130261914D02*
X153368133Y-130166676D01*
X153368133Y-130166676D02*
X153463371Y-130071438D01*
X153463371Y-130071438D02*
X153606228Y-130023819D01*
X153606228Y-130023819D02*
X153701466Y-130023819D01*
X153701466Y-130023819D02*
X153844323Y-130071438D01*
X153844323Y-130071438D02*
X153891942Y-130119057D01*
X154844323Y-131023819D02*
X154272895Y-131023819D01*
X154558609Y-131023819D02*
X154558609Y-130023819D01*
X154558609Y-130023819D02*
X154463371Y-130166676D01*
X154463371Y-130166676D02*
X154368133Y-130261914D01*
X154368133Y-130261914D02*
X154272895Y-130309533D01*
X155177657Y-130023819D02*
X155844323Y-130023819D01*
X155844323Y-130023819D02*
X155415752Y-131023819D01*
X177956142Y-131169580D02*
X177908523Y-131217200D01*
X177908523Y-131217200D02*
X177765666Y-131264819D01*
X177765666Y-131264819D02*
X177670428Y-131264819D01*
X177670428Y-131264819D02*
X177527571Y-131217200D01*
X177527571Y-131217200D02*
X177432333Y-131121961D01*
X177432333Y-131121961D02*
X177384714Y-131026723D01*
X177384714Y-131026723D02*
X177337095Y-130836247D01*
X177337095Y-130836247D02*
X177337095Y-130693390D01*
X177337095Y-130693390D02*
X177384714Y-130502914D01*
X177384714Y-130502914D02*
X177432333Y-130407676D01*
X177432333Y-130407676D02*
X177527571Y-130312438D01*
X177527571Y-130312438D02*
X177670428Y-130264819D01*
X177670428Y-130264819D02*
X177765666Y-130264819D01*
X177765666Y-130264819D02*
X177908523Y-130312438D01*
X177908523Y-130312438D02*
X177956142Y-130360057D01*
X178337095Y-130360057D02*
X178384714Y-130312438D01*
X178384714Y-130312438D02*
X178479952Y-130264819D01*
X178479952Y-130264819D02*
X178718047Y-130264819D01*
X178718047Y-130264819D02*
X178813285Y-130312438D01*
X178813285Y-130312438D02*
X178860904Y-130360057D01*
X178860904Y-130360057D02*
X178908523Y-130455295D01*
X178908523Y-130455295D02*
X178908523Y-130550533D01*
X178908523Y-130550533D02*
X178860904Y-130693390D01*
X178860904Y-130693390D02*
X178289476Y-131264819D01*
X178289476Y-131264819D02*
X178908523Y-131264819D01*
X179860904Y-131264819D02*
X179289476Y-131264819D01*
X179575190Y-131264819D02*
X179575190Y-130264819D01*
X179575190Y-130264819D02*
X179479952Y-130407676D01*
X179479952Y-130407676D02*
X179384714Y-130502914D01*
X179384714Y-130502914D02*
X179289476Y-130550533D01*
X158615142Y-134725580D02*
X158567523Y-134773200D01*
X158567523Y-134773200D02*
X158424666Y-134820819D01*
X158424666Y-134820819D02*
X158329428Y-134820819D01*
X158329428Y-134820819D02*
X158186571Y-134773200D01*
X158186571Y-134773200D02*
X158091333Y-134677961D01*
X158091333Y-134677961D02*
X158043714Y-134582723D01*
X158043714Y-134582723D02*
X157996095Y-134392247D01*
X157996095Y-134392247D02*
X157996095Y-134249390D01*
X157996095Y-134249390D02*
X158043714Y-134058914D01*
X158043714Y-134058914D02*
X158091333Y-133963676D01*
X158091333Y-133963676D02*
X158186571Y-133868438D01*
X158186571Y-133868438D02*
X158329428Y-133820819D01*
X158329428Y-133820819D02*
X158424666Y-133820819D01*
X158424666Y-133820819D02*
X158567523Y-133868438D01*
X158567523Y-133868438D02*
X158615142Y-133916057D01*
X159567523Y-134820819D02*
X158996095Y-134820819D01*
X159281809Y-134820819D02*
X159281809Y-133820819D01*
X159281809Y-133820819D02*
X159186571Y-133963676D01*
X159186571Y-133963676D02*
X159091333Y-134058914D01*
X159091333Y-134058914D02*
X158996095Y-134106533D01*
X160043714Y-134820819D02*
X160234190Y-134820819D01*
X160234190Y-134820819D02*
X160329428Y-134773200D01*
X160329428Y-134773200D02*
X160377047Y-134725580D01*
X160377047Y-134725580D02*
X160472285Y-134582723D01*
X160472285Y-134582723D02*
X160519904Y-134392247D01*
X160519904Y-134392247D02*
X160519904Y-134011295D01*
X160519904Y-134011295D02*
X160472285Y-133916057D01*
X160472285Y-133916057D02*
X160424666Y-133868438D01*
X160424666Y-133868438D02*
X160329428Y-133820819D01*
X160329428Y-133820819D02*
X160138952Y-133820819D01*
X160138952Y-133820819D02*
X160043714Y-133868438D01*
X160043714Y-133868438D02*
X159996095Y-133916057D01*
X159996095Y-133916057D02*
X159948476Y-134011295D01*
X159948476Y-134011295D02*
X159948476Y-134249390D01*
X159948476Y-134249390D02*
X159996095Y-134344628D01*
X159996095Y-134344628D02*
X160043714Y-134392247D01*
X160043714Y-134392247D02*
X160138952Y-134439866D01*
X160138952Y-134439866D02*
X160329428Y-134439866D01*
X160329428Y-134439866D02*
X160424666Y-134392247D01*
X160424666Y-134392247D02*
X160472285Y-134344628D01*
X160472285Y-134344628D02*
X160519904Y-134249390D01*
X155111142Y-134647580D02*
X155063523Y-134695200D01*
X155063523Y-134695200D02*
X154920666Y-134742819D01*
X154920666Y-134742819D02*
X154825428Y-134742819D01*
X154825428Y-134742819D02*
X154682571Y-134695200D01*
X154682571Y-134695200D02*
X154587333Y-134599961D01*
X154587333Y-134599961D02*
X154539714Y-134504723D01*
X154539714Y-134504723D02*
X154492095Y-134314247D01*
X154492095Y-134314247D02*
X154492095Y-134171390D01*
X154492095Y-134171390D02*
X154539714Y-133980914D01*
X154539714Y-133980914D02*
X154587333Y-133885676D01*
X154587333Y-133885676D02*
X154682571Y-133790438D01*
X154682571Y-133790438D02*
X154825428Y-133742819D01*
X154825428Y-133742819D02*
X154920666Y-133742819D01*
X154920666Y-133742819D02*
X155063523Y-133790438D01*
X155063523Y-133790438D02*
X155111142Y-133838057D01*
X155492095Y-133838057D02*
X155539714Y-133790438D01*
X155539714Y-133790438D02*
X155634952Y-133742819D01*
X155634952Y-133742819D02*
X155873047Y-133742819D01*
X155873047Y-133742819D02*
X155968285Y-133790438D01*
X155968285Y-133790438D02*
X156015904Y-133838057D01*
X156015904Y-133838057D02*
X156063523Y-133933295D01*
X156063523Y-133933295D02*
X156063523Y-134028533D01*
X156063523Y-134028533D02*
X156015904Y-134171390D01*
X156015904Y-134171390D02*
X155444476Y-134742819D01*
X155444476Y-134742819D02*
X156063523Y-134742819D01*
X156682571Y-133742819D02*
X156777809Y-133742819D01*
X156777809Y-133742819D02*
X156873047Y-133790438D01*
X156873047Y-133790438D02*
X156920666Y-133838057D01*
X156920666Y-133838057D02*
X156968285Y-133933295D01*
X156968285Y-133933295D02*
X157015904Y-134123771D01*
X157015904Y-134123771D02*
X157015904Y-134361866D01*
X157015904Y-134361866D02*
X156968285Y-134552342D01*
X156968285Y-134552342D02*
X156920666Y-134647580D01*
X156920666Y-134647580D02*
X156873047Y-134695200D01*
X156873047Y-134695200D02*
X156777809Y-134742819D01*
X156777809Y-134742819D02*
X156682571Y-134742819D01*
X156682571Y-134742819D02*
X156587333Y-134695200D01*
X156587333Y-134695200D02*
X156539714Y-134647580D01*
X156539714Y-134647580D02*
X156492095Y-134552342D01*
X156492095Y-134552342D02*
X156444476Y-134361866D01*
X156444476Y-134361866D02*
X156444476Y-134123771D01*
X156444476Y-134123771D02*
X156492095Y-133933295D01*
X156492095Y-133933295D02*
X156539714Y-133838057D01*
X156539714Y-133838057D02*
X156587333Y-133790438D01*
X156587333Y-133790438D02*
X156682571Y-133742819D01*
X61538509Y-128690733D02*
X61538509Y-129024066D01*
X62062319Y-129024066D02*
X61062319Y-129024066D01*
X61062319Y-129024066D02*
X61062319Y-128547876D01*
X61538509Y-127833590D02*
X61586128Y-127690733D01*
X61586128Y-127690733D02*
X61633747Y-127643114D01*
X61633747Y-127643114D02*
X61728985Y-127595495D01*
X61728985Y-127595495D02*
X61871842Y-127595495D01*
X61871842Y-127595495D02*
X61967080Y-127643114D01*
X61967080Y-127643114D02*
X62014700Y-127690733D01*
X62014700Y-127690733D02*
X62062319Y-127785971D01*
X62062319Y-127785971D02*
X62062319Y-128166923D01*
X62062319Y-128166923D02*
X61062319Y-128166923D01*
X61062319Y-128166923D02*
X61062319Y-127833590D01*
X61062319Y-127833590D02*
X61109938Y-127738352D01*
X61109938Y-127738352D02*
X61157557Y-127690733D01*
X61157557Y-127690733D02*
X61252795Y-127643114D01*
X61252795Y-127643114D02*
X61348033Y-127643114D01*
X61348033Y-127643114D02*
X61443271Y-127690733D01*
X61443271Y-127690733D02*
X61490890Y-127738352D01*
X61490890Y-127738352D02*
X61538509Y-127833590D01*
X61538509Y-127833590D02*
X61538509Y-128166923D01*
X62062319Y-126643114D02*
X62062319Y-127214542D01*
X62062319Y-126928828D02*
X61062319Y-126928828D01*
X61062319Y-126928828D02*
X61205176Y-127024066D01*
X61205176Y-127024066D02*
X61300414Y-127119304D01*
X61300414Y-127119304D02*
X61348033Y-127214542D01*
X101169995Y-124927619D02*
X101169995Y-125737142D01*
X101169995Y-125737142D02*
X101217614Y-125832380D01*
X101217614Y-125832380D02*
X101265233Y-125880000D01*
X101265233Y-125880000D02*
X101360471Y-125927619D01*
X101360471Y-125927619D02*
X101550947Y-125927619D01*
X101550947Y-125927619D02*
X101646185Y-125880000D01*
X101646185Y-125880000D02*
X101693804Y-125832380D01*
X101693804Y-125832380D02*
X101741423Y-125737142D01*
X101741423Y-125737142D02*
X101741423Y-124927619D01*
X102646185Y-125260952D02*
X102646185Y-125927619D01*
X102408090Y-124880000D02*
X102169995Y-125594285D01*
X102169995Y-125594285D02*
X102789042Y-125594285D01*
X63796509Y-128696933D02*
X63796509Y-129030266D01*
X64320319Y-129030266D02*
X63320319Y-129030266D01*
X63320319Y-129030266D02*
X63320319Y-128554076D01*
X63796509Y-127839790D02*
X63844128Y-127696933D01*
X63844128Y-127696933D02*
X63891747Y-127649314D01*
X63891747Y-127649314D02*
X63986985Y-127601695D01*
X63986985Y-127601695D02*
X64129842Y-127601695D01*
X64129842Y-127601695D02*
X64225080Y-127649314D01*
X64225080Y-127649314D02*
X64272700Y-127696933D01*
X64272700Y-127696933D02*
X64320319Y-127792171D01*
X64320319Y-127792171D02*
X64320319Y-128173123D01*
X64320319Y-128173123D02*
X63320319Y-128173123D01*
X63320319Y-128173123D02*
X63320319Y-127839790D01*
X63320319Y-127839790D02*
X63367938Y-127744552D01*
X63367938Y-127744552D02*
X63415557Y-127696933D01*
X63415557Y-127696933D02*
X63510795Y-127649314D01*
X63510795Y-127649314D02*
X63606033Y-127649314D01*
X63606033Y-127649314D02*
X63701271Y-127696933D01*
X63701271Y-127696933D02*
X63748890Y-127744552D01*
X63748890Y-127744552D02*
X63796509Y-127839790D01*
X63796509Y-127839790D02*
X63796509Y-128173123D01*
X63415557Y-127220742D02*
X63367938Y-127173123D01*
X63367938Y-127173123D02*
X63320319Y-127077885D01*
X63320319Y-127077885D02*
X63320319Y-126839790D01*
X63320319Y-126839790D02*
X63367938Y-126744552D01*
X63367938Y-126744552D02*
X63415557Y-126696933D01*
X63415557Y-126696933D02*
X63510795Y-126649314D01*
X63510795Y-126649314D02*
X63606033Y-126649314D01*
X63606033Y-126649314D02*
X63748890Y-126696933D01*
X63748890Y-126696933D02*
X64320319Y-127268361D01*
X64320319Y-127268361D02*
X64320319Y-126649314D01*
D11*
X162857142Y-66457419D02*
X162380952Y-66457419D01*
X162380952Y-66457419D02*
X162380952Y-65457419D01*
X163142857Y-66409800D02*
X163285714Y-66457419D01*
X163285714Y-66457419D02*
X163523809Y-66457419D01*
X163523809Y-66457419D02*
X163619047Y-66409800D01*
X163619047Y-66409800D02*
X163666666Y-66362180D01*
X163666666Y-66362180D02*
X163714285Y-66266942D01*
X163714285Y-66266942D02*
X163714285Y-66171704D01*
X163714285Y-66171704D02*
X163666666Y-66076466D01*
X163666666Y-66076466D02*
X163619047Y-66028847D01*
X163619047Y-66028847D02*
X163523809Y-65981228D01*
X163523809Y-65981228D02*
X163333333Y-65933609D01*
X163333333Y-65933609D02*
X163238095Y-65885990D01*
X163238095Y-65885990D02*
X163190476Y-65838371D01*
X163190476Y-65838371D02*
X163142857Y-65743133D01*
X163142857Y-65743133D02*
X163142857Y-65647895D01*
X163142857Y-65647895D02*
X163190476Y-65552657D01*
X163190476Y-65552657D02*
X163238095Y-65505038D01*
X163238095Y-65505038D02*
X163333333Y-65457419D01*
X163333333Y-65457419D02*
X163571428Y-65457419D01*
X163571428Y-65457419D02*
X163714285Y-65505038D01*
X164619047Y-65457419D02*
X164142857Y-65457419D01*
X164142857Y-65457419D02*
X164095238Y-65933609D01*
X164095238Y-65933609D02*
X164142857Y-65885990D01*
X164142857Y-65885990D02*
X164238095Y-65838371D01*
X164238095Y-65838371D02*
X164476190Y-65838371D01*
X164476190Y-65838371D02*
X164571428Y-65885990D01*
X164571428Y-65885990D02*
X164619047Y-65933609D01*
X164619047Y-65933609D02*
X164666666Y-66028847D01*
X164666666Y-66028847D02*
X164666666Y-66266942D01*
X164666666Y-66266942D02*
X164619047Y-66362180D01*
X164619047Y-66362180D02*
X164571428Y-66409800D01*
X164571428Y-66409800D02*
X164476190Y-66457419D01*
X164476190Y-66457419D02*
X164238095Y-66457419D01*
X164238095Y-66457419D02*
X164142857Y-66409800D01*
X164142857Y-66409800D02*
X164095238Y-66362180D01*
D10*
X58888333Y-131495980D02*
X58840714Y-131543600D01*
X58840714Y-131543600D02*
X58697857Y-131591219D01*
X58697857Y-131591219D02*
X58602619Y-131591219D01*
X58602619Y-131591219D02*
X58459762Y-131543600D01*
X58459762Y-131543600D02*
X58364524Y-131448361D01*
X58364524Y-131448361D02*
X58316905Y-131353123D01*
X58316905Y-131353123D02*
X58269286Y-131162647D01*
X58269286Y-131162647D02*
X58269286Y-131019790D01*
X58269286Y-131019790D02*
X58316905Y-130829314D01*
X58316905Y-130829314D02*
X58364524Y-130734076D01*
X58364524Y-130734076D02*
X58459762Y-130638838D01*
X58459762Y-130638838D02*
X58602619Y-130591219D01*
X58602619Y-130591219D02*
X58697857Y-130591219D01*
X58697857Y-130591219D02*
X58840714Y-130638838D01*
X58840714Y-130638838D02*
X58888333Y-130686457D01*
X59840714Y-131591219D02*
X59269286Y-131591219D01*
X59555000Y-131591219D02*
X59555000Y-130591219D01*
X59555000Y-130591219D02*
X59459762Y-130734076D01*
X59459762Y-130734076D02*
X59364524Y-130829314D01*
X59364524Y-130829314D02*
X59269286Y-130876933D01*
X159951009Y-127373523D02*
X159951009Y-127706856D01*
X160474819Y-127706856D02*
X159474819Y-127706856D01*
X159474819Y-127706856D02*
X159474819Y-127230666D01*
X159951009Y-126516380D02*
X159998628Y-126373523D01*
X159998628Y-126373523D02*
X160046247Y-126325904D01*
X160046247Y-126325904D02*
X160141485Y-126278285D01*
X160141485Y-126278285D02*
X160284342Y-126278285D01*
X160284342Y-126278285D02*
X160379580Y-126325904D01*
X160379580Y-126325904D02*
X160427200Y-126373523D01*
X160427200Y-126373523D02*
X160474819Y-126468761D01*
X160474819Y-126468761D02*
X160474819Y-126849713D01*
X160474819Y-126849713D02*
X159474819Y-126849713D01*
X159474819Y-126849713D02*
X159474819Y-126516380D01*
X159474819Y-126516380D02*
X159522438Y-126421142D01*
X159522438Y-126421142D02*
X159570057Y-126373523D01*
X159570057Y-126373523D02*
X159665295Y-126325904D01*
X159665295Y-126325904D02*
X159760533Y-126325904D01*
X159760533Y-126325904D02*
X159855771Y-126373523D01*
X159855771Y-126373523D02*
X159903390Y-126421142D01*
X159903390Y-126421142D02*
X159951009Y-126516380D01*
X159951009Y-126516380D02*
X159951009Y-126849713D01*
X160474819Y-125325904D02*
X160474819Y-125897332D01*
X160474819Y-125611618D02*
X159474819Y-125611618D01*
X159474819Y-125611618D02*
X159617676Y-125706856D01*
X159617676Y-125706856D02*
X159712914Y-125802094D01*
X159712914Y-125802094D02*
X159760533Y-125897332D01*
X159474819Y-124706856D02*
X159474819Y-124611618D01*
X159474819Y-124611618D02*
X159522438Y-124516380D01*
X159522438Y-124516380D02*
X159570057Y-124468761D01*
X159570057Y-124468761D02*
X159665295Y-124421142D01*
X159665295Y-124421142D02*
X159855771Y-124373523D01*
X159855771Y-124373523D02*
X160093866Y-124373523D01*
X160093866Y-124373523D02*
X160284342Y-124421142D01*
X160284342Y-124421142D02*
X160379580Y-124468761D01*
X160379580Y-124468761D02*
X160427200Y-124516380D01*
X160427200Y-124516380D02*
X160474819Y-124611618D01*
X160474819Y-124611618D02*
X160474819Y-124706856D01*
X160474819Y-124706856D02*
X160427200Y-124802094D01*
X160427200Y-124802094D02*
X160379580Y-124849713D01*
X160379580Y-124849713D02*
X160284342Y-124897332D01*
X160284342Y-124897332D02*
X160093866Y-124944951D01*
X160093866Y-124944951D02*
X159855771Y-124944951D01*
X159855771Y-124944951D02*
X159665295Y-124897332D01*
X159665295Y-124897332D02*
X159570057Y-124849713D01*
X159570057Y-124849713D02*
X159522438Y-124802094D01*
X159522438Y-124802094D02*
X159474819Y-124706856D01*
X62074819Y-87302857D02*
X61598628Y-87636190D01*
X62074819Y-87874285D02*
X61074819Y-87874285D01*
X61074819Y-87874285D02*
X61074819Y-87493333D01*
X61074819Y-87493333D02*
X61122438Y-87398095D01*
X61122438Y-87398095D02*
X61170057Y-87350476D01*
X61170057Y-87350476D02*
X61265295Y-87302857D01*
X61265295Y-87302857D02*
X61408152Y-87302857D01*
X61408152Y-87302857D02*
X61503390Y-87350476D01*
X61503390Y-87350476D02*
X61551009Y-87398095D01*
X61551009Y-87398095D02*
X61598628Y-87493333D01*
X61598628Y-87493333D02*
X61598628Y-87874285D01*
X62074819Y-86350476D02*
X62074819Y-86921904D01*
X62074819Y-86636190D02*
X61074819Y-86636190D01*
X61074819Y-86636190D02*
X61217676Y-86731428D01*
X61217676Y-86731428D02*
X61312914Y-86826666D01*
X61312914Y-86826666D02*
X61360533Y-86921904D01*
X62074819Y-85398095D02*
X62074819Y-85969523D01*
X62074819Y-85683809D02*
X61074819Y-85683809D01*
X61074819Y-85683809D02*
X61217676Y-85779047D01*
X61217676Y-85779047D02*
X61312914Y-85874285D01*
X61312914Y-85874285D02*
X61360533Y-85969523D01*
X174190819Y-130214666D02*
X173714628Y-130547999D01*
X174190819Y-130786094D02*
X173190819Y-130786094D01*
X173190819Y-130786094D02*
X173190819Y-130405142D01*
X173190819Y-130405142D02*
X173238438Y-130309904D01*
X173238438Y-130309904D02*
X173286057Y-130262285D01*
X173286057Y-130262285D02*
X173381295Y-130214666D01*
X173381295Y-130214666D02*
X173524152Y-130214666D01*
X173524152Y-130214666D02*
X173619390Y-130262285D01*
X173619390Y-130262285D02*
X173667009Y-130309904D01*
X173667009Y-130309904D02*
X173714628Y-130405142D01*
X173714628Y-130405142D02*
X173714628Y-130786094D01*
X173524152Y-129357523D02*
X174190819Y-129357523D01*
X173143200Y-129595618D02*
X173857485Y-129833713D01*
X173857485Y-129833713D02*
X173857485Y-129214666D01*
X59650333Y-132947580D02*
X59602714Y-132995200D01*
X59602714Y-132995200D02*
X59459857Y-133042819D01*
X59459857Y-133042819D02*
X59364619Y-133042819D01*
X59364619Y-133042819D02*
X59221762Y-132995200D01*
X59221762Y-132995200D02*
X59126524Y-132899961D01*
X59126524Y-132899961D02*
X59078905Y-132804723D01*
X59078905Y-132804723D02*
X59031286Y-132614247D01*
X59031286Y-132614247D02*
X59031286Y-132471390D01*
X59031286Y-132471390D02*
X59078905Y-132280914D01*
X59078905Y-132280914D02*
X59126524Y-132185676D01*
X59126524Y-132185676D02*
X59221762Y-132090438D01*
X59221762Y-132090438D02*
X59364619Y-132042819D01*
X59364619Y-132042819D02*
X59459857Y-132042819D01*
X59459857Y-132042819D02*
X59602714Y-132090438D01*
X59602714Y-132090438D02*
X59650333Y-132138057D01*
X60507476Y-132376152D02*
X60507476Y-133042819D01*
X60269381Y-131995200D02*
X60031286Y-132709485D01*
X60031286Y-132709485D02*
X60650333Y-132709485D01*
X125930819Y-130118666D02*
X125454628Y-130451999D01*
X125930819Y-130690094D02*
X124930819Y-130690094D01*
X124930819Y-130690094D02*
X124930819Y-130309142D01*
X124930819Y-130309142D02*
X124978438Y-130213904D01*
X124978438Y-130213904D02*
X125026057Y-130166285D01*
X125026057Y-130166285D02*
X125121295Y-130118666D01*
X125121295Y-130118666D02*
X125264152Y-130118666D01*
X125264152Y-130118666D02*
X125359390Y-130166285D01*
X125359390Y-130166285D02*
X125407009Y-130213904D01*
X125407009Y-130213904D02*
X125454628Y-130309142D01*
X125454628Y-130309142D02*
X125454628Y-130690094D01*
X125930819Y-129166285D02*
X125930819Y-129737713D01*
X125930819Y-129451999D02*
X124930819Y-129451999D01*
X124930819Y-129451999D02*
X125073676Y-129547237D01*
X125073676Y-129547237D02*
X125168914Y-129642475D01*
X125168914Y-129642475D02*
X125216533Y-129737713D01*
X59656342Y-93373180D02*
X59608723Y-93420800D01*
X59608723Y-93420800D02*
X59465866Y-93468419D01*
X59465866Y-93468419D02*
X59370628Y-93468419D01*
X59370628Y-93468419D02*
X59227771Y-93420800D01*
X59227771Y-93420800D02*
X59132533Y-93325561D01*
X59132533Y-93325561D02*
X59084914Y-93230323D01*
X59084914Y-93230323D02*
X59037295Y-93039847D01*
X59037295Y-93039847D02*
X59037295Y-92896990D01*
X59037295Y-92896990D02*
X59084914Y-92706514D01*
X59084914Y-92706514D02*
X59132533Y-92611276D01*
X59132533Y-92611276D02*
X59227771Y-92516038D01*
X59227771Y-92516038D02*
X59370628Y-92468419D01*
X59370628Y-92468419D02*
X59465866Y-92468419D01*
X59465866Y-92468419D02*
X59608723Y-92516038D01*
X59608723Y-92516038D02*
X59656342Y-92563657D01*
X59989676Y-92468419D02*
X60608723Y-92468419D01*
X60608723Y-92468419D02*
X60275390Y-92849371D01*
X60275390Y-92849371D02*
X60418247Y-92849371D01*
X60418247Y-92849371D02*
X60513485Y-92896990D01*
X60513485Y-92896990D02*
X60561104Y-92944609D01*
X60561104Y-92944609D02*
X60608723Y-93039847D01*
X60608723Y-93039847D02*
X60608723Y-93277942D01*
X60608723Y-93277942D02*
X60561104Y-93373180D01*
X60561104Y-93373180D02*
X60513485Y-93420800D01*
X60513485Y-93420800D02*
X60418247Y-93468419D01*
X60418247Y-93468419D02*
X60132533Y-93468419D01*
X60132533Y-93468419D02*
X60037295Y-93420800D01*
X60037295Y-93420800D02*
X59989676Y-93373180D01*
X61465866Y-92801752D02*
X61465866Y-93468419D01*
X61227771Y-92420800D02*
X60989676Y-93135085D01*
X60989676Y-93135085D02*
X61608723Y-93135085D01*
X231833009Y-127547523D02*
X231833009Y-127880856D01*
X232356819Y-127880856D02*
X231356819Y-127880856D01*
X231356819Y-127880856D02*
X231356819Y-127404666D01*
X231833009Y-126690380D02*
X231880628Y-126547523D01*
X231880628Y-126547523D02*
X231928247Y-126499904D01*
X231928247Y-126499904D02*
X232023485Y-126452285D01*
X232023485Y-126452285D02*
X232166342Y-126452285D01*
X232166342Y-126452285D02*
X232261580Y-126499904D01*
X232261580Y-126499904D02*
X232309200Y-126547523D01*
X232309200Y-126547523D02*
X232356819Y-126642761D01*
X232356819Y-126642761D02*
X232356819Y-127023713D01*
X232356819Y-127023713D02*
X231356819Y-127023713D01*
X231356819Y-127023713D02*
X231356819Y-126690380D01*
X231356819Y-126690380D02*
X231404438Y-126595142D01*
X231404438Y-126595142D02*
X231452057Y-126547523D01*
X231452057Y-126547523D02*
X231547295Y-126499904D01*
X231547295Y-126499904D02*
X231642533Y-126499904D01*
X231642533Y-126499904D02*
X231737771Y-126547523D01*
X231737771Y-126547523D02*
X231785390Y-126595142D01*
X231785390Y-126595142D02*
X231833009Y-126690380D01*
X231833009Y-126690380D02*
X231833009Y-127023713D01*
X232356819Y-125499904D02*
X232356819Y-126071332D01*
X232356819Y-125785618D02*
X231356819Y-125785618D01*
X231356819Y-125785618D02*
X231499676Y-125880856D01*
X231499676Y-125880856D02*
X231594914Y-125976094D01*
X231594914Y-125976094D02*
X231642533Y-126071332D01*
X231356819Y-124642761D02*
X231356819Y-124833237D01*
X231356819Y-124833237D02*
X231404438Y-124928475D01*
X231404438Y-124928475D02*
X231452057Y-124976094D01*
X231452057Y-124976094D02*
X231594914Y-125071332D01*
X231594914Y-125071332D02*
X231785390Y-125118951D01*
X231785390Y-125118951D02*
X232166342Y-125118951D01*
X232166342Y-125118951D02*
X232261580Y-125071332D01*
X232261580Y-125071332D02*
X232309200Y-125023713D01*
X232309200Y-125023713D02*
X232356819Y-124928475D01*
X232356819Y-124928475D02*
X232356819Y-124737999D01*
X232356819Y-124737999D02*
X232309200Y-124642761D01*
X232309200Y-124642761D02*
X232261580Y-124595142D01*
X232261580Y-124595142D02*
X232166342Y-124547523D01*
X232166342Y-124547523D02*
X231928247Y-124547523D01*
X231928247Y-124547523D02*
X231833009Y-124595142D01*
X231833009Y-124595142D02*
X231785390Y-124642761D01*
X231785390Y-124642761D02*
X231737771Y-124737999D01*
X231737771Y-124737999D02*
X231737771Y-124928475D01*
X231737771Y-124928475D02*
X231785390Y-125023713D01*
X231785390Y-125023713D02*
X231833009Y-125071332D01*
X231833009Y-125071332D02*
X231928247Y-125118951D01*
D11*
X90857142Y-66457419D02*
X90380952Y-66457419D01*
X90380952Y-66457419D02*
X90380952Y-65457419D01*
X91142857Y-66409800D02*
X91285714Y-66457419D01*
X91285714Y-66457419D02*
X91523809Y-66457419D01*
X91523809Y-66457419D02*
X91619047Y-66409800D01*
X91619047Y-66409800D02*
X91666666Y-66362180D01*
X91666666Y-66362180D02*
X91714285Y-66266942D01*
X91714285Y-66266942D02*
X91714285Y-66171704D01*
X91714285Y-66171704D02*
X91666666Y-66076466D01*
X91666666Y-66076466D02*
X91619047Y-66028847D01*
X91619047Y-66028847D02*
X91523809Y-65981228D01*
X91523809Y-65981228D02*
X91333333Y-65933609D01*
X91333333Y-65933609D02*
X91238095Y-65885990D01*
X91238095Y-65885990D02*
X91190476Y-65838371D01*
X91190476Y-65838371D02*
X91142857Y-65743133D01*
X91142857Y-65743133D02*
X91142857Y-65647895D01*
X91142857Y-65647895D02*
X91190476Y-65552657D01*
X91190476Y-65552657D02*
X91238095Y-65505038D01*
X91238095Y-65505038D02*
X91333333Y-65457419D01*
X91333333Y-65457419D02*
X91571428Y-65457419D01*
X91571428Y-65457419D02*
X91714285Y-65505038D01*
X92095238Y-65552657D02*
X92142857Y-65505038D01*
X92142857Y-65505038D02*
X92238095Y-65457419D01*
X92238095Y-65457419D02*
X92476190Y-65457419D01*
X92476190Y-65457419D02*
X92571428Y-65505038D01*
X92571428Y-65505038D02*
X92619047Y-65552657D01*
X92619047Y-65552657D02*
X92666666Y-65647895D01*
X92666666Y-65647895D02*
X92666666Y-65743133D01*
X92666666Y-65743133D02*
X92619047Y-65885990D01*
X92619047Y-65885990D02*
X92047619Y-66457419D01*
X92047619Y-66457419D02*
X92666666Y-66457419D01*
D10*
X130118213Y-130705104D02*
X130070594Y-130752724D01*
X130070594Y-130752724D02*
X129927737Y-130800343D01*
X129927737Y-130800343D02*
X129832499Y-130800343D01*
X129832499Y-130800343D02*
X129689642Y-130752724D01*
X129689642Y-130752724D02*
X129594404Y-130657485D01*
X129594404Y-130657485D02*
X129546785Y-130562247D01*
X129546785Y-130562247D02*
X129499166Y-130371771D01*
X129499166Y-130371771D02*
X129499166Y-130228914D01*
X129499166Y-130228914D02*
X129546785Y-130038438D01*
X129546785Y-130038438D02*
X129594404Y-129943200D01*
X129594404Y-129943200D02*
X129689642Y-129847962D01*
X129689642Y-129847962D02*
X129832499Y-129800343D01*
X129832499Y-129800343D02*
X129927737Y-129800343D01*
X129927737Y-129800343D02*
X130070594Y-129847962D01*
X130070594Y-129847962D02*
X130118213Y-129895581D01*
X131070594Y-130800343D02*
X130499166Y-130800343D01*
X130784880Y-130800343D02*
X130784880Y-129800343D01*
X130784880Y-129800343D02*
X130689642Y-129943200D01*
X130689642Y-129943200D02*
X130594404Y-130038438D01*
X130594404Y-130038438D02*
X130499166Y-130086057D01*
X131403928Y-129800343D02*
X132022975Y-129800343D01*
X132022975Y-129800343D02*
X131689642Y-130181295D01*
X131689642Y-130181295D02*
X131832499Y-130181295D01*
X131832499Y-130181295D02*
X131927737Y-130228914D01*
X131927737Y-130228914D02*
X131975356Y-130276533D01*
X131975356Y-130276533D02*
X132022975Y-130371771D01*
X132022975Y-130371771D02*
X132022975Y-130609866D01*
X132022975Y-130609866D02*
X131975356Y-130705104D01*
X131975356Y-130705104D02*
X131927737Y-130752724D01*
X131927737Y-130752724D02*
X131832499Y-130800343D01*
X131832499Y-130800343D02*
X131546785Y-130800343D01*
X131546785Y-130800343D02*
X131451547Y-130752724D01*
X131451547Y-130752724D02*
X131403928Y-130705104D01*
X55883580Y-74602857D02*
X55931200Y-74650476D01*
X55931200Y-74650476D02*
X55978819Y-74793333D01*
X55978819Y-74793333D02*
X55978819Y-74888571D01*
X55978819Y-74888571D02*
X55931200Y-75031428D01*
X55931200Y-75031428D02*
X55835961Y-75126666D01*
X55835961Y-75126666D02*
X55740723Y-75174285D01*
X55740723Y-75174285D02*
X55550247Y-75221904D01*
X55550247Y-75221904D02*
X55407390Y-75221904D01*
X55407390Y-75221904D02*
X55216914Y-75174285D01*
X55216914Y-75174285D02*
X55121676Y-75126666D01*
X55121676Y-75126666D02*
X55026438Y-75031428D01*
X55026438Y-75031428D02*
X54978819Y-74888571D01*
X54978819Y-74888571D02*
X54978819Y-74793333D01*
X54978819Y-74793333D02*
X55026438Y-74650476D01*
X55026438Y-74650476D02*
X55074057Y-74602857D01*
X54978819Y-74269523D02*
X54978819Y-73650476D01*
X54978819Y-73650476D02*
X55359771Y-73983809D01*
X55359771Y-73983809D02*
X55359771Y-73840952D01*
X55359771Y-73840952D02*
X55407390Y-73745714D01*
X55407390Y-73745714D02*
X55455009Y-73698095D01*
X55455009Y-73698095D02*
X55550247Y-73650476D01*
X55550247Y-73650476D02*
X55788342Y-73650476D01*
X55788342Y-73650476D02*
X55883580Y-73698095D01*
X55883580Y-73698095D02*
X55931200Y-73745714D01*
X55931200Y-73745714D02*
X55978819Y-73840952D01*
X55978819Y-73840952D02*
X55978819Y-74126666D01*
X55978819Y-74126666D02*
X55931200Y-74221904D01*
X55931200Y-74221904D02*
X55883580Y-74269523D01*
X54978819Y-72745714D02*
X54978819Y-73221904D01*
X54978819Y-73221904D02*
X55455009Y-73269523D01*
X55455009Y-73269523D02*
X55407390Y-73221904D01*
X55407390Y-73221904D02*
X55359771Y-73126666D01*
X55359771Y-73126666D02*
X55359771Y-72888571D01*
X55359771Y-72888571D02*
X55407390Y-72793333D01*
X55407390Y-72793333D02*
X55455009Y-72745714D01*
X55455009Y-72745714D02*
X55550247Y-72698095D01*
X55550247Y-72698095D02*
X55788342Y-72698095D01*
X55788342Y-72698095D02*
X55883580Y-72745714D01*
X55883580Y-72745714D02*
X55931200Y-72793333D01*
X55931200Y-72793333D02*
X55978819Y-72888571D01*
X55978819Y-72888571D02*
X55978819Y-73126666D01*
X55978819Y-73126666D02*
X55931200Y-73221904D01*
X55931200Y-73221904D02*
X55883580Y-73269523D01*
X202607142Y-134647580D02*
X202559523Y-134695200D01*
X202559523Y-134695200D02*
X202416666Y-134742819D01*
X202416666Y-134742819D02*
X202321428Y-134742819D01*
X202321428Y-134742819D02*
X202178571Y-134695200D01*
X202178571Y-134695200D02*
X202083333Y-134599961D01*
X202083333Y-134599961D02*
X202035714Y-134504723D01*
X202035714Y-134504723D02*
X201988095Y-134314247D01*
X201988095Y-134314247D02*
X201988095Y-134171390D01*
X201988095Y-134171390D02*
X202035714Y-133980914D01*
X202035714Y-133980914D02*
X202083333Y-133885676D01*
X202083333Y-133885676D02*
X202178571Y-133790438D01*
X202178571Y-133790438D02*
X202321428Y-133742819D01*
X202321428Y-133742819D02*
X202416666Y-133742819D01*
X202416666Y-133742819D02*
X202559523Y-133790438D01*
X202559523Y-133790438D02*
X202607142Y-133838057D01*
X202988095Y-133838057D02*
X203035714Y-133790438D01*
X203035714Y-133790438D02*
X203130952Y-133742819D01*
X203130952Y-133742819D02*
X203369047Y-133742819D01*
X203369047Y-133742819D02*
X203464285Y-133790438D01*
X203464285Y-133790438D02*
X203511904Y-133838057D01*
X203511904Y-133838057D02*
X203559523Y-133933295D01*
X203559523Y-133933295D02*
X203559523Y-134028533D01*
X203559523Y-134028533D02*
X203511904Y-134171390D01*
X203511904Y-134171390D02*
X202940476Y-134742819D01*
X202940476Y-134742819D02*
X203559523Y-134742819D01*
X204130952Y-134171390D02*
X204035714Y-134123771D01*
X204035714Y-134123771D02*
X203988095Y-134076152D01*
X203988095Y-134076152D02*
X203940476Y-133980914D01*
X203940476Y-133980914D02*
X203940476Y-133933295D01*
X203940476Y-133933295D02*
X203988095Y-133838057D01*
X203988095Y-133838057D02*
X204035714Y-133790438D01*
X204035714Y-133790438D02*
X204130952Y-133742819D01*
X204130952Y-133742819D02*
X204321428Y-133742819D01*
X204321428Y-133742819D02*
X204416666Y-133790438D01*
X204416666Y-133790438D02*
X204464285Y-133838057D01*
X204464285Y-133838057D02*
X204511904Y-133933295D01*
X204511904Y-133933295D02*
X204511904Y-133980914D01*
X204511904Y-133980914D02*
X204464285Y-134076152D01*
X204464285Y-134076152D02*
X204416666Y-134123771D01*
X204416666Y-134123771D02*
X204321428Y-134171390D01*
X204321428Y-134171390D02*
X204130952Y-134171390D01*
X204130952Y-134171390D02*
X204035714Y-134219009D01*
X204035714Y-134219009D02*
X203988095Y-134266628D01*
X203988095Y-134266628D02*
X203940476Y-134361866D01*
X203940476Y-134361866D02*
X203940476Y-134552342D01*
X203940476Y-134552342D02*
X203988095Y-134647580D01*
X203988095Y-134647580D02*
X204035714Y-134695200D01*
X204035714Y-134695200D02*
X204130952Y-134742819D01*
X204130952Y-134742819D02*
X204321428Y-134742819D01*
X204321428Y-134742819D02*
X204416666Y-134695200D01*
X204416666Y-134695200D02*
X204464285Y-134647580D01*
X204464285Y-134647580D02*
X204511904Y-134552342D01*
X204511904Y-134552342D02*
X204511904Y-134361866D01*
X204511904Y-134361866D02*
X204464285Y-134266628D01*
X204464285Y-134266628D02*
X204416666Y-134219009D01*
X204416666Y-134219009D02*
X204321428Y-134171390D01*
X74851905Y-58158819D02*
X74851905Y-57158819D01*
X74851905Y-57158819D02*
X75090000Y-57158819D01*
X75090000Y-57158819D02*
X75232857Y-57206438D01*
X75232857Y-57206438D02*
X75328095Y-57301676D01*
X75328095Y-57301676D02*
X75375714Y-57396914D01*
X75375714Y-57396914D02*
X75423333Y-57587390D01*
X75423333Y-57587390D02*
X75423333Y-57730247D01*
X75423333Y-57730247D02*
X75375714Y-57920723D01*
X75375714Y-57920723D02*
X75328095Y-58015961D01*
X75328095Y-58015961D02*
X75232857Y-58111200D01*
X75232857Y-58111200D02*
X75090000Y-58158819D01*
X75090000Y-58158819D02*
X74851905Y-58158819D01*
X76375714Y-58158819D02*
X75804286Y-58158819D01*
X76090000Y-58158819D02*
X76090000Y-57158819D01*
X76090000Y-57158819D02*
X75994762Y-57301676D01*
X75994762Y-57301676D02*
X75899524Y-57396914D01*
X75899524Y-57396914D02*
X75804286Y-57444533D01*
D12*
X62283619Y-84088189D02*
X61283619Y-84088189D01*
X62188380Y-83040571D02*
X62236000Y-83088190D01*
X62236000Y-83088190D02*
X62283619Y-83231047D01*
X62283619Y-83231047D02*
X62283619Y-83326285D01*
X62283619Y-83326285D02*
X62236000Y-83469142D01*
X62236000Y-83469142D02*
X62140761Y-83564380D01*
X62140761Y-83564380D02*
X62045523Y-83611999D01*
X62045523Y-83611999D02*
X61855047Y-83659618D01*
X61855047Y-83659618D02*
X61712190Y-83659618D01*
X61712190Y-83659618D02*
X61521714Y-83611999D01*
X61521714Y-83611999D02*
X61426476Y-83564380D01*
X61426476Y-83564380D02*
X61331238Y-83469142D01*
X61331238Y-83469142D02*
X61283619Y-83326285D01*
X61283619Y-83326285D02*
X61283619Y-83231047D01*
X61283619Y-83231047D02*
X61331238Y-83088190D01*
X61331238Y-83088190D02*
X61378857Y-83040571D01*
X62283619Y-82088190D02*
X62283619Y-82659618D01*
X62283619Y-82373904D02*
X61283619Y-82373904D01*
X61283619Y-82373904D02*
X61426476Y-82469142D01*
X61426476Y-82469142D02*
X61521714Y-82564380D01*
X61521714Y-82564380D02*
X61569333Y-82659618D01*
D10*
X206163142Y-134647580D02*
X206115523Y-134695200D01*
X206115523Y-134695200D02*
X205972666Y-134742819D01*
X205972666Y-134742819D02*
X205877428Y-134742819D01*
X205877428Y-134742819D02*
X205734571Y-134695200D01*
X205734571Y-134695200D02*
X205639333Y-134599961D01*
X205639333Y-134599961D02*
X205591714Y-134504723D01*
X205591714Y-134504723D02*
X205544095Y-134314247D01*
X205544095Y-134314247D02*
X205544095Y-134171390D01*
X205544095Y-134171390D02*
X205591714Y-133980914D01*
X205591714Y-133980914D02*
X205639333Y-133885676D01*
X205639333Y-133885676D02*
X205734571Y-133790438D01*
X205734571Y-133790438D02*
X205877428Y-133742819D01*
X205877428Y-133742819D02*
X205972666Y-133742819D01*
X205972666Y-133742819D02*
X206115523Y-133790438D01*
X206115523Y-133790438D02*
X206163142Y-133838057D01*
X206544095Y-133838057D02*
X206591714Y-133790438D01*
X206591714Y-133790438D02*
X206686952Y-133742819D01*
X206686952Y-133742819D02*
X206925047Y-133742819D01*
X206925047Y-133742819D02*
X207020285Y-133790438D01*
X207020285Y-133790438D02*
X207067904Y-133838057D01*
X207067904Y-133838057D02*
X207115523Y-133933295D01*
X207115523Y-133933295D02*
X207115523Y-134028533D01*
X207115523Y-134028533D02*
X207067904Y-134171390D01*
X207067904Y-134171390D02*
X206496476Y-134742819D01*
X206496476Y-134742819D02*
X207115523Y-134742819D01*
X207448857Y-133742819D02*
X208115523Y-133742819D01*
X208115523Y-133742819D02*
X207686952Y-134742819D01*
X127222613Y-134616704D02*
X127174994Y-134664324D01*
X127174994Y-134664324D02*
X127032137Y-134711943D01*
X127032137Y-134711943D02*
X126936899Y-134711943D01*
X126936899Y-134711943D02*
X126794042Y-134664324D01*
X126794042Y-134664324D02*
X126698804Y-134569085D01*
X126698804Y-134569085D02*
X126651185Y-134473847D01*
X126651185Y-134473847D02*
X126603566Y-134283371D01*
X126603566Y-134283371D02*
X126603566Y-134140514D01*
X126603566Y-134140514D02*
X126651185Y-133950038D01*
X126651185Y-133950038D02*
X126698804Y-133854800D01*
X126698804Y-133854800D02*
X126794042Y-133759562D01*
X126794042Y-133759562D02*
X126936899Y-133711943D01*
X126936899Y-133711943D02*
X127032137Y-133711943D01*
X127032137Y-133711943D02*
X127174994Y-133759562D01*
X127174994Y-133759562D02*
X127222613Y-133807181D01*
X128174994Y-134711943D02*
X127603566Y-134711943D01*
X127889280Y-134711943D02*
X127889280Y-133711943D01*
X127889280Y-133711943D02*
X127794042Y-133854800D01*
X127794042Y-133854800D02*
X127698804Y-133950038D01*
X127698804Y-133950038D02*
X127603566Y-133997657D01*
X129032137Y-134045276D02*
X129032137Y-134711943D01*
X128794042Y-133664324D02*
X128555947Y-134378609D01*
X128555947Y-134378609D02*
X129174994Y-134378609D01*
X226179142Y-130915580D02*
X226131523Y-130963200D01*
X226131523Y-130963200D02*
X225988666Y-131010819D01*
X225988666Y-131010819D02*
X225893428Y-131010819D01*
X225893428Y-131010819D02*
X225750571Y-130963200D01*
X225750571Y-130963200D02*
X225655333Y-130867961D01*
X225655333Y-130867961D02*
X225607714Y-130772723D01*
X225607714Y-130772723D02*
X225560095Y-130582247D01*
X225560095Y-130582247D02*
X225560095Y-130439390D01*
X225560095Y-130439390D02*
X225607714Y-130248914D01*
X225607714Y-130248914D02*
X225655333Y-130153676D01*
X225655333Y-130153676D02*
X225750571Y-130058438D01*
X225750571Y-130058438D02*
X225893428Y-130010819D01*
X225893428Y-130010819D02*
X225988666Y-130010819D01*
X225988666Y-130010819D02*
X226131523Y-130058438D01*
X226131523Y-130058438D02*
X226179142Y-130106057D01*
X226560095Y-130106057D02*
X226607714Y-130058438D01*
X226607714Y-130058438D02*
X226702952Y-130010819D01*
X226702952Y-130010819D02*
X226941047Y-130010819D01*
X226941047Y-130010819D02*
X227036285Y-130058438D01*
X227036285Y-130058438D02*
X227083904Y-130106057D01*
X227083904Y-130106057D02*
X227131523Y-130201295D01*
X227131523Y-130201295D02*
X227131523Y-130296533D01*
X227131523Y-130296533D02*
X227083904Y-130439390D01*
X227083904Y-130439390D02*
X226512476Y-131010819D01*
X226512476Y-131010819D02*
X227131523Y-131010819D01*
X227607714Y-131010819D02*
X227798190Y-131010819D01*
X227798190Y-131010819D02*
X227893428Y-130963200D01*
X227893428Y-130963200D02*
X227941047Y-130915580D01*
X227941047Y-130915580D02*
X228036285Y-130772723D01*
X228036285Y-130772723D02*
X228083904Y-130582247D01*
X228083904Y-130582247D02*
X228083904Y-130201295D01*
X228083904Y-130201295D02*
X228036285Y-130106057D01*
X228036285Y-130106057D02*
X227988666Y-130058438D01*
X227988666Y-130058438D02*
X227893428Y-130010819D01*
X227893428Y-130010819D02*
X227702952Y-130010819D01*
X227702952Y-130010819D02*
X227607714Y-130058438D01*
X227607714Y-130058438D02*
X227560095Y-130106057D01*
X227560095Y-130106057D02*
X227512476Y-130201295D01*
X227512476Y-130201295D02*
X227512476Y-130439390D01*
X227512476Y-130439390D02*
X227560095Y-130534628D01*
X227560095Y-130534628D02*
X227607714Y-130582247D01*
X227607714Y-130582247D02*
X227702952Y-130629866D01*
X227702952Y-130629866D02*
X227893428Y-130629866D01*
X227893428Y-130629866D02*
X227988666Y-130582247D01*
X227988666Y-130582247D02*
X228036285Y-130534628D01*
X228036285Y-130534628D02*
X228083904Y-130439390D01*
X155448095Y-124422819D02*
X155448095Y-125232342D01*
X155448095Y-125232342D02*
X155495714Y-125327580D01*
X155495714Y-125327580D02*
X155543333Y-125375200D01*
X155543333Y-125375200D02*
X155638571Y-125422819D01*
X155638571Y-125422819D02*
X155829047Y-125422819D01*
X155829047Y-125422819D02*
X155924285Y-125375200D01*
X155924285Y-125375200D02*
X155971904Y-125327580D01*
X155971904Y-125327580D02*
X156019523Y-125232342D01*
X156019523Y-125232342D02*
X156019523Y-124422819D01*
X156924285Y-124422819D02*
X156733809Y-124422819D01*
X156733809Y-124422819D02*
X156638571Y-124470438D01*
X156638571Y-124470438D02*
X156590952Y-124518057D01*
X156590952Y-124518057D02*
X156495714Y-124660914D01*
X156495714Y-124660914D02*
X156448095Y-124851390D01*
X156448095Y-124851390D02*
X156448095Y-125232342D01*
X156448095Y-125232342D02*
X156495714Y-125327580D01*
X156495714Y-125327580D02*
X156543333Y-125375200D01*
X156543333Y-125375200D02*
X156638571Y-125422819D01*
X156638571Y-125422819D02*
X156829047Y-125422819D01*
X156829047Y-125422819D02*
X156924285Y-125375200D01*
X156924285Y-125375200D02*
X156971904Y-125327580D01*
X156971904Y-125327580D02*
X157019523Y-125232342D01*
X157019523Y-125232342D02*
X157019523Y-124994247D01*
X157019523Y-124994247D02*
X156971904Y-124899009D01*
X156971904Y-124899009D02*
X156924285Y-124851390D01*
X156924285Y-124851390D02*
X156829047Y-124803771D01*
X156829047Y-124803771D02*
X156638571Y-124803771D01*
X156638571Y-124803771D02*
X156543333Y-124851390D01*
X156543333Y-124851390D02*
X156495714Y-124899009D01*
X156495714Y-124899009D02*
X156448095Y-124994247D01*
X102838442Y-134138180D02*
X102790823Y-134185800D01*
X102790823Y-134185800D02*
X102647966Y-134233419D01*
X102647966Y-134233419D02*
X102552728Y-134233419D01*
X102552728Y-134233419D02*
X102409871Y-134185800D01*
X102409871Y-134185800D02*
X102314633Y-134090561D01*
X102314633Y-134090561D02*
X102267014Y-133995323D01*
X102267014Y-133995323D02*
X102219395Y-133804847D01*
X102219395Y-133804847D02*
X102219395Y-133661990D01*
X102219395Y-133661990D02*
X102267014Y-133471514D01*
X102267014Y-133471514D02*
X102314633Y-133376276D01*
X102314633Y-133376276D02*
X102409871Y-133281038D01*
X102409871Y-133281038D02*
X102552728Y-133233419D01*
X102552728Y-133233419D02*
X102647966Y-133233419D01*
X102647966Y-133233419D02*
X102790823Y-133281038D01*
X102790823Y-133281038D02*
X102838442Y-133328657D01*
X103790823Y-134233419D02*
X103219395Y-134233419D01*
X103505109Y-134233419D02*
X103505109Y-133233419D01*
X103505109Y-133233419D02*
X103409871Y-133376276D01*
X103409871Y-133376276D02*
X103314633Y-133471514D01*
X103314633Y-133471514D02*
X103219395Y-133519133D01*
X104409871Y-133233419D02*
X104505109Y-133233419D01*
X104505109Y-133233419D02*
X104600347Y-133281038D01*
X104600347Y-133281038D02*
X104647966Y-133328657D01*
X104647966Y-133328657D02*
X104695585Y-133423895D01*
X104695585Y-133423895D02*
X104743204Y-133614371D01*
X104743204Y-133614371D02*
X104743204Y-133852466D01*
X104743204Y-133852466D02*
X104695585Y-134042942D01*
X104695585Y-134042942D02*
X104647966Y-134138180D01*
X104647966Y-134138180D02*
X104600347Y-134185800D01*
X104600347Y-134185800D02*
X104505109Y-134233419D01*
X104505109Y-134233419D02*
X104409871Y-134233419D01*
X104409871Y-134233419D02*
X104314633Y-134185800D01*
X104314633Y-134185800D02*
X104267014Y-134138180D01*
X104267014Y-134138180D02*
X104219395Y-134042942D01*
X104219395Y-134042942D02*
X104171776Y-133852466D01*
X104171776Y-133852466D02*
X104171776Y-133614371D01*
X104171776Y-133614371D02*
X104219395Y-133423895D01*
X104219395Y-133423895D02*
X104267014Y-133328657D01*
X104267014Y-133328657D02*
X104314633Y-133281038D01*
X104314633Y-133281038D02*
X104409871Y-133233419D01*
X62132420Y-109529367D02*
X61656229Y-109862700D01*
X62132420Y-110100795D02*
X61132420Y-110100795D01*
X61132420Y-110100795D02*
X61132420Y-109719843D01*
X61132420Y-109719843D02*
X61180039Y-109624605D01*
X61180039Y-109624605D02*
X61227658Y-109576986D01*
X61227658Y-109576986D02*
X61322896Y-109529367D01*
X61322896Y-109529367D02*
X61465753Y-109529367D01*
X61465753Y-109529367D02*
X61560991Y-109576986D01*
X61560991Y-109576986D02*
X61608610Y-109624605D01*
X61608610Y-109624605D02*
X61656229Y-109719843D01*
X61656229Y-109719843D02*
X61656229Y-110100795D01*
X62132420Y-108576986D02*
X62132420Y-109148414D01*
X62132420Y-108862700D02*
X61132420Y-108862700D01*
X61132420Y-108862700D02*
X61275277Y-108957938D01*
X61275277Y-108957938D02*
X61370515Y-109053176D01*
X61370515Y-109053176D02*
X61418134Y-109148414D01*
X61132420Y-107672224D02*
X61132420Y-108148414D01*
X61132420Y-108148414D02*
X61608610Y-108196033D01*
X61608610Y-108196033D02*
X61560991Y-108148414D01*
X61560991Y-108148414D02*
X61513372Y-108053176D01*
X61513372Y-108053176D02*
X61513372Y-107815081D01*
X61513372Y-107815081D02*
X61560991Y-107719843D01*
X61560991Y-107719843D02*
X61608610Y-107672224D01*
X61608610Y-107672224D02*
X61703848Y-107624605D01*
X61703848Y-107624605D02*
X61941943Y-107624605D01*
X61941943Y-107624605D02*
X62037181Y-107672224D01*
X62037181Y-107672224D02*
X62084801Y-107719843D01*
X62084801Y-107719843D02*
X62132420Y-107815081D01*
X62132420Y-107815081D02*
X62132420Y-108053176D01*
X62132420Y-108053176D02*
X62084801Y-108148414D01*
X62084801Y-108148414D02*
X62037181Y-108196033D01*
D13*
%TO.C,C24*%
X180577252Y-131853000D02*
X180054748Y-131853000D01*
X180577252Y-133323000D02*
X180054748Y-133323000D01*
%TO.C,R13*%
X57052400Y-77836664D02*
X57052400Y-76382536D01*
X58872400Y-77836664D02*
X58872400Y-76382536D01*
D11*
%TO.C,LS8*%
X226430000Y-85210000D02*
X226430000Y-104710000D01*
X240430000Y-85210000D02*
X240430000Y-104710000D01*
X221930000Y-54210000D02*
X234130000Y-54210000D01*
X234130000Y-66710000D01*
X221930000Y-66710000D01*
X221930000Y-54210000D01*
X221930000Y-66710000D02*
X244930000Y-66710000D01*
X244930000Y-124210000D01*
X221930000Y-124210000D01*
X221930000Y-66710000D01*
X232730000Y-124210000D02*
X244930000Y-124210000D01*
X244930000Y-136710000D01*
X232730000Y-136710000D01*
X232730000Y-124210000D01*
X226430000Y-85210000D02*
G75*
G02*
X240430000Y-85210000I7000000J0D01*
G01*
X240430000Y-104710000D02*
G75*
G02*
X226430000Y-104710000I-7000000J0D01*
G01*
X231030000Y-59210000D02*
G75*
G02*
X225030000Y-59210000I-3000000J0D01*
G01*
X225030000Y-59210000D02*
G75*
G02*
X231030000Y-59210000I3000000J0D01*
G01*
X235430000Y-71710000D02*
G75*
G02*
X231430000Y-71710000I-2000000J0D01*
G01*
X231430000Y-71710000D02*
G75*
G02*
X235430000Y-71710000I2000000J0D01*
G01*
X241930000Y-131710000D02*
G75*
G02*
X235930000Y-131710000I-3000000J0D01*
G01*
X235930000Y-131710000D02*
G75*
G02*
X241930000Y-131710000I3000000J0D01*
G01*
D13*
%TO.C,C11*%
X111584748Y-131775000D02*
X112107252Y-131775000D01*
X111584748Y-133245000D02*
X112107252Y-133245000D01*
%TO.C,R12*%
X55477600Y-81056136D02*
X55477600Y-82510264D01*
X57297600Y-81056136D02*
X57297600Y-82510264D01*
%TO.C,C9*%
X103757252Y-129175000D02*
X103234748Y-129175000D01*
X103757252Y-130645000D02*
X103234748Y-130645000D01*
%TO.C,R9*%
X68772936Y-58090000D02*
X70227064Y-58090000D01*
X68772936Y-59910000D02*
X70227064Y-59910000D01*
%TO.C,C25*%
X200003252Y-130044000D02*
X199480748Y-130044000D01*
X200003252Y-131514000D02*
X199480748Y-131514000D01*
%TO.C,U3*%
X79702500Y-125608500D02*
X79702500Y-125373500D01*
X79702500Y-128353500D02*
X79702500Y-127878500D01*
X80177500Y-125133500D02*
X80002500Y-125133500D01*
X80177500Y-128353500D02*
X79702500Y-128353500D01*
X82447500Y-125133500D02*
X82922500Y-125133500D01*
X82447500Y-128353500D02*
X82922500Y-128353500D01*
X82922500Y-125133500D02*
X82922500Y-125608500D01*
X82922500Y-128353500D02*
X82922500Y-127878500D01*
X79702500Y-125133500D02*
X79462500Y-124803500D01*
X79942500Y-124803500D01*
X79702500Y-125133500D01*
G36*
X79702500Y-125133500D02*
G01*
X79462500Y-124803500D01*
X79942500Y-124803500D01*
X79702500Y-125133500D01*
G37*
D11*
%TO.C,LS6*%
X178421429Y-85250000D02*
X178421429Y-104750000D01*
X192421429Y-85250000D02*
X192421429Y-104750000D01*
X173921429Y-54250000D02*
X186121429Y-54250000D01*
X186121429Y-66750000D01*
X173921429Y-66750000D01*
X173921429Y-54250000D01*
X173921429Y-66750000D02*
X196921429Y-66750000D01*
X196921429Y-124250000D01*
X173921429Y-124250000D01*
X173921429Y-66750000D01*
X184721429Y-124250000D02*
X196921429Y-124250000D01*
X196921429Y-136750000D01*
X184721429Y-136750000D01*
X184721429Y-124250000D01*
X178421429Y-85250000D02*
G75*
G02*
X192421429Y-85250000I7000000J0D01*
G01*
X192421429Y-104750000D02*
G75*
G02*
X178421429Y-104750000I-7000000J0D01*
G01*
X183021429Y-59250000D02*
G75*
G02*
X177021429Y-59250000I-3000000J0D01*
G01*
X177021429Y-59250000D02*
G75*
G02*
X183021429Y-59250000I3000000J0D01*
G01*
X187421429Y-71750000D02*
G75*
G02*
X183421429Y-71750000I-2000000J0D01*
G01*
X183421429Y-71750000D02*
G75*
G02*
X187421429Y-71750000I2000000J0D01*
G01*
X193921429Y-131750000D02*
G75*
G02*
X187921429Y-131750000I-3000000J0D01*
G01*
X187921429Y-131750000D02*
G75*
G02*
X193921429Y-131750000I3000000J0D01*
G01*
D13*
%TO.C,C16*%
X132596823Y-131853000D02*
X132074319Y-131853000D01*
X132596823Y-133323000D02*
X132074319Y-133323000D01*
%TO.C,C30*%
X224133252Y-132629000D02*
X223610748Y-132629000D01*
X224133252Y-134099000D02*
X223610748Y-134099000D01*
%TO.C,C5*%
X79961252Y-129258500D02*
X79438748Y-129258500D01*
X79961252Y-130728500D02*
X79438748Y-130728500D01*
D11*
%TO.C,LS3*%
X106408571Y-85250000D02*
X106408571Y-104750000D01*
X120408571Y-85250000D02*
X120408571Y-104750000D01*
X101908571Y-54250000D02*
X114108571Y-54250000D01*
X114108571Y-66750000D01*
X101908571Y-66750000D01*
X101908571Y-54250000D01*
X101908571Y-66750000D02*
X124908571Y-66750000D01*
X124908571Y-124250000D01*
X101908571Y-124250000D01*
X101908571Y-66750000D01*
X112708571Y-124250000D02*
X124908571Y-124250000D01*
X124908571Y-136750000D01*
X112708571Y-136750000D01*
X112708571Y-124250000D01*
X106408571Y-85250000D02*
G75*
G02*
X120408571Y-85250000I7000000J0D01*
G01*
X120408571Y-104750000D02*
G75*
G02*
X106408571Y-104750000I-7000000J0D01*
G01*
X111008571Y-59250000D02*
G75*
G02*
X105008571Y-59250000I-3000000J0D01*
G01*
X105008571Y-59250000D02*
G75*
G02*
X111008571Y-59250000I3000000J0D01*
G01*
X115408571Y-71750000D02*
G75*
G02*
X111408571Y-71750000I-2000000J0D01*
G01*
X111408571Y-71750000D02*
G75*
G02*
X115408571Y-71750000I2000000J0D01*
G01*
X121908571Y-131750000D02*
G75*
G02*
X115908571Y-131750000I-3000000J0D01*
G01*
X115908571Y-131750000D02*
G75*
G02*
X121908571Y-131750000I3000000J0D01*
G01*
D13*
%TO.C,C37*%
X55608601Y-112578034D02*
X55608601Y-112055530D01*
X57078601Y-112578034D02*
X57078601Y-112055530D01*
%TO.C,R14*%
X59751601Y-98581584D02*
X59751601Y-100035712D01*
X61571601Y-98581584D02*
X61571601Y-100035712D01*
%TO.C,R10*%
X59592400Y-76382536D02*
X59592400Y-77836664D01*
X61412400Y-76382536D02*
X61412400Y-77836664D01*
%TO.C,C15*%
X135974319Y-131853000D02*
X136496823Y-131853000D01*
X135974319Y-133323000D02*
X136496823Y-133323000D01*
%TO.C,C8*%
X84411252Y-131858500D02*
X83888748Y-131858500D01*
X84411252Y-133328500D02*
X83888748Y-133328500D01*
%TO.C,U5*%
X127888071Y-125603000D02*
X127888071Y-125368000D01*
X127888071Y-128348000D02*
X127888071Y-127873000D01*
X128363071Y-125128000D02*
X128188071Y-125128000D01*
X128363071Y-128348000D02*
X127888071Y-128348000D01*
X130633071Y-125128000D02*
X131108071Y-125128000D01*
X130633071Y-128348000D02*
X131108071Y-128348000D01*
X131108071Y-125128000D02*
X131108071Y-125603000D01*
X131108071Y-128348000D02*
X131108071Y-127873000D01*
X127888071Y-125128000D02*
X127648071Y-124798000D01*
X128128071Y-124798000D01*
X127888071Y-125128000D01*
G36*
X127888071Y-125128000D02*
G01*
X127648071Y-124798000D01*
X128128071Y-124798000D01*
X127888071Y-125128000D01*
G37*
%TO.C,C12*%
X108207252Y-131775000D02*
X107684748Y-131775000D01*
X108207252Y-133245000D02*
X107684748Y-133245000D01*
%TO.C,U8*%
X199744500Y-125603000D02*
X199744500Y-125368000D01*
X199744500Y-128348000D02*
X199744500Y-127873000D01*
X200219500Y-125128000D02*
X200044500Y-125128000D01*
X200219500Y-128348000D02*
X199744500Y-128348000D01*
X202489500Y-125128000D02*
X202964500Y-125128000D01*
X202489500Y-128348000D02*
X202964500Y-128348000D01*
X202964500Y-125128000D02*
X202964500Y-125603000D01*
X202964500Y-128348000D02*
X202964500Y-127873000D01*
X199744500Y-125128000D02*
X199504500Y-124798000D01*
X199984500Y-124798000D01*
X199744500Y-125128000D01*
G36*
X199744500Y-125128000D02*
G01*
X199504500Y-124798000D01*
X199984500Y-124798000D01*
X199744500Y-125128000D01*
G37*
%TO.C,C6*%
X79961252Y-131558500D02*
X79438748Y-131558500D01*
X79961252Y-133028500D02*
X79438748Y-133028500D01*
%TO.C,C18*%
X151997252Y-132121000D02*
X151474748Y-132121000D01*
X151997252Y-133591000D02*
X151474748Y-133591000D01*
%TO.C,FB3*%
X84190000Y-129293878D02*
X84190000Y-130093122D01*
X85310000Y-129293878D02*
X85310000Y-130093122D01*
%TO.C,FB8*%
X134875571Y-129250878D02*
X134875571Y-130050122D01*
X135995571Y-129250878D02*
X135995571Y-130050122D01*
%TO.C,R5*%
X196956000Y-136178936D02*
X196956000Y-137633064D01*
X198776000Y-136178936D02*
X198776000Y-137633064D01*
%TO.C,R6*%
X196956000Y-126272936D02*
X196956000Y-127727064D01*
X198776000Y-126272936D02*
X198776000Y-127727064D01*
%TO.C,FB12*%
X182856000Y-129250878D02*
X182856000Y-130050122D01*
X183976000Y-129250878D02*
X183976000Y-130050122D01*
%TO.C,R7*%
X220832000Y-136178936D02*
X220832000Y-137633064D01*
X222652000Y-136178936D02*
X222652000Y-137633064D01*
%TO.C,U2*%
X56560000Y-127072400D02*
X56560000Y-126837400D01*
X56560000Y-129817400D02*
X56560000Y-129342400D01*
X57035000Y-126597400D02*
X56860000Y-126597400D01*
X57035000Y-129817400D02*
X56560000Y-129817400D01*
X59305000Y-126597400D02*
X59780000Y-126597400D01*
X59305000Y-129817400D02*
X59780000Y-129817400D01*
X59780000Y-126597400D02*
X59780000Y-127072400D01*
X59780000Y-129817400D02*
X59780000Y-129342400D01*
X56560000Y-126597400D02*
X56320000Y-126267400D01*
X56800000Y-126267400D01*
X56560000Y-126597400D01*
G36*
X56560000Y-126597400D02*
G01*
X56320000Y-126267400D01*
X56800000Y-126267400D01*
X56560000Y-126597400D01*
G37*
%TO.C,R3*%
X173080000Y-137633064D02*
X173080000Y-136178936D01*
X174900000Y-137633064D02*
X174900000Y-136178936D01*
%TO.C,C39*%
X54826069Y-99224798D02*
X54826069Y-99747302D01*
X56296069Y-99224798D02*
X56296069Y-99747302D01*
%TO.C,C7*%
X87788748Y-131858500D02*
X88311252Y-131858500D01*
X87788748Y-133328500D02*
X88311252Y-133328500D01*
%TO.C,FB9*%
X156226000Y-129288378D02*
X156226000Y-130087622D01*
X157346000Y-129288378D02*
X157346000Y-130087622D01*
%TO.C,FB7*%
X132375571Y-129288378D02*
X132375571Y-130087622D01*
X133495571Y-129288378D02*
X133495571Y-130087622D01*
%TO.C,C36*%
X55652600Y-86347252D02*
X55652600Y-85824748D01*
X57122600Y-86347252D02*
X57122600Y-85824748D01*
D14*
%TO.C,IC2*%
X57891601Y-103942155D02*
X60891601Y-103942155D01*
X57891601Y-107642155D02*
X57891601Y-103942155D01*
X60891601Y-103942155D02*
X60891601Y-107642155D01*
X60891601Y-107642155D02*
X57891601Y-107642155D01*
X60941601Y-102117155D02*
X60941601Y-103592155D01*
D11*
%TO.C,LS4*%
X130412857Y-85250000D02*
X130412857Y-104750000D01*
X144412857Y-85250000D02*
X144412857Y-104750000D01*
X125912857Y-54250000D02*
X138112857Y-54250000D01*
X138112857Y-66750000D01*
X125912857Y-66750000D01*
X125912857Y-54250000D01*
X125912857Y-66750000D02*
X148912857Y-66750000D01*
X148912857Y-124250000D01*
X125912857Y-124250000D01*
X125912857Y-66750000D01*
X136712857Y-124250000D02*
X148912857Y-124250000D01*
X148912857Y-136750000D01*
X136712857Y-136750000D01*
X136712857Y-124250000D01*
X130412857Y-85250000D02*
G75*
G02*
X144412857Y-85250000I7000000J0D01*
G01*
X144412857Y-104750000D02*
G75*
G02*
X130412857Y-104750000I-7000000J0D01*
G01*
X135012857Y-59250000D02*
G75*
G02*
X129012857Y-59250000I-3000000J0D01*
G01*
X129012857Y-59250000D02*
G75*
G02*
X135012857Y-59250000I3000000J0D01*
G01*
X139412857Y-71750000D02*
G75*
G02*
X135412857Y-71750000I-2000000J0D01*
G01*
X135412857Y-71750000D02*
G75*
G02*
X139412857Y-71750000I2000000J0D01*
G01*
X145912857Y-131750000D02*
G75*
G02*
X139912857Y-131750000I-3000000J0D01*
G01*
X139912857Y-131750000D02*
G75*
G02*
X145912857Y-131750000I3000000J0D01*
G01*
D13*
%TO.C,C38*%
X60465653Y-112885701D02*
X59943149Y-112885701D01*
X60465653Y-114355701D02*
X59943149Y-114355701D01*
D11*
%TO.C,LS1*%
X58400000Y-85250000D02*
X58400000Y-104750000D01*
X72400000Y-85250000D02*
X72400000Y-104750000D01*
X53900000Y-54250000D02*
X66100000Y-54250000D01*
X66100000Y-66750000D01*
X53900000Y-66750000D01*
X53900000Y-54250000D01*
X53900000Y-66750000D02*
X76900000Y-66750000D01*
X76900000Y-124250000D01*
X53900000Y-124250000D01*
X53900000Y-66750000D01*
X64700000Y-124250000D02*
X76900000Y-124250000D01*
X76900000Y-136750000D01*
X64700000Y-136750000D01*
X64700000Y-124250000D01*
X58400000Y-85250000D02*
G75*
G02*
X72400000Y-85250000I7000000J0D01*
G01*
X72400000Y-104750000D02*
G75*
G02*
X58400000Y-104750000I-7000000J0D01*
G01*
X63000000Y-59250000D02*
G75*
G02*
X57000000Y-59250000I-3000000J0D01*
G01*
X57000000Y-59250000D02*
G75*
G02*
X63000000Y-59250000I3000000J0D01*
G01*
X67400000Y-71750000D02*
G75*
G02*
X63400000Y-71750000I-2000000J0D01*
G01*
X63400000Y-71750000D02*
G75*
G02*
X67400000Y-71750000I2000000J0D01*
G01*
X73900000Y-131750000D02*
G75*
G02*
X67900000Y-131750000I-3000000J0D01*
G01*
X67900000Y-131750000D02*
G75*
G02*
X73900000Y-131750000I3000000J0D01*
G01*
D13*
%TO.C,R2*%
X148696000Y-126272936D02*
X148696000Y-127727064D01*
X150516000Y-126272936D02*
X150516000Y-127727064D01*
%TO.C,U9*%
X223874500Y-125603000D02*
X223874500Y-125368000D01*
X223874500Y-128348000D02*
X223874500Y-127873000D01*
X224349500Y-125128000D02*
X224174500Y-125128000D01*
X224349500Y-128348000D02*
X223874500Y-128348000D01*
X226619500Y-125128000D02*
X227094500Y-125128000D01*
X226619500Y-128348000D02*
X227094500Y-128348000D01*
X227094500Y-125128000D02*
X227094500Y-125603000D01*
X227094500Y-128348000D02*
X227094500Y-127873000D01*
X223874500Y-125128000D02*
X223634500Y-124798000D01*
X224114500Y-124798000D01*
X223874500Y-125128000D01*
G36*
X223874500Y-125128000D02*
G01*
X223634500Y-124798000D01*
X224114500Y-124798000D01*
X223874500Y-125128000D01*
G37*
%TO.C,C26*%
X200003252Y-132344000D02*
X199480748Y-132344000D01*
X200003252Y-133814000D02*
X199480748Y-133814000D01*
%TO.C,FB14*%
X206732000Y-129250878D02*
X206732000Y-130050122D01*
X207852000Y-129250878D02*
X207852000Y-130050122D01*
%TO.C,FB4*%
X86690000Y-129256378D02*
X86690000Y-130055622D01*
X87810000Y-129256378D02*
X87810000Y-130055622D01*
%TO.C,C31*%
X231960748Y-131853000D02*
X232483252Y-131853000D01*
X231960748Y-133323000D02*
X232483252Y-133323000D01*
%TO.C,FB5*%
X107986000Y-129210378D02*
X107986000Y-130009622D01*
X109106000Y-129210378D02*
X109106000Y-130009622D01*
D11*
%TO.C,LS7*%
X202425714Y-85250000D02*
X202425714Y-104750000D01*
X216425714Y-85250000D02*
X216425714Y-104750000D01*
X197925714Y-54250000D02*
X210125714Y-54250000D01*
X210125714Y-66750000D01*
X197925714Y-66750000D01*
X197925714Y-54250000D01*
X197925714Y-66750000D02*
X220925714Y-66750000D01*
X220925714Y-124250000D01*
X197925714Y-124250000D01*
X197925714Y-66750000D01*
X208725714Y-124250000D02*
X220925714Y-124250000D01*
X220925714Y-136750000D01*
X208725714Y-136750000D01*
X208725714Y-124250000D01*
X202425714Y-85250000D02*
G75*
G02*
X216425714Y-85250000I7000000J0D01*
G01*
X216425714Y-104750000D02*
G75*
G02*
X202425714Y-104750000I-7000000J0D01*
G01*
X207025714Y-59250000D02*
G75*
G02*
X201025714Y-59250000I-3000000J0D01*
G01*
X201025714Y-59250000D02*
G75*
G02*
X207025714Y-59250000I3000000J0D01*
G01*
X211425714Y-71750000D02*
G75*
G02*
X207425714Y-71750000I-2000000J0D01*
G01*
X207425714Y-71750000D02*
G75*
G02*
X211425714Y-71750000I2000000J0D01*
G01*
X217925714Y-131750000D02*
G75*
G02*
X211925714Y-131750000I-3000000J0D01*
G01*
X211925714Y-131750000D02*
G75*
G02*
X217925714Y-131750000I3000000J0D01*
G01*
D13*
%TO.C,FB6*%
X110486000Y-129172878D02*
X110486000Y-129972122D01*
X111606000Y-129172878D02*
X111606000Y-129972122D01*
%TO.C,C33*%
X55652600Y-90157252D02*
X55652600Y-89634748D01*
X57122600Y-90157252D02*
X57122600Y-89634748D01*
%TO.C,C22*%
X176127252Y-132575000D02*
X175604748Y-132575000D01*
X176127252Y-134045000D02*
X175604748Y-134045000D01*
%TO.C,C40*%
X55557801Y-108534756D02*
X55557801Y-108012252D01*
X57027801Y-108534756D02*
X57027801Y-108012252D01*
%TO.C,C23*%
X183954748Y-131853000D02*
X184477252Y-131853000D01*
X183954748Y-133323000D02*
X184477252Y-133323000D01*
%TO.C,FB11*%
X180356000Y-129288378D02*
X180356000Y-130087622D01*
X181476000Y-129288378D02*
X181476000Y-130087622D01*
%TO.C,FB13*%
X204232000Y-129288378D02*
X204232000Y-130087622D01*
X205352000Y-129288378D02*
X205352000Y-130087622D01*
%TO.C,R17*%
X57211601Y-99961574D02*
X57211601Y-98507446D01*
X59031601Y-99961574D02*
X59031601Y-98507446D01*
%TO.C,R16*%
X55452672Y-103189387D02*
X55452672Y-104643515D01*
X57272672Y-103189387D02*
X57272672Y-104643515D01*
%TO.C,C32*%
X228583252Y-131853000D02*
X228060748Y-131853000D01*
X228583252Y-133323000D02*
X228060748Y-133323000D01*
%TO.C,R8*%
X221086000Y-127727064D02*
X221086000Y-126272936D01*
X222906000Y-127727064D02*
X222906000Y-126272936D01*
%TO.C,C2*%
X56818752Y-133022400D02*
X56296248Y-133022400D01*
X56818752Y-134492400D02*
X56296248Y-134492400D01*
%TO.C,U7*%
X175868500Y-125603000D02*
X175868500Y-125368000D01*
X175868500Y-128348000D02*
X175868500Y-127873000D01*
X176343500Y-125128000D02*
X176168500Y-125128000D01*
X176343500Y-128348000D02*
X175868500Y-128348000D01*
X178613500Y-125128000D02*
X179088500Y-125128000D01*
X178613500Y-128348000D02*
X179088500Y-128348000D01*
X179088500Y-125128000D02*
X179088500Y-125603000D01*
X179088500Y-128348000D02*
X179088500Y-127873000D01*
X175868500Y-125128000D02*
X175628500Y-124798000D01*
X176108500Y-124798000D01*
X175868500Y-125128000D01*
G36*
X175868500Y-125128000D02*
G01*
X175628500Y-124798000D01*
X176108500Y-124798000D01*
X175868500Y-125128000D01*
G37*
%TO.C,C3*%
X64646248Y-133322400D02*
X65168752Y-133322400D01*
X64646248Y-134792400D02*
X65168752Y-134792400D01*
%TO.C,FB15*%
X228362000Y-129288378D02*
X228362000Y-130087622D01*
X229482000Y-129288378D02*
X229482000Y-130087622D01*
%TO.C,C17*%
X151997252Y-129821000D02*
X151474748Y-129821000D01*
X151997252Y-131291000D02*
X151474748Y-131291000D01*
%TO.C,C21*%
X176127252Y-130275000D02*
X175604748Y-130275000D01*
X176127252Y-131745000D02*
X175604748Y-131745000D01*
%TO.C,C19*%
X159824748Y-131853000D02*
X160347252Y-131853000D01*
X159824748Y-133323000D02*
X160347252Y-133323000D01*
%TO.C,C20*%
X156447252Y-131853000D02*
X155924748Y-131853000D01*
X156447252Y-133323000D02*
X155924748Y-133323000D01*
%TO.C,FB1*%
X61047500Y-130757778D02*
X61047500Y-131557022D01*
X62167500Y-130757778D02*
X62167500Y-131557022D01*
%TO.C,U4*%
X103498500Y-125525000D02*
X103498500Y-125290000D01*
X103498500Y-128270000D02*
X103498500Y-127795000D01*
X103973500Y-125050000D02*
X103798500Y-125050000D01*
X103973500Y-128270000D02*
X103498500Y-128270000D01*
X106243500Y-125050000D02*
X106718500Y-125050000D01*
X106243500Y-128270000D02*
X106718500Y-128270000D01*
X106718500Y-125050000D02*
X106718500Y-125525000D01*
X106718500Y-128270000D02*
X106718500Y-127795000D01*
X103498500Y-125050000D02*
X103258500Y-124720000D01*
X103738500Y-124720000D01*
X103498500Y-125050000D01*
G36*
X103498500Y-125050000D02*
G01*
X103258500Y-124720000D01*
X103738500Y-124720000D01*
X103498500Y-125050000D01*
G37*
%TO.C,FB2*%
X63547500Y-130720278D02*
X63547500Y-131519522D01*
X64667500Y-130720278D02*
X64667500Y-131519522D01*
D11*
%TO.C,LS5*%
X154417143Y-85250000D02*
X154417143Y-104750000D01*
X168417143Y-85250000D02*
X168417143Y-104750000D01*
X149917143Y-54250000D02*
X162117143Y-54250000D01*
X162117143Y-66750000D01*
X149917143Y-66750000D01*
X149917143Y-54250000D01*
X149917143Y-66750000D02*
X172917143Y-66750000D01*
X172917143Y-124250000D01*
X149917143Y-124250000D01*
X149917143Y-66750000D01*
X160717143Y-124250000D02*
X172917143Y-124250000D01*
X172917143Y-136750000D01*
X160717143Y-136750000D01*
X160717143Y-124250000D01*
X154417143Y-85250000D02*
G75*
G02*
X168417143Y-85250000I7000000J0D01*
G01*
X168417143Y-104750000D02*
G75*
G02*
X154417143Y-104750000I-7000000J0D01*
G01*
X159017143Y-59250000D02*
G75*
G02*
X153017143Y-59250000I-3000000J0D01*
G01*
X153017143Y-59250000D02*
G75*
G02*
X159017143Y-59250000I3000000J0D01*
G01*
X163417143Y-71750000D02*
G75*
G02*
X159417143Y-71750000I-2000000J0D01*
G01*
X159417143Y-71750000D02*
G75*
G02*
X163417143Y-71750000I2000000J0D01*
G01*
X169917143Y-131750000D02*
G75*
G02*
X163917143Y-131750000I-3000000J0D01*
G01*
X163917143Y-131750000D02*
G75*
G02*
X169917143Y-131750000I3000000J0D01*
G01*
D13*
%TO.C,C1*%
X56818752Y-130722400D02*
X56296248Y-130722400D01*
X56818752Y-132192400D02*
X56296248Y-132192400D01*
%TO.C,FB10*%
X158726000Y-129250878D02*
X158726000Y-130050122D01*
X159846000Y-129250878D02*
X159846000Y-130050122D01*
%TO.C,R11*%
X60933005Y-88124909D02*
X59478877Y-88124909D01*
X60933005Y-89944909D02*
X59478877Y-89944909D01*
%TO.C,R4*%
X173080000Y-126272936D02*
X173080000Y-127727064D01*
X174900000Y-126272936D02*
X174900000Y-127727064D01*
%TO.C,C4*%
X60746248Y-133322400D02*
X61268752Y-133322400D01*
X60746248Y-134792400D02*
X61268752Y-134792400D01*
%TO.C,R1*%
X124398071Y-126018936D02*
X124398071Y-127473064D01*
X126218071Y-126018936D02*
X126218071Y-127473064D01*
%TO.C,J3*%
X237730000Y-69140000D02*
X237730000Y-67870000D01*
%TO.C,C34*%
X60560452Y-90598600D02*
X60037948Y-90598600D01*
X60560452Y-92068600D02*
X60037948Y-92068600D01*
%TO.C,FB16*%
X230862000Y-129250878D02*
X230862000Y-130050122D01*
X231982000Y-129250878D02*
X231982000Y-130050122D01*
D11*
%TO.C,LS2*%
X82404286Y-85250000D02*
X82404286Y-104750000D01*
X96404286Y-85250000D02*
X96404286Y-104750000D01*
X77904286Y-54250000D02*
X90104286Y-54250000D01*
X90104286Y-66750000D01*
X77904286Y-66750000D01*
X77904286Y-54250000D01*
X77904286Y-66750000D02*
X100904286Y-66750000D01*
X100904286Y-124250000D01*
X77904286Y-124250000D01*
X77904286Y-66750000D01*
X88704286Y-124250000D02*
X100904286Y-124250000D01*
X100904286Y-136750000D01*
X88704286Y-136750000D01*
X88704286Y-124250000D01*
X82404286Y-85250000D02*
G75*
G02*
X96404286Y-85250000I7000000J0D01*
G01*
X96404286Y-104750000D02*
G75*
G02*
X82404286Y-104750000I-7000000J0D01*
G01*
X87004286Y-59250000D02*
G75*
G02*
X81004286Y-59250000I-3000000J0D01*
G01*
X81004286Y-59250000D02*
G75*
G02*
X87004286Y-59250000I3000000J0D01*
G01*
X91404286Y-71750000D02*
G75*
G02*
X87404286Y-71750000I-2000000J0D01*
G01*
X87404286Y-71750000D02*
G75*
G02*
X91404286Y-71750000I2000000J0D01*
G01*
X97904286Y-131750000D02*
G75*
G02*
X91904286Y-131750000I-3000000J0D01*
G01*
X91904286Y-131750000D02*
G75*
G02*
X97904286Y-131750000I3000000J0D01*
G01*
D13*
%TO.C,C13*%
X128146823Y-129495924D02*
X127624319Y-129495924D01*
X128146823Y-130965924D02*
X127624319Y-130965924D01*
%TO.C,C35*%
X54789000Y-76848348D02*
X54789000Y-77370852D01*
X56259000Y-76848348D02*
X56259000Y-77370852D01*
%TO.C,C28*%
X204453252Y-131853000D02*
X203930748Y-131853000D01*
X204453252Y-133323000D02*
X203930748Y-133323000D01*
%TO.C,D1*%
X74536000Y-59963000D02*
X76821000Y-59963000D01*
X76821000Y-58493000D02*
X74536000Y-58493000D01*
X76821000Y-59963000D02*
X76821000Y-58493000D01*
D14*
%TO.C,IC1*%
X57834000Y-81762000D02*
X60834000Y-81762000D01*
X57834000Y-85462000D02*
X57834000Y-81762000D01*
X60834000Y-81762000D02*
X60834000Y-85462000D01*
X60834000Y-85462000D02*
X57834000Y-85462000D01*
X60884000Y-79937000D02*
X60884000Y-81412000D01*
D13*
%TO.C,C27*%
X207830748Y-131853000D02*
X208353252Y-131853000D01*
X207830748Y-133323000D02*
X208353252Y-133323000D01*
%TO.C,C14*%
X128146823Y-131795924D02*
X127624319Y-131795924D01*
X128146823Y-133265924D02*
X127624319Y-133265924D01*
%TO.C,C29*%
X224133252Y-130329000D02*
X223610748Y-130329000D01*
X224133252Y-131799000D02*
X223610748Y-131799000D01*
%TO.C,U6*%
X151738500Y-125603000D02*
X151738500Y-125368000D01*
X151738500Y-128348000D02*
X151738500Y-127873000D01*
X152213500Y-125128000D02*
X152038500Y-125128000D01*
X152213500Y-128348000D02*
X151738500Y-128348000D01*
X154483500Y-125128000D02*
X154958500Y-125128000D01*
X154483500Y-128348000D02*
X154958500Y-128348000D01*
X154958500Y-125128000D02*
X154958500Y-125603000D01*
X154958500Y-128348000D02*
X154958500Y-127873000D01*
X151738500Y-125128000D02*
X151498500Y-124798000D01*
X151978500Y-124798000D01*
X151738500Y-125128000D01*
G36*
X151738500Y-125128000D02*
G01*
X151498500Y-124798000D01*
X151978500Y-124798000D01*
X151738500Y-125128000D01*
G37*
%TO.C,C10*%
X103757252Y-131475000D02*
X103234748Y-131475000D01*
X103757252Y-132945000D02*
X103234748Y-132945000D01*
%TO.C,R15*%
X60880665Y-110505993D02*
X59426537Y-110505993D01*
X60880665Y-112325993D02*
X59426537Y-112325993D01*
%TD*%
%LPC*%
D15*
%TO.C,C24*%
X181266000Y-132588000D03*
X179366000Y-132588000D03*
%TD*%
D16*
%TO.C,R13*%
X57962400Y-78572100D03*
X57962400Y-75647100D03*
%TD*%
D17*
%TO.C,*%
X57150000Y-122174000D03*
%TD*%
%TO.C,LS8*%
X228030000Y-59210000D03*
X238930000Y-131710000D03*
D18*
X226430000Y-136210000D03*
D19*
X228930000Y-136210000D03*
%TD*%
D17*
%TO.C,*%
X65783122Y-122211958D03*
%TD*%
D20*
%TO.C,C11*%
X110896000Y-132510000D03*
X112796000Y-132510000D03*
%TD*%
D21*
%TO.C,R12*%
X56387600Y-80320700D03*
X56387600Y-83245700D03*
%TD*%
D15*
%TO.C,C9*%
X104446000Y-129910000D03*
X102546000Y-129910000D03*
%TD*%
D22*
%TO.C,R9*%
X68037500Y-59000000D03*
X70962500Y-59000000D03*
%TD*%
D15*
%TO.C,C25*%
X200692000Y-130779000D03*
X198792000Y-130779000D03*
%TD*%
D23*
%TO.C,U3*%
X79875000Y-125993500D03*
X79875000Y-126493500D03*
X79875000Y-126993500D03*
X79875000Y-127493500D03*
D24*
X80562500Y-128181000D03*
X81062500Y-128181000D03*
X81562500Y-128181000D03*
X82062500Y-128181000D03*
D23*
X82750000Y-127493500D03*
X82750000Y-126993500D03*
X82750000Y-126493500D03*
X82750000Y-125993500D03*
D24*
X82062500Y-125306000D03*
X81562500Y-125306000D03*
X81062500Y-125306000D03*
X80562500Y-125306000D03*
D25*
X81312500Y-126743500D03*
%TD*%
D17*
%TO.C,LS6*%
X180021429Y-59250000D03*
X190921429Y-131750000D03*
D18*
X178421429Y-136250000D03*
D19*
X180921429Y-136250000D03*
%TD*%
D15*
%TO.C,C16*%
X133285571Y-132588000D03*
X131385571Y-132588000D03*
%TD*%
%TO.C,C30*%
X224822000Y-133364000D03*
X222922000Y-133364000D03*
%TD*%
%TO.C,C5*%
X80650000Y-129993500D03*
X78750000Y-129993500D03*
%TD*%
D17*
%TO.C,LS3*%
X108008571Y-59250000D03*
X118908571Y-131750000D03*
D18*
X106408571Y-136250000D03*
D19*
X108908571Y-136250000D03*
%TD*%
D26*
%TO.C,C37*%
X56343601Y-113266782D03*
X56343601Y-111366782D03*
%TD*%
D21*
%TO.C,R14*%
X60661601Y-97846148D03*
X60661601Y-100771148D03*
%TD*%
%TO.C,R10*%
X60502400Y-75647100D03*
X60502400Y-78572100D03*
%TD*%
D20*
%TO.C,C15*%
X135285571Y-132588000D03*
X137185571Y-132588000D03*
%TD*%
D15*
%TO.C,C8*%
X85100000Y-132593500D03*
X83200000Y-132593500D03*
%TD*%
D23*
%TO.C,U5*%
X128060571Y-125988000D03*
X128060571Y-126488000D03*
X128060571Y-126988000D03*
X128060571Y-127488000D03*
D24*
X128748071Y-128175500D03*
X129248071Y-128175500D03*
X129748071Y-128175500D03*
X130248071Y-128175500D03*
D23*
X130935571Y-127488000D03*
X130935571Y-126988000D03*
X130935571Y-126488000D03*
X130935571Y-125988000D03*
D24*
X130248071Y-125300500D03*
X129748071Y-125300500D03*
X129248071Y-125300500D03*
X128748071Y-125300500D03*
D25*
X129498071Y-126738000D03*
%TD*%
D15*
%TO.C,C12*%
X108896000Y-132510000D03*
X106996000Y-132510000D03*
%TD*%
D23*
%TO.C,U8*%
X199917000Y-125988000D03*
X199917000Y-126488000D03*
X199917000Y-126988000D03*
X199917000Y-127488000D03*
D24*
X200604500Y-128175500D03*
X201104500Y-128175500D03*
X201604500Y-128175500D03*
X202104500Y-128175500D03*
D23*
X202792000Y-127488000D03*
X202792000Y-126988000D03*
X202792000Y-126488000D03*
X202792000Y-125988000D03*
D24*
X202104500Y-125300500D03*
X201604500Y-125300500D03*
X201104500Y-125300500D03*
X200604500Y-125300500D03*
D25*
X201354500Y-126738000D03*
%TD*%
D15*
%TO.C,C6*%
X80650000Y-132293500D03*
X78750000Y-132293500D03*
%TD*%
%TO.C,C18*%
X152686000Y-132856000D03*
X150786000Y-132856000D03*
%TD*%
D27*
%TO.C,FB3*%
X84750000Y-128631000D03*
X84750000Y-130756000D03*
%TD*%
%TO.C,FB8*%
X135435571Y-128588000D03*
X135435571Y-130713000D03*
%TD*%
D21*
%TO.C,R5*%
X197866000Y-135443500D03*
X197866000Y-138368500D03*
%TD*%
%TO.C,R6*%
X197866000Y-125537500D03*
X197866000Y-128462500D03*
%TD*%
D27*
%TO.C,FB12*%
X183416000Y-128588000D03*
X183416000Y-130713000D03*
%TD*%
D17*
%TO.C,*%
X65807380Y-64200386D03*
%TD*%
D21*
%TO.C,R7*%
X221742000Y-135443500D03*
X221742000Y-138368500D03*
%TD*%
D23*
%TO.C,U2*%
X56732500Y-127457400D03*
X56732500Y-127957400D03*
X56732500Y-128457400D03*
X56732500Y-128957400D03*
D24*
X57420000Y-129644900D03*
X57920000Y-129644900D03*
X58420000Y-129644900D03*
X58920000Y-129644900D03*
D23*
X59607500Y-128957400D03*
X59607500Y-128457400D03*
X59607500Y-127957400D03*
X59607500Y-127457400D03*
D24*
X58920000Y-126769900D03*
X58420000Y-126769900D03*
X57920000Y-126769900D03*
X57420000Y-126769900D03*
D25*
X58170000Y-128207400D03*
%TD*%
D16*
%TO.C,R3*%
X173990000Y-138368500D03*
X173990000Y-135443500D03*
%TD*%
D28*
%TO.C,C39*%
X55561069Y-98536050D03*
X55561069Y-100436050D03*
%TD*%
D20*
%TO.C,C7*%
X87100000Y-132593500D03*
X89000000Y-132593500D03*
%TD*%
D27*
%TO.C,FB9*%
X156786000Y-128625500D03*
X156786000Y-130750500D03*
%TD*%
%TO.C,FB7*%
X132935571Y-128625500D03*
X132935571Y-130750500D03*
%TD*%
D26*
%TO.C,C36*%
X56387600Y-87036000D03*
X56387600Y-85136000D03*
%TD*%
D29*
%TO.C,IC2*%
X60366601Y-102854155D03*
X59716601Y-102854155D03*
X59066601Y-102854155D03*
X58416601Y-102854155D03*
X58416601Y-108730155D03*
X59066601Y-108730155D03*
X59716601Y-108730155D03*
X60366601Y-108730155D03*
%TD*%
D17*
%TO.C,LS4*%
X132012857Y-59250000D03*
X142912857Y-131750000D03*
D18*
X130412857Y-136250000D03*
D19*
X132912857Y-136250000D03*
%TD*%
D15*
%TO.C,C38*%
X61154401Y-113620701D03*
X59254401Y-113620701D03*
%TD*%
D17*
%TO.C,LS1*%
X60000000Y-59250000D03*
X70900000Y-131750000D03*
D18*
X58400000Y-136250000D03*
D19*
X60900000Y-136250000D03*
%TD*%
D21*
%TO.C,R2*%
X149606000Y-125537500D03*
X149606000Y-128462500D03*
%TD*%
D23*
%TO.C,U9*%
X224047000Y-125988000D03*
X224047000Y-126488000D03*
X224047000Y-126988000D03*
X224047000Y-127488000D03*
D24*
X224734500Y-128175500D03*
X225234500Y-128175500D03*
X225734500Y-128175500D03*
X226234500Y-128175500D03*
D23*
X226922000Y-127488000D03*
X226922000Y-126988000D03*
X226922000Y-126488000D03*
X226922000Y-125988000D03*
D24*
X226234500Y-125300500D03*
X225734500Y-125300500D03*
X225234500Y-125300500D03*
X224734500Y-125300500D03*
D25*
X225484500Y-126738000D03*
%TD*%
D15*
%TO.C,C26*%
X200692000Y-133079000D03*
X198792000Y-133079000D03*
%TD*%
D27*
%TO.C,FB14*%
X207292000Y-128588000D03*
X207292000Y-130713000D03*
%TD*%
%TO.C,FB4*%
X87250000Y-128593500D03*
X87250000Y-130718500D03*
%TD*%
D20*
%TO.C,C31*%
X231272000Y-132588000D03*
X233172000Y-132588000D03*
%TD*%
D27*
%TO.C,FB5*%
X108546000Y-128547500D03*
X108546000Y-130672500D03*
%TD*%
D17*
%TO.C,LS7*%
X204025714Y-59250000D03*
X214925714Y-131750000D03*
D18*
X202425714Y-136250000D03*
D19*
X204925714Y-136250000D03*
%TD*%
D27*
%TO.C,FB6*%
X111046000Y-128510000D03*
X111046000Y-130635000D03*
%TD*%
D26*
%TO.C,C33*%
X56387600Y-90846000D03*
X56387600Y-88946000D03*
%TD*%
D15*
%TO.C,C22*%
X176816000Y-133310000D03*
X174916000Y-133310000D03*
%TD*%
D26*
%TO.C,C40*%
X56292801Y-109223504D03*
X56292801Y-107323504D03*
%TD*%
D20*
%TO.C,C23*%
X183266000Y-132588000D03*
X185166000Y-132588000D03*
%TD*%
D27*
%TO.C,FB11*%
X180916000Y-128625500D03*
X180916000Y-130750500D03*
%TD*%
%TO.C,FB13*%
X204792000Y-128625500D03*
X204792000Y-130750500D03*
%TD*%
D16*
%TO.C,R17*%
X58121601Y-100697010D03*
X58121601Y-97772010D03*
%TD*%
D21*
%TO.C,R16*%
X56362672Y-102453951D03*
X56362672Y-105378951D03*
%TD*%
D15*
%TO.C,C32*%
X229272000Y-132588000D03*
X227372000Y-132588000D03*
%TD*%
D16*
%TO.C,R8*%
X221996000Y-128462500D03*
X221996000Y-125537500D03*
%TD*%
D15*
%TO.C,C2*%
X57507500Y-133757400D03*
X55607500Y-133757400D03*
%TD*%
D23*
%TO.C,U7*%
X176041000Y-125988000D03*
X176041000Y-126488000D03*
X176041000Y-126988000D03*
X176041000Y-127488000D03*
D24*
X176728500Y-128175500D03*
X177228500Y-128175500D03*
X177728500Y-128175500D03*
X178228500Y-128175500D03*
D23*
X178916000Y-127488000D03*
X178916000Y-126988000D03*
X178916000Y-126488000D03*
X178916000Y-125988000D03*
D24*
X178228500Y-125300500D03*
X177728500Y-125300500D03*
X177228500Y-125300500D03*
X176728500Y-125300500D03*
D25*
X177478500Y-126738000D03*
%TD*%
D20*
%TO.C,C3*%
X63957500Y-134057400D03*
X65857500Y-134057400D03*
%TD*%
D17*
%TO.C,*%
X57150000Y-64212518D03*
%TD*%
D27*
%TO.C,FB15*%
X228922000Y-128625500D03*
X228922000Y-130750500D03*
%TD*%
D15*
%TO.C,C17*%
X152686000Y-130556000D03*
X150786000Y-130556000D03*
%TD*%
%TO.C,C21*%
X176816000Y-131010000D03*
X174916000Y-131010000D03*
%TD*%
D20*
%TO.C,C19*%
X159136000Y-132588000D03*
X161036000Y-132588000D03*
%TD*%
D15*
%TO.C,C20*%
X157136000Y-132588000D03*
X155236000Y-132588000D03*
%TD*%
D18*
%TO.C,J2*%
X66635765Y-69120000D03*
D19*
X64095765Y-69120000D03*
X66635765Y-71660000D03*
X64095765Y-71660000D03*
X66635765Y-74200000D03*
X64095765Y-74200000D03*
X66635765Y-76740000D03*
X64095765Y-76740000D03*
X66635765Y-79280000D03*
X64095765Y-79280000D03*
X66635765Y-81820000D03*
X64095765Y-81820000D03*
X66635765Y-84360000D03*
X64095765Y-84360000D03*
X66635765Y-86900000D03*
X64095765Y-86900000D03*
X66635765Y-89440000D03*
X64095765Y-89440000D03*
X66635765Y-91980000D03*
X64095765Y-91980000D03*
X66635765Y-94520000D03*
X64095765Y-94520000D03*
X66635765Y-97060000D03*
X64095765Y-97060000D03*
X66635765Y-99600000D03*
X64095765Y-99600000D03*
X66635765Y-102140000D03*
X64095765Y-102140000D03*
X66635765Y-104680000D03*
X64095765Y-104680000D03*
X66635765Y-107220000D03*
X64095765Y-107220000D03*
X66635765Y-109760000D03*
X64095765Y-109760000D03*
X66635765Y-112300000D03*
X64095765Y-112300000D03*
X66635765Y-114840000D03*
X64095765Y-114840000D03*
X66635765Y-117380000D03*
X64095765Y-117380000D03*
%TD*%
D27*
%TO.C,FB1*%
X61607500Y-130094900D03*
X61607500Y-132219900D03*
%TD*%
D23*
%TO.C,U4*%
X103671000Y-125910000D03*
X103671000Y-126410000D03*
X103671000Y-126910000D03*
X103671000Y-127410000D03*
D24*
X104358500Y-128097500D03*
X104858500Y-128097500D03*
X105358500Y-128097500D03*
X105858500Y-128097500D03*
D23*
X106546000Y-127410000D03*
X106546000Y-126910000D03*
X106546000Y-126410000D03*
X106546000Y-125910000D03*
D24*
X105858500Y-125222500D03*
X105358500Y-125222500D03*
X104858500Y-125222500D03*
X104358500Y-125222500D03*
D25*
X105108500Y-126660000D03*
%TD*%
D27*
%TO.C,FB2*%
X64107500Y-130057400D03*
X64107500Y-132182400D03*
%TD*%
D17*
%TO.C,LS5*%
X156017143Y-59250000D03*
X166917143Y-131750000D03*
D18*
X154417143Y-136250000D03*
D19*
X156917143Y-136250000D03*
%TD*%
D15*
%TO.C,C1*%
X57507500Y-131457400D03*
X55607500Y-131457400D03*
%TD*%
D27*
%TO.C,FB10*%
X159286000Y-128588000D03*
X159286000Y-130713000D03*
%TD*%
D30*
%TO.C,R11*%
X61668441Y-89034909D03*
X58743441Y-89034909D03*
%TD*%
D21*
%TO.C,R4*%
X173990000Y-125537500D03*
X173990000Y-128462500D03*
%TD*%
D20*
%TO.C,C4*%
X60057500Y-134057400D03*
X61957500Y-134057400D03*
%TD*%
D21*
%TO.C,R1*%
X125308071Y-125283500D03*
X125308071Y-128208500D03*
%TD*%
D18*
%TO.C,J3*%
X239000000Y-69140000D03*
D17*
X240270000Y-64314000D03*
X240270000Y-122293503D03*
D19*
X241540000Y-69140000D03*
X239000000Y-71680000D03*
X241540000Y-71680000D03*
X239000000Y-74220000D03*
X241540000Y-74220000D03*
X239000000Y-76760000D03*
X241540000Y-76760000D03*
X239000000Y-79300000D03*
X241540000Y-79300000D03*
X239000000Y-81840000D03*
X241540000Y-81840000D03*
X239000000Y-84380000D03*
X241540000Y-84380000D03*
X239000000Y-86920000D03*
X241540000Y-86920000D03*
X239000000Y-89460000D03*
X241540000Y-89460000D03*
X239000000Y-92000000D03*
X241540000Y-92000000D03*
X239000000Y-94540000D03*
X241540000Y-94540000D03*
X239000000Y-97080000D03*
X241540000Y-97080000D03*
X239000000Y-99620000D03*
X241540000Y-99620000D03*
X239000000Y-102160000D03*
X241540000Y-102160000D03*
X239000000Y-104700000D03*
X241540000Y-104700000D03*
X239000000Y-107240000D03*
X241540000Y-107240000D03*
X239000000Y-109780000D03*
X241540000Y-109780000D03*
X239000000Y-112320000D03*
X241540000Y-112320000D03*
X239000000Y-114860000D03*
X241540000Y-114860000D03*
X239000000Y-117400000D03*
X241540000Y-117400000D03*
%TD*%
D15*
%TO.C,C34*%
X61249200Y-91333600D03*
X59349200Y-91333600D03*
%TD*%
D27*
%TO.C,FB16*%
X231422000Y-128588000D03*
X231422000Y-130713000D03*
%TD*%
D17*
%TO.C,LS2*%
X84004286Y-59250000D03*
X94904286Y-131750000D03*
D18*
X82404286Y-136250000D03*
D19*
X84904286Y-136250000D03*
%TD*%
D15*
%TO.C,C13*%
X128835571Y-130230924D03*
X126935571Y-130230924D03*
%TD*%
D28*
%TO.C,C35*%
X55524000Y-76159600D03*
X55524000Y-78059600D03*
%TD*%
D15*
%TO.C,C28*%
X205142000Y-132588000D03*
X203242000Y-132588000D03*
%TD*%
D31*
%TO.C,D1*%
X76123500Y-59228000D03*
X74548500Y-59228000D03*
%TD*%
D29*
%TO.C,IC1*%
X60309000Y-80674000D03*
X59659000Y-80674000D03*
X59009000Y-80674000D03*
X58359000Y-80674000D03*
X58359000Y-86550000D03*
X59009000Y-86550000D03*
X59659000Y-86550000D03*
X60309000Y-86550000D03*
%TD*%
D20*
%TO.C,C27*%
X207142000Y-132588000D03*
X209042000Y-132588000D03*
%TD*%
D15*
%TO.C,C14*%
X128835571Y-132530924D03*
X126935571Y-132530924D03*
%TD*%
%TO.C,C29*%
X224822000Y-131064000D03*
X222922000Y-131064000D03*
%TD*%
D23*
%TO.C,U6*%
X151911000Y-125988000D03*
X151911000Y-126488000D03*
X151911000Y-126988000D03*
X151911000Y-127488000D03*
D24*
X152598500Y-128175500D03*
X153098500Y-128175500D03*
X153598500Y-128175500D03*
X154098500Y-128175500D03*
D23*
X154786000Y-127488000D03*
X154786000Y-126988000D03*
X154786000Y-126488000D03*
X154786000Y-125988000D03*
D24*
X154098500Y-125300500D03*
X153598500Y-125300500D03*
X153098500Y-125300500D03*
X152598500Y-125300500D03*
D25*
X153348500Y-126738000D03*
%TD*%
D15*
%TO.C,C10*%
X104446000Y-132210000D03*
X102546000Y-132210000D03*
%TD*%
D30*
%TO.C,R15*%
X61616101Y-111415993D03*
X58691101Y-111415993D03*
%TD*%
D18*
%TO.C,J4*%
X241751000Y-54361000D03*
D19*
X241751000Y-51821000D03*
%TD*%
D18*
%TO.C,J1*%
X64090000Y-54386000D03*
D19*
X64090000Y-51846000D03*
%TD*%
%LPD*%
M02*
