M48
; DRILL file {KiCad 9.0.8-9.0.8~ubuntu24.04.1} date 2026-04-28T17:03:29+0200
; FORMAT={-:-/ absolute / metric / decimal}
; #@! TF.CreationDate,2026-04-28T17:03:29+02:00
; #@! TF.GenerationSoftware,Kicad,Pcbnew,9.0.8-9.0.8~ubuntu24.04.1
; #@! TF.FileFunction,MixedPlating,1,4
FMAT,2
METRIC
; #@! TA.AperFunction,Plated,PTH,ViaDrill
T1C0.300
; #@! TA.AperFunction,Plated,PTH,ComponentDrill
T2C1.000
; #@! TA.AperFunction,Plated,PTH,ComponentDrill
T3C3.200
%
G90
G05
T1
X54.8Y-87.168
X55.016Y-89.2
X55.102Y-130.073
X55.107Y-128.457
X55.524Y-74.468
X55.524Y-110.536
X55.585Y-129.286
X55.626Y-127.453
X56.032Y-97.328
X56.032Y-110.028
X56.057Y-135.257
X56.54Y-73.452
X57.048Y-95.804
X57.556Y-81.58
X57.556Y-91.74
X57.556Y-103.932
X57.566Y-79.635
X58.069Y-125.767
X58.801Y-133.858
X58.938Y-131.064
X59.552Y-124.724
X59.588Y-94.28
X59.685Y-126.0
X60.873Y-116.245
X60.883Y-127.833
X61.62Y-74.585
X61.62Y-92.756
X62.636Y-113.076
X62.865Y-132.969
X63.017Y-127.935
X65.43Y-132.634
X68.224Y-74.468
X68.732Y-72.395
X76.352Y-60.244
X78.501Y-126.124
X79.125Y-127.954
X79.2Y-133.793
X79.781Y-124.071
X79.781Y-128.57
X80.7Y-133.793
X81.062Y-124.368
X82.35Y-130.993
X83.25Y-125.25
X84.026Y-126.369
X88.798Y-130.87
X102.046Y-126.91
X102.389Y-128.191
X102.996Y-133.71
X103.378Y-124.206
X104.496Y-133.71
X104.858Y-124.206
X106.146Y-130.91
X107.5Y-125.25
X107.822Y-126.286
X112.42Y-130.856
X125.755Y-65.465
X127.058Y-126.988
X127.103Y-127.842
X127.386Y-133.788
X127.508Y-124.206
X128.778Y-124.206
X128.886Y-133.788
X130.302Y-75.707
X130.536Y-130.988
X131.75Y-125.25
X132.211Y-126.364
X133.604Y-80.839
X137.033Y-85.972
X137.308Y-130.927
X140.335Y-92.815
X143.764Y-96.236
X147.218Y-97.969
X150.368Y-127.0
X150.495Y-94.525
X151.236Y-134.266
X151.384Y-128.778
X151.892Y-124.46
X152.736Y-134.266
X152.934Y-124.071
X153.924Y-91.104
X154.386Y-130.988
X155.625Y-125.125
X156.062Y-126.364
X157.226Y-87.682
X160.528Y-82.55
X161.036Y-130.588
X164.084Y-77.418
X167.386Y-73.996
X170.942Y-127.762
X172.006Y-69.013
X173.482Y-133.858
X173.736Y-133.096
X174.117Y-72.285
X174.244Y-126.988
X175.133Y-129.159
X175.768Y-124.714
X175.768Y-128.524
X176.301Y-129.167
X176.575Y-134.81
X177.038Y-124.325
X177.546Y-79.128
X178.516Y-130.988
X180.0Y-125.25
X180.192Y-126.364
X180.975Y-84.261
X184.15Y-89.393
X185.291Y-131.013
X187.579Y-99.658
X191.008Y-108.211
X194.335Y-115.077
X195.834Y-137.922
X196.85Y-133.858
X197.612Y-131.826
X197.739Y-118.486
X197.866Y-133.35
X198.12Y-127.4
X198.595Y-129.374
X199.39Y-129.286
X199.898Y-124.46
X199.898Y-131.826
X201.066Y-121.92
X201.168Y-124.206
X202.438Y-134.874
X203.25Y-124.25
X203.962Y-125.73
X204.47Y-120.187
X205.477Y-126.135
X207.899Y-116.765
X209.042Y-130.838
X211.201Y-113.344
X214.63Y-109.922
X217.932Y-106.501
X219.71Y-137.922
X221.488Y-103.079
X221.75Y-129.75
X222.037Y-134.239
X222.25Y-127.0
X223.012Y-127.508
X223.372Y-134.864
X223.774Y-124.071
X224.79Y-101.368
X224.872Y-134.864
X225.234Y-124.206
X226.522Y-130.988
X228.0Y-124.5
X228.109Y-104.77
X228.198Y-126.364
X231.521Y-111.633
X233.472Y-130.838
X234.848Y-123.25
T2
X58.4Y-136.25
X60.9Y-136.25
X64.09Y-51.846
X64.09Y-54.386
X64.096Y-69.12
X64.096Y-71.66
X64.096Y-74.2
X64.096Y-76.74
X64.096Y-79.28
X64.096Y-81.82
X64.096Y-84.36
X64.096Y-86.9
X64.096Y-89.44
X64.096Y-91.98
X64.096Y-94.52
X64.096Y-97.06
X64.096Y-99.6
X64.096Y-102.14
X64.096Y-104.68
X64.096Y-107.22
X64.096Y-109.76
X64.096Y-112.3
X64.096Y-114.84
X64.096Y-117.38
X66.636Y-69.12
X66.636Y-71.66
X66.636Y-74.2
X66.636Y-76.74
X66.636Y-79.28
X66.636Y-81.82
X66.636Y-84.36
X66.636Y-86.9
X66.636Y-89.44
X66.636Y-91.98
X66.636Y-94.52
X66.636Y-97.06
X66.636Y-99.6
X66.636Y-102.14
X66.636Y-104.68
X66.636Y-107.22
X66.636Y-109.76
X66.636Y-112.3
X66.636Y-114.84
X66.636Y-117.38
X82.404Y-136.25
X84.904Y-136.25
X106.409Y-136.25
X108.909Y-136.25
X130.413Y-136.25
X132.913Y-136.25
X154.417Y-136.25
X156.917Y-136.25
X178.421Y-136.25
X180.921Y-136.25
X202.426Y-136.25
X204.926Y-136.25
X226.43Y-136.21
X228.93Y-136.21
X239.0Y-69.14
X239.0Y-71.68
X239.0Y-74.22
X239.0Y-76.76
X239.0Y-79.3
X239.0Y-81.84
X239.0Y-84.38
X239.0Y-86.92
X239.0Y-89.46
X239.0Y-92.0
X239.0Y-94.54
X239.0Y-97.08
X239.0Y-99.62
X239.0Y-102.16
X239.0Y-104.7
X239.0Y-107.24
X239.0Y-109.78
X239.0Y-112.32
X239.0Y-114.86
X239.0Y-117.4
X241.54Y-69.14
X241.54Y-71.68
X241.54Y-74.22
X241.54Y-76.76
X241.54Y-79.3
X241.54Y-81.84
X241.54Y-84.38
X241.54Y-86.92
X241.54Y-89.46
X241.54Y-92.0
X241.54Y-94.54
X241.54Y-97.08
X241.54Y-99.62
X241.54Y-102.16
X241.54Y-104.7
X241.54Y-107.24
X241.54Y-109.78
X241.54Y-112.32
X241.54Y-114.86
X241.54Y-117.4
X241.751Y-51.821
X241.751Y-54.361
T3
X57.15Y-64.213
X57.15Y-122.174
X60.0Y-59.25
X65.783Y-122.212
X65.807Y-64.2
X70.9Y-131.75
X84.004Y-59.25
X94.904Y-131.75
X108.009Y-59.25
X118.909Y-131.75
X132.013Y-59.25
X142.913Y-131.75
X156.017Y-59.25
X166.917Y-131.75
X180.021Y-59.25
X190.921Y-131.75
X204.026Y-59.25
X214.926Y-131.75
X228.03Y-59.21
X238.93Y-131.71
X240.27Y-64.314
X240.27Y-122.294
M30
