%TF.GenerationSoftware,KiCad,Pcbnew,9.0.8-9.0.8~ubuntu24.04.1*%
%TF.CreationDate,2026-04-28T17:03:27+02:00*%
%TF.ProjectId,TheLine,5468654c-696e-4652-9e6b-696361645f70,rev?*%
%TF.SameCoordinates,Original*%
%TF.FileFunction,Paste,Top*%
%TF.FilePolarity,Positive*%
%FSLAX46Y46*%
G04 Gerber Fmt 4.6, Leading zero omitted, Abs format (unit mm)*
G04 Created by KiCad (PCBNEW 9.0.8-9.0.8~ubuntu24.04.1) date 2026-04-28 17:03:27*
%MOMM*%
%LPD*%
G01*
G04 APERTURE LIST*
G04 Aperture macros list*
%AMRoundRect*
0 Rectangle with rounded corners*
0 $1 Rounding radius*
0 $2 $3 $4 $5 $6 $7 $8 $9 X,Y pos of 4 corners*
0 Add a 4 corners polygon primitive as box body*
4,1,4,$2,$3,$4,$5,$6,$7,$8,$9,$2,$3,0*
0 Add four circle primitives for the rounded corners*
1,1,$1+$1,$2,$3*
1,1,$1+$1,$4,$5*
1,1,$1+$1,$6,$7*
1,1,$1+$1,$8,$9*
0 Add four rect primitives between the rounded corners*
20,1,$1+$1,$2,$3,$4,$5,0*
20,1,$1+$1,$4,$5,$6,$7,0*
20,1,$1+$1,$6,$7,$8,$9,0*
20,1,$1+$1,$8,$9,$2,$3,0*%
G04 Aperture macros list end*
%ADD10RoundRect,0.250000X0.250000X0.475000X-0.250000X0.475000X-0.250000X-0.475000X0.250000X-0.475000X0*%
%ADD11RoundRect,0.250000X0.625000X-0.312500X0.625000X0.312500X-0.625000X0.312500X-0.625000X-0.312500X0*%
%ADD12RoundRect,0.250000X-0.250000X-0.475000X0.250000X-0.475000X0.250000X0.475000X-0.250000X0.475000X0*%
%ADD13RoundRect,0.250000X-0.625000X0.312500X-0.625000X-0.312500X0.625000X-0.312500X0.625000X0.312500X0*%
%ADD14RoundRect,0.250000X-0.312500X-0.625000X0.312500X-0.625000X0.312500X0.625000X-0.312500X0.625000X0*%
%ADD15RoundRect,0.125000X-0.125000X-0.125000X0.125000X-0.125000X0.125000X0.125000X-0.125000X0.125000X0*%
%ADD16RoundRect,0.062500X-0.350000X-0.062500X0.350000X-0.062500X0.350000X0.062500X-0.350000X0.062500X0*%
%ADD17RoundRect,0.062500X-0.062500X-0.350000X0.062500X-0.350000X0.062500X0.350000X-0.062500X0.350000X0*%
%ADD18RoundRect,0.250000X0.475000X-0.250000X0.475000X0.250000X-0.475000X0.250000X-0.475000X-0.250000X0*%
%ADD19RoundRect,0.218750X-0.381250X0.218750X-0.381250X-0.218750X0.381250X-0.218750X0.381250X0.218750X0*%
%ADD20RoundRect,0.250000X-0.475000X0.250000X-0.475000X-0.250000X0.475000X-0.250000X0.475000X0.250000X0*%
%ADD21R,0.450000X1.475000*%
%ADD22RoundRect,0.250000X0.312500X0.625000X-0.312500X0.625000X-0.312500X-0.625000X0.312500X-0.625000X0*%
%ADD23RoundRect,0.218750X0.218750X0.256250X-0.218750X0.256250X-0.218750X-0.256250X0.218750X-0.256250X0*%
G04 APERTURE END LIST*
D10*
%TO.C,C24*%
X181266000Y-132588000D03*
X179366000Y-132588000D03*
%TD*%
D11*
%TO.C,R13*%
X57962400Y-78572100D03*
X57962400Y-75647100D03*
%TD*%
D12*
%TO.C,C11*%
X110896000Y-132510000D03*
X112796000Y-132510000D03*
%TD*%
D13*
%TO.C,R12*%
X56387600Y-80320700D03*
X56387600Y-83245700D03*
%TD*%
D10*
%TO.C,C9*%
X104446000Y-129910000D03*
X102546000Y-129910000D03*
%TD*%
D14*
%TO.C,R9*%
X68037500Y-59000000D03*
X70962500Y-59000000D03*
%TD*%
D10*
%TO.C,C25*%
X200692000Y-130779000D03*
X198792000Y-130779000D03*
%TD*%
D15*
%TO.C,U3*%
X81002500Y-126433500D03*
X81002500Y-127053500D03*
X81622500Y-126433500D03*
X81622500Y-127053500D03*
D16*
X79875000Y-125993500D03*
X79875000Y-126493500D03*
X79875000Y-126993500D03*
X79875000Y-127493500D03*
D17*
X80562500Y-128181000D03*
X81062500Y-128181000D03*
X81562500Y-128181000D03*
X82062500Y-128181000D03*
D16*
X82750000Y-127493500D03*
X82750000Y-126993500D03*
X82750000Y-126493500D03*
X82750000Y-125993500D03*
D17*
X82062500Y-125306000D03*
X81562500Y-125306000D03*
X81062500Y-125306000D03*
X80562500Y-125306000D03*
%TD*%
D10*
%TO.C,C16*%
X133285571Y-132588000D03*
X131385571Y-132588000D03*
%TD*%
%TO.C,C30*%
X224822000Y-133364000D03*
X222922000Y-133364000D03*
%TD*%
%TO.C,C5*%
X80650000Y-129993500D03*
X78750000Y-129993500D03*
%TD*%
D18*
%TO.C,C37*%
X56343601Y-113266782D03*
X56343601Y-111366782D03*
%TD*%
D13*
%TO.C,R14*%
X60661601Y-97846148D03*
X60661601Y-100771148D03*
%TD*%
%TO.C,R10*%
X60502400Y-75647100D03*
X60502400Y-78572100D03*
%TD*%
D12*
%TO.C,C15*%
X135285571Y-132588000D03*
X137185571Y-132588000D03*
%TD*%
D10*
%TO.C,C8*%
X85100000Y-132593500D03*
X83200000Y-132593500D03*
%TD*%
D15*
%TO.C,U5*%
X129188071Y-126428000D03*
X129188071Y-127048000D03*
X129808071Y-126428000D03*
X129808071Y-127048000D03*
D16*
X128060571Y-125988000D03*
X128060571Y-126488000D03*
X128060571Y-126988000D03*
X128060571Y-127488000D03*
D17*
X128748071Y-128175500D03*
X129248071Y-128175500D03*
X129748071Y-128175500D03*
X130248071Y-128175500D03*
D16*
X130935571Y-127488000D03*
X130935571Y-126988000D03*
X130935571Y-126488000D03*
X130935571Y-125988000D03*
D17*
X130248071Y-125300500D03*
X129748071Y-125300500D03*
X129248071Y-125300500D03*
X128748071Y-125300500D03*
%TD*%
D10*
%TO.C,C12*%
X108896000Y-132510000D03*
X106996000Y-132510000D03*
%TD*%
D15*
%TO.C,U8*%
X201044500Y-126428000D03*
X201044500Y-127048000D03*
X201664500Y-126428000D03*
X201664500Y-127048000D03*
D16*
X199917000Y-125988000D03*
X199917000Y-126488000D03*
X199917000Y-126988000D03*
X199917000Y-127488000D03*
D17*
X200604500Y-128175500D03*
X201104500Y-128175500D03*
X201604500Y-128175500D03*
X202104500Y-128175500D03*
D16*
X202792000Y-127488000D03*
X202792000Y-126988000D03*
X202792000Y-126488000D03*
X202792000Y-125988000D03*
D17*
X202104500Y-125300500D03*
X201604500Y-125300500D03*
X201104500Y-125300500D03*
X200604500Y-125300500D03*
%TD*%
D10*
%TO.C,C6*%
X80650000Y-132293500D03*
X78750000Y-132293500D03*
%TD*%
%TO.C,C18*%
X152686000Y-132856000D03*
X150786000Y-132856000D03*
%TD*%
D19*
%TO.C,FB3*%
X84750000Y-128631000D03*
X84750000Y-130756000D03*
%TD*%
%TO.C,FB8*%
X135435571Y-128588000D03*
X135435571Y-130713000D03*
%TD*%
D13*
%TO.C,R5*%
X197866000Y-135443500D03*
X197866000Y-138368500D03*
%TD*%
%TO.C,R6*%
X197866000Y-125537500D03*
X197866000Y-128462500D03*
%TD*%
D19*
%TO.C,FB12*%
X183416000Y-128588000D03*
X183416000Y-130713000D03*
%TD*%
D13*
%TO.C,R7*%
X221742000Y-135443500D03*
X221742000Y-138368500D03*
%TD*%
D15*
%TO.C,U2*%
X57860000Y-127897400D03*
X57860000Y-128517400D03*
X58480000Y-127897400D03*
X58480000Y-128517400D03*
D16*
X56732500Y-127457400D03*
X56732500Y-127957400D03*
X56732500Y-128457400D03*
X56732500Y-128957400D03*
D17*
X57420000Y-129644900D03*
X57920000Y-129644900D03*
X58420000Y-129644900D03*
X58920000Y-129644900D03*
D16*
X59607500Y-128957400D03*
X59607500Y-128457400D03*
X59607500Y-127957400D03*
X59607500Y-127457400D03*
D17*
X58920000Y-126769900D03*
X58420000Y-126769900D03*
X57920000Y-126769900D03*
X57420000Y-126769900D03*
%TD*%
D11*
%TO.C,R3*%
X173990000Y-138368500D03*
X173990000Y-135443500D03*
%TD*%
D20*
%TO.C,C39*%
X55561069Y-98536050D03*
X55561069Y-100436050D03*
%TD*%
D12*
%TO.C,C7*%
X87100000Y-132593500D03*
X89000000Y-132593500D03*
%TD*%
D19*
%TO.C,FB9*%
X156786000Y-128625500D03*
X156786000Y-130750500D03*
%TD*%
%TO.C,FB7*%
X132935571Y-128625500D03*
X132935571Y-130750500D03*
%TD*%
D18*
%TO.C,C36*%
X56387600Y-87036000D03*
X56387600Y-85136000D03*
%TD*%
D21*
%TO.C,IC2*%
X60366601Y-102854155D03*
X59716601Y-102854155D03*
X59066601Y-102854155D03*
X58416601Y-102854155D03*
X58416601Y-108730155D03*
X59066601Y-108730155D03*
X59716601Y-108730155D03*
X60366601Y-108730155D03*
%TD*%
D10*
%TO.C,C38*%
X61154401Y-113620701D03*
X59254401Y-113620701D03*
%TD*%
D13*
%TO.C,R2*%
X149606000Y-125537500D03*
X149606000Y-128462500D03*
%TD*%
D15*
%TO.C,U9*%
X225174500Y-126428000D03*
X225174500Y-127048000D03*
X225794500Y-126428000D03*
X225794500Y-127048000D03*
D16*
X224047000Y-125988000D03*
X224047000Y-126488000D03*
X224047000Y-126988000D03*
X224047000Y-127488000D03*
D17*
X224734500Y-128175500D03*
X225234500Y-128175500D03*
X225734500Y-128175500D03*
X226234500Y-128175500D03*
D16*
X226922000Y-127488000D03*
X226922000Y-126988000D03*
X226922000Y-126488000D03*
X226922000Y-125988000D03*
D17*
X226234500Y-125300500D03*
X225734500Y-125300500D03*
X225234500Y-125300500D03*
X224734500Y-125300500D03*
%TD*%
D10*
%TO.C,C26*%
X200692000Y-133079000D03*
X198792000Y-133079000D03*
%TD*%
D19*
%TO.C,FB14*%
X207292000Y-128588000D03*
X207292000Y-130713000D03*
%TD*%
%TO.C,FB4*%
X87250000Y-128593500D03*
X87250000Y-130718500D03*
%TD*%
D12*
%TO.C,C31*%
X231272000Y-132588000D03*
X233172000Y-132588000D03*
%TD*%
D19*
%TO.C,FB5*%
X108546000Y-128547500D03*
X108546000Y-130672500D03*
%TD*%
%TO.C,FB6*%
X111046000Y-128510000D03*
X111046000Y-130635000D03*
%TD*%
D18*
%TO.C,C33*%
X56387600Y-90846000D03*
X56387600Y-88946000D03*
%TD*%
D10*
%TO.C,C22*%
X176816000Y-133310000D03*
X174916000Y-133310000D03*
%TD*%
D18*
%TO.C,C40*%
X56292801Y-109223504D03*
X56292801Y-107323504D03*
%TD*%
D12*
%TO.C,C23*%
X183266000Y-132588000D03*
X185166000Y-132588000D03*
%TD*%
D19*
%TO.C,FB11*%
X180916000Y-128625500D03*
X180916000Y-130750500D03*
%TD*%
%TO.C,FB13*%
X204792000Y-128625500D03*
X204792000Y-130750500D03*
%TD*%
D11*
%TO.C,R17*%
X58121601Y-100697010D03*
X58121601Y-97772010D03*
%TD*%
D13*
%TO.C,R16*%
X56362672Y-102453951D03*
X56362672Y-105378951D03*
%TD*%
D10*
%TO.C,C32*%
X229272000Y-132588000D03*
X227372000Y-132588000D03*
%TD*%
D11*
%TO.C,R8*%
X221996000Y-128462500D03*
X221996000Y-125537500D03*
%TD*%
D10*
%TO.C,C2*%
X57507500Y-133757400D03*
X55607500Y-133757400D03*
%TD*%
D15*
%TO.C,U7*%
X177168500Y-126428000D03*
X177168500Y-127048000D03*
X177788500Y-126428000D03*
X177788500Y-127048000D03*
D16*
X176041000Y-125988000D03*
X176041000Y-126488000D03*
X176041000Y-126988000D03*
X176041000Y-127488000D03*
D17*
X176728500Y-128175500D03*
X177228500Y-128175500D03*
X177728500Y-128175500D03*
X178228500Y-128175500D03*
D16*
X178916000Y-127488000D03*
X178916000Y-126988000D03*
X178916000Y-126488000D03*
X178916000Y-125988000D03*
D17*
X178228500Y-125300500D03*
X177728500Y-125300500D03*
X177228500Y-125300500D03*
X176728500Y-125300500D03*
%TD*%
D12*
%TO.C,C3*%
X63957500Y-134057400D03*
X65857500Y-134057400D03*
%TD*%
D19*
%TO.C,FB15*%
X228922000Y-128625500D03*
X228922000Y-130750500D03*
%TD*%
D10*
%TO.C,C17*%
X152686000Y-130556000D03*
X150786000Y-130556000D03*
%TD*%
%TO.C,C21*%
X176816000Y-131010000D03*
X174916000Y-131010000D03*
%TD*%
D12*
%TO.C,C19*%
X159136000Y-132588000D03*
X161036000Y-132588000D03*
%TD*%
D10*
%TO.C,C20*%
X157136000Y-132588000D03*
X155236000Y-132588000D03*
%TD*%
D19*
%TO.C,FB1*%
X61607500Y-130094900D03*
X61607500Y-132219900D03*
%TD*%
D15*
%TO.C,U4*%
X104798500Y-126350000D03*
X104798500Y-126970000D03*
X105418500Y-126350000D03*
X105418500Y-126970000D03*
D16*
X103671000Y-125910000D03*
X103671000Y-126410000D03*
X103671000Y-126910000D03*
X103671000Y-127410000D03*
D17*
X104358500Y-128097500D03*
X104858500Y-128097500D03*
X105358500Y-128097500D03*
X105858500Y-128097500D03*
D16*
X106546000Y-127410000D03*
X106546000Y-126910000D03*
X106546000Y-126410000D03*
X106546000Y-125910000D03*
D17*
X105858500Y-125222500D03*
X105358500Y-125222500D03*
X104858500Y-125222500D03*
X104358500Y-125222500D03*
%TD*%
D19*
%TO.C,FB2*%
X64107500Y-130057400D03*
X64107500Y-132182400D03*
%TD*%
D10*
%TO.C,C1*%
X57507500Y-131457400D03*
X55607500Y-131457400D03*
%TD*%
D19*
%TO.C,FB10*%
X159286000Y-128588000D03*
X159286000Y-130713000D03*
%TD*%
D22*
%TO.C,R11*%
X61668441Y-89034909D03*
X58743441Y-89034909D03*
%TD*%
D13*
%TO.C,R4*%
X173990000Y-125537500D03*
X173990000Y-128462500D03*
%TD*%
D12*
%TO.C,C4*%
X60057500Y-134057400D03*
X61957500Y-134057400D03*
%TD*%
D13*
%TO.C,R1*%
X125308071Y-125283500D03*
X125308071Y-128208500D03*
%TD*%
D10*
%TO.C,C34*%
X61249200Y-91333600D03*
X59349200Y-91333600D03*
%TD*%
D19*
%TO.C,FB16*%
X231422000Y-128588000D03*
X231422000Y-130713000D03*
%TD*%
D10*
%TO.C,C13*%
X128835571Y-130230924D03*
X126935571Y-130230924D03*
%TD*%
D20*
%TO.C,C35*%
X55524000Y-76159600D03*
X55524000Y-78059600D03*
%TD*%
D10*
%TO.C,C28*%
X205142000Y-132588000D03*
X203242000Y-132588000D03*
%TD*%
D23*
%TO.C,D1*%
X76123500Y-59228000D03*
X74548500Y-59228000D03*
%TD*%
D21*
%TO.C,IC1*%
X60309000Y-80674000D03*
X59659000Y-80674000D03*
X59009000Y-80674000D03*
X58359000Y-80674000D03*
X58359000Y-86550000D03*
X59009000Y-86550000D03*
X59659000Y-86550000D03*
X60309000Y-86550000D03*
%TD*%
D12*
%TO.C,C27*%
X207142000Y-132588000D03*
X209042000Y-132588000D03*
%TD*%
D10*
%TO.C,C14*%
X128835571Y-132530924D03*
X126935571Y-132530924D03*
%TD*%
%TO.C,C29*%
X224822000Y-131064000D03*
X222922000Y-131064000D03*
%TD*%
D15*
%TO.C,U6*%
X153038500Y-126428000D03*
X153038500Y-127048000D03*
X153658500Y-126428000D03*
X153658500Y-127048000D03*
D16*
X151911000Y-125988000D03*
X151911000Y-126488000D03*
X151911000Y-126988000D03*
X151911000Y-127488000D03*
D17*
X152598500Y-128175500D03*
X153098500Y-128175500D03*
X153598500Y-128175500D03*
X154098500Y-128175500D03*
D16*
X154786000Y-127488000D03*
X154786000Y-126988000D03*
X154786000Y-126488000D03*
X154786000Y-125988000D03*
D17*
X154098500Y-125300500D03*
X153598500Y-125300500D03*
X153098500Y-125300500D03*
X152598500Y-125300500D03*
%TD*%
D10*
%TO.C,C10*%
X104446000Y-132210000D03*
X102546000Y-132210000D03*
%TD*%
D22*
%TO.C,R15*%
X61616101Y-111415993D03*
X58691101Y-111415993D03*
%TD*%
M02*
