G04 #@! TF.GenerationSoftware,KiCad,Pcbnew,7.0.0*
G04 #@! TF.CreationDate,2024-03-13T15:51:30+01:00*
G04 #@! TF.ProjectId,breakoutBoard_extended,62726561-6b6f-4757-9442-6f6172645f65,rev?*
G04 #@! TF.SameCoordinates,Original*
G04 #@! TF.FileFunction,Copper,L1,Top*
G04 #@! TF.FilePolarity,Positive*
%FSLAX46Y46*%
G04 Gerber Fmt 4.6, Leading zero omitted, Abs format (unit mm)*
G04 Created by KiCad (PCBNEW 7.0.0) date 2024-03-13 15:51:30*
%MOMM*%
%LPD*%
G01*
G04 APERTURE LIST*
G04 Aperture macros list*
%AMRoundRect*
0 Rectangle with rounded corners*
0 $1 Rounding radius*
0 $2 $3 $4 $5 $6 $7 $8 $9 X,Y pos of 4 corners*
0 Add a 4 corners polygon primitive as box body*
4,1,4,$2,$3,$4,$5,$6,$7,$8,$9,$2,$3,0*
0 Add four circle primitives for the rounded corners*
1,1,$1+$1,$2,$3*
1,1,$1+$1,$4,$5*
1,1,$1+$1,$6,$7*
1,1,$1+$1,$8,$9*
0 Add four rect primitives between the rounded corners*
20,1,$1+$1,$2,$3,$4,$5,0*
20,1,$1+$1,$4,$5,$6,$7,0*
20,1,$1+$1,$6,$7,$8,$9,0*
20,1,$1+$1,$8,$9,$2,$3,0*%
G04 Aperture macros list end*
G04 #@! TA.AperFunction,SMDPad,CuDef*
%ADD10RoundRect,0.100000X-0.100000X0.130000X-0.100000X-0.130000X0.100000X-0.130000X0.100000X0.130000X0*%
G04 #@! TD*
G04 #@! TA.AperFunction,SMDPad,CuDef*
%ADD11RoundRect,0.250000X0.787500X1.025000X-0.787500X1.025000X-0.787500X-1.025000X0.787500X-1.025000X0*%
G04 #@! TD*
G04 #@! TA.AperFunction,SMDPad,CuDef*
%ADD12RoundRect,0.250000X-0.787500X-1.025000X0.787500X-1.025000X0.787500X1.025000X-0.787500X1.025000X0*%
G04 #@! TD*
G04 #@! TA.AperFunction,SMDPad,CuDef*
%ADD13RoundRect,0.100000X-0.130000X-0.100000X0.130000X-0.100000X0.130000X0.100000X-0.130000X0.100000X0*%
G04 #@! TD*
G04 #@! TA.AperFunction,SMDPad,CuDef*
%ADD14RoundRect,0.147500X0.172500X-0.147500X0.172500X0.147500X-0.172500X0.147500X-0.172500X-0.147500X0*%
G04 #@! TD*
G04 #@! TA.AperFunction,SMDPad,CuDef*
%ADD15RoundRect,0.147500X0.147500X0.172500X-0.147500X0.172500X-0.147500X-0.172500X0.147500X-0.172500X0*%
G04 #@! TD*
G04 #@! TA.AperFunction,SMDPad,CuDef*
%ADD16C,0.250000*%
G04 #@! TD*
G04 #@! TA.AperFunction,SMDPad,CuDef*
%ADD17RoundRect,0.100000X0.100000X-0.130000X0.100000X0.130000X-0.100000X0.130000X-0.100000X-0.130000X0*%
G04 #@! TD*
G04 #@! TA.AperFunction,SMDPad,CuDef*
%ADD18R,1.500000X1.000000*%
G04 #@! TD*
G04 #@! TA.AperFunction,SMDPad,CuDef*
%ADD19RoundRect,0.147500X-0.147500X-0.172500X0.147500X-0.172500X0.147500X0.172500X-0.147500X0.172500X0*%
G04 #@! TD*
G04 #@! TA.AperFunction,SMDPad,CuDef*
%ADD20RoundRect,0.100000X0.130000X0.100000X-0.130000X0.100000X-0.130000X-0.100000X0.130000X-0.100000X0*%
G04 #@! TD*
G04 #@! TA.AperFunction,SMDPad,CuDef*
%ADD21RoundRect,0.237500X-0.237500X0.287500X-0.237500X-0.287500X0.237500X-0.287500X0.237500X0.287500X0*%
G04 #@! TD*
G04 #@! TA.AperFunction,ComponentPad*
%ADD22R,1.700000X1.700000*%
G04 #@! TD*
G04 #@! TA.AperFunction,ComponentPad*
%ADD23O,1.700000X1.700000*%
G04 #@! TD*
G04 #@! TA.AperFunction,ViaPad*
%ADD24C,0.800000*%
G04 #@! TD*
G04 #@! TA.AperFunction,ViaPad*
%ADD25C,0.250000*%
G04 #@! TD*
G04 #@! TA.AperFunction,ViaPad*
%ADD26C,0.700000*%
G04 #@! TD*
G04 #@! TA.AperFunction,Conductor*
%ADD27C,0.150000*%
G04 #@! TD*
G04 #@! TA.AperFunction,Conductor*
%ADD28C,0.200000*%
G04 #@! TD*
G04 #@! TA.AperFunction,Conductor*
%ADD29C,0.250000*%
G04 #@! TD*
G04 #@! TA.AperFunction,Conductor*
%ADD30C,0.076200*%
G04 #@! TD*
G04 APERTURE END LIST*
D10*
X57277000Y-37841000D03*
X57277000Y-38481000D03*
D11*
X65724500Y-49276000D03*
X59499500Y-49276000D03*
D12*
X49147000Y-49276000D03*
X55372000Y-49276000D03*
D13*
X55548000Y-38562000D03*
X56188000Y-38562000D03*
D10*
X55426000Y-36144000D03*
X55426000Y-36784000D03*
D14*
X52197000Y-41275000D03*
X52197000Y-40305000D03*
D15*
X55761000Y-44785000D03*
X54791000Y-44785000D03*
X49992000Y-46228000D03*
X49022000Y-46228000D03*
D16*
X54630000Y-39719000D03*
X54980000Y-39719000D03*
X55330000Y-39719000D03*
X55680000Y-39719000D03*
X56030000Y-39719000D03*
X56380000Y-39719000D03*
X56730000Y-39719000D03*
X54630000Y-40069000D03*
X54980000Y-40069000D03*
X55330000Y-40069000D03*
X55680000Y-40069000D03*
X56030000Y-40069000D03*
X56380000Y-40069000D03*
X56730000Y-40069000D03*
X54630000Y-40419000D03*
X54980000Y-40419000D03*
X55330000Y-40419000D03*
X55680000Y-40419000D03*
X56030000Y-40419000D03*
X56380000Y-40419000D03*
X56730000Y-40419000D03*
X54630000Y-40769000D03*
X54980000Y-40769000D03*
X55330000Y-40769000D03*
X55680000Y-40769000D03*
X56030000Y-40769000D03*
X56380000Y-40769000D03*
X56730000Y-40769000D03*
X54630000Y-41119000D03*
X54980000Y-41119000D03*
X55330000Y-41119000D03*
X55680000Y-41119000D03*
X56030000Y-41119000D03*
X56380000Y-41119000D03*
X56730000Y-41119000D03*
X54630000Y-41469000D03*
X54980000Y-41469000D03*
X55330000Y-41469000D03*
X55680000Y-41469000D03*
X56030000Y-41469000D03*
X56380000Y-41469000D03*
X56730000Y-41469000D03*
D10*
X54156000Y-36119000D03*
X54156000Y-36759000D03*
D14*
X59363000Y-41945000D03*
X59363000Y-40975000D03*
D17*
X59880500Y-35369500D03*
X59880500Y-34729500D03*
X61214000Y-35369500D03*
X61214000Y-34729500D03*
D18*
X65785999Y-33751999D03*
X65785999Y-35051999D03*
D10*
X52886000Y-36110500D03*
X52886000Y-36750500D03*
D19*
X61214000Y-46228000D03*
X62184000Y-46228000D03*
D17*
X57966000Y-41849000D03*
X57966000Y-41209000D03*
D20*
X55583000Y-43515000D03*
X54943000Y-43515000D03*
D17*
X53267000Y-41234000D03*
X53267000Y-40594000D03*
D20*
X55329000Y-42626000D03*
X54689000Y-42626000D03*
D10*
X51616000Y-36085500D03*
X51616000Y-36725500D03*
D18*
X63245999Y-33751999D03*
X63245999Y-35051999D03*
D21*
X65849500Y-44005500D03*
X65849500Y-45755500D03*
D22*
X45973999Y-33400999D03*
D23*
X43433999Y-33400999D03*
X45973999Y-35940999D03*
X43433999Y-35940999D03*
X45973999Y-38480999D03*
X43433999Y-38480999D03*
X45973999Y-41020999D03*
X43433999Y-41020999D03*
X45973999Y-43560999D03*
X43433999Y-43560999D03*
X45973999Y-46100999D03*
X43433999Y-46100999D03*
X45973999Y-48640999D03*
X43433999Y-48640999D03*
X45973999Y-51180999D03*
X43433999Y-51180999D03*
D22*
X71373999Y-33400999D03*
D23*
X68833999Y-33400999D03*
X71373999Y-35940999D03*
X68833999Y-35940999D03*
X71373999Y-38480999D03*
X68833999Y-38480999D03*
X71373999Y-41020999D03*
X68833999Y-41020999D03*
X71373999Y-43560999D03*
X68833999Y-43560999D03*
X71373999Y-46100999D03*
X68833999Y-46100999D03*
X71373999Y-48640999D03*
X68833999Y-48640999D03*
X71373999Y-51180999D03*
X68833999Y-51180999D03*
D24*
X53594000Y-42799000D03*
X57785000Y-36449000D03*
X51689000Y-39243000D03*
X64516000Y-36830000D03*
X61087000Y-43053000D03*
D25*
X55330000Y-40770000D03*
X56380380Y-40769540D03*
D24*
X49784000Y-39116000D03*
X53594000Y-44704000D03*
X57658000Y-34798000D03*
X59502040Y-43037760D03*
D26*
X59690000Y-46228000D03*
X62992000Y-42926000D03*
X54356000Y-34290000D03*
X58928014Y-34798000D03*
X58074560Y-39019480D03*
D25*
X56381040Y-40068220D03*
D26*
X57277000Y-43815000D03*
D25*
X56030520Y-41117240D03*
X54980840Y-40769540D03*
X56378500Y-40418740D03*
D26*
X67564000Y-42418000D03*
X60960000Y-38608000D03*
X62020686Y-36023314D03*
D25*
X54980840Y-40065960D03*
D26*
X54737000Y-37973000D03*
D25*
X55679340Y-41120060D03*
D26*
X50800000Y-42418000D03*
D25*
X54980840Y-40421560D03*
X55681880Y-40065960D03*
X56027320Y-40065960D03*
X55331360Y-40065960D03*
X54980840Y-41120060D03*
D26*
X49784000Y-41275000D03*
X47752000Y-38354000D03*
X54102000Y-46355000D03*
D27*
X56030000Y-39355000D02*
X56030000Y-39719000D01*
X56188000Y-38562000D02*
X56188000Y-39197000D01*
X54980000Y-41469000D02*
X54980000Y-42056000D01*
X57966000Y-41102000D02*
X56747000Y-41102000D01*
X54980000Y-42056000D02*
X54689000Y-42347000D01*
X54689000Y-42347000D02*
X54689000Y-42626000D01*
X56188000Y-39197000D02*
X56030000Y-39355000D01*
D28*
X56747000Y-41102000D02*
X56730000Y-41119000D01*
D29*
X64546000Y-36800000D02*
X64516000Y-36830000D01*
X59363000Y-40975000D02*
X59683000Y-40975000D01*
D30*
X55680000Y-40769000D02*
X55330000Y-41119000D01*
D29*
X56188000Y-38046000D02*
X57785000Y-36449000D01*
X65786000Y-33752000D02*
X64786000Y-33752000D01*
X56188000Y-38562000D02*
X56188000Y-38046000D01*
X54689000Y-42626000D02*
X53767000Y-42626000D01*
D28*
X53644800Y-40640000D02*
X53313000Y-40640000D01*
D29*
X52197000Y-39751000D02*
X51689000Y-39243000D01*
X52197000Y-40305000D02*
X52197000Y-39751000D01*
X53767000Y-42626000D02*
X53594000Y-42799000D01*
D28*
X53773800Y-40769000D02*
X53644800Y-40640000D01*
D29*
X64786000Y-33752000D02*
X64546000Y-33752000D01*
X59683000Y-40975000D02*
X61087000Y-42379000D01*
X59359190Y-41102000D02*
X59363000Y-41098190D01*
X57966000Y-41102000D02*
X59359190Y-41102000D01*
X52197000Y-40305000D02*
X52978000Y-40305000D01*
X64546000Y-33752000D02*
X64546000Y-36800000D01*
D28*
X53313000Y-40640000D02*
X53267000Y-40594000D01*
D29*
X64546000Y-33752000D02*
X63246000Y-33752000D01*
X61087000Y-42379000D02*
X61087000Y-43053000D01*
X52978000Y-40305000D02*
X53267000Y-40594000D01*
X59363000Y-41098190D02*
X59363000Y-40975000D01*
D28*
X54630000Y-40769000D02*
X53773800Y-40769000D01*
D30*
X54980000Y-41469000D02*
X55330000Y-41119000D01*
D29*
X58166000Y-41742000D02*
X58369000Y-41945000D01*
X57966000Y-41742000D02*
X58166000Y-41742000D01*
X59043000Y-41945000D02*
X59363000Y-41945000D01*
X58369000Y-41945000D02*
X59043000Y-41945000D01*
D27*
X55548000Y-39192000D02*
X55548000Y-38562000D01*
D28*
X53267000Y-41234000D02*
X53382000Y-41119000D01*
D27*
X55329000Y-42023000D02*
X55329000Y-42626000D01*
D28*
X54943000Y-43515000D02*
X54943000Y-43315000D01*
X55329000Y-42929000D02*
X55329000Y-42826000D01*
D27*
X53382000Y-41119000D02*
X54630000Y-41119000D01*
X57966000Y-41742000D02*
X57003000Y-41742000D01*
D29*
X54791000Y-43667000D02*
X54943000Y-43515000D01*
D27*
X55680000Y-39719000D02*
X55680000Y-39324000D01*
D28*
X54943000Y-43315000D02*
X55329000Y-42929000D01*
D27*
X55680000Y-39324000D02*
X55548000Y-39192000D01*
X55330000Y-41469000D02*
X55330000Y-42022000D01*
D28*
X55329000Y-42826000D02*
X55329000Y-42626000D01*
D29*
X54791000Y-44785000D02*
X54791000Y-43667000D01*
D27*
X57003000Y-41742000D02*
X56800001Y-41539001D01*
D29*
X52238000Y-41234000D02*
X52197000Y-41275000D01*
X49784000Y-39116000D02*
X50035500Y-39367500D01*
X59880500Y-34099500D02*
X59880500Y-34729500D01*
X59363000Y-41945000D02*
X59363000Y-42898720D01*
X56134000Y-37317906D02*
X56134000Y-36322000D01*
X56134000Y-36322000D02*
X57258001Y-35197999D01*
X50035500Y-39433500D02*
X51877000Y-41275000D01*
X59363000Y-42898720D02*
X59502040Y-43037760D01*
X59502040Y-43037760D02*
X59502040Y-43268900D01*
X53267000Y-41234000D02*
X52238000Y-41234000D01*
X47330000Y-44831000D02*
X44577000Y-44831000D01*
X61214000Y-34729500D02*
X59880500Y-34729500D01*
X44577000Y-44831000D02*
X44156999Y-45251001D01*
X57258001Y-35197999D02*
X57658000Y-34798000D01*
X59502040Y-43268900D02*
X62184000Y-45950860D01*
X48727000Y-46228000D02*
X47330000Y-44831000D01*
X53675000Y-44785000D02*
X53594000Y-44704000D01*
X54791000Y-44785000D02*
X53675000Y-44785000D01*
X57658000Y-34798000D02*
X58806000Y-33650000D01*
X49022000Y-46228000D02*
X48727000Y-46228000D01*
X58806000Y-33650000D02*
X59431000Y-33650000D01*
X55548000Y-38562000D02*
X55548000Y-37903906D01*
X55548000Y-37903906D02*
X56134000Y-37317906D01*
X59431000Y-33650000D02*
X59880500Y-34099500D01*
X50035500Y-39367500D02*
X50035500Y-39433500D01*
X62184000Y-45950860D02*
X62184000Y-46228000D01*
X44156999Y-45251001D02*
X43307000Y-46101000D01*
X51877000Y-41275000D02*
X52197000Y-41275000D01*
D27*
X56030000Y-41469000D02*
X56061000Y-41500000D01*
X56061000Y-41500000D02*
X56061000Y-42626000D01*
X56061000Y-42626000D02*
X56315000Y-42880000D01*
D29*
X56327040Y-45593000D02*
X50723800Y-45593000D01*
X48945800Y-43815000D02*
X46101000Y-43815000D01*
X56315000Y-42880000D02*
X56393080Y-42958080D01*
X56393080Y-42958080D02*
X56393080Y-45526960D01*
X46101000Y-43815000D02*
X45847000Y-43561000D01*
X50723800Y-45593000D02*
X48945800Y-43815000D01*
X56393080Y-45526960D02*
X56327040Y-45593000D01*
X61214000Y-46228000D02*
X59690000Y-46228000D01*
X59499500Y-46418500D02*
X59690000Y-46228000D01*
X59499500Y-49276000D02*
X59499500Y-46418500D01*
X51054000Y-47244000D02*
X54615000Y-47244000D01*
X48514000Y-47244000D02*
X51054000Y-47244000D01*
X49992000Y-46228000D02*
X50287000Y-46228000D01*
X45847000Y-46101000D02*
X47371000Y-46101000D01*
X51054000Y-46995000D02*
X51054000Y-47244000D01*
X50287000Y-46228000D02*
X51054000Y-46995000D01*
X54615000Y-47244000D02*
X55372000Y-48001000D01*
X55372000Y-48001000D02*
X55372000Y-49276000D01*
X47371000Y-46101000D02*
X48514000Y-47244000D01*
X62483990Y-42417990D02*
X62992000Y-42926000D01*
X61463000Y-37841000D02*
X62483990Y-38861990D01*
X57277000Y-37841000D02*
X61463000Y-37841000D01*
X62483990Y-38861990D02*
X62483990Y-42417990D01*
X60575011Y-36318011D02*
X59953051Y-36318011D01*
X52886000Y-36110500D02*
X52886000Y-35760000D01*
X66548000Y-42926000D02*
X66548000Y-42291000D01*
X59953051Y-36318011D02*
X58928014Y-35292974D01*
X54156001Y-34489999D02*
X54356000Y-34290000D01*
X67183000Y-43561000D02*
X66548000Y-42926000D01*
X66548000Y-42291000D02*
X60575011Y-36318011D01*
X58928014Y-35292974D02*
X58928014Y-34798000D01*
X68834000Y-43561000D02*
X67183000Y-43561000D01*
X52886000Y-35760000D02*
X54156001Y-34489999D01*
X47193581Y-36085500D02*
X47234500Y-36085500D01*
X45847000Y-35941000D02*
X47049081Y-35941000D01*
X47234500Y-36085500D02*
X51616000Y-36085500D01*
X47049081Y-35941000D02*
X47193581Y-36085500D01*
D28*
X57025040Y-40069000D02*
X58074560Y-39019480D01*
X56730000Y-40069000D02*
X57025040Y-40069000D01*
D29*
X54156000Y-36119000D02*
X54156000Y-35889000D01*
X58295000Y-31750000D02*
X68537000Y-31750000D01*
X54156000Y-35889000D02*
X58295000Y-31750000D01*
X68537000Y-31750000D02*
X68834000Y-32047000D01*
X68834000Y-32047000D02*
X68834000Y-33401000D01*
X68834000Y-35941000D02*
X67310000Y-34417000D01*
X66548000Y-32258000D02*
X59082000Y-32258000D01*
X67310000Y-33020000D02*
X66548000Y-32258000D01*
X55426000Y-35914000D02*
X55426000Y-36144000D01*
X67310000Y-34417000D02*
X67310000Y-33020000D01*
X59082000Y-32258000D02*
X55426000Y-35914000D01*
D27*
X56380000Y-41469000D02*
X56380000Y-42423026D01*
X57277000Y-43320026D02*
X57277000Y-43815000D01*
X56380000Y-42423026D02*
X57277000Y-43320026D01*
D29*
X46990000Y-42291000D02*
X47879000Y-43180000D01*
X51689000Y-43180000D02*
X52959000Y-41910000D01*
D27*
X54630000Y-41469000D02*
X54035000Y-41469000D01*
D29*
X43307000Y-43561000D02*
X44577000Y-42291000D01*
D27*
X54035000Y-41469000D02*
X53594000Y-41910000D01*
D29*
X47879000Y-43180000D02*
X51689000Y-43180000D01*
X44577000Y-42291000D02*
X46990000Y-42291000D01*
X52959000Y-41910000D02*
X53594000Y-41910000D01*
X55761000Y-44785000D02*
X55761000Y-43693000D01*
X55761000Y-43693000D02*
X55583000Y-43515000D01*
D28*
X55583000Y-43315000D02*
X55583000Y-43515000D01*
D27*
X55773320Y-42211320D02*
X55773320Y-43124680D01*
X55680000Y-41469000D02*
X55680000Y-42118000D01*
X55773320Y-43124680D02*
X55583000Y-43315000D01*
X55680000Y-42118000D02*
X55773320Y-42211320D01*
D29*
X67310000Y-42164000D02*
X67168482Y-42164000D01*
X64120482Y-39101482D02*
X64120482Y-39116000D01*
X60579000Y-35941000D02*
X60960000Y-35941000D01*
X60007500Y-35369500D02*
X60579000Y-35941000D01*
X67564000Y-42418000D02*
X67310000Y-42164000D01*
X59880500Y-35369500D02*
X60007500Y-35369500D01*
X65786000Y-35052000D02*
X65786000Y-37450482D01*
X67168482Y-42164000D02*
X64120482Y-39116000D01*
X60960000Y-35941000D02*
X64120482Y-39101482D01*
X65786000Y-37450482D02*
X64120482Y-39116000D01*
D28*
X56730000Y-40419000D02*
X58240992Y-40419000D01*
X58240992Y-40419000D02*
X60051992Y-38608000D01*
D29*
X63246000Y-35802000D02*
X63024686Y-36023314D01*
X62020686Y-35976186D02*
X62020686Y-36023314D01*
X61414000Y-35369500D02*
X62020686Y-35976186D01*
X63024686Y-36023314D02*
X62020686Y-36023314D01*
X63246000Y-35052000D02*
X63246000Y-35802000D01*
D28*
X60051992Y-38608000D02*
X60960000Y-38608000D01*
D29*
X61214000Y-35369500D02*
X61414000Y-35369500D01*
D27*
X55426000Y-37284000D02*
X54737000Y-37973000D01*
X55426000Y-36784000D02*
X55426000Y-37284000D01*
X54980000Y-39386000D02*
X54156000Y-38562000D01*
D28*
X53902000Y-38308000D02*
X53902000Y-37013000D01*
D27*
X54980000Y-39719000D02*
X54980000Y-39386000D01*
D28*
X53902000Y-37013000D02*
X54156000Y-36759000D01*
X54156000Y-38562000D02*
X53902000Y-38308000D01*
D27*
X54220000Y-40069000D02*
X53140000Y-38989000D01*
D28*
X51616000Y-36725500D02*
X51616000Y-37465000D01*
X51616000Y-37465000D02*
X53140000Y-38989000D01*
D27*
X54630000Y-40069000D02*
X54220000Y-40069000D01*
D28*
X52886000Y-36750500D02*
X52886000Y-37975000D01*
D27*
X52886000Y-37975000D02*
X54630000Y-39719000D01*
D29*
X46696999Y-39330999D02*
X48715973Y-39330999D01*
X45847000Y-38481000D02*
X46696999Y-39330999D01*
X50800000Y-41923026D02*
X50800000Y-42418000D01*
X48715973Y-39330999D02*
X50800000Y-41415026D01*
X50800000Y-41415026D02*
X50800000Y-41923026D01*
D27*
X56730000Y-39719000D02*
X56730000Y-39028000D01*
X56730000Y-39028000D02*
X57277000Y-38481000D01*
D29*
X49218315Y-41275000D02*
X49784000Y-41275000D01*
X46736000Y-47371000D02*
X42418000Y-47371000D01*
X42037000Y-46990000D02*
X42037000Y-42291000D01*
X48435368Y-41275000D02*
X49218315Y-41275000D01*
X42037000Y-42291000D02*
X43307000Y-41021000D01*
X44577000Y-39751000D02*
X46911368Y-39751000D01*
X46911368Y-39751000D02*
X48435368Y-41275000D01*
X49147000Y-49276000D02*
X48641000Y-49276000D01*
X42418000Y-47371000D02*
X42037000Y-46990000D01*
X48641000Y-49276000D02*
X46736000Y-47371000D01*
X43307000Y-41021000D02*
X44577000Y-39751000D01*
X65724500Y-50551000D02*
X65724500Y-49276000D01*
X72898000Y-49403000D02*
X72390000Y-49911000D01*
D27*
X54630000Y-40419000D02*
X54008000Y-40419000D01*
D29*
X53086000Y-39497000D02*
X51943000Y-38354000D01*
X71374000Y-43561000D02*
X72898000Y-45085000D01*
X51943000Y-38354000D02*
X48317685Y-38354000D01*
X58293000Y-51308000D02*
X64967500Y-51308000D01*
X64967500Y-51308000D02*
X65724500Y-50551000D01*
D27*
X54008000Y-40419000D02*
X53086000Y-39497000D01*
D29*
X57404000Y-48006000D02*
X57404000Y-50419000D01*
X48317685Y-38354000D02*
X47752000Y-38354000D01*
X57404000Y-50419000D02*
X58293000Y-51308000D01*
X55753000Y-46355000D02*
X57404000Y-48006000D01*
X72390000Y-49911000D02*
X67397000Y-49911000D01*
X54102000Y-46355000D02*
X55753000Y-46355000D01*
X67397000Y-49911000D02*
X66762000Y-49276000D01*
X66762000Y-49276000D02*
X65724500Y-49276000D01*
X72898000Y-45085000D02*
X72898000Y-49403000D01*
X66738500Y-44005500D02*
X68834000Y-46101000D01*
X65849500Y-44005500D02*
X66738500Y-44005500D01*
X65849500Y-45755500D02*
X66324500Y-45755500D01*
X70358000Y-47371000D02*
X71374000Y-48387000D01*
X67940000Y-47371000D02*
X70358000Y-47371000D01*
X66324500Y-45755500D02*
X67940000Y-47371000D01*
X71374000Y-48387000D02*
X71374000Y-48641000D01*
M02*
