G04 #@! TF.GenerationSoftware,KiCad,Pcbnew,7.0.0*
G04 #@! TF.CreationDate,2024-03-13T15:51:30+01:00*
G04 #@! TF.ProjectId,breakoutBoard_extended,62726561-6b6f-4757-9442-6f6172645f65,rev?*
G04 #@! TF.SameCoordinates,Original*
G04 #@! TF.FileFunction,Paste,Top*
G04 #@! TF.FilePolarity,Positive*
%FSLAX46Y46*%
G04 Gerber Fmt 4.6, Leading zero omitted, Abs format (unit mm)*
G04 Created by KiCad (PCBNEW 7.0.0) date 2024-03-13 15:51:30*
%MOMM*%
%LPD*%
G01*
G04 APERTURE LIST*
G04 Aperture macros list*
%AMRoundRect*
0 Rectangle with rounded corners*
0 $1 Rounding radius*
0 $2 $3 $4 $5 $6 $7 $8 $9 X,Y pos of 4 corners*
0 Add a 4 corners polygon primitive as box body*
4,1,4,$2,$3,$4,$5,$6,$7,$8,$9,$2,$3,0*
0 Add four circle primitives for the rounded corners*
1,1,$1+$1,$2,$3*
1,1,$1+$1,$4,$5*
1,1,$1+$1,$6,$7*
1,1,$1+$1,$8,$9*
0 Add four rect primitives between the rounded corners*
20,1,$1+$1,$2,$3,$4,$5,0*
20,1,$1+$1,$4,$5,$6,$7,0*
20,1,$1+$1,$6,$7,$8,$9,0*
20,1,$1+$1,$8,$9,$2,$3,0*%
G04 Aperture macros list end*
%ADD10RoundRect,0.079500X-0.100500X0.079500X-0.100500X-0.079500X0.100500X-0.079500X0.100500X0.079500X0*%
%ADD11RoundRect,0.250000X0.787500X1.025000X-0.787500X1.025000X-0.787500X-1.025000X0.787500X-1.025000X0*%
%ADD12RoundRect,0.250000X-0.787500X-1.025000X0.787500X-1.025000X0.787500X1.025000X-0.787500X1.025000X0*%
%ADD13RoundRect,0.079500X-0.079500X-0.100500X0.079500X-0.100500X0.079500X0.100500X-0.079500X0.100500X0*%
%ADD14RoundRect,0.147500X0.172500X-0.147500X0.172500X0.147500X-0.172500X0.147500X-0.172500X-0.147500X0*%
%ADD15RoundRect,0.147500X0.147500X0.172500X-0.147500X0.172500X-0.147500X-0.172500X0.147500X-0.172500X0*%
%ADD16C,0.250000*%
%ADD17RoundRect,0.079500X0.100500X-0.079500X0.100500X0.079500X-0.100500X0.079500X-0.100500X-0.079500X0*%
%ADD18RoundRect,0.147500X-0.147500X-0.172500X0.147500X-0.172500X0.147500X0.172500X-0.147500X0.172500X0*%
%ADD19RoundRect,0.079500X0.079500X0.100500X-0.079500X0.100500X-0.079500X-0.100500X0.079500X-0.100500X0*%
%ADD20RoundRect,0.237500X-0.237500X0.287500X-0.237500X-0.287500X0.237500X-0.287500X0.237500X0.287500X0*%
G04 APERTURE END LIST*
D10*
X57277000Y-37816000D03*
X57277000Y-38506000D03*
D11*
X65724500Y-49276000D03*
X59499500Y-49276000D03*
D12*
X49147000Y-49276000D03*
X55372000Y-49276000D03*
D13*
X56213000Y-38562000D03*
X55523000Y-38562000D03*
D10*
X55426000Y-36809000D03*
X55426000Y-36119000D03*
D14*
X52197000Y-41275000D03*
X52197000Y-40305000D03*
D15*
X55761000Y-44785000D03*
X54791000Y-44785000D03*
X49992000Y-46228000D03*
X49022000Y-46228000D03*
D16*
X54630000Y-39719000D03*
X54980000Y-39719000D03*
X55330000Y-39719000D03*
X55680000Y-39719000D03*
X56030000Y-39719000D03*
X56380000Y-39719000D03*
X56730000Y-39719000D03*
X54630000Y-40069000D03*
X54980000Y-40069000D03*
X55330000Y-40069000D03*
X55680000Y-40069000D03*
X56030000Y-40069000D03*
X56380000Y-40069000D03*
X56730000Y-40069000D03*
X54630000Y-40419000D03*
X54980000Y-40419000D03*
X55330000Y-40419000D03*
X55680000Y-40419000D03*
X56030000Y-40419000D03*
X56380000Y-40419000D03*
X56730000Y-40419000D03*
X54630000Y-40769000D03*
X54980000Y-40769000D03*
X55330000Y-40769000D03*
X55680000Y-40769000D03*
X56030000Y-40769000D03*
X56380000Y-40769000D03*
X56730000Y-40769000D03*
X54630000Y-41119000D03*
X54980000Y-41119000D03*
X55330000Y-41119000D03*
X55680000Y-41119000D03*
X56030000Y-41119000D03*
X56380000Y-41119000D03*
X56730000Y-41119000D03*
X54630000Y-41469000D03*
X54980000Y-41469000D03*
X55330000Y-41469000D03*
X55680000Y-41469000D03*
X56030000Y-41469000D03*
X56380000Y-41469000D03*
X56730000Y-41469000D03*
D10*
X54156000Y-36784000D03*
X54156000Y-36094000D03*
D14*
X59363000Y-41945000D03*
X59363000Y-40975000D03*
D17*
X59880500Y-35394500D03*
X59880500Y-34704500D03*
X61214000Y-34704500D03*
X61214000Y-35394500D03*
D10*
X52886000Y-36085500D03*
X52886000Y-36775500D03*
D18*
X61214000Y-46228000D03*
X62184000Y-46228000D03*
D17*
X57966000Y-41874000D03*
X57966000Y-41184000D03*
D19*
X55608000Y-43515000D03*
X54918000Y-43515000D03*
D17*
X53267000Y-40569000D03*
X53267000Y-41259000D03*
D19*
X54664000Y-42626000D03*
X55354000Y-42626000D03*
D10*
X51616000Y-36750500D03*
X51616000Y-36060500D03*
D20*
X65849500Y-44005500D03*
X65849500Y-45755500D03*
M02*
