M48
; DRILL file {KiCad 7.0.0} date mer. 13 mars 2024 15:52:03
; FORMAT={-:-/ absolute / inch / decimal}
; #@! TF.CreationDate,2024-03-13T15:52:03+01:00
; #@! TF.GenerationSoftware,Kicad,Pcbnew,7.0.0
; #@! TF.FileFunction,Plated,1,4,PTH
FMAT,2
INCH
; #@! TA.AperFunction,Plated,PTH,ViaDrill
T1C0.0059
; #@! TA.AperFunction,Plated,PTH,ViaDrill
T2C0.0118
; #@! TA.AperFunction,Plated,PTH,ViaDrill
T3C0.0157
; #@! TA.AperFunction,Plated,PTH,ComponentDrill
T4C0.0394
%
G90
G05
T1
X2.1646Y-1.5774
X2.1646Y-1.5914
X2.1646Y-1.6051
X2.1646Y-1.6189
X2.1783Y-1.6051
X2.1784Y-1.5774
X2.1921Y-1.6189
X2.1922Y-1.5774
X2.2058Y-1.5774
X2.2059Y-1.6188
X2.2196Y-1.5913
X2.2197Y-1.6051
X2.2197Y-1.5775
T2
X1.88Y-1.51
X1.96Y-1.625
X2.0Y-1.67
X2.13Y-1.825
X2.14Y-1.35
X2.155Y-1.495
X2.255Y-1.725
X2.2864Y-1.5362
X2.32Y-1.37
X2.35Y-1.82
X2.4Y-1.52
X2.4418Y-1.4182
X2.48Y-1.69
X2.66Y-1.67
T3
X1.96Y-1.54
X2.035Y-1.545
X2.11Y-1.685
X2.11Y-1.76
X2.27Y-1.37
X2.275Y-1.435
X2.3426Y-1.6944
X2.405Y-1.695
X2.54Y-1.45
T4
X1.71Y-1.315
X1.71Y-1.415
X1.71Y-1.515
X1.71Y-1.615
X1.71Y-1.715
X1.71Y-1.815
X1.71Y-1.915
X1.71Y-2.015
X1.81Y-1.315
X1.81Y-1.415
X1.81Y-1.515
X1.81Y-1.615
X1.81Y-1.715
X1.81Y-1.815
X1.81Y-1.915
X1.81Y-2.015
X2.71Y-1.315
X2.71Y-1.415
X2.71Y-1.515
X2.71Y-1.615
X2.71Y-1.715
X2.71Y-1.815
X2.71Y-1.915
X2.71Y-2.015
X2.81Y-1.315
X2.81Y-1.415
X2.81Y-1.515
X2.81Y-1.615
X2.81Y-1.715
X2.81Y-1.815
X2.81Y-1.915
X2.81Y-2.015
T0
M30
