G04 #@! TF.GenerationSoftware,KiCad,Pcbnew,7.0.0*
G04 #@! TF.CreationDate,2024-03-13T15:51:30+01:00*
G04 #@! TF.ProjectId,breakoutBoard_extended,62726561-6b6f-4757-9442-6f6172645f65,rev?*
G04 #@! TF.SameCoordinates,Original*
G04 #@! TF.FileFunction,Copper,L3,Inr*
G04 #@! TF.FilePolarity,Positive*
%FSLAX46Y46*%
G04 Gerber Fmt 4.6, Leading zero omitted, Abs format (unit mm)*
G04 Created by KiCad (PCBNEW 7.0.0) date 2024-03-13 15:51:30*
%MOMM*%
%LPD*%
G01*
G04 APERTURE LIST*
G04 #@! TA.AperFunction,ComponentPad*
%ADD10R,1.700000X1.700000*%
G04 #@! TD*
G04 #@! TA.AperFunction,ComponentPad*
%ADD11O,1.700000X1.700000*%
G04 #@! TD*
G04 #@! TA.AperFunction,ViaPad*
%ADD12C,0.800000*%
G04 #@! TD*
G04 #@! TA.AperFunction,ViaPad*
%ADD13C,0.250000*%
G04 #@! TD*
G04 #@! TA.AperFunction,ViaPad*
%ADD14C,0.700000*%
G04 #@! TD*
G04 APERTURE END LIST*
D10*
X45973999Y-33400999D03*
D11*
X43433999Y-33400999D03*
X45973999Y-35940999D03*
X43433999Y-35940999D03*
X45973999Y-38480999D03*
X43433999Y-38480999D03*
X45973999Y-41020999D03*
X43433999Y-41020999D03*
X45973999Y-43560999D03*
X43433999Y-43560999D03*
X45973999Y-46100999D03*
X43433999Y-46100999D03*
X45973999Y-48640999D03*
X43433999Y-48640999D03*
X45973999Y-51180999D03*
X43433999Y-51180999D03*
D10*
X71373999Y-33400999D03*
D11*
X68833999Y-33400999D03*
X71373999Y-35940999D03*
X68833999Y-35940999D03*
X71373999Y-38480999D03*
X68833999Y-38480999D03*
X71373999Y-41020999D03*
X68833999Y-41020999D03*
X71373999Y-43560999D03*
X68833999Y-43560999D03*
X71373999Y-46100999D03*
X68833999Y-46100999D03*
X71373999Y-48640999D03*
X68833999Y-48640999D03*
X71373999Y-51180999D03*
X68833999Y-51180999D03*
D12*
X53594000Y-42799000D03*
X57785000Y-36449000D03*
X51689000Y-39243000D03*
X64516000Y-36830000D03*
X61087000Y-43053000D03*
D13*
X55330000Y-40770000D03*
X56380380Y-40769540D03*
D12*
X49784000Y-39116000D03*
X53594000Y-44704000D03*
X57658000Y-34798000D03*
X59502040Y-43037760D03*
D14*
X59690000Y-46228000D03*
X62992000Y-42926000D03*
X54356000Y-34290000D03*
X58928014Y-34798000D03*
X58074560Y-39019480D03*
D13*
X56381040Y-40068220D03*
D14*
X57277000Y-43815000D03*
D13*
X56030520Y-41117240D03*
X54980840Y-40769540D03*
X56378500Y-40418740D03*
D14*
X67564000Y-42418000D03*
X60960000Y-38608000D03*
X62020686Y-36023314D03*
D13*
X54980840Y-40065960D03*
D14*
X54737000Y-37973000D03*
D13*
X55679340Y-41120060D03*
D14*
X50800000Y-42418000D03*
D13*
X54980840Y-40421560D03*
X55681880Y-40065960D03*
X56027320Y-40065960D03*
X55331360Y-40065960D03*
X54980840Y-41120060D03*
D14*
X49784000Y-41275000D03*
X47752000Y-38354000D03*
X54102000Y-46355000D03*
G04 #@! TA.AperFunction,Conductor*
G36*
X73886500Y-31067381D02*
G01*
X73932619Y-31113500D01*
X73949500Y-31176500D01*
X73949500Y-52823500D01*
X73932619Y-52886500D01*
X73886500Y-52932619D01*
X73823500Y-52949500D01*
X41176500Y-52949500D01*
X41113500Y-52932619D01*
X41067381Y-52886500D01*
X41050500Y-52823500D01*
X41050500Y-51181000D01*
X42070844Y-51181000D01*
X42089436Y-51405368D01*
X42144704Y-51623616D01*
X42146797Y-51628389D01*
X42146799Y-51628393D01*
X42222147Y-51800170D01*
X42235140Y-51829791D01*
X42358278Y-52018268D01*
X42361806Y-52022100D01*
X42507227Y-52180069D01*
X42507231Y-52180073D01*
X42510760Y-52183906D01*
X42688424Y-52322189D01*
X42886426Y-52429342D01*
X42891355Y-52431034D01*
X42891357Y-52431035D01*
X42992895Y-52465893D01*
X43099365Y-52502444D01*
X43321431Y-52539500D01*
X43541358Y-52539500D01*
X43546569Y-52539500D01*
X43768635Y-52502444D01*
X43981574Y-52429342D01*
X44179576Y-52322189D01*
X44357240Y-52183906D01*
X44509722Y-52018268D01*
X44598518Y-51882354D01*
X44644030Y-51840457D01*
X44704000Y-51825271D01*
X44763970Y-51840457D01*
X44809481Y-51882354D01*
X44898278Y-52018268D01*
X44901806Y-52022100D01*
X45047227Y-52180069D01*
X45047231Y-52180073D01*
X45050760Y-52183906D01*
X45228424Y-52322189D01*
X45426426Y-52429342D01*
X45431355Y-52431034D01*
X45431357Y-52431035D01*
X45532895Y-52465893D01*
X45639365Y-52502444D01*
X45861431Y-52539500D01*
X46081358Y-52539500D01*
X46086569Y-52539500D01*
X46308635Y-52502444D01*
X46521574Y-52429342D01*
X46719576Y-52322189D01*
X46897240Y-52183906D01*
X47049722Y-52018268D01*
X47172860Y-51829791D01*
X47263296Y-51623616D01*
X47318564Y-51405368D01*
X47337156Y-51181000D01*
X47318564Y-50956632D01*
X47263296Y-50738384D01*
X47172860Y-50532209D01*
X47049722Y-50343732D01*
X46988956Y-50277723D01*
X46900772Y-50181930D01*
X46900767Y-50181925D01*
X46897240Y-50178094D01*
X46719576Y-50039811D01*
X46715000Y-50037334D01*
X46714990Y-50037328D01*
X46685794Y-50021529D01*
X46637521Y-49975213D01*
X46619762Y-49910715D01*
X46637522Y-49846217D01*
X46685794Y-49799900D01*
X46714723Y-49784244D01*
X46723411Y-49778568D01*
X46892788Y-49646737D01*
X46900432Y-49639700D01*
X47045789Y-49481799D01*
X47052177Y-49473593D01*
X47169568Y-49293913D01*
X47174511Y-49284778D01*
X47260729Y-49088223D01*
X47264099Y-49078408D01*
X47307013Y-48908943D01*
X47307248Y-48897565D01*
X47296160Y-48895000D01*
X42111840Y-48895000D01*
X42100751Y-48897565D01*
X42100986Y-48908943D01*
X42143900Y-49078408D01*
X42147270Y-49088223D01*
X42233488Y-49284778D01*
X42238431Y-49293913D01*
X42355822Y-49473593D01*
X42362210Y-49481799D01*
X42507567Y-49639700D01*
X42515211Y-49646737D01*
X42684588Y-49778568D01*
X42693281Y-49784247D01*
X42722206Y-49799901D01*
X42770478Y-49846217D01*
X42788237Y-49910715D01*
X42770478Y-49975212D01*
X42722207Y-50021528D01*
X42721680Y-50021814D01*
X42693000Y-50037334D01*
X42692994Y-50037337D01*
X42688424Y-50039811D01*
X42684313Y-50043010D01*
X42684311Y-50043012D01*
X42514878Y-50174888D01*
X42514872Y-50174893D01*
X42510760Y-50178094D01*
X42507237Y-50181919D01*
X42507227Y-50181930D01*
X42361806Y-50339899D01*
X42361802Y-50339902D01*
X42358278Y-50343732D01*
X42355430Y-50348090D01*
X42355427Y-50348095D01*
X42269483Y-50479643D01*
X42235140Y-50532209D01*
X42233048Y-50536978D01*
X42233046Y-50536982D01*
X42146799Y-50733606D01*
X42146796Y-50733614D01*
X42144704Y-50738384D01*
X42089436Y-50956632D01*
X42089006Y-50961820D01*
X42089005Y-50961827D01*
X42071909Y-51168147D01*
X42070844Y-51181000D01*
X41050500Y-51181000D01*
X41050500Y-46101000D01*
X42070844Y-46101000D01*
X42071274Y-46106189D01*
X42081911Y-46234565D01*
X42089436Y-46325368D01*
X42144704Y-46543616D01*
X42146797Y-46548389D01*
X42146799Y-46548393D01*
X42213222Y-46699822D01*
X42235140Y-46749791D01*
X42358278Y-46938268D01*
X42407368Y-46991593D01*
X42507227Y-47100069D01*
X42507231Y-47100073D01*
X42510760Y-47103906D01*
X42688424Y-47242189D01*
X42693000Y-47244665D01*
X42693004Y-47244668D01*
X42693010Y-47244671D01*
X42722205Y-47260470D01*
X42770476Y-47306784D01*
X42788237Y-47371281D01*
X42770479Y-47435779D01*
X42722209Y-47482096D01*
X42693285Y-47497749D01*
X42684588Y-47503431D01*
X42515211Y-47635262D01*
X42507567Y-47642299D01*
X42362210Y-47800200D01*
X42355822Y-47808406D01*
X42238431Y-47988086D01*
X42233488Y-47997221D01*
X42147270Y-48193776D01*
X42143900Y-48203591D01*
X42100986Y-48373056D01*
X42100751Y-48384434D01*
X42111840Y-48387000D01*
X47296160Y-48387000D01*
X47307248Y-48384434D01*
X47307013Y-48373056D01*
X47264099Y-48203591D01*
X47260729Y-48193776D01*
X47174511Y-47997221D01*
X47169568Y-47988086D01*
X47052177Y-47808406D01*
X47045789Y-47800200D01*
X46900432Y-47642299D01*
X46892788Y-47635262D01*
X46723411Y-47503431D01*
X46714713Y-47497749D01*
X46685792Y-47482097D01*
X46637520Y-47435780D01*
X46619762Y-47371281D01*
X46637523Y-47306784D01*
X46685791Y-47260472D01*
X46719576Y-47242189D01*
X46897240Y-47103906D01*
X47049722Y-46938268D01*
X47172860Y-46749791D01*
X47263296Y-46543616D01*
X47318564Y-46325368D01*
X47337156Y-46101000D01*
X47318564Y-45876632D01*
X47263296Y-45658384D01*
X47172860Y-45452209D01*
X47049722Y-45263732D01*
X46988956Y-45197723D01*
X46900772Y-45101930D01*
X46900767Y-45101925D01*
X46897240Y-45098094D01*
X46719576Y-44959811D01*
X46714997Y-44957333D01*
X46714994Y-44957331D01*
X46686318Y-44941812D01*
X46638047Y-44895494D01*
X46620289Y-44830996D01*
X46638050Y-44766499D01*
X46686321Y-44720185D01*
X46716229Y-44704000D01*
X52680496Y-44704000D01*
X52700458Y-44893928D01*
X52702495Y-44900200D01*
X52702497Y-44900205D01*
X52757430Y-45069271D01*
X52757433Y-45069278D01*
X52759473Y-45075556D01*
X52854960Y-45240944D01*
X52879407Y-45268095D01*
X52971947Y-45370872D01*
X52982747Y-45382866D01*
X52988089Y-45386747D01*
X52988091Y-45386749D01*
X53031298Y-45418141D01*
X53137248Y-45495118D01*
X53311712Y-45572794D01*
X53357907Y-45582613D01*
X53383090Y-45587966D01*
X53441203Y-45617577D01*
X53476726Y-45672277D01*
X53480140Y-45737409D01*
X53450530Y-45795522D01*
X53403633Y-45847607D01*
X53400334Y-45853320D01*
X53400331Y-45853325D01*
X53316705Y-45998170D01*
X53313401Y-46003893D01*
X53311359Y-46010175D01*
X53311359Y-46010177D01*
X53296767Y-46055089D01*
X53257635Y-46175525D01*
X53256945Y-46182088D01*
X53256945Y-46182089D01*
X53241354Y-46330426D01*
X53238771Y-46355000D01*
X53257635Y-46534475D01*
X53259674Y-46540752D01*
X53259675Y-46540754D01*
X53272137Y-46579107D01*
X53313401Y-46706107D01*
X53403633Y-46862393D01*
X53524387Y-46996504D01*
X53670385Y-47102578D01*
X53835248Y-47175980D01*
X54011768Y-47213500D01*
X54185629Y-47213500D01*
X54192232Y-47213500D01*
X54368752Y-47175980D01*
X54533615Y-47102578D01*
X54679613Y-46996504D01*
X54800367Y-46862393D01*
X54890599Y-46706107D01*
X54946365Y-46534475D01*
X54965229Y-46355000D01*
X54951880Y-46228000D01*
X58826771Y-46228000D01*
X58845635Y-46407475D01*
X58901401Y-46579107D01*
X58991633Y-46735393D01*
X59112387Y-46869504D01*
X59258385Y-46975578D01*
X59423248Y-47048980D01*
X59599768Y-47086500D01*
X59773629Y-47086500D01*
X59780232Y-47086500D01*
X59956752Y-47048980D01*
X60121615Y-46975578D01*
X60267613Y-46869504D01*
X60388367Y-46735393D01*
X60478599Y-46579107D01*
X60534365Y-46407475D01*
X60553229Y-46228000D01*
X60534365Y-46048525D01*
X60478599Y-45876893D01*
X60388367Y-45720607D01*
X60267613Y-45586496D01*
X60121615Y-45480422D01*
X59956752Y-45407020D01*
X59950299Y-45405648D01*
X59950295Y-45405647D01*
X59786689Y-45370872D01*
X59786684Y-45370871D01*
X59780232Y-45369500D01*
X59599768Y-45369500D01*
X59593316Y-45370871D01*
X59593310Y-45370872D01*
X59429704Y-45405647D01*
X59429697Y-45405649D01*
X59423248Y-45407020D01*
X59417218Y-45409704D01*
X59417217Y-45409705D01*
X59264416Y-45477737D01*
X59264414Y-45477738D01*
X59258386Y-45480422D01*
X59253045Y-45484302D01*
X59253044Y-45484303D01*
X59117731Y-45582613D01*
X59117728Y-45582614D01*
X59112387Y-45586496D01*
X59107970Y-45591401D01*
X59107965Y-45591406D01*
X59035149Y-45672277D01*
X58991633Y-45720607D01*
X58988334Y-45726320D01*
X58988331Y-45726325D01*
X58981932Y-45737409D01*
X58901401Y-45876893D01*
X58899359Y-45883175D01*
X58899359Y-45883177D01*
X58858095Y-46010177D01*
X58845635Y-46048525D01*
X58844945Y-46055088D01*
X58844945Y-46055089D01*
X58832286Y-46175525D01*
X58826771Y-46228000D01*
X54951880Y-46228000D01*
X54946365Y-46175525D01*
X54890599Y-46003893D01*
X54800367Y-45847607D01*
X54679613Y-45713496D01*
X54533615Y-45607422D01*
X54368752Y-45534020D01*
X54362294Y-45532647D01*
X54362287Y-45532645D01*
X54330749Y-45525941D01*
X54272636Y-45496330D01*
X54237114Y-45441630D01*
X54233701Y-45376497D01*
X54263308Y-45318388D01*
X54333040Y-45240944D01*
X54428527Y-45075556D01*
X54487542Y-44893928D01*
X54507504Y-44704000D01*
X54487542Y-44514072D01*
X54428527Y-44332444D01*
X54333040Y-44167056D01*
X54205253Y-44025134D01*
X54199911Y-44021253D01*
X54199908Y-44021250D01*
X54122057Y-43964688D01*
X54050752Y-43912882D01*
X53876288Y-43835206D01*
X53869835Y-43833834D01*
X53869831Y-43833833D01*
X53781229Y-43815000D01*
X56413771Y-43815000D01*
X56432635Y-43994475D01*
X56434674Y-44000752D01*
X56434675Y-44000754D01*
X56444192Y-44030044D01*
X56488401Y-44166107D01*
X56578633Y-44322393D01*
X56699387Y-44456504D01*
X56845385Y-44562578D01*
X57010248Y-44635980D01*
X57186768Y-44673500D01*
X57360629Y-44673500D01*
X57367232Y-44673500D01*
X57543752Y-44635980D01*
X57708615Y-44562578D01*
X57854613Y-44456504D01*
X57975367Y-44322393D01*
X58065599Y-44166107D01*
X58121365Y-43994475D01*
X58140229Y-43815000D01*
X58121365Y-43635525D01*
X58065599Y-43463893D01*
X57975367Y-43307607D01*
X57854613Y-43173496D01*
X57708615Y-43067422D01*
X57641993Y-43037760D01*
X58588536Y-43037760D01*
X58608498Y-43227688D01*
X58610535Y-43233960D01*
X58610537Y-43233965D01*
X58665470Y-43403031D01*
X58665473Y-43403038D01*
X58667513Y-43409316D01*
X58763000Y-43574704D01*
X58890787Y-43716626D01*
X58896129Y-43720507D01*
X58896131Y-43720509D01*
X58934454Y-43748352D01*
X59045288Y-43828878D01*
X59219752Y-43906554D01*
X59406553Y-43946260D01*
X59590924Y-43946260D01*
X59597527Y-43946260D01*
X59784328Y-43906554D01*
X59958792Y-43828878D01*
X60113293Y-43716626D01*
X60241080Y-43574704D01*
X60336567Y-43409316D01*
X60395582Y-43227688D01*
X60415544Y-43037760D01*
X60403798Y-42926000D01*
X62128771Y-42926000D01*
X62147635Y-43105475D01*
X62149674Y-43111752D01*
X62149675Y-43111754D01*
X62168474Y-43169613D01*
X62203401Y-43277107D01*
X62293633Y-43433393D01*
X62414387Y-43567504D01*
X62560385Y-43673578D01*
X62725248Y-43746980D01*
X62901768Y-43784500D01*
X63075629Y-43784500D01*
X63082232Y-43784500D01*
X63258752Y-43746980D01*
X63423615Y-43673578D01*
X63569613Y-43567504D01*
X63690367Y-43433393D01*
X63780599Y-43277107D01*
X63836365Y-43105475D01*
X63855229Y-42926000D01*
X63836365Y-42746525D01*
X63780599Y-42574893D01*
X63690367Y-42418607D01*
X63689820Y-42418000D01*
X66700771Y-42418000D01*
X66719635Y-42597475D01*
X66775401Y-42769107D01*
X66865633Y-42925393D01*
X66986387Y-43059504D01*
X67132385Y-43165578D01*
X67297248Y-43238980D01*
X67385525Y-43257743D01*
X67439607Y-43283875D01*
X67475447Y-43332077D01*
X67484898Y-43391395D01*
X67470844Y-43561000D01*
X67471274Y-43566189D01*
X67486368Y-43748352D01*
X67489436Y-43785368D01*
X67544704Y-44003616D01*
X67546797Y-44008389D01*
X67546799Y-44008393D01*
X67613222Y-44159822D01*
X67635140Y-44209791D01*
X67758278Y-44398268D01*
X67761806Y-44402100D01*
X67907227Y-44560069D01*
X67907231Y-44560073D01*
X67910760Y-44563906D01*
X68088424Y-44702189D01*
X68121680Y-44720186D01*
X68169950Y-44766499D01*
X68187710Y-44830996D01*
X68169953Y-44895494D01*
X68121683Y-44941811D01*
X68093005Y-44957331D01*
X68092997Y-44957336D01*
X68088424Y-44959811D01*
X68084313Y-44963010D01*
X68084311Y-44963012D01*
X67914878Y-45094888D01*
X67914872Y-45094893D01*
X67910760Y-45098094D01*
X67907237Y-45101919D01*
X67907227Y-45101930D01*
X67761806Y-45259899D01*
X67761802Y-45259902D01*
X67758278Y-45263732D01*
X67755430Y-45268090D01*
X67755427Y-45268095D01*
X67637992Y-45447843D01*
X67635140Y-45452209D01*
X67633048Y-45456978D01*
X67633046Y-45456982D01*
X67546799Y-45653606D01*
X67546796Y-45653614D01*
X67544704Y-45658384D01*
X67543423Y-45663440D01*
X67543422Y-45663445D01*
X67498029Y-45842699D01*
X67489436Y-45876632D01*
X67489006Y-45881820D01*
X67489005Y-45881827D01*
X67478370Y-46010177D01*
X67470844Y-46101000D01*
X67471274Y-46106189D01*
X67481911Y-46234565D01*
X67489436Y-46325368D01*
X67544704Y-46543616D01*
X67546797Y-46548389D01*
X67546799Y-46548393D01*
X67613222Y-46699822D01*
X67635140Y-46749791D01*
X67758278Y-46938268D01*
X67807368Y-46991593D01*
X67907227Y-47100069D01*
X67907231Y-47100073D01*
X67910760Y-47103906D01*
X68088424Y-47242189D01*
X68093002Y-47244666D01*
X68093009Y-47244671D01*
X68121680Y-47260187D01*
X68169951Y-47306503D01*
X68187710Y-47371000D01*
X68169951Y-47435497D01*
X68121680Y-47481813D01*
X68093009Y-47497328D01*
X68092993Y-47497338D01*
X68088424Y-47499811D01*
X68084313Y-47503010D01*
X68084311Y-47503012D01*
X67914878Y-47634888D01*
X67914872Y-47634893D01*
X67910760Y-47638094D01*
X67907237Y-47641919D01*
X67907227Y-47641930D01*
X67761806Y-47799899D01*
X67761802Y-47799902D01*
X67758278Y-47803732D01*
X67755430Y-47808090D01*
X67755427Y-47808095D01*
X67637992Y-47987843D01*
X67635140Y-47992209D01*
X67633048Y-47996978D01*
X67633046Y-47996982D01*
X67546799Y-48193606D01*
X67546796Y-48193614D01*
X67544704Y-48198384D01*
X67489436Y-48416632D01*
X67489006Y-48421820D01*
X67489005Y-48421827D01*
X67471909Y-48628147D01*
X67470844Y-48641000D01*
X67489436Y-48865368D01*
X67544704Y-49083616D01*
X67546797Y-49088389D01*
X67546799Y-49088393D01*
X67622147Y-49260170D01*
X67635140Y-49289791D01*
X67758278Y-49478268D01*
X67761806Y-49482100D01*
X67907227Y-49640069D01*
X67907231Y-49640073D01*
X67910760Y-49643906D01*
X68088424Y-49782189D01*
X68093002Y-49784666D01*
X68093009Y-49784671D01*
X68121680Y-49800187D01*
X68169951Y-49846503D01*
X68187710Y-49911000D01*
X68169951Y-49975497D01*
X68121680Y-50021813D01*
X68093009Y-50037328D01*
X68092993Y-50037338D01*
X68088424Y-50039811D01*
X68084313Y-50043010D01*
X68084311Y-50043012D01*
X67914878Y-50174888D01*
X67914872Y-50174893D01*
X67910760Y-50178094D01*
X67907237Y-50181919D01*
X67907227Y-50181930D01*
X67761806Y-50339899D01*
X67761802Y-50339902D01*
X67758278Y-50343732D01*
X67755430Y-50348090D01*
X67755427Y-50348095D01*
X67669483Y-50479643D01*
X67635140Y-50532209D01*
X67633048Y-50536978D01*
X67633046Y-50536982D01*
X67546799Y-50733606D01*
X67546796Y-50733614D01*
X67544704Y-50738384D01*
X67489436Y-50956632D01*
X67489006Y-50961820D01*
X67489005Y-50961827D01*
X67471909Y-51168147D01*
X67470844Y-51181000D01*
X67489436Y-51405368D01*
X67544704Y-51623616D01*
X67546797Y-51628389D01*
X67546799Y-51628393D01*
X67622147Y-51800170D01*
X67635140Y-51829791D01*
X67758278Y-52018268D01*
X67761806Y-52022100D01*
X67907227Y-52180069D01*
X67907231Y-52180073D01*
X67910760Y-52183906D01*
X68088424Y-52322189D01*
X68286426Y-52429342D01*
X68291355Y-52431034D01*
X68291357Y-52431035D01*
X68392895Y-52465893D01*
X68499365Y-52502444D01*
X68721431Y-52539500D01*
X68941358Y-52539500D01*
X68946569Y-52539500D01*
X69168635Y-52502444D01*
X69381574Y-52429342D01*
X69579576Y-52322189D01*
X69757240Y-52183906D01*
X69909722Y-52018268D01*
X69998518Y-51882354D01*
X70044030Y-51840457D01*
X70104000Y-51825271D01*
X70163970Y-51840457D01*
X70209481Y-51882354D01*
X70298278Y-52018268D01*
X70301806Y-52022100D01*
X70447227Y-52180069D01*
X70447231Y-52180073D01*
X70450760Y-52183906D01*
X70628424Y-52322189D01*
X70826426Y-52429342D01*
X70831355Y-52431034D01*
X70831357Y-52431035D01*
X70932895Y-52465893D01*
X71039365Y-52502444D01*
X71261431Y-52539500D01*
X71481358Y-52539500D01*
X71486569Y-52539500D01*
X71708635Y-52502444D01*
X71921574Y-52429342D01*
X72119576Y-52322189D01*
X72297240Y-52183906D01*
X72449722Y-52018268D01*
X72572860Y-51829791D01*
X72663296Y-51623616D01*
X72718564Y-51405368D01*
X72737156Y-51181000D01*
X72718564Y-50956632D01*
X72663296Y-50738384D01*
X72572860Y-50532209D01*
X72449722Y-50343732D01*
X72388956Y-50277723D01*
X72300772Y-50181930D01*
X72300767Y-50181925D01*
X72297240Y-50178094D01*
X72119576Y-50039811D01*
X72115002Y-50037336D01*
X72114995Y-50037331D01*
X72086320Y-50021814D01*
X72038048Y-49975498D01*
X72020289Y-49911000D01*
X72038048Y-49846502D01*
X72086320Y-49800186D01*
X72086849Y-49799900D01*
X72119576Y-49782189D01*
X72297240Y-49643906D01*
X72449722Y-49478268D01*
X72572860Y-49289791D01*
X72663296Y-49083616D01*
X72718564Y-48865368D01*
X72737156Y-48641000D01*
X72718564Y-48416632D01*
X72663296Y-48198384D01*
X72572860Y-47992209D01*
X72449722Y-47803732D01*
X72388956Y-47737723D01*
X72300772Y-47641930D01*
X72300767Y-47641925D01*
X72297240Y-47638094D01*
X72119576Y-47499811D01*
X72115002Y-47497336D01*
X72114995Y-47497331D01*
X72086320Y-47481814D01*
X72038048Y-47435498D01*
X72020289Y-47371000D01*
X72038048Y-47306502D01*
X72086320Y-47260186D01*
X72114990Y-47244671D01*
X72119576Y-47242189D01*
X72297240Y-47103906D01*
X72449722Y-46938268D01*
X72572860Y-46749791D01*
X72663296Y-46543616D01*
X72718564Y-46325368D01*
X72737156Y-46101000D01*
X72718564Y-45876632D01*
X72663296Y-45658384D01*
X72572860Y-45452209D01*
X72449722Y-45263732D01*
X72388956Y-45197723D01*
X72300772Y-45101930D01*
X72300767Y-45101925D01*
X72297240Y-45098094D01*
X72119576Y-44959811D01*
X72114997Y-44957333D01*
X72114994Y-44957331D01*
X72086318Y-44941812D01*
X72038047Y-44895494D01*
X72020289Y-44830996D01*
X72038050Y-44766499D01*
X72086321Y-44720185D01*
X72119576Y-44702189D01*
X72297240Y-44563906D01*
X72449722Y-44398268D01*
X72572860Y-44209791D01*
X72663296Y-44003616D01*
X72718564Y-43785368D01*
X72737156Y-43561000D01*
X72718564Y-43336632D01*
X72663296Y-43118384D01*
X72572860Y-42912209D01*
X72449722Y-42723732D01*
X72388956Y-42657723D01*
X72300772Y-42561930D01*
X72300767Y-42561925D01*
X72297240Y-42558094D01*
X72119576Y-42419811D01*
X72115002Y-42417336D01*
X72114995Y-42417331D01*
X72086320Y-42401814D01*
X72038048Y-42355498D01*
X72020289Y-42291000D01*
X72038048Y-42226502D01*
X72086320Y-42180186D01*
X72102092Y-42171651D01*
X72119576Y-42162189D01*
X72297240Y-42023906D01*
X72449722Y-41858268D01*
X72572860Y-41669791D01*
X72663296Y-41463616D01*
X72718564Y-41245368D01*
X72737156Y-41021000D01*
X72718564Y-40796632D01*
X72663296Y-40578384D01*
X72572860Y-40372209D01*
X72449722Y-40183732D01*
X72343385Y-40068220D01*
X72300772Y-40021930D01*
X72300767Y-40021925D01*
X72297240Y-40018094D01*
X72119576Y-39879811D01*
X72115002Y-39877336D01*
X72114995Y-39877331D01*
X72086320Y-39861814D01*
X72038048Y-39815498D01*
X72020289Y-39751000D01*
X72038048Y-39686502D01*
X72086320Y-39640186D01*
X72086681Y-39639991D01*
X72119576Y-39622189D01*
X72297240Y-39483906D01*
X72449722Y-39318268D01*
X72572860Y-39129791D01*
X72663296Y-38923616D01*
X72718564Y-38705368D01*
X72737156Y-38481000D01*
X72718564Y-38256632D01*
X72663296Y-38038384D01*
X72572860Y-37832209D01*
X72449722Y-37643732D01*
X72350275Y-37535705D01*
X72300772Y-37481930D01*
X72300767Y-37481925D01*
X72297240Y-37478094D01*
X72119576Y-37339811D01*
X72115002Y-37337336D01*
X72114995Y-37337331D01*
X72086320Y-37321814D01*
X72038048Y-37275498D01*
X72020289Y-37211000D01*
X72038048Y-37146502D01*
X72086320Y-37100186D01*
X72114990Y-37084671D01*
X72119576Y-37082189D01*
X72297240Y-36943906D01*
X72449722Y-36778268D01*
X72572860Y-36589791D01*
X72663296Y-36383616D01*
X72718564Y-36165368D01*
X72737156Y-35941000D01*
X72718564Y-35716632D01*
X72663296Y-35498384D01*
X72572860Y-35292209D01*
X72449722Y-35103732D01*
X72306525Y-34948180D01*
X72277288Y-34894576D01*
X72276685Y-34833520D01*
X72304859Y-34779350D01*
X72355191Y-34744786D01*
X72470204Y-34701889D01*
X72587261Y-34614261D01*
X72674889Y-34497204D01*
X72725989Y-34360201D01*
X72732500Y-34299638D01*
X72732500Y-32502362D01*
X72725989Y-32441799D01*
X72674889Y-32304796D01*
X72587261Y-32187739D01*
X72543713Y-32155139D01*
X72477417Y-32105510D01*
X72477414Y-32105508D01*
X72470204Y-32100111D01*
X72461766Y-32096964D01*
X72461763Y-32096962D01*
X72340580Y-32051763D01*
X72340578Y-32051762D01*
X72333201Y-32049011D01*
X72325373Y-32048169D01*
X72325367Y-32048168D01*
X72275988Y-32042860D01*
X72275985Y-32042859D01*
X72272638Y-32042500D01*
X70475362Y-32042500D01*
X70472015Y-32042859D01*
X70472011Y-32042860D01*
X70422632Y-32048168D01*
X70422625Y-32048169D01*
X70414799Y-32049011D01*
X70407423Y-32051761D01*
X70407419Y-32051763D01*
X70286236Y-32096962D01*
X70286230Y-32096965D01*
X70277796Y-32100111D01*
X70270588Y-32105506D01*
X70270582Y-32105510D01*
X70167950Y-32182340D01*
X70167946Y-32182343D01*
X70160739Y-32187739D01*
X70155343Y-32194946D01*
X70155340Y-32194950D01*
X70078510Y-32297582D01*
X70078506Y-32297588D01*
X70073111Y-32304796D01*
X70069964Y-32313231D01*
X70069960Y-32313240D01*
X70029000Y-32423057D01*
X69992468Y-32475095D01*
X69935178Y-32502671D01*
X69871717Y-32498761D01*
X69818244Y-32464361D01*
X69760772Y-32401931D01*
X69760771Y-32401930D01*
X69757240Y-32398094D01*
X69579576Y-32259811D01*
X69574997Y-32257333D01*
X69574994Y-32257331D01*
X69386159Y-32155139D01*
X69386156Y-32155137D01*
X69381574Y-32152658D01*
X69376650Y-32150967D01*
X69376642Y-32150964D01*
X69173565Y-32081248D01*
X69173559Y-32081246D01*
X69168635Y-32079556D01*
X69163498Y-32078698D01*
X69163495Y-32078698D01*
X68951706Y-32043357D01*
X68951703Y-32043356D01*
X68946569Y-32042500D01*
X68721431Y-32042500D01*
X68716297Y-32043356D01*
X68716293Y-32043357D01*
X68504504Y-32078698D01*
X68504498Y-32078699D01*
X68499365Y-32079556D01*
X68494443Y-32081245D01*
X68494434Y-32081248D01*
X68291357Y-32150964D01*
X68291344Y-32150969D01*
X68286426Y-32152658D01*
X68281847Y-32155135D01*
X68281840Y-32155139D01*
X68093005Y-32257331D01*
X68092997Y-32257336D01*
X68088424Y-32259811D01*
X68084313Y-32263010D01*
X68084311Y-32263012D01*
X67914878Y-32394888D01*
X67914872Y-32394893D01*
X67910760Y-32398094D01*
X67907237Y-32401919D01*
X67907227Y-32401930D01*
X67761806Y-32559899D01*
X67761802Y-32559902D01*
X67758278Y-32563732D01*
X67755430Y-32568090D01*
X67755427Y-32568095D01*
X67637992Y-32747843D01*
X67635140Y-32752209D01*
X67633048Y-32756978D01*
X67633046Y-32756982D01*
X67546799Y-32953606D01*
X67546796Y-32953614D01*
X67544704Y-32958384D01*
X67489436Y-33176632D01*
X67489006Y-33181820D01*
X67489005Y-33181827D01*
X67471909Y-33388147D01*
X67470844Y-33401000D01*
X67489436Y-33625368D01*
X67490717Y-33630426D01*
X67528011Y-33777699D01*
X67544704Y-33843616D01*
X67546797Y-33848389D01*
X67546799Y-33848393D01*
X67618021Y-34010763D01*
X67635140Y-34049791D01*
X67758278Y-34238268D01*
X67761806Y-34242100D01*
X67907227Y-34400069D01*
X67907231Y-34400073D01*
X67910760Y-34403906D01*
X68088424Y-34542189D01*
X68093002Y-34544666D01*
X68093009Y-34544671D01*
X68121680Y-34560187D01*
X68169951Y-34606503D01*
X68187710Y-34671000D01*
X68169951Y-34735497D01*
X68121680Y-34781813D01*
X68093009Y-34797328D01*
X68092993Y-34797338D01*
X68088424Y-34799811D01*
X68084313Y-34803010D01*
X68084311Y-34803012D01*
X67914878Y-34934888D01*
X67914872Y-34934893D01*
X67910760Y-34938094D01*
X67907237Y-34941919D01*
X67907227Y-34941930D01*
X67761806Y-35099899D01*
X67761802Y-35099902D01*
X67758278Y-35103732D01*
X67755430Y-35108090D01*
X67755427Y-35108095D01*
X67642109Y-35281542D01*
X67635140Y-35292209D01*
X67633048Y-35296978D01*
X67633046Y-35296982D01*
X67546799Y-35493606D01*
X67546796Y-35493614D01*
X67544704Y-35498384D01*
X67543423Y-35503440D01*
X67543422Y-35503445D01*
X67492349Y-35705127D01*
X67489436Y-35716632D01*
X67489006Y-35721820D01*
X67489005Y-35721827D01*
X67478895Y-35843839D01*
X67470844Y-35941000D01*
X67489436Y-36165368D01*
X67490717Y-36170426D01*
X67542375Y-36374421D01*
X67544704Y-36383616D01*
X67546797Y-36388389D01*
X67546799Y-36388393D01*
X67606715Y-36524988D01*
X67635140Y-36589791D01*
X67758278Y-36778268D01*
X67761806Y-36782100D01*
X67907227Y-36940069D01*
X67907231Y-36940073D01*
X67910760Y-36943906D01*
X68088424Y-37082189D01*
X68093002Y-37084666D01*
X68093009Y-37084671D01*
X68121680Y-37100187D01*
X68169951Y-37146503D01*
X68187710Y-37211000D01*
X68169951Y-37275497D01*
X68121680Y-37321813D01*
X68093009Y-37337328D01*
X68092993Y-37337338D01*
X68088424Y-37339811D01*
X68084313Y-37343010D01*
X68084311Y-37343012D01*
X67914878Y-37474888D01*
X67914872Y-37474893D01*
X67910760Y-37478094D01*
X67907237Y-37481919D01*
X67907227Y-37481930D01*
X67761806Y-37639899D01*
X67761802Y-37639902D01*
X67758278Y-37643732D01*
X67755430Y-37648090D01*
X67755427Y-37648095D01*
X67669483Y-37779643D01*
X67635140Y-37832209D01*
X67633048Y-37836978D01*
X67633046Y-37836982D01*
X67546799Y-38033606D01*
X67546796Y-38033614D01*
X67544704Y-38038384D01*
X67543423Y-38043440D01*
X67543422Y-38043445D01*
X67510228Y-38174525D01*
X67489436Y-38256632D01*
X67489006Y-38261820D01*
X67489005Y-38261827D01*
X67479381Y-38377976D01*
X67470844Y-38481000D01*
X67471274Y-38486189D01*
X67488893Y-38698822D01*
X67489436Y-38705368D01*
X67544704Y-38923616D01*
X67546797Y-38928389D01*
X67546799Y-38928393D01*
X67589633Y-39026045D01*
X67635140Y-39129791D01*
X67758278Y-39318268D01*
X67808727Y-39373069D01*
X67907227Y-39480069D01*
X67907231Y-39480073D01*
X67910760Y-39483906D01*
X68088424Y-39622189D01*
X68093002Y-39624666D01*
X68093009Y-39624671D01*
X68121680Y-39640187D01*
X68169951Y-39686503D01*
X68187710Y-39751000D01*
X68169951Y-39815497D01*
X68121680Y-39861813D01*
X68093009Y-39877328D01*
X68092993Y-39877338D01*
X68088424Y-39879811D01*
X68084313Y-39883010D01*
X68084311Y-39883012D01*
X67914878Y-40014888D01*
X67914872Y-40014893D01*
X67910760Y-40018094D01*
X67907237Y-40021919D01*
X67907227Y-40021930D01*
X67761806Y-40179899D01*
X67761802Y-40179902D01*
X67758278Y-40183732D01*
X67755430Y-40188090D01*
X67755427Y-40188095D01*
X67699371Y-40273896D01*
X67635140Y-40372209D01*
X67633048Y-40376978D01*
X67633046Y-40376982D01*
X67546799Y-40573606D01*
X67546796Y-40573614D01*
X67544704Y-40578384D01*
X67543423Y-40583440D01*
X67543422Y-40583445D01*
X67495338Y-40773325D01*
X67489436Y-40796632D01*
X67489006Y-40801820D01*
X67489005Y-40801827D01*
X67478435Y-40929388D01*
X67470844Y-41021000D01*
X67471274Y-41026189D01*
X67485491Y-41197768D01*
X67489436Y-41245368D01*
X67490717Y-41250426D01*
X67531973Y-41413344D01*
X67530624Y-41480117D01*
X67495337Y-41536819D01*
X67436026Y-41567522D01*
X67303704Y-41595647D01*
X67303697Y-41595649D01*
X67297248Y-41597020D01*
X67291218Y-41599704D01*
X67291217Y-41599705D01*
X67138416Y-41667737D01*
X67138414Y-41667738D01*
X67132386Y-41670422D01*
X67127045Y-41674302D01*
X67127044Y-41674303D01*
X66991731Y-41772613D01*
X66991728Y-41772614D01*
X66986387Y-41776496D01*
X66981970Y-41781401D01*
X66981965Y-41781406D01*
X66870052Y-41905699D01*
X66865633Y-41910607D01*
X66862334Y-41916320D01*
X66862331Y-41916325D01*
X66798369Y-42027111D01*
X66775401Y-42066893D01*
X66773359Y-42073175D01*
X66773359Y-42073177D01*
X66730767Y-42204265D01*
X66719635Y-42238525D01*
X66718945Y-42245088D01*
X66718945Y-42245089D01*
X66711843Y-42312658D01*
X66700771Y-42418000D01*
X63689820Y-42418000D01*
X63569613Y-42284496D01*
X63423615Y-42178422D01*
X63258752Y-42105020D01*
X63252299Y-42103648D01*
X63252295Y-42103647D01*
X63088689Y-42068872D01*
X63088684Y-42068871D01*
X63082232Y-42067500D01*
X62901768Y-42067500D01*
X62895316Y-42068871D01*
X62895310Y-42068872D01*
X62731704Y-42103647D01*
X62731697Y-42103649D01*
X62725248Y-42105020D01*
X62719218Y-42107704D01*
X62719217Y-42107705D01*
X62566416Y-42175737D01*
X62566414Y-42175738D01*
X62560386Y-42178422D01*
X62555045Y-42182302D01*
X62555044Y-42182303D01*
X62419731Y-42280613D01*
X62419728Y-42280614D01*
X62414387Y-42284496D01*
X62409970Y-42289401D01*
X62409965Y-42289406D01*
X62298052Y-42413699D01*
X62293633Y-42418607D01*
X62290334Y-42424320D01*
X62290331Y-42424325D01*
X62249003Y-42495908D01*
X62203401Y-42574893D01*
X62201359Y-42581175D01*
X62201359Y-42581177D01*
X62155041Y-42723732D01*
X62147635Y-42746525D01*
X62146945Y-42753088D01*
X62146945Y-42753089D01*
X62129746Y-42916728D01*
X62128771Y-42926000D01*
X60403798Y-42926000D01*
X60395582Y-42847832D01*
X60336567Y-42666204D01*
X60241080Y-42500816D01*
X60113293Y-42358894D01*
X60107951Y-42355013D01*
X60107948Y-42355010D01*
X60005549Y-42280613D01*
X59958792Y-42246642D01*
X59784328Y-42168966D01*
X59777875Y-42167594D01*
X59777871Y-42167593D01*
X59603983Y-42130632D01*
X59603980Y-42130631D01*
X59597527Y-42129260D01*
X59406553Y-42129260D01*
X59400100Y-42130631D01*
X59400096Y-42130632D01*
X59226208Y-42167593D01*
X59226201Y-42167595D01*
X59219752Y-42168966D01*
X59213722Y-42171650D01*
X59213721Y-42171651D01*
X59051318Y-42243957D01*
X59051315Y-42243958D01*
X59045288Y-42246642D01*
X59039947Y-42250522D01*
X59039946Y-42250523D01*
X58896131Y-42355010D01*
X58896123Y-42355016D01*
X58890787Y-42358894D01*
X58886370Y-42363799D01*
X58886365Y-42363804D01*
X58767419Y-42495908D01*
X58763000Y-42500816D01*
X58759701Y-42506529D01*
X58759698Y-42506534D01*
X58670817Y-42660481D01*
X58667513Y-42666204D01*
X58665474Y-42672478D01*
X58665470Y-42672488D01*
X58610537Y-42841554D01*
X58610535Y-42841561D01*
X58608498Y-42847832D01*
X58607808Y-42854393D01*
X58607808Y-42854395D01*
X58593133Y-42994020D01*
X58588536Y-43037760D01*
X57641993Y-43037760D01*
X57543752Y-42994020D01*
X57537299Y-42992648D01*
X57537295Y-42992647D01*
X57373689Y-42957872D01*
X57373684Y-42957871D01*
X57367232Y-42956500D01*
X57186768Y-42956500D01*
X57180316Y-42957871D01*
X57180310Y-42957872D01*
X57016704Y-42992647D01*
X57016697Y-42992649D01*
X57010248Y-42994020D01*
X57004218Y-42996704D01*
X57004217Y-42996705D01*
X56851416Y-43064737D01*
X56851414Y-43064738D01*
X56845386Y-43067422D01*
X56840045Y-43071302D01*
X56840044Y-43071303D01*
X56704731Y-43169613D01*
X56704728Y-43169614D01*
X56699387Y-43173496D01*
X56694970Y-43178401D01*
X56694965Y-43178406D01*
X56606095Y-43277107D01*
X56578633Y-43307607D01*
X56575334Y-43313320D01*
X56575331Y-43313325D01*
X56509312Y-43427674D01*
X56488401Y-43463893D01*
X56486359Y-43470175D01*
X56486359Y-43470177D01*
X56452397Y-43574704D01*
X56432635Y-43635525D01*
X56431945Y-43642088D01*
X56431945Y-43642089D01*
X56416354Y-43790426D01*
X56413771Y-43815000D01*
X53781229Y-43815000D01*
X53695943Y-43796872D01*
X53695940Y-43796871D01*
X53689487Y-43795500D01*
X53498513Y-43795500D01*
X53492060Y-43796871D01*
X53492056Y-43796872D01*
X53318168Y-43833833D01*
X53318161Y-43833835D01*
X53311712Y-43835206D01*
X53305682Y-43837890D01*
X53305681Y-43837891D01*
X53143278Y-43910197D01*
X53143275Y-43910198D01*
X53137248Y-43912882D01*
X53131907Y-43916762D01*
X53131906Y-43916763D01*
X52988091Y-44021250D01*
X52988083Y-44021256D01*
X52982747Y-44025134D01*
X52978330Y-44030039D01*
X52978325Y-44030044D01*
X52859379Y-44162148D01*
X52854960Y-44167056D01*
X52851661Y-44172769D01*
X52851658Y-44172774D01*
X52799938Y-44262356D01*
X52759473Y-44332444D01*
X52757434Y-44338718D01*
X52757430Y-44338728D01*
X52702497Y-44507794D01*
X52702495Y-44507801D01*
X52700458Y-44514072D01*
X52699768Y-44520633D01*
X52699768Y-44520635D01*
X52695360Y-44562578D01*
X52680496Y-44704000D01*
X46716229Y-44704000D01*
X46719576Y-44702189D01*
X46897240Y-44563906D01*
X47049722Y-44398268D01*
X47172860Y-44209791D01*
X47263296Y-44003616D01*
X47318564Y-43785368D01*
X47337156Y-43561000D01*
X47318564Y-43336632D01*
X47263296Y-43118384D01*
X47172860Y-42912209D01*
X47049722Y-42723732D01*
X46988956Y-42657723D01*
X46900772Y-42561930D01*
X46900767Y-42561925D01*
X46897240Y-42558094D01*
X46719576Y-42419811D01*
X46714997Y-42417333D01*
X46714994Y-42417331D01*
X46686318Y-42401812D01*
X46638047Y-42355494D01*
X46620289Y-42290996D01*
X46638050Y-42226499D01*
X46686321Y-42180185D01*
X46719576Y-42162189D01*
X46897240Y-42023906D01*
X47049722Y-41858268D01*
X47172860Y-41669791D01*
X47263296Y-41463616D01*
X47311060Y-41275000D01*
X48920771Y-41275000D01*
X48921461Y-41281565D01*
X48927546Y-41339460D01*
X48939635Y-41454475D01*
X48995401Y-41626107D01*
X49085633Y-41782393D01*
X49206387Y-41916504D01*
X49352385Y-42022578D01*
X49517248Y-42095980D01*
X49693768Y-42133500D01*
X49700371Y-42133500D01*
X49826736Y-42133500D01*
X49893506Y-42152646D01*
X49939984Y-42204265D01*
X49952046Y-42272671D01*
X49936771Y-42418000D01*
X49955635Y-42597475D01*
X50011401Y-42769107D01*
X50101633Y-42925393D01*
X50222387Y-43059504D01*
X50368385Y-43165578D01*
X50533248Y-43238980D01*
X50709768Y-43276500D01*
X50883629Y-43276500D01*
X50890232Y-43276500D01*
X51066752Y-43238980D01*
X51231615Y-43165578D01*
X51377613Y-43059504D01*
X51498367Y-42925393D01*
X51588599Y-42769107D01*
X51644365Y-42597475D01*
X51663229Y-42418000D01*
X51644365Y-42238525D01*
X51588599Y-42066893D01*
X51498367Y-41910607D01*
X51377613Y-41776496D01*
X51231615Y-41670422D01*
X51066752Y-41597020D01*
X51060299Y-41595648D01*
X51060295Y-41595647D01*
X50896689Y-41560872D01*
X50896684Y-41560871D01*
X50890232Y-41559500D01*
X50757264Y-41559500D01*
X50690494Y-41540354D01*
X50644016Y-41488735D01*
X50631954Y-41420329D01*
X50646539Y-41281565D01*
X50647229Y-41275000D01*
X50630944Y-41120060D01*
X54342687Y-41120060D01*
X54343606Y-41127628D01*
X54360311Y-41265211D01*
X54360312Y-41265218D01*
X54361231Y-41272780D01*
X54363933Y-41279905D01*
X54363934Y-41279908D01*
X54413079Y-41409493D01*
X54413081Y-41409496D01*
X54415784Y-41416624D01*
X54420114Y-41422897D01*
X54420115Y-41422899D01*
X54459609Y-41480117D01*
X54503176Y-41543234D01*
X54541934Y-41577570D01*
X54603178Y-41631829D01*
X54618328Y-41645250D01*
X54754548Y-41716743D01*
X54903919Y-41753560D01*
X55050144Y-41753560D01*
X55057761Y-41753560D01*
X55207132Y-41716743D01*
X55271535Y-41682941D01*
X55330090Y-41668509D01*
X55388644Y-41682941D01*
X55411564Y-41694970D01*
X55446300Y-41713202D01*
X55446304Y-41713203D01*
X55453048Y-41716743D01*
X55602419Y-41753560D01*
X55748644Y-41753560D01*
X55756261Y-41753560D01*
X55793960Y-41744267D01*
X55830495Y-41735263D01*
X55890805Y-41735263D01*
X55939912Y-41747366D01*
X55953599Y-41750740D01*
X56099824Y-41750740D01*
X56107441Y-41750740D01*
X56256812Y-41713923D01*
X56393032Y-41642430D01*
X56508184Y-41540414D01*
X56595576Y-41413804D01*
X56598398Y-41406360D01*
X56598745Y-41405787D01*
X56601820Y-41399929D01*
X56602173Y-41400114D01*
X56621896Y-41367482D01*
X56657653Y-41339465D01*
X56742892Y-41294730D01*
X56858044Y-41192714D01*
X56945436Y-41066104D01*
X56999989Y-40922260D01*
X57018533Y-40769540D01*
X56999989Y-40616820D01*
X56999945Y-40616704D01*
X56999947Y-40571683D01*
X56998109Y-40571460D01*
X57015734Y-40426308D01*
X57016653Y-40418740D01*
X56998109Y-40266020D01*
X57000316Y-40265751D01*
X57000311Y-40221830D01*
X57000649Y-40220940D01*
X57019193Y-40068220D01*
X57000649Y-39915500D01*
X56946096Y-39771656D01*
X56858704Y-39645046D01*
X56829290Y-39618987D01*
X56749254Y-39548081D01*
X56749251Y-39548079D01*
X56743552Y-39543030D01*
X56736811Y-39539492D01*
X56736808Y-39539490D01*
X56614076Y-39475076D01*
X56614072Y-39475074D01*
X56607332Y-39471537D01*
X56514436Y-39448640D01*
X56465354Y-39436542D01*
X56465352Y-39436541D01*
X56457961Y-39434720D01*
X56304119Y-39434720D01*
X56296724Y-39436542D01*
X56296720Y-39436543D01*
X56238916Y-39450790D01*
X56178611Y-39450790D01*
X56111637Y-39434282D01*
X56111629Y-39434281D01*
X56104241Y-39432460D01*
X55950399Y-39432460D01*
X55943010Y-39434281D01*
X55943003Y-39434282D01*
X55884753Y-39448640D01*
X55824447Y-39448640D01*
X55766196Y-39434282D01*
X55766190Y-39434281D01*
X55758801Y-39432460D01*
X55604959Y-39432460D01*
X55597570Y-39434281D01*
X55597563Y-39434282D01*
X55536773Y-39449266D01*
X55476467Y-39449266D01*
X55415676Y-39434282D01*
X55415670Y-39434281D01*
X55408281Y-39432460D01*
X55254439Y-39432460D01*
X55247050Y-39434281D01*
X55247043Y-39434282D01*
X55186253Y-39449266D01*
X55125947Y-39449266D01*
X55065156Y-39434282D01*
X55065150Y-39434281D01*
X55057761Y-39432460D01*
X54903919Y-39432460D01*
X54896528Y-39434281D01*
X54896525Y-39434282D01*
X54761944Y-39467454D01*
X54754548Y-39469277D01*
X54747809Y-39472813D01*
X54747803Y-39472816D01*
X54625071Y-39537230D01*
X54625064Y-39537234D01*
X54618328Y-39540770D01*
X54612632Y-39545815D01*
X54612625Y-39545821D01*
X54508881Y-39637731D01*
X54508877Y-39637734D01*
X54503176Y-39642786D01*
X54498849Y-39649053D01*
X54498845Y-39649059D01*
X54420115Y-39763120D01*
X54420111Y-39763125D01*
X54415784Y-39769396D01*
X54413082Y-39776519D01*
X54413079Y-39776526D01*
X54363934Y-39906111D01*
X54363932Y-39906116D01*
X54361231Y-39913240D01*
X54360313Y-39920799D01*
X54360311Y-39920808D01*
X54348888Y-40014888D01*
X54342687Y-40065960D01*
X54360928Y-40216185D01*
X54361231Y-40218680D01*
X54360928Y-40218716D01*
X54360929Y-40268803D01*
X54361231Y-40268840D01*
X54360929Y-40271319D01*
X54360929Y-40271327D01*
X54360313Y-40276393D01*
X54360312Y-40276401D01*
X54348679Y-40372209D01*
X54342687Y-40421560D01*
X54355215Y-40524737D01*
X54361231Y-40574280D01*
X54359991Y-40574430D01*
X54359992Y-40616669D01*
X54361231Y-40616819D01*
X54361231Y-40616820D01*
X54342687Y-40769540D01*
X54343606Y-40777108D01*
X54361231Y-40922260D01*
X54360304Y-40922373D01*
X54360304Y-40967227D01*
X54361231Y-40967340D01*
X54342687Y-41120060D01*
X50630944Y-41120060D01*
X50628365Y-41095525D01*
X50572599Y-40923893D01*
X50482367Y-40767607D01*
X50361613Y-40633496D01*
X50215615Y-40527422D01*
X50050752Y-40454020D01*
X50044299Y-40452648D01*
X50044295Y-40452647D01*
X49880689Y-40417872D01*
X49880684Y-40417871D01*
X49874232Y-40416500D01*
X49693768Y-40416500D01*
X49687316Y-40417871D01*
X49687310Y-40417872D01*
X49523704Y-40452647D01*
X49523697Y-40452649D01*
X49517248Y-40454020D01*
X49511218Y-40456704D01*
X49511217Y-40456705D01*
X49358416Y-40524737D01*
X49358414Y-40524738D01*
X49352386Y-40527422D01*
X49347045Y-40531302D01*
X49347044Y-40531303D01*
X49211731Y-40629613D01*
X49211728Y-40629614D01*
X49206387Y-40633496D01*
X49201970Y-40638401D01*
X49201965Y-40638406D01*
X49090707Y-40761972D01*
X49085633Y-40767607D01*
X49082334Y-40773320D01*
X49082331Y-40773325D01*
X49000714Y-40914691D01*
X48995401Y-40923893D01*
X48993359Y-40930175D01*
X48993359Y-40930177D01*
X48947156Y-41072379D01*
X48939635Y-41095525D01*
X48938945Y-41102088D01*
X48938945Y-41102089D01*
X48923354Y-41250426D01*
X48920771Y-41275000D01*
X47311060Y-41275000D01*
X47318564Y-41245368D01*
X47337156Y-41021000D01*
X47318564Y-40796632D01*
X47263296Y-40578384D01*
X47172860Y-40372209D01*
X47049722Y-40183732D01*
X46943385Y-40068220D01*
X46900772Y-40021930D01*
X46900767Y-40021925D01*
X46897240Y-40018094D01*
X46719576Y-39879811D01*
X46715002Y-39877336D01*
X46714995Y-39877331D01*
X46686320Y-39861814D01*
X46638048Y-39815498D01*
X46620289Y-39751000D01*
X46638048Y-39686502D01*
X46686320Y-39640186D01*
X46686681Y-39639991D01*
X46719576Y-39622189D01*
X46897240Y-39483906D01*
X47049722Y-39318268D01*
X47161810Y-39146703D01*
X47208348Y-39104257D01*
X47269619Y-39089641D01*
X47319523Y-39103512D01*
X47320385Y-39101578D01*
X47485248Y-39174980D01*
X47661768Y-39212500D01*
X47835629Y-39212500D01*
X47842232Y-39212500D01*
X48018752Y-39174980D01*
X48151223Y-39116000D01*
X48870496Y-39116000D01*
X48871186Y-39122565D01*
X48884011Y-39244593D01*
X48890458Y-39305928D01*
X48892495Y-39312200D01*
X48892497Y-39312205D01*
X48947430Y-39481271D01*
X48947433Y-39481278D01*
X48949473Y-39487556D01*
X48984417Y-39548081D01*
X49037481Y-39639991D01*
X49044960Y-39652944D01*
X49055695Y-39664866D01*
X49158268Y-39778786D01*
X49172747Y-39794866D01*
X49327248Y-39907118D01*
X49501712Y-39984794D01*
X49688513Y-40024500D01*
X49872884Y-40024500D01*
X49879487Y-40024500D01*
X50066288Y-39984794D01*
X50240752Y-39907118D01*
X50395253Y-39794866D01*
X50523040Y-39652944D01*
X50618527Y-39487556D01*
X50677542Y-39305928D01*
X50697504Y-39116000D01*
X50687359Y-39019480D01*
X57211331Y-39019480D01*
X57230195Y-39198955D01*
X57232234Y-39205232D01*
X57232235Y-39205234D01*
X57263385Y-39301104D01*
X57285961Y-39370587D01*
X57376193Y-39526873D01*
X57496947Y-39660984D01*
X57642945Y-39767058D01*
X57807808Y-39840460D01*
X57984328Y-39877980D01*
X58158189Y-39877980D01*
X58164792Y-39877980D01*
X58341312Y-39840460D01*
X58506175Y-39767058D01*
X58652173Y-39660984D01*
X58772927Y-39526873D01*
X58863159Y-39370587D01*
X58918925Y-39198955D01*
X58937789Y-39019480D01*
X58918925Y-38840005D01*
X58863159Y-38668373D01*
X58828303Y-38608000D01*
X60096771Y-38608000D01*
X60115635Y-38787475D01*
X60117674Y-38793752D01*
X60117675Y-38793754D01*
X60148825Y-38889624D01*
X60171401Y-38959107D01*
X60261633Y-39115393D01*
X60382387Y-39249504D01*
X60528385Y-39355578D01*
X60693248Y-39428980D01*
X60869768Y-39466500D01*
X61043629Y-39466500D01*
X61050232Y-39466500D01*
X61226752Y-39428980D01*
X61391615Y-39355578D01*
X61537613Y-39249504D01*
X61658367Y-39115393D01*
X61748599Y-38959107D01*
X61804365Y-38787475D01*
X61823229Y-38608000D01*
X61804365Y-38428525D01*
X61748599Y-38256893D01*
X61658367Y-38100607D01*
X61537613Y-37966496D01*
X61391615Y-37860422D01*
X61226752Y-37787020D01*
X61220299Y-37785648D01*
X61220295Y-37785647D01*
X61056689Y-37750872D01*
X61056684Y-37750871D01*
X61050232Y-37749500D01*
X60869768Y-37749500D01*
X60863316Y-37750871D01*
X60863310Y-37750872D01*
X60699704Y-37785647D01*
X60699697Y-37785649D01*
X60693248Y-37787020D01*
X60687218Y-37789704D01*
X60687217Y-37789705D01*
X60534416Y-37857737D01*
X60534414Y-37857738D01*
X60528386Y-37860422D01*
X60523045Y-37864302D01*
X60523044Y-37864303D01*
X60387731Y-37962613D01*
X60387728Y-37962614D01*
X60382387Y-37966496D01*
X60377970Y-37971401D01*
X60377965Y-37971406D01*
X60266052Y-38095699D01*
X60261633Y-38100607D01*
X60258334Y-38106320D01*
X60258331Y-38106325D01*
X60174705Y-38251170D01*
X60171401Y-38256893D01*
X60169359Y-38263175D01*
X60169359Y-38263177D01*
X60130464Y-38382886D01*
X60115635Y-38428525D01*
X60114945Y-38435088D01*
X60114945Y-38435089D01*
X60109668Y-38485300D01*
X60096771Y-38608000D01*
X58828303Y-38608000D01*
X58772927Y-38512087D01*
X58652173Y-38377976D01*
X58506175Y-38271902D01*
X58341312Y-38198500D01*
X58334859Y-38197128D01*
X58334855Y-38197127D01*
X58171249Y-38162352D01*
X58171244Y-38162351D01*
X58164792Y-38160980D01*
X57984328Y-38160980D01*
X57977876Y-38162351D01*
X57977870Y-38162352D01*
X57814264Y-38197127D01*
X57814257Y-38197129D01*
X57807808Y-38198500D01*
X57801778Y-38201184D01*
X57801777Y-38201185D01*
X57648976Y-38269217D01*
X57648974Y-38269218D01*
X57642946Y-38271902D01*
X57637605Y-38275782D01*
X57637604Y-38275783D01*
X57502291Y-38374093D01*
X57502288Y-38374094D01*
X57496947Y-38377976D01*
X57492530Y-38382881D01*
X57492525Y-38382886D01*
X57380612Y-38507179D01*
X57376193Y-38512087D01*
X57372894Y-38517800D01*
X57372891Y-38517805D01*
X57317062Y-38614504D01*
X57285961Y-38668373D01*
X57283919Y-38674655D01*
X57283919Y-38674657D01*
X57233405Y-38830127D01*
X57230195Y-38840005D01*
X57211331Y-39019480D01*
X50687359Y-39019480D01*
X50677542Y-38926072D01*
X50618527Y-38744444D01*
X50523040Y-38579056D01*
X50395253Y-38437134D01*
X50389911Y-38433253D01*
X50389908Y-38433250D01*
X50271793Y-38347435D01*
X50240752Y-38324882D01*
X50066288Y-38247206D01*
X50059835Y-38245834D01*
X50059831Y-38245833D01*
X49885943Y-38208872D01*
X49885940Y-38208871D01*
X49879487Y-38207500D01*
X49688513Y-38207500D01*
X49682060Y-38208871D01*
X49682056Y-38208872D01*
X49508168Y-38245833D01*
X49508161Y-38245835D01*
X49501712Y-38247206D01*
X49495682Y-38249890D01*
X49495681Y-38249891D01*
X49333278Y-38322197D01*
X49333275Y-38322198D01*
X49327248Y-38324882D01*
X49321907Y-38328762D01*
X49321906Y-38328763D01*
X49178091Y-38433250D01*
X49178083Y-38433256D01*
X49172747Y-38437134D01*
X49168330Y-38442039D01*
X49168325Y-38442044D01*
X49049379Y-38574148D01*
X49044960Y-38579056D01*
X49041661Y-38584769D01*
X49041658Y-38584774D01*
X48965493Y-38716696D01*
X48949473Y-38744444D01*
X48947434Y-38750718D01*
X48947430Y-38750728D01*
X48892497Y-38919794D01*
X48892495Y-38919801D01*
X48890458Y-38926072D01*
X48889768Y-38932633D01*
X48889768Y-38932635D01*
X48879838Y-39027115D01*
X48870496Y-39116000D01*
X48151223Y-39116000D01*
X48183615Y-39101578D01*
X48329613Y-38995504D01*
X48450367Y-38861393D01*
X48540599Y-38705107D01*
X48596365Y-38533475D01*
X48615229Y-38354000D01*
X48596365Y-38174525D01*
X48540599Y-38002893D01*
X48523340Y-37973000D01*
X53873771Y-37973000D01*
X53892635Y-38152475D01*
X53894674Y-38158752D01*
X53894675Y-38158754D01*
X53910959Y-38208872D01*
X53948401Y-38324107D01*
X54038633Y-38480393D01*
X54159387Y-38614504D01*
X54305385Y-38720578D01*
X54470248Y-38793980D01*
X54646768Y-38831500D01*
X54820629Y-38831500D01*
X54827232Y-38831500D01*
X55003752Y-38793980D01*
X55168615Y-38720578D01*
X55314613Y-38614504D01*
X55435367Y-38480393D01*
X55525599Y-38324107D01*
X55581365Y-38152475D01*
X55600229Y-37973000D01*
X55581365Y-37793525D01*
X55525599Y-37621893D01*
X55435367Y-37465607D01*
X55314613Y-37331496D01*
X55168615Y-37225422D01*
X55003752Y-37152020D01*
X54997299Y-37150648D01*
X54997295Y-37150647D01*
X54833689Y-37115872D01*
X54833684Y-37115871D01*
X54827232Y-37114500D01*
X54646768Y-37114500D01*
X54640316Y-37115871D01*
X54640310Y-37115872D01*
X54476704Y-37150647D01*
X54476697Y-37150649D01*
X54470248Y-37152020D01*
X54464218Y-37154704D01*
X54464217Y-37154705D01*
X54311416Y-37222737D01*
X54311414Y-37222738D01*
X54305386Y-37225422D01*
X54300045Y-37229302D01*
X54300044Y-37229303D01*
X54164731Y-37327613D01*
X54164728Y-37327614D01*
X54159387Y-37331496D01*
X54154970Y-37336401D01*
X54154965Y-37336406D01*
X54043052Y-37460699D01*
X54038633Y-37465607D01*
X54035334Y-37471320D01*
X54035331Y-37471325D01*
X53951705Y-37616170D01*
X53948401Y-37621893D01*
X53946359Y-37628175D01*
X53946359Y-37628177D01*
X53894749Y-37787020D01*
X53892635Y-37793525D01*
X53873771Y-37973000D01*
X48523340Y-37973000D01*
X48450367Y-37846607D01*
X48329613Y-37712496D01*
X48183615Y-37606422D01*
X48018752Y-37533020D01*
X48012299Y-37531648D01*
X48012295Y-37531647D01*
X47848689Y-37496872D01*
X47848684Y-37496871D01*
X47842232Y-37495500D01*
X47661768Y-37495500D01*
X47655316Y-37496871D01*
X47655310Y-37496872D01*
X47491704Y-37531647D01*
X47491697Y-37531649D01*
X47485248Y-37533020D01*
X47479218Y-37535704D01*
X47479217Y-37535705D01*
X47326416Y-37603737D01*
X47326414Y-37603738D01*
X47320386Y-37606422D01*
X47315047Y-37610300D01*
X47315045Y-37610302D01*
X47227212Y-37674116D01*
X47167702Y-37697336D01*
X47104452Y-37688387D01*
X47053719Y-37649568D01*
X47052572Y-37648095D01*
X47049722Y-37643732D01*
X46950275Y-37535705D01*
X46900772Y-37481930D01*
X46900767Y-37481925D01*
X46897240Y-37478094D01*
X46719576Y-37339811D01*
X46715002Y-37337336D01*
X46714995Y-37337331D01*
X46686320Y-37321814D01*
X46638048Y-37275498D01*
X46620289Y-37211000D01*
X46638048Y-37146502D01*
X46686320Y-37100186D01*
X46714990Y-37084671D01*
X46719576Y-37082189D01*
X46897240Y-36943906D01*
X47049722Y-36778268D01*
X47172860Y-36589791D01*
X47263296Y-36383616D01*
X47318564Y-36165368D01*
X47330335Y-36023314D01*
X61157457Y-36023314D01*
X61176321Y-36202789D01*
X61232087Y-36374421D01*
X61322319Y-36530707D01*
X61443073Y-36664818D01*
X61589071Y-36770892D01*
X61753934Y-36844294D01*
X61930454Y-36881814D01*
X62104315Y-36881814D01*
X62110918Y-36881814D01*
X62287438Y-36844294D01*
X62452301Y-36770892D01*
X62598299Y-36664818D01*
X62719053Y-36530707D01*
X62809285Y-36374421D01*
X62865051Y-36202789D01*
X62883915Y-36023314D01*
X62865051Y-35843839D01*
X62809285Y-35672207D01*
X62719053Y-35515921D01*
X62598299Y-35381810D01*
X62452301Y-35275736D01*
X62287438Y-35202334D01*
X62280985Y-35200962D01*
X62280981Y-35200961D01*
X62117375Y-35166186D01*
X62117370Y-35166185D01*
X62110918Y-35164814D01*
X61930454Y-35164814D01*
X61924002Y-35166185D01*
X61923996Y-35166186D01*
X61760390Y-35200961D01*
X61760383Y-35200963D01*
X61753934Y-35202334D01*
X61747904Y-35205018D01*
X61747903Y-35205019D01*
X61595102Y-35273051D01*
X61595100Y-35273052D01*
X61589072Y-35275736D01*
X61583731Y-35279616D01*
X61583730Y-35279617D01*
X61448417Y-35377927D01*
X61448414Y-35377928D01*
X61443073Y-35381810D01*
X61438656Y-35386715D01*
X61438651Y-35386720D01*
X61338109Y-35498384D01*
X61322319Y-35515921D01*
X61319020Y-35521634D01*
X61319017Y-35521639D01*
X61241948Y-35655127D01*
X61232087Y-35672207D01*
X61230045Y-35678489D01*
X61230045Y-35678491D01*
X61215965Y-35721827D01*
X61176321Y-35843839D01*
X61157457Y-36023314D01*
X47330335Y-36023314D01*
X47337156Y-35941000D01*
X47318564Y-35716632D01*
X47263296Y-35498384D01*
X47172860Y-35292209D01*
X47049722Y-35103732D01*
X46906525Y-34948180D01*
X46877288Y-34894576D01*
X46876685Y-34833520D01*
X46904859Y-34779350D01*
X46955191Y-34744786D01*
X47070204Y-34701889D01*
X47187261Y-34614261D01*
X47274889Y-34497204D01*
X47325989Y-34360201D01*
X47332500Y-34299638D01*
X47332500Y-34290000D01*
X53492771Y-34290000D01*
X53511635Y-34469475D01*
X53513674Y-34475752D01*
X53513675Y-34475754D01*
X53522988Y-34504417D01*
X53567401Y-34641107D01*
X53657633Y-34797393D01*
X53778387Y-34931504D01*
X53924385Y-35037578D01*
X54089248Y-35110980D01*
X54265768Y-35148500D01*
X54439629Y-35148500D01*
X54446232Y-35148500D01*
X54622752Y-35110980D01*
X54787615Y-35037578D01*
X54933613Y-34931504D01*
X55053820Y-34798000D01*
X56744496Y-34798000D01*
X56745186Y-34804565D01*
X56758011Y-34926593D01*
X56764458Y-34987928D01*
X56766495Y-34994200D01*
X56766497Y-34994205D01*
X56821430Y-35163271D01*
X56821433Y-35163278D01*
X56823473Y-35169556D01*
X56918960Y-35334944D01*
X57046747Y-35476866D01*
X57052089Y-35480747D01*
X57052091Y-35480749D01*
X57076364Y-35498384D01*
X57201248Y-35589118D01*
X57375712Y-35666794D01*
X57562513Y-35706500D01*
X57746884Y-35706500D01*
X57753487Y-35706500D01*
X57940288Y-35666794D01*
X58114752Y-35589118D01*
X58261482Y-35482511D01*
X58309342Y-35461203D01*
X58361736Y-35461203D01*
X58409595Y-35482511D01*
X58496399Y-35545578D01*
X58661262Y-35618980D01*
X58837782Y-35656500D01*
X59011643Y-35656500D01*
X59018246Y-35656500D01*
X59194766Y-35618980D01*
X59359629Y-35545578D01*
X59505627Y-35439504D01*
X59626381Y-35305393D01*
X59716613Y-35149107D01*
X59772379Y-34977475D01*
X59791243Y-34798000D01*
X59772379Y-34618525D01*
X59716613Y-34446893D01*
X59626381Y-34290607D01*
X59505627Y-34156496D01*
X59359629Y-34050422D01*
X59194766Y-33977020D01*
X59188313Y-33975648D01*
X59188309Y-33975647D01*
X59024703Y-33940872D01*
X59024698Y-33940871D01*
X59018246Y-33939500D01*
X58837782Y-33939500D01*
X58831330Y-33940871D01*
X58831324Y-33940872D01*
X58667718Y-33975647D01*
X58667711Y-33975649D01*
X58661262Y-33977020D01*
X58655232Y-33979704D01*
X58655231Y-33979705D01*
X58502430Y-34047737D01*
X58502428Y-34047738D01*
X58496400Y-34050422D01*
X58491061Y-34054300D01*
X58491059Y-34054302D01*
X58409599Y-34113486D01*
X58361735Y-34134796D01*
X58309342Y-34134796D01*
X58261478Y-34113485D01*
X58236994Y-34095696D01*
X58114752Y-34006882D01*
X57940288Y-33929206D01*
X57933835Y-33927834D01*
X57933831Y-33927833D01*
X57759943Y-33890872D01*
X57759940Y-33890871D01*
X57753487Y-33889500D01*
X57562513Y-33889500D01*
X57556060Y-33890871D01*
X57556056Y-33890872D01*
X57382168Y-33927833D01*
X57382161Y-33927835D01*
X57375712Y-33929206D01*
X57369682Y-33931890D01*
X57369681Y-33931891D01*
X57207278Y-34004197D01*
X57207275Y-34004198D01*
X57201248Y-34006882D01*
X57195907Y-34010762D01*
X57195906Y-34010763D01*
X57052091Y-34115250D01*
X57052083Y-34115256D01*
X57046747Y-34119134D01*
X57042330Y-34124039D01*
X57042325Y-34124044D01*
X56939478Y-34238268D01*
X56918960Y-34261056D01*
X56915661Y-34266769D01*
X56915658Y-34266774D01*
X56836485Y-34403906D01*
X56823473Y-34426444D01*
X56821434Y-34432718D01*
X56821430Y-34432728D01*
X56766497Y-34601794D01*
X56766495Y-34601801D01*
X56764458Y-34608072D01*
X56763768Y-34614633D01*
X56763768Y-34614635D01*
X56754267Y-34705037D01*
X56744496Y-34798000D01*
X55053820Y-34798000D01*
X55054367Y-34797393D01*
X55144599Y-34641107D01*
X55200365Y-34469475D01*
X55219229Y-34290000D01*
X55200365Y-34110525D01*
X55144599Y-33938893D01*
X55054367Y-33782607D01*
X54933613Y-33648496D01*
X54787615Y-33542422D01*
X54622752Y-33469020D01*
X54616299Y-33467648D01*
X54616295Y-33467647D01*
X54452689Y-33432872D01*
X54452684Y-33432871D01*
X54446232Y-33431500D01*
X54265768Y-33431500D01*
X54259316Y-33432871D01*
X54259310Y-33432872D01*
X54095704Y-33467647D01*
X54095697Y-33467649D01*
X54089248Y-33469020D01*
X54083218Y-33471704D01*
X54083217Y-33471705D01*
X53930416Y-33539737D01*
X53930414Y-33539738D01*
X53924386Y-33542422D01*
X53919045Y-33546302D01*
X53919044Y-33546303D01*
X53783731Y-33644613D01*
X53783728Y-33644614D01*
X53778387Y-33648496D01*
X53773970Y-33653401D01*
X53773965Y-33653406D01*
X53662052Y-33777699D01*
X53657633Y-33782607D01*
X53654334Y-33788320D01*
X53654331Y-33788325D01*
X53570705Y-33933170D01*
X53567401Y-33938893D01*
X53565359Y-33945175D01*
X53565359Y-33945177D01*
X53529903Y-34054302D01*
X53511635Y-34110525D01*
X53492771Y-34290000D01*
X47332500Y-34290000D01*
X47332500Y-32502362D01*
X47325989Y-32441799D01*
X47274889Y-32304796D01*
X47187261Y-32187739D01*
X47143713Y-32155139D01*
X47077417Y-32105510D01*
X47077414Y-32105508D01*
X47070204Y-32100111D01*
X47061766Y-32096964D01*
X47061763Y-32096962D01*
X46940580Y-32051763D01*
X46940578Y-32051762D01*
X46933201Y-32049011D01*
X46925373Y-32048169D01*
X46925367Y-32048168D01*
X46875988Y-32042860D01*
X46875985Y-32042859D01*
X46872638Y-32042500D01*
X45075362Y-32042500D01*
X45072015Y-32042859D01*
X45072011Y-32042860D01*
X45022632Y-32048168D01*
X45022625Y-32048169D01*
X45014799Y-32049011D01*
X45007423Y-32051761D01*
X45007419Y-32051763D01*
X44886236Y-32096962D01*
X44886230Y-32096965D01*
X44877796Y-32100111D01*
X44870588Y-32105506D01*
X44870582Y-32105510D01*
X44767950Y-32182340D01*
X44767946Y-32182343D01*
X44760739Y-32187739D01*
X44755343Y-32194946D01*
X44755340Y-32194950D01*
X44678510Y-32297582D01*
X44678506Y-32297588D01*
X44673111Y-32304796D01*
X44669964Y-32313231D01*
X44669960Y-32313240D01*
X44629000Y-32423057D01*
X44592468Y-32475095D01*
X44535178Y-32502671D01*
X44471717Y-32498761D01*
X44418244Y-32464361D01*
X44360772Y-32401931D01*
X44360771Y-32401930D01*
X44357240Y-32398094D01*
X44179576Y-32259811D01*
X44174997Y-32257333D01*
X44174994Y-32257331D01*
X43986159Y-32155139D01*
X43986156Y-32155137D01*
X43981574Y-32152658D01*
X43976650Y-32150967D01*
X43976642Y-32150964D01*
X43773565Y-32081248D01*
X43773559Y-32081246D01*
X43768635Y-32079556D01*
X43763498Y-32078698D01*
X43763495Y-32078698D01*
X43551706Y-32043357D01*
X43551703Y-32043356D01*
X43546569Y-32042500D01*
X43321431Y-32042500D01*
X43316297Y-32043356D01*
X43316293Y-32043357D01*
X43104504Y-32078698D01*
X43104498Y-32078699D01*
X43099365Y-32079556D01*
X43094443Y-32081245D01*
X43094434Y-32081248D01*
X42891357Y-32150964D01*
X42891344Y-32150969D01*
X42886426Y-32152658D01*
X42881847Y-32155135D01*
X42881840Y-32155139D01*
X42693005Y-32257331D01*
X42692997Y-32257336D01*
X42688424Y-32259811D01*
X42684313Y-32263010D01*
X42684311Y-32263012D01*
X42514878Y-32394888D01*
X42514872Y-32394893D01*
X42510760Y-32398094D01*
X42507237Y-32401919D01*
X42507227Y-32401930D01*
X42361806Y-32559899D01*
X42361802Y-32559902D01*
X42358278Y-32563732D01*
X42355430Y-32568090D01*
X42355427Y-32568095D01*
X42237992Y-32747843D01*
X42235140Y-32752209D01*
X42233048Y-32756978D01*
X42233046Y-32756982D01*
X42146799Y-32953606D01*
X42146796Y-32953614D01*
X42144704Y-32958384D01*
X42089436Y-33176632D01*
X42089006Y-33181820D01*
X42089005Y-33181827D01*
X42071909Y-33388147D01*
X42070844Y-33401000D01*
X42089436Y-33625368D01*
X42090717Y-33630426D01*
X42128011Y-33777699D01*
X42144704Y-33843616D01*
X42146797Y-33848389D01*
X42146799Y-33848393D01*
X42218021Y-34010763D01*
X42235140Y-34049791D01*
X42358278Y-34238268D01*
X42361806Y-34242100D01*
X42507227Y-34400069D01*
X42507231Y-34400073D01*
X42510760Y-34403906D01*
X42688424Y-34542189D01*
X42693002Y-34544666D01*
X42693009Y-34544671D01*
X42721680Y-34560187D01*
X42769951Y-34606503D01*
X42787710Y-34671000D01*
X42769951Y-34735497D01*
X42721680Y-34781813D01*
X42693009Y-34797328D01*
X42692993Y-34797338D01*
X42688424Y-34799811D01*
X42684313Y-34803010D01*
X42684311Y-34803012D01*
X42514878Y-34934888D01*
X42514872Y-34934893D01*
X42510760Y-34938094D01*
X42507237Y-34941919D01*
X42507227Y-34941930D01*
X42361806Y-35099899D01*
X42361802Y-35099902D01*
X42358278Y-35103732D01*
X42355430Y-35108090D01*
X42355427Y-35108095D01*
X42242109Y-35281542D01*
X42235140Y-35292209D01*
X42233048Y-35296978D01*
X42233046Y-35296982D01*
X42146799Y-35493606D01*
X42146796Y-35493614D01*
X42144704Y-35498384D01*
X42143423Y-35503440D01*
X42143422Y-35503445D01*
X42092349Y-35705127D01*
X42089436Y-35716632D01*
X42089006Y-35721820D01*
X42089005Y-35721827D01*
X42078895Y-35843839D01*
X42070844Y-35941000D01*
X42089436Y-36165368D01*
X42090717Y-36170426D01*
X42142375Y-36374421D01*
X42144704Y-36383616D01*
X42146797Y-36388389D01*
X42146799Y-36388393D01*
X42206715Y-36524988D01*
X42235140Y-36589791D01*
X42358278Y-36778268D01*
X42361806Y-36782100D01*
X42507227Y-36940069D01*
X42507231Y-36940073D01*
X42510760Y-36943906D01*
X42688424Y-37082189D01*
X42693002Y-37084666D01*
X42693009Y-37084671D01*
X42721680Y-37100187D01*
X42769951Y-37146503D01*
X42787710Y-37211000D01*
X42769951Y-37275497D01*
X42721680Y-37321813D01*
X42693009Y-37337328D01*
X42692993Y-37337338D01*
X42688424Y-37339811D01*
X42684313Y-37343010D01*
X42684311Y-37343012D01*
X42514878Y-37474888D01*
X42514872Y-37474893D01*
X42510760Y-37478094D01*
X42507237Y-37481919D01*
X42507227Y-37481930D01*
X42361806Y-37639899D01*
X42361802Y-37639902D01*
X42358278Y-37643732D01*
X42355430Y-37648090D01*
X42355427Y-37648095D01*
X42269483Y-37779643D01*
X42235140Y-37832209D01*
X42233048Y-37836978D01*
X42233046Y-37836982D01*
X42146799Y-38033606D01*
X42146796Y-38033614D01*
X42144704Y-38038384D01*
X42143423Y-38043440D01*
X42143422Y-38043445D01*
X42110228Y-38174525D01*
X42089436Y-38256632D01*
X42089006Y-38261820D01*
X42089005Y-38261827D01*
X42079381Y-38377976D01*
X42070844Y-38481000D01*
X42071274Y-38486189D01*
X42088893Y-38698822D01*
X42089436Y-38705368D01*
X42144704Y-38923616D01*
X42146797Y-38928389D01*
X42146799Y-38928393D01*
X42189633Y-39026045D01*
X42235140Y-39129791D01*
X42358278Y-39318268D01*
X42408727Y-39373069D01*
X42507227Y-39480069D01*
X42507231Y-39480073D01*
X42510760Y-39483906D01*
X42688424Y-39622189D01*
X42693002Y-39624666D01*
X42693009Y-39624671D01*
X42721680Y-39640187D01*
X42769951Y-39686503D01*
X42787710Y-39751000D01*
X42769951Y-39815497D01*
X42721680Y-39861813D01*
X42693009Y-39877328D01*
X42692993Y-39877338D01*
X42688424Y-39879811D01*
X42684313Y-39883010D01*
X42684311Y-39883012D01*
X42514878Y-40014888D01*
X42514872Y-40014893D01*
X42510760Y-40018094D01*
X42507237Y-40021919D01*
X42507227Y-40021930D01*
X42361806Y-40179899D01*
X42361802Y-40179902D01*
X42358278Y-40183732D01*
X42355430Y-40188090D01*
X42355427Y-40188095D01*
X42299371Y-40273896D01*
X42235140Y-40372209D01*
X42233048Y-40376978D01*
X42233046Y-40376982D01*
X42146799Y-40573606D01*
X42146796Y-40573614D01*
X42144704Y-40578384D01*
X42143423Y-40583440D01*
X42143422Y-40583445D01*
X42095338Y-40773325D01*
X42089436Y-40796632D01*
X42089006Y-40801820D01*
X42089005Y-40801827D01*
X42078435Y-40929388D01*
X42070844Y-41021000D01*
X42071274Y-41026189D01*
X42085491Y-41197768D01*
X42089436Y-41245368D01*
X42090717Y-41250426D01*
X42130206Y-41406367D01*
X42144704Y-41463616D01*
X42146797Y-41468389D01*
X42146799Y-41468393D01*
X42176875Y-41536960D01*
X42235140Y-41669791D01*
X42358278Y-41858268D01*
X42361806Y-41862100D01*
X42507227Y-42020069D01*
X42507231Y-42020073D01*
X42510760Y-42023906D01*
X42688424Y-42162189D01*
X42721680Y-42180186D01*
X42769950Y-42226499D01*
X42787710Y-42290996D01*
X42769953Y-42355494D01*
X42721683Y-42401811D01*
X42693005Y-42417331D01*
X42692997Y-42417336D01*
X42688424Y-42419811D01*
X42684313Y-42423010D01*
X42684311Y-42423012D01*
X42514878Y-42554888D01*
X42514872Y-42554893D01*
X42510760Y-42558094D01*
X42507237Y-42561919D01*
X42507227Y-42561930D01*
X42361806Y-42719899D01*
X42361802Y-42719902D01*
X42358278Y-42723732D01*
X42355430Y-42728090D01*
X42355427Y-42728095D01*
X42269483Y-42859643D01*
X42235140Y-42912209D01*
X42233048Y-42916978D01*
X42233046Y-42916982D01*
X42146799Y-43113606D01*
X42146796Y-43113614D01*
X42144704Y-43118384D01*
X42143423Y-43123440D01*
X42143422Y-43123445D01*
X42104510Y-43277107D01*
X42089436Y-43336632D01*
X42089006Y-43341820D01*
X42089005Y-43341827D01*
X42078370Y-43470177D01*
X42070844Y-43561000D01*
X42071274Y-43566189D01*
X42086368Y-43748352D01*
X42089436Y-43785368D01*
X42144704Y-44003616D01*
X42146797Y-44008389D01*
X42146799Y-44008393D01*
X42213222Y-44159822D01*
X42235140Y-44209791D01*
X42358278Y-44398268D01*
X42361806Y-44402100D01*
X42507227Y-44560069D01*
X42507231Y-44560073D01*
X42510760Y-44563906D01*
X42688424Y-44702189D01*
X42721680Y-44720186D01*
X42769950Y-44766499D01*
X42787710Y-44830996D01*
X42769953Y-44895494D01*
X42721683Y-44941811D01*
X42693005Y-44957331D01*
X42692997Y-44957336D01*
X42688424Y-44959811D01*
X42684313Y-44963010D01*
X42684311Y-44963012D01*
X42514878Y-45094888D01*
X42514872Y-45094893D01*
X42510760Y-45098094D01*
X42507237Y-45101919D01*
X42507227Y-45101930D01*
X42361806Y-45259899D01*
X42361802Y-45259902D01*
X42358278Y-45263732D01*
X42355430Y-45268090D01*
X42355427Y-45268095D01*
X42237992Y-45447843D01*
X42235140Y-45452209D01*
X42233048Y-45456978D01*
X42233046Y-45456982D01*
X42146799Y-45653606D01*
X42146796Y-45653614D01*
X42144704Y-45658384D01*
X42143423Y-45663440D01*
X42143422Y-45663445D01*
X42098029Y-45842699D01*
X42089436Y-45876632D01*
X42089006Y-45881820D01*
X42089005Y-45881827D01*
X42078370Y-46010177D01*
X42070844Y-46101000D01*
X41050500Y-46101000D01*
X41050500Y-31176500D01*
X41067381Y-31113500D01*
X41113500Y-31067381D01*
X41176500Y-31050500D01*
X73823500Y-31050500D01*
X73886500Y-31067381D01*
G37*
G04 #@! TD.AperFunction*
M02*
