G04 #@! TF.GenerationSoftware,KiCad,Pcbnew,7.0.0*
G04 #@! TF.CreationDate,2024-03-13T15:51:31+01:00*
G04 #@! TF.ProjectId,breakoutBoard_extended,62726561-6b6f-4757-9442-6f6172645f65,rev?*
G04 #@! TF.SameCoordinates,Original*
G04 #@! TF.FileFunction,Legend,Top*
G04 #@! TF.FilePolarity,Positive*
%FSLAX46Y46*%
G04 Gerber Fmt 4.6, Leading zero omitted, Abs format (unit mm)*
G04 Created by KiCad (PCBNEW 7.0.0) date 2024-03-13 15:51:31*
%MOMM*%
%LPD*%
G01*
G04 APERTURE LIST*
%ADD10C,0.000000*%
%ADD11C,0.100000*%
%ADD12C,0.150000*%
%ADD13C,0.120000*%
%ADD14C,0.200000*%
G04 APERTURE END LIST*
D10*
G36*
X64278727Y-39088615D02*
G01*
X64290541Y-39089463D01*
X64301980Y-39090876D01*
X64313043Y-39092854D01*
X64323733Y-39095398D01*
X64334049Y-39098506D01*
X64343993Y-39102180D01*
X64353566Y-39106419D01*
X64362769Y-39111224D01*
X64371603Y-39116593D01*
X64380069Y-39122528D01*
X64388168Y-39129028D01*
X64395901Y-39136093D01*
X64403268Y-39143723D01*
X64410272Y-39151919D01*
X64416913Y-39160679D01*
X64423277Y-39169974D01*
X64429234Y-39179774D01*
X64434784Y-39190079D01*
X64439925Y-39200890D01*
X64444659Y-39212208D01*
X64448983Y-39224035D01*
X64452898Y-39236372D01*
X64456403Y-39249218D01*
X64459497Y-39262576D01*
X64462180Y-39276447D01*
X64464452Y-39290830D01*
X64466312Y-39305729D01*
X64467760Y-39321142D01*
X64468795Y-39337072D01*
X64469416Y-39353520D01*
X64469623Y-39370486D01*
X64469416Y-39387458D01*
X64468795Y-39403921D01*
X64467760Y-39419877D01*
X64466312Y-39435324D01*
X64464452Y-39450261D01*
X64462180Y-39464688D01*
X64459497Y-39478605D01*
X64456403Y-39492012D01*
X64452898Y-39504906D01*
X64448983Y-39517289D01*
X64444659Y-39529160D01*
X64439925Y-39540518D01*
X64434784Y-39551362D01*
X64429234Y-39561692D01*
X64423277Y-39571508D01*
X64416913Y-39580809D01*
X64410272Y-39589570D01*
X64403268Y-39597765D01*
X64395901Y-39605396D01*
X64388168Y-39612461D01*
X64380069Y-39618961D01*
X64371603Y-39624895D01*
X64362769Y-39630265D01*
X64353566Y-39635069D01*
X64343993Y-39639308D01*
X64334049Y-39642982D01*
X64323733Y-39646091D01*
X64313043Y-39648634D01*
X64301980Y-39650612D01*
X64290541Y-39652025D01*
X64278727Y-39652873D01*
X64266535Y-39653156D01*
X64254438Y-39652873D01*
X64242694Y-39652025D01*
X64231304Y-39650612D01*
X64220268Y-39648634D01*
X64209587Y-39646091D01*
X64199260Y-39642982D01*
X64189290Y-39639308D01*
X64179675Y-39635069D01*
X64170417Y-39630265D01*
X64161516Y-39624895D01*
X64152973Y-39618961D01*
X64144788Y-39612461D01*
X64136962Y-39605396D01*
X64129495Y-39597765D01*
X64122387Y-39589570D01*
X64115640Y-39580809D01*
X64109382Y-39571508D01*
X64103528Y-39561692D01*
X64098077Y-39551362D01*
X64093031Y-39540518D01*
X64088388Y-39529160D01*
X64084149Y-39517289D01*
X64080314Y-39504906D01*
X64076882Y-39492012D01*
X64073854Y-39478605D01*
X64071230Y-39464688D01*
X64069009Y-39450261D01*
X64067193Y-39435324D01*
X64065780Y-39419877D01*
X64064770Y-39403921D01*
X64064165Y-39387458D01*
X64063963Y-39370486D01*
X64064165Y-39353520D01*
X64064770Y-39337072D01*
X64065780Y-39321142D01*
X64067193Y-39305729D01*
X64069009Y-39290830D01*
X64071230Y-39276447D01*
X64073854Y-39262576D01*
X64076882Y-39249218D01*
X64080314Y-39236372D01*
X64084149Y-39224035D01*
X64088388Y-39212208D01*
X64093031Y-39200890D01*
X64098077Y-39190079D01*
X64103528Y-39179774D01*
X64109382Y-39169974D01*
X64115640Y-39160679D01*
X64122387Y-39151919D01*
X64129495Y-39143723D01*
X64136962Y-39136093D01*
X64144788Y-39129028D01*
X64152973Y-39122528D01*
X64161516Y-39116593D01*
X64170417Y-39111224D01*
X64179675Y-39106419D01*
X64189290Y-39102180D01*
X64199260Y-39098506D01*
X64209587Y-39095398D01*
X64220268Y-39092854D01*
X64231304Y-39090876D01*
X64242694Y-39089463D01*
X64254438Y-39088615D01*
X64266535Y-39088333D01*
X64278727Y-39088615D01*
G37*
G36*
X65768000Y-36388263D02*
G01*
X65776924Y-36388937D01*
X65785678Y-36389882D01*
X65794264Y-36391097D01*
X65802681Y-36392582D01*
X65810929Y-36394337D01*
X65819007Y-36396363D01*
X65826917Y-36398658D01*
X65834658Y-36401225D01*
X65842230Y-36404061D01*
X65849632Y-36407168D01*
X65856865Y-36410546D01*
X65863928Y-36414194D01*
X65870823Y-36418113D01*
X65877547Y-36422303D01*
X65884102Y-36426764D01*
X65890488Y-36431495D01*
X65896704Y-36436498D01*
X65902750Y-36441771D01*
X65908626Y-36447316D01*
X65914332Y-36453132D01*
X65919869Y-36459218D01*
X65925235Y-36465577D01*
X65930431Y-36472206D01*
X65935458Y-36479107D01*
X65940314Y-36486280D01*
X65944999Y-36493723D01*
X65949515Y-36501439D01*
X65953860Y-36509426D01*
X65962038Y-36526216D01*
X65969773Y-36544178D01*
X65977002Y-36563701D01*
X65983725Y-36584784D01*
X65989943Y-36607428D01*
X65995659Y-36631635D01*
X66000872Y-36657403D01*
X66009796Y-36713629D01*
X66016722Y-36776110D01*
X66021660Y-36844849D01*
X66024617Y-36919852D01*
X66025600Y-37001122D01*
X66025355Y-37042990D01*
X66024617Y-37083285D01*
X66023385Y-37122006D01*
X66021660Y-37159155D01*
X66019439Y-37194730D01*
X66016722Y-37228732D01*
X66013508Y-37261161D01*
X66009796Y-37292017D01*
X66005584Y-37321300D01*
X66000872Y-37349009D01*
X65995659Y-37375146D01*
X65989943Y-37399709D01*
X65983725Y-37422699D01*
X65977002Y-37444116D01*
X65969773Y-37463959D01*
X65962038Y-37482230D01*
X65953718Y-37499169D01*
X65944736Y-37515019D01*
X65935090Y-37529780D01*
X65924783Y-37543450D01*
X65913814Y-37556029D01*
X65902185Y-37567518D01*
X65889894Y-37577914D01*
X65876944Y-37587219D01*
X65863335Y-37595430D01*
X65849067Y-37602549D01*
X65834140Y-37608573D01*
X65818555Y-37613504D01*
X65802313Y-37617339D01*
X65785414Y-37620080D01*
X65767859Y-37621724D01*
X65749648Y-37622272D01*
X65731293Y-37621724D01*
X65722366Y-37621039D01*
X65713606Y-37620080D01*
X65705014Y-37618846D01*
X65696589Y-37617339D01*
X65688331Y-37615558D01*
X65680240Y-37613504D01*
X65672317Y-37611175D01*
X65664560Y-37608573D01*
X65656971Y-37605698D01*
X65649549Y-37602549D01*
X65642294Y-37599126D01*
X65635207Y-37595430D01*
X65628287Y-37591461D01*
X65621534Y-37587219D01*
X65614948Y-37582703D01*
X65608529Y-37577914D01*
X65602277Y-37572853D01*
X65596193Y-37567518D01*
X65590276Y-37561910D01*
X65584526Y-37556029D01*
X65578944Y-37549876D01*
X65573528Y-37543450D01*
X65568280Y-37536751D01*
X65563199Y-37529780D01*
X65558285Y-37522536D01*
X65553539Y-37515019D01*
X65544547Y-37499169D01*
X65536224Y-37482230D01*
X65528484Y-37463959D01*
X65521239Y-37444116D01*
X65514490Y-37422699D01*
X65508238Y-37399709D01*
X65502484Y-37375146D01*
X65497227Y-37349009D01*
X65488209Y-37292017D01*
X65481187Y-37228732D01*
X65476167Y-37159155D01*
X65473152Y-37083285D01*
X65472146Y-37001122D01*
X65472397Y-36959703D01*
X65473152Y-36919852D01*
X65474409Y-36881568D01*
X65476167Y-36844849D01*
X65478427Y-36809697D01*
X65481187Y-36776110D01*
X65484448Y-36744087D01*
X65488209Y-36713629D01*
X65492468Y-36684734D01*
X65497227Y-36657403D01*
X65502484Y-36631635D01*
X65508238Y-36607428D01*
X65514490Y-36584784D01*
X65521239Y-36563701D01*
X65528484Y-36544178D01*
X65536224Y-36526216D01*
X65544547Y-36509426D01*
X65553539Y-36493723D01*
X65563199Y-36479107D01*
X65573528Y-36465577D01*
X65584526Y-36453132D01*
X65596193Y-36441771D01*
X65608529Y-36431495D01*
X65621534Y-36422303D01*
X65635207Y-36414194D01*
X65649549Y-36407168D01*
X65664560Y-36401225D01*
X65680240Y-36396363D01*
X65696589Y-36392582D01*
X65713606Y-36389882D01*
X65731293Y-36388263D01*
X65749648Y-36387723D01*
X65768000Y-36388263D01*
G37*
G36*
X48442586Y-31889435D02*
G01*
X48851526Y-31889435D01*
X49445886Y-33576000D01*
X49062346Y-33576000D01*
X48955666Y-33228036D01*
X48333366Y-33228036D01*
X48213986Y-33576000D01*
X47840606Y-33576000D01*
X48068159Y-32938464D01*
X48424806Y-32938464D01*
X48854066Y-32938464D01*
X48643244Y-32267913D01*
X48640706Y-32267913D01*
X48424806Y-32938464D01*
X48068159Y-32938464D01*
X48442586Y-31889435D01*
G37*
D11*
G36*
X73738000Y-52676000D02*
G01*
X70438000Y-52676000D01*
X71088000Y-52126000D01*
X71338000Y-52276000D01*
X71838000Y-52276000D01*
X72338000Y-52076000D01*
X72638000Y-51676000D01*
X72738000Y-51376000D01*
X72738000Y-50876000D01*
X72638000Y-50676000D01*
X73738000Y-49676000D01*
X73738000Y-52676000D01*
G37*
X73738000Y-52676000D02*
X70438000Y-52676000D01*
X71088000Y-52126000D01*
X71338000Y-52276000D01*
X71838000Y-52276000D01*
X72338000Y-52076000D01*
X72638000Y-51676000D01*
X72738000Y-51376000D01*
X72738000Y-50876000D01*
X72638000Y-50676000D01*
X73738000Y-49676000D01*
X73738000Y-52676000D01*
D10*
G36*
X50618341Y-33767913D02*
G01*
X50642427Y-33769732D01*
X50666154Y-33772729D01*
X50689494Y-33776874D01*
X50712418Y-33782138D01*
X50734895Y-33788491D01*
X50756897Y-33795905D01*
X50778394Y-33804350D01*
X50799358Y-33813796D01*
X50819759Y-33824215D01*
X50839567Y-33835577D01*
X50858754Y-33847854D01*
X50877290Y-33861015D01*
X50895146Y-33875032D01*
X50912293Y-33889875D01*
X50928701Y-33905515D01*
X50944342Y-33921923D01*
X50959185Y-33939069D01*
X50973202Y-33956925D01*
X50986364Y-33975461D01*
X50998641Y-33994647D01*
X51010003Y-34014456D01*
X51020423Y-34034856D01*
X51029869Y-34055820D01*
X51038314Y-34077317D01*
X51045728Y-34099319D01*
X51052082Y-34121796D01*
X51057346Y-34144720D01*
X51061491Y-34168060D01*
X51064488Y-34191788D01*
X51066307Y-34215874D01*
X51066920Y-34240289D01*
X51066920Y-35393688D01*
X51066307Y-35418103D01*
X51064488Y-35442189D01*
X51061491Y-35465917D01*
X51057346Y-35489257D01*
X51052082Y-35512180D01*
X51045728Y-35534658D01*
X51038314Y-35556660D01*
X51029869Y-35578157D01*
X51020423Y-35599121D01*
X51010003Y-35619521D01*
X50998641Y-35639329D01*
X50986364Y-35658516D01*
X50973202Y-35677052D01*
X50959185Y-35694908D01*
X50944342Y-35712054D01*
X50928702Y-35728462D01*
X50912293Y-35744102D01*
X50895147Y-35758945D01*
X50877290Y-35772962D01*
X50858754Y-35786123D01*
X50839567Y-35798399D01*
X50819759Y-35809762D01*
X50799358Y-35820181D01*
X50778395Y-35829627D01*
X50756897Y-35838072D01*
X50734895Y-35845485D01*
X50712418Y-35851839D01*
X50689494Y-35857102D01*
X50666154Y-35861247D01*
X50642427Y-35864244D01*
X50618341Y-35866064D01*
X50593926Y-35866677D01*
X48313600Y-35866677D01*
X48289185Y-35866064D01*
X48265100Y-35864244D01*
X48241372Y-35861247D01*
X48218032Y-35857102D01*
X48195109Y-35851839D01*
X48172631Y-35845485D01*
X48150629Y-35838072D01*
X48129132Y-35829627D01*
X48108168Y-35820181D01*
X48087767Y-35809762D01*
X48067959Y-35798399D01*
X48048772Y-35786123D01*
X48030236Y-35772962D01*
X48012380Y-35758945D01*
X47995233Y-35744102D01*
X47978825Y-35728462D01*
X47963184Y-35712054D01*
X47948341Y-35694908D01*
X47934324Y-35677052D01*
X47921162Y-35658516D01*
X47908886Y-35639329D01*
X47897523Y-35619521D01*
X47887104Y-35599121D01*
X47877657Y-35578157D01*
X47869212Y-35556660D01*
X47861798Y-35534658D01*
X47855445Y-35512180D01*
X47850181Y-35489257D01*
X47846036Y-35465917D01*
X47843039Y-35442189D01*
X47841219Y-35418103D01*
X47840606Y-35393688D01*
X47840606Y-34240289D01*
X47841219Y-34215874D01*
X47843039Y-34191788D01*
X47846036Y-34168060D01*
X47850181Y-34144720D01*
X47855445Y-34121796D01*
X47856926Y-34116555D01*
X48088963Y-34116555D01*
X48603350Y-35505309D01*
X49030301Y-35505309D01*
X49704678Y-35505309D01*
X50713919Y-35505309D01*
X50713919Y-35242077D01*
X50102793Y-35242077D01*
X50399520Y-34981618D01*
X50444473Y-34941499D01*
X50485386Y-34903478D01*
X50504328Y-34885253D01*
X50522259Y-34867551D01*
X50539180Y-34850373D01*
X50555091Y-34833718D01*
X50569992Y-34817587D01*
X50583883Y-34801978D01*
X50596764Y-34786891D01*
X50608635Y-34772328D01*
X50619495Y-34758286D01*
X50629346Y-34744766D01*
X50638186Y-34731769D01*
X50646016Y-34719292D01*
X50653112Y-34706911D01*
X50659751Y-34694415D01*
X50665931Y-34681802D01*
X50671654Y-34669074D01*
X50676919Y-34656230D01*
X50681726Y-34643270D01*
X50686075Y-34630193D01*
X50689967Y-34616999D01*
X50693400Y-34603689D01*
X50696376Y-34590262D01*
X50698894Y-34576717D01*
X50700954Y-34563055D01*
X50702557Y-34549276D01*
X50703701Y-34535378D01*
X50704388Y-34521363D01*
X50704617Y-34507229D01*
X50704076Y-34483033D01*
X50702451Y-34459513D01*
X50699744Y-34436669D01*
X50695955Y-34414501D01*
X50691082Y-34393009D01*
X50685127Y-34372192D01*
X50678089Y-34352052D01*
X50669968Y-34332588D01*
X50660764Y-34313799D01*
X50650478Y-34295686D01*
X50639109Y-34278250D01*
X50626656Y-34261489D01*
X50613122Y-34245404D01*
X50598504Y-34229995D01*
X50582804Y-34215262D01*
X50566021Y-34201205D01*
X50548376Y-34187923D01*
X50529860Y-34175497D01*
X50510472Y-34163926D01*
X50490211Y-34153211D01*
X50469079Y-34143351D01*
X50447074Y-34134348D01*
X50424198Y-34126201D01*
X50400449Y-34118910D01*
X50375829Y-34112477D01*
X50350336Y-34106900D01*
X50323971Y-34102181D01*
X50296735Y-34098319D01*
X50268626Y-34095315D01*
X50239645Y-34093169D01*
X50209792Y-34091881D01*
X50179068Y-34091451D01*
X50179067Y-34091397D01*
X50150624Y-34091734D01*
X50122036Y-34092743D01*
X50093302Y-34094424D01*
X50064423Y-34096773D01*
X50035398Y-34099789D01*
X50006229Y-34103470D01*
X49976914Y-34107815D01*
X49947453Y-34112820D01*
X49917877Y-34118253D01*
X49888213Y-34124294D01*
X49858462Y-34130942D01*
X49828624Y-34138198D01*
X49798698Y-34146062D01*
X49768685Y-34154534D01*
X49738585Y-34163613D01*
X49708398Y-34173300D01*
X49708398Y-34478390D01*
X49736550Y-34461253D01*
X49764267Y-34445231D01*
X49791547Y-34430321D01*
X49818391Y-34416520D01*
X49844800Y-34403824D01*
X49870772Y-34392232D01*
X49896308Y-34381739D01*
X49921408Y-34372344D01*
X49946043Y-34363830D01*
X49958176Y-34360000D01*
X49970184Y-34356455D01*
X49982070Y-34353195D01*
X49993831Y-34350219D01*
X50005469Y-34347527D01*
X50016984Y-34345119D01*
X50028375Y-34342995D01*
X50039642Y-34341154D01*
X50050786Y-34339598D01*
X50061807Y-34338324D01*
X50072704Y-34337334D01*
X50083477Y-34336627D01*
X50094127Y-34336203D01*
X50104653Y-34336062D01*
X50118086Y-34336295D01*
X50131178Y-34336994D01*
X50143928Y-34338159D01*
X50156336Y-34339789D01*
X50168403Y-34341885D01*
X50180128Y-34344447D01*
X50191512Y-34347473D01*
X50202554Y-34350965D01*
X50213255Y-34354923D01*
X50223614Y-34359345D01*
X50233632Y-34364232D01*
X50243308Y-34369583D01*
X50252642Y-34375400D01*
X50261635Y-34381681D01*
X50270286Y-34388426D01*
X50278596Y-34395635D01*
X50286593Y-34403221D01*
X50294075Y-34411108D01*
X50301040Y-34419293D01*
X50307490Y-34427777D01*
X50313423Y-34436561D01*
X50318841Y-34445643D01*
X50323742Y-34455023D01*
X50328128Y-34464701D01*
X50331998Y-34474677D01*
X50335352Y-34484951D01*
X50338189Y-34495521D01*
X50340511Y-34506389D01*
X50342317Y-34517553D01*
X50343607Y-34529013D01*
X50344381Y-34540770D01*
X50344639Y-34552822D01*
X50344512Y-34560714D01*
X50344130Y-34568568D01*
X50343494Y-34576385D01*
X50342604Y-34584165D01*
X50341460Y-34591908D01*
X50340061Y-34599614D01*
X50338408Y-34607283D01*
X50336500Y-34614915D01*
X50334338Y-34622511D01*
X50331922Y-34630070D01*
X50329251Y-34637593D01*
X50326326Y-34645079D01*
X50323147Y-34652529D01*
X50319713Y-34659942D01*
X50316025Y-34667319D01*
X50312083Y-34674660D01*
X50307875Y-34681999D01*
X50303392Y-34689358D01*
X50298632Y-34696739D01*
X50293596Y-34704140D01*
X50288283Y-34711562D01*
X50282695Y-34719006D01*
X50276830Y-34726472D01*
X50270690Y-34733959D01*
X50264273Y-34741468D01*
X50257580Y-34748999D01*
X50250611Y-34756553D01*
X50243366Y-34764129D01*
X50235845Y-34771727D01*
X50228047Y-34779348D01*
X50219974Y-34786992D01*
X50211624Y-34794659D01*
X49704678Y-35242077D01*
X49704678Y-35505309D01*
X49030301Y-35505309D01*
X49544688Y-34116555D01*
X49184710Y-34116555D01*
X48817290Y-35141607D01*
X48448941Y-34116555D01*
X48088963Y-34116555D01*
X47856926Y-34116555D01*
X47861798Y-34099319D01*
X47869212Y-34077317D01*
X47877657Y-34055820D01*
X47887104Y-34034856D01*
X47897523Y-34014456D01*
X47908886Y-33994647D01*
X47921162Y-33975461D01*
X47934324Y-33956925D01*
X47948341Y-33939069D01*
X47963184Y-33921923D01*
X47978825Y-33905515D01*
X47995233Y-33889875D01*
X48012380Y-33875032D01*
X48030236Y-33861015D01*
X48048772Y-33847854D01*
X48067959Y-33835577D01*
X48087767Y-33824215D01*
X48108168Y-33813796D01*
X48129132Y-33804350D01*
X48150629Y-33795905D01*
X48172631Y-33788491D01*
X48195109Y-33782138D01*
X48218032Y-33776874D01*
X48241372Y-33772729D01*
X48265100Y-33769732D01*
X48289185Y-33767913D01*
X48313600Y-33767300D01*
X50593926Y-33767300D01*
X50618341Y-33767913D01*
G37*
G36*
X52717398Y-33001965D02*
G01*
X52717724Y-33021266D01*
X52718699Y-33040110D01*
X52720317Y-33058487D01*
X52722572Y-33076387D01*
X52725457Y-33093799D01*
X52728967Y-33110714D01*
X52733096Y-33127122D01*
X52737837Y-33143011D01*
X52743184Y-33158372D01*
X52749132Y-33173194D01*
X52755675Y-33187467D01*
X52762805Y-33201182D01*
X52770518Y-33214327D01*
X52778807Y-33226893D01*
X52787667Y-33238869D01*
X52797090Y-33250245D01*
X52807072Y-33261011D01*
X52817606Y-33271157D01*
X52828685Y-33280672D01*
X52840305Y-33289546D01*
X52852459Y-33297769D01*
X52865140Y-33305331D01*
X52878343Y-33312221D01*
X52892062Y-33318429D01*
X52906291Y-33323945D01*
X52921024Y-33328759D01*
X52936254Y-33332860D01*
X52951976Y-33336239D01*
X52968183Y-33338885D01*
X52984870Y-33340787D01*
X53002030Y-33341936D01*
X53019658Y-33342321D01*
X53060705Y-33341069D01*
X53080225Y-33339502D01*
X53099077Y-33337306D01*
X53117261Y-33334479D01*
X53134778Y-33331020D01*
X53151628Y-33326927D01*
X53167811Y-33322200D01*
X53183328Y-33316836D01*
X53198180Y-33310835D01*
X53212367Y-33304195D01*
X53225889Y-33296914D01*
X53238747Y-33288992D01*
X53250941Y-33280426D01*
X53262472Y-33271215D01*
X53273340Y-33261359D01*
X53283546Y-33250855D01*
X53293090Y-33239702D01*
X53301973Y-33227899D01*
X53310195Y-33215445D01*
X53317757Y-33202337D01*
X53324658Y-33188575D01*
X53330900Y-33174157D01*
X53336483Y-33159082D01*
X53341408Y-33143348D01*
X53345674Y-33126955D01*
X53349283Y-33109900D01*
X53352234Y-33092182D01*
X53354529Y-33073800D01*
X53356168Y-33054752D01*
X53357150Y-33035037D01*
X53357478Y-33014654D01*
X53357478Y-31889435D01*
X53718158Y-31889435D01*
X53718158Y-33014654D01*
X53717423Y-33052411D01*
X53715226Y-33089005D01*
X53711578Y-33124434D01*
X53706490Y-33158695D01*
X53699973Y-33191785D01*
X53692039Y-33223704D01*
X53682698Y-33254447D01*
X53671962Y-33284013D01*
X53659842Y-33312400D01*
X53646349Y-33339606D01*
X53631494Y-33365627D01*
X53615288Y-33390461D01*
X53597743Y-33414107D01*
X53578870Y-33436562D01*
X53558680Y-33457823D01*
X53537183Y-33477889D01*
X53514392Y-33496757D01*
X53490317Y-33514424D01*
X53464970Y-33530888D01*
X53438361Y-33546148D01*
X53410503Y-33560200D01*
X53381405Y-33573042D01*
X53351079Y-33584673D01*
X53319537Y-33595089D01*
X53286789Y-33604288D01*
X53252847Y-33612268D01*
X53217722Y-33619027D01*
X53181424Y-33624562D01*
X53105358Y-33631953D01*
X53024738Y-33634420D01*
X52949873Y-33632153D01*
X52913828Y-33629313D01*
X52878733Y-33625331D01*
X52844607Y-33620203D01*
X52811469Y-33613925D01*
X52779339Y-33606494D01*
X52748235Y-33597905D01*
X52718177Y-33588156D01*
X52689183Y-33577242D01*
X52661273Y-33565160D01*
X52634466Y-33551905D01*
X52608780Y-33537475D01*
X52584236Y-33521866D01*
X52560851Y-33505073D01*
X52538645Y-33487094D01*
X52517638Y-33467923D01*
X52497847Y-33447559D01*
X52479293Y-33425997D01*
X52461994Y-33403233D01*
X52445969Y-33379263D01*
X52431238Y-33354084D01*
X52417819Y-33327693D01*
X52405732Y-33300085D01*
X52394995Y-33271256D01*
X52385628Y-33241204D01*
X52377650Y-33209924D01*
X52371080Y-33177413D01*
X52365936Y-33143666D01*
X52362239Y-33108681D01*
X52360006Y-33072453D01*
X52359258Y-33034979D01*
X52359258Y-31889435D01*
X52717398Y-31889435D01*
X52717398Y-33001965D01*
G37*
G36*
X63277965Y-39379271D02*
G01*
X62925531Y-39379271D01*
X63102265Y-38867674D01*
X63277965Y-39379271D01*
G37*
G36*
X55732373Y-32143438D02*
G01*
X55663437Y-32223039D01*
X55598562Y-32304590D01*
X55537756Y-32387957D01*
X55481032Y-32473005D01*
X55428401Y-32559601D01*
X55379874Y-32647611D01*
X55335462Y-32736901D01*
X55295176Y-32827337D01*
X55259027Y-32918785D01*
X55227027Y-33011111D01*
X55199187Y-33104181D01*
X55175518Y-33197860D01*
X55156031Y-33292016D01*
X55140737Y-33386514D01*
X55129647Y-33481220D01*
X55122773Y-33576000D01*
X54782413Y-33576000D01*
X54791431Y-33484881D01*
X54804196Y-33393562D01*
X54820705Y-33302198D01*
X54840952Y-33210947D01*
X54864935Y-33119963D01*
X54892650Y-33029405D01*
X54924093Y-32939426D01*
X54959261Y-32850185D01*
X54998149Y-32761837D01*
X55040754Y-32674539D01*
X55087072Y-32588446D01*
X55137100Y-32503715D01*
X55190834Y-32420502D01*
X55248270Y-32338963D01*
X55309404Y-32259255D01*
X55374233Y-32181533D01*
X54551273Y-32181533D01*
X54551273Y-31889435D01*
X55732373Y-31889435D01*
X55732373Y-32143438D01*
G37*
G36*
X65422326Y-39088615D02*
G01*
X65434141Y-39089463D01*
X65445579Y-39090876D01*
X65456643Y-39092854D01*
X65467332Y-39095398D01*
X65477648Y-39098506D01*
X65487592Y-39102180D01*
X65497166Y-39106419D01*
X65506369Y-39111224D01*
X65515203Y-39116593D01*
X65523669Y-39122528D01*
X65531767Y-39129028D01*
X65539500Y-39136093D01*
X65546868Y-39143723D01*
X65553872Y-39151919D01*
X65560512Y-39160679D01*
X65566876Y-39169974D01*
X65572833Y-39179774D01*
X65578383Y-39190079D01*
X65583525Y-39200890D01*
X65588258Y-39212208D01*
X65592582Y-39224035D01*
X65596497Y-39236372D01*
X65600002Y-39249218D01*
X65603096Y-39262576D01*
X65605780Y-39276447D01*
X65608052Y-39290830D01*
X65609912Y-39305729D01*
X65611360Y-39321142D01*
X65612394Y-39337072D01*
X65613015Y-39353520D01*
X65613222Y-39370486D01*
X65613015Y-39387458D01*
X65612394Y-39403921D01*
X65611360Y-39419877D01*
X65609912Y-39435324D01*
X65608052Y-39450261D01*
X65605780Y-39464688D01*
X65603096Y-39478605D01*
X65600002Y-39492012D01*
X65596497Y-39504906D01*
X65592582Y-39517289D01*
X65588258Y-39529160D01*
X65583525Y-39540518D01*
X65578383Y-39551362D01*
X65572833Y-39561692D01*
X65566876Y-39571508D01*
X65560512Y-39580809D01*
X65553872Y-39589570D01*
X65546868Y-39597765D01*
X65539500Y-39605396D01*
X65531767Y-39612461D01*
X65523669Y-39618961D01*
X65515203Y-39624895D01*
X65506369Y-39630265D01*
X65497166Y-39635069D01*
X65487592Y-39639308D01*
X65477648Y-39642982D01*
X65467332Y-39646091D01*
X65456643Y-39648634D01*
X65445579Y-39650612D01*
X65434141Y-39652025D01*
X65422326Y-39652873D01*
X65410134Y-39653156D01*
X65398037Y-39652873D01*
X65386294Y-39652025D01*
X65374904Y-39650612D01*
X65363868Y-39648634D01*
X65353186Y-39646091D01*
X65342860Y-39642982D01*
X65332889Y-39639308D01*
X65323274Y-39635069D01*
X65314017Y-39630265D01*
X65305116Y-39624895D01*
X65296572Y-39618961D01*
X65288387Y-39612461D01*
X65280561Y-39605396D01*
X65273094Y-39597765D01*
X65265986Y-39589570D01*
X65259239Y-39580809D01*
X65252981Y-39571508D01*
X65247127Y-39561692D01*
X65241677Y-39551362D01*
X65236630Y-39540518D01*
X65231988Y-39529160D01*
X65227749Y-39517289D01*
X65223913Y-39504906D01*
X65220482Y-39492012D01*
X65217454Y-39478605D01*
X65214829Y-39464688D01*
X65212609Y-39450261D01*
X65210792Y-39435324D01*
X65209379Y-39419877D01*
X65208370Y-39403921D01*
X65207764Y-39387458D01*
X65207562Y-39370486D01*
X65207764Y-39353520D01*
X65208370Y-39337072D01*
X65209379Y-39321142D01*
X65210792Y-39305729D01*
X65212609Y-39290830D01*
X65214829Y-39276447D01*
X65217454Y-39262576D01*
X65220482Y-39249218D01*
X65223913Y-39236372D01*
X65227749Y-39224035D01*
X65231988Y-39212208D01*
X65236630Y-39200890D01*
X65241677Y-39190079D01*
X65247127Y-39179774D01*
X65252981Y-39169974D01*
X65259239Y-39160679D01*
X65265986Y-39151919D01*
X65273094Y-39143723D01*
X65280561Y-39136093D01*
X65288387Y-39129028D01*
X65296572Y-39122528D01*
X65305116Y-39116593D01*
X65314017Y-39111224D01*
X65323274Y-39106419D01*
X65332889Y-39102180D01*
X65342860Y-39098506D01*
X65353186Y-39095398D01*
X65363868Y-39092854D01*
X65374904Y-39090876D01*
X65386294Y-39089463D01*
X65398037Y-39088615D01*
X65410134Y-39088333D01*
X65422326Y-39088615D01*
G37*
G36*
X55756259Y-32331387D02*
G01*
X56060029Y-32331387D01*
X56060832Y-32355692D01*
X56061837Y-32367485D01*
X56063243Y-32379023D01*
X56065052Y-32390298D01*
X56067262Y-32401297D01*
X56069874Y-32412013D01*
X56072887Y-32422433D01*
X56076303Y-32432548D01*
X56080120Y-32442349D01*
X56084340Y-32451823D01*
X56088961Y-32460962D01*
X56093984Y-32469754D01*
X56099409Y-32478191D01*
X56105235Y-32486261D01*
X56111464Y-32493954D01*
X56118094Y-32501260D01*
X56125126Y-32508169D01*
X56132560Y-32514670D01*
X56140396Y-32520754D01*
X56148633Y-32526410D01*
X56157273Y-32531628D01*
X56166314Y-32536398D01*
X56175757Y-32540709D01*
X56185602Y-32544551D01*
X56195849Y-32547914D01*
X56206498Y-32550787D01*
X56217548Y-32553162D01*
X56229000Y-32555026D01*
X56240855Y-32556370D01*
X56253111Y-32557184D01*
X56265768Y-32557458D01*
X56278426Y-32557184D01*
X56290682Y-32556370D01*
X56302536Y-32555026D01*
X56313989Y-32553162D01*
X56325039Y-32550787D01*
X56335688Y-32547914D01*
X56345935Y-32544551D01*
X56355780Y-32540709D01*
X56365223Y-32536398D01*
X56374264Y-32531628D01*
X56382903Y-32526410D01*
X56391141Y-32520754D01*
X56398977Y-32514670D01*
X56406411Y-32508169D01*
X56413443Y-32501260D01*
X56420073Y-32493954D01*
X56426302Y-32486261D01*
X56432128Y-32478191D01*
X56437553Y-32469754D01*
X56442576Y-32460962D01*
X56447197Y-32451823D01*
X56451416Y-32442349D01*
X56455234Y-32432548D01*
X56458649Y-32422433D01*
X56461663Y-32412013D01*
X56464275Y-32401297D01*
X56468293Y-32379023D01*
X56470704Y-32355692D01*
X56471508Y-32331387D01*
X56470704Y-32306216D01*
X56469700Y-32294053D01*
X56468293Y-32282183D01*
X56466485Y-32270615D01*
X56464275Y-32259356D01*
X56461663Y-32248416D01*
X56458649Y-32237802D01*
X56455234Y-32227523D01*
X56451416Y-32217588D01*
X56447197Y-32208004D01*
X56442576Y-32198780D01*
X56437553Y-32189924D01*
X56432128Y-32181445D01*
X56426302Y-32173352D01*
X56420073Y-32165651D01*
X56413443Y-32158353D01*
X56406411Y-32151465D01*
X56398977Y-32144995D01*
X56391141Y-32138952D01*
X56382903Y-32133345D01*
X56374264Y-32128181D01*
X56365223Y-32123470D01*
X56355780Y-32119219D01*
X56345935Y-32115436D01*
X56335688Y-32112131D01*
X56325039Y-32109311D01*
X56313989Y-32106986D01*
X56302536Y-32105162D01*
X56290682Y-32103849D01*
X56278426Y-32103055D01*
X56265768Y-32102789D01*
X56253111Y-32103055D01*
X56240855Y-32103849D01*
X56229000Y-32105162D01*
X56217548Y-32106986D01*
X56206498Y-32109311D01*
X56195849Y-32112131D01*
X56185602Y-32115436D01*
X56175757Y-32119219D01*
X56166314Y-32123470D01*
X56157273Y-32128181D01*
X56148633Y-32133345D01*
X56140396Y-32138952D01*
X56132560Y-32144995D01*
X56125126Y-32151465D01*
X56118094Y-32158353D01*
X56111464Y-32165651D01*
X56105235Y-32173352D01*
X56099409Y-32181445D01*
X56093984Y-32189924D01*
X56088961Y-32198780D01*
X56084340Y-32208004D01*
X56080120Y-32217588D01*
X56076303Y-32227523D01*
X56072887Y-32237802D01*
X56069874Y-32248416D01*
X56067262Y-32259356D01*
X56063243Y-32282183D01*
X56060832Y-32306216D01*
X56060029Y-32331387D01*
X55756259Y-32331387D01*
X55755833Y-32325170D01*
X55755229Y-32298346D01*
X55755864Y-32273548D01*
X55757754Y-32249176D01*
X55760871Y-32225253D01*
X55765190Y-32201803D01*
X55770685Y-32178850D01*
X55777330Y-32156418D01*
X55785098Y-32134529D01*
X55793964Y-32113209D01*
X55803901Y-32092480D01*
X55814884Y-32072366D01*
X55826886Y-32052892D01*
X55839882Y-32034080D01*
X55853845Y-32015954D01*
X55868750Y-31998539D01*
X55884569Y-31981857D01*
X55901278Y-31965934D01*
X55918851Y-31950791D01*
X55937260Y-31936454D01*
X55956481Y-31922945D01*
X55976486Y-31910289D01*
X55997251Y-31898509D01*
X56018748Y-31887629D01*
X56040953Y-31877673D01*
X56063838Y-31868664D01*
X56087379Y-31860626D01*
X56111548Y-31853582D01*
X56136319Y-31847558D01*
X56161668Y-31842575D01*
X56187567Y-31838659D01*
X56213991Y-31835832D01*
X56240913Y-31834118D01*
X56268308Y-31833542D01*
X56299033Y-31834118D01*
X56328818Y-31835829D01*
X56357661Y-31838650D01*
X56385560Y-31842555D01*
X56412511Y-31847519D01*
X56438514Y-31853515D01*
X56463564Y-31860519D01*
X56487661Y-31868505D01*
X56510801Y-31877447D01*
X56532983Y-31887320D01*
X56554205Y-31898097D01*
X56574462Y-31909755D01*
X56593755Y-31922266D01*
X56612079Y-31935605D01*
X56629434Y-31949747D01*
X56645816Y-31964667D01*
X56661223Y-31980338D01*
X56675653Y-31996735D01*
X56689103Y-32013833D01*
X56701572Y-32031605D01*
X56713056Y-32050027D01*
X56723554Y-32069073D01*
X56733064Y-32088717D01*
X56741582Y-32108933D01*
X56749107Y-32129697D01*
X56755636Y-32150982D01*
X56761166Y-32172763D01*
X56765697Y-32195014D01*
X56769225Y-32217710D01*
X56771747Y-32240825D01*
X56773263Y-32264334D01*
X56773768Y-32288211D01*
X56773223Y-32315871D01*
X56771551Y-32343517D01*
X56768695Y-32371013D01*
X56764601Y-32398225D01*
X56759211Y-32425021D01*
X56752471Y-32451266D01*
X56744325Y-32476827D01*
X56734716Y-32501569D01*
X56729346Y-32513591D01*
X56723589Y-32525358D01*
X56717439Y-32536854D01*
X56710889Y-32548061D01*
X56703931Y-32558964D01*
X56696558Y-32569544D01*
X56688765Y-32579786D01*
X56680543Y-32589673D01*
X56671885Y-32599188D01*
X56662786Y-32608315D01*
X56653237Y-32617036D01*
X56643231Y-32625334D01*
X56632763Y-32633194D01*
X56621824Y-32640598D01*
X56610408Y-32647530D01*
X56598535Y-32653959D01*
X56626448Y-32668004D01*
X56653069Y-32684372D01*
X56678307Y-32702921D01*
X56702093Y-32723521D01*
X56724362Y-32746040D01*
X56745045Y-32770349D01*
X56764077Y-32796317D01*
X56781389Y-32823815D01*
X56796916Y-32852711D01*
X56810589Y-32882876D01*
X56822343Y-32914179D01*
X56832110Y-32946490D01*
X56839823Y-32979679D01*
X56845415Y-33013615D01*
X56848819Y-33048168D01*
X56849969Y-33083209D01*
X56847734Y-33142143D01*
X56844938Y-33170763D01*
X56841019Y-33198784D01*
X56835978Y-33226180D01*
X56829810Y-33252925D01*
X56822515Y-33278992D01*
X56814091Y-33304356D01*
X56804536Y-33328991D01*
X56793848Y-33352870D01*
X56782025Y-33375968D01*
X56769066Y-33398258D01*
X56754968Y-33419714D01*
X56739729Y-33440312D01*
X56723349Y-33460023D01*
X56705824Y-33478823D01*
X56687153Y-33496685D01*
X56667334Y-33513584D01*
X56646366Y-33529492D01*
X56624246Y-33544385D01*
X56600973Y-33558236D01*
X56576544Y-33571020D01*
X56550959Y-33582709D01*
X56524214Y-33593279D01*
X56496308Y-33602702D01*
X56467240Y-33610954D01*
X56437007Y-33618007D01*
X56405608Y-33623836D01*
X56373040Y-33628416D01*
X56339302Y-33631719D01*
X56304393Y-33633720D01*
X56268309Y-33634393D01*
X56232434Y-33633699D01*
X56197677Y-33631639D01*
X56164039Y-33628246D01*
X56131521Y-33623553D01*
X56100125Y-33617593D01*
X56069852Y-33610400D01*
X56040704Y-33602005D01*
X56012681Y-33592443D01*
X55985787Y-33581746D01*
X55960020Y-33569947D01*
X55935384Y-33557079D01*
X55911880Y-33543176D01*
X55889509Y-33528270D01*
X55868272Y-33512394D01*
X55848170Y-33495581D01*
X55829206Y-33477865D01*
X55811380Y-33459278D01*
X55794695Y-33439854D01*
X55779150Y-33419625D01*
X55764749Y-33398624D01*
X55751491Y-33376885D01*
X55739379Y-33354440D01*
X55728414Y-33331323D01*
X55718597Y-33307566D01*
X55709930Y-33283203D01*
X55702414Y-33258266D01*
X55696050Y-33232789D01*
X55690841Y-33206804D01*
X55686786Y-33180345D01*
X55683889Y-33153445D01*
X55682149Y-33126136D01*
X55681569Y-33098452D01*
X55682007Y-33083236D01*
X56027008Y-33083236D01*
X56027820Y-33115256D01*
X56030287Y-33145561D01*
X56032157Y-33160055D01*
X56034459Y-33174102D01*
X56037199Y-33187696D01*
X56040383Y-33200831D01*
X56044017Y-33213502D01*
X56048108Y-33225701D01*
X56052660Y-33237423D01*
X56057682Y-33248661D01*
X56063177Y-33259411D01*
X56069153Y-33269665D01*
X56075616Y-33279418D01*
X56082571Y-33288663D01*
X56090024Y-33297395D01*
X56097983Y-33305608D01*
X56106451Y-33313295D01*
X56115437Y-33320450D01*
X56124945Y-33327068D01*
X56134982Y-33333141D01*
X56145554Y-33338666D01*
X56156667Y-33343634D01*
X56168327Y-33348040D01*
X56180540Y-33351879D01*
X56193312Y-33355144D01*
X56206649Y-33357828D01*
X56220557Y-33359927D01*
X56235042Y-33361433D01*
X56250111Y-33362342D01*
X56265768Y-33362646D01*
X56281441Y-33362342D01*
X56296551Y-33361433D01*
X56311105Y-33359927D01*
X56325106Y-33357828D01*
X56338558Y-33355144D01*
X56351465Y-33351879D01*
X56363832Y-33348040D01*
X56375663Y-33343634D01*
X56386961Y-33338666D01*
X56397732Y-33333141D01*
X56407979Y-33327068D01*
X56417707Y-33320450D01*
X56426919Y-33313295D01*
X56435620Y-33305608D01*
X56443814Y-33297395D01*
X56451505Y-33288663D01*
X56458698Y-33279418D01*
X56465397Y-33269665D01*
X56471605Y-33259411D01*
X56477327Y-33248661D01*
X56482568Y-33237423D01*
X56487330Y-33225701D01*
X56491620Y-33213502D01*
X56495440Y-33200831D01*
X56501689Y-33174102D01*
X56506111Y-33145561D01*
X56508739Y-33115256D01*
X56509608Y-33083236D01*
X56508712Y-33054737D01*
X56506007Y-33027402D01*
X56503969Y-33014200D01*
X56501471Y-33001324D01*
X56498510Y-32988786D01*
X56495083Y-32976597D01*
X56491187Y-32964769D01*
X56486819Y-32953313D01*
X56481977Y-32942242D01*
X56476658Y-32931566D01*
X56470859Y-32921297D01*
X56464577Y-32911448D01*
X56457809Y-32902029D01*
X56450553Y-32893053D01*
X56442806Y-32884530D01*
X56434566Y-32876473D01*
X56425828Y-32868893D01*
X56416591Y-32861802D01*
X56406851Y-32855211D01*
X56396607Y-32849133D01*
X56385855Y-32843578D01*
X56374592Y-32838558D01*
X56362815Y-32834086D01*
X56350522Y-32830172D01*
X56337711Y-32826828D01*
X56324377Y-32824066D01*
X56310519Y-32821898D01*
X56296133Y-32820334D01*
X56281217Y-32819388D01*
X56265768Y-32819070D01*
X56250334Y-32819374D01*
X56235461Y-32820279D01*
X56221144Y-32821776D01*
X56207378Y-32823858D01*
X56194159Y-32826514D01*
X56181483Y-32829736D01*
X56169345Y-32833516D01*
X56157739Y-32837844D01*
X56146662Y-32842711D01*
X56136108Y-32848109D01*
X56126073Y-32854029D01*
X56116553Y-32860462D01*
X56107543Y-32867399D01*
X56099037Y-32874832D01*
X56091032Y-32882751D01*
X56083523Y-32891147D01*
X56076505Y-32900012D01*
X56069974Y-32909338D01*
X56063924Y-32919114D01*
X56058351Y-32929333D01*
X56053251Y-32939985D01*
X56048619Y-32951062D01*
X56044450Y-32962554D01*
X56040740Y-32974454D01*
X56037484Y-32986751D01*
X56034676Y-32999438D01*
X56030391Y-33025943D01*
X56027848Y-33053900D01*
X56027008Y-33083236D01*
X55682007Y-33083236D01*
X55682610Y-33062321D01*
X55683911Y-33044666D01*
X55685731Y-33027290D01*
X55688070Y-33010197D01*
X55690928Y-32993391D01*
X55694304Y-32976874D01*
X55698198Y-32960652D01*
X55702609Y-32944727D01*
X55707536Y-32929104D01*
X55712980Y-32913785D01*
X55718939Y-32898776D01*
X55725414Y-32884079D01*
X55732404Y-32869698D01*
X55739908Y-32855638D01*
X55747926Y-32841901D01*
X55756458Y-32828492D01*
X55765502Y-32815414D01*
X55775059Y-32802670D01*
X55785128Y-32790266D01*
X55795709Y-32778204D01*
X55806801Y-32766488D01*
X55818403Y-32755122D01*
X55830516Y-32744110D01*
X55843138Y-32733455D01*
X55856270Y-32723161D01*
X55869911Y-32713232D01*
X55884059Y-32703671D01*
X55898716Y-32694483D01*
X55913880Y-32685671D01*
X55929551Y-32677238D01*
X55945729Y-32669189D01*
X55932891Y-32662273D01*
X55920568Y-32654869D01*
X55919223Y-32653973D01*
X56598508Y-32653973D01*
X56598535Y-32653959D01*
X56598509Y-32653946D01*
X56598508Y-32653973D01*
X55919223Y-32653973D01*
X55908751Y-32646996D01*
X55897434Y-32638673D01*
X55886610Y-32629918D01*
X55876272Y-32620750D01*
X55866414Y-32611187D01*
X55857027Y-32601249D01*
X55839642Y-32580319D01*
X55824062Y-32558109D01*
X55810230Y-32534767D01*
X55798091Y-32510444D01*
X55787589Y-32485286D01*
X55778669Y-32459444D01*
X55771274Y-32433065D01*
X55765349Y-32406300D01*
X55760838Y-32379296D01*
X55757684Y-32352204D01*
X55756259Y-32331387D01*
G37*
G36*
X61758678Y-33434415D02*
G01*
X61760071Y-33378940D01*
X61764207Y-33324212D01*
X61771019Y-33270297D01*
X61780440Y-33217262D01*
X61792404Y-33165173D01*
X61806844Y-33114097D01*
X61823694Y-33064100D01*
X61842887Y-33015249D01*
X61864357Y-32967610D01*
X61875886Y-32945040D01*
X62231001Y-32945040D01*
X62231001Y-35825483D01*
X64218476Y-35825483D01*
X64218476Y-32945557D01*
X64807587Y-32945557D01*
X64807587Y-35826000D01*
X66795062Y-35826000D01*
X66795062Y-32945557D01*
X64807587Y-32945557D01*
X64218476Y-32945557D01*
X64218476Y-32945040D01*
X62231001Y-32945040D01*
X61875886Y-32945040D01*
X61888038Y-32921251D01*
X61913862Y-32876237D01*
X61941763Y-32832634D01*
X61971675Y-32790511D01*
X62003531Y-32749932D01*
X62037264Y-32710965D01*
X62072809Y-32673676D01*
X62110098Y-32638131D01*
X62149065Y-32604398D01*
X62189644Y-32572542D01*
X62231768Y-32542630D01*
X62275370Y-32514729D01*
X62320384Y-32488905D01*
X62366744Y-32465225D01*
X62414382Y-32443755D01*
X62463233Y-32424562D01*
X62513230Y-32407712D01*
X62564306Y-32393272D01*
X62616395Y-32381308D01*
X62669430Y-32371887D01*
X62723345Y-32365075D01*
X62778073Y-32360939D01*
X62833548Y-32359546D01*
X66209051Y-32359546D01*
X66264526Y-32360939D01*
X66319254Y-32365075D01*
X66373169Y-32371887D01*
X66426204Y-32381308D01*
X66478293Y-32393272D01*
X66529369Y-32407712D01*
X66579366Y-32424562D01*
X66628217Y-32443755D01*
X66675855Y-32465225D01*
X66722215Y-32488905D01*
X66767229Y-32514729D01*
X66810831Y-32542630D01*
X66852955Y-32572542D01*
X66893534Y-32604398D01*
X66932501Y-32638131D01*
X66969790Y-32673676D01*
X67005335Y-32710965D01*
X67039068Y-32749932D01*
X67070924Y-32790511D01*
X67100836Y-32832634D01*
X67128737Y-32876237D01*
X67154561Y-32921251D01*
X67178241Y-32967610D01*
X67199711Y-33015249D01*
X67218905Y-33064100D01*
X67235755Y-33114097D01*
X67250195Y-33165173D01*
X67262159Y-33217262D01*
X67271580Y-33270297D01*
X67278391Y-33324212D01*
X67282527Y-33378940D01*
X67283921Y-33434415D01*
X67283921Y-38911082D01*
X67282527Y-38966557D01*
X67278392Y-39021286D01*
X67271580Y-39075201D01*
X67262159Y-39128236D01*
X67250195Y-39180325D01*
X67235755Y-39231401D01*
X67218905Y-39281398D01*
X67199712Y-39330249D01*
X67178242Y-39377887D01*
X67154561Y-39424247D01*
X67128737Y-39469261D01*
X67100836Y-39512863D01*
X67070924Y-39554987D01*
X67039068Y-39595566D01*
X67005335Y-39634533D01*
X66969790Y-39671822D01*
X66932501Y-39707366D01*
X66893534Y-39741100D01*
X66852955Y-39772956D01*
X66810831Y-39802867D01*
X66767229Y-39830768D01*
X66722215Y-39856592D01*
X66675855Y-39880273D01*
X66628217Y-39901742D01*
X66579366Y-39920936D01*
X66529369Y-39937786D01*
X66478293Y-39952226D01*
X66426204Y-39964190D01*
X66373169Y-39973611D01*
X66319254Y-39980422D01*
X66264526Y-39984558D01*
X66209051Y-39985951D01*
X62833548Y-39985951D01*
X62778073Y-39984558D01*
X62723345Y-39980422D01*
X62669430Y-39973611D01*
X62616395Y-39964190D01*
X62564306Y-39952226D01*
X62513230Y-39937786D01*
X62463233Y-39920936D01*
X62414382Y-39901742D01*
X62366744Y-39880273D01*
X62320384Y-39856592D01*
X62312571Y-39852110D01*
X62427888Y-39852110D01*
X62761201Y-39852110D01*
X62842849Y-39618016D01*
X63361164Y-39618016D01*
X63442296Y-39852110D01*
X63775608Y-39852110D01*
X63597129Y-39370486D01*
X63744603Y-39370486D01*
X63745046Y-39398055D01*
X63746378Y-39424996D01*
X63748598Y-39451307D01*
X63751708Y-39476988D01*
X63755709Y-39502038D01*
X63760602Y-39526458D01*
X63766388Y-39550246D01*
X63773068Y-39573402D01*
X63780643Y-39595925D01*
X63789113Y-39617816D01*
X63798481Y-39639073D01*
X63808746Y-39659696D01*
X63819910Y-39679685D01*
X63831975Y-39699038D01*
X63844940Y-39717756D01*
X63858807Y-39735838D01*
X63873377Y-39752940D01*
X63888448Y-39768936D01*
X63904020Y-39783824D01*
X63920093Y-39797607D01*
X63936665Y-39810285D01*
X63953737Y-39821857D01*
X63971307Y-39832324D01*
X63989377Y-39841688D01*
X64007944Y-39849948D01*
X64027008Y-39857106D01*
X64046570Y-39863160D01*
X64066627Y-39868113D01*
X64087181Y-39871964D01*
X64108230Y-39874714D01*
X64129774Y-39876364D01*
X64151813Y-39876914D01*
X64164313Y-39876763D01*
X64176621Y-39876310D01*
X64188738Y-39875553D01*
X64200663Y-39874492D01*
X64212399Y-39873125D01*
X64223944Y-39871452D01*
X64235300Y-39869471D01*
X64246467Y-39867182D01*
X64257446Y-39864583D01*
X64268236Y-39861674D01*
X64278840Y-39858453D01*
X64289256Y-39854919D01*
X64299486Y-39851072D01*
X64309531Y-39846911D01*
X64319389Y-39842434D01*
X64329063Y-39837640D01*
X64338596Y-39832507D01*
X64348032Y-39827015D01*
X64357370Y-39821162D01*
X64366609Y-39814951D01*
X64375750Y-39808381D01*
X64384791Y-39801452D01*
X64393732Y-39794167D01*
X64402573Y-39786524D01*
X64411313Y-39778524D01*
X64419951Y-39770168D01*
X64428488Y-39761457D01*
X64436922Y-39752390D01*
X64445253Y-39742969D01*
X64453480Y-39733194D01*
X64461604Y-39723065D01*
X64469623Y-39712584D01*
X64469623Y-39852110D01*
X64779682Y-39852110D01*
X64779682Y-39370486D01*
X64888202Y-39370486D01*
X64888646Y-39398055D01*
X64889977Y-39424996D01*
X64892197Y-39451307D01*
X64895308Y-39476988D01*
X64899309Y-39502038D01*
X64904202Y-39526458D01*
X64909987Y-39550246D01*
X64916667Y-39573402D01*
X64924242Y-39595925D01*
X64932712Y-39617816D01*
X64942080Y-39639073D01*
X64952345Y-39659696D01*
X64963510Y-39679685D01*
X64975574Y-39699038D01*
X64988540Y-39717756D01*
X65002407Y-39735838D01*
X65016976Y-39752940D01*
X65032047Y-39768936D01*
X65047619Y-39783824D01*
X65063692Y-39797607D01*
X65080264Y-39810285D01*
X65097336Y-39821857D01*
X65114907Y-39832324D01*
X65132976Y-39841688D01*
X65151543Y-39849948D01*
X65170608Y-39857106D01*
X65190169Y-39863160D01*
X65210227Y-39868113D01*
X65230781Y-39871964D01*
X65251830Y-39874714D01*
X65273374Y-39876364D01*
X65295412Y-39876914D01*
X65307912Y-39876763D01*
X65320220Y-39876310D01*
X65332337Y-39875553D01*
X65344263Y-39874492D01*
X65355998Y-39873125D01*
X65367543Y-39871452D01*
X65378899Y-39869471D01*
X65390066Y-39867182D01*
X65401045Y-39864583D01*
X65411836Y-39861674D01*
X65422439Y-39858453D01*
X65432855Y-39854919D01*
X65443085Y-39851072D01*
X65453130Y-39846911D01*
X65462988Y-39842434D01*
X65472662Y-39837640D01*
X65482195Y-39832507D01*
X65491631Y-39827015D01*
X65500969Y-39821162D01*
X65510208Y-39814951D01*
X65519349Y-39808381D01*
X65528390Y-39801452D01*
X65537331Y-39794167D01*
X65546172Y-39786524D01*
X65554912Y-39778524D01*
X65563550Y-39770168D01*
X65572087Y-39761457D01*
X65580521Y-39752390D01*
X65588852Y-39742969D01*
X65597079Y-39733194D01*
X65605203Y-39723065D01*
X65613222Y-39712584D01*
X65613222Y-39852110D01*
X65923281Y-39852110D01*
X66100531Y-39852110D01*
X66408522Y-39852110D01*
X66408522Y-39407693D01*
X66408775Y-39390186D01*
X66409533Y-39373194D01*
X66410795Y-39356717D01*
X66412560Y-39340756D01*
X66414827Y-39325310D01*
X66417594Y-39310382D01*
X66420862Y-39295970D01*
X66424628Y-39282076D01*
X66428893Y-39268700D01*
X66433654Y-39255843D01*
X66438912Y-39243505D01*
X66444664Y-39231686D01*
X66450910Y-39220388D01*
X66457649Y-39209610D01*
X66464879Y-39199353D01*
X66472601Y-39189618D01*
X66480887Y-39180338D01*
X66489597Y-39171660D01*
X66498732Y-39163584D01*
X66508290Y-39156109D01*
X66518272Y-39149235D01*
X66528678Y-39142962D01*
X66539508Y-39137289D01*
X66550761Y-39132214D01*
X66562439Y-39127739D01*
X66574541Y-39123862D01*
X66587066Y-39120583D01*
X66600016Y-39117901D01*
X66613389Y-39115816D01*
X66627186Y-39114328D01*
X66641407Y-39113435D01*
X66656052Y-39113137D01*
X66666159Y-39113278D01*
X66676238Y-39113702D01*
X66686291Y-39114415D01*
X66696317Y-39115420D01*
X66706315Y-39116720D01*
X66716287Y-39118321D01*
X66726232Y-39120226D01*
X66736151Y-39122439D01*
X66746256Y-39124768D01*
X66756337Y-39127445D01*
X66766402Y-39130461D01*
X66776458Y-39133808D01*
X66786515Y-39137478D01*
X66796580Y-39141463D01*
X66806661Y-39145754D01*
X66816766Y-39150344D01*
X66816249Y-38871292D01*
X66800020Y-38869354D01*
X66785803Y-38867846D01*
X66779460Y-38867254D01*
X66773632Y-38866770D01*
X66768324Y-38866393D01*
X66763539Y-38866124D01*
X66754657Y-38865316D01*
X66746098Y-38864660D01*
X66741940Y-38864408D01*
X66737862Y-38864218D01*
X66733866Y-38864098D01*
X66729949Y-38864057D01*
X66716612Y-38864228D01*
X66703513Y-38864743D01*
X66690653Y-38865601D01*
X66678031Y-38866802D01*
X66665646Y-38868346D01*
X66653499Y-38870234D01*
X66641588Y-38872464D01*
X66629913Y-38875038D01*
X66618473Y-38877955D01*
X66607268Y-38881215D01*
X66596298Y-38884818D01*
X66585562Y-38888765D01*
X66575060Y-38893054D01*
X66564790Y-38897687D01*
X66554753Y-38902663D01*
X66544948Y-38907982D01*
X66535430Y-38913569D01*
X66526039Y-38919563D01*
X66516777Y-38925963D01*
X66507644Y-38932770D01*
X66498642Y-38939983D01*
X66489771Y-38947601D01*
X66481033Y-38955624D01*
X66472429Y-38964051D01*
X66463959Y-38972882D01*
X66455625Y-38982115D01*
X66447427Y-38991752D01*
X66439367Y-39001791D01*
X66431445Y-39012231D01*
X66423663Y-39023073D01*
X66416022Y-39034315D01*
X66408522Y-39045958D01*
X66408522Y-38887311D01*
X66100531Y-38887311D01*
X66100531Y-39852110D01*
X65923281Y-39852110D01*
X65923281Y-38512140D01*
X65613222Y-38512140D01*
X65613222Y-39028904D01*
X65605204Y-39018529D01*
X65597081Y-39008503D01*
X65588853Y-38998827D01*
X65580521Y-38989501D01*
X65572083Y-38980525D01*
X65563538Y-38971899D01*
X65554887Y-38963623D01*
X65546129Y-38955696D01*
X65537263Y-38948120D01*
X65528289Y-38940893D01*
X65519207Y-38934016D01*
X65510015Y-38927489D01*
X65500713Y-38921313D01*
X65491302Y-38915485D01*
X65481779Y-38910008D01*
X65472146Y-38904881D01*
X65462472Y-38899975D01*
X65452612Y-38895379D01*
X65442568Y-38891092D01*
X65432339Y-38887117D01*
X65421927Y-38883454D01*
X65411331Y-38880105D01*
X65400553Y-38877069D01*
X65389593Y-38874349D01*
X65378451Y-38871945D01*
X65367128Y-38869858D01*
X65355624Y-38868090D01*
X65343940Y-38866640D01*
X65332076Y-38865511D01*
X65320033Y-38864704D01*
X65307812Y-38864219D01*
X65295412Y-38864057D01*
X65273374Y-38864612D01*
X65251830Y-38866277D01*
X65230781Y-38869053D01*
X65210227Y-38872938D01*
X65190169Y-38877935D01*
X65170608Y-38884041D01*
X65151543Y-38891257D01*
X65132976Y-38899584D01*
X65114907Y-38909021D01*
X65097336Y-38919568D01*
X65080264Y-38931226D01*
X65063692Y-38943994D01*
X65047619Y-38957872D01*
X65032047Y-38972860D01*
X65016976Y-38988958D01*
X65002407Y-39006167D01*
X64988540Y-39024143D01*
X64975574Y-39042758D01*
X64963510Y-39062012D01*
X64952345Y-39081905D01*
X64942080Y-39102438D01*
X64932712Y-39123610D01*
X64924242Y-39145421D01*
X64916667Y-39167871D01*
X64909987Y-39190961D01*
X64904202Y-39214689D01*
X64899309Y-39239057D01*
X64895308Y-39264065D01*
X64892197Y-39289711D01*
X64889977Y-39315997D01*
X64888646Y-39342922D01*
X64888202Y-39370486D01*
X64779682Y-39370486D01*
X64779682Y-38512140D01*
X64469623Y-38512140D01*
X64469623Y-39028904D01*
X64461604Y-39018529D01*
X64453482Y-39008503D01*
X64445254Y-38998827D01*
X64436922Y-38989501D01*
X64428483Y-38980525D01*
X64419939Y-38971899D01*
X64411288Y-38963623D01*
X64402530Y-38955696D01*
X64393664Y-38948120D01*
X64384690Y-38940893D01*
X64375607Y-38934016D01*
X64366416Y-38927489D01*
X64357114Y-38921313D01*
X64347702Y-38915485D01*
X64338180Y-38910008D01*
X64328546Y-38904881D01*
X64318872Y-38899975D01*
X64309012Y-38895379D01*
X64298968Y-38891092D01*
X64288739Y-38887117D01*
X64278327Y-38883454D01*
X64267732Y-38880105D01*
X64256954Y-38877069D01*
X64245993Y-38874349D01*
X64234851Y-38871945D01*
X64223528Y-38869858D01*
X64212024Y-38868090D01*
X64200340Y-38866640D01*
X64188477Y-38865511D01*
X64176434Y-38864704D01*
X64164212Y-38864219D01*
X64151813Y-38864057D01*
X64129774Y-38864612D01*
X64108230Y-38866277D01*
X64087181Y-38869053D01*
X64066627Y-38872938D01*
X64046570Y-38877935D01*
X64027008Y-38884041D01*
X64007944Y-38891257D01*
X63989377Y-38899584D01*
X63971307Y-38909021D01*
X63953737Y-38919568D01*
X63936665Y-38931226D01*
X63920093Y-38943994D01*
X63904020Y-38957872D01*
X63888448Y-38972860D01*
X63873377Y-38988958D01*
X63858807Y-39006167D01*
X63844940Y-39024143D01*
X63831975Y-39042758D01*
X63819910Y-39062012D01*
X63808746Y-39081905D01*
X63798481Y-39102438D01*
X63789113Y-39123610D01*
X63780643Y-39145421D01*
X63773068Y-39167871D01*
X63766388Y-39190961D01*
X63760602Y-39214689D01*
X63755709Y-39239057D01*
X63751708Y-39264065D01*
X63748598Y-39289711D01*
X63746378Y-39315997D01*
X63745046Y-39342922D01*
X63744603Y-39370486D01*
X63597129Y-39370486D01*
X63299152Y-38566401D01*
X62903828Y-38566401D01*
X62427888Y-39852110D01*
X62312571Y-39852110D01*
X62275370Y-39830768D01*
X62231768Y-39802867D01*
X62189644Y-39772956D01*
X62149065Y-39741100D01*
X62110098Y-39707366D01*
X62072809Y-39671822D01*
X62037264Y-39634533D01*
X62003531Y-39595566D01*
X61971675Y-39554987D01*
X61941763Y-39512863D01*
X61913862Y-39469261D01*
X61888038Y-39424247D01*
X61864357Y-39377887D01*
X61842887Y-39330249D01*
X61823694Y-39281398D01*
X61806844Y-39231401D01*
X61792404Y-39180325D01*
X61780440Y-39128236D01*
X61771019Y-39075201D01*
X61764207Y-39021286D01*
X61760071Y-38966557D01*
X61758678Y-38911082D01*
X61758678Y-38301301D01*
X61758678Y-38193814D01*
X62448558Y-38193814D01*
X62448558Y-38301301D01*
X66594041Y-38301301D01*
X66594041Y-38193814D01*
X62448558Y-38193814D01*
X61758678Y-38193814D01*
X61758678Y-36505545D01*
X61758678Y-36189802D01*
X62685753Y-36189802D01*
X62685753Y-36505545D01*
X63106399Y-36418729D01*
X63106399Y-37582482D01*
X62696605Y-37582482D01*
X62696605Y-37903392D01*
X63955442Y-37903392D01*
X63955442Y-37582482D01*
X63545648Y-37582482D01*
X63545648Y-37004739D01*
X65008091Y-37004739D01*
X65008843Y-37059862D01*
X65011098Y-37113392D01*
X65014858Y-37165330D01*
X65020122Y-37215676D01*
X65026892Y-37264430D01*
X65035167Y-37311592D01*
X65044948Y-37357163D01*
X65056237Y-37401141D01*
X65069032Y-37443527D01*
X65083335Y-37484321D01*
X65099147Y-37523523D01*
X65116467Y-37561133D01*
X65135296Y-37597151D01*
X65155635Y-37631577D01*
X65177485Y-37664411D01*
X65200845Y-37695653D01*
X65225598Y-37725002D01*
X65251627Y-37752457D01*
X65278930Y-37778019D01*
X65307508Y-37801687D01*
X65337359Y-37823461D01*
X65368484Y-37843343D01*
X65400881Y-37861330D01*
X65434551Y-37877425D01*
X65469492Y-37891626D01*
X65505705Y-37903933D01*
X65543188Y-37914347D01*
X65581942Y-37922868D01*
X65621965Y-37929495D01*
X65663258Y-37934229D01*
X65705819Y-37937069D01*
X65749648Y-37938015D01*
X65793327Y-37937069D01*
X65835741Y-37934229D01*
X65876889Y-37929495D01*
X65916773Y-37922868D01*
X65955392Y-37914347D01*
X65992747Y-37903933D01*
X66028839Y-37891626D01*
X66063668Y-37877425D01*
X66097235Y-37861330D01*
X66129541Y-37843343D01*
X66160584Y-37823461D01*
X66190367Y-37801687D01*
X66218890Y-37778019D01*
X66246153Y-37752457D01*
X66272157Y-37725002D01*
X66296902Y-37695653D01*
X66320267Y-37664411D01*
X66342133Y-37631577D01*
X66362498Y-37597151D01*
X66381360Y-37561133D01*
X66398719Y-37523523D01*
X66414574Y-37484321D01*
X66428924Y-37443527D01*
X66441768Y-37401141D01*
X66453104Y-37357163D01*
X66462932Y-37311592D01*
X66471251Y-37264430D01*
X66478059Y-37215676D01*
X66483357Y-37165330D01*
X66487142Y-37113392D01*
X66489413Y-37059862D01*
X66490171Y-37004739D01*
X66489413Y-36949476D01*
X66487142Y-36895823D01*
X66483357Y-36843781D01*
X66478059Y-36793350D01*
X66471251Y-36744530D01*
X66462932Y-36697321D01*
X66453104Y-36651723D01*
X66441768Y-36607735D01*
X66428924Y-36565358D01*
X66414574Y-36524593D01*
X66398719Y-36485438D01*
X66381360Y-36447894D01*
X66362498Y-36411960D01*
X66342133Y-36377638D01*
X66320267Y-36344926D01*
X66296902Y-36313826D01*
X66272157Y-36284333D01*
X66246153Y-36256747D01*
X66218890Y-36231066D01*
X66190367Y-36207291D01*
X66160584Y-36185421D01*
X66129541Y-36165456D01*
X66097235Y-36147394D01*
X66063668Y-36131235D01*
X66028839Y-36116980D01*
X65992747Y-36104627D01*
X65955392Y-36094175D01*
X65916773Y-36085625D01*
X65876889Y-36078976D01*
X65835741Y-36074228D01*
X65793327Y-36071379D01*
X65749648Y-36070429D01*
X65705819Y-36071379D01*
X65663258Y-36074228D01*
X65621965Y-36078976D01*
X65581942Y-36085625D01*
X65543188Y-36094175D01*
X65505705Y-36104627D01*
X65469492Y-36116980D01*
X65434551Y-36131235D01*
X65400881Y-36147394D01*
X65368484Y-36165456D01*
X65337359Y-36185421D01*
X65307508Y-36207291D01*
X65278930Y-36231066D01*
X65251627Y-36256747D01*
X65225598Y-36284333D01*
X65200845Y-36313826D01*
X65177485Y-36344926D01*
X65155635Y-36377638D01*
X65135296Y-36411960D01*
X65116467Y-36447894D01*
X65099147Y-36485438D01*
X65083335Y-36524593D01*
X65069032Y-36565358D01*
X65056237Y-36607735D01*
X65044948Y-36651723D01*
X65035167Y-36697321D01*
X65026892Y-36744530D01*
X65020122Y-36793350D01*
X65014858Y-36843781D01*
X65011098Y-36895823D01*
X65008843Y-36949476D01*
X65008091Y-37004739D01*
X63545648Y-37004739D01*
X63545648Y-36102986D01*
X63104332Y-36102986D01*
X62685753Y-36189802D01*
X61758678Y-36189802D01*
X61758678Y-35826000D01*
X61758678Y-35825483D01*
X61758678Y-33434415D01*
G37*
G36*
X49524625Y-31889462D02*
G01*
X50177405Y-31889462D01*
X50219874Y-31890374D01*
X50261535Y-31893096D01*
X50302351Y-31897607D01*
X50342287Y-31903887D01*
X50381307Y-31911916D01*
X50419377Y-31921674D01*
X50456461Y-31933139D01*
X50492524Y-31946291D01*
X50527530Y-31961110D01*
X50561443Y-31977575D01*
X50594230Y-31995667D01*
X50625854Y-32015364D01*
X50656279Y-32036645D01*
X50685472Y-32059492D01*
X50713395Y-32083882D01*
X50740015Y-32109796D01*
X50765295Y-32137214D01*
X50789200Y-32166114D01*
X50811695Y-32196476D01*
X50832745Y-32228280D01*
X50852313Y-32261505D01*
X50870366Y-32296132D01*
X50886867Y-32332139D01*
X50901781Y-32369506D01*
X50915073Y-32408212D01*
X50926707Y-32448238D01*
X50936649Y-32489562D01*
X50944862Y-32532164D01*
X50951311Y-32576025D01*
X50955962Y-32621122D01*
X50958778Y-32667436D01*
X50959725Y-32714947D01*
X50958874Y-32762560D01*
X50956338Y-32809172D01*
X50952144Y-32854749D01*
X50946320Y-32899258D01*
X50938893Y-32942666D01*
X50929889Y-32984939D01*
X50919335Y-33026043D01*
X50907258Y-33065946D01*
X50893686Y-33104613D01*
X50878645Y-33142012D01*
X50862162Y-33178108D01*
X50844264Y-33212868D01*
X50824979Y-33246259D01*
X50804332Y-33278248D01*
X50782352Y-33308800D01*
X50759065Y-33337882D01*
X50734498Y-33365461D01*
X50708678Y-33391504D01*
X50681632Y-33415976D01*
X50653387Y-33438845D01*
X50623970Y-33460076D01*
X50593408Y-33479638D01*
X50561728Y-33497494D01*
X50528957Y-33513614D01*
X50495121Y-33527962D01*
X50460249Y-33540506D01*
X50424366Y-33551212D01*
X50387501Y-33560047D01*
X50349679Y-33566976D01*
X50310927Y-33571967D01*
X50271274Y-33574987D01*
X50230745Y-33576000D01*
X49524625Y-33576028D01*
X49524625Y-33288983D01*
X49524625Y-32181533D01*
X49867525Y-32181533D01*
X49867525Y-33288983D01*
X50159625Y-33288983D01*
X50187926Y-33288417D01*
X50215208Y-33286722D01*
X50241479Y-33283897D01*
X50266747Y-33279944D01*
X50291019Y-33274864D01*
X50314304Y-33268657D01*
X50336610Y-33261325D01*
X50357944Y-33252868D01*
X50378314Y-33243288D01*
X50397728Y-33232585D01*
X50416195Y-33220760D01*
X50433722Y-33207815D01*
X50450317Y-33193749D01*
X50465987Y-33178565D01*
X50480742Y-33162262D01*
X50494588Y-33144842D01*
X50507533Y-33126306D01*
X50519586Y-33106655D01*
X50530755Y-33085889D01*
X50541047Y-33064010D01*
X50550470Y-33041018D01*
X50559032Y-33016915D01*
X50573605Y-32965377D01*
X50584830Y-32909404D01*
X50592769Y-32849003D01*
X50597487Y-32784182D01*
X50599045Y-32714947D01*
X50597479Y-32646169D01*
X50592710Y-32582637D01*
X50589090Y-32552803D01*
X50584629Y-32524239D01*
X50579313Y-32496931D01*
X50573129Y-32470864D01*
X50566063Y-32446026D01*
X50558102Y-32422401D01*
X50549232Y-32399976D01*
X50539439Y-32378738D01*
X50528711Y-32358671D01*
X50517034Y-32339762D01*
X50504394Y-32321998D01*
X50490778Y-32305363D01*
X50476172Y-32289845D01*
X50460562Y-32275429D01*
X50443936Y-32262102D01*
X50426280Y-32249848D01*
X50407581Y-32238656D01*
X50387824Y-32228509D01*
X50366996Y-32219396D01*
X50345085Y-32211300D01*
X50322075Y-32204210D01*
X50297955Y-32198110D01*
X50272710Y-32192987D01*
X50246327Y-32188826D01*
X50218793Y-32185615D01*
X50190093Y-32183338D01*
X50160215Y-32181982D01*
X50129145Y-32181533D01*
X49867525Y-32181533D01*
X49524625Y-32181533D01*
X49524625Y-31889462D01*
G37*
G36*
X51434700Y-31889435D02*
G01*
X51843640Y-31889435D01*
X52438000Y-33576000D01*
X52054459Y-33576000D01*
X51947780Y-33228036D01*
X51325480Y-33228036D01*
X51206100Y-33576000D01*
X50832720Y-33576000D01*
X51060273Y-32938464D01*
X51416919Y-32938464D01*
X51846180Y-32938464D01*
X51635357Y-32267913D01*
X51632819Y-32267913D01*
X51416919Y-32938464D01*
X51060273Y-32938464D01*
X51434700Y-31889435D01*
G37*
D12*
X71138001Y-52175998D02*
G75*
G03*
X72655818Y-50713354I499999J999998D01*
G01*
D10*
G36*
X54475074Y-33576000D02*
G01*
X54144874Y-33576000D01*
X54144874Y-32410131D01*
X53799434Y-32410131D01*
X53799434Y-32181533D01*
X53826019Y-32181251D01*
X53851493Y-32180402D01*
X53875879Y-32178987D01*
X53899199Y-32177004D01*
X53921473Y-32174455D01*
X53942722Y-32171337D01*
X53962969Y-32167652D01*
X53982235Y-32163397D01*
X54000541Y-32158573D01*
X54017908Y-32153180D01*
X54034358Y-32147216D01*
X54049912Y-32140682D01*
X54064592Y-32133576D01*
X54078419Y-32125899D01*
X54091414Y-32117650D01*
X54103599Y-32108828D01*
X54114996Y-32099433D01*
X54125625Y-32089465D01*
X54135508Y-32078923D01*
X54144666Y-32067807D01*
X54153121Y-32056115D01*
X54160895Y-32043848D01*
X54168007Y-32031006D01*
X54174481Y-32017587D01*
X54180338Y-32003591D01*
X54185598Y-31989019D01*
X54190283Y-31973868D01*
X54194414Y-31958140D01*
X54198014Y-31941832D01*
X54201103Y-31924946D01*
X54205834Y-31889435D01*
X54475074Y-31889435D01*
X54475074Y-33576000D01*
G37*
G36*
X57975182Y-32143438D02*
G01*
X57906246Y-32223039D01*
X57841370Y-32304590D01*
X57780565Y-32387957D01*
X57723841Y-32473005D01*
X57671209Y-32559601D01*
X57622682Y-32647611D01*
X57578270Y-32736901D01*
X57537984Y-32827337D01*
X57501835Y-32918785D01*
X57469835Y-33011111D01*
X57441995Y-33104181D01*
X57418326Y-33197860D01*
X57398839Y-33292016D01*
X57383545Y-33386514D01*
X57372456Y-33481220D01*
X57365582Y-33576000D01*
X57025222Y-33576000D01*
X57034241Y-33484881D01*
X57047006Y-33393562D01*
X57063514Y-33302198D01*
X57083761Y-33210947D01*
X57107744Y-33119963D01*
X57135459Y-33029405D01*
X57166902Y-32939426D01*
X57202069Y-32850185D01*
X57240957Y-32761837D01*
X57283562Y-32674539D01*
X57329881Y-32588446D01*
X57379909Y-32503715D01*
X57433643Y-32420502D01*
X57491079Y-32338963D01*
X57552213Y-32259255D01*
X57617042Y-32181533D01*
X56794082Y-32181533D01*
X56794082Y-31889435D01*
X57975182Y-31889435D01*
X57975182Y-32143438D01*
G37*
D13*
X57147500Y-39314000D02*
X57147500Y-39894000D01*
X57147500Y-41874000D02*
X57147500Y-41294000D01*
X56473750Y-39314000D02*
X57147500Y-39314000D01*
X56473750Y-41874000D02*
X57147500Y-41874000D01*
X57147500Y-39314000D02*
X57147500Y-39894000D01*
X57147500Y-39314000D02*
X57147500Y-39894000D01*
X56473750Y-39314000D02*
X57147500Y-39314000D01*
X56473750Y-39314000D02*
X57147500Y-39314000D01*
X54212500Y-41874000D02*
X54212500Y-41294000D01*
X54886250Y-41874000D02*
X54212500Y-41874000D01*
D14*
X54432500Y-39434000D02*
G75*
G03*
X54432500Y-39434000I-100000J0D01*
G01*
D13*
X64786000Y-33002000D02*
X66786000Y-33002000D01*
X66786000Y-33002000D02*
X66786000Y-35802000D01*
X64786000Y-35802000D02*
X64786000Y-33002000D01*
X66786000Y-35802000D02*
X64786000Y-35802000D01*
X64246000Y-33002000D02*
X64246000Y-35802000D01*
X64246000Y-35802000D02*
X62246000Y-35802000D01*
X62246000Y-35802000D02*
X62246000Y-33002000D01*
X62246000Y-33002000D02*
X64246000Y-33002000D01*
M02*
