G04 #@! TF.GenerationSoftware,KiCad,Pcbnew,7.0.0*
G04 #@! TF.CreationDate,2024-03-13T15:51:30+01:00*
G04 #@! TF.ProjectId,breakoutBoard_extended,62726561-6b6f-4757-9442-6f6172645f65,rev?*
G04 #@! TF.SameCoordinates,Original*
G04 #@! TF.FileFunction,Copper,L4,Bot*
G04 #@! TF.FilePolarity,Positive*
%FSLAX46Y46*%
G04 Gerber Fmt 4.6, Leading zero omitted, Abs format (unit mm)*
G04 Created by KiCad (PCBNEW 7.0.0) date 2024-03-13 15:51:30*
%MOMM*%
%LPD*%
G01*
G04 APERTURE LIST*
%ADD10C,0.375000*%
G04 #@! TA.AperFunction,NonConductor*
%ADD11C,0.375000*%
G04 #@! TD*
%ADD12C,0.300000*%
G04 #@! TA.AperFunction,NonConductor*
%ADD13C,0.300000*%
G04 #@! TD*
G04 #@! TA.AperFunction,ComponentPad*
%ADD14R,1.700000X1.700000*%
G04 #@! TD*
G04 #@! TA.AperFunction,ComponentPad*
%ADD15O,1.700000X1.700000*%
G04 #@! TD*
G04 #@! TA.AperFunction,ViaPad*
%ADD16C,0.800000*%
G04 #@! TD*
G04 #@! TA.AperFunction,ViaPad*
%ADD17C,0.250000*%
G04 #@! TD*
G04 #@! TA.AperFunction,ViaPad*
%ADD18C,0.700000*%
G04 #@! TD*
G04 #@! TA.AperFunction,Conductor*
%ADD19C,0.250000*%
G04 #@! TD*
G04 #@! TA.AperFunction,Conductor*
%ADD20C,0.150000*%
G04 #@! TD*
G04 APERTURE END LIST*
D10*
D11*
X67132286Y-49954071D02*
X67132286Y-48454071D01*
X67132286Y-48454071D02*
X66632286Y-49525500D01*
X66632286Y-49525500D02*
X66132286Y-48454071D01*
X66132286Y-48454071D02*
X66132286Y-49954071D01*
X65418000Y-49811214D02*
X65346571Y-49882642D01*
X65346571Y-49882642D02*
X65418000Y-49954071D01*
X65418000Y-49954071D02*
X65489428Y-49882642D01*
X65489428Y-49882642D02*
X65418000Y-49811214D01*
X65418000Y-49811214D02*
X65418000Y-49954071D01*
X63803714Y-49954071D02*
X63803714Y-48454071D01*
X63803714Y-48454071D02*
X63232285Y-48454071D01*
X63232285Y-48454071D02*
X63089428Y-48525500D01*
X63089428Y-48525500D02*
X63017999Y-48596928D01*
X63017999Y-48596928D02*
X62946571Y-48739785D01*
X62946571Y-48739785D02*
X62946571Y-48954071D01*
X62946571Y-48954071D02*
X63017999Y-49096928D01*
X63017999Y-49096928D02*
X63089428Y-49168357D01*
X63089428Y-49168357D02*
X63232285Y-49239785D01*
X63232285Y-49239785D02*
X63803714Y-49239785D01*
X62017999Y-48454071D02*
X61732285Y-48454071D01*
X61732285Y-48454071D02*
X61589428Y-48525500D01*
X61589428Y-48525500D02*
X61446571Y-48668357D01*
X61446571Y-48668357D02*
X61375142Y-48954071D01*
X61375142Y-48954071D02*
X61375142Y-49454071D01*
X61375142Y-49454071D02*
X61446571Y-49739785D01*
X61446571Y-49739785D02*
X61589428Y-49882642D01*
X61589428Y-49882642D02*
X61732285Y-49954071D01*
X61732285Y-49954071D02*
X62017999Y-49954071D01*
X62017999Y-49954071D02*
X62160857Y-49882642D01*
X62160857Y-49882642D02*
X62303714Y-49739785D01*
X62303714Y-49739785D02*
X62375142Y-49454071D01*
X62375142Y-49454071D02*
X62375142Y-48954071D01*
X62375142Y-48954071D02*
X62303714Y-48668357D01*
X62303714Y-48668357D02*
X62160857Y-48525500D01*
X62160857Y-48525500D02*
X62017999Y-48454071D01*
X60732285Y-49954071D02*
X60732285Y-48454071D01*
X60732285Y-48454071D02*
X60160856Y-48454071D01*
X60160856Y-48454071D02*
X60017999Y-48525500D01*
X60017999Y-48525500D02*
X59946570Y-48596928D01*
X59946570Y-48596928D02*
X59875142Y-48739785D01*
X59875142Y-48739785D02*
X59875142Y-48954071D01*
X59875142Y-48954071D02*
X59946570Y-49096928D01*
X59946570Y-49096928D02*
X60017999Y-49168357D01*
X60017999Y-49168357D02*
X60160856Y-49239785D01*
X60160856Y-49239785D02*
X60732285Y-49239785D01*
X58946570Y-48454071D02*
X58660856Y-48454071D01*
X58660856Y-48454071D02*
X58517999Y-48525500D01*
X58517999Y-48525500D02*
X58375142Y-48668357D01*
X58375142Y-48668357D02*
X58303713Y-48954071D01*
X58303713Y-48954071D02*
X58303713Y-49454071D01*
X58303713Y-49454071D02*
X58375142Y-49739785D01*
X58375142Y-49739785D02*
X58517999Y-49882642D01*
X58517999Y-49882642D02*
X58660856Y-49954071D01*
X58660856Y-49954071D02*
X58946570Y-49954071D01*
X58946570Y-49954071D02*
X59089428Y-49882642D01*
X59089428Y-49882642D02*
X59232285Y-49739785D01*
X59232285Y-49739785D02*
X59303713Y-49454071D01*
X59303713Y-49454071D02*
X59303713Y-48954071D01*
X59303713Y-48954071D02*
X59232285Y-48668357D01*
X59232285Y-48668357D02*
X59089428Y-48525500D01*
X59089428Y-48525500D02*
X58946570Y-48454071D01*
X57160856Y-49168357D02*
X57660856Y-49168357D01*
X57660856Y-49954071D02*
X57660856Y-48454071D01*
X57660856Y-48454071D02*
X56946570Y-48454071D01*
X55875142Y-49168357D02*
X56375142Y-49168357D01*
X56375142Y-49954071D02*
X56375142Y-48454071D01*
X56375142Y-48454071D02*
X55660856Y-48454071D01*
D12*
D13*
X67063713Y-52002857D02*
X67063713Y-50802857D01*
X66492284Y-52002857D02*
X66492284Y-50802857D01*
X66492284Y-50802857D02*
X65806570Y-52002857D01*
X65806570Y-52002857D02*
X65806570Y-50802857D01*
X65292284Y-51945714D02*
X65120856Y-52002857D01*
X65120856Y-52002857D02*
X64835141Y-52002857D01*
X64835141Y-52002857D02*
X64720856Y-51945714D01*
X64720856Y-51945714D02*
X64663713Y-51888571D01*
X64663713Y-51888571D02*
X64606570Y-51774285D01*
X64606570Y-51774285D02*
X64606570Y-51660000D01*
X64606570Y-51660000D02*
X64663713Y-51545714D01*
X64663713Y-51545714D02*
X64720856Y-51488571D01*
X64720856Y-51488571D02*
X64835141Y-51431428D01*
X64835141Y-51431428D02*
X65063713Y-51374285D01*
X65063713Y-51374285D02*
X65177998Y-51317142D01*
X65177998Y-51317142D02*
X65235141Y-51260000D01*
X65235141Y-51260000D02*
X65292284Y-51145714D01*
X65292284Y-51145714D02*
X65292284Y-51031428D01*
X65292284Y-51031428D02*
X65235141Y-50917142D01*
X65235141Y-50917142D02*
X65177998Y-50860000D01*
X65177998Y-50860000D02*
X65063713Y-50802857D01*
X65063713Y-50802857D02*
X64777998Y-50802857D01*
X64777998Y-50802857D02*
X64606570Y-50860000D01*
X64149427Y-51660000D02*
X63577999Y-51660000D01*
X64263713Y-52002857D02*
X63863713Y-50802857D01*
X63863713Y-50802857D02*
X63463713Y-52002857D01*
X61772285Y-52002857D02*
X62343713Y-52002857D01*
X62343713Y-52002857D02*
X62343713Y-50802857D01*
X61486570Y-51202857D02*
X61200856Y-52002857D01*
X60915141Y-51202857D02*
X61200856Y-52002857D01*
X61200856Y-52002857D02*
X61315141Y-52288571D01*
X61315141Y-52288571D02*
X61372284Y-52345714D01*
X61372284Y-52345714D02*
X61486570Y-52402857D01*
X60286570Y-52002857D02*
X60400855Y-51945714D01*
X60400855Y-51945714D02*
X60457998Y-51888571D01*
X60457998Y-51888571D02*
X60515141Y-51774285D01*
X60515141Y-51774285D02*
X60515141Y-51431428D01*
X60515141Y-51431428D02*
X60457998Y-51317142D01*
X60457998Y-51317142D02*
X60400855Y-51260000D01*
X60400855Y-51260000D02*
X60286570Y-51202857D01*
X60286570Y-51202857D02*
X60115141Y-51202857D01*
X60115141Y-51202857D02*
X60000855Y-51260000D01*
X60000855Y-51260000D02*
X59943713Y-51317142D01*
X59943713Y-51317142D02*
X59886570Y-51431428D01*
X59886570Y-51431428D02*
X59886570Y-51774285D01*
X59886570Y-51774285D02*
X59943713Y-51888571D01*
X59943713Y-51888571D02*
X60000855Y-51945714D01*
X60000855Y-51945714D02*
X60115141Y-52002857D01*
X60115141Y-52002857D02*
X60286570Y-52002857D01*
X59372284Y-51202857D02*
X59372284Y-52002857D01*
X59372284Y-51317142D02*
X59315141Y-51260000D01*
X59315141Y-51260000D02*
X59200856Y-51202857D01*
X59200856Y-51202857D02*
X59029427Y-51202857D01*
X59029427Y-51202857D02*
X58915141Y-51260000D01*
X58915141Y-51260000D02*
X58857999Y-51374285D01*
X58857999Y-51374285D02*
X58857999Y-52002857D01*
X57429427Y-50745714D02*
X58457999Y-52288571D01*
X57029427Y-52002857D02*
X57029427Y-50802857D01*
X56457998Y-51202857D02*
X56457998Y-52002857D01*
X56457998Y-51317142D02*
X56400855Y-51260000D01*
X56400855Y-51260000D02*
X56286570Y-51202857D01*
X56286570Y-51202857D02*
X56115141Y-51202857D01*
X56115141Y-51202857D02*
X56000855Y-51260000D01*
X56000855Y-51260000D02*
X55943713Y-51374285D01*
X55943713Y-51374285D02*
X55943713Y-52002857D01*
X55372284Y-52002857D02*
X55372284Y-51202857D01*
X55372284Y-51431428D02*
X55315141Y-51317142D01*
X55315141Y-51317142D02*
X55257999Y-51260000D01*
X55257999Y-51260000D02*
X55143713Y-51202857D01*
X55143713Y-51202857D02*
X55029427Y-51202857D01*
X54629427Y-52002857D02*
X54629427Y-51202857D01*
X54629427Y-50802857D02*
X54686570Y-50860000D01*
X54686570Y-50860000D02*
X54629427Y-50917142D01*
X54629427Y-50917142D02*
X54572284Y-50860000D01*
X54572284Y-50860000D02*
X54629427Y-50802857D01*
X54629427Y-50802857D02*
X54629427Y-50917142D01*
X53543713Y-52002857D02*
X53543713Y-51374285D01*
X53543713Y-51374285D02*
X53600855Y-51260000D01*
X53600855Y-51260000D02*
X53715141Y-51202857D01*
X53715141Y-51202857D02*
X53943713Y-51202857D01*
X53943713Y-51202857D02*
X54057998Y-51260000D01*
X53543713Y-51945714D02*
X53657998Y-52002857D01*
X53657998Y-52002857D02*
X53943713Y-52002857D01*
X53943713Y-52002857D02*
X54057998Y-51945714D01*
X54057998Y-51945714D02*
X54115141Y-51831428D01*
X54115141Y-51831428D02*
X54115141Y-51717142D01*
X54115141Y-51717142D02*
X54057998Y-51602857D01*
X54057998Y-51602857D02*
X53943713Y-51545714D01*
X53943713Y-51545714D02*
X53657998Y-51545714D01*
X53657998Y-51545714D02*
X53543713Y-51488571D01*
X52309427Y-50917142D02*
X52252284Y-50860000D01*
X52252284Y-50860000D02*
X52137999Y-50802857D01*
X52137999Y-50802857D02*
X51852284Y-50802857D01*
X51852284Y-50802857D02*
X51737999Y-50860000D01*
X51737999Y-50860000D02*
X51680856Y-50917142D01*
X51680856Y-50917142D02*
X51623713Y-51031428D01*
X51623713Y-51031428D02*
X51623713Y-51145714D01*
X51623713Y-51145714D02*
X51680856Y-51317142D01*
X51680856Y-51317142D02*
X52366570Y-52002857D01*
X52366570Y-52002857D02*
X51623713Y-52002857D01*
X50880856Y-50802857D02*
X50766570Y-50802857D01*
X50766570Y-50802857D02*
X50652284Y-50860000D01*
X50652284Y-50860000D02*
X50595142Y-50917142D01*
X50595142Y-50917142D02*
X50537999Y-51031428D01*
X50537999Y-51031428D02*
X50480856Y-51260000D01*
X50480856Y-51260000D02*
X50480856Y-51545714D01*
X50480856Y-51545714D02*
X50537999Y-51774285D01*
X50537999Y-51774285D02*
X50595142Y-51888571D01*
X50595142Y-51888571D02*
X50652284Y-51945714D01*
X50652284Y-51945714D02*
X50766570Y-52002857D01*
X50766570Y-52002857D02*
X50880856Y-52002857D01*
X50880856Y-52002857D02*
X50995142Y-51945714D01*
X50995142Y-51945714D02*
X51052284Y-51888571D01*
X51052284Y-51888571D02*
X51109427Y-51774285D01*
X51109427Y-51774285D02*
X51166570Y-51545714D01*
X51166570Y-51545714D02*
X51166570Y-51260000D01*
X51166570Y-51260000D02*
X51109427Y-51031428D01*
X51109427Y-51031428D02*
X51052284Y-50917142D01*
X51052284Y-50917142D02*
X50995142Y-50860000D01*
X50995142Y-50860000D02*
X50880856Y-50802857D01*
X50023713Y-50917142D02*
X49966570Y-50860000D01*
X49966570Y-50860000D02*
X49852285Y-50802857D01*
X49852285Y-50802857D02*
X49566570Y-50802857D01*
X49566570Y-50802857D02*
X49452285Y-50860000D01*
X49452285Y-50860000D02*
X49395142Y-50917142D01*
X49395142Y-50917142D02*
X49337999Y-51031428D01*
X49337999Y-51031428D02*
X49337999Y-51145714D01*
X49337999Y-51145714D02*
X49395142Y-51317142D01*
X49395142Y-51317142D02*
X50080856Y-52002857D01*
X50080856Y-52002857D02*
X49337999Y-52002857D01*
X48880856Y-50917142D02*
X48823713Y-50860000D01*
X48823713Y-50860000D02*
X48709428Y-50802857D01*
X48709428Y-50802857D02*
X48423713Y-50802857D01*
X48423713Y-50802857D02*
X48309428Y-50860000D01*
X48309428Y-50860000D02*
X48252285Y-50917142D01*
X48252285Y-50917142D02*
X48195142Y-51031428D01*
X48195142Y-51031428D02*
X48195142Y-51145714D01*
X48195142Y-51145714D02*
X48252285Y-51317142D01*
X48252285Y-51317142D02*
X48937999Y-52002857D01*
X48937999Y-52002857D02*
X48195142Y-52002857D01*
D14*
X45973999Y-33400999D03*
D15*
X43433999Y-33400999D03*
X45973999Y-35940999D03*
X43433999Y-35940999D03*
X45973999Y-38480999D03*
X43433999Y-38480999D03*
X45973999Y-41020999D03*
X43433999Y-41020999D03*
X45973999Y-43560999D03*
X43433999Y-43560999D03*
X45973999Y-46100999D03*
X43433999Y-46100999D03*
X45973999Y-48640999D03*
X43433999Y-48640999D03*
X45973999Y-51180999D03*
X43433999Y-51180999D03*
D14*
X71373999Y-33400999D03*
D15*
X68833999Y-33400999D03*
X71373999Y-35940999D03*
X68833999Y-35940999D03*
X71373999Y-38480999D03*
X68833999Y-38480999D03*
X71373999Y-41020999D03*
X68833999Y-41020999D03*
X71373999Y-43560999D03*
X68833999Y-43560999D03*
X71373999Y-46100999D03*
X68833999Y-46100999D03*
X71373999Y-48640999D03*
X68833999Y-48640999D03*
X71373999Y-51180999D03*
X68833999Y-51180999D03*
D16*
X53594000Y-42799000D03*
X57785000Y-36449000D03*
X51689000Y-39243000D03*
X64516000Y-36830000D03*
X61087000Y-43053000D03*
D17*
X55330000Y-40770000D03*
X56380380Y-40769540D03*
D16*
X49784000Y-39116000D03*
X53594000Y-44704000D03*
X57658000Y-34798000D03*
X59502040Y-43037760D03*
D18*
X59690000Y-46228000D03*
X62992000Y-42926000D03*
X54356000Y-34290000D03*
X58928014Y-34798000D03*
X58074560Y-39019480D03*
D17*
X56381040Y-40068220D03*
D18*
X57277000Y-43815000D03*
D17*
X56030520Y-41117240D03*
X54980840Y-40769540D03*
X56378500Y-40418740D03*
D18*
X67564000Y-42418000D03*
X60960000Y-38608000D03*
X62020686Y-36023314D03*
D17*
X54980840Y-40065960D03*
D18*
X54737000Y-37973000D03*
D17*
X55679340Y-41120060D03*
D18*
X50800000Y-42418000D03*
D17*
X54980840Y-40421560D03*
X55681880Y-40065960D03*
X56027320Y-40065960D03*
X55331360Y-40065960D03*
X54980840Y-41120060D03*
D18*
X49784000Y-41275000D03*
X47752000Y-38354000D03*
X54102000Y-46355000D03*
D19*
X59124315Y-46228000D02*
X59690000Y-46228000D01*
X57727315Y-47625000D02*
X59124315Y-46228000D01*
X45847000Y-41021000D02*
X45847000Y-41148000D01*
X45847000Y-41148000D02*
X52324000Y-47625000D01*
X52324000Y-47625000D02*
X57727315Y-47625000D01*
X68834000Y-48641000D02*
X68707000Y-48641000D01*
X68707000Y-48641000D02*
X62992000Y-42926000D01*
X54705999Y-33940001D02*
X58070015Y-33940001D01*
X58578015Y-34448001D02*
X58928014Y-34798000D01*
X54356000Y-34290000D02*
X54705999Y-33940001D01*
X58070015Y-33940001D02*
X58578015Y-34448001D01*
X58221880Y-39019480D02*
X59715400Y-40513000D01*
X59715400Y-40513000D02*
X66167000Y-40513000D01*
X68199000Y-38481000D02*
X68834000Y-38481000D01*
X66167000Y-40513000D02*
X68199000Y-38481000D01*
X58074560Y-39019480D02*
X58221880Y-39019480D01*
X67377919Y-41529000D02*
X67885919Y-41021000D01*
D20*
X57848220Y-40068220D02*
X58420000Y-40640000D01*
D19*
X67885919Y-41021000D02*
X68834000Y-41021000D01*
X59309000Y-41529000D02*
X67377919Y-41529000D01*
D20*
X56381040Y-40068220D02*
X57848220Y-40068220D01*
D19*
X58420000Y-40640000D02*
X59309000Y-41529000D01*
X49022000Y-41910000D02*
X50927000Y-43815000D01*
X50927000Y-43815000D02*
X56782026Y-43815000D01*
X56782026Y-43815000D02*
X57277000Y-43815000D01*
X49022000Y-38354000D02*
X49022000Y-41910000D01*
X44531000Y-37165000D02*
X47833000Y-37165000D01*
X43307000Y-35941000D02*
X44531000Y-37165000D01*
X47833000Y-37165000D02*
X49022000Y-38354000D01*
D20*
X58729880Y-42437380D02*
X58729880Y-43139360D01*
D19*
X47371000Y-40640000D02*
X46482000Y-39751000D01*
D20*
X56030520Y-41117240D02*
X57409740Y-41117240D01*
D19*
X47371000Y-41567100D02*
X47371000Y-40640000D01*
X52920900Y-47117000D02*
X47371000Y-41567100D01*
X58729880Y-43139360D02*
X58729880Y-45029120D01*
X46482000Y-39751000D02*
X44577000Y-39751000D01*
X56642000Y-47117000D02*
X52920900Y-47117000D01*
D20*
X57409740Y-41117240D02*
X58729880Y-42437380D01*
D19*
X58729880Y-45029120D02*
X56642000Y-47117000D01*
X44577000Y-39751000D02*
X43307000Y-38481000D01*
X53095599Y-39760599D02*
X53095599Y-34026401D01*
X61158010Y-32821990D02*
X62301010Y-31678990D01*
X54300010Y-32821990D02*
X61158010Y-32821990D01*
X72490990Y-31678990D02*
X73138000Y-32326000D01*
D20*
X54980840Y-40769540D02*
X54104540Y-40769540D01*
D19*
X73138000Y-32326000D02*
X73138000Y-44591000D01*
X53095599Y-34026401D02*
X54300010Y-32821990D01*
X73138000Y-44591000D02*
X71628000Y-46101000D01*
D20*
X54104540Y-40769540D02*
X53721000Y-40386000D01*
D19*
X71628000Y-46101000D02*
X71374000Y-46101000D01*
X53721000Y-40386000D02*
X53095599Y-39760599D01*
X62301010Y-31678990D02*
X72490990Y-31678990D01*
D20*
X57563740Y-40418740D02*
X58293000Y-41148000D01*
D19*
X67564000Y-42418000D02*
X67310000Y-42164000D01*
X59309000Y-42164000D02*
X58293000Y-41148000D01*
D20*
X56378500Y-40418740D02*
X57563740Y-40418740D01*
D19*
X67310000Y-42164000D02*
X59309000Y-42164000D01*
X60960000Y-37084000D02*
X62020686Y-36023314D01*
X60960000Y-38608000D02*
X60960000Y-37084000D01*
D20*
X54980840Y-40065960D02*
X54737000Y-39822120D01*
X54737000Y-39822120D02*
X54737000Y-37973000D01*
D19*
X54102000Y-41910000D02*
X51308000Y-41910000D01*
X51149999Y-42068001D02*
X50800000Y-42418000D01*
D20*
X55679340Y-41120060D02*
X55679340Y-41475660D01*
D19*
X54356000Y-41656000D02*
X54102000Y-41910000D01*
D20*
X55499000Y-41656000D02*
X54356000Y-41656000D01*
D19*
X51308000Y-41910000D02*
X51149999Y-42068001D01*
D20*
X55679340Y-41475660D02*
X55499000Y-41656000D01*
D19*
X55797941Y-35796999D02*
X60215001Y-35796999D01*
X63881000Y-32131000D02*
X70358000Y-32131000D01*
X60215001Y-35796999D02*
X63881000Y-32131000D01*
D20*
X54980840Y-40421560D02*
X54804064Y-40421560D01*
D19*
X53848000Y-37746940D02*
X55797941Y-35796999D01*
D20*
X53848000Y-39465496D02*
X53848000Y-38608000D01*
D19*
X71374000Y-33147000D02*
X71374000Y-33401000D01*
D20*
X54804064Y-40421560D02*
X53848000Y-39465496D01*
D19*
X53848000Y-38608000D02*
X53848000Y-37746940D01*
X70358000Y-32131000D02*
X71374000Y-33147000D01*
X71374000Y-38481000D02*
X70104000Y-37211000D01*
X65151000Y-40005000D02*
X60076080Y-40005000D01*
D20*
X55681880Y-39695120D02*
X57277000Y-38100000D01*
X55681880Y-40065960D02*
X55681880Y-39695120D01*
D19*
X58171080Y-38100000D02*
X57404000Y-38100000D01*
X60076080Y-40005000D02*
X58171080Y-38100000D01*
X67945000Y-37211000D02*
X65151000Y-40005000D01*
D20*
X57277000Y-38100000D02*
X57404000Y-38100000D01*
D19*
X70104000Y-37211000D02*
X67945000Y-37211000D01*
D20*
X56027320Y-40065960D02*
X56027320Y-39889184D01*
X56027320Y-39889184D02*
X56211224Y-39705280D01*
D19*
X59410600Y-41021000D02*
X66675000Y-41021000D01*
X58054240Y-39730680D02*
X58120280Y-39730680D01*
X67919600Y-39776400D02*
X70383400Y-39776400D01*
X71374000Y-40767000D02*
X71374000Y-41021000D01*
X58120280Y-39730680D02*
X59410600Y-41021000D01*
X66675000Y-41021000D02*
X67919600Y-39776400D01*
X70383400Y-39776400D02*
X71374000Y-40767000D01*
D20*
X56211224Y-39705280D02*
X58044080Y-39705280D01*
D19*
X58293000Y-37465000D02*
X60325000Y-39497000D01*
X61595000Y-39497000D02*
X62230000Y-38862000D01*
X55372000Y-38862000D02*
X55372000Y-38227000D01*
X62230000Y-37592000D02*
X65151000Y-34671000D01*
X60325000Y-39497000D02*
X61595000Y-39497000D01*
X69977000Y-34671000D02*
X71247000Y-35941000D01*
D20*
X55331360Y-38902640D02*
X55372000Y-38862000D01*
D19*
X71247000Y-35941000D02*
X71374000Y-35941000D01*
X62230000Y-38862000D02*
X62230000Y-37592000D01*
D20*
X55331360Y-40065960D02*
X55331360Y-38902640D01*
D19*
X55372000Y-38227000D02*
X56134000Y-37465000D01*
X65151000Y-34671000D02*
X69977000Y-34671000D01*
X56134000Y-37465000D02*
X58293000Y-37465000D01*
D20*
X54978300Y-41120060D02*
X53858160Y-41120060D01*
D19*
X53848000Y-41148000D02*
X53721000Y-41275000D01*
X50349685Y-41275000D02*
X49784000Y-41275000D01*
X53721000Y-41275000D02*
X50349685Y-41275000D01*
X53702001Y-45955001D02*
X52432001Y-45955001D01*
X47752000Y-39370000D02*
X47752000Y-38354000D01*
X52432001Y-45955001D02*
X48006000Y-41529000D01*
X54102000Y-46355000D02*
X53702001Y-45955001D01*
X48006000Y-41529000D02*
X48006000Y-39624000D01*
X48006000Y-39624000D02*
X47752000Y-39370000D01*
M02*
