G04 #@! TF.GenerationSoftware,KiCad,Pcbnew,7.0.0*
G04 #@! TF.CreationDate,2024-03-13T15:56:49+01:00*
G04 #@! TF.ProjectId,ADAU1787_rack,41444155-3137-4383-975f-7261636b2e6b,rev?*
G04 #@! TF.SameCoordinates,Original*
G04 #@! TF.FileFunction,Paste,Top*
G04 #@! TF.FilePolarity,Positive*
%FSLAX46Y46*%
G04 Gerber Fmt 4.6, Leading zero omitted, Abs format (unit mm)*
G04 Created by KiCad (PCBNEW 7.0.0) date 2024-03-13 15:56:49*
%MOMM*%
%LPD*%
G01*
G04 APERTURE LIST*
G04 Aperture macros list*
%AMRoundRect*
0 Rectangle with rounded corners*
0 $1 Rounding radius*
0 $2 $3 $4 $5 $6 $7 $8 $9 X,Y pos of 4 corners*
0 Add a 4 corners polygon primitive as box body*
4,1,4,$2,$3,$4,$5,$6,$7,$8,$9,$2,$3,0*
0 Add four circle primitives for the rounded corners*
1,1,$1+$1,$2,$3*
1,1,$1+$1,$4,$5*
1,1,$1+$1,$6,$7*
1,1,$1+$1,$8,$9*
0 Add four rect primitives between the rounded corners*
20,1,$1+$1,$2,$3,$4,$5,0*
20,1,$1+$1,$4,$5,$6,$7,0*
20,1,$1+$1,$6,$7,$8,$9,0*
20,1,$1+$1,$8,$9,$2,$3,0*%
G04 Aperture macros list end*
%ADD10C,0.445000*%
%ADD11C,0.010000*%
%ADD12RoundRect,0.218750X-0.256250X0.218750X-0.256250X-0.218750X0.256250X-0.218750X0.256250X0.218750X0*%
%ADD13RoundRect,0.218750X0.218750X0.256250X-0.218750X0.256250X-0.218750X-0.256250X0.218750X-0.256250X0*%
%ADD14RoundRect,0.218750X-0.218750X-0.256250X0.218750X-0.256250X0.218750X0.256250X-0.218750X0.256250X0*%
%ADD15RoundRect,0.100000X0.637500X0.100000X-0.637500X0.100000X-0.637500X-0.100000X0.637500X-0.100000X0*%
%ADD16RoundRect,0.218750X0.256250X-0.218750X0.256250X0.218750X-0.256250X0.218750X-0.256250X-0.218750X0*%
%ADD17RoundRect,0.019600X0.120400X-0.700400X0.120400X0.700400X-0.120400X0.700400X-0.120400X-0.700400X0*%
%ADD18RoundRect,0.250000X-0.250000X-0.475000X0.250000X-0.475000X0.250000X0.475000X-0.250000X0.475000X0*%
%ADD19RoundRect,0.250000X-0.475000X0.250000X-0.475000X-0.250000X0.475000X-0.250000X0.475000X0.250000X0*%
%ADD20RoundRect,0.200000X-0.200000X-0.275000X0.200000X-0.275000X0.200000X0.275000X-0.200000X0.275000X0*%
%ADD21RoundRect,0.250000X0.312500X0.625000X-0.312500X0.625000X-0.312500X-0.625000X0.312500X-0.625000X0*%
%ADD22RoundRect,0.200000X0.275000X-0.200000X0.275000X0.200000X-0.275000X0.200000X-0.275000X-0.200000X0*%
%ADD23RoundRect,0.250000X0.250000X0.475000X-0.250000X0.475000X-0.250000X-0.475000X0.250000X-0.475000X0*%
%ADD24RoundRect,0.200000X-0.275000X0.200000X-0.275000X-0.200000X0.275000X-0.200000X0.275000X0.200000X0*%
G04 APERTURE END LIST*
D10*
X248082500Y-139535000D02*
G75*
G03*
X248082500Y-139535000I-222500J0D01*
G01*
X246812500Y-139535000D02*
G75*
G03*
X246812500Y-139535000I-222500J0D01*
G01*
X243002500Y-139535000D02*
G75*
G03*
X243002500Y-139535000I-222500J0D01*
G01*
X241732500Y-139535000D02*
G75*
G03*
X241732500Y-139535000I-222500J0D01*
G01*
X248082500Y-140805000D02*
G75*
G03*
X248082500Y-140805000I-222500J0D01*
G01*
X246812500Y-140805000D02*
G75*
G03*
X246812500Y-140805000I-222500J0D01*
G01*
X243002500Y-140805000D02*
G75*
G03*
X243002500Y-140805000I-222500J0D01*
G01*
X241732500Y-140805000D02*
G75*
G03*
X241732500Y-140805000I-222500J0D01*
G01*
X248082500Y-142075000D02*
G75*
G03*
X248082500Y-142075000I-222500J0D01*
G01*
X246812500Y-142075000D02*
G75*
G03*
X246812500Y-142075000I-222500J0D01*
G01*
X243002500Y-142075000D02*
G75*
G03*
X243002500Y-142075000I-222500J0D01*
G01*
X241732500Y-142075000D02*
G75*
G03*
X241732500Y-142075000I-222500J0D01*
G01*
X248082500Y-143345000D02*
G75*
G03*
X248082500Y-143345000I-222500J0D01*
G01*
X246812500Y-143345000D02*
G75*
G03*
X246812500Y-143345000I-222500J0D01*
G01*
X243002500Y-143345000D02*
G75*
G03*
X243002500Y-143345000I-222500J0D01*
G01*
X241732500Y-143345000D02*
G75*
G03*
X241732500Y-143345000I-222500J0D01*
G01*
X248082500Y-144615000D02*
G75*
G03*
X248082500Y-144615000I-222500J0D01*
G01*
X246812500Y-144615000D02*
G75*
G03*
X246812500Y-144615000I-222500J0D01*
G01*
X243002500Y-144615000D02*
G75*
G03*
X243002500Y-144615000I-222500J0D01*
G01*
X241732500Y-144615000D02*
G75*
G03*
X241732500Y-144615000I-222500J0D01*
G01*
X248082500Y-145885000D02*
G75*
G03*
X248082500Y-145885000I-222500J0D01*
G01*
X246812500Y-145885000D02*
G75*
G03*
X246812500Y-145885000I-222500J0D01*
G01*
X243002500Y-145885000D02*
G75*
G03*
X243002500Y-145885000I-222500J0D01*
G01*
X241732500Y-145885000D02*
G75*
G03*
X241732500Y-145885000I-222500J0D01*
G01*
X248082500Y-147155000D02*
G75*
G03*
X248082500Y-147155000I-222500J0D01*
G01*
X246812500Y-147155000D02*
G75*
G03*
X246812500Y-147155000I-222500J0D01*
G01*
X243002500Y-147155000D02*
G75*
G03*
X243002500Y-147155000I-222500J0D01*
G01*
X241732500Y-147155000D02*
G75*
G03*
X241732500Y-147155000I-222500J0D01*
G01*
X248082500Y-148425000D02*
G75*
G03*
X248082500Y-148425000I-222500J0D01*
G01*
X246812500Y-148425000D02*
G75*
G03*
X246812500Y-148425000I-222500J0D01*
G01*
X243002500Y-148425000D02*
G75*
G03*
X243002500Y-148425000I-222500J0D01*
G01*
X241732500Y-148425000D02*
G75*
G03*
X241732500Y-148425000I-222500J0D01*
G01*
X248082500Y-149695000D02*
G75*
G03*
X248082500Y-149695000I-222500J0D01*
G01*
X246812500Y-149695000D02*
G75*
G03*
X246812500Y-149695000I-222500J0D01*
G01*
X243002500Y-149695000D02*
G75*
G03*
X243002500Y-149695000I-222500J0D01*
G01*
X241732500Y-149695000D02*
G75*
G03*
X241732500Y-149695000I-222500J0D01*
G01*
X248082500Y-150965000D02*
G75*
G03*
X248082500Y-150965000I-222500J0D01*
G01*
X246812500Y-150965000D02*
G75*
G03*
X246812500Y-150965000I-222500J0D01*
G01*
X243002500Y-150965000D02*
G75*
G03*
X243002500Y-150965000I-222500J0D01*
G01*
X241732500Y-150965000D02*
G75*
G03*
X241732500Y-150965000I-222500J0D01*
G01*
X248082500Y-152235000D02*
G75*
G03*
X248082500Y-152235000I-222500J0D01*
G01*
X246812500Y-152235000D02*
G75*
G03*
X246812500Y-152235000I-222500J0D01*
G01*
X243002500Y-152235000D02*
G75*
G03*
X243002500Y-152235000I-222500J0D01*
G01*
X241732500Y-152235000D02*
G75*
G03*
X241732500Y-152235000I-222500J0D01*
G01*
X248082500Y-153505000D02*
G75*
G03*
X248082500Y-153505000I-222500J0D01*
G01*
X246812500Y-153505000D02*
G75*
G03*
X246812500Y-153505000I-222500J0D01*
G01*
X243002500Y-153505000D02*
G75*
G03*
X243002500Y-153505000I-222500J0D01*
G01*
X241732500Y-153505000D02*
G75*
G03*
X241732500Y-153505000I-222500J0D01*
G01*
X248082500Y-154775000D02*
G75*
G03*
X248082500Y-154775000I-222500J0D01*
G01*
X246812500Y-154775000D02*
G75*
G03*
X246812500Y-154775000I-222500J0D01*
G01*
X243002500Y-154775000D02*
G75*
G03*
X243002500Y-154775000I-222500J0D01*
G01*
X241732500Y-154775000D02*
G75*
G03*
X241732500Y-154775000I-222500J0D01*
G01*
X248082500Y-156045000D02*
G75*
G03*
X248082500Y-156045000I-222500J0D01*
G01*
X246812500Y-156045000D02*
G75*
G03*
X246812500Y-156045000I-222500J0D01*
G01*
X243002500Y-156045000D02*
G75*
G03*
X243002500Y-156045000I-222500J0D01*
G01*
X241732500Y-156045000D02*
G75*
G03*
X241732500Y-156045000I-222500J0D01*
G01*
X248082500Y-157315000D02*
G75*
G03*
X248082500Y-157315000I-222500J0D01*
G01*
X246812500Y-157315000D02*
G75*
G03*
X246812500Y-157315000I-222500J0D01*
G01*
X243002500Y-157315000D02*
G75*
G03*
X243002500Y-157315000I-222500J0D01*
G01*
X241732500Y-157315000D02*
G75*
G03*
X241732500Y-157315000I-222500J0D01*
G01*
X248082500Y-158585000D02*
G75*
G03*
X248082500Y-158585000I-222500J0D01*
G01*
X246812500Y-158585000D02*
G75*
G03*
X246812500Y-158585000I-222500J0D01*
G01*
X243002500Y-158585000D02*
G75*
G03*
X243002500Y-158585000I-222500J0D01*
G01*
X241732500Y-158585000D02*
G75*
G03*
X241732500Y-158585000I-222500J0D01*
G01*
X248082500Y-159855000D02*
G75*
G03*
X248082500Y-159855000I-222500J0D01*
G01*
X246812500Y-159855000D02*
G75*
G03*
X246812500Y-159855000I-222500J0D01*
G01*
X243002500Y-159855000D02*
G75*
G03*
X243002500Y-159855000I-222500J0D01*
G01*
X241732500Y-159855000D02*
G75*
G03*
X241732500Y-159855000I-222500J0D01*
G01*
X248082500Y-161125000D02*
G75*
G03*
X248082500Y-161125000I-222500J0D01*
G01*
X246812500Y-161125000D02*
G75*
G03*
X246812500Y-161125000I-222500J0D01*
G01*
X243002500Y-161125000D02*
G75*
G03*
X243002500Y-161125000I-222500J0D01*
G01*
X241732500Y-161125000D02*
G75*
G03*
X241732500Y-161125000I-222500J0D01*
G01*
X248082500Y-162395000D02*
G75*
G03*
X248082500Y-162395000I-222500J0D01*
G01*
X246812500Y-162395000D02*
G75*
G03*
X246812500Y-162395000I-222500J0D01*
G01*
X243002500Y-162395000D02*
G75*
G03*
X243002500Y-162395000I-222500J0D01*
G01*
X241732500Y-162395000D02*
G75*
G03*
X241732500Y-162395000I-222500J0D01*
G01*
X248082500Y-163665000D02*
G75*
G03*
X248082500Y-163665000I-222500J0D01*
G01*
X246812500Y-163665000D02*
G75*
G03*
X246812500Y-163665000I-222500J0D01*
G01*
X243002500Y-163665000D02*
G75*
G03*
X243002500Y-163665000I-222500J0D01*
G01*
X241732500Y-163665000D02*
G75*
G03*
X241732500Y-163665000I-222500J0D01*
G01*
X248082500Y-164935000D02*
G75*
G03*
X248082500Y-164935000I-222500J0D01*
G01*
X246812500Y-164935000D02*
G75*
G03*
X246812500Y-164935000I-222500J0D01*
G01*
X243002500Y-164935000D02*
G75*
G03*
X243002500Y-164935000I-222500J0D01*
G01*
X241732500Y-164935000D02*
G75*
G03*
X241732500Y-164935000I-222500J0D01*
G01*
X248082500Y-166205000D02*
G75*
G03*
X248082500Y-166205000I-222500J0D01*
G01*
X246812500Y-166205000D02*
G75*
G03*
X246812500Y-166205000I-222500J0D01*
G01*
X243002500Y-166205000D02*
G75*
G03*
X243002500Y-166205000I-222500J0D01*
G01*
X241732500Y-166205000D02*
G75*
G03*
X241732500Y-166205000I-222500J0D01*
G01*
X248082500Y-167475000D02*
G75*
G03*
X248082500Y-167475000I-222500J0D01*
G01*
X246812500Y-167475000D02*
G75*
G03*
X246812500Y-167475000I-222500J0D01*
G01*
X243002500Y-167475000D02*
G75*
G03*
X243002500Y-167475000I-222500J0D01*
G01*
X241732500Y-167475000D02*
G75*
G03*
X241732500Y-167475000I-222500J0D01*
G01*
X248082500Y-168745000D02*
G75*
G03*
X248082500Y-168745000I-222500J0D01*
G01*
X246812500Y-168745000D02*
G75*
G03*
X246812500Y-168745000I-222500J0D01*
G01*
X243002500Y-168745000D02*
G75*
G03*
X243002500Y-168745000I-222500J0D01*
G01*
X241732500Y-168745000D02*
G75*
G03*
X241732500Y-168745000I-222500J0D01*
G01*
X248082500Y-170015000D02*
G75*
G03*
X248082500Y-170015000I-222500J0D01*
G01*
X246812500Y-170015000D02*
G75*
G03*
X246812500Y-170015000I-222500J0D01*
G01*
X243002500Y-170015000D02*
G75*
G03*
X243002500Y-170015000I-222500J0D01*
G01*
X241732500Y-170015000D02*
G75*
G03*
X241732500Y-170015000I-222500J0D01*
G01*
X248082500Y-171285000D02*
G75*
G03*
X248082500Y-171285000I-222500J0D01*
G01*
X246812500Y-171285000D02*
G75*
G03*
X246812500Y-171285000I-222500J0D01*
G01*
X243002500Y-171285000D02*
G75*
G03*
X243002500Y-171285000I-222500J0D01*
G01*
X241732500Y-171285000D02*
G75*
G03*
X241732500Y-171285000I-222500J0D01*
G01*
X248082500Y-172555000D02*
G75*
G03*
X248082500Y-172555000I-222500J0D01*
G01*
X246812500Y-172555000D02*
G75*
G03*
X246812500Y-172555000I-222500J0D01*
G01*
X243002500Y-172555000D02*
G75*
G03*
X243002500Y-172555000I-222500J0D01*
G01*
X241732500Y-172555000D02*
G75*
G03*
X241732500Y-172555000I-222500J0D01*
G01*
X248082500Y-173825000D02*
G75*
G03*
X248082500Y-173825000I-222500J0D01*
G01*
X246812500Y-173825000D02*
G75*
G03*
X246812500Y-173825000I-222500J0D01*
G01*
X243002500Y-173825000D02*
G75*
G03*
X243002500Y-173825000I-222500J0D01*
G01*
X241732500Y-173825000D02*
G75*
G03*
X241732500Y-173825000I-222500J0D01*
G01*
X248082500Y-175095000D02*
G75*
G03*
X248082500Y-175095000I-222500J0D01*
G01*
X246812500Y-175095000D02*
G75*
G03*
X246812500Y-175095000I-222500J0D01*
G01*
X243002500Y-175095000D02*
G75*
G03*
X243002500Y-175095000I-222500J0D01*
G01*
X241732500Y-175095000D02*
G75*
G03*
X241732500Y-175095000I-222500J0D01*
G01*
X248082500Y-176365000D02*
G75*
G03*
X248082500Y-176365000I-222500J0D01*
G01*
X246812500Y-176365000D02*
G75*
G03*
X246812500Y-176365000I-222500J0D01*
G01*
X243002500Y-176365000D02*
G75*
G03*
X243002500Y-176365000I-222500J0D01*
G01*
X241732500Y-176365000D02*
G75*
G03*
X241732500Y-176365000I-222500J0D01*
G01*
X248082500Y-177635000D02*
G75*
G03*
X248082500Y-177635000I-222500J0D01*
G01*
X246812500Y-177635000D02*
G75*
G03*
X246812500Y-177635000I-222500J0D01*
G01*
X243002500Y-177635000D02*
G75*
G03*
X243002500Y-177635000I-222500J0D01*
G01*
X241732500Y-177635000D02*
G75*
G03*
X241732500Y-177635000I-222500J0D01*
G01*
X248082500Y-178905000D02*
G75*
G03*
X248082500Y-178905000I-222500J0D01*
G01*
X246812500Y-178905000D02*
G75*
G03*
X246812500Y-178905000I-222500J0D01*
G01*
X243002500Y-178905000D02*
G75*
G03*
X243002500Y-178905000I-222500J0D01*
G01*
X241732500Y-178905000D02*
G75*
G03*
X241732500Y-178905000I-222500J0D01*
G01*
X248082500Y-180175000D02*
G75*
G03*
X248082500Y-180175000I-222500J0D01*
G01*
X246812500Y-180175000D02*
G75*
G03*
X246812500Y-180175000I-222500J0D01*
G01*
X243002500Y-180175000D02*
G75*
G03*
X243002500Y-180175000I-222500J0D01*
G01*
X241732500Y-180175000D02*
G75*
G03*
X241732500Y-180175000I-222500J0D01*
G01*
X248082500Y-181445000D02*
G75*
G03*
X248082500Y-181445000I-222500J0D01*
G01*
X246812500Y-181445000D02*
G75*
G03*
X246812500Y-181445000I-222500J0D01*
G01*
X243002500Y-181445000D02*
G75*
G03*
X243002500Y-181445000I-222500J0D01*
G01*
X241732500Y-181445000D02*
G75*
G03*
X241732500Y-181445000I-222500J0D01*
G01*
X248082500Y-182715000D02*
G75*
G03*
X248082500Y-182715000I-222500J0D01*
G01*
X246812500Y-182715000D02*
G75*
G03*
X246812500Y-182715000I-222500J0D01*
G01*
X243002500Y-182715000D02*
G75*
G03*
X243002500Y-182715000I-222500J0D01*
G01*
X241732500Y-182715000D02*
G75*
G03*
X241732500Y-182715000I-222500J0D01*
G01*
X248082500Y-183985000D02*
G75*
G03*
X248082500Y-183985000I-222500J0D01*
G01*
X246812500Y-183985000D02*
G75*
G03*
X246812500Y-183985000I-222500J0D01*
G01*
X243002500Y-183985000D02*
G75*
G03*
X243002500Y-183985000I-222500J0D01*
G01*
X241732500Y-183985000D02*
G75*
G03*
X241732500Y-183985000I-222500J0D01*
G01*
X248082500Y-185255000D02*
G75*
G03*
X248082500Y-185255000I-222500J0D01*
G01*
X246812500Y-185255000D02*
G75*
G03*
X246812500Y-185255000I-222500J0D01*
G01*
X243002500Y-185255000D02*
G75*
G03*
X243002500Y-185255000I-222500J0D01*
G01*
X241732500Y-185255000D02*
G75*
G03*
X241732500Y-185255000I-222500J0D01*
G01*
X248082500Y-186525000D02*
G75*
G03*
X248082500Y-186525000I-222500J0D01*
G01*
X246812500Y-186525000D02*
G75*
G03*
X246812500Y-186525000I-222500J0D01*
G01*
X243002500Y-186525000D02*
G75*
G03*
X243002500Y-186525000I-222500J0D01*
G01*
X241732500Y-186525000D02*
G75*
G03*
X241732500Y-186525000I-222500J0D01*
G01*
X248082500Y-187795000D02*
G75*
G03*
X248082500Y-187795000I-222500J0D01*
G01*
X246812500Y-187795000D02*
G75*
G03*
X246812500Y-187795000I-222500J0D01*
G01*
X243002500Y-187795000D02*
G75*
G03*
X243002500Y-187795000I-222500J0D01*
G01*
X241732500Y-187795000D02*
G75*
G03*
X241732500Y-187795000I-222500J0D01*
G01*
X248082500Y-189065000D02*
G75*
G03*
X248082500Y-189065000I-222500J0D01*
G01*
X246812500Y-189065000D02*
G75*
G03*
X246812500Y-189065000I-222500J0D01*
G01*
X243002500Y-189065000D02*
G75*
G03*
X243002500Y-189065000I-222500J0D01*
G01*
X241732500Y-189065000D02*
G75*
G03*
X241732500Y-189065000I-222500J0D01*
G01*
G36*
X178337000Y-253404000D02*
G01*
X176607000Y-253404000D01*
X176607000Y-252574000D01*
X178337000Y-252574000D01*
X178337000Y-253404000D01*
G37*
D11*
X178337000Y-253404000D02*
X176607000Y-253404000D01*
X176607000Y-252574000D01*
X178337000Y-252574000D01*
X178337000Y-253404000D01*
G36*
X180517000Y-253404000D02*
G01*
X178787000Y-253404000D01*
X178787000Y-252574000D01*
X180517000Y-252574000D01*
X180517000Y-253404000D01*
G37*
X180517000Y-253404000D02*
X178787000Y-253404000D01*
X178787000Y-252574000D01*
X180517000Y-252574000D01*
X180517000Y-253404000D01*
G36*
X178337000Y-252124000D02*
G01*
X176607000Y-252124000D01*
X176607000Y-251294000D01*
X178337000Y-251294000D01*
X178337000Y-252124000D01*
G37*
X178337000Y-252124000D02*
X176607000Y-252124000D01*
X176607000Y-251294000D01*
X178337000Y-251294000D01*
X178337000Y-252124000D01*
G36*
X180517000Y-252124000D02*
G01*
X178787000Y-252124000D01*
X178787000Y-251294000D01*
X180517000Y-251294000D01*
X180517000Y-252124000D01*
G37*
X180517000Y-252124000D02*
X178787000Y-252124000D01*
X178787000Y-251294000D01*
X180517000Y-251294000D01*
X180517000Y-252124000D01*
D12*
X125476000Y-260553000D03*
X125476000Y-262128000D03*
X122476000Y-260553000D03*
X122476000Y-262128000D03*
D13*
X193732500Y-262600000D03*
X192157500Y-262600000D03*
D14*
X187657500Y-262600000D03*
X189232500Y-262600000D03*
D13*
X182132500Y-262638055D03*
X180557500Y-262638055D03*
D14*
X176057500Y-262638055D03*
X177632500Y-262638055D03*
X169155000Y-262618055D03*
X170730000Y-262618055D03*
D13*
X166255000Y-262618055D03*
X164680000Y-262618055D03*
D15*
X234002500Y-253384000D03*
X234002500Y-252734000D03*
X234002500Y-252084000D03*
X234002500Y-251434000D03*
X234002500Y-250784000D03*
X234002500Y-250134000D03*
X234002500Y-249484000D03*
X234002500Y-248834000D03*
X234002500Y-248184000D03*
X234002500Y-247534000D03*
X234002500Y-246884000D03*
X234002500Y-246234000D03*
X228277500Y-246234000D03*
X228277500Y-246884000D03*
X228277500Y-247534000D03*
X228277500Y-248184000D03*
X228277500Y-248834000D03*
X228277500Y-249484000D03*
X228277500Y-250134000D03*
X228277500Y-250784000D03*
X228277500Y-251434000D03*
X228277500Y-252084000D03*
X228277500Y-252734000D03*
X228277500Y-253384000D03*
D16*
X53351616Y-258696919D03*
X53351616Y-257121919D03*
X48851616Y-258696919D03*
X48851616Y-257121919D03*
X57851616Y-258696919D03*
X57851616Y-257121919D03*
D17*
X174062000Y-255234000D03*
X174562000Y-255234000D03*
X175062000Y-255234000D03*
X175562000Y-255234000D03*
X176062000Y-255234000D03*
X176562000Y-255234000D03*
X177062000Y-255234000D03*
X177562000Y-255234000D03*
X178062000Y-255234000D03*
X178562000Y-255234000D03*
X179062000Y-255234000D03*
X179562000Y-255234000D03*
X180062000Y-255234000D03*
X180562000Y-255234000D03*
X181062000Y-255234000D03*
X181562000Y-255234000D03*
X182062000Y-255234000D03*
X182562000Y-255234000D03*
X183062000Y-255234000D03*
X183062000Y-249464000D03*
X182562000Y-249464000D03*
X182062000Y-249464000D03*
X181562000Y-249464000D03*
X181062000Y-249464000D03*
X180562000Y-249464000D03*
X180062000Y-249464000D03*
X179562000Y-249464000D03*
X179062000Y-249464000D03*
X178562000Y-249464000D03*
X178062000Y-249464000D03*
X177562000Y-249464000D03*
X177062000Y-249464000D03*
X176562000Y-249464000D03*
X176062000Y-249464000D03*
X175562000Y-249464000D03*
X175062000Y-249464000D03*
X174562000Y-249464000D03*
X174062000Y-249464000D03*
D18*
X228600000Y-255270000D03*
X230500000Y-255270000D03*
D19*
X172212000Y-249560000D03*
X172212000Y-251460000D03*
D20*
X171321500Y-246761000D03*
X172971500Y-246761000D03*
X174372000Y-259588000D03*
X176022000Y-259588000D03*
D21*
X64930116Y-258572000D03*
X62005116Y-258572000D03*
X64930116Y-261112000D03*
X62005116Y-261112000D03*
X64930116Y-263652000D03*
X62005116Y-263652000D03*
D22*
X224790000Y-252920000D03*
X224790000Y-251270000D03*
D23*
X155702000Y-154940000D03*
X153802000Y-154940000D03*
X61125500Y-149860000D03*
X59225500Y-149860000D03*
D24*
X223520000Y-258446000D03*
X223520000Y-260096000D03*
D23*
X108458000Y-154940000D03*
X106558000Y-154940000D03*
X202814000Y-149860000D03*
X200914000Y-149860000D03*
X60937500Y-119888000D03*
X59037500Y-119888000D03*
D24*
X228600000Y-258446000D03*
X228600000Y-260096000D03*
D23*
X108204000Y-119888000D03*
X106304000Y-119888000D03*
X202692000Y-119888000D03*
X200792000Y-119888000D03*
D24*
X226060000Y-258446000D03*
X226060000Y-260096000D03*
D23*
X155316000Y-81534000D03*
X153416000Y-81534000D03*
X155448000Y-185166000D03*
X153548000Y-185166000D03*
X202438000Y-185166000D03*
X200538000Y-185166000D03*
X155448000Y-114808000D03*
X153548000Y-114808000D03*
X202692000Y-114808000D03*
X200792000Y-114808000D03*
X61191500Y-190246000D03*
X59291500Y-190246000D03*
X155636000Y-149860000D03*
X153736000Y-149860000D03*
X60574000Y-84582000D03*
X58674000Y-84582000D03*
X108204000Y-114808000D03*
X106304000Y-114808000D03*
X202438000Y-190246000D03*
X200538000Y-190246000D03*
X108138000Y-185166000D03*
X106238000Y-185166000D03*
X202626000Y-81534000D03*
X200726000Y-81534000D03*
X60574000Y-81534000D03*
X58674000Y-81534000D03*
X155316000Y-84582000D03*
X153416000Y-84582000D03*
X61125500Y-154940000D03*
X59225500Y-154940000D03*
X155448000Y-190246000D03*
X153548000Y-190246000D03*
X202880000Y-154940000D03*
X200980000Y-154940000D03*
X61125500Y-185166000D03*
X59225500Y-185166000D03*
X108204000Y-190246000D03*
X106304000Y-190246000D03*
X108458000Y-149860000D03*
X106558000Y-149860000D03*
X107950000Y-81534000D03*
X106050000Y-81534000D03*
X107950000Y-84582000D03*
X106050000Y-84582000D03*
X155448000Y-119888000D03*
X153548000Y-119888000D03*
X60871500Y-114808000D03*
X58971500Y-114808000D03*
X202626000Y-84582000D03*
X200726000Y-84582000D03*
M02*
