G04 #@! TF.GenerationSoftware,KiCad,Pcbnew,7.0.0*
G04 #@! TF.CreationDate,2024-03-13T15:56:49+01:00*
G04 #@! TF.ProjectId,ADAU1787_rack,41444155-3137-4383-975f-7261636b2e6b,rev?*
G04 #@! TF.SameCoordinates,Original*
G04 #@! TF.FileFunction,Paste,Bot*
G04 #@! TF.FilePolarity,Positive*
%FSLAX46Y46*%
G04 Gerber Fmt 4.6, Leading zero omitted, Abs format (unit mm)*
G04 Created by KiCad (PCBNEW 7.0.0) date 2024-03-13 15:56:49*
%MOMM*%
%LPD*%
G01*
G04 APERTURE LIST*
G04 Aperture macros list*
%AMRoundRect*
0 Rectangle with rounded corners*
0 $1 Rounding radius*
0 $2 $3 $4 $5 $6 $7 $8 $9 X,Y pos of 4 corners*
0 Add a 4 corners polygon primitive as box body*
4,1,4,$2,$3,$4,$5,$6,$7,$8,$9,$2,$3,0*
0 Add four circle primitives for the rounded corners*
1,1,$1+$1,$2,$3*
1,1,$1+$1,$4,$5*
1,1,$1+$1,$6,$7*
1,1,$1+$1,$8,$9*
0 Add four rect primitives between the rounded corners*
20,1,$1+$1,$2,$3,$4,$5,0*
20,1,$1+$1,$4,$5,$6,$7,0*
20,1,$1+$1,$6,$7,$8,$9,0*
20,1,$1+$1,$8,$9,$2,$3,0*%
G04 Aperture macros list end*
%ADD10C,0.445000*%
%ADD11RoundRect,0.250000X0.312500X0.625000X-0.312500X0.625000X-0.312500X-0.625000X0.312500X-0.625000X0*%
%ADD12RoundRect,0.250000X0.650000X-0.325000X0.650000X0.325000X-0.650000X0.325000X-0.650000X-0.325000X0*%
%ADD13RoundRect,0.200000X-0.200000X-0.275000X0.200000X-0.275000X0.200000X0.275000X-0.200000X0.275000X0*%
%ADD14RoundRect,0.250000X-0.312500X-0.625000X0.312500X-0.625000X0.312500X0.625000X-0.312500X0.625000X0*%
%ADD15R,1.655432X0.380766*%
%ADD16RoundRect,0.250000X-0.650000X0.325000X-0.650000X-0.325000X0.650000X-0.325000X0.650000X0.325000X0*%
G04 APERTURE END LIST*
D10*
X248077500Y-139535000D02*
G75*
G03*
X248077500Y-139535000I-222500J0D01*
G01*
X246807500Y-139535000D02*
G75*
G03*
X246807500Y-139535000I-222500J0D01*
G01*
X242997500Y-139535000D02*
G75*
G03*
X242997500Y-139535000I-222500J0D01*
G01*
X241727500Y-139535000D02*
G75*
G03*
X241727500Y-139535000I-222500J0D01*
G01*
X248077500Y-140805000D02*
G75*
G03*
X248077500Y-140805000I-222500J0D01*
G01*
X246807500Y-140805000D02*
G75*
G03*
X246807500Y-140805000I-222500J0D01*
G01*
X242997500Y-140805000D02*
G75*
G03*
X242997500Y-140805000I-222500J0D01*
G01*
X241727500Y-140805000D02*
G75*
G03*
X241727500Y-140805000I-222500J0D01*
G01*
X248077500Y-142075000D02*
G75*
G03*
X248077500Y-142075000I-222500J0D01*
G01*
X246807500Y-142075000D02*
G75*
G03*
X246807500Y-142075000I-222500J0D01*
G01*
X242997500Y-142075000D02*
G75*
G03*
X242997500Y-142075000I-222500J0D01*
G01*
X241727500Y-142075000D02*
G75*
G03*
X241727500Y-142075000I-222500J0D01*
G01*
X248077500Y-143345000D02*
G75*
G03*
X248077500Y-143345000I-222500J0D01*
G01*
X246807500Y-143345000D02*
G75*
G03*
X246807500Y-143345000I-222500J0D01*
G01*
X242997500Y-143345000D02*
G75*
G03*
X242997500Y-143345000I-222500J0D01*
G01*
X241727500Y-143345000D02*
G75*
G03*
X241727500Y-143345000I-222500J0D01*
G01*
X248077500Y-144615000D02*
G75*
G03*
X248077500Y-144615000I-222500J0D01*
G01*
X246807500Y-144615000D02*
G75*
G03*
X246807500Y-144615000I-222500J0D01*
G01*
X242997500Y-144615000D02*
G75*
G03*
X242997500Y-144615000I-222500J0D01*
G01*
X241727500Y-144615000D02*
G75*
G03*
X241727500Y-144615000I-222500J0D01*
G01*
X248077500Y-145885000D02*
G75*
G03*
X248077500Y-145885000I-222500J0D01*
G01*
X246807500Y-145885000D02*
G75*
G03*
X246807500Y-145885000I-222500J0D01*
G01*
X242997500Y-145885000D02*
G75*
G03*
X242997500Y-145885000I-222500J0D01*
G01*
X241727500Y-145885000D02*
G75*
G03*
X241727500Y-145885000I-222500J0D01*
G01*
X248077500Y-147155000D02*
G75*
G03*
X248077500Y-147155000I-222500J0D01*
G01*
X246807500Y-147155000D02*
G75*
G03*
X246807500Y-147155000I-222500J0D01*
G01*
X242997500Y-147155000D02*
G75*
G03*
X242997500Y-147155000I-222500J0D01*
G01*
X241727500Y-147155000D02*
G75*
G03*
X241727500Y-147155000I-222500J0D01*
G01*
X248077500Y-148425000D02*
G75*
G03*
X248077500Y-148425000I-222500J0D01*
G01*
X246807500Y-148425000D02*
G75*
G03*
X246807500Y-148425000I-222500J0D01*
G01*
X242997500Y-148425000D02*
G75*
G03*
X242997500Y-148425000I-222500J0D01*
G01*
X241727500Y-148425000D02*
G75*
G03*
X241727500Y-148425000I-222500J0D01*
G01*
X248077500Y-149695000D02*
G75*
G03*
X248077500Y-149695000I-222500J0D01*
G01*
X246807500Y-149695000D02*
G75*
G03*
X246807500Y-149695000I-222500J0D01*
G01*
X242997500Y-149695000D02*
G75*
G03*
X242997500Y-149695000I-222500J0D01*
G01*
X241727500Y-149695000D02*
G75*
G03*
X241727500Y-149695000I-222500J0D01*
G01*
X248077500Y-150965000D02*
G75*
G03*
X248077500Y-150965000I-222500J0D01*
G01*
X246807500Y-150965000D02*
G75*
G03*
X246807500Y-150965000I-222500J0D01*
G01*
X242997500Y-150965000D02*
G75*
G03*
X242997500Y-150965000I-222500J0D01*
G01*
X241727500Y-150965000D02*
G75*
G03*
X241727500Y-150965000I-222500J0D01*
G01*
X248077500Y-152235000D02*
G75*
G03*
X248077500Y-152235000I-222500J0D01*
G01*
X246807500Y-152235000D02*
G75*
G03*
X246807500Y-152235000I-222500J0D01*
G01*
X242997500Y-152235000D02*
G75*
G03*
X242997500Y-152235000I-222500J0D01*
G01*
X241727500Y-152235000D02*
G75*
G03*
X241727500Y-152235000I-222500J0D01*
G01*
X248077500Y-153505000D02*
G75*
G03*
X248077500Y-153505000I-222500J0D01*
G01*
X246807500Y-153505000D02*
G75*
G03*
X246807500Y-153505000I-222500J0D01*
G01*
X242997500Y-153505000D02*
G75*
G03*
X242997500Y-153505000I-222500J0D01*
G01*
X241727500Y-153505000D02*
G75*
G03*
X241727500Y-153505000I-222500J0D01*
G01*
X248077500Y-154775000D02*
G75*
G03*
X248077500Y-154775000I-222500J0D01*
G01*
X246807500Y-154775000D02*
G75*
G03*
X246807500Y-154775000I-222500J0D01*
G01*
X242997500Y-154775000D02*
G75*
G03*
X242997500Y-154775000I-222500J0D01*
G01*
X241727500Y-154775000D02*
G75*
G03*
X241727500Y-154775000I-222500J0D01*
G01*
X248077500Y-156045000D02*
G75*
G03*
X248077500Y-156045000I-222500J0D01*
G01*
X246807500Y-156045000D02*
G75*
G03*
X246807500Y-156045000I-222500J0D01*
G01*
X242997500Y-156045000D02*
G75*
G03*
X242997500Y-156045000I-222500J0D01*
G01*
X241727500Y-156045000D02*
G75*
G03*
X241727500Y-156045000I-222500J0D01*
G01*
X248077500Y-157315000D02*
G75*
G03*
X248077500Y-157315000I-222500J0D01*
G01*
X246807500Y-157315000D02*
G75*
G03*
X246807500Y-157315000I-222500J0D01*
G01*
X242997500Y-157315000D02*
G75*
G03*
X242997500Y-157315000I-222500J0D01*
G01*
X241727500Y-157315000D02*
G75*
G03*
X241727500Y-157315000I-222500J0D01*
G01*
X248077500Y-158585000D02*
G75*
G03*
X248077500Y-158585000I-222500J0D01*
G01*
X246807500Y-158585000D02*
G75*
G03*
X246807500Y-158585000I-222500J0D01*
G01*
X242997500Y-158585000D02*
G75*
G03*
X242997500Y-158585000I-222500J0D01*
G01*
X241727500Y-158585000D02*
G75*
G03*
X241727500Y-158585000I-222500J0D01*
G01*
X248077500Y-159855000D02*
G75*
G03*
X248077500Y-159855000I-222500J0D01*
G01*
X246807500Y-159855000D02*
G75*
G03*
X246807500Y-159855000I-222500J0D01*
G01*
X242997500Y-159855000D02*
G75*
G03*
X242997500Y-159855000I-222500J0D01*
G01*
X241727500Y-159855000D02*
G75*
G03*
X241727500Y-159855000I-222500J0D01*
G01*
X248077500Y-161125000D02*
G75*
G03*
X248077500Y-161125000I-222500J0D01*
G01*
X246807500Y-161125000D02*
G75*
G03*
X246807500Y-161125000I-222500J0D01*
G01*
X242997500Y-161125000D02*
G75*
G03*
X242997500Y-161125000I-222500J0D01*
G01*
X241727500Y-161125000D02*
G75*
G03*
X241727500Y-161125000I-222500J0D01*
G01*
X248077500Y-162395000D02*
G75*
G03*
X248077500Y-162395000I-222500J0D01*
G01*
X246807500Y-162395000D02*
G75*
G03*
X246807500Y-162395000I-222500J0D01*
G01*
X242997500Y-162395000D02*
G75*
G03*
X242997500Y-162395000I-222500J0D01*
G01*
X241727500Y-162395000D02*
G75*
G03*
X241727500Y-162395000I-222500J0D01*
G01*
X248077500Y-163665000D02*
G75*
G03*
X248077500Y-163665000I-222500J0D01*
G01*
X246807500Y-163665000D02*
G75*
G03*
X246807500Y-163665000I-222500J0D01*
G01*
X242997500Y-163665000D02*
G75*
G03*
X242997500Y-163665000I-222500J0D01*
G01*
X241727500Y-163665000D02*
G75*
G03*
X241727500Y-163665000I-222500J0D01*
G01*
X248077500Y-164935000D02*
G75*
G03*
X248077500Y-164935000I-222500J0D01*
G01*
X246807500Y-164935000D02*
G75*
G03*
X246807500Y-164935000I-222500J0D01*
G01*
X242997500Y-164935000D02*
G75*
G03*
X242997500Y-164935000I-222500J0D01*
G01*
X241727500Y-164935000D02*
G75*
G03*
X241727500Y-164935000I-222500J0D01*
G01*
X248077500Y-166205000D02*
G75*
G03*
X248077500Y-166205000I-222500J0D01*
G01*
X246807500Y-166205000D02*
G75*
G03*
X246807500Y-166205000I-222500J0D01*
G01*
X242997500Y-166205000D02*
G75*
G03*
X242997500Y-166205000I-222500J0D01*
G01*
X241727500Y-166205000D02*
G75*
G03*
X241727500Y-166205000I-222500J0D01*
G01*
X248077500Y-167475000D02*
G75*
G03*
X248077500Y-167475000I-222500J0D01*
G01*
X246807500Y-167475000D02*
G75*
G03*
X246807500Y-167475000I-222500J0D01*
G01*
X242997500Y-167475000D02*
G75*
G03*
X242997500Y-167475000I-222500J0D01*
G01*
X241727500Y-167475000D02*
G75*
G03*
X241727500Y-167475000I-222500J0D01*
G01*
X248077500Y-168745000D02*
G75*
G03*
X248077500Y-168745000I-222500J0D01*
G01*
X246807500Y-168745000D02*
G75*
G03*
X246807500Y-168745000I-222500J0D01*
G01*
X242997500Y-168745000D02*
G75*
G03*
X242997500Y-168745000I-222500J0D01*
G01*
X241727500Y-168745000D02*
G75*
G03*
X241727500Y-168745000I-222500J0D01*
G01*
X248077500Y-170015000D02*
G75*
G03*
X248077500Y-170015000I-222500J0D01*
G01*
X246807500Y-170015000D02*
G75*
G03*
X246807500Y-170015000I-222500J0D01*
G01*
X242997500Y-170015000D02*
G75*
G03*
X242997500Y-170015000I-222500J0D01*
G01*
X241727500Y-170015000D02*
G75*
G03*
X241727500Y-170015000I-222500J0D01*
G01*
X248077500Y-171285000D02*
G75*
G03*
X248077500Y-171285000I-222500J0D01*
G01*
X246807500Y-171285000D02*
G75*
G03*
X246807500Y-171285000I-222500J0D01*
G01*
X242997500Y-171285000D02*
G75*
G03*
X242997500Y-171285000I-222500J0D01*
G01*
X241727500Y-171285000D02*
G75*
G03*
X241727500Y-171285000I-222500J0D01*
G01*
X248077500Y-172555000D02*
G75*
G03*
X248077500Y-172555000I-222500J0D01*
G01*
X246807500Y-172555000D02*
G75*
G03*
X246807500Y-172555000I-222500J0D01*
G01*
X242997500Y-172555000D02*
G75*
G03*
X242997500Y-172555000I-222500J0D01*
G01*
X241727500Y-172555000D02*
G75*
G03*
X241727500Y-172555000I-222500J0D01*
G01*
X248077500Y-173825000D02*
G75*
G03*
X248077500Y-173825000I-222500J0D01*
G01*
X246807500Y-173825000D02*
G75*
G03*
X246807500Y-173825000I-222500J0D01*
G01*
X242997500Y-173825000D02*
G75*
G03*
X242997500Y-173825000I-222500J0D01*
G01*
X241727500Y-173825000D02*
G75*
G03*
X241727500Y-173825000I-222500J0D01*
G01*
X248077500Y-175095000D02*
G75*
G03*
X248077500Y-175095000I-222500J0D01*
G01*
X246807500Y-175095000D02*
G75*
G03*
X246807500Y-175095000I-222500J0D01*
G01*
X242997500Y-175095000D02*
G75*
G03*
X242997500Y-175095000I-222500J0D01*
G01*
X241727500Y-175095000D02*
G75*
G03*
X241727500Y-175095000I-222500J0D01*
G01*
X248077500Y-176365000D02*
G75*
G03*
X248077500Y-176365000I-222500J0D01*
G01*
X246807500Y-176365000D02*
G75*
G03*
X246807500Y-176365000I-222500J0D01*
G01*
X242997500Y-176365000D02*
G75*
G03*
X242997500Y-176365000I-222500J0D01*
G01*
X241727500Y-176365000D02*
G75*
G03*
X241727500Y-176365000I-222500J0D01*
G01*
X248077500Y-177635000D02*
G75*
G03*
X248077500Y-177635000I-222500J0D01*
G01*
X246807500Y-177635000D02*
G75*
G03*
X246807500Y-177635000I-222500J0D01*
G01*
X242997500Y-177635000D02*
G75*
G03*
X242997500Y-177635000I-222500J0D01*
G01*
X241727500Y-177635000D02*
G75*
G03*
X241727500Y-177635000I-222500J0D01*
G01*
X248077500Y-178905000D02*
G75*
G03*
X248077500Y-178905000I-222500J0D01*
G01*
X246807500Y-178905000D02*
G75*
G03*
X246807500Y-178905000I-222500J0D01*
G01*
X242997500Y-178905000D02*
G75*
G03*
X242997500Y-178905000I-222500J0D01*
G01*
X241727500Y-178905000D02*
G75*
G03*
X241727500Y-178905000I-222500J0D01*
G01*
X248077500Y-180175000D02*
G75*
G03*
X248077500Y-180175000I-222500J0D01*
G01*
X246807500Y-180175000D02*
G75*
G03*
X246807500Y-180175000I-222500J0D01*
G01*
X242997500Y-180175000D02*
G75*
G03*
X242997500Y-180175000I-222500J0D01*
G01*
X241727500Y-180175000D02*
G75*
G03*
X241727500Y-180175000I-222500J0D01*
G01*
X248077500Y-181445000D02*
G75*
G03*
X248077500Y-181445000I-222500J0D01*
G01*
X246807500Y-181445000D02*
G75*
G03*
X246807500Y-181445000I-222500J0D01*
G01*
X242997500Y-181445000D02*
G75*
G03*
X242997500Y-181445000I-222500J0D01*
G01*
X241727500Y-181445000D02*
G75*
G03*
X241727500Y-181445000I-222500J0D01*
G01*
X248077500Y-182715000D02*
G75*
G03*
X248077500Y-182715000I-222500J0D01*
G01*
X246807500Y-182715000D02*
G75*
G03*
X246807500Y-182715000I-222500J0D01*
G01*
X242997500Y-182715000D02*
G75*
G03*
X242997500Y-182715000I-222500J0D01*
G01*
X241727500Y-182715000D02*
G75*
G03*
X241727500Y-182715000I-222500J0D01*
G01*
X248077500Y-183985000D02*
G75*
G03*
X248077500Y-183985000I-222500J0D01*
G01*
X246807500Y-183985000D02*
G75*
G03*
X246807500Y-183985000I-222500J0D01*
G01*
X242997500Y-183985000D02*
G75*
G03*
X242997500Y-183985000I-222500J0D01*
G01*
X241727500Y-183985000D02*
G75*
G03*
X241727500Y-183985000I-222500J0D01*
G01*
X248077500Y-185255000D02*
G75*
G03*
X248077500Y-185255000I-222500J0D01*
G01*
X246807500Y-185255000D02*
G75*
G03*
X246807500Y-185255000I-222500J0D01*
G01*
X242997500Y-185255000D02*
G75*
G03*
X242997500Y-185255000I-222500J0D01*
G01*
X241727500Y-185255000D02*
G75*
G03*
X241727500Y-185255000I-222500J0D01*
G01*
X248077500Y-186525000D02*
G75*
G03*
X248077500Y-186525000I-222500J0D01*
G01*
X246807500Y-186525000D02*
G75*
G03*
X246807500Y-186525000I-222500J0D01*
G01*
X242997500Y-186525000D02*
G75*
G03*
X242997500Y-186525000I-222500J0D01*
G01*
X241727500Y-186525000D02*
G75*
G03*
X241727500Y-186525000I-222500J0D01*
G01*
X248077500Y-187795000D02*
G75*
G03*
X248077500Y-187795000I-222500J0D01*
G01*
X246807500Y-187795000D02*
G75*
G03*
X246807500Y-187795000I-222500J0D01*
G01*
X242997500Y-187795000D02*
G75*
G03*
X242997500Y-187795000I-222500J0D01*
G01*
X241727500Y-187795000D02*
G75*
G03*
X241727500Y-187795000I-222500J0D01*
G01*
X248077500Y-189065000D02*
G75*
G03*
X248077500Y-189065000I-222500J0D01*
G01*
X246807500Y-189065000D02*
G75*
G03*
X246807500Y-189065000I-222500J0D01*
G01*
X242997500Y-189065000D02*
G75*
G03*
X242997500Y-189065000I-222500J0D01*
G01*
X241727500Y-189065000D02*
G75*
G03*
X241727500Y-189065000I-222500J0D01*
G01*
D11*
X185888000Y-206546998D03*
X182963000Y-206546998D03*
X201890000Y-207054998D03*
X198965000Y-207054998D03*
X148844000Y-204372000D03*
X145919000Y-204372000D03*
X121685550Y-205642000D03*
X118760550Y-205642000D03*
D12*
X144780000Y-214737000D03*
X144780000Y-211787000D03*
D11*
X107334550Y-209198000D03*
X104409550Y-209198000D03*
D12*
X116413050Y-213467000D03*
X116413050Y-210517000D03*
X101300050Y-214610000D03*
X101300050Y-211660000D03*
D11*
X148844000Y-206912000D03*
X145919000Y-206912000D03*
D12*
X182798732Y-214491999D03*
X182798732Y-211541999D03*
D11*
X107334550Y-204118000D03*
X104409550Y-204118000D03*
D12*
X139700000Y-214737000D03*
X139700000Y-211787000D03*
D13*
X112286050Y-203356000D03*
X113936050Y-203356000D03*
D14*
X118760550Y-208182000D03*
X121685550Y-208182000D03*
X160462500Y-207518000D03*
X163387500Y-207518000D03*
D15*
X195134767Y-205866999D03*
X195134767Y-206516997D03*
X195134767Y-207166999D03*
X195134767Y-207816997D03*
X189483999Y-207816997D03*
X189483999Y-207166999D03*
X189483999Y-206516997D03*
X189483999Y-205866999D03*
D11*
X148844000Y-209452000D03*
X145919000Y-209452000D03*
D12*
X196150768Y-214068998D03*
X196150768Y-211118998D03*
X177718732Y-214491999D03*
X177718732Y-211541999D03*
X98760050Y-214610000D03*
X98760050Y-211660000D03*
D15*
X157489883Y-205937000D03*
X157489883Y-206586998D03*
X157489883Y-207237000D03*
X157489883Y-207886998D03*
X151839115Y-207886998D03*
X151839115Y-207237000D03*
X151839115Y-206586998D03*
X151839115Y-205937000D03*
D16*
X117302050Y-200230000D03*
X117302050Y-203180000D03*
D11*
X163387500Y-204724000D03*
X160462500Y-204724000D03*
D15*
X115533933Y-205937000D03*
X115533933Y-206586998D03*
X115533933Y-207237000D03*
X115533933Y-207886998D03*
X109883165Y-207886998D03*
X109883165Y-207237000D03*
X109883165Y-206586998D03*
X109883165Y-205937000D03*
D16*
X157988000Y-200914000D03*
X157988000Y-203864000D03*
D12*
X180258732Y-214491999D03*
X180258732Y-211541999D03*
D13*
X191413000Y-203244998D03*
X193063000Y-203244998D03*
D11*
X107334550Y-206658000D03*
X104409550Y-206658000D03*
D13*
X153798000Y-203708000D03*
X155448000Y-203708000D03*
D14*
X198965000Y-209594998D03*
X201890000Y-209594998D03*
D11*
X185888000Y-209086998D03*
X182963000Y-209086998D03*
D12*
X142240000Y-214737000D03*
X142240000Y-211787000D03*
D11*
X185888000Y-204006998D03*
X182963000Y-204006998D03*
D16*
X197420768Y-201056998D03*
X197420768Y-204006998D03*
D12*
X158496000Y-212803000D03*
X158496000Y-209853000D03*
X103840050Y-214610000D03*
X103840050Y-211660000D03*
M02*
