G04 #@! TF.GenerationSoftware,KiCad,Pcbnew,7.0.0*
G04 #@! TF.CreationDate,2024-03-13T15:56:50+01:00*
G04 #@! TF.ProjectId,ADAU1787_rack,41444155-3137-4383-975f-7261636b2e6b,rev?*
G04 #@! TF.SameCoordinates,Original*
G04 #@! TF.FileFunction,Soldermask,Bot*
G04 #@! TF.FilePolarity,Negative*
%FSLAX46Y46*%
G04 Gerber Fmt 4.6, Leading zero omitted, Abs format (unit mm)*
G04 Created by KiCad (PCBNEW 7.0.0) date 2024-03-13 15:56:50*
%MOMM*%
%LPD*%
G01*
G04 APERTURE LIST*
G04 Aperture macros list*
%AMRoundRect*
0 Rectangle with rounded corners*
0 $1 Rounding radius*
0 $2 $3 $4 $5 $6 $7 $8 $9 X,Y pos of 4 corners*
0 Add a 4 corners polygon primitive as box body*
4,1,4,$2,$3,$4,$5,$6,$7,$8,$9,$2,$3,0*
0 Add four circle primitives for the rounded corners*
1,1,$1+$1,$2,$3*
1,1,$1+$1,$4,$5*
1,1,$1+$1,$6,$7*
1,1,$1+$1,$8,$9*
0 Add four rect primitives between the rounded corners*
20,1,$1+$1,$2,$3,$4,$5,0*
20,1,$1+$1,$4,$5,$6,$7,0*
20,1,$1+$1,$6,$7,$8,$9,0*
20,1,$1+$1,$8,$9,$2,$3,0*%
%AMFreePoly0*
4,1,19,0.500000,-0.750000,0.000000,-0.750000,0.000000,-0.744911,-0.071157,-0.744911,-0.207708,-0.704816,-0.327430,-0.627875,-0.420627,-0.520320,-0.479746,-0.390866,-0.500000,-0.250000,-0.500000,0.250000,-0.479746,0.390866,-0.420627,0.520320,-0.327430,0.627875,-0.207708,0.704816,-0.071157,0.744911,0.000000,0.744911,0.000000,0.750000,0.500000,0.750000,0.500000,-0.750000,0.500000,-0.750000,
$1*%
%AMFreePoly1*
4,1,19,0.000000,0.744911,0.071157,0.744911,0.207708,0.704816,0.327430,0.627875,0.420627,0.520320,0.479746,0.390866,0.500000,0.250000,0.500000,-0.250000,0.479746,-0.390866,0.420627,-0.520320,0.327430,-0.627875,0.207708,-0.704816,0.071157,-0.744911,0.000000,-0.744911,0.000000,-0.750000,-0.500000,-0.750000,-0.500000,0.750000,0.000000,0.750000,0.000000,0.744911,0.000000,0.744911,
$1*%
G04 Aperture macros list end*
%ADD10R,1.700000X1.700000*%
%ADD11O,1.700000X1.700000*%
%ADD12O,1.800000X2.800000*%
%ADD13C,1.270000*%
%ADD14C,1.600000*%
%ADD15O,1.600000X1.600000*%
%ADD16C,5.000000*%
%ADD17C,4.000000*%
%ADD18R,1.800000X1.800000*%
%ADD19C,1.800000*%
%ADD20C,0.640000*%
%ADD21R,1.500000X1.000000*%
%ADD22FreePoly0,270.000000*%
%ADD23FreePoly1,270.000000*%
%ADD24RoundRect,0.250000X0.312500X0.625000X-0.312500X0.625000X-0.312500X-0.625000X0.312500X-0.625000X0*%
%ADD25RoundRect,0.250000X0.650000X-0.325000X0.650000X0.325000X-0.650000X0.325000X-0.650000X-0.325000X0*%
%ADD26RoundRect,0.200000X-0.200000X-0.275000X0.200000X-0.275000X0.200000X0.275000X-0.200000X0.275000X0*%
%ADD27RoundRect,0.250000X-0.312500X-0.625000X0.312500X-0.625000X0.312500X0.625000X-0.312500X0.625000X0*%
%ADD28R,1.655432X0.380766*%
%ADD29RoundRect,0.250000X-0.650000X0.325000X-0.650000X-0.325000X0.650000X-0.325000X0.650000X0.325000X0*%
G04 APERTURE END LIST*
D10*
X56143499Y-180073999D03*
D11*
X53603499Y-180073999D03*
X56143499Y-182613999D03*
X53603499Y-182613999D03*
X56143499Y-185153999D03*
X53603499Y-185153999D03*
X56143499Y-187693999D03*
X53603499Y-187693999D03*
X56143499Y-190233999D03*
X53603499Y-190233999D03*
X56143499Y-192773999D03*
X53603499Y-192773999D03*
X56143499Y-195313999D03*
X53603499Y-195313999D03*
X56143499Y-197853999D03*
X53603499Y-197853999D03*
D10*
X81797499Y-180073999D03*
D11*
X79257499Y-180073999D03*
X81797499Y-182613999D03*
X79257499Y-182613999D03*
X81797499Y-185153999D03*
X79257499Y-185153999D03*
X81797499Y-187693999D03*
X79257499Y-187693999D03*
X81797499Y-190233999D03*
X79257499Y-190233999D03*
X81797499Y-192773999D03*
X79257499Y-192773999D03*
X81797499Y-195313999D03*
X79257499Y-195313999D03*
X81797499Y-197853999D03*
X79257499Y-197853999D03*
D12*
X34774219Y-96843964D03*
X32974219Y-98843964D03*
X26874219Y-98843964D03*
X29274219Y-96843964D03*
X38474219Y-98843964D03*
X34774219Y-84990631D03*
X32974219Y-86990631D03*
X26874219Y-86990631D03*
X29274219Y-84990631D03*
X38474219Y-86990631D03*
X34774219Y-215377294D03*
X32974219Y-217377294D03*
X26874219Y-217377294D03*
X29274219Y-215377294D03*
X38474219Y-217377294D03*
X34774219Y-239083960D03*
X32974219Y-241083960D03*
X26874219Y-241083960D03*
X29274219Y-239083960D03*
X38474219Y-241083960D03*
X34774219Y-250937298D03*
X32974219Y-252937298D03*
X26874219Y-252937298D03*
X29274219Y-250937298D03*
X38474219Y-252937298D03*
X34774219Y-73137298D03*
X32974219Y-75137298D03*
X26874219Y-75137298D03*
X29274219Y-73137298D03*
X38474219Y-75137298D03*
X34774219Y-227230627D03*
X32974219Y-229230627D03*
X26874219Y-229230627D03*
X29274219Y-227230627D03*
X38474219Y-229230627D03*
X34774219Y-191670628D03*
X32974219Y-193670628D03*
X26874219Y-193670628D03*
X29274219Y-191670628D03*
X38474219Y-193670628D03*
X34774219Y-179817295D03*
X32974219Y-181817295D03*
X26874219Y-181817295D03*
X29274219Y-179817295D03*
X38474219Y-181817295D03*
X34774219Y-120550630D03*
X32974219Y-122550630D03*
X26874219Y-122550630D03*
X29274219Y-120550630D03*
X38474219Y-122550630D03*
X34774219Y-167963962D03*
X32974219Y-169963962D03*
X26874219Y-169963962D03*
X29274219Y-167963962D03*
X38474219Y-169963962D03*
X34774219Y-156110629D03*
X32974219Y-158110629D03*
X26874219Y-158110629D03*
X29274219Y-156110629D03*
X38474219Y-158110629D03*
X34774219Y-144257296D03*
X32974219Y-146257296D03*
X26874219Y-146257296D03*
X29274219Y-144257296D03*
X38474219Y-146257296D03*
X34774219Y-203523961D03*
X32974219Y-205523961D03*
X26874219Y-205523961D03*
X29274219Y-203523961D03*
X38474219Y-205523961D03*
D10*
X103263045Y-180073999D03*
D11*
X100723045Y-180073999D03*
X103263045Y-182613999D03*
X100723045Y-182613999D03*
X103263045Y-185153999D03*
X100723045Y-185153999D03*
X103263045Y-187693999D03*
X100723045Y-187693999D03*
X103263045Y-190233999D03*
X100723045Y-190233999D03*
X103263045Y-192773999D03*
X100723045Y-192773999D03*
X103263045Y-195313999D03*
X100723045Y-195313999D03*
X103263045Y-197853999D03*
X100723045Y-197853999D03*
D10*
X128917045Y-180073999D03*
D11*
X126377045Y-180073999D03*
X128917045Y-182613999D03*
X126377045Y-182613999D03*
X128917045Y-185153999D03*
X126377045Y-185153999D03*
X128917045Y-187693999D03*
X126377045Y-187693999D03*
X128917045Y-190233999D03*
X126377045Y-190233999D03*
X128917045Y-192773999D03*
X126377045Y-192773999D03*
X128917045Y-195313999D03*
X126377045Y-195313999D03*
X128917045Y-197853999D03*
X126377045Y-197853999D03*
D10*
X103429712Y-144823499D03*
D11*
X100889712Y-144823499D03*
X103429712Y-147363499D03*
X100889712Y-147363499D03*
X103429712Y-149903499D03*
X100889712Y-149903499D03*
X103429712Y-152443499D03*
X100889712Y-152443499D03*
X103429712Y-154983499D03*
X100889712Y-154983499D03*
X103429712Y-157523499D03*
X100889712Y-157523499D03*
X103429712Y-160063499D03*
X100889712Y-160063499D03*
X103429712Y-162603499D03*
X100889712Y-162603499D03*
D10*
X129083712Y-144823499D03*
D11*
X126543712Y-144823499D03*
X129083712Y-147363499D03*
X126543712Y-147363499D03*
X129083712Y-149903499D03*
X126543712Y-149903499D03*
X129083712Y-152443499D03*
X126543712Y-152443499D03*
X129083712Y-154983499D03*
X126543712Y-154983499D03*
X129083712Y-157523499D03*
X126543712Y-157523499D03*
X129083712Y-160063499D03*
X126543712Y-160063499D03*
X129083712Y-162603499D03*
X126543712Y-162603499D03*
D10*
X150532285Y-109727999D03*
D11*
X147992285Y-109727999D03*
X150532285Y-112267999D03*
X147992285Y-112267999D03*
X150532285Y-114807999D03*
X147992285Y-114807999D03*
X150532285Y-117347999D03*
X147992285Y-117347999D03*
X150532285Y-119887999D03*
X147992285Y-119887999D03*
X150532285Y-122427999D03*
X147992285Y-122427999D03*
X150532285Y-124967999D03*
X147992285Y-124967999D03*
X150532285Y-127507999D03*
X147992285Y-127507999D03*
D10*
X176186285Y-109727999D03*
D11*
X173646285Y-109727999D03*
X176186285Y-112267999D03*
X173646285Y-112267999D03*
X176186285Y-114807999D03*
X173646285Y-114807999D03*
X176186285Y-117347999D03*
X173646285Y-117347999D03*
X176186285Y-119887999D03*
X173646285Y-119887999D03*
X176186285Y-122427999D03*
X173646285Y-122427999D03*
X176186285Y-124967999D03*
X173646285Y-124967999D03*
X176186285Y-127507999D03*
X173646285Y-127507999D03*
D10*
X55666359Y-74421999D03*
D11*
X53126359Y-74421999D03*
X55666359Y-76961999D03*
X53126359Y-76961999D03*
X55666359Y-79501999D03*
X53126359Y-79501999D03*
X55666359Y-82041999D03*
X53126359Y-82041999D03*
X55666359Y-84581999D03*
X53126359Y-84581999D03*
X55666359Y-87121999D03*
X53126359Y-87121999D03*
X55666359Y-89661999D03*
X53126359Y-89661999D03*
X55666359Y-92201999D03*
X53126359Y-92201999D03*
D10*
X81320359Y-74421999D03*
D11*
X78780359Y-74421999D03*
X81320359Y-76961999D03*
X78780359Y-76961999D03*
X81320359Y-79501999D03*
X78780359Y-79501999D03*
X81320359Y-82041999D03*
X78780359Y-82041999D03*
X81320359Y-84581999D03*
X78780359Y-84581999D03*
X81320359Y-87121999D03*
X78780359Y-87121999D03*
X81320359Y-89661999D03*
X78780359Y-89661999D03*
X81320359Y-92201999D03*
X78780359Y-92201999D03*
D10*
X197611999Y-74421999D03*
D11*
X195071999Y-74421999D03*
X197611999Y-76961999D03*
X195071999Y-76961999D03*
X197611999Y-79501999D03*
X195071999Y-79501999D03*
X197611999Y-82041999D03*
X195071999Y-82041999D03*
X197611999Y-84581999D03*
X195071999Y-84581999D03*
X197611999Y-87121999D03*
X195071999Y-87121999D03*
X197611999Y-89661999D03*
X195071999Y-89661999D03*
X197611999Y-92201999D03*
X195071999Y-92201999D03*
D10*
X223265999Y-74421999D03*
D11*
X220725999Y-74421999D03*
X223265999Y-76961999D03*
X220725999Y-76961999D03*
X223265999Y-79501999D03*
X220725999Y-79501999D03*
X223265999Y-82041999D03*
X220725999Y-82041999D03*
X223265999Y-84581999D03*
X220725999Y-84581999D03*
X223265999Y-87121999D03*
X220725999Y-87121999D03*
X223265999Y-89661999D03*
X220725999Y-89661999D03*
X223265999Y-92201999D03*
X220725999Y-92201999D03*
D10*
X102952572Y-74421999D03*
D11*
X100412572Y-74421999D03*
X102952572Y-76961999D03*
X100412572Y-76961999D03*
X102952572Y-79501999D03*
X100412572Y-79501999D03*
X102952572Y-82041999D03*
X100412572Y-82041999D03*
X102952572Y-84581999D03*
X100412572Y-84581999D03*
X102952572Y-87121999D03*
X100412572Y-87121999D03*
X102952572Y-89661999D03*
X100412572Y-89661999D03*
X102952572Y-92201999D03*
X100412572Y-92201999D03*
D10*
X128606572Y-74421999D03*
D11*
X126066572Y-74421999D03*
X128606572Y-76961999D03*
X126066572Y-76961999D03*
X128606572Y-79501999D03*
X126066572Y-79501999D03*
X128606572Y-82041999D03*
X126066572Y-82041999D03*
X128606572Y-84581999D03*
X126066572Y-84581999D03*
X128606572Y-87121999D03*
X126066572Y-87121999D03*
X128606572Y-89661999D03*
X126066572Y-89661999D03*
X128606572Y-92201999D03*
X126066572Y-92201999D03*
D10*
X150759425Y-144823499D03*
D11*
X148219425Y-144823499D03*
X150759425Y-147363499D03*
X148219425Y-147363499D03*
X150759425Y-149903499D03*
X148219425Y-149903499D03*
X150759425Y-152443499D03*
X148219425Y-152443499D03*
X150759425Y-154983499D03*
X148219425Y-154983499D03*
X150759425Y-157523499D03*
X148219425Y-157523499D03*
X150759425Y-160063499D03*
X148219425Y-160063499D03*
X150759425Y-162603499D03*
X148219425Y-162603499D03*
D10*
X176413425Y-144823499D03*
D11*
X173873425Y-144823499D03*
X176413425Y-147363499D03*
X173873425Y-147363499D03*
X176413425Y-149903499D03*
X173873425Y-149903499D03*
X176413425Y-152443499D03*
X173873425Y-152443499D03*
X176413425Y-154983499D03*
X173873425Y-154983499D03*
X176413425Y-157523499D03*
X173873425Y-157523499D03*
X176413425Y-160063499D03*
X173873425Y-160063499D03*
X176413425Y-162603499D03*
X173873425Y-162603499D03*
D10*
X150426091Y-180073999D03*
D11*
X147886091Y-180073999D03*
X150426091Y-182613999D03*
X147886091Y-182613999D03*
X150426091Y-185153999D03*
X147886091Y-185153999D03*
X150426091Y-187693999D03*
X147886091Y-187693999D03*
X150426091Y-190233999D03*
X147886091Y-190233999D03*
X150426091Y-192773999D03*
X147886091Y-192773999D03*
X150426091Y-195313999D03*
X147886091Y-195313999D03*
X150426091Y-197853999D03*
X147886091Y-197853999D03*
D10*
X176080091Y-180073999D03*
D11*
X173540091Y-180073999D03*
X176080091Y-182613999D03*
X173540091Y-182613999D03*
X176080091Y-185153999D03*
X173540091Y-185153999D03*
X176080091Y-187693999D03*
X173540091Y-187693999D03*
X176080091Y-190233999D03*
X173540091Y-190233999D03*
X176080091Y-192773999D03*
X173540091Y-192773999D03*
X176080091Y-195313999D03*
X173540091Y-195313999D03*
X176080091Y-197853999D03*
X173540091Y-197853999D03*
D13*
X244685000Y-137110000D03*
X241635000Y-191490000D03*
D10*
X197611999Y-109727999D03*
D11*
X195071999Y-109727999D03*
X197611999Y-112267999D03*
X195071999Y-112267999D03*
X197611999Y-114807999D03*
X195071999Y-114807999D03*
X197611999Y-117347999D03*
X195071999Y-117347999D03*
X197611999Y-119887999D03*
X195071999Y-119887999D03*
X197611999Y-122427999D03*
X195071999Y-122427999D03*
X197611999Y-124967999D03*
X195071999Y-124967999D03*
X197611999Y-127507999D03*
X195071999Y-127507999D03*
D10*
X223265999Y-109727999D03*
D11*
X220725999Y-109727999D03*
X223265999Y-112267999D03*
X220725999Y-112267999D03*
X223265999Y-114807999D03*
X220725999Y-114807999D03*
X223265999Y-117347999D03*
X220725999Y-117347999D03*
X223265999Y-119887999D03*
X220725999Y-119887999D03*
X223265999Y-122427999D03*
X220725999Y-122427999D03*
X223265999Y-124967999D03*
X220725999Y-124967999D03*
X223265999Y-127507999D03*
X220725999Y-127507999D03*
D10*
X150282285Y-74421999D03*
D11*
X147742285Y-74421999D03*
X150282285Y-76961999D03*
X147742285Y-76961999D03*
X150282285Y-79501999D03*
X147742285Y-79501999D03*
X150282285Y-82041999D03*
X147742285Y-82041999D03*
X150282285Y-84581999D03*
X147742285Y-84581999D03*
X150282285Y-87121999D03*
X147742285Y-87121999D03*
X150282285Y-89661999D03*
X147742285Y-89661999D03*
X150282285Y-92201999D03*
X147742285Y-92201999D03*
D10*
X175936285Y-74421999D03*
D11*
X173396285Y-74421999D03*
X175936285Y-76961999D03*
X173396285Y-76961999D03*
X175936285Y-79501999D03*
X173396285Y-79501999D03*
X175936285Y-82041999D03*
X173396285Y-82041999D03*
X175936285Y-84581999D03*
X173396285Y-84581999D03*
X175936285Y-87121999D03*
X173396285Y-87121999D03*
X175936285Y-89661999D03*
X173396285Y-89661999D03*
X175936285Y-92201999D03*
X173396285Y-92201999D03*
D10*
X197589139Y-180073999D03*
D11*
X195049139Y-180073999D03*
X197589139Y-182613999D03*
X195049139Y-182613999D03*
X197589139Y-185153999D03*
X195049139Y-185153999D03*
X197589139Y-187693999D03*
X195049139Y-187693999D03*
X197589139Y-190233999D03*
X195049139Y-190233999D03*
X197589139Y-192773999D03*
X195049139Y-192773999D03*
X197589139Y-195313999D03*
X195049139Y-195313999D03*
X197589139Y-197853999D03*
X195049139Y-197853999D03*
D10*
X223243139Y-180073999D03*
D11*
X220703139Y-180073999D03*
X223243139Y-182613999D03*
X220703139Y-182613999D03*
X223243139Y-185153999D03*
X220703139Y-185153999D03*
X223243139Y-187693999D03*
X220703139Y-187693999D03*
X223243139Y-190233999D03*
X220703139Y-190233999D03*
X223243139Y-192773999D03*
X220703139Y-192773999D03*
X223243139Y-195313999D03*
X220703139Y-195313999D03*
X223243139Y-197853999D03*
X220703139Y-197853999D03*
D10*
X55916359Y-109727999D03*
D11*
X53376359Y-109727999D03*
X55916359Y-112267999D03*
X53376359Y-112267999D03*
X55916359Y-114807999D03*
X53376359Y-114807999D03*
X55916359Y-117347999D03*
X53376359Y-117347999D03*
X55916359Y-119887999D03*
X53376359Y-119887999D03*
X55916359Y-122427999D03*
X53376359Y-122427999D03*
X55916359Y-124967999D03*
X53376359Y-124967999D03*
X55916359Y-127507999D03*
X53376359Y-127507999D03*
D10*
X81570359Y-109727999D03*
D11*
X79030359Y-109727999D03*
X81570359Y-112267999D03*
X79030359Y-112267999D03*
X81570359Y-114807999D03*
X79030359Y-114807999D03*
X81570359Y-117347999D03*
X79030359Y-117347999D03*
X81570359Y-119887999D03*
X79030359Y-119887999D03*
X81570359Y-122427999D03*
X79030359Y-122427999D03*
X81570359Y-124967999D03*
X79030359Y-124967999D03*
X81570359Y-127507999D03*
X79030359Y-127507999D03*
D10*
X103202572Y-109727999D03*
D11*
X100662572Y-109727999D03*
X103202572Y-112267999D03*
X100662572Y-112267999D03*
X103202572Y-114807999D03*
X100662572Y-114807999D03*
X103202572Y-117347999D03*
X100662572Y-117347999D03*
X103202572Y-119887999D03*
X100662572Y-119887999D03*
X103202572Y-122427999D03*
X100662572Y-122427999D03*
X103202572Y-124967999D03*
X100662572Y-124967999D03*
X103202572Y-127507999D03*
X100662572Y-127507999D03*
D10*
X128856572Y-109727999D03*
D11*
X126316572Y-109727999D03*
X128856572Y-112267999D03*
X126316572Y-112267999D03*
X128856572Y-114807999D03*
X126316572Y-114807999D03*
X128856572Y-117347999D03*
X126316572Y-117347999D03*
X128856572Y-119887999D03*
X126316572Y-119887999D03*
X128856572Y-122427999D03*
X126316572Y-122427999D03*
X128856572Y-124967999D03*
X126316572Y-124967999D03*
X128856572Y-127507999D03*
X126316572Y-127507999D03*
D10*
X56143499Y-144823499D03*
D11*
X53603499Y-144823499D03*
X56143499Y-147363499D03*
X53603499Y-147363499D03*
X56143499Y-149903499D03*
X53603499Y-149903499D03*
X56143499Y-152443499D03*
X53603499Y-152443499D03*
X56143499Y-154983499D03*
X53603499Y-154983499D03*
X56143499Y-157523499D03*
X53603499Y-157523499D03*
X56143499Y-160063499D03*
X53603499Y-160063499D03*
X56143499Y-162603499D03*
X53603499Y-162603499D03*
D10*
X81797499Y-144823499D03*
D11*
X79257499Y-144823499D03*
X81797499Y-147363499D03*
X79257499Y-147363499D03*
X81797499Y-149903499D03*
X79257499Y-149903499D03*
X81797499Y-152443499D03*
X79257499Y-152443499D03*
X81797499Y-154983499D03*
X79257499Y-154983499D03*
X81797499Y-157523499D03*
X79257499Y-157523499D03*
X81797499Y-160063499D03*
X79257499Y-160063499D03*
X81797499Y-162603499D03*
X79257499Y-162603499D03*
D14*
X231750000Y-211470000D03*
D15*
X239369999Y-211469999D03*
D14*
X231750000Y-221770000D03*
D15*
X239369999Y-221769999D03*
D14*
X231750000Y-231770000D03*
D15*
X239369999Y-231769999D03*
D14*
X231750000Y-207660000D03*
D15*
X239369999Y-207659999D03*
D14*
X231750000Y-217960000D03*
D15*
X239369999Y-217959999D03*
D14*
X231750000Y-227960000D03*
D15*
X239369999Y-227959999D03*
D14*
X231750000Y-238270000D03*
D15*
X239369999Y-238269999D03*
D14*
X231750000Y-242080000D03*
D15*
X239369999Y-242079999D03*
D14*
X239522000Y-247870000D03*
D15*
X247141999Y-247869999D03*
D14*
X239649000Y-251333000D03*
D15*
X247268999Y-251332999D03*
D12*
X34774219Y-108697297D03*
X32974219Y-110697297D03*
X26874219Y-110697297D03*
X29274219Y-108697297D03*
X38474219Y-110697297D03*
D10*
X197839139Y-144823499D03*
D11*
X195299139Y-144823499D03*
X197839139Y-147363499D03*
X195299139Y-147363499D03*
X197839139Y-149903499D03*
X195299139Y-149903499D03*
X197839139Y-152443499D03*
X195299139Y-152443499D03*
X197839139Y-154983499D03*
X195299139Y-154983499D03*
X197839139Y-157523499D03*
X195299139Y-157523499D03*
X197839139Y-160063499D03*
X195299139Y-160063499D03*
X197839139Y-162603499D03*
X195299139Y-162603499D03*
D10*
X223493139Y-144823499D03*
D11*
X220953139Y-144823499D03*
X223493139Y-147363499D03*
X220953139Y-147363499D03*
X223493139Y-149903499D03*
X220953139Y-149903499D03*
X223493139Y-152443499D03*
X220953139Y-152443499D03*
X223493139Y-154983499D03*
X220953139Y-154983499D03*
X223493139Y-157523499D03*
X220953139Y-157523499D03*
X223493139Y-160063499D03*
X220953139Y-160063499D03*
X223493139Y-162603499D03*
X220953139Y-162603499D03*
D12*
X34774219Y-132403963D03*
X32974219Y-134403963D03*
X26874219Y-134403963D03*
X29274219Y-132403963D03*
X38474219Y-134403963D03*
D10*
X213918799Y-214121999D03*
D11*
X213918799Y-216661999D03*
D10*
X229615999Y-198135999D03*
D11*
X229615999Y-200675999D03*
D10*
X241299999Y-198095999D03*
D11*
X241299999Y-200635999D03*
X243839999Y-198095999D03*
X243839999Y-200635999D03*
X246379999Y-198095999D03*
X246379999Y-200635999D03*
X248919999Y-198095999D03*
X248919999Y-200635999D03*
X251459999Y-198095999D03*
X251459999Y-200635999D03*
D16*
X139600000Y-44000000D03*
X69600000Y-151500000D03*
D17*
X203885800Y-53644800D03*
X203915800Y-45594800D03*
X250955800Y-53654800D03*
X250985800Y-45604800D03*
D18*
X210785799Y-48424799D03*
D19*
X213555800Y-48424800D03*
X216325800Y-48424800D03*
X219095800Y-48424800D03*
X221865800Y-48424800D03*
X224635800Y-48424800D03*
X227405800Y-48424800D03*
X230175800Y-48424800D03*
X232945800Y-48424800D03*
X235715800Y-48424800D03*
X238485800Y-48424800D03*
X241255800Y-48424800D03*
X244025800Y-48424800D03*
X212170800Y-45584800D03*
X214940800Y-45584800D03*
X217710800Y-45584800D03*
X220480800Y-45584800D03*
X223250800Y-45584800D03*
X226020800Y-45584800D03*
X228790800Y-45584800D03*
X231560800Y-45584800D03*
X234330800Y-45584800D03*
X237100800Y-45584800D03*
X239870800Y-45584800D03*
X242640800Y-45584800D03*
D18*
X210755799Y-55174799D03*
D19*
X213525800Y-55174800D03*
X216295800Y-55174800D03*
X219065800Y-55174800D03*
X221835800Y-55174800D03*
X224605800Y-55174800D03*
X227375800Y-55174800D03*
X230145800Y-55174800D03*
X232915800Y-55174800D03*
X235685800Y-55174800D03*
X238455800Y-55174800D03*
X241225800Y-55174800D03*
X243995800Y-55174800D03*
X212140800Y-52334800D03*
X214910800Y-52334800D03*
X217680800Y-52334800D03*
X220450800Y-52334800D03*
X223220800Y-52334800D03*
X225990800Y-52334800D03*
X228760800Y-52334800D03*
X231530800Y-52334800D03*
X234300800Y-52334800D03*
X237070800Y-52334800D03*
X239840800Y-52334800D03*
X242610800Y-52334800D03*
D10*
X213918799Y-243976573D03*
D11*
X213918799Y-246516573D03*
D10*
X211124799Y-243969999D03*
D11*
X211124799Y-246509999D03*
D17*
X28270200Y-53619400D03*
X28300200Y-45569400D03*
X75340200Y-53629400D03*
X75370200Y-45579400D03*
D18*
X35170199Y-48399399D03*
D19*
X37940200Y-48399400D03*
X40710200Y-48399400D03*
X43480200Y-48399400D03*
X46250200Y-48399400D03*
X49020200Y-48399400D03*
X51790200Y-48399400D03*
X54560200Y-48399400D03*
X57330200Y-48399400D03*
X60100200Y-48399400D03*
X62870200Y-48399400D03*
X65640200Y-48399400D03*
X68410200Y-48399400D03*
X36555200Y-45559400D03*
X39325200Y-45559400D03*
X42095200Y-45559400D03*
X44865200Y-45559400D03*
X47635200Y-45559400D03*
X50405200Y-45559400D03*
X53175200Y-45559400D03*
X55945200Y-45559400D03*
X58715200Y-45559400D03*
X61485200Y-45559400D03*
X64255200Y-45559400D03*
X67025200Y-45559400D03*
D18*
X35140199Y-55149399D03*
D19*
X37910200Y-55149400D03*
X40680200Y-55149400D03*
X43450200Y-55149400D03*
X46220200Y-55149400D03*
X48990200Y-55149400D03*
X51760200Y-55149400D03*
X54530200Y-55149400D03*
X57300200Y-55149400D03*
X60070200Y-55149400D03*
X62840200Y-55149400D03*
X65610200Y-55149400D03*
X68380200Y-55149400D03*
X36525200Y-52309400D03*
X39295200Y-52309400D03*
X42065200Y-52309400D03*
X44835200Y-52309400D03*
X47605200Y-52309400D03*
X50375200Y-52309400D03*
X53145200Y-52309400D03*
X55915200Y-52309400D03*
X58685200Y-52309400D03*
X61455200Y-52309400D03*
X64225200Y-52309400D03*
X66995200Y-52309400D03*
D17*
X86334600Y-53644800D03*
X86364600Y-45594800D03*
X133404600Y-53654800D03*
X133434600Y-45604800D03*
D18*
X93234599Y-48424799D03*
D19*
X96004600Y-48424800D03*
X98774600Y-48424800D03*
X101544600Y-48424800D03*
X104314600Y-48424800D03*
X107084600Y-48424800D03*
X109854600Y-48424800D03*
X112624600Y-48424800D03*
X115394600Y-48424800D03*
X118164600Y-48424800D03*
X120934600Y-48424800D03*
X123704600Y-48424800D03*
X126474600Y-48424800D03*
X94619600Y-45584800D03*
X97389600Y-45584800D03*
X100159600Y-45584800D03*
X102929600Y-45584800D03*
X105699600Y-45584800D03*
X108469600Y-45584800D03*
X111239600Y-45584800D03*
X114009600Y-45584800D03*
X116779600Y-45584800D03*
X119549600Y-45584800D03*
X122319600Y-45584800D03*
X125089600Y-45584800D03*
D18*
X93204599Y-55174799D03*
D19*
X95974600Y-55174800D03*
X98744600Y-55174800D03*
X101514600Y-55174800D03*
X104284600Y-55174800D03*
X107054600Y-55174800D03*
X109824600Y-55174800D03*
X112594600Y-55174800D03*
X115364600Y-55174800D03*
X118134600Y-55174800D03*
X120904600Y-55174800D03*
X123674600Y-55174800D03*
X126444600Y-55174800D03*
X94589600Y-52334800D03*
X97359600Y-52334800D03*
X100129600Y-52334800D03*
X102899600Y-52334800D03*
X105669600Y-52334800D03*
X108439600Y-52334800D03*
X111209600Y-52334800D03*
X113979600Y-52334800D03*
X116749600Y-52334800D03*
X119519600Y-52334800D03*
X122289600Y-52334800D03*
X125059600Y-52334800D03*
D10*
X205639656Y-265079843D03*
D11*
X208179656Y-265079843D03*
X210719656Y-265079843D03*
X213259656Y-265079843D03*
D16*
X31100000Y-62500000D03*
D10*
X233679999Y-198135999D03*
D11*
X233679999Y-200675999D03*
D16*
X31100000Y-261000000D03*
X248100000Y-261000000D03*
X248100000Y-62500000D03*
D10*
X214071199Y-228701599D03*
D11*
X214071199Y-231241599D03*
D16*
X139600000Y-261000000D03*
D17*
X145689800Y-53643000D03*
X145719800Y-45593000D03*
X192759800Y-53653000D03*
X192789800Y-45603000D03*
D18*
X152589799Y-48422999D03*
D19*
X155359800Y-48423000D03*
X158129800Y-48423000D03*
X160899800Y-48423000D03*
X163669800Y-48423000D03*
X166439800Y-48423000D03*
X169209800Y-48423000D03*
X171979800Y-48423000D03*
X174749800Y-48423000D03*
X177519800Y-48423000D03*
X180289800Y-48423000D03*
X183059800Y-48423000D03*
X185829800Y-48423000D03*
X153974800Y-45583000D03*
X156744800Y-45583000D03*
X159514800Y-45583000D03*
X162284800Y-45583000D03*
X165054800Y-45583000D03*
X167824800Y-45583000D03*
X170594800Y-45583000D03*
X173364800Y-45583000D03*
X176134800Y-45583000D03*
X178904800Y-45583000D03*
X181674800Y-45583000D03*
X184444800Y-45583000D03*
D18*
X152559799Y-55172999D03*
D19*
X155329800Y-55173000D03*
X158099800Y-55173000D03*
X160869800Y-55173000D03*
X163639800Y-55173000D03*
X166409800Y-55173000D03*
X169179800Y-55173000D03*
X171949800Y-55173000D03*
X174719800Y-55173000D03*
X177489800Y-55173000D03*
X180259800Y-55173000D03*
X183029800Y-55173000D03*
X185799800Y-55173000D03*
X153944800Y-52333000D03*
X156714800Y-52333000D03*
X159484800Y-52333000D03*
X162254800Y-52333000D03*
X165024800Y-52333000D03*
X167794800Y-52333000D03*
X170564800Y-52333000D03*
X173334800Y-52333000D03*
X176104800Y-52333000D03*
X178874800Y-52333000D03*
X181644800Y-52333000D03*
X184414800Y-52333000D03*
D10*
X211124799Y-214121999D03*
D11*
X211124799Y-216661999D03*
D16*
X214590000Y-151480000D03*
D10*
X211277199Y-228701599D03*
D11*
X211277199Y-231241599D03*
D13*
X247730000Y-137110000D03*
X244680000Y-191490000D03*
D20*
X241505000Y-189065000D03*
X241505000Y-187795000D03*
X241505000Y-186525000D03*
X241505000Y-185255000D03*
X241505000Y-183985000D03*
X241505000Y-182715000D03*
X241505000Y-181445000D03*
X241505000Y-180175000D03*
X241505000Y-178905000D03*
X241505000Y-177635000D03*
X241505000Y-176365000D03*
X241505000Y-175095000D03*
X241505000Y-173825000D03*
X241505000Y-172555000D03*
X241505000Y-171285000D03*
X241505000Y-170015000D03*
X241505000Y-168745000D03*
X241505000Y-167475000D03*
X241505000Y-166205000D03*
X241505000Y-164935000D03*
X241505000Y-163665000D03*
X241505000Y-162395000D03*
X241505000Y-161125000D03*
X241505000Y-159855000D03*
X241505000Y-158585000D03*
X241505000Y-157315000D03*
X241505000Y-156045000D03*
X241505000Y-154775000D03*
X241505000Y-153505000D03*
X241505000Y-152235000D03*
X241505000Y-150965000D03*
X241505000Y-149695000D03*
X241505000Y-148425000D03*
X241505000Y-147155000D03*
X241505000Y-145885000D03*
X241505000Y-144615000D03*
X241505000Y-143345000D03*
X241505000Y-142075000D03*
X241505000Y-140805000D03*
X241505000Y-139535000D03*
X242775000Y-189065000D03*
X242775000Y-187795000D03*
X242775000Y-186525000D03*
X242775000Y-185255000D03*
X242775000Y-183985000D03*
X242775000Y-182715000D03*
X242775000Y-181445000D03*
X242775000Y-180175000D03*
X242775000Y-178905000D03*
X242775000Y-177635000D03*
X242775000Y-176365000D03*
X242775000Y-175095000D03*
X242775000Y-173825000D03*
X242775000Y-172555000D03*
X242775000Y-171285000D03*
X242775000Y-170015000D03*
X242775000Y-168745000D03*
X242775000Y-167475000D03*
X242775000Y-166205000D03*
X242775000Y-164935000D03*
X242775000Y-163665000D03*
X242775000Y-162395000D03*
X242775000Y-161125000D03*
X242775000Y-159855000D03*
X242775000Y-158585000D03*
X242775000Y-157315000D03*
X242775000Y-156045000D03*
X242775000Y-154775000D03*
X242775000Y-153505000D03*
X242775000Y-152235000D03*
X242775000Y-150965000D03*
X242775000Y-149695000D03*
X242775000Y-148425000D03*
X242775000Y-147155000D03*
X242775000Y-145885000D03*
X242775000Y-144615000D03*
X242775000Y-143345000D03*
X242775000Y-142075000D03*
X242775000Y-140805000D03*
X242775000Y-139535000D03*
X246585000Y-189065000D03*
X246585000Y-187795000D03*
X246585000Y-186525000D03*
X246585000Y-185255000D03*
X246585000Y-183985000D03*
X246585000Y-182715000D03*
X246585000Y-181445000D03*
X246585000Y-180175000D03*
X246585000Y-178905000D03*
X246585000Y-177635000D03*
X246585000Y-176365000D03*
X246585000Y-175095000D03*
X246585000Y-173825000D03*
X246585000Y-172555000D03*
X246585000Y-171285000D03*
X246585000Y-170015000D03*
X246585000Y-168745000D03*
X246585000Y-167475000D03*
X246585000Y-166205000D03*
X246585000Y-164935000D03*
X246585000Y-163665000D03*
X246585000Y-162395000D03*
X246585000Y-161125000D03*
X246585000Y-159855000D03*
X246585000Y-158585000D03*
X246585000Y-157315000D03*
X246585000Y-156045000D03*
X246585000Y-154775000D03*
X246585000Y-153505000D03*
X246585000Y-152235000D03*
X246585000Y-150965000D03*
X246585000Y-149695000D03*
X246585000Y-148425000D03*
X246585000Y-147155000D03*
X246585000Y-145885000D03*
X246585000Y-144615000D03*
X246585000Y-143345000D03*
X246585000Y-142075000D03*
X246585000Y-140805000D03*
X246585000Y-139535000D03*
X247855000Y-189065000D03*
X247855000Y-187795000D03*
X247855000Y-186525000D03*
X247855000Y-185255000D03*
X247855000Y-183985000D03*
X247855000Y-182715000D03*
X247855000Y-181445000D03*
X247855000Y-180175000D03*
X247855000Y-178905000D03*
X247855000Y-177635000D03*
X247855000Y-176365000D03*
X247855000Y-175095000D03*
X247855000Y-173825000D03*
X247855000Y-172555000D03*
X247855000Y-171285000D03*
X247855000Y-170015000D03*
X247855000Y-168745000D03*
X247855000Y-167475000D03*
X247855000Y-166205000D03*
X247855000Y-164935000D03*
X247855000Y-163665000D03*
X247855000Y-162395000D03*
X247855000Y-161125000D03*
X247855000Y-159855000D03*
X247855000Y-158585000D03*
X247855000Y-157315000D03*
X247855000Y-156045000D03*
X247855000Y-154775000D03*
X247855000Y-153505000D03*
X247855000Y-152235000D03*
X247855000Y-150965000D03*
X247855000Y-149695000D03*
X247855000Y-148425000D03*
X247855000Y-147155000D03*
X247855000Y-145885000D03*
X247855000Y-144615000D03*
X247855000Y-143345000D03*
X247855000Y-142075000D03*
X247855000Y-140805000D03*
X247855000Y-139535000D03*
D14*
X146913600Y-254812800D03*
D15*
X154533599Y-254812799D03*
D21*
X171959530Y-229001572D03*
X171959530Y-230301572D03*
X171959530Y-231601572D03*
X171959530Y-222001572D03*
X171959530Y-223301572D03*
X171959530Y-224601572D03*
D22*
X152654000Y-250190000D03*
D23*
X152654000Y-251490000D03*
D21*
X171959530Y-236339592D03*
X171959530Y-237639592D03*
X171959530Y-238939592D03*
D10*
X49446499Y-180100999D03*
D11*
X49446499Y-182640999D03*
X49446499Y-185180999D03*
D24*
X185888000Y-206546998D03*
X182963000Y-206546998D03*
D10*
X85795359Y-109759999D03*
D11*
X85795359Y-112299999D03*
X85795359Y-114839999D03*
X85795359Y-117379999D03*
D10*
X132872859Y-74398499D03*
D11*
X132872859Y-76938499D03*
X132872859Y-79478499D03*
X132872859Y-82018499D03*
D24*
X201890000Y-207054998D03*
X198965000Y-207054998D03*
X148844000Y-204372000D03*
X145919000Y-204372000D03*
X121685550Y-205642000D03*
X118760550Y-205642000D03*
D25*
X144780000Y-214737000D03*
X144780000Y-211787000D03*
D24*
X107334550Y-209198000D03*
X104409550Y-209198000D03*
D25*
X116413050Y-213467000D03*
X116413050Y-210517000D03*
D10*
X133349999Y-144779999D03*
D11*
X133349999Y-147319999D03*
X133349999Y-149859999D03*
X133349999Y-152399999D03*
D10*
X190907859Y-109632999D03*
D11*
X190907859Y-112172999D03*
X190907859Y-114712999D03*
D25*
X101300050Y-214610000D03*
X101300050Y-211660000D03*
D10*
X227710999Y-144779999D03*
D11*
X227710999Y-147319999D03*
X227710999Y-149859999D03*
X227710999Y-152399999D03*
D10*
X85545359Y-74398499D03*
D11*
X85545359Y-76938499D03*
X85545359Y-79478499D03*
X85545359Y-82018499D03*
D24*
X148844000Y-206912000D03*
X145919000Y-206912000D03*
D25*
X182798732Y-214491999D03*
X182798732Y-211541999D03*
D24*
X107334550Y-204118000D03*
X104409550Y-204118000D03*
D25*
X139700000Y-214737000D03*
X139700000Y-211787000D03*
D26*
X112286050Y-203356000D03*
X113936050Y-203356000D03*
D10*
X96546859Y-109759999D03*
D11*
X96546859Y-112299999D03*
X96546859Y-114839999D03*
D10*
X191134999Y-144794999D03*
D11*
X191134999Y-147334999D03*
X191134999Y-149874999D03*
D10*
X227456999Y-180085999D03*
D11*
X227456999Y-182625999D03*
X227456999Y-185165999D03*
X227456999Y-187705999D03*
D27*
X118760550Y-208182000D03*
X121685550Y-208182000D03*
X160462500Y-207518000D03*
X163387500Y-207518000D03*
D28*
X195134767Y-205866999D03*
X195134767Y-206516997D03*
X195134767Y-207166999D03*
X195134767Y-207816997D03*
X189483999Y-207816997D03*
X189483999Y-207166999D03*
X189483999Y-206516997D03*
X189483999Y-205866999D03*
D24*
X148844000Y-209452000D03*
X145919000Y-209452000D03*
D25*
X196150768Y-214068998D03*
X196150768Y-211118998D03*
X177718732Y-214491999D03*
X177718732Y-211541999D03*
D10*
X96296859Y-74398499D03*
D11*
X96296859Y-76938499D03*
X96296859Y-79478499D03*
D25*
X98760050Y-214610000D03*
X98760050Y-211660000D03*
D28*
X157489883Y-205937000D03*
X157489883Y-206586998D03*
X157489883Y-207237000D03*
X157489883Y-207886998D03*
X151839115Y-207886998D03*
X151839115Y-207237000D03*
X151839115Y-206586998D03*
X151839115Y-205937000D03*
D10*
X190880999Y-180085999D03*
D11*
X190880999Y-182625999D03*
X190880999Y-185165999D03*
D10*
X180720999Y-144779999D03*
D11*
X180720999Y-147319999D03*
X180720999Y-149859999D03*
X180720999Y-152399999D03*
D29*
X117302050Y-200230000D03*
X117302050Y-203180000D03*
D24*
X163387500Y-204724000D03*
X160462500Y-204724000D03*
D10*
X133222999Y-180085999D03*
D11*
X133222999Y-182625999D03*
X133222999Y-185165999D03*
X133222999Y-187705999D03*
D10*
X49193959Y-109734599D03*
D11*
X49193959Y-112274599D03*
X49193959Y-114814599D03*
D10*
X49446499Y-144794999D03*
D11*
X49446499Y-147334999D03*
X49446499Y-149874999D03*
D28*
X115533933Y-205937000D03*
X115533933Y-206586998D03*
X115533933Y-207237000D03*
X115533933Y-207886998D03*
X109883165Y-207886998D03*
X109883165Y-207237000D03*
X109883165Y-206586998D03*
X109883165Y-205937000D03*
D29*
X157988000Y-200914000D03*
X157988000Y-203864000D03*
D10*
X143790859Y-109759999D03*
D11*
X143790859Y-112299999D03*
X143790859Y-114839999D03*
D25*
X180258732Y-214491999D03*
X180258732Y-211541999D03*
D26*
X191413000Y-203244998D03*
X193063000Y-203244998D03*
D24*
X107334550Y-206658000D03*
X104409550Y-206658000D03*
D26*
X153798000Y-203708000D03*
X155448000Y-203708000D03*
D27*
X198965000Y-209594998D03*
X201890000Y-209594998D03*
D10*
X144017999Y-144779999D03*
D11*
X144017999Y-147319999D03*
X144017999Y-149859999D03*
D10*
X143540859Y-74398499D03*
D11*
X143540859Y-76938499D03*
X143540859Y-79478499D03*
D10*
X180339999Y-180085999D03*
D11*
X180339999Y-182625999D03*
X180339999Y-185165999D03*
X180339999Y-187705999D03*
D24*
X185888000Y-209086998D03*
X182963000Y-209086998D03*
D10*
X96773999Y-144779999D03*
D11*
X96773999Y-147319999D03*
X96773999Y-149859999D03*
D25*
X142240000Y-214737000D03*
X142240000Y-211787000D03*
D10*
X86022499Y-180085999D03*
D11*
X86022499Y-182625999D03*
X86022499Y-185165999D03*
X86022499Y-187705999D03*
D10*
X190911859Y-74413499D03*
D11*
X190911859Y-76953499D03*
X190911859Y-79493499D03*
D10*
X180116859Y-74421999D03*
D11*
X180116859Y-76961999D03*
X180116859Y-79501999D03*
X180116859Y-82041999D03*
D10*
X96519999Y-180085999D03*
D11*
X96519999Y-182625999D03*
X96519999Y-185165999D03*
D24*
X185888000Y-204006998D03*
X182963000Y-204006998D03*
D29*
X197420768Y-201056998D03*
X197420768Y-204006998D03*
D10*
X133122859Y-109759999D03*
D11*
X133122859Y-112299999D03*
X133122859Y-114839999D03*
X133122859Y-117379999D03*
D10*
X48969359Y-74398499D03*
D11*
X48969359Y-76938499D03*
X48969359Y-79478499D03*
D10*
X143763999Y-180085999D03*
D11*
X143763999Y-182625999D03*
X143763999Y-185165999D03*
D25*
X158496000Y-212803000D03*
X158496000Y-209853000D03*
D10*
X227487859Y-74398499D03*
D11*
X227487859Y-76938499D03*
X227487859Y-79478499D03*
X227487859Y-82018499D03*
D25*
X103840050Y-214610000D03*
X103840050Y-211660000D03*
D10*
X227483859Y-109759999D03*
D11*
X227483859Y-112299999D03*
X227483859Y-114839999D03*
X227483859Y-117379999D03*
D10*
X86022499Y-144779999D03*
D11*
X86022499Y-147319999D03*
X86022499Y-149859999D03*
X86022499Y-152399999D03*
D10*
X180366859Y-109769999D03*
D11*
X180366859Y-112309999D03*
X180366859Y-114849999D03*
X180366859Y-117389999D03*
M02*
