M48
; DRILL file {KiCad 7.0.0} date mer. 13 mars 2024 15:56:44
; FORMAT={-:-/ absolute / inch / decimal}
; #@! TF.CreationDate,2024-03-13T15:56:44+01:00
; #@! TF.GenerationSoftware,Kicad,Pcbnew,7.0.0
; #@! TF.FileFunction,Plated,1,4,PTH
FMAT,2
INCH
; #@! TA.AperFunction,Plated,PTH,ViaDrill
T1C0.0157
; #@! TA.AperFunction,Plated,PTH,ViaDrill
T2C0.0197
; #@! TA.AperFunction,Plated,PTH,ViaDrill
T3C0.0236
; #@! TA.AperFunction,Plated,PTH,ComponentDrill
T4C0.0315
; #@! TA.AperFunction,Plated,PTH,ComponentDrill
T5C0.0394
; #@! TA.AperFunction,Plated,PTH,ComponentDrill
T6C0.0472
; #@! TA.AperFunction,Plated,PTH,ComponentDrill
T7C0.1260
%
G90
G05
T1
X1.0793Y-2.3098
X1.115Y-2.275
X1.21Y-1.6616
X1.2443Y-1.6879
X1.5754Y-3.5
X1.656Y-3.378
X1.704Y-4.864
X1.727Y-4.713
X1.82Y-6.36
X1.82Y-6.46
X1.8487Y-10.18
X2.11Y-2.83
X2.1887Y-10.18
X2.2121Y-1.6835
X2.2602Y-1.6835
X2.29Y-3.12
X2.3191Y-1.6586
X2.3521Y-1.68
X2.37Y-3.06
X2.42Y-2.94
X2.48Y-6.48
X2.5Y-2.84
X2.51Y-3.04
X2.51Y-3.17
X2.6087Y-10.06
X2.64Y-8.26
X2.7Y-2.94
X2.71Y-8.29
X2.76Y-2.84
X2.78Y-8.32
X2.83Y-3.04
X2.83Y-3.17
X2.84Y-3.36
X2.85Y-8.155
X2.86Y-3.54
X2.8686Y-4.82
X2.8865Y-6.2
X2.89Y-3.29
X2.935Y-8.205
X3.0Y-8.175
X3.0066Y-1.9966
X3.0339Y-1.968
X3.04Y-8.5
X3.16Y-5.242
X3.1871Y-1.9339
X3.2045Y-1.9691
X3.25Y-4.16
X3.2509Y-2.4493
X3.2718Y-1.66
X3.2979Y-2.4614
X3.3029Y-1.6841
X3.42Y-6.78
X3.5Y-6.84
X3.56Y-7.84
X3.58Y-3.38
X3.58Y-6.96
X3.64Y-3.3
X3.64Y-6.9
X3.68Y-4.783
X3.68Y-7.9
X3.76Y-4.868
X3.76Y-6.1
X3.82Y-6.15
X3.82Y-8.08
X3.9Y-8.0
X3.98Y-2.8
X4.045Y-8.26
X4.14Y-6.58
X4.1488Y-8.4587
X4.18Y-3.12
X4.18Y-4.22
X4.24Y-3.12
X4.26Y-7.82
X4.36Y-3.0
X4.37Y-7.91
X4.4Y-3.2
X4.42Y-2.94
X4.44Y-3.14
X4.44Y-5.8017
X4.44Y-6.76
X4.4745Y-1.6824
X4.48Y-8.2
X4.5193Y-8.4138
X4.5218Y-1.68
X4.55Y-7.88
X4.5818Y-1.66
X4.6Y-9.51
X4.62Y-3.4
X4.6218Y-1.66
X4.64Y-3.0
X4.67Y-9.545
X4.68Y-5.64
X4.695Y-7.02
X4.72Y-2.94
X4.74Y-9.575
X4.77Y-7.92
X4.78Y-3.16
X4.78Y-3.34
X4.78Y-4.815
X4.785Y-6.12
X4.79Y-3.43
X4.79Y-8.0
X4.8Y-9.605
X4.81Y-4.4676
X4.8316Y-10.1252
X4.86Y-3.24
X4.88Y-8.19
X4.9Y-4.14
X4.9416Y-10.1202
X4.98Y-5.3
X5.02Y-8.33
X5.128Y-3.268
X5.156Y-3.308
X5.274Y-4.772
X5.276Y-4.72
X5.282Y-6.084
X5.285Y-6.18
X5.2918Y-1.94
X5.2918Y-1.99
X5.4Y-2.42
X5.428Y-2.46
X5.44Y-5.8481
X5.5Y-2.025
X5.5088Y-1.9744
X5.52Y-6.92
X5.59Y-6.8452
X5.6Y-5.4
X5.6Y-5.48
X5.6009Y-1.9134
X5.62Y-5.16
X5.6311Y-1.9386
X5.68Y-8.26
X5.732Y-4.098
X5.758Y-4.046
X5.7606Y-8.4689
X5.9538Y-2.045
X5.9615Y-2.0836
X5.97Y-2.8
X5.98Y-7.96
X6.0Y-5.42
X6.02Y-4.22
X6.03Y-10.24
X6.04Y-3.11
X6.1Y-6.94
X6.14Y-3.12
X6.14Y-8.2
X6.18Y-7.74
X6.23Y-6.94
X6.24Y-3.2
X6.25Y-3.0
X6.26Y-5.8017
X6.27Y-3.14
X6.29Y-7.92
X6.2975Y-10.0225
X6.3Y-9.96
X6.3Y-10.1
X6.3031Y-8.3917
X6.35Y-2.93
X6.36Y-7.73
X6.48Y-7.1895
X6.5186Y-8.7914
X6.52Y-3.35
X6.53Y-10.28
X6.54Y-3.21
X6.55Y-9.95
X6.5535Y-9.067
X6.5618Y-9.4491
X6.57Y-2.99
X6.5806Y-9.4836
X6.61Y-3.3
X6.6104Y-9.5093
X6.62Y-3.14
X6.62Y-3.43
X6.62Y-6.18
X6.63Y-2.92
X6.63Y-10.24
X6.6398Y-10.0602
X6.64Y-4.82
X6.64Y-10.0
X6.64Y-10.12
X6.6474Y-9.5228
X6.67Y-9.86
X6.68Y-8.52
X6.68Y-9.12
X6.69Y-9.41
X6.695Y-8.735
X6.695Y-9.305
X6.7Y-8.84
X6.71Y-9.0158
X6.74Y-9.95
X6.754Y-8.49
X6.76Y-10.02
X6.79Y-10.29
X6.805Y-9.97
X6.82Y-10.2
X6.8295Y-1.6714
X6.835Y-9.36
X6.8688Y-1.6735
X6.9Y-5.32
X6.932Y-9.882
X6.95Y-4.14
X6.952Y-9.92
X6.952Y-9.959
X6.9947Y-9.92
X6.9947Y-9.959
X6.9988Y-1.61
X7.0373Y-9.92
X7.0373Y-9.959
X7.0538Y-1.615
X7.08Y-6.48
X7.08Y-9.92
X7.08Y-9.959
X7.0998Y-9.76
X7.1Y-9.7172
X7.108Y-9.882
X7.109Y-9.988
X7.145Y-8.25
X7.15Y-7.91
X7.1518Y-9.6994
X7.186Y-9.882
X7.187Y-9.988
X7.19Y-9.6894
X7.2Y-7.825
X7.2298Y-9.7202
X7.25Y-3.94
X7.25Y-6.3481
X7.2535Y-8.4551
X7.26Y-9.78
X7.2714Y-5.1
X7.32Y-4.0
X7.32Y-9.98
X7.3594Y-9.98
X7.3987Y-9.98
X7.42Y-3.94
X7.4381Y-9.98
X7.46Y-3.86
X7.46Y-4.7737
X7.4625Y-7.9618
X7.4688Y-2.43
X7.497Y-2.3346
X7.4988Y-2.4
X7.515Y-9.98
X7.5288Y-2.31
X7.5544Y-9.98
X7.56Y-3.8
X7.5937Y-9.98
X7.62Y-2.62
X7.62Y-8.2
X7.6331Y-9.98
X7.6634Y-8.437
X7.665Y-10.04
X7.665Y-10.09
X7.665Y-10.14
X7.665Y-10.195
X7.7Y-7.94
X7.72Y-3.76
X7.822Y-1.92
X7.8435Y-1.9585
X7.87Y-7.775
X7.882Y-1.66
X7.9Y-3.14
X7.9174Y-1.6786
X7.94Y-4.8
X7.98Y-2.5
X7.98Y-3.14
X8.05Y-3.16
X8.06Y-3.24
X8.1Y-9.54
X8.1Y-9.6
X8.1Y-9.68
X8.1Y-9.76
X8.28Y-7.26
X8.3Y-2.395
X8.34Y-3.4
X8.42Y-3.37
X8.43Y-3.16
X8.43Y-7.59
X8.44Y-6.12
X8.445Y-2.395
X8.445Y-5.55
X8.445Y-5.645
X8.4564Y-4.8164
X8.485Y-3.435
X8.49Y-5.55
X8.49Y-5.645
X8.5Y-3.2
X8.555Y-3.5763
X8.7Y-8.1
X8.7Y-10.28
X8.775Y-7.975
X8.78Y-9.825
X8.78Y-9.92
X8.8396Y-9.78
X8.8396Y-9.6604
X8.8398Y-9.7202
X8.84Y-9.6
X8.92Y-8.19
X8.92Y-9.925
X8.92Y-10.04
X8.9375Y-6.1015
X8.94Y-6.37
X8.942Y-7.506
X8.96Y-7.87
X9.0043Y-7.5635
X9.0164Y-6.1214
X9.032Y-7.53
X9.045Y-6.42
X9.0464Y-9.738
X9.05Y-10.24
X9.06Y-7.49
X9.06Y-9.83
X9.0736Y-6.195
X9.0898Y-9.8602
X9.1Y-7.51
X9.1022Y-6.1582
X9.105Y-5.42
X9.105Y-9.965
X9.1164Y-1.6835
X9.1314Y-10.0398
X9.1572Y-9.695
X9.1709Y-1.681
X9.195Y-5.955
X9.22Y-7.395
X9.23Y-7.535
X9.2348Y-5.9748
X9.2433Y-6.0447
X9.275Y-7.545
X9.29Y-10.04
X9.39Y-5.245
X9.4194Y-6.13
X9.433Y-5.883
X9.44Y-6.545
X9.44Y-7.195
X9.445Y-6.44
X9.445Y-6.9
X9.445Y-7.32
X9.448Y-6.3938
X9.448Y-6.76
X9.4487Y-6.0687
X9.4494Y-6.4966
X9.45Y-5.585
X9.45Y-6.215
X9.45Y-6.35
X9.45Y-6.65
X9.45Y-7.07
X9.45Y-7.45
X9.452Y-5.644
X9.4524Y-5.9966
X9.4524Y-5.7435
X9.455Y-5.53
X9.455Y-6.265
X9.455Y-6.97
X9.455Y-5.9435
X9.462Y-5.814
X9.48Y-3.72
X9.4817Y-1.681
X9.498Y-5.07
X9.51Y-5.255
X9.522Y-1.71
X9.55Y-3.8
X9.555Y-2.415
X9.5688Y-2.5186
X9.58Y-7.58
X9.5827Y-5.2623
X9.5939Y-2.4208
X9.5985Y-5.9935
X9.5985Y-5.8151
X9.6Y-3.9
X9.605Y-2.495
X9.61Y-5.594
X9.61Y-6.15
X9.61Y-6.255
X9.612Y-6.1936
X9.612Y-6.3436
X9.612Y-6.4935
X9.612Y-6.625
X9.612Y-6.7933
X9.612Y-6.9433
X9.612Y-7.0932
X9.612Y-7.443
X9.615Y-5.955
X9.62Y-6.03
X9.625Y-6.545
X9.63Y-7.32
X9.64Y-5.9
X9.64Y-7.6864
X9.656Y-5.6942
X9.656Y-5.8441
X9.656Y-5.9941
X9.656Y-6.144
X9.656Y-6.4438
X9.656Y-6.5937
X9.656Y-6.7437
X9.656Y-6.8936
X9.656Y-7.0435
X9.656Y-7.1435
X9.656Y-7.1934
X9.656Y-7.3933
X9.6595Y-6.0968
X9.66Y-6.325
X9.6634Y-10.1616
X9.665Y-6.26
X9.665Y-6.69
X9.67Y-6.82
X9.675Y-7.505
X9.685Y-4.295
X9.69Y-5.44
X9.6975Y-4.8325
X9.7014Y-7.5787
X9.73Y-7.5
X9.735Y-3.37
X9.74Y-5.45
X9.765Y-4.485
X9.7725Y-2.9575
X9.795Y-5.58
X9.805Y-5.72
X9.805Y-6.165
X9.805Y-7.04
X9.805Y-7.22
X9.805Y-7.345
X9.808Y-6.292
X9.81Y-5.87
X9.81Y-6.015
X9.81Y-6.475
X9.81Y-6.62
X9.81Y-6.775
X9.81Y-6.925
X9.81Y-7.0935
X9.824Y-5.6442
X9.824Y-5.7942
X9.824Y-5.9441
X9.824Y-6.094
X9.824Y-6.2439
X9.824Y-6.3938
X9.824Y-6.5438
X9.824Y-6.6937
X9.824Y-6.8436
X9.824Y-6.9935
X9.824Y-7.2934
X9.824Y-7.3933
X9.824Y-7.4433
X9.84Y-7.155
X9.84Y-10.06
X9.8614Y-8.905
X9.8614Y-9.195
X9.8648Y-8.5052
X9.865Y-3.165
X9.865Y-8.39
X9.865Y-8.79
X9.865Y-9.305
X9.87Y-6.73
X9.87Y-9.595
X9.88Y-2.9
X9.89Y-5.17
X9.94Y-2.68
T2
X9.44Y-5.305
T3
X7.0501Y-10.426
X7.52Y-10.4
X7.93Y-10.45
X8.48Y-6.29
X8.48Y-6.4
X8.52Y-7.64
X8.67Y-5.32
X8.89Y-4.72
X8.895Y-6.15
T4
X5.784Y-10.032
X6.084Y-10.032
X9.124Y-8.1756
X9.124Y-8.3256
X9.124Y-8.5811
X9.124Y-8.7311
X9.124Y-8.9748
X9.124Y-9.1248
X9.124Y-9.3807
X9.124Y-9.5307
X9.424Y-8.1756
X9.424Y-8.3256
X9.424Y-8.5811
X9.424Y-8.7311
X9.424Y-8.9748
X9.424Y-9.1248
X9.424Y-9.3807
X9.424Y-9.5307
X9.43Y-9.7587
X9.435Y-9.895
X9.73Y-9.7587
X9.735Y-9.895
T5
X1.9279Y-2.9291
X1.9279Y-3.0291
X1.9279Y-3.1291
X1.9368Y-4.3203
X1.9368Y-4.4203
X1.9368Y-4.5203
X1.9467Y-5.7006
X1.9467Y-5.8006
X1.9467Y-5.9006
X1.9467Y-7.0906
X1.9467Y-7.1906
X1.9467Y-7.2906
X2.0916Y-2.93
X2.0916Y-3.03
X2.0916Y-3.13
X2.0916Y-3.23
X2.0916Y-3.33
X2.0916Y-3.43
X2.0916Y-3.53
X2.0916Y-3.63
X2.1014Y-4.32
X2.1014Y-4.42
X2.1014Y-4.52
X2.1014Y-4.62
X2.1014Y-4.72
X2.1014Y-4.82
X2.1014Y-4.92
X2.1014Y-5.02
X2.1104Y-5.7017
X2.1104Y-5.8017
X2.1104Y-5.9017
X2.1104Y-6.0017
X2.1104Y-6.1017
X2.1104Y-6.2017
X2.1104Y-6.3017
X2.1104Y-6.4017
X2.1104Y-7.0895
X2.1104Y-7.1895
X2.1104Y-7.2895
X2.1104Y-7.3895
X2.1104Y-7.4895
X2.1104Y-7.5895
X2.1104Y-7.6895
X2.1104Y-7.7895
X2.1916Y-2.93
X2.1916Y-3.03
X2.1916Y-3.13
X2.1916Y-3.23
X2.1916Y-3.33
X2.1916Y-3.43
X2.1916Y-3.53
X2.1916Y-3.63
X2.2014Y-4.32
X2.2014Y-4.42
X2.2014Y-4.52
X2.2014Y-4.62
X2.2014Y-4.72
X2.2014Y-4.82
X2.2014Y-4.92
X2.2014Y-5.02
X2.2104Y-5.7017
X2.2104Y-5.8017
X2.2104Y-5.9017
X2.2104Y-6.0017
X2.2104Y-6.1017
X2.2104Y-6.2017
X2.2104Y-6.3017
X2.2104Y-6.4017
X2.2104Y-7.0895
X2.2104Y-7.1895
X2.2104Y-7.2895
X2.2104Y-7.3895
X2.2104Y-7.4895
X2.2104Y-7.5895
X2.2104Y-7.6895
X2.2104Y-7.7895
X3.1016Y-2.93
X3.1016Y-3.03
X3.1016Y-3.13
X3.1016Y-3.23
X3.1016Y-3.33
X3.1016Y-3.43
X3.1016Y-3.53
X3.1016Y-3.63
X3.1114Y-4.32
X3.1114Y-4.42
X3.1114Y-4.52
X3.1114Y-4.62
X3.1114Y-4.72
X3.1114Y-4.82
X3.1114Y-4.92
X3.1114Y-5.02
X3.1204Y-5.7017
X3.1204Y-5.8017
X3.1204Y-5.9017
X3.1204Y-6.0017
X3.1204Y-6.1017
X3.1204Y-6.2017
X3.1204Y-6.3017
X3.1204Y-6.4017
X3.1204Y-7.0895
X3.1204Y-7.1895
X3.1204Y-7.2895
X3.1204Y-7.3895
X3.1204Y-7.4895
X3.1204Y-7.5895
X3.1204Y-7.6895
X3.1204Y-7.7895
X3.2016Y-2.93
X3.2016Y-3.03
X3.2016Y-3.13
X3.2016Y-3.23
X3.2016Y-3.33
X3.2016Y-3.43
X3.2016Y-3.53
X3.2016Y-3.63
X3.2114Y-4.32
X3.2114Y-4.42
X3.2114Y-4.52
X3.2114Y-4.62
X3.2114Y-4.72
X3.2114Y-4.82
X3.2114Y-4.92
X3.2114Y-5.02
X3.2204Y-5.7017
X3.2204Y-5.8017
X3.2204Y-5.9017
X3.2204Y-6.0017
X3.2204Y-6.1017
X3.2204Y-6.2017
X3.2204Y-6.3017
X3.2204Y-6.4017
X3.2204Y-7.0895
X3.2204Y-7.1895
X3.2204Y-7.2895
X3.2204Y-7.3895
X3.2204Y-7.4895
X3.2204Y-7.5895
X3.2204Y-7.6895
X3.2204Y-7.7895
X3.3679Y-2.9291
X3.3679Y-3.0291
X3.3679Y-3.1291
X3.3679Y-3.2291
X3.3778Y-4.3213
X3.3778Y-4.4213
X3.3778Y-4.5213
X3.3778Y-4.6213
X3.3867Y-5.7
X3.3867Y-5.8
X3.3867Y-5.9
X3.3867Y-6.0
X3.3867Y-7.09
X3.3867Y-7.19
X3.3867Y-7.29
X3.3867Y-7.39
X3.7912Y-2.9291
X3.7912Y-3.0291
X3.7912Y-3.1291
X3.8Y-7.09
X3.8Y-7.19
X3.8Y-7.29
X3.8011Y-4.3213
X3.8011Y-4.4213
X3.8011Y-4.5213
X3.81Y-5.7
X3.81Y-5.8
X3.81Y-5.9
X3.9533Y-2.93
X3.9533Y-3.03
X3.9533Y-3.13
X3.9533Y-3.23
X3.9533Y-3.33
X3.9533Y-3.43
X3.9533Y-3.53
X3.9533Y-3.63
X3.9631Y-4.32
X3.9631Y-4.42
X3.9631Y-4.52
X3.9631Y-4.62
X3.9631Y-4.72
X3.9631Y-4.82
X3.9631Y-4.92
X3.9631Y-5.02
X3.9655Y-7.0895
X3.9655Y-7.1895
X3.9655Y-7.2895
X3.9655Y-7.3895
X3.9655Y-7.4895
X3.9655Y-7.5895
X3.9655Y-7.6895
X3.9655Y-7.7895
X3.972Y-5.7017
X3.972Y-5.8017
X3.972Y-5.9017
X3.972Y-6.0017
X3.972Y-6.1017
X3.972Y-6.2017
X3.972Y-6.3017
X3.972Y-6.4017
X4.0533Y-2.93
X4.0533Y-3.03
X4.0533Y-3.13
X4.0533Y-3.23
X4.0533Y-3.33
X4.0533Y-3.43
X4.0533Y-3.53
X4.0533Y-3.63
X4.0631Y-4.32
X4.0631Y-4.42
X4.0631Y-4.52
X4.0631Y-4.62
X4.0631Y-4.72
X4.0631Y-4.82
X4.0631Y-4.92
X4.0631Y-5.02
X4.0655Y-7.0895
X4.0655Y-7.1895
X4.0655Y-7.2895
X4.0655Y-7.3895
X4.0655Y-7.4895
X4.0655Y-7.5895
X4.0655Y-7.6895
X4.0655Y-7.7895
X4.072Y-5.7017
X4.072Y-5.8017
X4.072Y-5.9017
X4.072Y-6.0017
X4.072Y-6.1017
X4.072Y-6.2017
X4.072Y-6.3017
X4.072Y-6.4017
X4.9633Y-2.93
X4.9633Y-3.03
X4.9633Y-3.13
X4.9633Y-3.23
X4.9633Y-3.33
X4.9633Y-3.43
X4.9633Y-3.53
X4.9633Y-3.63
X4.9731Y-4.32
X4.9731Y-4.42
X4.9731Y-4.52
X4.9731Y-4.62
X4.9731Y-4.72
X4.9731Y-4.82
X4.9731Y-4.92
X4.9731Y-5.02
X4.9755Y-7.0895
X4.9755Y-7.1895
X4.9755Y-7.2895
X4.9755Y-7.3895
X4.9755Y-7.4895
X4.9755Y-7.5895
X4.9755Y-7.6895
X4.9755Y-7.7895
X4.982Y-5.7017
X4.982Y-5.8017
X4.982Y-5.9017
X4.982Y-6.0017
X4.982Y-6.1017
X4.982Y-6.2017
X4.982Y-6.3017
X4.982Y-6.4017
X5.0633Y-2.93
X5.0633Y-3.03
X5.0633Y-3.13
X5.0633Y-3.23
X5.0633Y-3.33
X5.0633Y-3.43
X5.0633Y-3.53
X5.0633Y-3.63
X5.0731Y-4.32
X5.0731Y-4.42
X5.0731Y-4.52
X5.0731Y-4.62
X5.0731Y-4.72
X5.0731Y-4.82
X5.0731Y-4.92
X5.0731Y-5.02
X5.0755Y-7.0895
X5.0755Y-7.1895
X5.0755Y-7.2895
X5.0755Y-7.3895
X5.0755Y-7.4895
X5.0755Y-7.5895
X5.0755Y-7.6895
X5.0755Y-7.7895
X5.082Y-5.7017
X5.082Y-5.8017
X5.082Y-5.9017
X5.082Y-6.0017
X5.082Y-6.1017
X5.082Y-6.2017
X5.082Y-6.3017
X5.082Y-6.4017
X5.2312Y-2.9291
X5.2312Y-3.0291
X5.2312Y-3.1291
X5.2312Y-3.2291
X5.2411Y-4.3213
X5.2411Y-4.4213
X5.2411Y-4.5213
X5.2411Y-4.6213
X5.245Y-7.09
X5.245Y-7.19
X5.245Y-7.29
X5.245Y-7.39
X5.25Y-5.7
X5.25Y-5.8
X5.25Y-5.9
X5.25Y-6.0
X5.6512Y-2.9291
X5.6512Y-3.0291
X5.6512Y-3.1291
X5.66Y-7.09
X5.66Y-7.19
X5.66Y-7.29
X5.6611Y-4.3213
X5.6611Y-4.4213
X5.6611Y-4.5213
X5.67Y-5.7
X5.67Y-5.8
X5.67Y-5.9
X5.8166Y-2.93
X5.8166Y-3.03
X5.8166Y-3.13
X5.8166Y-3.23
X5.8166Y-3.33
X5.8166Y-3.43
X5.8166Y-3.53
X5.8166Y-3.63
X5.8223Y-7.0895
X5.8223Y-7.1895
X5.8223Y-7.2895
X5.8223Y-7.3895
X5.8223Y-7.4895
X5.8223Y-7.5895
X5.8223Y-7.6895
X5.8223Y-7.7895
X5.8265Y-4.32
X5.8265Y-4.42
X5.8265Y-4.52
X5.8265Y-4.62
X5.8265Y-4.72
X5.8265Y-4.82
X5.8265Y-4.92
X5.8265Y-5.02
X5.8354Y-5.7017
X5.8354Y-5.8017
X5.8354Y-5.9017
X5.8354Y-6.0017
X5.8354Y-6.1017
X5.8354Y-6.2017
X5.8354Y-6.3017
X5.8354Y-6.4017
X5.9166Y-2.93
X5.9166Y-3.03
X5.9166Y-3.13
X5.9166Y-3.23
X5.9166Y-3.33
X5.9166Y-3.43
X5.9166Y-3.53
X5.9166Y-3.63
X5.9223Y-7.0895
X5.9223Y-7.1895
X5.9223Y-7.2895
X5.9223Y-7.3895
X5.9223Y-7.4895
X5.9223Y-7.5895
X5.9223Y-7.6895
X5.9223Y-7.7895
X5.9265Y-4.32
X5.9265Y-4.42
X5.9265Y-4.52
X5.9265Y-4.62
X5.9265Y-4.72
X5.9265Y-4.82
X5.9265Y-4.92
X5.9265Y-5.02
X5.9354Y-5.7017
X5.9354Y-5.8017
X5.9354Y-5.9017
X5.9354Y-6.0017
X5.9354Y-6.1017
X5.9354Y-6.2017
X5.9354Y-6.3017
X5.9354Y-6.4017
X6.8266Y-2.93
X6.8266Y-3.03
X6.8266Y-3.13
X6.8266Y-3.23
X6.8266Y-3.33
X6.8266Y-3.43
X6.8266Y-3.53
X6.8266Y-3.63
X6.8323Y-7.0895
X6.8323Y-7.1895
X6.8323Y-7.2895
X6.8323Y-7.3895
X6.8323Y-7.4895
X6.8323Y-7.5895
X6.8323Y-7.6895
X6.8323Y-7.7895
X6.8365Y-4.32
X6.8365Y-4.42
X6.8365Y-4.52
X6.8365Y-4.62
X6.8365Y-4.72
X6.8365Y-4.82
X6.8365Y-4.92
X6.8365Y-5.02
X6.8454Y-5.7017
X6.8454Y-5.8017
X6.8454Y-5.9017
X6.8454Y-6.0017
X6.8454Y-6.1017
X6.8454Y-6.2017
X6.8454Y-6.3017
X6.8454Y-6.4017
X6.9266Y-2.93
X6.9266Y-3.03
X6.9266Y-3.13
X6.9266Y-3.23
X6.9266Y-3.33
X6.9266Y-3.43
X6.9266Y-3.53
X6.9266Y-3.63
X6.9323Y-7.0895
X6.9323Y-7.1895
X6.9323Y-7.2895
X6.9323Y-7.3895
X6.9323Y-7.4895
X6.9323Y-7.5895
X6.9323Y-7.6895
X6.9323Y-7.7895
X6.9365Y-4.32
X6.9365Y-4.42
X6.9365Y-4.52
X6.9365Y-4.62
X6.9365Y-4.72
X6.9365Y-4.82
X6.9365Y-4.92
X6.9365Y-5.02
X6.9454Y-5.7017
X6.9454Y-5.8017
X6.9454Y-5.9017
X6.9454Y-6.0017
X6.9454Y-6.1017
X6.9454Y-6.2017
X6.9454Y-6.3017
X6.9454Y-6.4017
X7.0912Y-2.93
X7.0912Y-3.03
X7.0912Y-3.13
X7.0912Y-3.23
X7.1Y-7.09
X7.1Y-7.19
X7.1Y-7.29
X7.1Y-7.39
X7.1011Y-4.3217
X7.1011Y-4.4217
X7.1011Y-4.5217
X7.1011Y-4.6217
X7.115Y-5.7
X7.115Y-5.8
X7.115Y-5.9
X7.115Y-6.0
X7.515Y-7.09
X7.515Y-7.19
X7.515Y-7.29
X7.5161Y-4.3163
X7.5161Y-4.4163
X7.5161Y-4.5163
X7.5162Y-2.9297
X7.5162Y-3.0297
X7.5162Y-3.1297
X7.525Y-5.7006
X7.525Y-5.8006
X7.525Y-5.9006
X7.6791Y-7.0895
X7.6791Y-7.1895
X7.6791Y-7.2895
X7.6791Y-7.3895
X7.6791Y-7.4895
X7.6791Y-7.5895
X7.6791Y-7.6895
X7.6791Y-7.7895
X7.68Y-2.93
X7.68Y-3.03
X7.68Y-3.13
X7.68Y-3.23
X7.68Y-3.33
X7.68Y-3.43
X7.68Y-3.53
X7.68Y-3.63
X7.68Y-4.32
X7.68Y-4.42
X7.68Y-4.52
X7.68Y-4.62
X7.68Y-4.72
X7.68Y-4.82
X7.68Y-4.92
X7.68Y-5.02
X7.6889Y-5.7017
X7.6889Y-5.8017
X7.6889Y-5.9017
X7.6889Y-6.0017
X7.6889Y-6.1017
X7.6889Y-6.2017
X7.6889Y-6.3017
X7.6889Y-6.4017
X7.7791Y-7.0895
X7.7791Y-7.1895
X7.7791Y-7.2895
X7.7791Y-7.3895
X7.7791Y-7.4895
X7.7791Y-7.5895
X7.7791Y-7.6895
X7.7791Y-7.7895
X7.78Y-2.93
X7.78Y-3.03
X7.78Y-3.13
X7.78Y-3.23
X7.78Y-3.33
X7.78Y-3.43
X7.78Y-3.53
X7.78Y-3.63
X7.78Y-4.32
X7.78Y-4.42
X7.78Y-4.52
X7.78Y-4.62
X7.78Y-4.72
X7.78Y-4.82
X7.78Y-4.92
X7.78Y-5.02
X7.7889Y-5.7017
X7.7889Y-5.8017
X7.7889Y-5.9017
X7.7889Y-6.0017
X7.7889Y-6.1017
X7.7889Y-6.2017
X7.7889Y-6.3017
X7.7889Y-6.4017
X8.096Y-10.4362
X8.196Y-10.4362
X8.296Y-10.4362
X8.312Y-8.43
X8.312Y-8.53
X8.312Y-9.6051
X8.312Y-9.7051
X8.318Y-9.004
X8.318Y-9.104
X8.396Y-10.4362
X8.422Y-8.43
X8.422Y-8.53
X8.422Y-9.6054
X8.422Y-9.7054
X8.428Y-9.004
X8.428Y-9.104
X8.6891Y-7.0895
X8.6891Y-7.1895
X8.6891Y-7.2895
X8.6891Y-7.3895
X8.6891Y-7.4895
X8.6891Y-7.5895
X8.6891Y-7.6895
X8.6891Y-7.7895
X8.69Y-2.93
X8.69Y-3.03
X8.69Y-3.13
X8.69Y-3.23
X8.69Y-3.33
X8.69Y-3.43
X8.69Y-3.53
X8.69Y-3.63
X8.69Y-4.32
X8.69Y-4.42
X8.69Y-4.52
X8.69Y-4.62
X8.69Y-4.72
X8.69Y-4.82
X8.69Y-4.92
X8.69Y-5.02
X8.6989Y-5.7017
X8.6989Y-5.8017
X8.6989Y-5.9017
X8.6989Y-6.0017
X8.6989Y-6.1017
X8.6989Y-6.2017
X8.6989Y-6.3017
X8.6989Y-6.4017
X8.7891Y-7.0895
X8.7891Y-7.1895
X8.7891Y-7.2895
X8.7891Y-7.3895
X8.7891Y-7.4895
X8.7891Y-7.5895
X8.7891Y-7.6895
X8.7891Y-7.7895
X8.79Y-2.93
X8.79Y-3.03
X8.79Y-3.13
X8.79Y-3.23
X8.79Y-3.33
X8.79Y-3.43
X8.79Y-3.53
X8.79Y-3.63
X8.79Y-4.32
X8.79Y-4.42
X8.79Y-4.52
X8.79Y-4.62
X8.79Y-4.72
X8.79Y-4.82
X8.79Y-4.92
X8.79Y-5.02
X8.7989Y-5.7017
X8.7989Y-5.8017
X8.7989Y-5.9017
X8.7989Y-6.0017
X8.7989Y-6.1017
X8.7989Y-6.2017
X8.7989Y-6.3017
X8.7989Y-6.4017
X8.955Y-7.09
X8.955Y-7.19
X8.955Y-7.29
X8.955Y-7.39
X8.9561Y-4.3213
X8.9561Y-4.4213
X8.9561Y-4.5213
X8.9561Y-4.6213
X8.9562Y-2.9291
X8.9562Y-3.0291
X8.9562Y-3.1291
X8.9562Y-3.2291
X8.965Y-5.7
X8.965Y-5.8
X8.965Y-5.9
X8.965Y-6.0
X9.04Y-7.8006
X9.04Y-7.9006
X9.2Y-7.8006
X9.2Y-7.9006
X9.5Y-7.7991
X9.5Y-7.8991
X9.6Y-7.7991
X9.6Y-7.8991
X9.7Y-7.7991
X9.7Y-7.8991
X9.8Y-7.7991
X9.8Y-7.8991
X9.9Y-7.7991
X9.9Y-7.8991
T6
X1.3835Y-2.1712
X1.3847Y-1.9055
X1.438Y-2.0594
X1.4392Y-1.7937
X1.4925Y-2.1712
X1.4937Y-1.9055
X1.5471Y-2.0594
X1.5482Y-1.7937
X1.6016Y-2.1712
X1.6028Y-1.9055
X1.6561Y-2.0594
X1.6573Y-1.7937
X1.7106Y-2.1712
X1.7118Y-1.9055
X1.7652Y-2.0594
X1.7663Y-1.7937
X1.8197Y-2.1712
X1.8209Y-1.9055
X1.8742Y-2.0594
X1.8754Y-1.7937
X1.9287Y-2.1712
X1.9299Y-1.9055
X1.9833Y-2.0594
X1.9845Y-1.7937
X2.0378Y-2.1712
X2.039Y-1.9055
X2.0923Y-2.0594
X2.0935Y-1.7937
X2.1469Y-2.1712
X2.148Y-1.9055
X2.2014Y-2.0594
X2.2026Y-1.7937
X2.2559Y-2.1712
X2.2571Y-1.9055
X2.3104Y-2.0594
X2.3116Y-1.7937
X2.365Y-2.1712
X2.3661Y-1.9055
X2.4195Y-2.0594
X2.4207Y-1.7937
X2.474Y-2.1712
X2.4752Y-1.9055
X2.5286Y-2.0594
X2.5297Y-1.7937
X2.5831Y-2.1712
X2.5843Y-1.9055
X2.6376Y-2.0594
X2.6388Y-1.7937
X2.6921Y-2.1712
X2.6933Y-1.9055
X3.6695Y-2.1722
X3.6707Y-1.9065
X3.724Y-2.0604
X3.7252Y-1.7947
X3.7785Y-2.1722
X3.7797Y-1.9065
X3.8331Y-2.0604
X3.8342Y-1.7947
X3.8876Y-2.1722
X3.8888Y-1.9065
X3.9421Y-2.0604
X3.9433Y-1.7947
X3.9966Y-2.1722
X3.9978Y-1.9065
X4.0512Y-2.0604
X4.0523Y-1.7947
X4.1057Y-2.1722
X4.1069Y-1.9065
X4.1602Y-2.0604
X4.1614Y-1.7947
X4.2147Y-2.1722
X4.2159Y-1.9065
X4.2693Y-2.0604
X4.2705Y-1.7947
X4.3238Y-2.1722
X4.325Y-1.9065
X4.3783Y-2.0604
X4.3795Y-1.7947
X4.4329Y-2.1722
X4.434Y-1.9065
X4.4874Y-2.0604
X4.4886Y-1.7947
X4.5419Y-2.1722
X4.5431Y-1.9065
X4.5964Y-2.0604
X4.5976Y-1.7947
X4.651Y-2.1722
X4.6521Y-1.9065
X4.7055Y-2.0604
X4.7067Y-1.7947
X4.76Y-2.1722
X4.7612Y-1.9065
X4.8146Y-2.0604
X4.8157Y-1.7947
X4.8691Y-2.1722
X4.8703Y-1.9065
X4.9236Y-2.0604
X4.9248Y-1.7947
X4.9781Y-2.1722
X4.9793Y-1.9065
X6.0063Y-2.1722
X6.0075Y-1.9064
X6.0608Y-2.0604
X6.062Y-1.7946
X6.1153Y-2.1722
X6.1165Y-1.9064
X6.1699Y-2.0604
X6.1711Y-1.7946
X6.2244Y-2.1722
X6.2256Y-1.9064
X6.2789Y-2.0604
X6.2801Y-1.7946
X6.3335Y-2.1722
X6.3346Y-1.9064
X6.388Y-2.0604
X6.3892Y-1.7946
X6.4425Y-2.1722
X6.4437Y-1.9064
X6.497Y-2.0604
X6.4982Y-1.7946
X6.5516Y-2.1722
X6.5527Y-1.9064
X6.6061Y-2.0604
X6.6073Y-1.7946
X6.6606Y-2.1722
X6.6618Y-1.9064
X6.7151Y-2.0604
X6.7163Y-1.7946
X6.7697Y-2.1722
X6.7709Y-1.9064
X6.8242Y-2.0604
X6.8254Y-1.7946
X6.8787Y-2.1722
X6.8799Y-1.9064
X6.9333Y-2.0604
X6.9344Y-1.7946
X6.9878Y-2.1722
X6.989Y-1.9064
X7.0423Y-2.0604
X7.0435Y-1.7946
X7.0968Y-2.1722
X7.098Y-1.9064
X7.1514Y-2.0604
X7.1526Y-1.7946
X7.2059Y-2.1722
X7.2071Y-1.9064
X7.2604Y-2.0604
X7.2616Y-1.7946
X7.315Y-2.1722
X7.3161Y-1.9064
X8.2975Y-2.1722
X8.2987Y-1.9065
X8.352Y-2.0604
X8.3532Y-1.7947
X8.4065Y-2.1722
X8.4077Y-1.9065
X8.4611Y-2.0604
X8.4622Y-1.7947
X8.5156Y-2.1722
X8.5168Y-1.9065
X8.5701Y-2.0604
X8.5713Y-1.7947
X8.6246Y-2.1722
X8.6258Y-1.9065
X8.6792Y-2.0604
X8.6803Y-1.7947
X8.7337Y-2.1722
X8.7349Y-1.9065
X8.7882Y-2.0604
X8.7894Y-1.7947
X8.8427Y-2.1722
X8.8439Y-1.9065
X8.8973Y-2.0604
X8.8985Y-1.7947
X8.9518Y-2.1722
X8.953Y-1.9065
X9.0063Y-2.0604
X9.0075Y-1.7947
X9.0609Y-2.1722
X9.062Y-1.9065
X9.1154Y-2.0604
X9.1166Y-1.7947
X9.1699Y-2.1722
X9.1711Y-1.9065
X9.2244Y-2.0604
X9.2256Y-1.7947
X9.279Y-2.1722
X9.2801Y-1.9065
X9.3335Y-2.0604
X9.3347Y-1.7947
X9.388Y-2.1722
X9.3892Y-1.9065
X9.4426Y-2.0604
X9.4437Y-1.7947
X9.4971Y-2.1722
X9.4983Y-1.9065
X9.5516Y-2.0604
X9.5528Y-1.7947
X9.6061Y-2.1722
X9.6073Y-1.9065
T7
X1.113Y-2.111
X1.1142Y-1.7941
X1.2244Y-2.4606
X1.2244Y-10.2756
X2.7402Y-5.9646
X2.9661Y-2.1114
X2.9673Y-1.7945
X3.399Y-2.112
X3.4002Y-1.7951
X5.2521Y-2.1124
X5.2533Y-1.7955
X5.4961Y-1.7323
X5.4961Y-10.2756
X5.7358Y-2.1119
X5.737Y-1.795
X7.589Y-2.1123
X7.5901Y-1.7954
X8.027Y-2.112
X8.0282Y-1.7951
X8.4484Y-5.9638
X9.7677Y-2.4606
X9.7677Y-10.2756
X9.8801Y-2.1124
X9.8813Y-1.7955
T5
G00X1.058Y-2.9778
M15
G01X1.058Y-2.9385
M16
G05
G00X1.058Y-3.4445
M15
G01X1.058Y-3.4051
M16
G05
G00X1.058Y-3.9112
M15
G01X1.058Y-3.8718
M16
G05
G00X1.058Y-4.3778
M15
G01X1.058Y-4.3385
M16
G05
G00X1.058Y-4.8445
M15
G01X1.058Y-4.8051
M16
G05
G00X1.058Y-5.3112
M15
G01X1.058Y-5.2718
M16
G05
G00X1.058Y-5.7778
M15
G01X1.058Y-5.7385
M16
G05
G00X1.058Y-6.2445
M15
G01X1.058Y-6.2051
M16
G05
G00X1.058Y-6.7112
M15
G01X1.058Y-6.6718
M16
G05
G00X1.058Y-7.1778
M15
G01X1.058Y-7.1385
M16
G05
G00X1.058Y-7.6445
M15
G01X1.058Y-7.6051
M16
G05
G00X1.058Y-8.1112
M15
G01X1.058Y-8.0718
M16
G05
G00X1.058Y-8.5778
M15
G01X1.058Y-8.5385
M16
G05
G00X1.058Y-9.0445
M15
G01X1.058Y-9.0051
M16
G05
G00X1.058Y-9.5112
M15
G01X1.058Y-9.4718
M16
G05
G00X1.058Y-9.9778
M15
G01X1.058Y-9.9385
M16
G05
G00X1.1525Y-2.8991
M15
G01X1.1525Y-2.8597
M16
G05
G00X1.1525Y-3.3658
M15
G01X1.1525Y-3.3264
M16
G05
G00X1.1525Y-3.8324
M15
G01X1.1525Y-3.7931
M16
G05
G00X1.1525Y-4.2991
M15
G01X1.1525Y-4.2597
M16
G05
G00X1.1525Y-4.7658
M15
G01X1.1525Y-4.7264
M16
G05
G00X1.1525Y-5.2324
M15
G01X1.1525Y-5.1931
M16
G05
G00X1.1525Y-5.6991
M15
G01X1.1525Y-5.6597
M16
G05
G00X1.1525Y-6.1658
M15
G01X1.1525Y-6.1264
M16
G05
G00X1.1525Y-6.6324
M15
G01X1.1525Y-6.5931
M16
G05
G00X1.1525Y-7.0991
M15
G01X1.1525Y-7.0597
M16
G05
G00X1.1525Y-7.5658
M15
G01X1.1525Y-7.5264
M16
G05
G00X1.1525Y-8.0324
M15
G01X1.1525Y-7.9931
M16
G05
G00X1.1525Y-8.4991
M15
G01X1.1525Y-8.4597
M16
G05
G00X1.1525Y-8.9658
M15
G01X1.1525Y-8.9264
M16
G05
G00X1.1525Y-9.4324
M15
G01X1.1525Y-9.3931
M16
G05
G00X1.1525Y-9.8991
M15
G01X1.1525Y-9.8597
M16
G05
G00X1.2982Y-2.9778
M15
G01X1.2982Y-2.9385
M16
G05
G00X1.2982Y-3.4445
M15
G01X1.2982Y-3.4051
M16
G05
G00X1.2982Y-3.9112
M15
G01X1.2982Y-3.8718
M16
G05
G00X1.2982Y-4.3778
M15
G01X1.2982Y-4.3385
M16
G05
G00X1.2982Y-4.8445
M15
G01X1.2982Y-4.8051
M16
G05
G00X1.2982Y-5.3112
M15
G01X1.2982Y-5.2718
M16
G05
G00X1.2982Y-5.7778
M15
G01X1.2982Y-5.7385
M16
G05
G00X1.2982Y-6.2445
M15
G01X1.2982Y-6.2051
M16
G05
G00X1.2982Y-6.7112
M15
G01X1.2982Y-6.6718
M16
G05
G00X1.2982Y-7.1778
M15
G01X1.2982Y-7.1385
M16
G05
G00X1.2982Y-7.6445
M15
G01X1.2982Y-7.6051
M16
G05
G00X1.2982Y-8.1112
M15
G01X1.2982Y-8.0718
M16
G05
G00X1.2982Y-8.5778
M15
G01X1.2982Y-8.5385
M16
G05
G00X1.2982Y-9.0445
M15
G01X1.2982Y-9.0051
M16
G05
G00X1.2982Y-9.5112
M15
G01X1.2982Y-9.4718
M16
G05
G00X1.2982Y-9.9778
M15
G01X1.2982Y-9.9385
M16
G05
G00X1.3691Y-2.8991
M15
G01X1.3691Y-2.8597
M16
G05
G00X1.3691Y-3.3658
M15
G01X1.3691Y-3.3264
M16
G05
G00X1.3691Y-3.8324
M15
G01X1.3691Y-3.7931
M16
G05
G00X1.3691Y-4.2991
M15
G01X1.3691Y-4.2597
M16
G05
G00X1.3691Y-4.7658
M15
G01X1.3691Y-4.7264
M16
G05
G00X1.3691Y-5.2324
M15
G01X1.3691Y-5.1931
M16
G05
G00X1.3691Y-5.6991
M15
G01X1.3691Y-5.6597
M16
G05
G00X1.3691Y-6.1658
M15
G01X1.3691Y-6.1264
M16
G05
G00X1.3691Y-6.6324
M15
G01X1.3691Y-6.5931
M16
G05
G00X1.3691Y-7.0991
M15
G01X1.3691Y-7.0597
M16
G05
G00X1.3691Y-7.5658
M15
G01X1.3691Y-7.5264
M16
G05
G00X1.3691Y-8.0324
M15
G01X1.3691Y-7.9931
M16
G05
G00X1.3691Y-8.4991
M15
G01X1.3691Y-8.4597
M16
G05
G00X1.3691Y-8.9658
M15
G01X1.3691Y-8.9264
M16
G05
G00X1.3691Y-9.4324
M15
G01X1.3691Y-9.3931
M16
G05
G00X1.3691Y-9.8991
M15
G01X1.3691Y-9.8597
M16
G05
G00X1.5147Y-2.9778
M15
G01X1.5147Y-2.9385
M16
G05
G00X1.5147Y-3.4445
M15
G01X1.5147Y-3.4051
M16
G05
G00X1.5147Y-3.9112
M15
G01X1.5147Y-3.8718
M16
G05
G00X1.5147Y-4.3778
M15
G01X1.5147Y-4.3385
M16
G05
G00X1.5147Y-4.8445
M15
G01X1.5147Y-4.8051
M16
G05
G00X1.5147Y-5.3112
M15
G01X1.5147Y-5.2718
M16
G05
G00X1.5147Y-5.7778
M15
G01X1.5147Y-5.7385
M16
G05
G00X1.5147Y-6.2445
M15
G01X1.5147Y-6.2051
M16
G05
G00X1.5147Y-6.7112
M15
G01X1.5147Y-6.6718
M16
G05
G00X1.5147Y-7.1778
M15
G01X1.5147Y-7.1385
M16
G05
G00X1.5147Y-7.6445
M15
G01X1.5147Y-7.6051
M16
G05
G00X1.5147Y-8.1112
M15
G01X1.5147Y-8.0718
M16
G05
G00X1.5147Y-8.5778
M15
G01X1.5147Y-8.5385
M16
G05
G00X1.5147Y-9.0445
M15
G01X1.5147Y-9.0051
M16
G05
G00X1.5147Y-9.5112
M15
G01X1.5147Y-9.4718
M16
G05
G00X1.5147Y-9.9778
M15
G01X1.5147Y-9.9385
M16
G05
T0
M30
