G04 #@! TF.GenerationSoftware,KiCad,Pcbnew,7.0.0*
G04 #@! TF.CreationDate,2024-03-13T15:56:50+01:00*
G04 #@! TF.ProjectId,ADAU1787_rack,41444155-3137-4383-975f-7261636b2e6b,rev?*
G04 #@! TF.SameCoordinates,Original*
G04 #@! TF.FileFunction,Soldermask,Top*
G04 #@! TF.FilePolarity,Negative*
%FSLAX46Y46*%
G04 Gerber Fmt 4.6, Leading zero omitted, Abs format (unit mm)*
G04 Created by KiCad (PCBNEW 7.0.0) date 2024-03-13 15:56:50*
%MOMM*%
%LPD*%
G01*
G04 APERTURE LIST*
G04 Aperture macros list*
%AMRoundRect*
0 Rectangle with rounded corners*
0 $1 Rounding radius*
0 $2 $3 $4 $5 $6 $7 $8 $9 X,Y pos of 4 corners*
0 Add a 4 corners polygon primitive as box body*
4,1,4,$2,$3,$4,$5,$6,$7,$8,$9,$2,$3,0*
0 Add four circle primitives for the rounded corners*
1,1,$1+$1,$2,$3*
1,1,$1+$1,$4,$5*
1,1,$1+$1,$6,$7*
1,1,$1+$1,$8,$9*
0 Add four rect primitives between the rounded corners*
20,1,$1+$1,$2,$3,$4,$5,0*
20,1,$1+$1,$4,$5,$6,$7,0*
20,1,$1+$1,$6,$7,$8,$9,0*
20,1,$1+$1,$8,$9,$2,$3,0*%
%AMFreePoly0*
4,1,19,0.500000,-0.750000,0.000000,-0.750000,0.000000,-0.744911,-0.071157,-0.744911,-0.207708,-0.704816,-0.327430,-0.627875,-0.420627,-0.520320,-0.479746,-0.390866,-0.500000,-0.250000,-0.500000,0.250000,-0.479746,0.390866,-0.420627,0.520320,-0.327430,0.627875,-0.207708,0.704816,-0.071157,0.744911,0.000000,0.744911,0.000000,0.750000,0.500000,0.750000,0.500000,-0.750000,0.500000,-0.750000,
$1*%
%AMFreePoly1*
4,1,19,0.000000,0.744911,0.071157,0.744911,0.207708,0.704816,0.327430,0.627875,0.420627,0.520320,0.479746,0.390866,0.500000,0.250000,0.500000,-0.250000,0.479746,-0.390866,0.420627,-0.520320,0.327430,-0.627875,0.207708,-0.704816,0.071157,-0.744911,0.000000,-0.744911,0.000000,-0.750000,-0.500000,-0.750000,-0.500000,0.750000,0.000000,0.750000,0.000000,0.744911,0.000000,0.744911,
$1*%
G04 Aperture macros list end*
%ADD10C,0.000000*%
%ADD11R,1.700000X1.700000*%
%ADD12O,1.700000X1.700000*%
%ADD13O,1.800000X2.800000*%
%ADD14C,1.270000*%
%ADD15C,0.640000*%
%ADD16RoundRect,0.218750X-0.256250X0.218750X-0.256250X-0.218750X0.256250X-0.218750X0.256250X0.218750X0*%
%ADD17RoundRect,0.218750X0.218750X0.256250X-0.218750X0.256250X-0.218750X-0.256250X0.218750X-0.256250X0*%
%ADD18RoundRect,0.218750X-0.218750X-0.256250X0.218750X-0.256250X0.218750X0.256250X-0.218750X0.256250X0*%
%ADD19R,1.000000X1.500000*%
%ADD20C,1.600000*%
%ADD21O,1.600000X1.600000*%
%ADD22RoundRect,0.100000X0.637500X0.100000X-0.637500X0.100000X-0.637500X-0.100000X0.637500X-0.100000X0*%
%ADD23FreePoly0,90.000000*%
%ADD24FreePoly1,90.000000*%
%ADD25RoundRect,0.218750X0.256250X-0.218750X0.256250X0.218750X-0.256250X0.218750X-0.256250X-0.218750X0*%
%ADD26RoundRect,0.019600X0.120400X-0.700400X0.120400X0.700400X-0.120400X0.700400X-0.120400X-0.700400X0*%
%ADD27R,4.800000X3.000000*%
%ADD28RoundRect,0.250000X-0.250000X-0.475000X0.250000X-0.475000X0.250000X0.475000X-0.250000X0.475000X0*%
%ADD29RoundRect,0.250000X-0.475000X0.250000X-0.475000X-0.250000X0.475000X-0.250000X0.475000X0.250000X0*%
%ADD30RoundRect,0.200000X-0.200000X-0.275000X0.200000X-0.275000X0.200000X0.275000X-0.200000X0.275000X0*%
%ADD31RoundRect,0.250000X0.312500X0.625000X-0.312500X0.625000X-0.312500X-0.625000X0.312500X-0.625000X0*%
%ADD32RoundRect,0.200000X0.275000X-0.200000X0.275000X0.200000X-0.275000X0.200000X-0.275000X-0.200000X0*%
%ADD33RoundRect,0.250000X0.250000X0.475000X-0.250000X0.475000X-0.250000X-0.475000X0.250000X-0.475000X0*%
%ADD34RoundRect,0.200000X-0.275000X0.200000X-0.275000X-0.200000X0.275000X-0.200000X0.275000X0.200000X0*%
%ADD35C,5.000000*%
%ADD36C,4.000000*%
%ADD37R,1.800000X1.800000*%
%ADD38C,1.800000*%
G04 APERTURE END LIST*
D10*
G36*
X149840866Y-227631116D02*
G01*
X149896462Y-227632858D01*
X149951923Y-227635759D01*
X150007232Y-227639819D01*
X150062368Y-227645037D01*
X150117314Y-227651412D01*
X150172050Y-227658942D01*
X150226556Y-227667626D01*
X150280815Y-227677464D01*
X150334806Y-227688454D01*
X150388512Y-227700596D01*
X150441912Y-227713888D01*
X150494988Y-227728329D01*
X150547721Y-227743918D01*
X150600092Y-227760654D01*
X150652081Y-227778536D01*
X161227972Y-231728270D01*
X161553980Y-231864852D01*
X161865452Y-232024899D01*
X162161492Y-232207121D01*
X162441207Y-232410228D01*
X162703702Y-232632930D01*
X162948082Y-232873938D01*
X163173452Y-233131961D01*
X163378919Y-233405711D01*
X163563586Y-233693897D01*
X163726560Y-233995230D01*
X163866947Y-234308419D01*
X163983850Y-234632175D01*
X164076377Y-234965209D01*
X164143631Y-235306231D01*
X164184719Y-235653950D01*
X164198746Y-236007077D01*
X164195270Y-236184336D01*
X164184916Y-236360404D01*
X164167796Y-236535121D01*
X164144021Y-236708325D01*
X164113702Y-236879855D01*
X164076950Y-237049548D01*
X164033877Y-237217244D01*
X163984594Y-237382781D01*
X163929211Y-237545997D01*
X163867841Y-237706732D01*
X163800595Y-237864823D01*
X163727583Y-238020110D01*
X163648917Y-238172430D01*
X163564709Y-238321622D01*
X163475069Y-238467525D01*
X163380109Y-238609978D01*
X163279940Y-238748818D01*
X163174673Y-238883884D01*
X163064420Y-239015016D01*
X162949291Y-239142051D01*
X162829399Y-239264827D01*
X162704853Y-239383185D01*
X162575766Y-239496961D01*
X162442249Y-239605995D01*
X162304413Y-239710125D01*
X162162369Y-239809189D01*
X162016229Y-239903026D01*
X161866103Y-239991476D01*
X161712103Y-240074375D01*
X161554341Y-240151563D01*
X161392927Y-240222878D01*
X161227972Y-240288159D01*
X150656216Y-244236859D01*
X150603494Y-244254927D01*
X150550507Y-244271826D01*
X150497261Y-244287555D01*
X150443764Y-244302116D01*
X150390025Y-244315508D01*
X150336052Y-244327734D01*
X150281852Y-244338792D01*
X150227434Y-244348684D01*
X150172804Y-244357409D01*
X150117972Y-244364970D01*
X150007729Y-244376598D01*
X149896770Y-244383571D01*
X149785156Y-244385895D01*
X149650737Y-244382478D01*
X149518058Y-244372338D01*
X149387288Y-244355639D01*
X149258589Y-244332549D01*
X149132130Y-244303233D01*
X149008074Y-244267855D01*
X148886588Y-244226583D01*
X148767838Y-244179581D01*
X148651988Y-244127015D01*
X148539205Y-244069051D01*
X148429654Y-244005855D01*
X148323501Y-243937592D01*
X148220912Y-243864427D01*
X148122052Y-243786528D01*
X148027087Y-243704058D01*
X147936182Y-243617184D01*
X147849503Y-243526072D01*
X147767216Y-243430887D01*
X147689487Y-243331795D01*
X147616480Y-243228961D01*
X147548362Y-243122552D01*
X147485298Y-243012732D01*
X147427455Y-242899667D01*
X147374997Y-242783524D01*
X147328090Y-242664468D01*
X147286899Y-242542664D01*
X147251592Y-242418278D01*
X147222332Y-242291476D01*
X147199287Y-242162423D01*
X147182620Y-242031286D01*
X147172499Y-241898229D01*
X147169089Y-241763419D01*
X147171201Y-241657174D01*
X147177492Y-241551822D01*
X147187895Y-241447457D01*
X147202340Y-241344172D01*
X147220760Y-241242061D01*
X147243087Y-241141218D01*
X147269252Y-241041736D01*
X147299186Y-240943709D01*
X147332823Y-240847231D01*
X147370093Y-240752395D01*
X147410929Y-240659294D01*
X147455262Y-240568023D01*
X147503025Y-240478675D01*
X147554148Y-240391343D01*
X147608564Y-240306122D01*
X147666205Y-240223105D01*
X147727002Y-240142385D01*
X147790887Y-240064056D01*
X147857792Y-239988212D01*
X147927649Y-239914947D01*
X148000390Y-239844354D01*
X148075946Y-239776526D01*
X148154249Y-239711558D01*
X148235232Y-239649542D01*
X148318825Y-239590574D01*
X148404961Y-239534745D01*
X148493572Y-239482150D01*
X148584589Y-239432883D01*
X148677944Y-239387037D01*
X148773569Y-239344705D01*
X148871396Y-239305982D01*
X148971356Y-239270961D01*
X158311148Y-236208202D01*
X158925064Y-236007077D01*
X158311148Y-235806160D01*
X148970325Y-232743195D01*
X148772362Y-232669452D01*
X148583252Y-232581281D01*
X148403536Y-232479428D01*
X148233752Y-232364644D01*
X148074444Y-232237676D01*
X147926151Y-232099272D01*
X147789414Y-231950182D01*
X147664775Y-231791153D01*
X147552774Y-231622934D01*
X147453951Y-231446273D01*
X147368848Y-231261918D01*
X147298005Y-231070619D01*
X147241964Y-230873124D01*
X147201265Y-230670180D01*
X147176449Y-230462537D01*
X147168057Y-230250943D01*
X147171564Y-230116325D01*
X147181775Y-229983448D01*
X147198525Y-229852478D01*
X147221649Y-229723582D01*
X147250981Y-229596926D01*
X147286356Y-229472674D01*
X147327609Y-229350995D01*
X147374573Y-229232053D01*
X147427084Y-229116015D01*
X147484975Y-229003047D01*
X147548083Y-228893315D01*
X147616240Y-228786985D01*
X147689282Y-228684223D01*
X147767044Y-228585195D01*
X147849359Y-228490067D01*
X147936063Y-228399005D01*
X148026990Y-228312176D01*
X148121975Y-228229744D01*
X148220851Y-228151878D01*
X148323454Y-228078742D01*
X148429619Y-228010502D01*
X148539179Y-227947325D01*
X148651970Y-227889377D01*
X148767825Y-227836824D01*
X148886580Y-227789831D01*
X149008070Y-227748565D01*
X149132127Y-227713192D01*
X149258589Y-227683879D01*
X149387287Y-227660790D01*
X149518059Y-227644092D01*
X149650737Y-227633952D01*
X149785156Y-227630535D01*
X149840866Y-227631116D01*
G37*
G36*
X139763349Y-223801804D02*
G01*
X139770261Y-223802377D01*
X139784042Y-223803677D01*
X139797807Y-223805034D01*
X139811606Y-223806273D01*
X139922234Y-223814573D01*
X140030210Y-223827246D01*
X140135174Y-223843758D01*
X140236763Y-223863577D01*
X140334616Y-223886170D01*
X140428371Y-223911004D01*
X140517665Y-223937545D01*
X140602138Y-223965261D01*
X140681428Y-223993619D01*
X140755173Y-224022086D01*
X140823010Y-224050128D01*
X140884579Y-224077213D01*
X140987465Y-224126379D01*
X141060934Y-224165321D01*
X141060934Y-224168214D01*
X141252304Y-224277185D01*
X141435394Y-224398381D01*
X141609642Y-224531242D01*
X141774489Y-224675209D01*
X141929372Y-224829723D01*
X142073731Y-224994223D01*
X142207005Y-225168151D01*
X142328632Y-225350947D01*
X142438051Y-225542051D01*
X142534702Y-225740903D01*
X142618022Y-225946944D01*
X142687452Y-226159615D01*
X142742430Y-226378356D01*
X142782394Y-226602607D01*
X142806784Y-226831809D01*
X142815039Y-227065401D01*
X142812964Y-227182711D01*
X142806784Y-227298993D01*
X142796571Y-227414175D01*
X142782394Y-227528190D01*
X142764324Y-227640966D01*
X142742430Y-227752433D01*
X142716782Y-227862523D01*
X142687452Y-227971164D01*
X142654509Y-228078287D01*
X142618022Y-228183823D01*
X142578063Y-228287700D01*
X142534702Y-228389850D01*
X142488008Y-228490203D01*
X142438051Y-228588688D01*
X142384903Y-228685235D01*
X142328632Y-228779775D01*
X142269309Y-228872238D01*
X142207005Y-228962554D01*
X142141789Y-229050653D01*
X142073731Y-229136465D01*
X142002902Y-229219920D01*
X141929372Y-229300948D01*
X141853211Y-229379480D01*
X141774489Y-229455445D01*
X141693276Y-229528774D01*
X141609642Y-229599396D01*
X141523658Y-229667242D01*
X141435394Y-229732242D01*
X141344919Y-229794326D01*
X141252304Y-229853424D01*
X141157619Y-229909466D01*
X141060934Y-229962383D01*
X141060934Y-229962589D01*
X141044487Y-229971179D01*
X141028176Y-229979402D01*
X140995618Y-229995662D01*
X140984354Y-230001355D01*
X140973136Y-230007116D01*
X140961893Y-230012834D01*
X140956240Y-230015642D01*
X140950555Y-230018399D01*
X140843870Y-230068387D01*
X140740342Y-230112755D01*
X140640220Y-230151834D01*
X140543752Y-230185954D01*
X140451184Y-230215447D01*
X140362764Y-230240641D01*
X140278740Y-230261867D01*
X140199359Y-230279456D01*
X140124868Y-230293739D01*
X140055517Y-230305044D01*
X139991550Y-230313704D01*
X139933217Y-230320048D01*
X139834442Y-230327109D01*
X139761169Y-230328871D01*
X139756415Y-230329285D01*
X139756415Y-230328871D01*
X139709214Y-230328776D01*
X139690944Y-230328688D01*
X139685104Y-230328596D01*
X139682208Y-230328458D01*
X139683035Y-223802552D01*
X139701488Y-223802737D01*
X139719830Y-223803201D01*
X139756415Y-223804412D01*
X139756415Y-223801311D01*
X139763349Y-223801804D01*
G37*
G36*
X139760361Y-241275869D02*
G01*
X139764293Y-241276188D01*
X139772135Y-241276899D01*
X139779972Y-241277628D01*
X139787836Y-241278281D01*
X139900127Y-241285852D01*
X140009769Y-241297987D01*
X140116389Y-241314134D01*
X140219613Y-241333743D01*
X140319066Y-241356261D01*
X140414375Y-241381138D01*
X140505165Y-241407823D01*
X140591062Y-241435763D01*
X140671692Y-241464409D01*
X140746682Y-241493208D01*
X140815657Y-241521609D01*
X140878242Y-241549062D01*
X140982751Y-241598917D01*
X141057214Y-241638361D01*
X141057214Y-241640634D01*
X141248956Y-241749492D01*
X141432409Y-241870610D01*
X141607010Y-242003428D01*
X141772196Y-242147384D01*
X141927404Y-242301918D01*
X142072069Y-242466469D01*
X142205631Y-242640475D01*
X142327524Y-242823376D01*
X142437186Y-243014611D01*
X142534053Y-243213619D01*
X142617563Y-243419838D01*
X142687153Y-243632709D01*
X142742258Y-243851669D01*
X142782316Y-244076157D01*
X142806764Y-244305614D01*
X142815039Y-244539478D01*
X142812607Y-244666463D01*
X142805370Y-244792236D01*
X142793418Y-244916710D01*
X142776839Y-245039794D01*
X142755723Y-245161401D01*
X142730158Y-245281440D01*
X142700233Y-245399824D01*
X142666038Y-245516464D01*
X142627661Y-245631269D01*
X142585191Y-245744153D01*
X142538717Y-245855025D01*
X142488329Y-245963797D01*
X142434115Y-246070380D01*
X142376165Y-246174684D01*
X142314566Y-246276622D01*
X142249409Y-246376105D01*
X142180783Y-246473042D01*
X142108775Y-246567347D01*
X142033476Y-246658928D01*
X141954974Y-246747699D01*
X141873358Y-246833569D01*
X141788717Y-246916450D01*
X141701141Y-246996253D01*
X141610718Y-247072890D01*
X141517537Y-247146270D01*
X141421687Y-247216306D01*
X141323257Y-247282909D01*
X141222337Y-247345989D01*
X141119014Y-247405457D01*
X141013379Y-247461226D01*
X140905520Y-247513205D01*
X140795526Y-247561307D01*
X140705718Y-247598331D01*
X140618612Y-247631392D01*
X140534367Y-247660713D01*
X140453142Y-247686513D01*
X140375097Y-247709013D01*
X140300390Y-247728435D01*
X140229180Y-247744998D01*
X140161626Y-247758925D01*
X140097888Y-247770436D01*
X140038124Y-247779751D01*
X139982494Y-247787092D01*
X139931157Y-247792680D01*
X139841998Y-247799478D01*
X139771918Y-247801913D01*
X139756415Y-247803360D01*
X139756415Y-247801913D01*
X139706351Y-247801866D01*
X139687475Y-247801754D01*
X139681474Y-247801648D01*
X139678488Y-247801498D01*
X139679315Y-241275592D01*
X139698706Y-241275799D01*
X139717982Y-241276316D01*
X139756415Y-241277661D01*
X139756415Y-241275592D01*
X139760361Y-241275869D01*
G37*
D11*
X56143499Y-180073999D03*
D12*
X53603499Y-180073999D03*
X56143499Y-182613999D03*
X53603499Y-182613999D03*
X56143499Y-185153999D03*
X53603499Y-185153999D03*
X56143499Y-187693999D03*
X53603499Y-187693999D03*
X56143499Y-190233999D03*
X53603499Y-190233999D03*
X56143499Y-192773999D03*
X53603499Y-192773999D03*
X56143499Y-195313999D03*
X53603499Y-195313999D03*
X56143499Y-197853999D03*
X53603499Y-197853999D03*
D11*
X81797499Y-180073999D03*
D12*
X79257499Y-180073999D03*
X81797499Y-182613999D03*
X79257499Y-182613999D03*
X81797499Y-185153999D03*
X79257499Y-185153999D03*
X81797499Y-187693999D03*
X79257499Y-187693999D03*
X81797499Y-190233999D03*
X79257499Y-190233999D03*
X81797499Y-192773999D03*
X79257499Y-192773999D03*
X81797499Y-195313999D03*
X79257499Y-195313999D03*
X81797499Y-197853999D03*
X79257499Y-197853999D03*
D13*
X34774219Y-96843964D03*
X32974219Y-98843964D03*
X26874219Y-98843964D03*
X29274219Y-96843964D03*
X38474219Y-98843964D03*
X34774219Y-84990631D03*
X32974219Y-86990631D03*
X26874219Y-86990631D03*
X29274219Y-84990631D03*
X38474219Y-86990631D03*
X34774219Y-215377294D03*
X32974219Y-217377294D03*
X26874219Y-217377294D03*
X29274219Y-215377294D03*
X38474219Y-217377294D03*
X34774219Y-239083960D03*
X32974219Y-241083960D03*
X26874219Y-241083960D03*
X29274219Y-239083960D03*
X38474219Y-241083960D03*
X34774219Y-250937298D03*
X32974219Y-252937298D03*
X26874219Y-252937298D03*
X29274219Y-250937298D03*
X38474219Y-252937298D03*
X34774219Y-73137298D03*
X32974219Y-75137298D03*
X26874219Y-75137298D03*
X29274219Y-73137298D03*
X38474219Y-75137298D03*
X34774219Y-227230627D03*
X32974219Y-229230627D03*
X26874219Y-229230627D03*
X29274219Y-227230627D03*
X38474219Y-229230627D03*
X34774219Y-191670628D03*
X32974219Y-193670628D03*
X26874219Y-193670628D03*
X29274219Y-191670628D03*
X38474219Y-193670628D03*
X34774219Y-179817295D03*
X32974219Y-181817295D03*
X26874219Y-181817295D03*
X29274219Y-179817295D03*
X38474219Y-181817295D03*
X34774219Y-120550630D03*
X32974219Y-122550630D03*
X26874219Y-122550630D03*
X29274219Y-120550630D03*
X38474219Y-122550630D03*
X34774219Y-167963962D03*
X32974219Y-169963962D03*
X26874219Y-169963962D03*
X29274219Y-167963962D03*
X38474219Y-169963962D03*
X34774219Y-156110629D03*
X32974219Y-158110629D03*
X26874219Y-158110629D03*
X29274219Y-156110629D03*
X38474219Y-158110629D03*
X34774219Y-144257296D03*
X32974219Y-146257296D03*
X26874219Y-146257296D03*
X29274219Y-144257296D03*
X38474219Y-146257296D03*
X34774219Y-203523961D03*
X32974219Y-205523961D03*
X26874219Y-205523961D03*
X29274219Y-203523961D03*
X38474219Y-205523961D03*
D11*
X103263045Y-180073999D03*
D12*
X100723045Y-180073999D03*
X103263045Y-182613999D03*
X100723045Y-182613999D03*
X103263045Y-185153999D03*
X100723045Y-185153999D03*
X103263045Y-187693999D03*
X100723045Y-187693999D03*
X103263045Y-190233999D03*
X100723045Y-190233999D03*
X103263045Y-192773999D03*
X100723045Y-192773999D03*
X103263045Y-195313999D03*
X100723045Y-195313999D03*
X103263045Y-197853999D03*
X100723045Y-197853999D03*
D11*
X128917045Y-180073999D03*
D12*
X126377045Y-180073999D03*
X128917045Y-182613999D03*
X126377045Y-182613999D03*
X128917045Y-185153999D03*
X126377045Y-185153999D03*
X128917045Y-187693999D03*
X126377045Y-187693999D03*
X128917045Y-190233999D03*
X126377045Y-190233999D03*
X128917045Y-192773999D03*
X126377045Y-192773999D03*
X128917045Y-195313999D03*
X126377045Y-195313999D03*
X128917045Y-197853999D03*
X126377045Y-197853999D03*
D11*
X103429712Y-144823499D03*
D12*
X100889712Y-144823499D03*
X103429712Y-147363499D03*
X100889712Y-147363499D03*
X103429712Y-149903499D03*
X100889712Y-149903499D03*
X103429712Y-152443499D03*
X100889712Y-152443499D03*
X103429712Y-154983499D03*
X100889712Y-154983499D03*
X103429712Y-157523499D03*
X100889712Y-157523499D03*
X103429712Y-160063499D03*
X100889712Y-160063499D03*
X103429712Y-162603499D03*
X100889712Y-162603499D03*
D11*
X129083712Y-144823499D03*
D12*
X126543712Y-144823499D03*
X129083712Y-147363499D03*
X126543712Y-147363499D03*
X129083712Y-149903499D03*
X126543712Y-149903499D03*
X129083712Y-152443499D03*
X126543712Y-152443499D03*
X129083712Y-154983499D03*
X126543712Y-154983499D03*
X129083712Y-157523499D03*
X126543712Y-157523499D03*
X129083712Y-160063499D03*
X126543712Y-160063499D03*
X129083712Y-162603499D03*
X126543712Y-162603499D03*
D11*
X150532285Y-109727999D03*
D12*
X147992285Y-109727999D03*
X150532285Y-112267999D03*
X147992285Y-112267999D03*
X150532285Y-114807999D03*
X147992285Y-114807999D03*
X150532285Y-117347999D03*
X147992285Y-117347999D03*
X150532285Y-119887999D03*
X147992285Y-119887999D03*
X150532285Y-122427999D03*
X147992285Y-122427999D03*
X150532285Y-124967999D03*
X147992285Y-124967999D03*
X150532285Y-127507999D03*
X147992285Y-127507999D03*
D11*
X176186285Y-109727999D03*
D12*
X173646285Y-109727999D03*
X176186285Y-112267999D03*
X173646285Y-112267999D03*
X176186285Y-114807999D03*
X173646285Y-114807999D03*
X176186285Y-117347999D03*
X173646285Y-117347999D03*
X176186285Y-119887999D03*
X173646285Y-119887999D03*
X176186285Y-122427999D03*
X173646285Y-122427999D03*
X176186285Y-124967999D03*
X173646285Y-124967999D03*
X176186285Y-127507999D03*
X173646285Y-127507999D03*
D11*
X55666359Y-74421999D03*
D12*
X53126359Y-74421999D03*
X55666359Y-76961999D03*
X53126359Y-76961999D03*
X55666359Y-79501999D03*
X53126359Y-79501999D03*
X55666359Y-82041999D03*
X53126359Y-82041999D03*
X55666359Y-84581999D03*
X53126359Y-84581999D03*
X55666359Y-87121999D03*
X53126359Y-87121999D03*
X55666359Y-89661999D03*
X53126359Y-89661999D03*
X55666359Y-92201999D03*
X53126359Y-92201999D03*
D11*
X81320359Y-74421999D03*
D12*
X78780359Y-74421999D03*
X81320359Y-76961999D03*
X78780359Y-76961999D03*
X81320359Y-79501999D03*
X78780359Y-79501999D03*
X81320359Y-82041999D03*
X78780359Y-82041999D03*
X81320359Y-84581999D03*
X78780359Y-84581999D03*
X81320359Y-87121999D03*
X78780359Y-87121999D03*
X81320359Y-89661999D03*
X78780359Y-89661999D03*
X81320359Y-92201999D03*
X78780359Y-92201999D03*
D11*
X197611999Y-74421999D03*
D12*
X195071999Y-74421999D03*
X197611999Y-76961999D03*
X195071999Y-76961999D03*
X197611999Y-79501999D03*
X195071999Y-79501999D03*
X197611999Y-82041999D03*
X195071999Y-82041999D03*
X197611999Y-84581999D03*
X195071999Y-84581999D03*
X197611999Y-87121999D03*
X195071999Y-87121999D03*
X197611999Y-89661999D03*
X195071999Y-89661999D03*
X197611999Y-92201999D03*
X195071999Y-92201999D03*
D11*
X223265999Y-74421999D03*
D12*
X220725999Y-74421999D03*
X223265999Y-76961999D03*
X220725999Y-76961999D03*
X223265999Y-79501999D03*
X220725999Y-79501999D03*
X223265999Y-82041999D03*
X220725999Y-82041999D03*
X223265999Y-84581999D03*
X220725999Y-84581999D03*
X223265999Y-87121999D03*
X220725999Y-87121999D03*
X223265999Y-89661999D03*
X220725999Y-89661999D03*
X223265999Y-92201999D03*
X220725999Y-92201999D03*
D11*
X102952572Y-74421999D03*
D12*
X100412572Y-74421999D03*
X102952572Y-76961999D03*
X100412572Y-76961999D03*
X102952572Y-79501999D03*
X100412572Y-79501999D03*
X102952572Y-82041999D03*
X100412572Y-82041999D03*
X102952572Y-84581999D03*
X100412572Y-84581999D03*
X102952572Y-87121999D03*
X100412572Y-87121999D03*
X102952572Y-89661999D03*
X100412572Y-89661999D03*
X102952572Y-92201999D03*
X100412572Y-92201999D03*
D11*
X128606572Y-74421999D03*
D12*
X126066572Y-74421999D03*
X128606572Y-76961999D03*
X126066572Y-76961999D03*
X128606572Y-79501999D03*
X126066572Y-79501999D03*
X128606572Y-82041999D03*
X126066572Y-82041999D03*
X128606572Y-84581999D03*
X126066572Y-84581999D03*
X128606572Y-87121999D03*
X126066572Y-87121999D03*
X128606572Y-89661999D03*
X126066572Y-89661999D03*
X128606572Y-92201999D03*
X126066572Y-92201999D03*
D11*
X150759425Y-144823499D03*
D12*
X148219425Y-144823499D03*
X150759425Y-147363499D03*
X148219425Y-147363499D03*
X150759425Y-149903499D03*
X148219425Y-149903499D03*
X150759425Y-152443499D03*
X148219425Y-152443499D03*
X150759425Y-154983499D03*
X148219425Y-154983499D03*
X150759425Y-157523499D03*
X148219425Y-157523499D03*
X150759425Y-160063499D03*
X148219425Y-160063499D03*
X150759425Y-162603499D03*
X148219425Y-162603499D03*
D11*
X176413425Y-144823499D03*
D12*
X173873425Y-144823499D03*
X176413425Y-147363499D03*
X173873425Y-147363499D03*
X176413425Y-149903499D03*
X173873425Y-149903499D03*
X176413425Y-152443499D03*
X173873425Y-152443499D03*
X176413425Y-154983499D03*
X173873425Y-154983499D03*
X176413425Y-157523499D03*
X173873425Y-157523499D03*
X176413425Y-160063499D03*
X173873425Y-160063499D03*
X176413425Y-162603499D03*
X173873425Y-162603499D03*
D11*
X150426091Y-180073999D03*
D12*
X147886091Y-180073999D03*
X150426091Y-182613999D03*
X147886091Y-182613999D03*
X150426091Y-185153999D03*
X147886091Y-185153999D03*
X150426091Y-187693999D03*
X147886091Y-187693999D03*
X150426091Y-190233999D03*
X147886091Y-190233999D03*
X150426091Y-192773999D03*
X147886091Y-192773999D03*
X150426091Y-195313999D03*
X147886091Y-195313999D03*
X150426091Y-197853999D03*
X147886091Y-197853999D03*
D11*
X176080091Y-180073999D03*
D12*
X173540091Y-180073999D03*
X176080091Y-182613999D03*
X173540091Y-182613999D03*
X176080091Y-185153999D03*
X173540091Y-185153999D03*
X176080091Y-187693999D03*
X173540091Y-187693999D03*
X176080091Y-190233999D03*
X173540091Y-190233999D03*
X176080091Y-192773999D03*
X173540091Y-192773999D03*
X176080091Y-195313999D03*
X173540091Y-195313999D03*
X176080091Y-197853999D03*
X173540091Y-197853999D03*
D14*
X244685000Y-137110000D03*
X241635000Y-191490000D03*
D15*
X241510000Y-189065000D03*
X241510000Y-187795000D03*
X241510000Y-186525000D03*
X241510000Y-185255000D03*
X241510000Y-183985000D03*
X241510000Y-182715000D03*
X241510000Y-181445000D03*
X241510000Y-180175000D03*
X241510000Y-178905000D03*
X241510000Y-177635000D03*
X241510000Y-176365000D03*
X241510000Y-175095000D03*
X241510000Y-173825000D03*
X241510000Y-172555000D03*
X241510000Y-171285000D03*
X241510000Y-170015000D03*
X241510000Y-168745000D03*
X241510000Y-167475000D03*
X241510000Y-166205000D03*
X241510000Y-164935000D03*
X241510000Y-163665000D03*
X241510000Y-162395000D03*
X241510000Y-161125000D03*
X241510000Y-159855000D03*
X241510000Y-158585000D03*
X241510000Y-157315000D03*
X241510000Y-156045000D03*
X241510000Y-154775000D03*
X241510000Y-153505000D03*
X241510000Y-152235000D03*
X241510000Y-150965000D03*
X241510000Y-149695000D03*
X241510000Y-148425000D03*
X241510000Y-147155000D03*
X241510000Y-145885000D03*
X241510000Y-144615000D03*
X241510000Y-143345000D03*
X241510000Y-142075000D03*
X241510000Y-140805000D03*
X241510000Y-139535000D03*
X242780000Y-189065000D03*
X242780000Y-187795000D03*
X242780000Y-186525000D03*
X242780000Y-185255000D03*
X242780000Y-183985000D03*
X242780000Y-182715000D03*
X242780000Y-181445000D03*
X242780000Y-180175000D03*
X242780000Y-178905000D03*
X242780000Y-177635000D03*
X242780000Y-176365000D03*
X242780000Y-175095000D03*
X242780000Y-173825000D03*
X242780000Y-172555000D03*
X242780000Y-171285000D03*
X242780000Y-170015000D03*
X242780000Y-168745000D03*
X242780000Y-167475000D03*
X242780000Y-166205000D03*
X242780000Y-164935000D03*
X242780000Y-163665000D03*
X242780000Y-162395000D03*
X242780000Y-161125000D03*
X242780000Y-159855000D03*
X242780000Y-158585000D03*
X242780000Y-157315000D03*
X242780000Y-156045000D03*
X242780000Y-154775000D03*
X242780000Y-153505000D03*
X242780000Y-152235000D03*
X242780000Y-150965000D03*
X242780000Y-149695000D03*
X242780000Y-148425000D03*
X242780000Y-147155000D03*
X242780000Y-145885000D03*
X242780000Y-144615000D03*
X242780000Y-143345000D03*
X242780000Y-142075000D03*
X242780000Y-140805000D03*
X242780000Y-139535000D03*
X246590000Y-189065000D03*
X246590000Y-187795000D03*
X246590000Y-186525000D03*
X246590000Y-185255000D03*
X246590000Y-183985000D03*
X246590000Y-182715000D03*
X246590000Y-181445000D03*
X246590000Y-180175000D03*
X246590000Y-178905000D03*
X246590000Y-177635000D03*
X246590000Y-176365000D03*
X246590000Y-175095000D03*
X246590000Y-173825000D03*
X246590000Y-172555000D03*
X246590000Y-171285000D03*
X246590000Y-170015000D03*
X246590000Y-168745000D03*
X246590000Y-167475000D03*
X246590000Y-166205000D03*
X246590000Y-164935000D03*
X246590000Y-163665000D03*
X246590000Y-162395000D03*
X246590000Y-161125000D03*
X246590000Y-159855000D03*
X246590000Y-158585000D03*
X246590000Y-157315000D03*
X246590000Y-156045000D03*
X246590000Y-154775000D03*
X246590000Y-153505000D03*
X246590000Y-152235000D03*
X246590000Y-150965000D03*
X246590000Y-149695000D03*
X246590000Y-148425000D03*
X246590000Y-147155000D03*
X246590000Y-145885000D03*
X246590000Y-144615000D03*
X246590000Y-143345000D03*
X246590000Y-142075000D03*
X246590000Y-140805000D03*
X246590000Y-139535000D03*
X247860000Y-189065000D03*
X247860000Y-187795000D03*
X247860000Y-186525000D03*
X247860000Y-185255000D03*
X247860000Y-183985000D03*
X247860000Y-182715000D03*
X247860000Y-181445000D03*
X247860000Y-180175000D03*
X247860000Y-178905000D03*
X247860000Y-177635000D03*
X247860000Y-176365000D03*
X247860000Y-175095000D03*
X247860000Y-173825000D03*
X247860000Y-172555000D03*
X247860000Y-171285000D03*
X247860000Y-170015000D03*
X247860000Y-168745000D03*
X247860000Y-167475000D03*
X247860000Y-166205000D03*
X247860000Y-164935000D03*
X247860000Y-163665000D03*
X247860000Y-162395000D03*
X247860000Y-161125000D03*
X247860000Y-159855000D03*
X247860000Y-158585000D03*
X247860000Y-157315000D03*
X247860000Y-156045000D03*
X247860000Y-154775000D03*
X247860000Y-153505000D03*
X247860000Y-152235000D03*
X247860000Y-150965000D03*
X247860000Y-149695000D03*
X247860000Y-148425000D03*
X247860000Y-147155000D03*
X247860000Y-145885000D03*
X247860000Y-144615000D03*
X247860000Y-143345000D03*
X247860000Y-142075000D03*
X247860000Y-140805000D03*
X247860000Y-139535000D03*
D11*
X197611999Y-109727999D03*
D12*
X195071999Y-109727999D03*
X197611999Y-112267999D03*
X195071999Y-112267999D03*
X197611999Y-114807999D03*
X195071999Y-114807999D03*
X197611999Y-117347999D03*
X195071999Y-117347999D03*
X197611999Y-119887999D03*
X195071999Y-119887999D03*
X197611999Y-122427999D03*
X195071999Y-122427999D03*
X197611999Y-124967999D03*
X195071999Y-124967999D03*
X197611999Y-127507999D03*
X195071999Y-127507999D03*
D11*
X223265999Y-109727999D03*
D12*
X220725999Y-109727999D03*
X223265999Y-112267999D03*
X220725999Y-112267999D03*
X223265999Y-114807999D03*
X220725999Y-114807999D03*
X223265999Y-117347999D03*
X220725999Y-117347999D03*
X223265999Y-119887999D03*
X220725999Y-119887999D03*
X223265999Y-122427999D03*
X220725999Y-122427999D03*
X223265999Y-124967999D03*
X220725999Y-124967999D03*
X223265999Y-127507999D03*
X220725999Y-127507999D03*
D11*
X150282285Y-74421999D03*
D12*
X147742285Y-74421999D03*
X150282285Y-76961999D03*
X147742285Y-76961999D03*
X150282285Y-79501999D03*
X147742285Y-79501999D03*
X150282285Y-82041999D03*
X147742285Y-82041999D03*
X150282285Y-84581999D03*
X147742285Y-84581999D03*
X150282285Y-87121999D03*
X147742285Y-87121999D03*
X150282285Y-89661999D03*
X147742285Y-89661999D03*
X150282285Y-92201999D03*
X147742285Y-92201999D03*
D11*
X175936285Y-74421999D03*
D12*
X173396285Y-74421999D03*
X175936285Y-76961999D03*
X173396285Y-76961999D03*
X175936285Y-79501999D03*
X173396285Y-79501999D03*
X175936285Y-82041999D03*
X173396285Y-82041999D03*
X175936285Y-84581999D03*
X173396285Y-84581999D03*
X175936285Y-87121999D03*
X173396285Y-87121999D03*
X175936285Y-89661999D03*
X173396285Y-89661999D03*
X175936285Y-92201999D03*
X173396285Y-92201999D03*
D11*
X197589139Y-180073999D03*
D12*
X195049139Y-180073999D03*
X197589139Y-182613999D03*
X195049139Y-182613999D03*
X197589139Y-185153999D03*
X195049139Y-185153999D03*
X197589139Y-187693999D03*
X195049139Y-187693999D03*
X197589139Y-190233999D03*
X195049139Y-190233999D03*
X197589139Y-192773999D03*
X195049139Y-192773999D03*
X197589139Y-195313999D03*
X195049139Y-195313999D03*
X197589139Y-197853999D03*
X195049139Y-197853999D03*
D11*
X223243139Y-180073999D03*
D12*
X220703139Y-180073999D03*
X223243139Y-182613999D03*
X220703139Y-182613999D03*
X223243139Y-185153999D03*
X220703139Y-185153999D03*
X223243139Y-187693999D03*
X220703139Y-187693999D03*
X223243139Y-190233999D03*
X220703139Y-190233999D03*
X223243139Y-192773999D03*
X220703139Y-192773999D03*
X223243139Y-195313999D03*
X220703139Y-195313999D03*
X223243139Y-197853999D03*
X220703139Y-197853999D03*
D11*
X55916359Y-109727999D03*
D12*
X53376359Y-109727999D03*
X55916359Y-112267999D03*
X53376359Y-112267999D03*
X55916359Y-114807999D03*
X53376359Y-114807999D03*
X55916359Y-117347999D03*
X53376359Y-117347999D03*
X55916359Y-119887999D03*
X53376359Y-119887999D03*
X55916359Y-122427999D03*
X53376359Y-122427999D03*
X55916359Y-124967999D03*
X53376359Y-124967999D03*
X55916359Y-127507999D03*
X53376359Y-127507999D03*
D11*
X81570359Y-109727999D03*
D12*
X79030359Y-109727999D03*
X81570359Y-112267999D03*
X79030359Y-112267999D03*
X81570359Y-114807999D03*
X79030359Y-114807999D03*
X81570359Y-117347999D03*
X79030359Y-117347999D03*
X81570359Y-119887999D03*
X79030359Y-119887999D03*
X81570359Y-122427999D03*
X79030359Y-122427999D03*
X81570359Y-124967999D03*
X79030359Y-124967999D03*
X81570359Y-127507999D03*
X79030359Y-127507999D03*
D11*
X103202572Y-109727999D03*
D12*
X100662572Y-109727999D03*
X103202572Y-112267999D03*
X100662572Y-112267999D03*
X103202572Y-114807999D03*
X100662572Y-114807999D03*
X103202572Y-117347999D03*
X100662572Y-117347999D03*
X103202572Y-119887999D03*
X100662572Y-119887999D03*
X103202572Y-122427999D03*
X100662572Y-122427999D03*
X103202572Y-124967999D03*
X100662572Y-124967999D03*
X103202572Y-127507999D03*
X100662572Y-127507999D03*
D11*
X128856572Y-109727999D03*
D12*
X126316572Y-109727999D03*
X128856572Y-112267999D03*
X126316572Y-112267999D03*
X128856572Y-114807999D03*
X126316572Y-114807999D03*
X128856572Y-117347999D03*
X126316572Y-117347999D03*
X128856572Y-119887999D03*
X126316572Y-119887999D03*
X128856572Y-122427999D03*
X126316572Y-122427999D03*
X128856572Y-124967999D03*
X126316572Y-124967999D03*
X128856572Y-127507999D03*
X126316572Y-127507999D03*
D11*
X56143499Y-144823499D03*
D12*
X53603499Y-144823499D03*
X56143499Y-147363499D03*
X53603499Y-147363499D03*
X56143499Y-149903499D03*
X53603499Y-149903499D03*
X56143499Y-152443499D03*
X53603499Y-152443499D03*
X56143499Y-154983499D03*
X53603499Y-154983499D03*
X56143499Y-157523499D03*
X53603499Y-157523499D03*
X56143499Y-160063499D03*
X53603499Y-160063499D03*
X56143499Y-162603499D03*
X53603499Y-162603499D03*
D11*
X81797499Y-144823499D03*
D12*
X79257499Y-144823499D03*
X81797499Y-147363499D03*
X79257499Y-147363499D03*
X81797499Y-149903499D03*
X79257499Y-149903499D03*
X81797499Y-152443499D03*
X79257499Y-152443499D03*
X81797499Y-154983499D03*
X79257499Y-154983499D03*
X81797499Y-157523499D03*
X79257499Y-157523499D03*
X81797499Y-160063499D03*
X79257499Y-160063499D03*
X81797499Y-162603499D03*
X79257499Y-162603499D03*
D16*
X125476000Y-260553000D03*
X125476000Y-262128000D03*
X122476000Y-260553000D03*
X122476000Y-262128000D03*
D17*
X193732500Y-262600000D03*
X192157500Y-262600000D03*
D18*
X187657500Y-262600000D03*
X189232500Y-262600000D03*
D17*
X182132500Y-262638055D03*
X180557500Y-262638055D03*
D18*
X176057500Y-262638055D03*
X177632500Y-262638055D03*
X169155000Y-262618055D03*
X170730000Y-262618055D03*
D17*
X166255000Y-262618055D03*
X164680000Y-262618055D03*
D19*
X246039999Y-211839999D03*
X247339999Y-211839999D03*
X248639999Y-211839999D03*
X246039999Y-209299999D03*
X247339999Y-209299999D03*
X248639999Y-209299999D03*
X246039999Y-221999999D03*
X247339999Y-221999999D03*
X248639999Y-221999999D03*
X246039999Y-219459999D03*
X247339999Y-219459999D03*
X248639999Y-219459999D03*
D20*
X231750000Y-211470000D03*
D21*
X239369999Y-211469999D03*
D20*
X231750000Y-221770000D03*
D21*
X239369999Y-221769999D03*
D20*
X231750000Y-231770000D03*
D21*
X239369999Y-231769999D03*
D20*
X231750000Y-207660000D03*
D21*
X239369999Y-207659999D03*
D20*
X231750000Y-217960000D03*
D21*
X239369999Y-217959999D03*
D20*
X231750000Y-227960000D03*
D21*
X239369999Y-227959999D03*
D20*
X231750000Y-238270000D03*
D21*
X239369999Y-238269999D03*
D22*
X234002500Y-253384000D03*
X234002500Y-252734000D03*
X234002500Y-252084000D03*
X234002500Y-251434000D03*
X234002500Y-250784000D03*
X234002500Y-250134000D03*
X234002500Y-249484000D03*
X234002500Y-248834000D03*
X234002500Y-248184000D03*
X234002500Y-247534000D03*
X234002500Y-246884000D03*
X234002500Y-246234000D03*
X228277500Y-246234000D03*
X228277500Y-246884000D03*
X228277500Y-247534000D03*
X228277500Y-248184000D03*
X228277500Y-248834000D03*
X228277500Y-249484000D03*
X228277500Y-250134000D03*
X228277500Y-250784000D03*
X228277500Y-251434000D03*
X228277500Y-252084000D03*
X228277500Y-252734000D03*
X228277500Y-253384000D03*
D23*
X247990000Y-257037130D03*
D24*
X247990000Y-255737130D03*
D23*
X245450000Y-257037130D03*
D24*
X245450000Y-255737130D03*
D19*
X246039999Y-232159999D03*
X247339999Y-232159999D03*
X248639999Y-232159999D03*
X246039999Y-229619999D03*
X247339999Y-229619999D03*
X248639999Y-229619999D03*
X246039999Y-242319999D03*
X247339999Y-242319999D03*
X248639999Y-242319999D03*
D20*
X231750000Y-242080000D03*
D21*
X239369999Y-242079999D03*
D25*
X53351616Y-258696919D03*
X53351616Y-257121919D03*
X48851616Y-258696919D03*
X48851616Y-257121919D03*
X57851616Y-258696919D03*
X57851616Y-257121919D03*
D20*
X239522000Y-247870000D03*
D21*
X247141999Y-247869999D03*
D20*
X239649000Y-251333000D03*
D21*
X247268999Y-251332999D03*
D26*
X174062000Y-255234000D03*
X174562000Y-255234000D03*
X175062000Y-255234000D03*
X175562000Y-255234000D03*
X176062000Y-255234000D03*
X176562000Y-255234000D03*
X177062000Y-255234000D03*
X177562000Y-255234000D03*
X178062000Y-255234000D03*
X178562000Y-255234000D03*
X179062000Y-255234000D03*
X179562000Y-255234000D03*
X180062000Y-255234000D03*
X180562000Y-255234000D03*
X181062000Y-255234000D03*
X181562000Y-255234000D03*
X182062000Y-255234000D03*
X182562000Y-255234000D03*
X183062000Y-255234000D03*
X183062000Y-249464000D03*
X182562000Y-249464000D03*
X182062000Y-249464000D03*
X181562000Y-249464000D03*
X181062000Y-249464000D03*
X180562000Y-249464000D03*
X180062000Y-249464000D03*
X179562000Y-249464000D03*
X179062000Y-249464000D03*
X178562000Y-249464000D03*
X178062000Y-249464000D03*
X177562000Y-249464000D03*
X177062000Y-249464000D03*
X176562000Y-249464000D03*
X176062000Y-249464000D03*
X175562000Y-249464000D03*
X175062000Y-249464000D03*
X174562000Y-249464000D03*
X174062000Y-249464000D03*
D27*
X178561999Y-252348999D03*
D28*
X228600000Y-255270000D03*
X230500000Y-255270000D03*
D29*
X172212000Y-249560000D03*
X172212000Y-251460000D03*
D30*
X171321500Y-246761000D03*
X172971500Y-246761000D03*
X174372000Y-259588000D03*
X176022000Y-259588000D03*
D31*
X64930116Y-258572000D03*
X62005116Y-258572000D03*
X64930116Y-261112000D03*
X62005116Y-261112000D03*
X64930116Y-263652000D03*
X62005116Y-263652000D03*
D32*
X224790000Y-252920000D03*
X224790000Y-251270000D03*
D23*
X242910000Y-257037130D03*
D24*
X242910000Y-255737130D03*
D19*
X246039999Y-239779999D03*
X247339999Y-239779999D03*
X248639999Y-239779999D03*
D13*
X34774219Y-108697297D03*
X32974219Y-110697297D03*
X26874219Y-110697297D03*
X29274219Y-108697297D03*
X38474219Y-110697297D03*
D11*
X197839139Y-144823499D03*
D12*
X195299139Y-144823499D03*
X197839139Y-147363499D03*
X195299139Y-147363499D03*
X197839139Y-149903499D03*
X195299139Y-149903499D03*
X197839139Y-152443499D03*
X195299139Y-152443499D03*
X197839139Y-154983499D03*
X195299139Y-154983499D03*
X197839139Y-157523499D03*
X195299139Y-157523499D03*
X197839139Y-160063499D03*
X195299139Y-160063499D03*
X197839139Y-162603499D03*
X195299139Y-162603499D03*
D11*
X223493139Y-144823499D03*
D12*
X220953139Y-144823499D03*
X223493139Y-147363499D03*
X220953139Y-147363499D03*
X223493139Y-149903499D03*
X220953139Y-149903499D03*
X223493139Y-152443499D03*
X220953139Y-152443499D03*
X223493139Y-154983499D03*
X220953139Y-154983499D03*
X223493139Y-157523499D03*
X220953139Y-157523499D03*
X223493139Y-160063499D03*
X220953139Y-160063499D03*
X223493139Y-162603499D03*
X220953139Y-162603499D03*
D13*
X34774219Y-132403963D03*
X32974219Y-134403963D03*
X26874219Y-134403963D03*
X29274219Y-132403963D03*
X38474219Y-134403963D03*
D33*
X155702000Y-154940000D03*
X153802000Y-154940000D03*
X61125500Y-149860000D03*
X59225500Y-149860000D03*
D11*
X213918799Y-214121999D03*
D12*
X213918799Y-216661999D03*
D34*
X223520000Y-258446000D03*
X223520000Y-260096000D03*
D33*
X108458000Y-154940000D03*
X106558000Y-154940000D03*
D11*
X229615999Y-198135999D03*
D12*
X229615999Y-200675999D03*
D11*
X241299999Y-198095999D03*
D12*
X241299999Y-200635999D03*
X243839999Y-198095999D03*
X243839999Y-200635999D03*
X246379999Y-198095999D03*
X246379999Y-200635999D03*
X248919999Y-198095999D03*
X248919999Y-200635999D03*
X251459999Y-198095999D03*
X251459999Y-200635999D03*
D33*
X202814000Y-149860000D03*
X200914000Y-149860000D03*
X60937500Y-119888000D03*
X59037500Y-119888000D03*
D35*
X139600000Y-44000000D03*
D34*
X228600000Y-258446000D03*
X228600000Y-260096000D03*
D33*
X108204000Y-119888000D03*
X106304000Y-119888000D03*
D35*
X69600000Y-151500000D03*
D33*
X202692000Y-119888000D03*
X200792000Y-119888000D03*
D34*
X226060000Y-258446000D03*
X226060000Y-260096000D03*
D36*
X203885800Y-53644800D03*
X203915800Y-45594800D03*
X250955800Y-53654800D03*
X250985800Y-45604800D03*
D37*
X210785799Y-48424799D03*
D38*
X213555800Y-48424800D03*
X216325800Y-48424800D03*
X219095800Y-48424800D03*
X221865800Y-48424800D03*
X224635800Y-48424800D03*
X227405800Y-48424800D03*
X230175800Y-48424800D03*
X232945800Y-48424800D03*
X235715800Y-48424800D03*
X238485800Y-48424800D03*
X241255800Y-48424800D03*
X244025800Y-48424800D03*
X212170800Y-45584800D03*
X214940800Y-45584800D03*
X217710800Y-45584800D03*
X220480800Y-45584800D03*
X223250800Y-45584800D03*
X226020800Y-45584800D03*
X228790800Y-45584800D03*
X231560800Y-45584800D03*
X234330800Y-45584800D03*
X237100800Y-45584800D03*
X239870800Y-45584800D03*
X242640800Y-45584800D03*
D37*
X210755799Y-55174799D03*
D38*
X213525800Y-55174800D03*
X216295800Y-55174800D03*
X219065800Y-55174800D03*
X221835800Y-55174800D03*
X224605800Y-55174800D03*
X227375800Y-55174800D03*
X230145800Y-55174800D03*
X232915800Y-55174800D03*
X235685800Y-55174800D03*
X238455800Y-55174800D03*
X241225800Y-55174800D03*
X243995800Y-55174800D03*
X212140800Y-52334800D03*
X214910800Y-52334800D03*
X217680800Y-52334800D03*
X220450800Y-52334800D03*
X223220800Y-52334800D03*
X225990800Y-52334800D03*
X228760800Y-52334800D03*
X231530800Y-52334800D03*
X234300800Y-52334800D03*
X237070800Y-52334800D03*
X239840800Y-52334800D03*
X242610800Y-52334800D03*
D11*
X213918799Y-243976573D03*
D12*
X213918799Y-246516573D03*
D33*
X155316000Y-81534000D03*
X153416000Y-81534000D03*
X155448000Y-185166000D03*
X153548000Y-185166000D03*
X202438000Y-185166000D03*
X200538000Y-185166000D03*
D11*
X211124799Y-243969999D03*
D12*
X211124799Y-246509999D03*
D33*
X155448000Y-114808000D03*
X153548000Y-114808000D03*
X202692000Y-114808000D03*
X200792000Y-114808000D03*
X61191500Y-190246000D03*
X59291500Y-190246000D03*
X155636000Y-149860000D03*
X153736000Y-149860000D03*
X60574000Y-84582000D03*
X58674000Y-84582000D03*
D36*
X28270200Y-53619400D03*
X28300200Y-45569400D03*
X75340200Y-53629400D03*
X75370200Y-45579400D03*
D37*
X35170199Y-48399399D03*
D38*
X37940200Y-48399400D03*
X40710200Y-48399400D03*
X43480200Y-48399400D03*
X46250200Y-48399400D03*
X49020200Y-48399400D03*
X51790200Y-48399400D03*
X54560200Y-48399400D03*
X57330200Y-48399400D03*
X60100200Y-48399400D03*
X62870200Y-48399400D03*
X65640200Y-48399400D03*
X68410200Y-48399400D03*
X36555200Y-45559400D03*
X39325200Y-45559400D03*
X42095200Y-45559400D03*
X44865200Y-45559400D03*
X47635200Y-45559400D03*
X50405200Y-45559400D03*
X53175200Y-45559400D03*
X55945200Y-45559400D03*
X58715200Y-45559400D03*
X61485200Y-45559400D03*
X64255200Y-45559400D03*
X67025200Y-45559400D03*
D37*
X35140199Y-55149399D03*
D38*
X37910200Y-55149400D03*
X40680200Y-55149400D03*
X43450200Y-55149400D03*
X46220200Y-55149400D03*
X48990200Y-55149400D03*
X51760200Y-55149400D03*
X54530200Y-55149400D03*
X57300200Y-55149400D03*
X60070200Y-55149400D03*
X62840200Y-55149400D03*
X65610200Y-55149400D03*
X68380200Y-55149400D03*
X36525200Y-52309400D03*
X39295200Y-52309400D03*
X42065200Y-52309400D03*
X44835200Y-52309400D03*
X47605200Y-52309400D03*
X50375200Y-52309400D03*
X53145200Y-52309400D03*
X55915200Y-52309400D03*
X58685200Y-52309400D03*
X61455200Y-52309400D03*
X64225200Y-52309400D03*
X66995200Y-52309400D03*
D33*
X108204000Y-114808000D03*
X106304000Y-114808000D03*
X202438000Y-190246000D03*
X200538000Y-190246000D03*
X108138000Y-185166000D03*
X106238000Y-185166000D03*
X202626000Y-81534000D03*
X200726000Y-81534000D03*
D36*
X86334600Y-53644800D03*
X86364600Y-45594800D03*
X133404600Y-53654800D03*
X133434600Y-45604800D03*
D37*
X93234599Y-48424799D03*
D38*
X96004600Y-48424800D03*
X98774600Y-48424800D03*
X101544600Y-48424800D03*
X104314600Y-48424800D03*
X107084600Y-48424800D03*
X109854600Y-48424800D03*
X112624600Y-48424800D03*
X115394600Y-48424800D03*
X118164600Y-48424800D03*
X120934600Y-48424800D03*
X123704600Y-48424800D03*
X126474600Y-48424800D03*
X94619600Y-45584800D03*
X97389600Y-45584800D03*
X100159600Y-45584800D03*
X102929600Y-45584800D03*
X105699600Y-45584800D03*
X108469600Y-45584800D03*
X111239600Y-45584800D03*
X114009600Y-45584800D03*
X116779600Y-45584800D03*
X119549600Y-45584800D03*
X122319600Y-45584800D03*
X125089600Y-45584800D03*
D37*
X93204599Y-55174799D03*
D38*
X95974600Y-55174800D03*
X98744600Y-55174800D03*
X101514600Y-55174800D03*
X104284600Y-55174800D03*
X107054600Y-55174800D03*
X109824600Y-55174800D03*
X112594600Y-55174800D03*
X115364600Y-55174800D03*
X118134600Y-55174800D03*
X120904600Y-55174800D03*
X123674600Y-55174800D03*
X126444600Y-55174800D03*
X94589600Y-52334800D03*
X97359600Y-52334800D03*
X100129600Y-52334800D03*
X102899600Y-52334800D03*
X105669600Y-52334800D03*
X108439600Y-52334800D03*
X111209600Y-52334800D03*
X113979600Y-52334800D03*
X116749600Y-52334800D03*
X119519600Y-52334800D03*
X122289600Y-52334800D03*
X125059600Y-52334800D03*
D33*
X60574000Y-81534000D03*
X58674000Y-81534000D03*
D11*
X205639656Y-265079843D03*
D12*
X208179656Y-265079843D03*
X210719656Y-265079843D03*
X213259656Y-265079843D03*
D33*
X155316000Y-84582000D03*
X153416000Y-84582000D03*
D35*
X31100000Y-62500000D03*
D33*
X61125500Y-154940000D03*
X59225500Y-154940000D03*
X155448000Y-190246000D03*
X153548000Y-190246000D03*
D11*
X233679999Y-198135999D03*
D12*
X233679999Y-200675999D03*
D33*
X202880000Y-154940000D03*
X200980000Y-154940000D03*
D35*
X31100000Y-261000000D03*
X248100000Y-261000000D03*
D33*
X61125500Y-185166000D03*
X59225500Y-185166000D03*
D35*
X248100000Y-62500000D03*
D11*
X214071199Y-228701599D03*
D12*
X214071199Y-231241599D03*
D35*
X139600000Y-261000000D03*
D33*
X108204000Y-190246000D03*
X106304000Y-190246000D03*
X108458000Y-149860000D03*
X106558000Y-149860000D03*
D36*
X145689800Y-53643000D03*
X145719800Y-45593000D03*
X192759800Y-53653000D03*
X192789800Y-45603000D03*
D37*
X152589799Y-48422999D03*
D38*
X155359800Y-48423000D03*
X158129800Y-48423000D03*
X160899800Y-48423000D03*
X163669800Y-48423000D03*
X166439800Y-48423000D03*
X169209800Y-48423000D03*
X171979800Y-48423000D03*
X174749800Y-48423000D03*
X177519800Y-48423000D03*
X180289800Y-48423000D03*
X183059800Y-48423000D03*
X185829800Y-48423000D03*
X153974800Y-45583000D03*
X156744800Y-45583000D03*
X159514800Y-45583000D03*
X162284800Y-45583000D03*
X165054800Y-45583000D03*
X167824800Y-45583000D03*
X170594800Y-45583000D03*
X173364800Y-45583000D03*
X176134800Y-45583000D03*
X178904800Y-45583000D03*
X181674800Y-45583000D03*
X184444800Y-45583000D03*
D37*
X152559799Y-55172999D03*
D38*
X155329800Y-55173000D03*
X158099800Y-55173000D03*
X160869800Y-55173000D03*
X163639800Y-55173000D03*
X166409800Y-55173000D03*
X169179800Y-55173000D03*
X171949800Y-55173000D03*
X174719800Y-55173000D03*
X177489800Y-55173000D03*
X180259800Y-55173000D03*
X183029800Y-55173000D03*
X185799800Y-55173000D03*
X153944800Y-52333000D03*
X156714800Y-52333000D03*
X159484800Y-52333000D03*
X162254800Y-52333000D03*
X165024800Y-52333000D03*
X167794800Y-52333000D03*
X170564800Y-52333000D03*
X173334800Y-52333000D03*
X176104800Y-52333000D03*
X178874800Y-52333000D03*
X181644800Y-52333000D03*
X184414800Y-52333000D03*
D11*
X211124799Y-214121999D03*
D12*
X211124799Y-216661999D03*
D33*
X107950000Y-81534000D03*
X106050000Y-81534000D03*
X107950000Y-84582000D03*
X106050000Y-84582000D03*
D35*
X214590000Y-151480000D03*
D33*
X155448000Y-119888000D03*
X153548000Y-119888000D03*
D11*
X211277199Y-228701599D03*
D12*
X211277199Y-231241599D03*
D33*
X60871500Y-114808000D03*
X58971500Y-114808000D03*
X202626000Y-84582000D03*
X200726000Y-84582000D03*
D14*
X247730000Y-137110000D03*
X244680000Y-191490000D03*
D20*
X146913600Y-254812800D03*
D21*
X154533599Y-254812799D03*
D11*
X49446499Y-180100999D03*
D12*
X49446499Y-182640999D03*
X49446499Y-185180999D03*
D11*
X85795359Y-109759999D03*
D12*
X85795359Y-112299999D03*
X85795359Y-114839999D03*
X85795359Y-117379999D03*
D11*
X132872859Y-74398499D03*
D12*
X132872859Y-76938499D03*
X132872859Y-79478499D03*
X132872859Y-82018499D03*
D11*
X133349999Y-144779999D03*
D12*
X133349999Y-147319999D03*
X133349999Y-149859999D03*
X133349999Y-152399999D03*
D11*
X190907859Y-109632999D03*
D12*
X190907859Y-112172999D03*
X190907859Y-114712999D03*
D11*
X227710999Y-144779999D03*
D12*
X227710999Y-147319999D03*
X227710999Y-149859999D03*
X227710999Y-152399999D03*
D11*
X85545359Y-74398499D03*
D12*
X85545359Y-76938499D03*
X85545359Y-79478499D03*
X85545359Y-82018499D03*
D11*
X96546859Y-109759999D03*
D12*
X96546859Y-112299999D03*
X96546859Y-114839999D03*
D11*
X191134999Y-144794999D03*
D12*
X191134999Y-147334999D03*
X191134999Y-149874999D03*
D11*
X227456999Y-180085999D03*
D12*
X227456999Y-182625999D03*
X227456999Y-185165999D03*
X227456999Y-187705999D03*
D11*
X96296859Y-74398499D03*
D12*
X96296859Y-76938499D03*
X96296859Y-79478499D03*
D11*
X190880999Y-180085999D03*
D12*
X190880999Y-182625999D03*
X190880999Y-185165999D03*
D11*
X180720999Y-144779999D03*
D12*
X180720999Y-147319999D03*
X180720999Y-149859999D03*
X180720999Y-152399999D03*
D11*
X133222999Y-180085999D03*
D12*
X133222999Y-182625999D03*
X133222999Y-185165999D03*
X133222999Y-187705999D03*
D11*
X49193959Y-109734599D03*
D12*
X49193959Y-112274599D03*
X49193959Y-114814599D03*
D11*
X49446499Y-144794999D03*
D12*
X49446499Y-147334999D03*
X49446499Y-149874999D03*
D11*
X143790859Y-109759999D03*
D12*
X143790859Y-112299999D03*
X143790859Y-114839999D03*
D11*
X144017999Y-144779999D03*
D12*
X144017999Y-147319999D03*
X144017999Y-149859999D03*
D11*
X143540859Y-74398499D03*
D12*
X143540859Y-76938499D03*
X143540859Y-79478499D03*
D11*
X180339999Y-180085999D03*
D12*
X180339999Y-182625999D03*
X180339999Y-185165999D03*
X180339999Y-187705999D03*
D11*
X96773999Y-144779999D03*
D12*
X96773999Y-147319999D03*
X96773999Y-149859999D03*
D11*
X86022499Y-180085999D03*
D12*
X86022499Y-182625999D03*
X86022499Y-185165999D03*
X86022499Y-187705999D03*
D11*
X190911859Y-74413499D03*
D12*
X190911859Y-76953499D03*
X190911859Y-79493499D03*
D11*
X180116859Y-74421999D03*
D12*
X180116859Y-76961999D03*
X180116859Y-79501999D03*
X180116859Y-82041999D03*
D11*
X96519999Y-180085999D03*
D12*
X96519999Y-182625999D03*
X96519999Y-185165999D03*
D11*
X133122859Y-109759999D03*
D12*
X133122859Y-112299999D03*
X133122859Y-114839999D03*
X133122859Y-117379999D03*
D11*
X48969359Y-74398499D03*
D12*
X48969359Y-76938499D03*
X48969359Y-79478499D03*
D11*
X143763999Y-180085999D03*
D12*
X143763999Y-182625999D03*
X143763999Y-185165999D03*
D11*
X227487859Y-74398499D03*
D12*
X227487859Y-76938499D03*
X227487859Y-79478499D03*
X227487859Y-82018499D03*
D11*
X227483859Y-109759999D03*
D12*
X227483859Y-112299999D03*
X227483859Y-114839999D03*
X227483859Y-117379999D03*
D11*
X86022499Y-144779999D03*
D12*
X86022499Y-147319999D03*
X86022499Y-149859999D03*
X86022499Y-152399999D03*
D11*
X180366859Y-109769999D03*
D12*
X180366859Y-112309999D03*
X180366859Y-114849999D03*
X180366859Y-117389999D03*
M02*
