<?xml version="1.0" encoding="UTF-8" standalone="no"?>
<svg
   version="1.0"
   width="984"
   height="58"
   viewBox="0 0 147.6 8.7"
   id="svg2"
   sodipodi:docname="speaker.svg"
   inkscape:version="1.3.2 (091e20ef0f, 2023-11-25, custom)"
   xmlns:inkscape="http://www.inkscape.org/namespaces/inkscape"
   xmlns:sodipodi="http://sodipodi.sourceforge.net/DTD/sodipodi-0.dtd"
   xmlns="http://www.w3.org/2000/svg"
   xmlns:svg="http://www.w3.org/2000/svg">
  <defs
     id="defs2" />
  <sodipodi:namedview
     id="namedview2"
     pagecolor="#ffffff"
     bordercolor="#000000"
     borderopacity="0.25"
     inkscape:showpageshadow="2"
     inkscape:pageopacity="0.0"
     inkscape:pagecheckerboard="0"
     inkscape:deskcolor="#d1d1d1"
     inkscape:zoom="1.1360799"
     inkscape:cx="416.78408"
     inkscape:cy="249.98242"
     inkscape:window-width="1920"
     inkscape:window-height="1008"
     inkscape:window-x="0"
     inkscape:window-y="840"
     inkscape:window-maximized="1"
     inkscape:current-layer="svg2" />
  <path
     d="M 11.574864,8.0692427 8.2389294,4.2123564 V 0.56209712 H 3.9460805 V 4.157046 L 0.56203032,8.0692427 Z"
     style="fill:#ffffff;stroke:#ffffff;stroke-width:1.12419;stroke-linejoin:round"
     id="path1" />
  <path
     d="M 23.874864,8.0692409 20.538929,4.2123543 V 0.56209499 H 16.24608 V 4.1570439 l -3.38405,3.912197 z"
     style="fill:#ffffff;stroke:#ffffff;stroke-width:1.12419;stroke-linejoin:round"
     id="path1-6" />
  <path
     d="M 36.174864,8.069243 32.838929,4.212356 V 0.56209709 H 28.54608 V 4.157046 l -3.38405,3.912197 z"
     style="fill:#ffffff;stroke:#ffffff;stroke-width:1.12419;stroke-linejoin:round"
     id="path1-7" />
  <path
     d="M 48.474864,8.069241 45.138929,4.212354 V 0.56209499 H 40.84608 V 4.157044 l -3.38405,3.912197 z"
     style="fill:#ffffff;stroke:#ffffff;stroke-width:1.12419;stroke-linejoin:round"
     id="path1-6-5" />
  <path
     d="M 60.774864,8.069243 57.438929,4.212356 V 0.56209699 H 53.14608 V 4.157046 l -3.38405,3.912197 z"
     style="fill:#ffffff;stroke:#ffffff;stroke-width:1.12419;stroke-linejoin:round"
     id="path1-3" />
  <path
     d="M 73.074864,8.069241 69.738929,4.212354 V 0.56209499 H 65.44608 V 4.157044 l -3.38405,3.912197 z"
     style="fill:#ffffff;stroke:#ffffff;stroke-width:1.12419;stroke-linejoin:round"
     id="path1-6-56" />
  <path
     d="M 85.374864,8.069243 82.038929,4.212356 V 0.56209699 H 77.74608 V 4.157046 l -3.38405,3.912197 z"
     style="fill:#ffffff;stroke:#ffffff;stroke-width:1.12419;stroke-linejoin:round"
     id="path1-7-2" />
  <path
     d="M 97.67486,8.069241 94.338929,4.212354 V 0.56209499 H 90.04608 V 4.157044 l -3.38405,3.912197 z"
     style="fill:#ffffff;stroke:#ffffff;stroke-width:1.12419;stroke-linejoin:round"
     id="path1-6-5-9" />
  <path
     d="M 110.12486,8.069243 106.78893,4.212356 V 0.56209699 h -4.29285 V 4.157046 l -3.38405,3.912197 z"
     style="fill:#ffffff;stroke:#ffffff;stroke-width:1.12419;stroke-linejoin:round"
     id="path1-1" />
  <path
     d="M 122.42486,8.069241 119.08893,4.212354 V 0.56209499 h -4.29285 V 4.157044 l -3.38405,3.912197 z"
     style="fill:#ffffff;stroke:#ffffff;stroke-width:1.12419;stroke-linejoin:round"
     id="path1-6-2" />
  <path
     d="M 134.72486,8.069243 131.38893,4.212356 V 0.56209699 h -4.29285 V 4.157046 l -3.38405,3.912197 z"
     style="fill:#ffffff;stroke:#ffffff;stroke-width:1.12419;stroke-linejoin:round"
     id="path1-7-7" />
  <path
     d="M 147.02486,8.069241 143.68893,4.212354 V 0.56209499 h -4.29285 V 4.157044 l -3.38405,3.912197 z"
     style="fill:#ffffff;stroke:#ffffff;stroke-width:1.12419;stroke-linejoin:round"
     id="path1-6-5-0" />
</svg>
