%TF.GenerationSoftware,KiCad,Pcbnew,7.0.0*%
%TF.CreationDate,2024-03-13T15:59:32+01:00*%
%TF.ProjectId,TDM_board,54444d5f-626f-4617-9264-2e6b69636164,rev?*%
%TF.SameCoordinates,Original*%
%TF.FileFunction,Soldermask,Bot*%
%TF.FilePolarity,Negative*%
%FSLAX46Y46*%
G04 Gerber Fmt 4.6, Leading zero omitted, Abs format (unit mm)*
G04 Created by KiCad (PCBNEW 7.0.0) date 2024-03-13 15:59:32*
%MOMM*%
%LPD*%
G01*
G04 APERTURE LIST*
G04 Aperture macros list*
%AMFreePoly0*
4,1,19,0.550000,-0.750000,0.000000,-0.750000,0.000000,-0.744911,-0.071157,-0.744911,-0.207708,-0.704816,-0.327430,-0.627875,-0.420627,-0.520320,-0.479746,-0.390866,-0.500000,-0.250000,-0.500000,0.250000,-0.479746,0.390866,-0.420627,0.520320,-0.327430,0.627875,-0.207708,0.704816,-0.071157,0.744911,0.000000,0.744911,0.000000,0.750000,0.550000,0.750000,0.550000,-0.750000,0.550000,-0.750000,
$1*%
%AMFreePoly1*
4,1,19,0.000000,0.744911,0.071157,0.744911,0.207708,0.704816,0.327430,0.627875,0.420627,0.520320,0.479746,0.390866,0.500000,0.250000,0.500000,-0.250000,0.479746,-0.390866,0.420627,-0.520320,0.327430,-0.627875,0.207708,-0.704816,0.071157,-0.744911,0.000000,-0.744911,0.000000,-0.750000,-0.550000,-0.750000,-0.550000,0.750000,0.000000,0.750000,0.000000,0.744911,0.000000,0.744911,
$1*%
G04 Aperture macros list end*
%ADD10C,3.301600*%
%ADD11C,1.600000*%
%ADD12O,1.600000X1.600000*%
%ADD13C,2.032000*%
%ADD14C,2.286000*%
%ADD15R,1.600000X1.600000*%
%ADD16R,1.700000X1.700000*%
%ADD17O,1.700000X1.700000*%
%ADD18C,5.000000*%
%ADD19R,3.000000X3.000000*%
%ADD20C,3.000000*%
%ADD21FreePoly0,180.000000*%
%ADD22R,1.000000X1.500000*%
%ADD23FreePoly1,180.000000*%
G04 APERTURE END LIST*
D10*
%TO.C,50*%
X92824086Y-117688858D03*
%TD*%
%TO.C,U$28*%
X179072471Y-23409154D03*
%TD*%
%TO.C,4*%
X115055240Y-23409154D03*
%TD*%
%TO.C,34*%
X100578196Y-86061920D03*
%TD*%
D11*
%TO.C,R1*%
X87630000Y-43942000D03*
D12*
X80009999Y-43941999D03*
%TD*%
D11*
%TO.C,R14*%
X136956800Y-106578400D03*
D12*
X129336799Y-106578399D03*
%TD*%
D10*
%TO.C,61*%
X208188080Y-117688858D03*
%TD*%
D13*
%TO.C, 26*%
X115454999Y-131703000D03*
X112914999Y-131703000D03*
X110374999Y-131703000D03*
X107834999Y-131703000D03*
X105294999Y-131703000D03*
X102754999Y-131703000D03*
X100214999Y-131703000D03*
%TD*%
D14*
%TO.C,X23*%
X220530731Y-87122062D03*
X224030731Y-87122062D03*
%TD*%
D11*
%TO.C,R20*%
X132904573Y-137718800D03*
D12*
X125284572Y-137718799D03*
%TD*%
D15*
%TO.C,C156*%
X102828604Y-107172299D03*
D11*
X99328605Y-107172300D03*
%TD*%
D10*
%TO.C,U$97*%
X194616211Y-86061920D03*
%TD*%
D11*
%TO.C,R5*%
X195529200Y-43942000D03*
D12*
X187909199Y-43941999D03*
%TD*%
D10*
%TO.C,U$35*%
X221750626Y-23409154D03*
%TD*%
D16*
%TO.C,JE1*%
X244355933Y-52826213D03*
D17*
X244355933Y-50286213D03*
X244355933Y-47746213D03*
X244355933Y-45206213D03*
X244355933Y-42666213D03*
X244355933Y-40126213D03*
X246895933Y-52826213D03*
X246895933Y-50286213D03*
X246895933Y-47746213D03*
X246895933Y-45206213D03*
X246895933Y-42666213D03*
X246895933Y-40126213D03*
%TD*%
D10*
%TO.C,5*%
X123694317Y-23409154D03*
%TD*%
%TO.C,*%
X59677086Y-23409154D03*
%TD*%
%TO.C,U$42*%
X53320134Y-54425634D03*
%TD*%
%TO.C,U$10*%
X59677086Y-23409154D03*
%TD*%
%TO.C,11*%
X187711548Y-23409154D03*
%TD*%
D14*
%TO.C,X14*%
X185940476Y-55485776D03*
X189440476Y-55485776D03*
%TD*%
%TO.C,X3*%
X128261231Y-24469296D03*
X131761231Y-24469296D03*
%TD*%
D10*
%TO.C,36*%
X121925799Y-86061920D03*
%TD*%
%TO.C,7*%
X145033394Y-23409154D03*
%TD*%
%TO.C,U$128*%
X199544081Y-117688858D03*
%TD*%
%TO.C,U$113*%
X101468085Y-117688858D03*
%TD*%
D15*
%TO.C,C165*%
X120339999Y-137683199D03*
D11*
X116840000Y-137683200D03*
%TD*%
%TO.C,R4*%
X173786800Y-43942000D03*
D12*
X166166799Y-43941999D03*
%TD*%
D10*
%TO.C,18*%
X87362372Y-54425634D03*
%TD*%
D15*
%TO.C,C167*%
X163011999Y-137683199D03*
D11*
X159512000Y-137683200D03*
%TD*%
D10*
%TO.C,47*%
X58780087Y-117688858D03*
%TD*%
%TO.C,U$125*%
X165500082Y-117688858D03*
%TD*%
%TO.C,U$122*%
X144156083Y-117688858D03*
%TD*%
D14*
%TO.C,X26*%
X106034999Y-118749000D03*
X109534999Y-118749000D03*
%TD*%
D16*
%TO.C,JC1*%
X244355933Y-99054213D03*
D17*
X244355933Y-96514213D03*
X244355933Y-93974213D03*
X244355933Y-91434213D03*
X244355933Y-88894213D03*
X244355933Y-86354213D03*
X246895933Y-99054213D03*
X246895933Y-96514213D03*
X246895933Y-93974213D03*
X246895933Y-91434213D03*
X246895933Y-88894213D03*
X246895933Y-86354213D03*
%TD*%
D14*
%TO.C,X4*%
X149600308Y-24469296D03*
X153100308Y-24469296D03*
%TD*%
D10*
%TO.C,48*%
X71480087Y-117688858D03*
%TD*%
D18*
%TO.C,*%
X245000000Y-138000000D03*
%TD*%
D10*
%TO.C,49*%
X80124086Y-117688858D03*
%TD*%
D14*
%TO.C,X7*%
X213617540Y-24469296D03*
X217117540Y-24469296D03*
%TD*%
D13*
%TO.C, 20*%
X165907919Y-100076062D03*
X163367919Y-100076062D03*
X160827919Y-100076062D03*
X158287919Y-100076062D03*
X155747919Y-100076062D03*
X153207919Y-100076062D03*
X150667919Y-100076062D03*
%TD*%
%TO.C, 12*%
X152676000Y-68439776D03*
X150136000Y-68439776D03*
X147596000Y-68439776D03*
X145056000Y-68439776D03*
X142516000Y-68439776D03*
X139976000Y-68439776D03*
X137436000Y-68439776D03*
%TD*%
D10*
%TO.C,23*%
X138689086Y-54425634D03*
%TD*%
%TO.C,U$92*%
X185968608Y-86061920D03*
%TD*%
D15*
%TO.C,C139*%
X74620955Y-44576999D03*
D11*
X71120956Y-44577000D03*
%TD*%
D19*
%TO.C,J100*%
X53085999Y-93725999D03*
D20*
X53086000Y-98806000D03*
%TD*%
D15*
%TO.C,C154*%
X217685619Y-75679005D03*
D11*
X214185620Y-75679006D03*
%TD*%
D10*
%TO.C,U$99*%
X228663817Y-86061920D03*
%TD*%
D15*
%TO.C,C144*%
X181391665Y-44576999D03*
D11*
X177891666Y-44577000D03*
%TD*%
%TO.C,R17*%
X201980800Y-106527600D03*
D12*
X194360799Y-106527599D03*
%TD*%
D15*
%TO.C,C157*%
X124182746Y-107172299D03*
D11*
X120682747Y-107172300D03*
%TD*%
D10*
%TO.C,U$76*%
X100578196Y-86061920D03*
%TD*%
D16*
%TO.C,JE2*%
X237235999Y-52831999D03*
D17*
X237235999Y-50291999D03*
X237235999Y-47751999D03*
X237235999Y-45211999D03*
X237235999Y-42671999D03*
X237235999Y-40131999D03*
X239775999Y-52831999D03*
X239775999Y-50291999D03*
X239775999Y-47751999D03*
X239775999Y-45211999D03*
X239775999Y-42671999D03*
X239775999Y-40131999D03*
%TD*%
D10*
%TO.C,21*%
X117346848Y-54425634D03*
%TD*%
D18*
%TO.C,*%
X53000000Y-138000000D03*
%TD*%
D10*
%TO.C,1*%
X81016163Y-23409154D03*
%TD*%
D18*
%TO.C,*%
X53000000Y-24000000D03*
%TD*%
D11*
%TO.C,R11*%
X189128400Y-74879200D03*
D12*
X181508399Y-74879199D03*
%TD*%
D10*
%TO.C,U$81*%
X109225799Y-86061920D03*
%TD*%
D14*
%TO.C,X13*%
X164598238Y-55485776D03*
X168098238Y-55485776D03*
%TD*%
D16*
%TO.C,JD1*%
X244355933Y-75940213D03*
D17*
X244355933Y-73400213D03*
X244355933Y-70860213D03*
X244355933Y-68320213D03*
X244355933Y-65780213D03*
X244355933Y-63240213D03*
X246895933Y-75940213D03*
X246895933Y-73400213D03*
X246895933Y-70860213D03*
X246895933Y-68320213D03*
X246895933Y-65780213D03*
X246895933Y-63240213D03*
%TD*%
D14*
%TO.C,X27*%
X127378998Y-118749000D03*
X130878998Y-118749000D03*
%TD*%
D10*
%TO.C,58*%
X178200082Y-117688858D03*
%TD*%
D11*
%TO.C,R19*%
X90881200Y-137718800D03*
D12*
X83261199Y-137718799D03*
%TD*%
D10*
%TO.C,25*%
X160031324Y-54425634D03*
%TD*%
D13*
%TO.C, 27*%
X136798998Y-131703000D03*
X134258998Y-131703000D03*
X131718998Y-131703000D03*
X129178998Y-131703000D03*
X126638998Y-131703000D03*
X124098998Y-131703000D03*
X121558998Y-131703000D03*
%TD*%
D10*
%TO.C,29*%
X202715804Y-54425634D03*
%TD*%
D11*
%TO.C,R23*%
X196912573Y-137718800D03*
D12*
X189292572Y-137718799D03*
%TD*%
D10*
%TO.C,59*%
X186844081Y-117688858D03*
%TD*%
D15*
%TO.C,C143*%
X160037523Y-44576999D03*
D11*
X156537524Y-44577000D03*
%TD*%
D13*
%TO.C, 18*%
X123212713Y-100076062D03*
X120672713Y-100076062D03*
X118132713Y-100076062D03*
X115592713Y-100076062D03*
X113052713Y-100076062D03*
X110512713Y-100076062D03*
X107972713Y-100076062D03*
%TD*%
D11*
%TO.C,R8*%
X123748800Y-74930000D03*
D12*
X116128799Y-74929999D03*
%TD*%
D10*
%TO.C,*%
X72377086Y-23409154D03*
%TD*%
%TO.C,37*%
X130573402Y-86061920D03*
%TD*%
D13*
%TO.C, 10*%
X109991524Y-68439776D03*
X107451524Y-68439776D03*
X104911524Y-68439776D03*
X102371524Y-68439776D03*
X99831524Y-68439776D03*
X97291524Y-68439776D03*
X94751524Y-68439776D03*
%TD*%
D10*
%TO.C,26*%
X172731324Y-54425634D03*
%TD*%
D15*
%TO.C,C142*%
X138683381Y-44576999D03*
D11*
X135183382Y-44577000D03*
%TD*%
D10*
%TO.C,U$32*%
X200411548Y-23409154D03*
%TD*%
%TO.C,17*%
X74662372Y-54425634D03*
%TD*%
D14*
%TO.C,X6*%
X192278462Y-24469296D03*
X195778462Y-24469296D03*
%TD*%
D13*
%TO.C, 21*%
X187255522Y-100076062D03*
X184715522Y-100076062D03*
X182175522Y-100076062D03*
X179635522Y-100076062D03*
X177095522Y-100076062D03*
X174555522Y-100076062D03*
X172015522Y-100076062D03*
%TD*%
D16*
%TO.C,JD2*%
X237235999Y-75945999D03*
D17*
X237235999Y-73405999D03*
X237235999Y-70865999D03*
X237235999Y-68325999D03*
X237235999Y-65785999D03*
X237235999Y-63245999D03*
X239775999Y-75945999D03*
X239775999Y-73405999D03*
X239775999Y-70865999D03*
X239775999Y-68325999D03*
X239775999Y-65785999D03*
X239775999Y-63245999D03*
%TD*%
D14*
%TO.C,X24*%
X63347001Y-118749000D03*
X66847001Y-118749000D03*
%TD*%
D10*
%TO.C,U$74*%
X66530593Y-86061920D03*
%TD*%
%TO.C,U$89*%
X164621005Y-86061920D03*
%TD*%
D15*
%TO.C,C162*%
X230603999Y-107172799D03*
D11*
X227104000Y-107172800D03*
%TD*%
D10*
%TO.C,U$41*%
X66020134Y-54425634D03*
%TD*%
%TO.C,40*%
X164621005Y-86061920D03*
%TD*%
D13*
%TO.C, 28*%
X158142997Y-131703000D03*
X155602997Y-131703000D03*
X153062997Y-131703000D03*
X150522997Y-131703000D03*
X147982997Y-131703000D03*
X145442997Y-131703000D03*
X142902997Y-131703000D03*
%TD*%
D18*
%TO.C,*%
X53000000Y-138000000D03*
%TD*%
D15*
%TO.C,C166*%
X141675999Y-137683199D03*
D11*
X138176000Y-137683200D03*
%TD*%
D10*
%TO.C,U$90*%
X151921005Y-86061920D03*
%TD*%
%TO.C,U$57*%
X151389086Y-54425634D03*
%TD*%
D13*
%TO.C, 5*%
X180359385Y-37423296D03*
X177819385Y-37423296D03*
X175279385Y-37423296D03*
X172739385Y-37423296D03*
X170199385Y-37423296D03*
X167659385Y-37423296D03*
X165119385Y-37423296D03*
%TD*%
D10*
%TO.C,U$58*%
X138689086Y-54425634D03*
%TD*%
%TO.C,2*%
X93716163Y-23409154D03*
%TD*%
D13*
%TO.C, 16*%
X80517507Y-100076062D03*
X77977507Y-100076062D03*
X75437507Y-100076062D03*
X72897507Y-100076062D03*
X70357507Y-100076062D03*
X67817507Y-100076062D03*
X65277507Y-100076062D03*
%TD*%
D15*
%TO.C,C153*%
X196331471Y-75679005D03*
D11*
X192831472Y-75679006D03*
%TD*%
D13*
%TO.C, 13*%
X174018238Y-68439776D03*
X171478238Y-68439776D03*
X168938238Y-68439776D03*
X166398238Y-68439776D03*
X163858238Y-68439776D03*
X161318238Y-68439776D03*
X158778238Y-68439776D03*
%TD*%
D10*
%TO.C,U$45*%
X74662372Y-54425634D03*
%TD*%
D11*
%TO.C,R12*%
X210566000Y-74879200D03*
D12*
X202945999Y-74879199D03*
%TD*%
D10*
%TO.C,U$116*%
X122812084Y-117688858D03*
%TD*%
%TO.C,9*%
X166372471Y-23409154D03*
%TD*%
%TO.C,U$60*%
X172731324Y-54425634D03*
%TD*%
D11*
%TO.C,R13*%
X94488000Y-106527600D03*
D12*
X86867999Y-106527599D03*
%TD*%
D14*
%TO.C,X22*%
X199183125Y-87122062D03*
X202683125Y-87122062D03*
%TD*%
D10*
%TO.C,32*%
X79230593Y-86061920D03*
%TD*%
%TO.C,U$131*%
X220888080Y-117688858D03*
%TD*%
%TO.C,U$96*%
X207316211Y-86061920D03*
%TD*%
D15*
%TO.C,C158*%
X145536888Y-107172299D03*
D11*
X142036889Y-107172300D03*
%TD*%
D14*
%TO.C,X9*%
X79229286Y-55485776D03*
X82729286Y-55485776D03*
%TD*%
D13*
%TO.C, 15*%
X216702718Y-68439776D03*
X214162718Y-68439776D03*
X211622718Y-68439776D03*
X209082718Y-68439776D03*
X206542718Y-68439776D03*
X204002718Y-68439776D03*
X201462718Y-68439776D03*
%TD*%
D15*
%TO.C,C145*%
X202745807Y-44576999D03*
D11*
X199245808Y-44577000D03*
%TD*%
D15*
%TO.C,C146*%
X224099955Y-44576999D03*
D11*
X220599956Y-44577000D03*
%TD*%
D13*
%TO.C, 22*%
X208603125Y-100076062D03*
X206063125Y-100076062D03*
X203523125Y-100076062D03*
X200983125Y-100076062D03*
X198443125Y-100076062D03*
X195903125Y-100076062D03*
X193363125Y-100076062D03*
%TD*%
D11*
%TO.C,R3*%
X151485600Y-43942000D03*
D12*
X143865599Y-43941999D03*
%TD*%
D10*
%TO.C,20*%
X108704610Y-54425634D03*
%TD*%
%TO.C,U$93*%
X173268608Y-86061920D03*
%TD*%
D15*
%TO.C,C152*%
X174977329Y-75679005D03*
D11*
X171477330Y-75679006D03*
%TD*%
D10*
%TO.C,U$61*%
X160031324Y-54425634D03*
%TD*%
D13*
%TO.C, 14*%
X195360476Y-68439776D03*
X192820476Y-68439776D03*
X190280476Y-68439776D03*
X187740476Y-68439776D03*
X185200476Y-68439776D03*
X182660476Y-68439776D03*
X180120476Y-68439776D03*
%TD*%
D10*
%TO.C,28*%
X194073562Y-54425634D03*
%TD*%
D13*
%TO.C, 29*%
X179486996Y-131703000D03*
X176946996Y-131703000D03*
X174406996Y-131703000D03*
X171866996Y-131703000D03*
X169326996Y-131703000D03*
X166786996Y-131703000D03*
X164246996Y-131703000D03*
%TD*%
D10*
%TO.C,U$29*%
X166372471Y-23409154D03*
%TD*%
%TO.C,U$52*%
X117346848Y-54425634D03*
%TD*%
D13*
%TO.C, 1*%
X95003077Y-37423296D03*
X92463077Y-37423296D03*
X89923077Y-37423296D03*
X87383077Y-37423296D03*
X84843077Y-37423296D03*
X82303077Y-37423296D03*
X79763077Y-37423296D03*
%TD*%
D10*
%TO.C,U$106*%
X58780087Y-117688858D03*
%TD*%
D14*
%TO.C,X17*%
X92445110Y-87122062D03*
X95945110Y-87122062D03*
%TD*%
D10*
%TO.C,45*%
X215963817Y-86061920D03*
%TD*%
%TO.C,U$109*%
X80124086Y-117688858D03*
%TD*%
D15*
%TO.C,C164*%
X99003999Y-137769599D03*
D11*
X95504000Y-137769600D03*
%TD*%
D14*
%TO.C,X5*%
X170939385Y-24469296D03*
X174439385Y-24469296D03*
%TD*%
D15*
%TO.C,C140*%
X95975097Y-44576999D03*
D11*
X92475098Y-44577000D03*
%TD*%
D10*
%TO.C,U$25*%
X157733394Y-23409154D03*
%TD*%
%TO.C,12*%
X200411548Y-23409154D03*
%TD*%
%TO.C,46*%
X228663817Y-86061920D03*
%TD*%
D11*
%TO.C,R10*%
X167405200Y-74930000D03*
D12*
X159785199Y-74929999D03*
%TD*%
D10*
%TO.C,U$19*%
X136394317Y-23409154D03*
%TD*%
%TO.C,U$73*%
X79230593Y-86061920D03*
%TD*%
%TO.C,35*%
X109225799Y-86061920D03*
%TD*%
%TO.C,38*%
X143273402Y-86061920D03*
%TD*%
D13*
%TO.C, 7*%
X223037540Y-37423296D03*
X220497540Y-37423296D03*
X217957540Y-37423296D03*
X215417540Y-37423296D03*
X212877540Y-37423296D03*
X210337540Y-37423296D03*
X207797540Y-37423296D03*
%TD*%
D14*
%TO.C,X1*%
X85583077Y-24469296D03*
X89083077Y-24469296D03*
%TD*%
D13*
%TO.C, 17*%
X101865110Y-100076062D03*
X99325110Y-100076062D03*
X96785110Y-100076062D03*
X94245110Y-100076062D03*
X91705110Y-100076062D03*
X89165110Y-100076062D03*
X86625110Y-100076062D03*
%TD*%
D10*
%TO.C,U$100*%
X215963817Y-86061920D03*
%TD*%
%TO.C,54*%
X135512084Y-117688858D03*
%TD*%
D11*
%TO.C,R21*%
X154240573Y-137718800D03*
D12*
X146620572Y-137718799D03*
%TD*%
D13*
%TO.C, 25*%
X94111000Y-131703000D03*
X91571000Y-131703000D03*
X89031000Y-131703000D03*
X86491000Y-131703000D03*
X83951000Y-131703000D03*
X81411000Y-131703000D03*
X78871000Y-131703000D03*
%TD*%
D11*
%TO.C,R24*%
X218248573Y-137718800D03*
D12*
X210628572Y-137718799D03*
%TD*%
D10*
%TO.C,42*%
X185968608Y-86061920D03*
%TD*%
D16*
%TO.C,JB2*%
X237235999Y-122173999D03*
D17*
X237235999Y-119633999D03*
X237235999Y-117093999D03*
X237235999Y-114553999D03*
X237235999Y-112013999D03*
X237235999Y-109473999D03*
X239775999Y-122173999D03*
X239775999Y-119633999D03*
X239775999Y-117093999D03*
X239775999Y-114553999D03*
X239775999Y-112013999D03*
X239775999Y-109473999D03*
%TD*%
D10*
%TO.C,U$112*%
X114168085Y-117688858D03*
%TD*%
D15*
%TO.C,C163*%
X77695999Y-137769599D03*
D11*
X74196000Y-137769600D03*
%TD*%
D13*
%TO.C, 24*%
X72767001Y-131703000D03*
X70227001Y-131703000D03*
X67687001Y-131703000D03*
X65147001Y-131703000D03*
X62607001Y-131703000D03*
X60067001Y-131703000D03*
X57527001Y-131703000D03*
%TD*%
D10*
%TO.C,U$108*%
X92824086Y-117688858D03*
%TD*%
D14*
%TO.C,X18*%
X113792713Y-87122062D03*
X117292713Y-87122062D03*
%TD*%
D13*
%TO.C, 2*%
X116342154Y-37423296D03*
X113802154Y-37423296D03*
X111262154Y-37423296D03*
X108722154Y-37423296D03*
X106182154Y-37423296D03*
X103642154Y-37423296D03*
X101102154Y-37423296D03*
%TD*%
D10*
%TO.C,U$80*%
X121925799Y-86061920D03*
%TD*%
%TO.C,13*%
X209050626Y-23409154D03*
%TD*%
D11*
%TO.C,R22*%
X175576573Y-137718800D03*
D12*
X167956572Y-137718799D03*
%TD*%
D15*
%TO.C,C151*%
X153623187Y-75679005D03*
D11*
X150123188Y-75679006D03*
%TD*%
D15*
%TO.C,C148*%
X89560761Y-75679005D03*
D11*
X86060762Y-75679006D03*
%TD*%
D10*
%TO.C,U$84*%
X130573402Y-86061920D03*
%TD*%
D13*
%TO.C, 11*%
X131333762Y-68439776D03*
X128793762Y-68439776D03*
X126253762Y-68439776D03*
X123713762Y-68439776D03*
X121173762Y-68439776D03*
X118633762Y-68439776D03*
X116093762Y-68439776D03*
%TD*%
D11*
%TO.C,R6*%
X216916000Y-43942000D03*
D12*
X209295999Y-43941999D03*
%TD*%
D10*
%TO.C,10*%
X179072471Y-23409154D03*
%TD*%
D14*
%TO.C,X0*%
X64244000Y-24469296D03*
X67744000Y-24469296D03*
%TD*%
D11*
%TO.C,R16*%
X180848000Y-106527600D03*
D12*
X173227999Y-106527599D03*
%TD*%
D13*
%TO.C, 3*%
X137681231Y-37423296D03*
X135141231Y-37423296D03*
X132601231Y-37423296D03*
X130061231Y-37423296D03*
X127521231Y-37423296D03*
X124981231Y-37423296D03*
X122441231Y-37423296D03*
%TD*%
D14*
%TO.C,X16*%
X71097507Y-87122062D03*
X74597507Y-87122062D03*
%TD*%
D10*
%TO.C,55*%
X144156083Y-117688858D03*
%TD*%
%TO.C,33*%
X87878196Y-86061920D03*
%TD*%
%TO.C,53*%
X122812084Y-117688858D03*
%TD*%
%TO.C,U$83*%
X143273402Y-86061920D03*
%TD*%
D11*
%TO.C,R7*%
X81280000Y-74930000D03*
D12*
X73659999Y-74929999D03*
%TD*%
D10*
%TO.C,14*%
X221750626Y-23409154D03*
%TD*%
D15*
%TO.C,C141*%
X117329239Y-44576999D03*
D11*
X113829240Y-44577000D03*
%TD*%
D10*
%TO.C,U$67*%
X215415804Y-54425634D03*
%TD*%
%TO.C,U$36*%
X209050626Y-23409154D03*
%TD*%
%TO.C,U$65*%
X181373562Y-54425634D03*
%TD*%
D16*
%TO.C,JB1*%
X244355933Y-122168213D03*
D17*
X244355933Y-119628213D03*
X244355933Y-117088213D03*
X244355933Y-114548213D03*
X244355933Y-112008213D03*
X244355933Y-109468213D03*
X246895933Y-122168213D03*
X246895933Y-119628213D03*
X246895933Y-117088213D03*
X246895933Y-114548213D03*
X246895933Y-112008213D03*
X246895933Y-109468213D03*
%TD*%
D11*
%TO.C,R2*%
X130098800Y-43942000D03*
D12*
X122478799Y-43941999D03*
%TD*%
D10*
%TO.C,60*%
X199544081Y-117688858D03*
%TD*%
%TO.C,44*%
X207316211Y-86061920D03*
%TD*%
D13*
%TO.C, 19*%
X144560316Y-100076062D03*
X142020316Y-100076062D03*
X139480316Y-100076062D03*
X136940316Y-100076062D03*
X134400316Y-100076062D03*
X131860316Y-100076062D03*
X129320316Y-100076062D03*
%TD*%
D10*
%TO.C,19*%
X96004610Y-54425634D03*
%TD*%
%TO.C,U$48*%
X108704610Y-54425634D03*
%TD*%
D15*
%TO.C,C150*%
X132269045Y-75679005D03*
D11*
X128769046Y-75679006D03*
%TD*%
D14*
%TO.C,X31*%
X212754994Y-118749000D03*
X216254994Y-118749000D03*
%TD*%
D10*
%TO.C,31*%
X66530593Y-86061920D03*
%TD*%
%TO.C,52*%
X114168085Y-117688858D03*
%TD*%
%TO.C,U$51*%
X130046848Y-54425634D03*
%TD*%
D11*
%TO.C,R9*%
X145135600Y-74879200D03*
D12*
X137515599Y-74879199D03*
%TD*%
D14*
%TO.C,X30*%
X191410995Y-118749000D03*
X194910995Y-118749000D03*
%TD*%
D10*
%TO.C,U$64*%
X194073562Y-54425634D03*
%TD*%
%TO.C,41*%
X173268608Y-86061920D03*
%TD*%
%TO.C,56*%
X156856083Y-117688858D03*
%TD*%
%TO.C,39*%
X151921005Y-86061920D03*
%TD*%
%TO.C,U$20*%
X123694317Y-23409154D03*
%TD*%
%TO.C,U$33*%
X187711548Y-23409154D03*
%TD*%
%TO.C,U$129*%
X186844081Y-117688858D03*
%TD*%
%TO.C,6*%
X136394317Y-23409154D03*
%TD*%
D15*
%TO.C,C170*%
X226821999Y-137683199D03*
D11*
X223322000Y-137683200D03*
%TD*%
D10*
%TO.C,U$105*%
X71480087Y-117688858D03*
%TD*%
D11*
%TO.C,R15*%
X158394400Y-106476800D03*
D12*
X150774399Y-106476799D03*
%TD*%
D10*
%TO.C,8*%
X157733394Y-23409154D03*
%TD*%
%TO.C,43*%
X194616211Y-86061920D03*
%TD*%
D18*
%TO.C,REF\u002A\u002A*%
X245000000Y-24000000D03*
%TD*%
D10*
%TO.C,16*%
X66020134Y-54425634D03*
%TD*%
D15*
%TO.C,C161*%
X209599314Y-107172299D03*
D11*
X206099315Y-107172300D03*
%TD*%
D13*
%TO.C, 8*%
X67307048Y-68439776D03*
X64767048Y-68439776D03*
X62227048Y-68439776D03*
X59687048Y-68439776D03*
X57147048Y-68439776D03*
X54607048Y-68439776D03*
X52067048Y-68439776D03*
%TD*%
D10*
%TO.C,U$13*%
X81016163Y-23409154D03*
%TD*%
D14*
%TO.C,X28*%
X148722997Y-118749000D03*
X152222997Y-118749000D03*
%TD*%
%TO.C,X25*%
X84691000Y-118749000D03*
X88191000Y-118749000D03*
%TD*%
D13*
%TO.C, 4*%
X159020308Y-37423296D03*
X156480308Y-37423296D03*
X153940308Y-37423296D03*
X151400308Y-37423296D03*
X148860308Y-37423296D03*
X146320308Y-37423296D03*
X143780308Y-37423296D03*
%TD*%
D15*
%TO.C,C159*%
X166891030Y-107172299D03*
D11*
X163391031Y-107172300D03*
%TD*%
D15*
%TO.C,C155*%
X81474462Y-107172299D03*
D11*
X77974463Y-107172300D03*
%TD*%
D15*
%TO.C,C160*%
X188245172Y-107172299D03*
D11*
X184745173Y-107172300D03*
%TD*%
D10*
%TO.C,U$16*%
X115055240Y-23409154D03*
%TD*%
%TO.C,U$68*%
X202715804Y-54425634D03*
%TD*%
D13*
%TO.C, 23*%
X229950731Y-100076062D03*
X227410731Y-100076062D03*
X224870731Y-100076062D03*
X222330731Y-100076062D03*
X219790731Y-100076062D03*
X217250731Y-100076062D03*
X214710731Y-100076062D03*
%TD*%
D14*
%TO.C,X15*%
X207282718Y-55485776D03*
X210782718Y-55485776D03*
%TD*%
D10*
%TO.C,U$121*%
X156856083Y-117688858D03*
%TD*%
D15*
%TO.C,C169*%
X205485999Y-137683199D03*
D11*
X201986000Y-137683200D03*
%TD*%
D13*
%TO.C, 9*%
X88649286Y-68439776D03*
X86109286Y-68439776D03*
X83569286Y-68439776D03*
X81029286Y-68439776D03*
X78489286Y-68439776D03*
X75949286Y-68439776D03*
X73409286Y-68439776D03*
%TD*%
D18*
%TO.C,*%
X245000000Y-81000000D03*
%TD*%
D14*
%TO.C,X8*%
X57887048Y-55485776D03*
X61387048Y-55485776D03*
%TD*%
%TO.C,X2*%
X106922154Y-24469296D03*
X110422154Y-24469296D03*
%TD*%
D10*
%TO.C,U$9*%
X72377086Y-23409154D03*
%TD*%
%TO.C,62*%
X220888080Y-117688858D03*
%TD*%
%TO.C,3*%
X102355240Y-23409154D03*
%TD*%
%TO.C,U$115*%
X135512084Y-117688858D03*
%TD*%
%TO.C,15*%
X53320134Y-54425634D03*
%TD*%
D13*
%TO.C, 30*%
X200830995Y-131703000D03*
X198290995Y-131703000D03*
X195750995Y-131703000D03*
X193210995Y-131703000D03*
X190670995Y-131703000D03*
X188130995Y-131703000D03*
X185590995Y-131703000D03*
%TD*%
D14*
%TO.C,X11*%
X121913762Y-55485776D03*
X125413762Y-55485776D03*
%TD*%
%TO.C,X12*%
X143256000Y-55485776D03*
X146756000Y-55485776D03*
%TD*%
D10*
%TO.C,U$17*%
X102355240Y-23409154D03*
%TD*%
D14*
%TO.C,X20*%
X156487919Y-87122062D03*
X159987919Y-87122062D03*
%TD*%
D15*
%TO.C,C149*%
X110914903Y-75679005D03*
D11*
X107414904Y-75679006D03*
%TD*%
D13*
%TO.C, 31*%
X222174994Y-131703000D03*
X219634994Y-131703000D03*
X217094994Y-131703000D03*
X214554994Y-131703000D03*
X212014994Y-131703000D03*
X209474994Y-131703000D03*
X206934994Y-131703000D03*
%TD*%
D10*
%TO.C,U$26*%
X145033394Y-23409154D03*
%TD*%
%TO.C,U$132*%
X208188080Y-117688858D03*
%TD*%
D14*
%TO.C,X29*%
X170066996Y-118749000D03*
X173566996Y-118749000D03*
%TD*%
D10*
%TO.C,30*%
X215415804Y-54425634D03*
%TD*%
D14*
%TO.C,X10*%
X100571524Y-55485776D03*
X104071524Y-55485776D03*
%TD*%
D10*
%TO.C,U$44*%
X87362372Y-54425634D03*
%TD*%
D18*
%TO.C,*%
X53000000Y-81000000D03*
%TD*%
D10*
%TO.C,24*%
X151389086Y-54425634D03*
%TD*%
D14*
%TO.C,X19*%
X135140316Y-87122062D03*
X138640316Y-87122062D03*
%TD*%
D10*
%TO.C,27*%
X181373562Y-54425634D03*
%TD*%
%TO.C,U$49*%
X96004610Y-54425634D03*
%TD*%
D14*
%TO.C,X21*%
X177835522Y-87122062D03*
X181335522Y-87122062D03*
%TD*%
D13*
%TO.C, 0*%
X73664000Y-37423296D03*
X71124000Y-37423296D03*
X68584000Y-37423296D03*
X66044000Y-37423296D03*
X63504000Y-37423296D03*
X60964000Y-37423296D03*
X58424000Y-37423296D03*
%TD*%
D10*
%TO.C,U$12*%
X93716163Y-23409154D03*
%TD*%
D16*
%TO.C,JC2*%
X237235999Y-99059999D03*
D17*
X237235999Y-96519999D03*
X237235999Y-93979999D03*
X237235999Y-91439999D03*
X237235999Y-88899999D03*
X237235999Y-86359999D03*
X239775999Y-99059999D03*
X239775999Y-96519999D03*
X239775999Y-93979999D03*
X239775999Y-91439999D03*
X239775999Y-88899999D03*
X239775999Y-86359999D03*
%TD*%
D15*
%TO.C,C168*%
X184149999Y-137683199D03*
D11*
X180650000Y-137683200D03*
%TD*%
D10*
%TO.C,51*%
X101468085Y-117688858D03*
%TD*%
%TO.C,U$77*%
X87878196Y-86061920D03*
%TD*%
%TO.C,22*%
X130046848Y-54425634D03*
%TD*%
D13*
%TO.C, 6*%
X201698462Y-37423296D03*
X199158462Y-37423296D03*
X196618462Y-37423296D03*
X194078462Y-37423296D03*
X191538462Y-37423296D03*
X188998462Y-37423296D03*
X186458462Y-37423296D03*
%TD*%
D10*
%TO.C,57*%
X165500082Y-117688858D03*
%TD*%
D11*
%TO.C,R18*%
X223367600Y-106578400D03*
D12*
X215747599Y-106578399D03*
%TD*%
D15*
%TO.C,C147*%
X68206619Y-75679005D03*
D11*
X64706620Y-75679006D03*
%TD*%
D10*
%TO.C,U$124*%
X178200082Y-117688858D03*
%TD*%
D21*
%TO.C,JP2*%
X229822466Y-56232572D03*
D22*
X228522465Y-56232571D03*
D23*
X227222466Y-56232572D03*
%TD*%
D21*
%TO.C,JP3*%
X229822466Y-52397572D03*
D22*
X228522465Y-52397571D03*
D23*
X227222466Y-52397572D03*
%TD*%
D21*
%TO.C,JP1*%
X229822466Y-60067572D03*
D22*
X228522465Y-60067571D03*
D23*
X227222466Y-60067572D03*
%TD*%
D21*
%TO.C,JP6*%
X229822466Y-72644000D03*
D22*
X228522465Y-72643999D03*
D23*
X227222466Y-72644000D03*
%TD*%
D21*
%TO.C,JP4*%
X229822466Y-48562572D03*
D22*
X228522465Y-48562571D03*
D23*
X227222466Y-48562572D03*
%TD*%
D21*
%TO.C,JP5*%
X229822466Y-76479000D03*
D22*
X228522465Y-76478999D03*
D23*
X227222466Y-76479000D03*
%TD*%
M02*
