%TF.GenerationSoftware,KiCad,Pcbnew,7.0.0*%
%TF.CreationDate,2024-03-13T15:59:32+01:00*%
%TF.ProjectId,TDM_board,54444d5f-626f-4617-9264-2e6b69636164,rev?*%
%TF.SameCoordinates,Original*%
%TF.FileFunction,Soldermask,Top*%
%TF.FilePolarity,Negative*%
%FSLAX46Y46*%
G04 Gerber Fmt 4.6, Leading zero omitted, Abs format (unit mm)*
G04 Created by KiCad (PCBNEW 7.0.0) date 2024-03-13 15:59:32*
%MOMM*%
%LPD*%
G01*
G04 APERTURE LIST*
G04 Aperture macros list*
%AMRoundRect*
0 Rectangle with rounded corners*
0 $1 Rounding radius*
0 $2 $3 $4 $5 $6 $7 $8 $9 X,Y pos of 4 corners*
0 Add a 4 corners polygon primitive as box body*
4,1,4,$2,$3,$4,$5,$6,$7,$8,$9,$2,$3,0*
0 Add four circle primitives for the rounded corners*
1,1,$1+$1,$2,$3*
1,1,$1+$1,$4,$5*
1,1,$1+$1,$6,$7*
1,1,$1+$1,$8,$9*
0 Add four rect primitives between the rounded corners*
20,1,$1+$1,$2,$3,$4,$5,0*
20,1,$1+$1,$4,$5,$6,$7,0*
20,1,$1+$1,$6,$7,$8,$9,0*
20,1,$1+$1,$8,$9,$2,$3,0*%
G04 Aperture macros list end*
%ADD10C,3.301600*%
%ADD11C,1.600000*%
%ADD12O,1.600000X1.600000*%
%ADD13RoundRect,0.050800X0.620000X0.750000X-0.620000X0.750000X-0.620000X-0.750000X0.620000X-0.750000X0*%
%ADD14RoundRect,0.050800X-0.620000X-0.750000X0.620000X-0.750000X0.620000X0.750000X-0.620000X0.750000X0*%
%ADD15C,2.032000*%
%ADD16C,2.286000*%
%ADD17RoundRect,0.050800X0.750000X-0.750000X0.750000X0.750000X-0.750000X0.750000X-0.750000X-0.750000X0*%
%ADD18RoundRect,0.250000X-0.650000X0.325000X-0.650000X-0.325000X0.650000X-0.325000X0.650000X0.325000X0*%
%ADD19RoundRect,0.050800X0.750000X-0.620000X0.750000X0.620000X-0.750000X0.620000X-0.750000X-0.620000X0*%
%ADD20R,1.600000X1.600000*%
%ADD21R,1.700000X1.700000*%
%ADD22O,1.700000X1.700000*%
%ADD23C,5.000000*%
%ADD24RoundRect,0.250000X0.650000X-0.325000X0.650000X0.325000X-0.650000X0.325000X-0.650000X-0.325000X0*%
%ADD25R,3.000000X3.000000*%
%ADD26C,3.000000*%
%ADD27RoundRect,0.250000X0.312500X0.625000X-0.312500X0.625000X-0.312500X-0.625000X0.312500X-0.625000X0*%
%ADD28RoundRect,0.250000X0.625000X-0.312500X0.625000X0.312500X-0.625000X0.312500X-0.625000X-0.312500X0*%
%ADD29RoundRect,0.250000X0.325000X0.650000X-0.325000X0.650000X-0.325000X-0.650000X0.325000X-0.650000X0*%
%ADD30RoundRect,0.250000X-0.625000X0.312500X-0.625000X-0.312500X0.625000X-0.312500X0.625000X0.312500X0*%
%ADD31R,0.700000X1.550000*%
G04 APERTURE END LIST*
%TO.C,U21*%
G36*
X157712919Y-96936062D02*
G01*
X157362919Y-96936062D01*
X157362919Y-96056062D01*
X157712919Y-96056062D01*
X157712919Y-96936062D01*
G37*
G36*
X158212919Y-96936062D02*
G01*
X157862919Y-96936062D01*
X157862919Y-96056062D01*
X158212919Y-96056062D01*
X158212919Y-96936062D01*
G37*
G36*
X158712919Y-96936062D02*
G01*
X158362919Y-96936062D01*
X158362919Y-96056062D01*
X158712919Y-96056062D01*
X158712919Y-96936062D01*
G37*
G36*
X159212919Y-96936062D02*
G01*
X158862919Y-96936062D01*
X158862919Y-96056062D01*
X159212919Y-96056062D01*
X159212919Y-96936062D01*
G37*
G36*
X157227919Y-95921062D02*
G01*
X156347919Y-95921062D01*
X156347919Y-95571062D01*
X157227919Y-95571062D01*
X157227919Y-95921062D01*
G37*
G36*
X160227919Y-95921062D02*
G01*
X159347919Y-95921062D01*
X159347919Y-95571062D01*
X160227919Y-95571062D01*
X160227919Y-95921062D01*
G37*
G36*
X157227919Y-95421062D02*
G01*
X156347919Y-95421062D01*
X156347919Y-95071062D01*
X157227919Y-95071062D01*
X157227919Y-95421062D01*
G37*
G36*
X160227919Y-95421062D02*
G01*
X159347919Y-95421062D01*
X159347919Y-95071062D01*
X160227919Y-95071062D01*
X160227919Y-95421062D01*
G37*
G36*
X157227919Y-94921062D02*
G01*
X156347919Y-94921062D01*
X156347919Y-94571062D01*
X157227919Y-94571062D01*
X157227919Y-94921062D01*
G37*
G36*
X160227919Y-94921062D02*
G01*
X159347919Y-94921062D01*
X159347919Y-94571062D01*
X160227919Y-94571062D01*
X160227919Y-94921062D01*
G37*
G36*
X157227919Y-94421062D02*
G01*
X156347919Y-94421062D01*
X156347919Y-94071062D01*
X157227919Y-94071062D01*
X157227919Y-94421062D01*
G37*
G36*
X160227919Y-94421062D02*
G01*
X159347919Y-94421062D01*
X159347919Y-94071062D01*
X160227919Y-94071062D01*
X160227919Y-94421062D01*
G37*
G36*
X157712919Y-93936062D02*
G01*
X157362919Y-93936062D01*
X157362919Y-93056062D01*
X157712919Y-93056062D01*
X157712919Y-93936062D01*
G37*
G36*
X158212919Y-93936062D02*
G01*
X157862919Y-93936062D01*
X157862919Y-93056062D01*
X158212919Y-93056062D01*
X158212919Y-93936062D01*
G37*
G36*
X158712919Y-93936062D02*
G01*
X158362919Y-93936062D01*
X158362919Y-93056062D01*
X158712919Y-93056062D01*
X158712919Y-93936062D01*
G37*
G36*
X159212919Y-93936062D02*
G01*
X158862919Y-93936062D01*
X158862919Y-93056062D01*
X159212919Y-93056062D01*
X159212919Y-93936062D01*
G37*
%TO.C,U19*%
G36*
X115017713Y-96936062D02*
G01*
X114667713Y-96936062D01*
X114667713Y-96056062D01*
X115017713Y-96056062D01*
X115017713Y-96936062D01*
G37*
G36*
X115517713Y-96936062D02*
G01*
X115167713Y-96936062D01*
X115167713Y-96056062D01*
X115517713Y-96056062D01*
X115517713Y-96936062D01*
G37*
G36*
X116017713Y-96936062D02*
G01*
X115667713Y-96936062D01*
X115667713Y-96056062D01*
X116017713Y-96056062D01*
X116017713Y-96936062D01*
G37*
G36*
X116517713Y-96936062D02*
G01*
X116167713Y-96936062D01*
X116167713Y-96056062D01*
X116517713Y-96056062D01*
X116517713Y-96936062D01*
G37*
G36*
X114532713Y-95921062D02*
G01*
X113652713Y-95921062D01*
X113652713Y-95571062D01*
X114532713Y-95571062D01*
X114532713Y-95921062D01*
G37*
G36*
X117532713Y-95921062D02*
G01*
X116652713Y-95921062D01*
X116652713Y-95571062D01*
X117532713Y-95571062D01*
X117532713Y-95921062D01*
G37*
G36*
X114532713Y-95421062D02*
G01*
X113652713Y-95421062D01*
X113652713Y-95071062D01*
X114532713Y-95071062D01*
X114532713Y-95421062D01*
G37*
G36*
X117532713Y-95421062D02*
G01*
X116652713Y-95421062D01*
X116652713Y-95071062D01*
X117532713Y-95071062D01*
X117532713Y-95421062D01*
G37*
G36*
X114532713Y-94921062D02*
G01*
X113652713Y-94921062D01*
X113652713Y-94571062D01*
X114532713Y-94571062D01*
X114532713Y-94921062D01*
G37*
G36*
X117532713Y-94921062D02*
G01*
X116652713Y-94921062D01*
X116652713Y-94571062D01*
X117532713Y-94571062D01*
X117532713Y-94921062D01*
G37*
G36*
X114532713Y-94421062D02*
G01*
X113652713Y-94421062D01*
X113652713Y-94071062D01*
X114532713Y-94071062D01*
X114532713Y-94421062D01*
G37*
G36*
X117532713Y-94421062D02*
G01*
X116652713Y-94421062D01*
X116652713Y-94071062D01*
X117532713Y-94071062D01*
X117532713Y-94421062D01*
G37*
G36*
X115017713Y-93936062D02*
G01*
X114667713Y-93936062D01*
X114667713Y-93056062D01*
X115017713Y-93056062D01*
X115017713Y-93936062D01*
G37*
G36*
X115517713Y-93936062D02*
G01*
X115167713Y-93936062D01*
X115167713Y-93056062D01*
X115517713Y-93056062D01*
X115517713Y-93936062D01*
G37*
G36*
X116017713Y-93936062D02*
G01*
X115667713Y-93936062D01*
X115667713Y-93056062D01*
X116017713Y-93056062D01*
X116017713Y-93936062D01*
G37*
G36*
X116517713Y-93936062D02*
G01*
X116167713Y-93936062D01*
X116167713Y-93056062D01*
X116517713Y-93056062D01*
X116517713Y-93936062D01*
G37*
%TO.C,U18*%
G36*
X93670110Y-96936062D02*
G01*
X93320110Y-96936062D01*
X93320110Y-96056062D01*
X93670110Y-96056062D01*
X93670110Y-96936062D01*
G37*
G36*
X94170110Y-96936062D02*
G01*
X93820110Y-96936062D01*
X93820110Y-96056062D01*
X94170110Y-96056062D01*
X94170110Y-96936062D01*
G37*
G36*
X94670110Y-96936062D02*
G01*
X94320110Y-96936062D01*
X94320110Y-96056062D01*
X94670110Y-96056062D01*
X94670110Y-96936062D01*
G37*
G36*
X95170110Y-96936062D02*
G01*
X94820110Y-96936062D01*
X94820110Y-96056062D01*
X95170110Y-96056062D01*
X95170110Y-96936062D01*
G37*
G36*
X93185110Y-95921062D02*
G01*
X92305110Y-95921062D01*
X92305110Y-95571062D01*
X93185110Y-95571062D01*
X93185110Y-95921062D01*
G37*
G36*
X96185110Y-95921062D02*
G01*
X95305110Y-95921062D01*
X95305110Y-95571062D01*
X96185110Y-95571062D01*
X96185110Y-95921062D01*
G37*
G36*
X93185110Y-95421062D02*
G01*
X92305110Y-95421062D01*
X92305110Y-95071062D01*
X93185110Y-95071062D01*
X93185110Y-95421062D01*
G37*
G36*
X96185110Y-95421062D02*
G01*
X95305110Y-95421062D01*
X95305110Y-95071062D01*
X96185110Y-95071062D01*
X96185110Y-95421062D01*
G37*
G36*
X93185110Y-94921062D02*
G01*
X92305110Y-94921062D01*
X92305110Y-94571062D01*
X93185110Y-94571062D01*
X93185110Y-94921062D01*
G37*
G36*
X96185110Y-94921062D02*
G01*
X95305110Y-94921062D01*
X95305110Y-94571062D01*
X96185110Y-94571062D01*
X96185110Y-94921062D01*
G37*
G36*
X93185110Y-94421062D02*
G01*
X92305110Y-94421062D01*
X92305110Y-94071062D01*
X93185110Y-94071062D01*
X93185110Y-94421062D01*
G37*
G36*
X96185110Y-94421062D02*
G01*
X95305110Y-94421062D01*
X95305110Y-94071062D01*
X96185110Y-94071062D01*
X96185110Y-94421062D01*
G37*
G36*
X93670110Y-93936062D02*
G01*
X93320110Y-93936062D01*
X93320110Y-93056062D01*
X93670110Y-93056062D01*
X93670110Y-93936062D01*
G37*
G36*
X94170110Y-93936062D02*
G01*
X93820110Y-93936062D01*
X93820110Y-93056062D01*
X94170110Y-93056062D01*
X94170110Y-93936062D01*
G37*
G36*
X94670110Y-93936062D02*
G01*
X94320110Y-93936062D01*
X94320110Y-93056062D01*
X94670110Y-93056062D01*
X94670110Y-93936062D01*
G37*
G36*
X95170110Y-93936062D02*
G01*
X94820110Y-93936062D01*
X94820110Y-93056062D01*
X95170110Y-93056062D01*
X95170110Y-93936062D01*
G37*
%TO.C,U2*%
G36*
X86808077Y-34283296D02*
G01*
X86458077Y-34283296D01*
X86458077Y-33403296D01*
X86808077Y-33403296D01*
X86808077Y-34283296D01*
G37*
G36*
X87308077Y-34283296D02*
G01*
X86958077Y-34283296D01*
X86958077Y-33403296D01*
X87308077Y-33403296D01*
X87308077Y-34283296D01*
G37*
G36*
X87808077Y-34283296D02*
G01*
X87458077Y-34283296D01*
X87458077Y-33403296D01*
X87808077Y-33403296D01*
X87808077Y-34283296D01*
G37*
G36*
X88308077Y-34283296D02*
G01*
X87958077Y-34283296D01*
X87958077Y-33403296D01*
X88308077Y-33403296D01*
X88308077Y-34283296D01*
G37*
G36*
X86323077Y-33268296D02*
G01*
X85443077Y-33268296D01*
X85443077Y-32918296D01*
X86323077Y-32918296D01*
X86323077Y-33268296D01*
G37*
G36*
X89323077Y-33268296D02*
G01*
X88443077Y-33268296D01*
X88443077Y-32918296D01*
X89323077Y-32918296D01*
X89323077Y-33268296D01*
G37*
G36*
X86323077Y-32768296D02*
G01*
X85443077Y-32768296D01*
X85443077Y-32418296D01*
X86323077Y-32418296D01*
X86323077Y-32768296D01*
G37*
G36*
X89323077Y-32768296D02*
G01*
X88443077Y-32768296D01*
X88443077Y-32418296D01*
X89323077Y-32418296D01*
X89323077Y-32768296D01*
G37*
G36*
X86323077Y-32268296D02*
G01*
X85443077Y-32268296D01*
X85443077Y-31918296D01*
X86323077Y-31918296D01*
X86323077Y-32268296D01*
G37*
G36*
X89323077Y-32268296D02*
G01*
X88443077Y-32268296D01*
X88443077Y-31918296D01*
X89323077Y-31918296D01*
X89323077Y-32268296D01*
G37*
G36*
X86323077Y-31768296D02*
G01*
X85443077Y-31768296D01*
X85443077Y-31418296D01*
X86323077Y-31418296D01*
X86323077Y-31768296D01*
G37*
G36*
X89323077Y-31768296D02*
G01*
X88443077Y-31768296D01*
X88443077Y-31418296D01*
X89323077Y-31418296D01*
X89323077Y-31768296D01*
G37*
G36*
X86808077Y-31283296D02*
G01*
X86458077Y-31283296D01*
X86458077Y-30403296D01*
X86808077Y-30403296D01*
X86808077Y-31283296D01*
G37*
G36*
X87308077Y-31283296D02*
G01*
X86958077Y-31283296D01*
X86958077Y-30403296D01*
X87308077Y-30403296D01*
X87308077Y-31283296D01*
G37*
G36*
X87808077Y-31283296D02*
G01*
X87458077Y-31283296D01*
X87458077Y-30403296D01*
X87808077Y-30403296D01*
X87808077Y-31283296D01*
G37*
G36*
X88308077Y-31283296D02*
G01*
X87958077Y-31283296D01*
X87958077Y-30403296D01*
X88308077Y-30403296D01*
X88308077Y-31283296D01*
G37*
%TO.C,U32*%
G36*
X213979994Y-128563000D02*
G01*
X213629994Y-128563000D01*
X213629994Y-127683000D01*
X213979994Y-127683000D01*
X213979994Y-128563000D01*
G37*
G36*
X214479994Y-128563000D02*
G01*
X214129994Y-128563000D01*
X214129994Y-127683000D01*
X214479994Y-127683000D01*
X214479994Y-128563000D01*
G37*
G36*
X214979994Y-128563000D02*
G01*
X214629994Y-128563000D01*
X214629994Y-127683000D01*
X214979994Y-127683000D01*
X214979994Y-128563000D01*
G37*
G36*
X215479994Y-128563000D02*
G01*
X215129994Y-128563000D01*
X215129994Y-127683000D01*
X215479994Y-127683000D01*
X215479994Y-128563000D01*
G37*
G36*
X213494994Y-127548000D02*
G01*
X212614994Y-127548000D01*
X212614994Y-127198000D01*
X213494994Y-127198000D01*
X213494994Y-127548000D01*
G37*
G36*
X216494994Y-127548000D02*
G01*
X215614994Y-127548000D01*
X215614994Y-127198000D01*
X216494994Y-127198000D01*
X216494994Y-127548000D01*
G37*
G36*
X213494994Y-127048000D02*
G01*
X212614994Y-127048000D01*
X212614994Y-126698000D01*
X213494994Y-126698000D01*
X213494994Y-127048000D01*
G37*
G36*
X216494994Y-127048000D02*
G01*
X215614994Y-127048000D01*
X215614994Y-126698000D01*
X216494994Y-126698000D01*
X216494994Y-127048000D01*
G37*
G36*
X213494994Y-126548000D02*
G01*
X212614994Y-126548000D01*
X212614994Y-126198000D01*
X213494994Y-126198000D01*
X213494994Y-126548000D01*
G37*
G36*
X216494994Y-126548000D02*
G01*
X215614994Y-126548000D01*
X215614994Y-126198000D01*
X216494994Y-126198000D01*
X216494994Y-126548000D01*
G37*
G36*
X213494994Y-126048000D02*
G01*
X212614994Y-126048000D01*
X212614994Y-125698000D01*
X213494994Y-125698000D01*
X213494994Y-126048000D01*
G37*
G36*
X216494994Y-126048000D02*
G01*
X215614994Y-126048000D01*
X215614994Y-125698000D01*
X216494994Y-125698000D01*
X216494994Y-126048000D01*
G37*
G36*
X213979994Y-125563000D02*
G01*
X213629994Y-125563000D01*
X213629994Y-124683000D01*
X213979994Y-124683000D01*
X213979994Y-125563000D01*
G37*
G36*
X214479994Y-125563000D02*
G01*
X214129994Y-125563000D01*
X214129994Y-124683000D01*
X214479994Y-124683000D01*
X214479994Y-125563000D01*
G37*
G36*
X214979994Y-125563000D02*
G01*
X214629994Y-125563000D01*
X214629994Y-124683000D01*
X214979994Y-124683000D01*
X214979994Y-125563000D01*
G37*
G36*
X215479994Y-125563000D02*
G01*
X215129994Y-125563000D01*
X215129994Y-124683000D01*
X215479994Y-124683000D01*
X215479994Y-125563000D01*
G37*
%TO.C,U14*%
G36*
X165823238Y-65299776D02*
G01*
X165473238Y-65299776D01*
X165473238Y-64419776D01*
X165823238Y-64419776D01*
X165823238Y-65299776D01*
G37*
G36*
X166323238Y-65299776D02*
G01*
X165973238Y-65299776D01*
X165973238Y-64419776D01*
X166323238Y-64419776D01*
X166323238Y-65299776D01*
G37*
G36*
X166823238Y-65299776D02*
G01*
X166473238Y-65299776D01*
X166473238Y-64419776D01*
X166823238Y-64419776D01*
X166823238Y-65299776D01*
G37*
G36*
X167323238Y-65299776D02*
G01*
X166973238Y-65299776D01*
X166973238Y-64419776D01*
X167323238Y-64419776D01*
X167323238Y-65299776D01*
G37*
G36*
X165338238Y-64284776D02*
G01*
X164458238Y-64284776D01*
X164458238Y-63934776D01*
X165338238Y-63934776D01*
X165338238Y-64284776D01*
G37*
G36*
X168338238Y-64284776D02*
G01*
X167458238Y-64284776D01*
X167458238Y-63934776D01*
X168338238Y-63934776D01*
X168338238Y-64284776D01*
G37*
G36*
X165338238Y-63784776D02*
G01*
X164458238Y-63784776D01*
X164458238Y-63434776D01*
X165338238Y-63434776D01*
X165338238Y-63784776D01*
G37*
G36*
X168338238Y-63784776D02*
G01*
X167458238Y-63784776D01*
X167458238Y-63434776D01*
X168338238Y-63434776D01*
X168338238Y-63784776D01*
G37*
G36*
X165338238Y-63284776D02*
G01*
X164458238Y-63284776D01*
X164458238Y-62934776D01*
X165338238Y-62934776D01*
X165338238Y-63284776D01*
G37*
G36*
X168338238Y-63284776D02*
G01*
X167458238Y-63284776D01*
X167458238Y-62934776D01*
X168338238Y-62934776D01*
X168338238Y-63284776D01*
G37*
G36*
X165338238Y-62784776D02*
G01*
X164458238Y-62784776D01*
X164458238Y-62434776D01*
X165338238Y-62434776D01*
X165338238Y-62784776D01*
G37*
G36*
X168338238Y-62784776D02*
G01*
X167458238Y-62784776D01*
X167458238Y-62434776D01*
X168338238Y-62434776D01*
X168338238Y-62784776D01*
G37*
G36*
X165823238Y-62299776D02*
G01*
X165473238Y-62299776D01*
X165473238Y-61419776D01*
X165823238Y-61419776D01*
X165823238Y-62299776D01*
G37*
G36*
X166323238Y-62299776D02*
G01*
X165973238Y-62299776D01*
X165973238Y-61419776D01*
X166323238Y-61419776D01*
X166323238Y-62299776D01*
G37*
G36*
X166823238Y-62299776D02*
G01*
X166473238Y-62299776D01*
X166473238Y-61419776D01*
X166823238Y-61419776D01*
X166823238Y-62299776D01*
G37*
G36*
X167323238Y-62299776D02*
G01*
X166973238Y-62299776D01*
X166973238Y-61419776D01*
X167323238Y-61419776D01*
X167323238Y-62299776D01*
G37*
%TO.C,U4*%
G36*
X129486231Y-34283296D02*
G01*
X129136231Y-34283296D01*
X129136231Y-33403296D01*
X129486231Y-33403296D01*
X129486231Y-34283296D01*
G37*
G36*
X129986231Y-34283296D02*
G01*
X129636231Y-34283296D01*
X129636231Y-33403296D01*
X129986231Y-33403296D01*
X129986231Y-34283296D01*
G37*
G36*
X130486231Y-34283296D02*
G01*
X130136231Y-34283296D01*
X130136231Y-33403296D01*
X130486231Y-33403296D01*
X130486231Y-34283296D01*
G37*
G36*
X130986231Y-34283296D02*
G01*
X130636231Y-34283296D01*
X130636231Y-33403296D01*
X130986231Y-33403296D01*
X130986231Y-34283296D01*
G37*
G36*
X129001231Y-33268296D02*
G01*
X128121231Y-33268296D01*
X128121231Y-32918296D01*
X129001231Y-32918296D01*
X129001231Y-33268296D01*
G37*
G36*
X132001231Y-33268296D02*
G01*
X131121231Y-33268296D01*
X131121231Y-32918296D01*
X132001231Y-32918296D01*
X132001231Y-33268296D01*
G37*
G36*
X129001231Y-32768296D02*
G01*
X128121231Y-32768296D01*
X128121231Y-32418296D01*
X129001231Y-32418296D01*
X129001231Y-32768296D01*
G37*
G36*
X132001231Y-32768296D02*
G01*
X131121231Y-32768296D01*
X131121231Y-32418296D01*
X132001231Y-32418296D01*
X132001231Y-32768296D01*
G37*
G36*
X129001231Y-32268296D02*
G01*
X128121231Y-32268296D01*
X128121231Y-31918296D01*
X129001231Y-31918296D01*
X129001231Y-32268296D01*
G37*
G36*
X132001231Y-32268296D02*
G01*
X131121231Y-32268296D01*
X131121231Y-31918296D01*
X132001231Y-31918296D01*
X132001231Y-32268296D01*
G37*
G36*
X129001231Y-31768296D02*
G01*
X128121231Y-31768296D01*
X128121231Y-31418296D01*
X129001231Y-31418296D01*
X129001231Y-31768296D01*
G37*
G36*
X132001231Y-31768296D02*
G01*
X131121231Y-31768296D01*
X131121231Y-31418296D01*
X132001231Y-31418296D01*
X132001231Y-31768296D01*
G37*
G36*
X129486231Y-31283296D02*
G01*
X129136231Y-31283296D01*
X129136231Y-30403296D01*
X129486231Y-30403296D01*
X129486231Y-31283296D01*
G37*
G36*
X129986231Y-31283296D02*
G01*
X129636231Y-31283296D01*
X129636231Y-30403296D01*
X129986231Y-30403296D01*
X129986231Y-31283296D01*
G37*
G36*
X130486231Y-31283296D02*
G01*
X130136231Y-31283296D01*
X130136231Y-30403296D01*
X130486231Y-30403296D01*
X130486231Y-31283296D01*
G37*
G36*
X130986231Y-31283296D02*
G01*
X130636231Y-31283296D01*
X130636231Y-30403296D01*
X130986231Y-30403296D01*
X130986231Y-31283296D01*
G37*
%TO.C,U13*%
G36*
X144481000Y-65299776D02*
G01*
X144131000Y-65299776D01*
X144131000Y-64419776D01*
X144481000Y-64419776D01*
X144481000Y-65299776D01*
G37*
G36*
X144981000Y-65299776D02*
G01*
X144631000Y-65299776D01*
X144631000Y-64419776D01*
X144981000Y-64419776D01*
X144981000Y-65299776D01*
G37*
G36*
X145481000Y-65299776D02*
G01*
X145131000Y-65299776D01*
X145131000Y-64419776D01*
X145481000Y-64419776D01*
X145481000Y-65299776D01*
G37*
G36*
X145981000Y-65299776D02*
G01*
X145631000Y-65299776D01*
X145631000Y-64419776D01*
X145981000Y-64419776D01*
X145981000Y-65299776D01*
G37*
G36*
X143996000Y-64284776D02*
G01*
X143116000Y-64284776D01*
X143116000Y-63934776D01*
X143996000Y-63934776D01*
X143996000Y-64284776D01*
G37*
G36*
X146996000Y-64284776D02*
G01*
X146116000Y-64284776D01*
X146116000Y-63934776D01*
X146996000Y-63934776D01*
X146996000Y-64284776D01*
G37*
G36*
X143996000Y-63784776D02*
G01*
X143116000Y-63784776D01*
X143116000Y-63434776D01*
X143996000Y-63434776D01*
X143996000Y-63784776D01*
G37*
G36*
X146996000Y-63784776D02*
G01*
X146116000Y-63784776D01*
X146116000Y-63434776D01*
X146996000Y-63434776D01*
X146996000Y-63784776D01*
G37*
G36*
X143996000Y-63284776D02*
G01*
X143116000Y-63284776D01*
X143116000Y-62934776D01*
X143996000Y-62934776D01*
X143996000Y-63284776D01*
G37*
G36*
X146996000Y-63284776D02*
G01*
X146116000Y-63284776D01*
X146116000Y-62934776D01*
X146996000Y-62934776D01*
X146996000Y-63284776D01*
G37*
G36*
X143996000Y-62784776D02*
G01*
X143116000Y-62784776D01*
X143116000Y-62434776D01*
X143996000Y-62434776D01*
X143996000Y-62784776D01*
G37*
G36*
X146996000Y-62784776D02*
G01*
X146116000Y-62784776D01*
X146116000Y-62434776D01*
X146996000Y-62434776D01*
X146996000Y-62784776D01*
G37*
G36*
X144481000Y-62299776D02*
G01*
X144131000Y-62299776D01*
X144131000Y-61419776D01*
X144481000Y-61419776D01*
X144481000Y-62299776D01*
G37*
G36*
X144981000Y-62299776D02*
G01*
X144631000Y-62299776D01*
X144631000Y-61419776D01*
X144981000Y-61419776D01*
X144981000Y-62299776D01*
G37*
G36*
X145481000Y-62299776D02*
G01*
X145131000Y-62299776D01*
X145131000Y-61419776D01*
X145481000Y-61419776D01*
X145481000Y-62299776D01*
G37*
G36*
X145981000Y-62299776D02*
G01*
X145631000Y-62299776D01*
X145631000Y-61419776D01*
X145981000Y-61419776D01*
X145981000Y-62299776D01*
G37*
%TO.C,U10*%
G36*
X80454286Y-65299776D02*
G01*
X80104286Y-65299776D01*
X80104286Y-64419776D01*
X80454286Y-64419776D01*
X80454286Y-65299776D01*
G37*
G36*
X80954286Y-65299776D02*
G01*
X80604286Y-65299776D01*
X80604286Y-64419776D01*
X80954286Y-64419776D01*
X80954286Y-65299776D01*
G37*
G36*
X81454286Y-65299776D02*
G01*
X81104286Y-65299776D01*
X81104286Y-64419776D01*
X81454286Y-64419776D01*
X81454286Y-65299776D01*
G37*
G36*
X81954286Y-65299776D02*
G01*
X81604286Y-65299776D01*
X81604286Y-64419776D01*
X81954286Y-64419776D01*
X81954286Y-65299776D01*
G37*
G36*
X79969286Y-64284776D02*
G01*
X79089286Y-64284776D01*
X79089286Y-63934776D01*
X79969286Y-63934776D01*
X79969286Y-64284776D01*
G37*
G36*
X82969286Y-64284776D02*
G01*
X82089286Y-64284776D01*
X82089286Y-63934776D01*
X82969286Y-63934776D01*
X82969286Y-64284776D01*
G37*
G36*
X79969286Y-63784776D02*
G01*
X79089286Y-63784776D01*
X79089286Y-63434776D01*
X79969286Y-63434776D01*
X79969286Y-63784776D01*
G37*
G36*
X82969286Y-63784776D02*
G01*
X82089286Y-63784776D01*
X82089286Y-63434776D01*
X82969286Y-63434776D01*
X82969286Y-63784776D01*
G37*
G36*
X79969286Y-63284776D02*
G01*
X79089286Y-63284776D01*
X79089286Y-62934776D01*
X79969286Y-62934776D01*
X79969286Y-63284776D01*
G37*
G36*
X82969286Y-63284776D02*
G01*
X82089286Y-63284776D01*
X82089286Y-62934776D01*
X82969286Y-62934776D01*
X82969286Y-63284776D01*
G37*
G36*
X79969286Y-62784776D02*
G01*
X79089286Y-62784776D01*
X79089286Y-62434776D01*
X79969286Y-62434776D01*
X79969286Y-62784776D01*
G37*
G36*
X82969286Y-62784776D02*
G01*
X82089286Y-62784776D01*
X82089286Y-62434776D01*
X82969286Y-62434776D01*
X82969286Y-62784776D01*
G37*
G36*
X80454286Y-62299776D02*
G01*
X80104286Y-62299776D01*
X80104286Y-61419776D01*
X80454286Y-61419776D01*
X80454286Y-62299776D01*
G37*
G36*
X80954286Y-62299776D02*
G01*
X80604286Y-62299776D01*
X80604286Y-61419776D01*
X80954286Y-61419776D01*
X80954286Y-62299776D01*
G37*
G36*
X81454286Y-62299776D02*
G01*
X81104286Y-62299776D01*
X81104286Y-61419776D01*
X81454286Y-61419776D01*
X81454286Y-62299776D01*
G37*
G36*
X81954286Y-62299776D02*
G01*
X81604286Y-62299776D01*
X81604286Y-61419776D01*
X81954286Y-61419776D01*
X81954286Y-62299776D01*
G37*
%TO.C,U28*%
G36*
X128603998Y-128563000D02*
G01*
X128253998Y-128563000D01*
X128253998Y-127683000D01*
X128603998Y-127683000D01*
X128603998Y-128563000D01*
G37*
G36*
X129103998Y-128563000D02*
G01*
X128753998Y-128563000D01*
X128753998Y-127683000D01*
X129103998Y-127683000D01*
X129103998Y-128563000D01*
G37*
G36*
X129603998Y-128563000D02*
G01*
X129253998Y-128563000D01*
X129253998Y-127683000D01*
X129603998Y-127683000D01*
X129603998Y-128563000D01*
G37*
G36*
X130103998Y-128563000D02*
G01*
X129753998Y-128563000D01*
X129753998Y-127683000D01*
X130103998Y-127683000D01*
X130103998Y-128563000D01*
G37*
G36*
X128118998Y-127548000D02*
G01*
X127238998Y-127548000D01*
X127238998Y-127198000D01*
X128118998Y-127198000D01*
X128118998Y-127548000D01*
G37*
G36*
X131118998Y-127548000D02*
G01*
X130238998Y-127548000D01*
X130238998Y-127198000D01*
X131118998Y-127198000D01*
X131118998Y-127548000D01*
G37*
G36*
X128118998Y-127048000D02*
G01*
X127238998Y-127048000D01*
X127238998Y-126698000D01*
X128118998Y-126698000D01*
X128118998Y-127048000D01*
G37*
G36*
X131118998Y-127048000D02*
G01*
X130238998Y-127048000D01*
X130238998Y-126698000D01*
X131118998Y-126698000D01*
X131118998Y-127048000D01*
G37*
G36*
X128118998Y-126548000D02*
G01*
X127238998Y-126548000D01*
X127238998Y-126198000D01*
X128118998Y-126198000D01*
X128118998Y-126548000D01*
G37*
G36*
X131118998Y-126548000D02*
G01*
X130238998Y-126548000D01*
X130238998Y-126198000D01*
X131118998Y-126198000D01*
X131118998Y-126548000D01*
G37*
G36*
X128118998Y-126048000D02*
G01*
X127238998Y-126048000D01*
X127238998Y-125698000D01*
X128118998Y-125698000D01*
X128118998Y-126048000D01*
G37*
G36*
X131118998Y-126048000D02*
G01*
X130238998Y-126048000D01*
X130238998Y-125698000D01*
X131118998Y-125698000D01*
X131118998Y-126048000D01*
G37*
G36*
X128603998Y-125563000D02*
G01*
X128253998Y-125563000D01*
X128253998Y-124683000D01*
X128603998Y-124683000D01*
X128603998Y-125563000D01*
G37*
G36*
X129103998Y-125563000D02*
G01*
X128753998Y-125563000D01*
X128753998Y-124683000D01*
X129103998Y-124683000D01*
X129103998Y-125563000D01*
G37*
G36*
X129603998Y-125563000D02*
G01*
X129253998Y-125563000D01*
X129253998Y-124683000D01*
X129603998Y-124683000D01*
X129603998Y-125563000D01*
G37*
G36*
X130103998Y-125563000D02*
G01*
X129753998Y-125563000D01*
X129753998Y-124683000D01*
X130103998Y-124683000D01*
X130103998Y-125563000D01*
G37*
%TO.C,U5*%
G36*
X150825308Y-34283296D02*
G01*
X150475308Y-34283296D01*
X150475308Y-33403296D01*
X150825308Y-33403296D01*
X150825308Y-34283296D01*
G37*
G36*
X151325308Y-34283296D02*
G01*
X150975308Y-34283296D01*
X150975308Y-33403296D01*
X151325308Y-33403296D01*
X151325308Y-34283296D01*
G37*
G36*
X151825308Y-34283296D02*
G01*
X151475308Y-34283296D01*
X151475308Y-33403296D01*
X151825308Y-33403296D01*
X151825308Y-34283296D01*
G37*
G36*
X152325308Y-34283296D02*
G01*
X151975308Y-34283296D01*
X151975308Y-33403296D01*
X152325308Y-33403296D01*
X152325308Y-34283296D01*
G37*
G36*
X150340308Y-33268296D02*
G01*
X149460308Y-33268296D01*
X149460308Y-32918296D01*
X150340308Y-32918296D01*
X150340308Y-33268296D01*
G37*
G36*
X153340308Y-33268296D02*
G01*
X152460308Y-33268296D01*
X152460308Y-32918296D01*
X153340308Y-32918296D01*
X153340308Y-33268296D01*
G37*
G36*
X150340308Y-32768296D02*
G01*
X149460308Y-32768296D01*
X149460308Y-32418296D01*
X150340308Y-32418296D01*
X150340308Y-32768296D01*
G37*
G36*
X153340308Y-32768296D02*
G01*
X152460308Y-32768296D01*
X152460308Y-32418296D01*
X153340308Y-32418296D01*
X153340308Y-32768296D01*
G37*
G36*
X150340308Y-32268296D02*
G01*
X149460308Y-32268296D01*
X149460308Y-31918296D01*
X150340308Y-31918296D01*
X150340308Y-32268296D01*
G37*
G36*
X153340308Y-32268296D02*
G01*
X152460308Y-32268296D01*
X152460308Y-31918296D01*
X153340308Y-31918296D01*
X153340308Y-32268296D01*
G37*
G36*
X150340308Y-31768296D02*
G01*
X149460308Y-31768296D01*
X149460308Y-31418296D01*
X150340308Y-31418296D01*
X150340308Y-31768296D01*
G37*
G36*
X153340308Y-31768296D02*
G01*
X152460308Y-31768296D01*
X152460308Y-31418296D01*
X153340308Y-31418296D01*
X153340308Y-31768296D01*
G37*
G36*
X150825308Y-31283296D02*
G01*
X150475308Y-31283296D01*
X150475308Y-30403296D01*
X150825308Y-30403296D01*
X150825308Y-31283296D01*
G37*
G36*
X151325308Y-31283296D02*
G01*
X150975308Y-31283296D01*
X150975308Y-30403296D01*
X151325308Y-30403296D01*
X151325308Y-31283296D01*
G37*
G36*
X151825308Y-31283296D02*
G01*
X151475308Y-31283296D01*
X151475308Y-30403296D01*
X151825308Y-30403296D01*
X151825308Y-31283296D01*
G37*
G36*
X152325308Y-31283296D02*
G01*
X151975308Y-31283296D01*
X151975308Y-30403296D01*
X152325308Y-30403296D01*
X152325308Y-31283296D01*
G37*
%TO.C,U1*%
G36*
X65469000Y-34283296D02*
G01*
X65119000Y-34283296D01*
X65119000Y-33403296D01*
X65469000Y-33403296D01*
X65469000Y-34283296D01*
G37*
G36*
X65969000Y-34283296D02*
G01*
X65619000Y-34283296D01*
X65619000Y-33403296D01*
X65969000Y-33403296D01*
X65969000Y-34283296D01*
G37*
G36*
X66469000Y-34283296D02*
G01*
X66119000Y-34283296D01*
X66119000Y-33403296D01*
X66469000Y-33403296D01*
X66469000Y-34283296D01*
G37*
G36*
X66969000Y-34283296D02*
G01*
X66619000Y-34283296D01*
X66619000Y-33403296D01*
X66969000Y-33403296D01*
X66969000Y-34283296D01*
G37*
G36*
X64984000Y-33268296D02*
G01*
X64104000Y-33268296D01*
X64104000Y-32918296D01*
X64984000Y-32918296D01*
X64984000Y-33268296D01*
G37*
G36*
X67984000Y-33268296D02*
G01*
X67104000Y-33268296D01*
X67104000Y-32918296D01*
X67984000Y-32918296D01*
X67984000Y-33268296D01*
G37*
G36*
X64984000Y-32768296D02*
G01*
X64104000Y-32768296D01*
X64104000Y-32418296D01*
X64984000Y-32418296D01*
X64984000Y-32768296D01*
G37*
G36*
X67984000Y-32768296D02*
G01*
X67104000Y-32768296D01*
X67104000Y-32418296D01*
X67984000Y-32418296D01*
X67984000Y-32768296D01*
G37*
G36*
X64984000Y-32268296D02*
G01*
X64104000Y-32268296D01*
X64104000Y-31918296D01*
X64984000Y-31918296D01*
X64984000Y-32268296D01*
G37*
G36*
X67984000Y-32268296D02*
G01*
X67104000Y-32268296D01*
X67104000Y-31918296D01*
X67984000Y-31918296D01*
X67984000Y-32268296D01*
G37*
G36*
X64984000Y-31768296D02*
G01*
X64104000Y-31768296D01*
X64104000Y-31418296D01*
X64984000Y-31418296D01*
X64984000Y-31768296D01*
G37*
G36*
X67984000Y-31768296D02*
G01*
X67104000Y-31768296D01*
X67104000Y-31418296D01*
X67984000Y-31418296D01*
X67984000Y-31768296D01*
G37*
G36*
X65469000Y-31283296D02*
G01*
X65119000Y-31283296D01*
X65119000Y-30403296D01*
X65469000Y-30403296D01*
X65469000Y-31283296D01*
G37*
G36*
X65969000Y-31283296D02*
G01*
X65619000Y-31283296D01*
X65619000Y-30403296D01*
X65969000Y-30403296D01*
X65969000Y-31283296D01*
G37*
G36*
X66469000Y-31283296D02*
G01*
X66119000Y-31283296D01*
X66119000Y-30403296D01*
X66469000Y-30403296D01*
X66469000Y-31283296D01*
G37*
G36*
X66969000Y-31283296D02*
G01*
X66619000Y-31283296D01*
X66619000Y-30403296D01*
X66969000Y-30403296D01*
X66969000Y-31283296D01*
G37*
%TO.C,U6*%
G36*
X172164385Y-34283296D02*
G01*
X171814385Y-34283296D01*
X171814385Y-33403296D01*
X172164385Y-33403296D01*
X172164385Y-34283296D01*
G37*
G36*
X172664385Y-34283296D02*
G01*
X172314385Y-34283296D01*
X172314385Y-33403296D01*
X172664385Y-33403296D01*
X172664385Y-34283296D01*
G37*
G36*
X173164385Y-34283296D02*
G01*
X172814385Y-34283296D01*
X172814385Y-33403296D01*
X173164385Y-33403296D01*
X173164385Y-34283296D01*
G37*
G36*
X173664385Y-34283296D02*
G01*
X173314385Y-34283296D01*
X173314385Y-33403296D01*
X173664385Y-33403296D01*
X173664385Y-34283296D01*
G37*
G36*
X171679385Y-33268296D02*
G01*
X170799385Y-33268296D01*
X170799385Y-32918296D01*
X171679385Y-32918296D01*
X171679385Y-33268296D01*
G37*
G36*
X174679385Y-33268296D02*
G01*
X173799385Y-33268296D01*
X173799385Y-32918296D01*
X174679385Y-32918296D01*
X174679385Y-33268296D01*
G37*
G36*
X171679385Y-32768296D02*
G01*
X170799385Y-32768296D01*
X170799385Y-32418296D01*
X171679385Y-32418296D01*
X171679385Y-32768296D01*
G37*
G36*
X174679385Y-32768296D02*
G01*
X173799385Y-32768296D01*
X173799385Y-32418296D01*
X174679385Y-32418296D01*
X174679385Y-32768296D01*
G37*
G36*
X171679385Y-32268296D02*
G01*
X170799385Y-32268296D01*
X170799385Y-31918296D01*
X171679385Y-31918296D01*
X171679385Y-32268296D01*
G37*
G36*
X174679385Y-32268296D02*
G01*
X173799385Y-32268296D01*
X173799385Y-31918296D01*
X174679385Y-31918296D01*
X174679385Y-32268296D01*
G37*
G36*
X171679385Y-31768296D02*
G01*
X170799385Y-31768296D01*
X170799385Y-31418296D01*
X171679385Y-31418296D01*
X171679385Y-31768296D01*
G37*
G36*
X174679385Y-31768296D02*
G01*
X173799385Y-31768296D01*
X173799385Y-31418296D01*
X174679385Y-31418296D01*
X174679385Y-31768296D01*
G37*
G36*
X172164385Y-31283296D02*
G01*
X171814385Y-31283296D01*
X171814385Y-30403296D01*
X172164385Y-30403296D01*
X172164385Y-31283296D01*
G37*
G36*
X172664385Y-31283296D02*
G01*
X172314385Y-31283296D01*
X172314385Y-30403296D01*
X172664385Y-30403296D01*
X172664385Y-31283296D01*
G37*
G36*
X173164385Y-31283296D02*
G01*
X172814385Y-31283296D01*
X172814385Y-30403296D01*
X173164385Y-30403296D01*
X173164385Y-31283296D01*
G37*
G36*
X173664385Y-31283296D02*
G01*
X173314385Y-31283296D01*
X173314385Y-30403296D01*
X173664385Y-30403296D01*
X173664385Y-31283296D01*
G37*
%TO.C,U9*%
G36*
X59112048Y-65299776D02*
G01*
X58762048Y-65299776D01*
X58762048Y-64419776D01*
X59112048Y-64419776D01*
X59112048Y-65299776D01*
G37*
G36*
X59612048Y-65299776D02*
G01*
X59262048Y-65299776D01*
X59262048Y-64419776D01*
X59612048Y-64419776D01*
X59612048Y-65299776D01*
G37*
G36*
X60112048Y-65299776D02*
G01*
X59762048Y-65299776D01*
X59762048Y-64419776D01*
X60112048Y-64419776D01*
X60112048Y-65299776D01*
G37*
G36*
X60612048Y-65299776D02*
G01*
X60262048Y-65299776D01*
X60262048Y-64419776D01*
X60612048Y-64419776D01*
X60612048Y-65299776D01*
G37*
G36*
X58627048Y-64284776D02*
G01*
X57747048Y-64284776D01*
X57747048Y-63934776D01*
X58627048Y-63934776D01*
X58627048Y-64284776D01*
G37*
G36*
X61627048Y-64284776D02*
G01*
X60747048Y-64284776D01*
X60747048Y-63934776D01*
X61627048Y-63934776D01*
X61627048Y-64284776D01*
G37*
G36*
X58627048Y-63784776D02*
G01*
X57747048Y-63784776D01*
X57747048Y-63434776D01*
X58627048Y-63434776D01*
X58627048Y-63784776D01*
G37*
G36*
X61627048Y-63784776D02*
G01*
X60747048Y-63784776D01*
X60747048Y-63434776D01*
X61627048Y-63434776D01*
X61627048Y-63784776D01*
G37*
G36*
X58627048Y-63284776D02*
G01*
X57747048Y-63284776D01*
X57747048Y-62934776D01*
X58627048Y-62934776D01*
X58627048Y-63284776D01*
G37*
G36*
X61627048Y-63284776D02*
G01*
X60747048Y-63284776D01*
X60747048Y-62934776D01*
X61627048Y-62934776D01*
X61627048Y-63284776D01*
G37*
G36*
X58627048Y-62784776D02*
G01*
X57747048Y-62784776D01*
X57747048Y-62434776D01*
X58627048Y-62434776D01*
X58627048Y-62784776D01*
G37*
G36*
X61627048Y-62784776D02*
G01*
X60747048Y-62784776D01*
X60747048Y-62434776D01*
X61627048Y-62434776D01*
X61627048Y-62784776D01*
G37*
G36*
X59112048Y-62299776D02*
G01*
X58762048Y-62299776D01*
X58762048Y-61419776D01*
X59112048Y-61419776D01*
X59112048Y-62299776D01*
G37*
G36*
X59612048Y-62299776D02*
G01*
X59262048Y-62299776D01*
X59262048Y-61419776D01*
X59612048Y-61419776D01*
X59612048Y-62299776D01*
G37*
G36*
X60112048Y-62299776D02*
G01*
X59762048Y-62299776D01*
X59762048Y-61419776D01*
X60112048Y-61419776D01*
X60112048Y-62299776D01*
G37*
G36*
X60612048Y-62299776D02*
G01*
X60262048Y-62299776D01*
X60262048Y-61419776D01*
X60612048Y-61419776D01*
X60612048Y-62299776D01*
G37*
%TO.C,U8*%
G36*
X214842540Y-34283296D02*
G01*
X214492540Y-34283296D01*
X214492540Y-33403296D01*
X214842540Y-33403296D01*
X214842540Y-34283296D01*
G37*
G36*
X215342540Y-34283296D02*
G01*
X214992540Y-34283296D01*
X214992540Y-33403296D01*
X215342540Y-33403296D01*
X215342540Y-34283296D01*
G37*
G36*
X215842540Y-34283296D02*
G01*
X215492540Y-34283296D01*
X215492540Y-33403296D01*
X215842540Y-33403296D01*
X215842540Y-34283296D01*
G37*
G36*
X216342540Y-34283296D02*
G01*
X215992540Y-34283296D01*
X215992540Y-33403296D01*
X216342540Y-33403296D01*
X216342540Y-34283296D01*
G37*
G36*
X214357540Y-33268296D02*
G01*
X213477540Y-33268296D01*
X213477540Y-32918296D01*
X214357540Y-32918296D01*
X214357540Y-33268296D01*
G37*
G36*
X217357540Y-33268296D02*
G01*
X216477540Y-33268296D01*
X216477540Y-32918296D01*
X217357540Y-32918296D01*
X217357540Y-33268296D01*
G37*
G36*
X214357540Y-32768296D02*
G01*
X213477540Y-32768296D01*
X213477540Y-32418296D01*
X214357540Y-32418296D01*
X214357540Y-32768296D01*
G37*
G36*
X217357540Y-32768296D02*
G01*
X216477540Y-32768296D01*
X216477540Y-32418296D01*
X217357540Y-32418296D01*
X217357540Y-32768296D01*
G37*
G36*
X214357540Y-32268296D02*
G01*
X213477540Y-32268296D01*
X213477540Y-31918296D01*
X214357540Y-31918296D01*
X214357540Y-32268296D01*
G37*
G36*
X217357540Y-32268296D02*
G01*
X216477540Y-32268296D01*
X216477540Y-31918296D01*
X217357540Y-31918296D01*
X217357540Y-32268296D01*
G37*
G36*
X214357540Y-31768296D02*
G01*
X213477540Y-31768296D01*
X213477540Y-31418296D01*
X214357540Y-31418296D01*
X214357540Y-31768296D01*
G37*
G36*
X217357540Y-31768296D02*
G01*
X216477540Y-31768296D01*
X216477540Y-31418296D01*
X217357540Y-31418296D01*
X217357540Y-31768296D01*
G37*
G36*
X214842540Y-31283296D02*
G01*
X214492540Y-31283296D01*
X214492540Y-30403296D01*
X214842540Y-30403296D01*
X214842540Y-31283296D01*
G37*
G36*
X215342540Y-31283296D02*
G01*
X214992540Y-31283296D01*
X214992540Y-30403296D01*
X215342540Y-30403296D01*
X215342540Y-31283296D01*
G37*
G36*
X215842540Y-31283296D02*
G01*
X215492540Y-31283296D01*
X215492540Y-30403296D01*
X215842540Y-30403296D01*
X215842540Y-31283296D01*
G37*
G36*
X216342540Y-31283296D02*
G01*
X215992540Y-31283296D01*
X215992540Y-30403296D01*
X216342540Y-30403296D01*
X216342540Y-31283296D01*
G37*
%TO.C,U23*%
G36*
X200408125Y-96936062D02*
G01*
X200058125Y-96936062D01*
X200058125Y-96056062D01*
X200408125Y-96056062D01*
X200408125Y-96936062D01*
G37*
G36*
X200908125Y-96936062D02*
G01*
X200558125Y-96936062D01*
X200558125Y-96056062D01*
X200908125Y-96056062D01*
X200908125Y-96936062D01*
G37*
G36*
X201408125Y-96936062D02*
G01*
X201058125Y-96936062D01*
X201058125Y-96056062D01*
X201408125Y-96056062D01*
X201408125Y-96936062D01*
G37*
G36*
X201908125Y-96936062D02*
G01*
X201558125Y-96936062D01*
X201558125Y-96056062D01*
X201908125Y-96056062D01*
X201908125Y-96936062D01*
G37*
G36*
X199923125Y-95921062D02*
G01*
X199043125Y-95921062D01*
X199043125Y-95571062D01*
X199923125Y-95571062D01*
X199923125Y-95921062D01*
G37*
G36*
X202923125Y-95921062D02*
G01*
X202043125Y-95921062D01*
X202043125Y-95571062D01*
X202923125Y-95571062D01*
X202923125Y-95921062D01*
G37*
G36*
X199923125Y-95421062D02*
G01*
X199043125Y-95421062D01*
X199043125Y-95071062D01*
X199923125Y-95071062D01*
X199923125Y-95421062D01*
G37*
G36*
X202923125Y-95421062D02*
G01*
X202043125Y-95421062D01*
X202043125Y-95071062D01*
X202923125Y-95071062D01*
X202923125Y-95421062D01*
G37*
G36*
X199923125Y-94921062D02*
G01*
X199043125Y-94921062D01*
X199043125Y-94571062D01*
X199923125Y-94571062D01*
X199923125Y-94921062D01*
G37*
G36*
X202923125Y-94921062D02*
G01*
X202043125Y-94921062D01*
X202043125Y-94571062D01*
X202923125Y-94571062D01*
X202923125Y-94921062D01*
G37*
G36*
X199923125Y-94421062D02*
G01*
X199043125Y-94421062D01*
X199043125Y-94071062D01*
X199923125Y-94071062D01*
X199923125Y-94421062D01*
G37*
G36*
X202923125Y-94421062D02*
G01*
X202043125Y-94421062D01*
X202043125Y-94071062D01*
X202923125Y-94071062D01*
X202923125Y-94421062D01*
G37*
G36*
X200408125Y-93936062D02*
G01*
X200058125Y-93936062D01*
X200058125Y-93056062D01*
X200408125Y-93056062D01*
X200408125Y-93936062D01*
G37*
G36*
X200908125Y-93936062D02*
G01*
X200558125Y-93936062D01*
X200558125Y-93056062D01*
X200908125Y-93056062D01*
X200908125Y-93936062D01*
G37*
G36*
X201408125Y-93936062D02*
G01*
X201058125Y-93936062D01*
X201058125Y-93056062D01*
X201408125Y-93056062D01*
X201408125Y-93936062D01*
G37*
G36*
X201908125Y-93936062D02*
G01*
X201558125Y-93936062D01*
X201558125Y-93056062D01*
X201908125Y-93056062D01*
X201908125Y-93936062D01*
G37*
%TO.C,U11*%
G36*
X101796524Y-65299776D02*
G01*
X101446524Y-65299776D01*
X101446524Y-64419776D01*
X101796524Y-64419776D01*
X101796524Y-65299776D01*
G37*
G36*
X102296524Y-65299776D02*
G01*
X101946524Y-65299776D01*
X101946524Y-64419776D01*
X102296524Y-64419776D01*
X102296524Y-65299776D01*
G37*
G36*
X102796524Y-65299776D02*
G01*
X102446524Y-65299776D01*
X102446524Y-64419776D01*
X102796524Y-64419776D01*
X102796524Y-65299776D01*
G37*
G36*
X103296524Y-65299776D02*
G01*
X102946524Y-65299776D01*
X102946524Y-64419776D01*
X103296524Y-64419776D01*
X103296524Y-65299776D01*
G37*
G36*
X101311524Y-64284776D02*
G01*
X100431524Y-64284776D01*
X100431524Y-63934776D01*
X101311524Y-63934776D01*
X101311524Y-64284776D01*
G37*
G36*
X104311524Y-64284776D02*
G01*
X103431524Y-64284776D01*
X103431524Y-63934776D01*
X104311524Y-63934776D01*
X104311524Y-64284776D01*
G37*
G36*
X101311524Y-63784776D02*
G01*
X100431524Y-63784776D01*
X100431524Y-63434776D01*
X101311524Y-63434776D01*
X101311524Y-63784776D01*
G37*
G36*
X104311524Y-63784776D02*
G01*
X103431524Y-63784776D01*
X103431524Y-63434776D01*
X104311524Y-63434776D01*
X104311524Y-63784776D01*
G37*
G36*
X101311524Y-63284776D02*
G01*
X100431524Y-63284776D01*
X100431524Y-62934776D01*
X101311524Y-62934776D01*
X101311524Y-63284776D01*
G37*
G36*
X104311524Y-63284776D02*
G01*
X103431524Y-63284776D01*
X103431524Y-62934776D01*
X104311524Y-62934776D01*
X104311524Y-63284776D01*
G37*
G36*
X101311524Y-62784776D02*
G01*
X100431524Y-62784776D01*
X100431524Y-62434776D01*
X101311524Y-62434776D01*
X101311524Y-62784776D01*
G37*
G36*
X104311524Y-62784776D02*
G01*
X103431524Y-62784776D01*
X103431524Y-62434776D01*
X104311524Y-62434776D01*
X104311524Y-62784776D01*
G37*
G36*
X101796524Y-62299776D02*
G01*
X101446524Y-62299776D01*
X101446524Y-61419776D01*
X101796524Y-61419776D01*
X101796524Y-62299776D01*
G37*
G36*
X102296524Y-62299776D02*
G01*
X101946524Y-62299776D01*
X101946524Y-61419776D01*
X102296524Y-61419776D01*
X102296524Y-62299776D01*
G37*
G36*
X102796524Y-62299776D02*
G01*
X102446524Y-62299776D01*
X102446524Y-61419776D01*
X102796524Y-61419776D01*
X102796524Y-62299776D01*
G37*
G36*
X103296524Y-62299776D02*
G01*
X102946524Y-62299776D01*
X102946524Y-61419776D01*
X103296524Y-61419776D01*
X103296524Y-62299776D01*
G37*
%TO.C,U20*%
G36*
X136365316Y-96936062D02*
G01*
X136015316Y-96936062D01*
X136015316Y-96056062D01*
X136365316Y-96056062D01*
X136365316Y-96936062D01*
G37*
G36*
X136865316Y-96936062D02*
G01*
X136515316Y-96936062D01*
X136515316Y-96056062D01*
X136865316Y-96056062D01*
X136865316Y-96936062D01*
G37*
G36*
X137365316Y-96936062D02*
G01*
X137015316Y-96936062D01*
X137015316Y-96056062D01*
X137365316Y-96056062D01*
X137365316Y-96936062D01*
G37*
G36*
X137865316Y-96936062D02*
G01*
X137515316Y-96936062D01*
X137515316Y-96056062D01*
X137865316Y-96056062D01*
X137865316Y-96936062D01*
G37*
G36*
X135880316Y-95921062D02*
G01*
X135000316Y-95921062D01*
X135000316Y-95571062D01*
X135880316Y-95571062D01*
X135880316Y-95921062D01*
G37*
G36*
X138880316Y-95921062D02*
G01*
X138000316Y-95921062D01*
X138000316Y-95571062D01*
X138880316Y-95571062D01*
X138880316Y-95921062D01*
G37*
G36*
X135880316Y-95421062D02*
G01*
X135000316Y-95421062D01*
X135000316Y-95071062D01*
X135880316Y-95071062D01*
X135880316Y-95421062D01*
G37*
G36*
X138880316Y-95421062D02*
G01*
X138000316Y-95421062D01*
X138000316Y-95071062D01*
X138880316Y-95071062D01*
X138880316Y-95421062D01*
G37*
G36*
X135880316Y-94921062D02*
G01*
X135000316Y-94921062D01*
X135000316Y-94571062D01*
X135880316Y-94571062D01*
X135880316Y-94921062D01*
G37*
G36*
X138880316Y-94921062D02*
G01*
X138000316Y-94921062D01*
X138000316Y-94571062D01*
X138880316Y-94571062D01*
X138880316Y-94921062D01*
G37*
G36*
X135880316Y-94421062D02*
G01*
X135000316Y-94421062D01*
X135000316Y-94071062D01*
X135880316Y-94071062D01*
X135880316Y-94421062D01*
G37*
G36*
X138880316Y-94421062D02*
G01*
X138000316Y-94421062D01*
X138000316Y-94071062D01*
X138880316Y-94071062D01*
X138880316Y-94421062D01*
G37*
G36*
X136365316Y-93936062D02*
G01*
X136015316Y-93936062D01*
X136015316Y-93056062D01*
X136365316Y-93056062D01*
X136365316Y-93936062D01*
G37*
G36*
X136865316Y-93936062D02*
G01*
X136515316Y-93936062D01*
X136515316Y-93056062D01*
X136865316Y-93056062D01*
X136865316Y-93936062D01*
G37*
G36*
X137365316Y-93936062D02*
G01*
X137015316Y-93936062D01*
X137015316Y-93056062D01*
X137365316Y-93056062D01*
X137365316Y-93936062D01*
G37*
G36*
X137865316Y-93936062D02*
G01*
X137515316Y-93936062D01*
X137515316Y-93056062D01*
X137865316Y-93056062D01*
X137865316Y-93936062D01*
G37*
%TO.C,U31*%
G36*
X192635995Y-128563000D02*
G01*
X192285995Y-128563000D01*
X192285995Y-127683000D01*
X192635995Y-127683000D01*
X192635995Y-128563000D01*
G37*
G36*
X193135995Y-128563000D02*
G01*
X192785995Y-128563000D01*
X192785995Y-127683000D01*
X193135995Y-127683000D01*
X193135995Y-128563000D01*
G37*
G36*
X193635995Y-128563000D02*
G01*
X193285995Y-128563000D01*
X193285995Y-127683000D01*
X193635995Y-127683000D01*
X193635995Y-128563000D01*
G37*
G36*
X194135995Y-128563000D02*
G01*
X193785995Y-128563000D01*
X193785995Y-127683000D01*
X194135995Y-127683000D01*
X194135995Y-128563000D01*
G37*
G36*
X192150995Y-127548000D02*
G01*
X191270995Y-127548000D01*
X191270995Y-127198000D01*
X192150995Y-127198000D01*
X192150995Y-127548000D01*
G37*
G36*
X195150995Y-127548000D02*
G01*
X194270995Y-127548000D01*
X194270995Y-127198000D01*
X195150995Y-127198000D01*
X195150995Y-127548000D01*
G37*
G36*
X192150995Y-127048000D02*
G01*
X191270995Y-127048000D01*
X191270995Y-126698000D01*
X192150995Y-126698000D01*
X192150995Y-127048000D01*
G37*
G36*
X195150995Y-127048000D02*
G01*
X194270995Y-127048000D01*
X194270995Y-126698000D01*
X195150995Y-126698000D01*
X195150995Y-127048000D01*
G37*
G36*
X192150995Y-126548000D02*
G01*
X191270995Y-126548000D01*
X191270995Y-126198000D01*
X192150995Y-126198000D01*
X192150995Y-126548000D01*
G37*
G36*
X195150995Y-126548000D02*
G01*
X194270995Y-126548000D01*
X194270995Y-126198000D01*
X195150995Y-126198000D01*
X195150995Y-126548000D01*
G37*
G36*
X192150995Y-126048000D02*
G01*
X191270995Y-126048000D01*
X191270995Y-125698000D01*
X192150995Y-125698000D01*
X192150995Y-126048000D01*
G37*
G36*
X195150995Y-126048000D02*
G01*
X194270995Y-126048000D01*
X194270995Y-125698000D01*
X195150995Y-125698000D01*
X195150995Y-126048000D01*
G37*
G36*
X192635995Y-125563000D02*
G01*
X192285995Y-125563000D01*
X192285995Y-124683000D01*
X192635995Y-124683000D01*
X192635995Y-125563000D01*
G37*
G36*
X193135995Y-125563000D02*
G01*
X192785995Y-125563000D01*
X192785995Y-124683000D01*
X193135995Y-124683000D01*
X193135995Y-125563000D01*
G37*
G36*
X193635995Y-125563000D02*
G01*
X193285995Y-125563000D01*
X193285995Y-124683000D01*
X193635995Y-124683000D01*
X193635995Y-125563000D01*
G37*
G36*
X194135995Y-125563000D02*
G01*
X193785995Y-125563000D01*
X193785995Y-124683000D01*
X194135995Y-124683000D01*
X194135995Y-125563000D01*
G37*
%TO.C,U26*%
G36*
X85916000Y-128563000D02*
G01*
X85566000Y-128563000D01*
X85566000Y-127683000D01*
X85916000Y-127683000D01*
X85916000Y-128563000D01*
G37*
G36*
X86416000Y-128563000D02*
G01*
X86066000Y-128563000D01*
X86066000Y-127683000D01*
X86416000Y-127683000D01*
X86416000Y-128563000D01*
G37*
G36*
X86916000Y-128563000D02*
G01*
X86566000Y-128563000D01*
X86566000Y-127683000D01*
X86916000Y-127683000D01*
X86916000Y-128563000D01*
G37*
G36*
X87416000Y-128563000D02*
G01*
X87066000Y-128563000D01*
X87066000Y-127683000D01*
X87416000Y-127683000D01*
X87416000Y-128563000D01*
G37*
G36*
X85431000Y-127548000D02*
G01*
X84551000Y-127548000D01*
X84551000Y-127198000D01*
X85431000Y-127198000D01*
X85431000Y-127548000D01*
G37*
G36*
X88431000Y-127548000D02*
G01*
X87551000Y-127548000D01*
X87551000Y-127198000D01*
X88431000Y-127198000D01*
X88431000Y-127548000D01*
G37*
G36*
X85431000Y-127048000D02*
G01*
X84551000Y-127048000D01*
X84551000Y-126698000D01*
X85431000Y-126698000D01*
X85431000Y-127048000D01*
G37*
G36*
X88431000Y-127048000D02*
G01*
X87551000Y-127048000D01*
X87551000Y-126698000D01*
X88431000Y-126698000D01*
X88431000Y-127048000D01*
G37*
G36*
X85431000Y-126548000D02*
G01*
X84551000Y-126548000D01*
X84551000Y-126198000D01*
X85431000Y-126198000D01*
X85431000Y-126548000D01*
G37*
G36*
X88431000Y-126548000D02*
G01*
X87551000Y-126548000D01*
X87551000Y-126198000D01*
X88431000Y-126198000D01*
X88431000Y-126548000D01*
G37*
G36*
X85431000Y-126048000D02*
G01*
X84551000Y-126048000D01*
X84551000Y-125698000D01*
X85431000Y-125698000D01*
X85431000Y-126048000D01*
G37*
G36*
X88431000Y-126048000D02*
G01*
X87551000Y-126048000D01*
X87551000Y-125698000D01*
X88431000Y-125698000D01*
X88431000Y-126048000D01*
G37*
G36*
X85916000Y-125563000D02*
G01*
X85566000Y-125563000D01*
X85566000Y-124683000D01*
X85916000Y-124683000D01*
X85916000Y-125563000D01*
G37*
G36*
X86416000Y-125563000D02*
G01*
X86066000Y-125563000D01*
X86066000Y-124683000D01*
X86416000Y-124683000D01*
X86416000Y-125563000D01*
G37*
G36*
X86916000Y-125563000D02*
G01*
X86566000Y-125563000D01*
X86566000Y-124683000D01*
X86916000Y-124683000D01*
X86916000Y-125563000D01*
G37*
G36*
X87416000Y-125563000D02*
G01*
X87066000Y-125563000D01*
X87066000Y-124683000D01*
X87416000Y-124683000D01*
X87416000Y-125563000D01*
G37*
%TO.C,U29*%
G36*
X149947997Y-128563000D02*
G01*
X149597997Y-128563000D01*
X149597997Y-127683000D01*
X149947997Y-127683000D01*
X149947997Y-128563000D01*
G37*
G36*
X150447997Y-128563000D02*
G01*
X150097997Y-128563000D01*
X150097997Y-127683000D01*
X150447997Y-127683000D01*
X150447997Y-128563000D01*
G37*
G36*
X150947997Y-128563000D02*
G01*
X150597997Y-128563000D01*
X150597997Y-127683000D01*
X150947997Y-127683000D01*
X150947997Y-128563000D01*
G37*
G36*
X151447997Y-128563000D02*
G01*
X151097997Y-128563000D01*
X151097997Y-127683000D01*
X151447997Y-127683000D01*
X151447997Y-128563000D01*
G37*
G36*
X149462997Y-127548000D02*
G01*
X148582997Y-127548000D01*
X148582997Y-127198000D01*
X149462997Y-127198000D01*
X149462997Y-127548000D01*
G37*
G36*
X152462997Y-127548000D02*
G01*
X151582997Y-127548000D01*
X151582997Y-127198000D01*
X152462997Y-127198000D01*
X152462997Y-127548000D01*
G37*
G36*
X149462997Y-127048000D02*
G01*
X148582997Y-127048000D01*
X148582997Y-126698000D01*
X149462997Y-126698000D01*
X149462997Y-127048000D01*
G37*
G36*
X152462997Y-127048000D02*
G01*
X151582997Y-127048000D01*
X151582997Y-126698000D01*
X152462997Y-126698000D01*
X152462997Y-127048000D01*
G37*
G36*
X149462997Y-126548000D02*
G01*
X148582997Y-126548000D01*
X148582997Y-126198000D01*
X149462997Y-126198000D01*
X149462997Y-126548000D01*
G37*
G36*
X152462997Y-126548000D02*
G01*
X151582997Y-126548000D01*
X151582997Y-126198000D01*
X152462997Y-126198000D01*
X152462997Y-126548000D01*
G37*
G36*
X149462997Y-126048000D02*
G01*
X148582997Y-126048000D01*
X148582997Y-125698000D01*
X149462997Y-125698000D01*
X149462997Y-126048000D01*
G37*
G36*
X152462997Y-126048000D02*
G01*
X151582997Y-126048000D01*
X151582997Y-125698000D01*
X152462997Y-125698000D01*
X152462997Y-126048000D01*
G37*
G36*
X149947997Y-125563000D02*
G01*
X149597997Y-125563000D01*
X149597997Y-124683000D01*
X149947997Y-124683000D01*
X149947997Y-125563000D01*
G37*
G36*
X150447997Y-125563000D02*
G01*
X150097997Y-125563000D01*
X150097997Y-124683000D01*
X150447997Y-124683000D01*
X150447997Y-125563000D01*
G37*
G36*
X150947997Y-125563000D02*
G01*
X150597997Y-125563000D01*
X150597997Y-124683000D01*
X150947997Y-124683000D01*
X150947997Y-125563000D01*
G37*
G36*
X151447997Y-125563000D02*
G01*
X151097997Y-125563000D01*
X151097997Y-124683000D01*
X151447997Y-124683000D01*
X151447997Y-125563000D01*
G37*
%TO.C,U15*%
G36*
X187165476Y-65299776D02*
G01*
X186815476Y-65299776D01*
X186815476Y-64419776D01*
X187165476Y-64419776D01*
X187165476Y-65299776D01*
G37*
G36*
X187665476Y-65299776D02*
G01*
X187315476Y-65299776D01*
X187315476Y-64419776D01*
X187665476Y-64419776D01*
X187665476Y-65299776D01*
G37*
G36*
X188165476Y-65299776D02*
G01*
X187815476Y-65299776D01*
X187815476Y-64419776D01*
X188165476Y-64419776D01*
X188165476Y-65299776D01*
G37*
G36*
X188665476Y-65299776D02*
G01*
X188315476Y-65299776D01*
X188315476Y-64419776D01*
X188665476Y-64419776D01*
X188665476Y-65299776D01*
G37*
G36*
X186680476Y-64284776D02*
G01*
X185800476Y-64284776D01*
X185800476Y-63934776D01*
X186680476Y-63934776D01*
X186680476Y-64284776D01*
G37*
G36*
X189680476Y-64284776D02*
G01*
X188800476Y-64284776D01*
X188800476Y-63934776D01*
X189680476Y-63934776D01*
X189680476Y-64284776D01*
G37*
G36*
X186680476Y-63784776D02*
G01*
X185800476Y-63784776D01*
X185800476Y-63434776D01*
X186680476Y-63434776D01*
X186680476Y-63784776D01*
G37*
G36*
X189680476Y-63784776D02*
G01*
X188800476Y-63784776D01*
X188800476Y-63434776D01*
X189680476Y-63434776D01*
X189680476Y-63784776D01*
G37*
G36*
X186680476Y-63284776D02*
G01*
X185800476Y-63284776D01*
X185800476Y-62934776D01*
X186680476Y-62934776D01*
X186680476Y-63284776D01*
G37*
G36*
X189680476Y-63284776D02*
G01*
X188800476Y-63284776D01*
X188800476Y-62934776D01*
X189680476Y-62934776D01*
X189680476Y-63284776D01*
G37*
G36*
X186680476Y-62784776D02*
G01*
X185800476Y-62784776D01*
X185800476Y-62434776D01*
X186680476Y-62434776D01*
X186680476Y-62784776D01*
G37*
G36*
X189680476Y-62784776D02*
G01*
X188800476Y-62784776D01*
X188800476Y-62434776D01*
X189680476Y-62434776D01*
X189680476Y-62784776D01*
G37*
G36*
X187165476Y-62299776D02*
G01*
X186815476Y-62299776D01*
X186815476Y-61419776D01*
X187165476Y-61419776D01*
X187165476Y-62299776D01*
G37*
G36*
X187665476Y-62299776D02*
G01*
X187315476Y-62299776D01*
X187315476Y-61419776D01*
X187665476Y-61419776D01*
X187665476Y-62299776D01*
G37*
G36*
X188165476Y-62299776D02*
G01*
X187815476Y-62299776D01*
X187815476Y-61419776D01*
X188165476Y-61419776D01*
X188165476Y-62299776D01*
G37*
G36*
X188665476Y-62299776D02*
G01*
X188315476Y-62299776D01*
X188315476Y-61419776D01*
X188665476Y-61419776D01*
X188665476Y-62299776D01*
G37*
%TO.C,U27*%
G36*
X107259999Y-128563000D02*
G01*
X106909999Y-128563000D01*
X106909999Y-127683000D01*
X107259999Y-127683000D01*
X107259999Y-128563000D01*
G37*
G36*
X107759999Y-128563000D02*
G01*
X107409999Y-128563000D01*
X107409999Y-127683000D01*
X107759999Y-127683000D01*
X107759999Y-128563000D01*
G37*
G36*
X108259999Y-128563000D02*
G01*
X107909999Y-128563000D01*
X107909999Y-127683000D01*
X108259999Y-127683000D01*
X108259999Y-128563000D01*
G37*
G36*
X108759999Y-128563000D02*
G01*
X108409999Y-128563000D01*
X108409999Y-127683000D01*
X108759999Y-127683000D01*
X108759999Y-128563000D01*
G37*
G36*
X106774999Y-127548000D02*
G01*
X105894999Y-127548000D01*
X105894999Y-127198000D01*
X106774999Y-127198000D01*
X106774999Y-127548000D01*
G37*
G36*
X109774999Y-127548000D02*
G01*
X108894999Y-127548000D01*
X108894999Y-127198000D01*
X109774999Y-127198000D01*
X109774999Y-127548000D01*
G37*
G36*
X106774999Y-127048000D02*
G01*
X105894999Y-127048000D01*
X105894999Y-126698000D01*
X106774999Y-126698000D01*
X106774999Y-127048000D01*
G37*
G36*
X109774999Y-127048000D02*
G01*
X108894999Y-127048000D01*
X108894999Y-126698000D01*
X109774999Y-126698000D01*
X109774999Y-127048000D01*
G37*
G36*
X106774999Y-126548000D02*
G01*
X105894999Y-126548000D01*
X105894999Y-126198000D01*
X106774999Y-126198000D01*
X106774999Y-126548000D01*
G37*
G36*
X109774999Y-126548000D02*
G01*
X108894999Y-126548000D01*
X108894999Y-126198000D01*
X109774999Y-126198000D01*
X109774999Y-126548000D01*
G37*
G36*
X106774999Y-126048000D02*
G01*
X105894999Y-126048000D01*
X105894999Y-125698000D01*
X106774999Y-125698000D01*
X106774999Y-126048000D01*
G37*
G36*
X109774999Y-126048000D02*
G01*
X108894999Y-126048000D01*
X108894999Y-125698000D01*
X109774999Y-125698000D01*
X109774999Y-126048000D01*
G37*
G36*
X107259999Y-125563000D02*
G01*
X106909999Y-125563000D01*
X106909999Y-124683000D01*
X107259999Y-124683000D01*
X107259999Y-125563000D01*
G37*
G36*
X107759999Y-125563000D02*
G01*
X107409999Y-125563000D01*
X107409999Y-124683000D01*
X107759999Y-124683000D01*
X107759999Y-125563000D01*
G37*
G36*
X108259999Y-125563000D02*
G01*
X107909999Y-125563000D01*
X107909999Y-124683000D01*
X108259999Y-124683000D01*
X108259999Y-125563000D01*
G37*
G36*
X108759999Y-125563000D02*
G01*
X108409999Y-125563000D01*
X108409999Y-124683000D01*
X108759999Y-124683000D01*
X108759999Y-125563000D01*
G37*
%TO.C,U22*%
G36*
X179060522Y-96936062D02*
G01*
X178710522Y-96936062D01*
X178710522Y-96056062D01*
X179060522Y-96056062D01*
X179060522Y-96936062D01*
G37*
G36*
X179560522Y-96936062D02*
G01*
X179210522Y-96936062D01*
X179210522Y-96056062D01*
X179560522Y-96056062D01*
X179560522Y-96936062D01*
G37*
G36*
X180060522Y-96936062D02*
G01*
X179710522Y-96936062D01*
X179710522Y-96056062D01*
X180060522Y-96056062D01*
X180060522Y-96936062D01*
G37*
G36*
X180560522Y-96936062D02*
G01*
X180210522Y-96936062D01*
X180210522Y-96056062D01*
X180560522Y-96056062D01*
X180560522Y-96936062D01*
G37*
G36*
X178575522Y-95921062D02*
G01*
X177695522Y-95921062D01*
X177695522Y-95571062D01*
X178575522Y-95571062D01*
X178575522Y-95921062D01*
G37*
G36*
X181575522Y-95921062D02*
G01*
X180695522Y-95921062D01*
X180695522Y-95571062D01*
X181575522Y-95571062D01*
X181575522Y-95921062D01*
G37*
G36*
X178575522Y-95421062D02*
G01*
X177695522Y-95421062D01*
X177695522Y-95071062D01*
X178575522Y-95071062D01*
X178575522Y-95421062D01*
G37*
G36*
X181575522Y-95421062D02*
G01*
X180695522Y-95421062D01*
X180695522Y-95071062D01*
X181575522Y-95071062D01*
X181575522Y-95421062D01*
G37*
G36*
X178575522Y-94921062D02*
G01*
X177695522Y-94921062D01*
X177695522Y-94571062D01*
X178575522Y-94571062D01*
X178575522Y-94921062D01*
G37*
G36*
X181575522Y-94921062D02*
G01*
X180695522Y-94921062D01*
X180695522Y-94571062D01*
X181575522Y-94571062D01*
X181575522Y-94921062D01*
G37*
G36*
X178575522Y-94421062D02*
G01*
X177695522Y-94421062D01*
X177695522Y-94071062D01*
X178575522Y-94071062D01*
X178575522Y-94421062D01*
G37*
G36*
X181575522Y-94421062D02*
G01*
X180695522Y-94421062D01*
X180695522Y-94071062D01*
X181575522Y-94071062D01*
X181575522Y-94421062D01*
G37*
G36*
X179060522Y-93936062D02*
G01*
X178710522Y-93936062D01*
X178710522Y-93056062D01*
X179060522Y-93056062D01*
X179060522Y-93936062D01*
G37*
G36*
X179560522Y-93936062D02*
G01*
X179210522Y-93936062D01*
X179210522Y-93056062D01*
X179560522Y-93056062D01*
X179560522Y-93936062D01*
G37*
G36*
X180060522Y-93936062D02*
G01*
X179710522Y-93936062D01*
X179710522Y-93056062D01*
X180060522Y-93056062D01*
X180060522Y-93936062D01*
G37*
G36*
X180560522Y-93936062D02*
G01*
X180210522Y-93936062D01*
X180210522Y-93056062D01*
X180560522Y-93056062D01*
X180560522Y-93936062D01*
G37*
%TO.C,U3*%
G36*
X108147154Y-34283296D02*
G01*
X107797154Y-34283296D01*
X107797154Y-33403296D01*
X108147154Y-33403296D01*
X108147154Y-34283296D01*
G37*
G36*
X108647154Y-34283296D02*
G01*
X108297154Y-34283296D01*
X108297154Y-33403296D01*
X108647154Y-33403296D01*
X108647154Y-34283296D01*
G37*
G36*
X109147154Y-34283296D02*
G01*
X108797154Y-34283296D01*
X108797154Y-33403296D01*
X109147154Y-33403296D01*
X109147154Y-34283296D01*
G37*
G36*
X109647154Y-34283296D02*
G01*
X109297154Y-34283296D01*
X109297154Y-33403296D01*
X109647154Y-33403296D01*
X109647154Y-34283296D01*
G37*
G36*
X107662154Y-33268296D02*
G01*
X106782154Y-33268296D01*
X106782154Y-32918296D01*
X107662154Y-32918296D01*
X107662154Y-33268296D01*
G37*
G36*
X110662154Y-33268296D02*
G01*
X109782154Y-33268296D01*
X109782154Y-32918296D01*
X110662154Y-32918296D01*
X110662154Y-33268296D01*
G37*
G36*
X107662154Y-32768296D02*
G01*
X106782154Y-32768296D01*
X106782154Y-32418296D01*
X107662154Y-32418296D01*
X107662154Y-32768296D01*
G37*
G36*
X110662154Y-32768296D02*
G01*
X109782154Y-32768296D01*
X109782154Y-32418296D01*
X110662154Y-32418296D01*
X110662154Y-32768296D01*
G37*
G36*
X107662154Y-32268296D02*
G01*
X106782154Y-32268296D01*
X106782154Y-31918296D01*
X107662154Y-31918296D01*
X107662154Y-32268296D01*
G37*
G36*
X110662154Y-32268296D02*
G01*
X109782154Y-32268296D01*
X109782154Y-31918296D01*
X110662154Y-31918296D01*
X110662154Y-32268296D01*
G37*
G36*
X107662154Y-31768296D02*
G01*
X106782154Y-31768296D01*
X106782154Y-31418296D01*
X107662154Y-31418296D01*
X107662154Y-31768296D01*
G37*
G36*
X110662154Y-31768296D02*
G01*
X109782154Y-31768296D01*
X109782154Y-31418296D01*
X110662154Y-31418296D01*
X110662154Y-31768296D01*
G37*
G36*
X108147154Y-31283296D02*
G01*
X107797154Y-31283296D01*
X107797154Y-30403296D01*
X108147154Y-30403296D01*
X108147154Y-31283296D01*
G37*
G36*
X108647154Y-31283296D02*
G01*
X108297154Y-31283296D01*
X108297154Y-30403296D01*
X108647154Y-30403296D01*
X108647154Y-31283296D01*
G37*
G36*
X109147154Y-31283296D02*
G01*
X108797154Y-31283296D01*
X108797154Y-30403296D01*
X109147154Y-30403296D01*
X109147154Y-31283296D01*
G37*
G36*
X109647154Y-31283296D02*
G01*
X109297154Y-31283296D01*
X109297154Y-30403296D01*
X109647154Y-30403296D01*
X109647154Y-31283296D01*
G37*
%TO.C,U12*%
G36*
X123138762Y-65299776D02*
G01*
X122788762Y-65299776D01*
X122788762Y-64419776D01*
X123138762Y-64419776D01*
X123138762Y-65299776D01*
G37*
G36*
X123638762Y-65299776D02*
G01*
X123288762Y-65299776D01*
X123288762Y-64419776D01*
X123638762Y-64419776D01*
X123638762Y-65299776D01*
G37*
G36*
X124138762Y-65299776D02*
G01*
X123788762Y-65299776D01*
X123788762Y-64419776D01*
X124138762Y-64419776D01*
X124138762Y-65299776D01*
G37*
G36*
X124638762Y-65299776D02*
G01*
X124288762Y-65299776D01*
X124288762Y-64419776D01*
X124638762Y-64419776D01*
X124638762Y-65299776D01*
G37*
G36*
X122653762Y-64284776D02*
G01*
X121773762Y-64284776D01*
X121773762Y-63934776D01*
X122653762Y-63934776D01*
X122653762Y-64284776D01*
G37*
G36*
X125653762Y-64284776D02*
G01*
X124773762Y-64284776D01*
X124773762Y-63934776D01*
X125653762Y-63934776D01*
X125653762Y-64284776D01*
G37*
G36*
X122653762Y-63784776D02*
G01*
X121773762Y-63784776D01*
X121773762Y-63434776D01*
X122653762Y-63434776D01*
X122653762Y-63784776D01*
G37*
G36*
X125653762Y-63784776D02*
G01*
X124773762Y-63784776D01*
X124773762Y-63434776D01*
X125653762Y-63434776D01*
X125653762Y-63784776D01*
G37*
G36*
X122653762Y-63284776D02*
G01*
X121773762Y-63284776D01*
X121773762Y-62934776D01*
X122653762Y-62934776D01*
X122653762Y-63284776D01*
G37*
G36*
X125653762Y-63284776D02*
G01*
X124773762Y-63284776D01*
X124773762Y-62934776D01*
X125653762Y-62934776D01*
X125653762Y-63284776D01*
G37*
G36*
X122653762Y-62784776D02*
G01*
X121773762Y-62784776D01*
X121773762Y-62434776D01*
X122653762Y-62434776D01*
X122653762Y-62784776D01*
G37*
G36*
X125653762Y-62784776D02*
G01*
X124773762Y-62784776D01*
X124773762Y-62434776D01*
X125653762Y-62434776D01*
X125653762Y-62784776D01*
G37*
G36*
X123138762Y-62299776D02*
G01*
X122788762Y-62299776D01*
X122788762Y-61419776D01*
X123138762Y-61419776D01*
X123138762Y-62299776D01*
G37*
G36*
X123638762Y-62299776D02*
G01*
X123288762Y-62299776D01*
X123288762Y-61419776D01*
X123638762Y-61419776D01*
X123638762Y-62299776D01*
G37*
G36*
X124138762Y-62299776D02*
G01*
X123788762Y-62299776D01*
X123788762Y-61419776D01*
X124138762Y-61419776D01*
X124138762Y-62299776D01*
G37*
G36*
X124638762Y-62299776D02*
G01*
X124288762Y-62299776D01*
X124288762Y-61419776D01*
X124638762Y-61419776D01*
X124638762Y-62299776D01*
G37*
%TO.C,U30*%
G36*
X171291996Y-128563000D02*
G01*
X170941996Y-128563000D01*
X170941996Y-127683000D01*
X171291996Y-127683000D01*
X171291996Y-128563000D01*
G37*
G36*
X171791996Y-128563000D02*
G01*
X171441996Y-128563000D01*
X171441996Y-127683000D01*
X171791996Y-127683000D01*
X171791996Y-128563000D01*
G37*
G36*
X172291996Y-128563000D02*
G01*
X171941996Y-128563000D01*
X171941996Y-127683000D01*
X172291996Y-127683000D01*
X172291996Y-128563000D01*
G37*
G36*
X172791996Y-128563000D02*
G01*
X172441996Y-128563000D01*
X172441996Y-127683000D01*
X172791996Y-127683000D01*
X172791996Y-128563000D01*
G37*
G36*
X170806996Y-127548000D02*
G01*
X169926996Y-127548000D01*
X169926996Y-127198000D01*
X170806996Y-127198000D01*
X170806996Y-127548000D01*
G37*
G36*
X173806996Y-127548000D02*
G01*
X172926996Y-127548000D01*
X172926996Y-127198000D01*
X173806996Y-127198000D01*
X173806996Y-127548000D01*
G37*
G36*
X170806996Y-127048000D02*
G01*
X169926996Y-127048000D01*
X169926996Y-126698000D01*
X170806996Y-126698000D01*
X170806996Y-127048000D01*
G37*
G36*
X173806996Y-127048000D02*
G01*
X172926996Y-127048000D01*
X172926996Y-126698000D01*
X173806996Y-126698000D01*
X173806996Y-127048000D01*
G37*
G36*
X170806996Y-126548000D02*
G01*
X169926996Y-126548000D01*
X169926996Y-126198000D01*
X170806996Y-126198000D01*
X170806996Y-126548000D01*
G37*
G36*
X173806996Y-126548000D02*
G01*
X172926996Y-126548000D01*
X172926996Y-126198000D01*
X173806996Y-126198000D01*
X173806996Y-126548000D01*
G37*
G36*
X170806996Y-126048000D02*
G01*
X169926996Y-126048000D01*
X169926996Y-125698000D01*
X170806996Y-125698000D01*
X170806996Y-126048000D01*
G37*
G36*
X173806996Y-126048000D02*
G01*
X172926996Y-126048000D01*
X172926996Y-125698000D01*
X173806996Y-125698000D01*
X173806996Y-126048000D01*
G37*
G36*
X171291996Y-125563000D02*
G01*
X170941996Y-125563000D01*
X170941996Y-124683000D01*
X171291996Y-124683000D01*
X171291996Y-125563000D01*
G37*
G36*
X171791996Y-125563000D02*
G01*
X171441996Y-125563000D01*
X171441996Y-124683000D01*
X171791996Y-124683000D01*
X171791996Y-125563000D01*
G37*
G36*
X172291996Y-125563000D02*
G01*
X171941996Y-125563000D01*
X171941996Y-124683000D01*
X172291996Y-124683000D01*
X172291996Y-125563000D01*
G37*
G36*
X172791996Y-125563000D02*
G01*
X172441996Y-125563000D01*
X172441996Y-124683000D01*
X172791996Y-124683000D01*
X172791996Y-125563000D01*
G37*
%TO.C,U7*%
G36*
X193503462Y-34283296D02*
G01*
X193153462Y-34283296D01*
X193153462Y-33403296D01*
X193503462Y-33403296D01*
X193503462Y-34283296D01*
G37*
G36*
X194003462Y-34283296D02*
G01*
X193653462Y-34283296D01*
X193653462Y-33403296D01*
X194003462Y-33403296D01*
X194003462Y-34283296D01*
G37*
G36*
X194503462Y-34283296D02*
G01*
X194153462Y-34283296D01*
X194153462Y-33403296D01*
X194503462Y-33403296D01*
X194503462Y-34283296D01*
G37*
G36*
X195003462Y-34283296D02*
G01*
X194653462Y-34283296D01*
X194653462Y-33403296D01*
X195003462Y-33403296D01*
X195003462Y-34283296D01*
G37*
G36*
X193018462Y-33268296D02*
G01*
X192138462Y-33268296D01*
X192138462Y-32918296D01*
X193018462Y-32918296D01*
X193018462Y-33268296D01*
G37*
G36*
X196018462Y-33268296D02*
G01*
X195138462Y-33268296D01*
X195138462Y-32918296D01*
X196018462Y-32918296D01*
X196018462Y-33268296D01*
G37*
G36*
X193018462Y-32768296D02*
G01*
X192138462Y-32768296D01*
X192138462Y-32418296D01*
X193018462Y-32418296D01*
X193018462Y-32768296D01*
G37*
G36*
X196018462Y-32768296D02*
G01*
X195138462Y-32768296D01*
X195138462Y-32418296D01*
X196018462Y-32418296D01*
X196018462Y-32768296D01*
G37*
G36*
X193018462Y-32268296D02*
G01*
X192138462Y-32268296D01*
X192138462Y-31918296D01*
X193018462Y-31918296D01*
X193018462Y-32268296D01*
G37*
G36*
X196018462Y-32268296D02*
G01*
X195138462Y-32268296D01*
X195138462Y-31918296D01*
X196018462Y-31918296D01*
X196018462Y-32268296D01*
G37*
G36*
X193018462Y-31768296D02*
G01*
X192138462Y-31768296D01*
X192138462Y-31418296D01*
X193018462Y-31418296D01*
X193018462Y-31768296D01*
G37*
G36*
X196018462Y-31768296D02*
G01*
X195138462Y-31768296D01*
X195138462Y-31418296D01*
X196018462Y-31418296D01*
X196018462Y-31768296D01*
G37*
G36*
X193503462Y-31283296D02*
G01*
X193153462Y-31283296D01*
X193153462Y-30403296D01*
X193503462Y-30403296D01*
X193503462Y-31283296D01*
G37*
G36*
X194003462Y-31283296D02*
G01*
X193653462Y-31283296D01*
X193653462Y-30403296D01*
X194003462Y-30403296D01*
X194003462Y-31283296D01*
G37*
G36*
X194503462Y-31283296D02*
G01*
X194153462Y-31283296D01*
X194153462Y-30403296D01*
X194503462Y-30403296D01*
X194503462Y-31283296D01*
G37*
G36*
X195003462Y-31283296D02*
G01*
X194653462Y-31283296D01*
X194653462Y-30403296D01*
X195003462Y-30403296D01*
X195003462Y-31283296D01*
G37*
%TO.C,U16*%
G36*
X208507718Y-65299776D02*
G01*
X208157718Y-65299776D01*
X208157718Y-64419776D01*
X208507718Y-64419776D01*
X208507718Y-65299776D01*
G37*
G36*
X209007718Y-65299776D02*
G01*
X208657718Y-65299776D01*
X208657718Y-64419776D01*
X209007718Y-64419776D01*
X209007718Y-65299776D01*
G37*
G36*
X209507718Y-65299776D02*
G01*
X209157718Y-65299776D01*
X209157718Y-64419776D01*
X209507718Y-64419776D01*
X209507718Y-65299776D01*
G37*
G36*
X210007718Y-65299776D02*
G01*
X209657718Y-65299776D01*
X209657718Y-64419776D01*
X210007718Y-64419776D01*
X210007718Y-65299776D01*
G37*
G36*
X208022718Y-64284776D02*
G01*
X207142718Y-64284776D01*
X207142718Y-63934776D01*
X208022718Y-63934776D01*
X208022718Y-64284776D01*
G37*
G36*
X211022718Y-64284776D02*
G01*
X210142718Y-64284776D01*
X210142718Y-63934776D01*
X211022718Y-63934776D01*
X211022718Y-64284776D01*
G37*
G36*
X208022718Y-63784776D02*
G01*
X207142718Y-63784776D01*
X207142718Y-63434776D01*
X208022718Y-63434776D01*
X208022718Y-63784776D01*
G37*
G36*
X211022718Y-63784776D02*
G01*
X210142718Y-63784776D01*
X210142718Y-63434776D01*
X211022718Y-63434776D01*
X211022718Y-63784776D01*
G37*
G36*
X208022718Y-63284776D02*
G01*
X207142718Y-63284776D01*
X207142718Y-62934776D01*
X208022718Y-62934776D01*
X208022718Y-63284776D01*
G37*
G36*
X211022718Y-63284776D02*
G01*
X210142718Y-63284776D01*
X210142718Y-62934776D01*
X211022718Y-62934776D01*
X211022718Y-63284776D01*
G37*
G36*
X208022718Y-62784776D02*
G01*
X207142718Y-62784776D01*
X207142718Y-62434776D01*
X208022718Y-62434776D01*
X208022718Y-62784776D01*
G37*
G36*
X211022718Y-62784776D02*
G01*
X210142718Y-62784776D01*
X210142718Y-62434776D01*
X211022718Y-62434776D01*
X211022718Y-62784776D01*
G37*
G36*
X208507718Y-62299776D02*
G01*
X208157718Y-62299776D01*
X208157718Y-61419776D01*
X208507718Y-61419776D01*
X208507718Y-62299776D01*
G37*
G36*
X209007718Y-62299776D02*
G01*
X208657718Y-62299776D01*
X208657718Y-61419776D01*
X209007718Y-61419776D01*
X209007718Y-62299776D01*
G37*
G36*
X209507718Y-62299776D02*
G01*
X209157718Y-62299776D01*
X209157718Y-61419776D01*
X209507718Y-61419776D01*
X209507718Y-62299776D01*
G37*
G36*
X210007718Y-62299776D02*
G01*
X209657718Y-62299776D01*
X209657718Y-61419776D01*
X210007718Y-61419776D01*
X210007718Y-62299776D01*
G37*
%TO.C,U25*%
G36*
X64572001Y-128563000D02*
G01*
X64222001Y-128563000D01*
X64222001Y-127683000D01*
X64572001Y-127683000D01*
X64572001Y-128563000D01*
G37*
G36*
X65072001Y-128563000D02*
G01*
X64722001Y-128563000D01*
X64722001Y-127683000D01*
X65072001Y-127683000D01*
X65072001Y-128563000D01*
G37*
G36*
X65572001Y-128563000D02*
G01*
X65222001Y-128563000D01*
X65222001Y-127683000D01*
X65572001Y-127683000D01*
X65572001Y-128563000D01*
G37*
G36*
X66072001Y-128563000D02*
G01*
X65722001Y-128563000D01*
X65722001Y-127683000D01*
X66072001Y-127683000D01*
X66072001Y-128563000D01*
G37*
G36*
X64087001Y-127548000D02*
G01*
X63207001Y-127548000D01*
X63207001Y-127198000D01*
X64087001Y-127198000D01*
X64087001Y-127548000D01*
G37*
G36*
X67087001Y-127548000D02*
G01*
X66207001Y-127548000D01*
X66207001Y-127198000D01*
X67087001Y-127198000D01*
X67087001Y-127548000D01*
G37*
G36*
X64087001Y-127048000D02*
G01*
X63207001Y-127048000D01*
X63207001Y-126698000D01*
X64087001Y-126698000D01*
X64087001Y-127048000D01*
G37*
G36*
X67087001Y-127048000D02*
G01*
X66207001Y-127048000D01*
X66207001Y-126698000D01*
X67087001Y-126698000D01*
X67087001Y-127048000D01*
G37*
G36*
X64087001Y-126548000D02*
G01*
X63207001Y-126548000D01*
X63207001Y-126198000D01*
X64087001Y-126198000D01*
X64087001Y-126548000D01*
G37*
G36*
X67087001Y-126548000D02*
G01*
X66207001Y-126548000D01*
X66207001Y-126198000D01*
X67087001Y-126198000D01*
X67087001Y-126548000D01*
G37*
G36*
X64087001Y-126048000D02*
G01*
X63207001Y-126048000D01*
X63207001Y-125698000D01*
X64087001Y-125698000D01*
X64087001Y-126048000D01*
G37*
G36*
X67087001Y-126048000D02*
G01*
X66207001Y-126048000D01*
X66207001Y-125698000D01*
X67087001Y-125698000D01*
X67087001Y-126048000D01*
G37*
G36*
X64572001Y-125563000D02*
G01*
X64222001Y-125563000D01*
X64222001Y-124683000D01*
X64572001Y-124683000D01*
X64572001Y-125563000D01*
G37*
G36*
X65072001Y-125563000D02*
G01*
X64722001Y-125563000D01*
X64722001Y-124683000D01*
X65072001Y-124683000D01*
X65072001Y-125563000D01*
G37*
G36*
X65572001Y-125563000D02*
G01*
X65222001Y-125563000D01*
X65222001Y-124683000D01*
X65572001Y-124683000D01*
X65572001Y-125563000D01*
G37*
G36*
X66072001Y-125563000D02*
G01*
X65722001Y-125563000D01*
X65722001Y-124683000D01*
X66072001Y-124683000D01*
X66072001Y-125563000D01*
G37*
%TO.C,U17*%
G36*
X72322507Y-96936062D02*
G01*
X71972507Y-96936062D01*
X71972507Y-96056062D01*
X72322507Y-96056062D01*
X72322507Y-96936062D01*
G37*
G36*
X72822507Y-96936062D02*
G01*
X72472507Y-96936062D01*
X72472507Y-96056062D01*
X72822507Y-96056062D01*
X72822507Y-96936062D01*
G37*
G36*
X73322507Y-96936062D02*
G01*
X72972507Y-96936062D01*
X72972507Y-96056062D01*
X73322507Y-96056062D01*
X73322507Y-96936062D01*
G37*
G36*
X73822507Y-96936062D02*
G01*
X73472507Y-96936062D01*
X73472507Y-96056062D01*
X73822507Y-96056062D01*
X73822507Y-96936062D01*
G37*
G36*
X71837507Y-95921062D02*
G01*
X70957507Y-95921062D01*
X70957507Y-95571062D01*
X71837507Y-95571062D01*
X71837507Y-95921062D01*
G37*
G36*
X74837507Y-95921062D02*
G01*
X73957507Y-95921062D01*
X73957507Y-95571062D01*
X74837507Y-95571062D01*
X74837507Y-95921062D01*
G37*
G36*
X71837507Y-95421062D02*
G01*
X70957507Y-95421062D01*
X70957507Y-95071062D01*
X71837507Y-95071062D01*
X71837507Y-95421062D01*
G37*
G36*
X74837507Y-95421062D02*
G01*
X73957507Y-95421062D01*
X73957507Y-95071062D01*
X74837507Y-95071062D01*
X74837507Y-95421062D01*
G37*
G36*
X71837507Y-94921062D02*
G01*
X70957507Y-94921062D01*
X70957507Y-94571062D01*
X71837507Y-94571062D01*
X71837507Y-94921062D01*
G37*
G36*
X74837507Y-94921062D02*
G01*
X73957507Y-94921062D01*
X73957507Y-94571062D01*
X74837507Y-94571062D01*
X74837507Y-94921062D01*
G37*
G36*
X71837507Y-94421062D02*
G01*
X70957507Y-94421062D01*
X70957507Y-94071062D01*
X71837507Y-94071062D01*
X71837507Y-94421062D01*
G37*
G36*
X74837507Y-94421062D02*
G01*
X73957507Y-94421062D01*
X73957507Y-94071062D01*
X74837507Y-94071062D01*
X74837507Y-94421062D01*
G37*
G36*
X72322507Y-93936062D02*
G01*
X71972507Y-93936062D01*
X71972507Y-93056062D01*
X72322507Y-93056062D01*
X72322507Y-93936062D01*
G37*
G36*
X72822507Y-93936062D02*
G01*
X72472507Y-93936062D01*
X72472507Y-93056062D01*
X72822507Y-93056062D01*
X72822507Y-93936062D01*
G37*
G36*
X73322507Y-93936062D02*
G01*
X72972507Y-93936062D01*
X72972507Y-93056062D01*
X73322507Y-93056062D01*
X73322507Y-93936062D01*
G37*
G36*
X73822507Y-93936062D02*
G01*
X73472507Y-93936062D01*
X73472507Y-93056062D01*
X73822507Y-93056062D01*
X73822507Y-93936062D01*
G37*
%TO.C,U24*%
G36*
X221755731Y-96936062D02*
G01*
X221405731Y-96936062D01*
X221405731Y-96056062D01*
X221755731Y-96056062D01*
X221755731Y-96936062D01*
G37*
G36*
X222255731Y-96936062D02*
G01*
X221905731Y-96936062D01*
X221905731Y-96056062D01*
X222255731Y-96056062D01*
X222255731Y-96936062D01*
G37*
G36*
X222755731Y-96936062D02*
G01*
X222405731Y-96936062D01*
X222405731Y-96056062D01*
X222755731Y-96056062D01*
X222755731Y-96936062D01*
G37*
G36*
X223255731Y-96936062D02*
G01*
X222905731Y-96936062D01*
X222905731Y-96056062D01*
X223255731Y-96056062D01*
X223255731Y-96936062D01*
G37*
G36*
X221270731Y-95921062D02*
G01*
X220390731Y-95921062D01*
X220390731Y-95571062D01*
X221270731Y-95571062D01*
X221270731Y-95921062D01*
G37*
G36*
X224270731Y-95921062D02*
G01*
X223390731Y-95921062D01*
X223390731Y-95571062D01*
X224270731Y-95571062D01*
X224270731Y-95921062D01*
G37*
G36*
X221270731Y-95421062D02*
G01*
X220390731Y-95421062D01*
X220390731Y-95071062D01*
X221270731Y-95071062D01*
X221270731Y-95421062D01*
G37*
G36*
X224270731Y-95421062D02*
G01*
X223390731Y-95421062D01*
X223390731Y-95071062D01*
X224270731Y-95071062D01*
X224270731Y-95421062D01*
G37*
G36*
X221270731Y-94921062D02*
G01*
X220390731Y-94921062D01*
X220390731Y-94571062D01*
X221270731Y-94571062D01*
X221270731Y-94921062D01*
G37*
G36*
X224270731Y-94921062D02*
G01*
X223390731Y-94921062D01*
X223390731Y-94571062D01*
X224270731Y-94571062D01*
X224270731Y-94921062D01*
G37*
G36*
X221270731Y-94421062D02*
G01*
X220390731Y-94421062D01*
X220390731Y-94071062D01*
X221270731Y-94071062D01*
X221270731Y-94421062D01*
G37*
G36*
X224270731Y-94421062D02*
G01*
X223390731Y-94421062D01*
X223390731Y-94071062D01*
X224270731Y-94071062D01*
X224270731Y-94421062D01*
G37*
G36*
X221755731Y-93936062D02*
G01*
X221405731Y-93936062D01*
X221405731Y-93056062D01*
X221755731Y-93056062D01*
X221755731Y-93936062D01*
G37*
G36*
X222255731Y-93936062D02*
G01*
X221905731Y-93936062D01*
X221905731Y-93056062D01*
X222255731Y-93056062D01*
X222255731Y-93936062D01*
G37*
G36*
X222755731Y-93936062D02*
G01*
X222405731Y-93936062D01*
X222405731Y-93056062D01*
X222755731Y-93056062D01*
X222755731Y-93936062D01*
G37*
G36*
X223255731Y-93936062D02*
G01*
X222905731Y-93936062D01*
X222905731Y-93056062D01*
X223255731Y-93056062D01*
X223255731Y-93936062D01*
G37*
%TD*%
D10*
%TO.C,50*%
X92824086Y-117688858D03*
%TD*%
%TO.C,U$28*%
X179072471Y-23409154D03*
%TD*%
%TO.C,4*%
X115055240Y-23409154D03*
%TD*%
%TO.C,34*%
X100578196Y-86061920D03*
%TD*%
D11*
%TO.C,R1*%
X87630000Y-43942000D03*
D12*
X80009999Y-43941999D03*
%TD*%
D11*
%TO.C,R14*%
X136956800Y-106578400D03*
D12*
X129336799Y-106578399D03*
%TD*%
D13*
%TO.C,FB62*%
X191620995Y-123321000D03*
X189720995Y-123321000D03*
%TD*%
D14*
%TO.C,FB63*%
X216144994Y-123321000D03*
X218044994Y-123321000D03*
%TD*%
D10*
%TO.C,61*%
X208188080Y-117688858D03*
%TD*%
D15*
%TO.C, 26*%
X115454999Y-131703000D03*
X112914999Y-131703000D03*
X110374999Y-131703000D03*
X107834999Y-131703000D03*
X105294999Y-131703000D03*
X102754999Y-131703000D03*
X100214999Y-131703000D03*
%TD*%
D16*
%TO.C,X23*%
X220530731Y-87122062D03*
X224030731Y-87122062D03*
%TD*%
D17*
%TO.C,U21*%
X158287919Y-94996062D03*
%TD*%
D18*
%TO.C,C136*%
X225044000Y-50087000D03*
X225044000Y-53037000D03*
%TD*%
D19*
%TO.C,C90*%
X206825125Y-95438062D03*
X206825125Y-93538062D03*
%TD*%
D13*
%TO.C,C59*%
X182340476Y-60057776D03*
X180440476Y-60057776D03*
%TD*%
D19*
%TO.C,C33*%
X63497048Y-63801776D03*
X63497048Y-61901776D03*
%TD*%
D11*
%TO.C,R20*%
X132904573Y-137718800D03*
D12*
X125284572Y-137718799D03*
%TD*%
D20*
%TO.C,C156*%
X102828604Y-107172299D03*
D11*
X99328605Y-107172300D03*
%TD*%
D13*
%TO.C,FB58*%
X148932997Y-123321000D03*
X147032997Y-123321000D03*
%TD*%
D10*
%TO.C,U$97*%
X194616211Y-86061920D03*
%TD*%
D14*
%TO.C,FB9*%
X152990308Y-29041296D03*
X154890308Y-29041296D03*
%TD*%
D17*
%TO.C,U19*%
X115592713Y-94996062D03*
%TD*%
D11*
%TO.C,R5*%
X195529200Y-43942000D03*
D12*
X187909199Y-43941999D03*
%TD*%
D10*
%TO.C,U$35*%
X221750626Y-23409154D03*
%TD*%
D21*
%TO.C,JE1*%
X244355933Y-52826213D03*
D22*
X244355933Y-50286213D03*
X244355933Y-47746213D03*
X244355933Y-45206213D03*
X244355933Y-42666213D03*
X244355933Y-40126213D03*
X246895933Y-52826213D03*
X246895933Y-50286213D03*
X246895933Y-47746213D03*
X246895933Y-45206213D03*
X246895933Y-42666213D03*
X246895933Y-40126213D03*
%TD*%
D10*
%TO.C,5*%
X123694317Y-23409154D03*
%TD*%
%TO.C,*%
X59677086Y-23409154D03*
%TD*%
D17*
%TO.C,U18*%
X94245110Y-94996062D03*
%TD*%
D19*
%TO.C,C50*%
X150898000Y-63801776D03*
X150898000Y-61901776D03*
%TD*%
D13*
%TO.C,FB40*%
X135350316Y-91694062D03*
X133450316Y-91694062D03*
%TD*%
D17*
%TO.C,U2*%
X87383077Y-32343296D03*
%TD*%
D14*
%TO.C,FB39*%
X138530316Y-91694062D03*
X140430316Y-91694062D03*
%TD*%
%TO.C,FB47*%
X223920731Y-91694062D03*
X225820731Y-91694062D03*
%TD*%
D10*
%TO.C,U$42*%
X53320134Y-54425634D03*
%TD*%
D19*
%TO.C,C49*%
X148866000Y-63801776D03*
X148866000Y-61901776D03*
%TD*%
D10*
%TO.C,U$10*%
X59677086Y-23409154D03*
%TD*%
%TO.C,11*%
X187711548Y-23409154D03*
%TD*%
D16*
%TO.C,X14*%
X185940476Y-55485776D03*
X189440476Y-55485776D03*
%TD*%
D14*
%TO.C,FB31*%
X210672718Y-60057776D03*
X212572718Y-60057776D03*
%TD*%
D16*
%TO.C,X3*%
X128261231Y-24469296D03*
X131761231Y-24469296D03*
%TD*%
D10*
%TO.C,36*%
X121925799Y-86061920D03*
%TD*%
%TO.C,7*%
X145033394Y-23409154D03*
%TD*%
%TO.C,U$128*%
X199544081Y-117688858D03*
%TD*%
%TO.C,U$113*%
X101468085Y-117688858D03*
%TD*%
D17*
%TO.C,U32*%
X214554994Y-126623000D03*
%TD*%
D20*
%TO.C,C165*%
X120339999Y-137683199D03*
D11*
X116840000Y-137683200D03*
%TD*%
%TO.C,R4*%
X173786800Y-43942000D03*
D12*
X166166799Y-43941999D03*
%TD*%
D17*
%TO.C,U14*%
X166398238Y-63359776D03*
%TD*%
D10*
%TO.C,18*%
X87362372Y-54425634D03*
%TD*%
D20*
%TO.C,C167*%
X163011999Y-137683199D03*
D11*
X159512000Y-137683200D03*
%TD*%
D13*
%TO.C,C123*%
X187810995Y-123321000D03*
X185910995Y-123321000D03*
%TD*%
D10*
%TO.C,47*%
X58780087Y-117688858D03*
%TD*%
%TO.C,U$125*%
X165500082Y-117688858D03*
%TD*%
%TO.C,U$122*%
X144156083Y-117688858D03*
%TD*%
D16*
%TO.C,X26*%
X106034999Y-118749000D03*
X109534999Y-118749000D03*
%TD*%
D19*
%TO.C,C70*%
X100087110Y-95438062D03*
X100087110Y-93538062D03*
%TD*%
D21*
%TO.C,JC1*%
X244355933Y-99054213D03*
D22*
X244355933Y-96514213D03*
X244355933Y-93974213D03*
X244355933Y-91434213D03*
X244355933Y-88894213D03*
X244355933Y-86354213D03*
X246895933Y-99054213D03*
X246895933Y-96514213D03*
X246895933Y-93974213D03*
X246895933Y-91434213D03*
X246895933Y-88894213D03*
X246895933Y-86354213D03*
%TD*%
D14*
%TO.C,FB35*%
X95835110Y-91694062D03*
X97735110Y-91694062D03*
%TD*%
D16*
%TO.C,X4*%
X149600308Y-24469296D03*
X153100308Y-24469296D03*
%TD*%
D10*
%TO.C,48*%
X71480087Y-117688858D03*
%TD*%
D23*
%TO.C,*%
X245000000Y-138000000D03*
%TD*%
D10*
%TO.C,49*%
X80124086Y-117688858D03*
%TD*%
D16*
%TO.C,X7*%
X213617540Y-24469296D03*
X217117540Y-24469296D03*
%TD*%
D19*
%TO.C,C77*%
X140750316Y-95438062D03*
X140750316Y-93538062D03*
%TD*%
D24*
%TO.C,C133*%
X227584000Y-123141000D03*
X227584000Y-120191000D03*
%TD*%
D17*
%TO.C,U4*%
X130061231Y-32343296D03*
%TD*%
D14*
%TO.C,C48*%
X128986762Y-60057776D03*
X130886762Y-60057776D03*
%TD*%
D15*
%TO.C, 20*%
X165907919Y-100076062D03*
X163367919Y-100076062D03*
X160827919Y-100076062D03*
X158287919Y-100076062D03*
X155747919Y-100076062D03*
X153207919Y-100076062D03*
X150667919Y-100076062D03*
%TD*%
D13*
%TO.C,C27*%
X188678462Y-29041296D03*
X186778462Y-29041296D03*
%TD*%
D15*
%TO.C, 12*%
X152676000Y-68439776D03*
X150136000Y-68439776D03*
X147596000Y-68439776D03*
X145056000Y-68439776D03*
X142516000Y-68439776D03*
X139976000Y-68439776D03*
X137436000Y-68439776D03*
%TD*%
D13*
%TO.C,C15*%
X124661231Y-29041296D03*
X122761231Y-29041296D03*
%TD*%
D14*
%TO.C,FB15*%
X217007540Y-29041296D03*
X218907540Y-29041296D03*
%TD*%
D19*
%TO.C,C102*%
X92333000Y-127065000D03*
X92333000Y-125165000D03*
%TD*%
D10*
%TO.C,23*%
X138689086Y-54425634D03*
%TD*%
%TO.C,U$92*%
X185968608Y-86061920D03*
%TD*%
D20*
%TO.C,C139*%
X74620955Y-44576999D03*
D11*
X71120956Y-44577000D03*
%TD*%
D25*
%TO.C,J100*%
X53085999Y-93725999D03*
D26*
X53086000Y-98806000D03*
%TD*%
D20*
%TO.C,C154*%
X217685619Y-75679005D03*
D11*
X214185620Y-75679006D03*
%TD*%
D19*
%TO.C,C2*%
X71886000Y-32785296D03*
X71886000Y-30885296D03*
%TD*%
D14*
%TO.C,FB21*%
X103961524Y-60057776D03*
X105861524Y-60057776D03*
%TD*%
D10*
%TO.C,U$99*%
X228663817Y-86061920D03*
%TD*%
D17*
%TO.C,U13*%
X145056000Y-63359776D03*
%TD*%
D14*
%TO.C,C124*%
X198483995Y-123321000D03*
X200383995Y-123321000D03*
%TD*%
D13*
%TO.C,FB8*%
X128471231Y-29041296D03*
X126571231Y-29041296D03*
%TD*%
D14*
%TO.C,C72*%
X99518110Y-91694062D03*
X101418110Y-91694062D03*
%TD*%
D17*
%TO.C,U10*%
X81029286Y-63359776D03*
%TD*%
D20*
%TO.C,C144*%
X181391665Y-44576999D03*
D11*
X177891666Y-44577000D03*
%TD*%
D13*
%TO.C,FB32*%
X207492718Y-60057776D03*
X205592718Y-60057776D03*
%TD*%
D11*
%TO.C,R17*%
X201980800Y-106527600D03*
D12*
X194360799Y-106527599D03*
%TD*%
D17*
%TO.C,U28*%
X129178998Y-126623000D03*
%TD*%
D20*
%TO.C,C157*%
X124182746Y-107172299D03*
D11*
X120682747Y-107172300D03*
%TD*%
D10*
%TO.C,U$76*%
X100578196Y-86061920D03*
%TD*%
D21*
%TO.C,JE2*%
X237235999Y-52831999D03*
D22*
X237235999Y-50291999D03*
X237235999Y-47751999D03*
X237235999Y-45211999D03*
X237235999Y-42671999D03*
X237235999Y-40131999D03*
X239775999Y-52831999D03*
X239775999Y-50291999D03*
X239775999Y-47751999D03*
X239775999Y-45211999D03*
X239775999Y-42671999D03*
X239775999Y-40131999D03*
%TD*%
D14*
%TO.C,C28*%
X199351462Y-29041296D03*
X201251462Y-29041296D03*
%TD*%
D13*
%TO.C,C51*%
X139656000Y-60057776D03*
X137756000Y-60057776D03*
%TD*%
D10*
%TO.C,21*%
X117346848Y-54425634D03*
%TD*%
D13*
%TO.C,FB28*%
X164808238Y-60057776D03*
X162908238Y-60057776D03*
%TD*%
D17*
%TO.C,U5*%
X151400308Y-32343296D03*
%TD*%
D19*
%TO.C,C81*%
X162097919Y-95438062D03*
X162097919Y-93538062D03*
%TD*%
%TO.C,C46*%
X129555762Y-63801776D03*
X129555762Y-61901776D03*
%TD*%
%TO.C,C22*%
X178581385Y-32785296D03*
X178581385Y-30885296D03*
%TD*%
D14*
%TO.C,C80*%
X142213316Y-91694062D03*
X144113316Y-91694062D03*
%TD*%
D13*
%TO.C,FB12*%
X171149385Y-29041296D03*
X169249385Y-29041296D03*
%TD*%
D23*
%TO.C,*%
X53000000Y-138000000D03*
%TD*%
D10*
%TO.C,1*%
X81016163Y-23409154D03*
%TD*%
D23*
%TO.C,*%
X53000000Y-24000000D03*
%TD*%
D19*
%TO.C,C89*%
X204793125Y-95438062D03*
X204793125Y-93538062D03*
%TD*%
D27*
%TO.C,R33*%
X222823500Y-62484000D03*
X219898500Y-62484000D03*
%TD*%
D14*
%TO.C,FB25*%
X146646000Y-60057776D03*
X148546000Y-60057776D03*
%TD*%
D11*
%TO.C,R11*%
X189128400Y-74879200D03*
D12*
X181508399Y-74879199D03*
%TD*%
D10*
%TO.C,U$81*%
X109225799Y-86061920D03*
%TD*%
D13*
%TO.C,C107*%
X102434999Y-123321000D03*
X100534999Y-123321000D03*
%TD*%
D17*
%TO.C,U1*%
X66044000Y-32343296D03*
%TD*%
D28*
%TO.C,R25*%
X229616000Y-34421000D03*
X229616000Y-31496000D03*
%TD*%
D16*
%TO.C,X13*%
X164598238Y-55485776D03*
X168098238Y-55485776D03*
%TD*%
D21*
%TO.C,JD1*%
X244355933Y-75940213D03*
D22*
X244355933Y-73400213D03*
X244355933Y-70860213D03*
X244355933Y-68320213D03*
X244355933Y-65780213D03*
X244355933Y-63240213D03*
X246895933Y-75940213D03*
X246895933Y-73400213D03*
X246895933Y-70860213D03*
X246895933Y-68320213D03*
X246895933Y-65780213D03*
X246895933Y-63240213D03*
%TD*%
D18*
%TO.C,C134*%
X232410000Y-50087000D03*
X232410000Y-53037000D03*
%TD*%
D16*
%TO.C,X27*%
X127378998Y-118749000D03*
X130878998Y-118749000D03*
%TD*%
D10*
%TO.C,58*%
X178200082Y-117688858D03*
%TD*%
D11*
%TO.C,R19*%
X90881200Y-137718800D03*
D12*
X83261199Y-137718799D03*
%TD*%
D10*
%TO.C,25*%
X160031324Y-54425634D03*
%TD*%
D15*
%TO.C, 27*%
X136798998Y-131703000D03*
X134258998Y-131703000D03*
X131718998Y-131703000D03*
X129178998Y-131703000D03*
X126638998Y-131703000D03*
X124098998Y-131703000D03*
X121558998Y-131703000D03*
%TD*%
D10*
%TO.C,29*%
X202715804Y-54425634D03*
%TD*%
D11*
%TO.C,R23*%
X196912573Y-137718800D03*
D12*
X189292572Y-137718799D03*
%TD*%
D10*
%TO.C,59*%
X186844081Y-117688858D03*
%TD*%
D14*
%TO.C,FB61*%
X194800995Y-123321000D03*
X196700995Y-123321000D03*
%TD*%
D20*
%TO.C,C143*%
X160037523Y-44576999D03*
D11*
X156537524Y-44577000D03*
%TD*%
D13*
%TO.C,C35*%
X54287048Y-60057776D03*
X52387048Y-60057776D03*
%TD*%
D19*
%TO.C,C125*%
X218364994Y-127065000D03*
X218364994Y-125165000D03*
%TD*%
D13*
%TO.C,FB34*%
X71307507Y-91694062D03*
X69407507Y-91694062D03*
%TD*%
%TO.C,FB2*%
X64454000Y-29041296D03*
X62554000Y-29041296D03*
%TD*%
D15*
%TO.C, 18*%
X123212713Y-100076062D03*
X120672713Y-100076062D03*
X118132713Y-100076062D03*
X115592713Y-100076062D03*
X113052713Y-100076062D03*
X110512713Y-100076062D03*
X107972713Y-100076062D03*
%TD*%
D19*
%TO.C,C114*%
X156364997Y-127065000D03*
X156364997Y-125165000D03*
%TD*%
D11*
%TO.C,R8*%
X123748800Y-74930000D03*
D12*
X116128799Y-74929999D03*
%TD*%
D13*
%TO.C,C3*%
X60644000Y-29041296D03*
X58744000Y-29041296D03*
%TD*%
D10*
%TO.C,*%
X72377086Y-23409154D03*
%TD*%
%TO.C,37*%
X130573402Y-86061920D03*
%TD*%
D13*
%TO.C,FB6*%
X107132154Y-29041296D03*
X105232154Y-29041296D03*
%TD*%
D14*
%TO.C,FB51*%
X88081000Y-123321000D03*
X89981000Y-123321000D03*
%TD*%
D19*
%TO.C,C78*%
X142782316Y-95438062D03*
X142782316Y-93538062D03*
%TD*%
D15*
%TO.C, 10*%
X109991524Y-68439776D03*
X107451524Y-68439776D03*
X104911524Y-68439776D03*
X102371524Y-68439776D03*
X99831524Y-68439776D03*
X97291524Y-68439776D03*
X94751524Y-68439776D03*
%TD*%
D13*
%TO.C,C115*%
X145122997Y-123321000D03*
X143222997Y-123321000D03*
%TD*%
D10*
%TO.C,26*%
X172731324Y-54425634D03*
%TD*%
D20*
%TO.C,C142*%
X138683381Y-44576999D03*
D11*
X135183382Y-44577000D03*
%TD*%
D27*
%TO.C,R26*%
X222823500Y-69977000D03*
X219898500Y-69977000D03*
%TD*%
D10*
%TO.C,U$32*%
X200411548Y-23409154D03*
%TD*%
D14*
%TO.C,C8*%
X92656077Y-29041296D03*
X94556077Y-29041296D03*
%TD*%
%TO.C,C44*%
X107644524Y-60057776D03*
X109544524Y-60057776D03*
%TD*%
%TO.C,FB59*%
X173456996Y-123321000D03*
X175356996Y-123321000D03*
%TD*%
D10*
%TO.C,17*%
X74662372Y-54425634D03*
%TD*%
D16*
%TO.C,X6*%
X192278462Y-24469296D03*
X195778462Y-24469296D03*
%TD*%
D14*
%TO.C,FB37*%
X117182713Y-91694062D03*
X119082713Y-91694062D03*
%TD*%
D19*
%TO.C,C25*%
X197888462Y-32785296D03*
X197888462Y-30885296D03*
%TD*%
D15*
%TO.C, 21*%
X187255522Y-100076062D03*
X184715522Y-100076062D03*
X182175522Y-100076062D03*
X179635522Y-100076062D03*
X177095522Y-100076062D03*
X174555522Y-100076062D03*
X172015522Y-100076062D03*
%TD*%
D21*
%TO.C,JD2*%
X237235999Y-75945999D03*
D22*
X237235999Y-73405999D03*
X237235999Y-70865999D03*
X237235999Y-68325999D03*
X237235999Y-65785999D03*
X237235999Y-63245999D03*
X239775999Y-75945999D03*
X239775999Y-73405999D03*
X239775999Y-70865999D03*
X239775999Y-68325999D03*
X239775999Y-65785999D03*
X239775999Y-63245999D03*
%TD*%
D16*
%TO.C,X24*%
X63347001Y-118749000D03*
X66847001Y-118749000D03*
%TD*%
D10*
%TO.C,U$74*%
X66530593Y-86061920D03*
%TD*%
D13*
%TO.C,FB22*%
X100781524Y-60057776D03*
X98881524Y-60057776D03*
%TD*%
D14*
%TO.C,FB17*%
X61277048Y-60057776D03*
X63177048Y-60057776D03*
%TD*%
D13*
%TO.C,C95*%
X216930731Y-91694062D03*
X215030731Y-91694062D03*
%TD*%
D10*
%TO.C,U$89*%
X164621005Y-86061920D03*
%TD*%
D20*
%TO.C,C162*%
X230603999Y-107172799D03*
D11*
X227104000Y-107172800D03*
%TD*%
D14*
%TO.C,C60*%
X193013476Y-60057776D03*
X194913476Y-60057776D03*
%TD*%
D13*
%TO.C,FB44*%
X178045522Y-91694062D03*
X176145522Y-91694062D03*
%TD*%
D10*
%TO.C,U$41*%
X66020134Y-54425634D03*
%TD*%
D19*
%TO.C,C26*%
X199920462Y-32785296D03*
X199920462Y-30885296D03*
%TD*%
D10*
%TO.C,40*%
X164621005Y-86061920D03*
%TD*%
D15*
%TO.C, 28*%
X158142997Y-131703000D03*
X155602997Y-131703000D03*
X153062997Y-131703000D03*
X150522997Y-131703000D03*
X147982997Y-131703000D03*
X145442997Y-131703000D03*
X142902997Y-131703000D03*
%TD*%
D14*
%TO.C,C116*%
X155795997Y-123321000D03*
X157695997Y-123321000D03*
%TD*%
D23*
%TO.C,*%
X53000000Y-138000000D03*
%TD*%
D19*
%TO.C,C109*%
X132988998Y-127065000D03*
X132988998Y-125165000D03*
%TD*%
D20*
%TO.C,C166*%
X141675999Y-137683199D03*
D11*
X138176000Y-137683200D03*
%TD*%
D10*
%TO.C,U$90*%
X151921005Y-86061920D03*
%TD*%
%TO.C,U$57*%
X151389086Y-54425634D03*
%TD*%
D14*
%TO.C,FB23*%
X125303762Y-60057776D03*
X127203762Y-60057776D03*
%TD*%
D15*
%TO.C, 5*%
X180359385Y-37423296D03*
X177819385Y-37423296D03*
X175279385Y-37423296D03*
X172739385Y-37423296D03*
X170199385Y-37423296D03*
X167659385Y-37423296D03*
X165119385Y-37423296D03*
%TD*%
D13*
%TO.C,C103*%
X81091000Y-123321000D03*
X79191000Y-123321000D03*
%TD*%
D10*
%TO.C,U$58*%
X138689086Y-54425634D03*
%TD*%
D19*
%TO.C,C101*%
X90301000Y-127065000D03*
X90301000Y-125165000D03*
%TD*%
D10*
%TO.C,2*%
X93716163Y-23409154D03*
%TD*%
D17*
%TO.C,U6*%
X172739385Y-32343296D03*
%TD*%
D14*
%TO.C,FB43*%
X181225522Y-91694062D03*
X183125522Y-91694062D03*
%TD*%
D13*
%TO.C,C111*%
X123778998Y-123321000D03*
X121878998Y-123321000D03*
%TD*%
D15*
%TO.C, 16*%
X80517507Y-100076062D03*
X77977507Y-100076062D03*
X75437507Y-100076062D03*
X72897507Y-100076062D03*
X70357507Y-100076062D03*
X67817507Y-100076062D03*
X65277507Y-100076062D03*
%TD*%
D19*
%TO.C,C38*%
X86871286Y-63801776D03*
X86871286Y-61901776D03*
%TD*%
D20*
%TO.C,C153*%
X196331471Y-75679005D03*
D11*
X192831472Y-75679006D03*
%TD*%
D15*
%TO.C, 13*%
X174018238Y-68439776D03*
X171478238Y-68439776D03*
X168938238Y-68439776D03*
X166398238Y-68439776D03*
X163858238Y-68439776D03*
X161318238Y-68439776D03*
X158778238Y-68439776D03*
%TD*%
D10*
%TO.C,U$45*%
X74662372Y-54425634D03*
%TD*%
D11*
%TO.C,R12*%
X210566000Y-74879200D03*
D12*
X202945999Y-74879199D03*
%TD*%
D19*
%TO.C,C53*%
X170208238Y-63801776D03*
X170208238Y-61901776D03*
%TD*%
D10*
%TO.C,U$116*%
X122812084Y-117688858D03*
%TD*%
%TO.C,9*%
X166372471Y-23409154D03*
%TD*%
D13*
%TO.C,FB54*%
X106244999Y-123321000D03*
X104344999Y-123321000D03*
%TD*%
D10*
%TO.C,U$60*%
X172731324Y-54425634D03*
%TD*%
D11*
%TO.C,R13*%
X94488000Y-106527600D03*
D12*
X86867999Y-106527599D03*
%TD*%
D16*
%TO.C,X22*%
X199183125Y-87122062D03*
X202683125Y-87122062D03*
%TD*%
D10*
%TO.C,32*%
X79230593Y-86061920D03*
%TD*%
D19*
%TO.C,C66*%
X78739507Y-95438062D03*
X78739507Y-93538062D03*
%TD*%
D10*
%TO.C,U$131*%
X220888080Y-117688858D03*
%TD*%
D19*
%TO.C,C29*%
X219227540Y-32785296D03*
X219227540Y-30885296D03*
%TD*%
D10*
%TO.C,U$96*%
X207316211Y-86061920D03*
%TD*%
D29*
%TO.C,C131*%
X222836000Y-66294000D03*
X219886000Y-66294000D03*
%TD*%
D20*
%TO.C,C158*%
X145536888Y-107172299D03*
D11*
X142036889Y-107172300D03*
%TD*%
D16*
%TO.C,X9*%
X79229286Y-55485776D03*
X82729286Y-55485776D03*
%TD*%
D15*
%TO.C, 15*%
X216702718Y-68439776D03*
X214162718Y-68439776D03*
X211622718Y-68439776D03*
X209082718Y-68439776D03*
X206542718Y-68439776D03*
X204002718Y-68439776D03*
X201462718Y-68439776D03*
%TD*%
D20*
%TO.C,C145*%
X202745807Y-44576999D03*
D11*
X199245808Y-44577000D03*
%TD*%
D20*
%TO.C,C146*%
X224099955Y-44576999D03*
D11*
X220599956Y-44577000D03*
%TD*%
D30*
%TO.C,R30*%
X232410000Y-56195500D03*
X232410000Y-59120500D03*
%TD*%
D19*
%TO.C,C122*%
X199052995Y-127065000D03*
X199052995Y-125165000D03*
%TD*%
D17*
%TO.C,U9*%
X59687048Y-63359776D03*
%TD*%
D15*
%TO.C, 22*%
X208603125Y-100076062D03*
X206063125Y-100076062D03*
X203523125Y-100076062D03*
X200983125Y-100076062D03*
X198443125Y-100076062D03*
X195903125Y-100076062D03*
X193363125Y-100076062D03*
%TD*%
D11*
%TO.C,R3*%
X151485600Y-43942000D03*
D12*
X143865599Y-43941999D03*
%TD*%
D10*
%TO.C,20*%
X108704610Y-54425634D03*
%TD*%
D17*
%TO.C,U8*%
X215417540Y-32343296D03*
%TD*%
D13*
%TO.C,FB38*%
X114002713Y-91694062D03*
X112102713Y-91694062D03*
%TD*%
D14*
%TO.C,FB55*%
X130768998Y-123321000D03*
X132668998Y-123321000D03*
%TD*%
D10*
%TO.C,U$93*%
X173268608Y-86061920D03*
%TD*%
D20*
%TO.C,C152*%
X174977329Y-75679005D03*
D11*
X171477330Y-75679006D03*
%TD*%
D19*
%TO.C,C42*%
X108213524Y-63801776D03*
X108213524Y-61901776D03*
%TD*%
D10*
%TO.C,U$61*%
X160031324Y-54425634D03*
%TD*%
D15*
%TO.C, 14*%
X195360476Y-68439776D03*
X192820476Y-68439776D03*
X190280476Y-68439776D03*
X187740476Y-68439776D03*
X185200476Y-68439776D03*
X182660476Y-68439776D03*
X180120476Y-68439776D03*
%TD*%
D30*
%TO.C,R29*%
X227584000Y-114931000D03*
X227584000Y-117856000D03*
%TD*%
D10*
%TO.C,28*%
X194073562Y-54425634D03*
%TD*%
D15*
%TO.C, 29*%
X179486996Y-131703000D03*
X176946996Y-131703000D03*
X174406996Y-131703000D03*
X171866996Y-131703000D03*
X169326996Y-131703000D03*
X166786996Y-131703000D03*
X164246996Y-131703000D03*
%TD*%
D19*
%TO.C,C54*%
X172240238Y-63801776D03*
X172240238Y-61901776D03*
%TD*%
D17*
%TO.C,U23*%
X200983125Y-94996062D03*
%TD*%
D10*
%TO.C,U$29*%
X166372471Y-23409154D03*
%TD*%
%TO.C,U$52*%
X117346848Y-54425634D03*
%TD*%
D15*
%TO.C, 1*%
X95003077Y-37423296D03*
X92463077Y-37423296D03*
X89923077Y-37423296D03*
X87383077Y-37423296D03*
X84843077Y-37423296D03*
X82303077Y-37423296D03*
X79763077Y-37423296D03*
%TD*%
D14*
%TO.C,C108*%
X113107999Y-123321000D03*
X115007999Y-123321000D03*
%TD*%
%TO.C,C24*%
X178012385Y-29041296D03*
X179912385Y-29041296D03*
%TD*%
D19*
%TO.C,C41*%
X106181524Y-63801776D03*
X106181524Y-61901776D03*
%TD*%
D10*
%TO.C,U$106*%
X58780087Y-117688858D03*
%TD*%
D16*
%TO.C,X17*%
X92445110Y-87122062D03*
X95945110Y-87122062D03*
%TD*%
D10*
%TO.C,45*%
X215963817Y-86061920D03*
%TD*%
%TO.C,U$109*%
X80124086Y-117688858D03*
%TD*%
D20*
%TO.C,C164*%
X99003999Y-137769599D03*
D11*
X95504000Y-137769600D03*
%TD*%
D14*
%TO.C,C84*%
X163560919Y-91694062D03*
X165460919Y-91694062D03*
%TD*%
%TO.C,C112*%
X134451998Y-123321000D03*
X136351998Y-123321000D03*
%TD*%
%TO.C,FB49*%
X66737001Y-123321000D03*
X68637001Y-123321000D03*
%TD*%
D16*
%TO.C,X5*%
X170939385Y-24469296D03*
X174439385Y-24469296D03*
%TD*%
D20*
%TO.C,C140*%
X95975097Y-44576999D03*
D11*
X92475098Y-44577000D03*
%TD*%
D14*
%TO.C,C96*%
X227603731Y-91694062D03*
X229503731Y-91694062D03*
%TD*%
D13*
%TO.C,C55*%
X160998238Y-60057776D03*
X159098238Y-60057776D03*
%TD*%
D10*
%TO.C,U$25*%
X157733394Y-23409154D03*
%TD*%
%TO.C,12*%
X200411548Y-23409154D03*
%TD*%
%TO.C,46*%
X228663817Y-86061920D03*
%TD*%
D11*
%TO.C,R10*%
X167405200Y-74930000D03*
D12*
X159785199Y-74929999D03*
%TD*%
D10*
%TO.C,U$19*%
X136394317Y-23409154D03*
%TD*%
%TO.C,U$73*%
X79230593Y-86061920D03*
%TD*%
D14*
%TO.C,FB45*%
X202573125Y-91694062D03*
X204473125Y-91694062D03*
%TD*%
D13*
%TO.C,C39*%
X75629286Y-60057776D03*
X73729286Y-60057776D03*
%TD*%
D19*
%TO.C,C5*%
X91193077Y-32785296D03*
X91193077Y-30885296D03*
%TD*%
D13*
%TO.C,FB24*%
X122123762Y-60057776D03*
X120223762Y-60057776D03*
%TD*%
D10*
%TO.C,35*%
X109225799Y-86061920D03*
%TD*%
D13*
%TO.C,C67*%
X67497507Y-91694062D03*
X65597507Y-91694062D03*
%TD*%
D14*
%TO.C,C4*%
X71317000Y-29041296D03*
X73217000Y-29041296D03*
%TD*%
D10*
%TO.C,38*%
X143273402Y-86061920D03*
%TD*%
D15*
%TO.C, 7*%
X223037540Y-37423296D03*
X220497540Y-37423296D03*
X217957540Y-37423296D03*
X215417540Y-37423296D03*
X212877540Y-37423296D03*
X210337540Y-37423296D03*
X207797540Y-37423296D03*
%TD*%
D14*
%TO.C,FB13*%
X195668462Y-29041296D03*
X197568462Y-29041296D03*
%TD*%
D16*
%TO.C,X1*%
X85583077Y-24469296D03*
X89083077Y-24469296D03*
%TD*%
D13*
%TO.C,C79*%
X131540316Y-91694062D03*
X129640316Y-91694062D03*
%TD*%
D19*
%TO.C,C94*%
X228172731Y-95438062D03*
X228172731Y-93538062D03*
%TD*%
D15*
%TO.C, 17*%
X101865110Y-100076062D03*
X99325110Y-100076062D03*
X96785110Y-100076062D03*
X94245110Y-100076062D03*
X91705110Y-100076062D03*
X89165110Y-100076062D03*
X86625110Y-100076062D03*
%TD*%
D10*
%TO.C,U$100*%
X215963817Y-86061920D03*
%TD*%
D19*
%TO.C,C86*%
X185477522Y-95438062D03*
X185477522Y-93538062D03*
%TD*%
D14*
%TO.C,C36*%
X64960048Y-60057776D03*
X66860048Y-60057776D03*
%TD*%
D10*
%TO.C,54*%
X135512084Y-117688858D03*
%TD*%
D11*
%TO.C,R21*%
X154240573Y-137718800D03*
D12*
X146620572Y-137718799D03*
%TD*%
D15*
%TO.C, 25*%
X94111000Y-131703000D03*
X91571000Y-131703000D03*
X89031000Y-131703000D03*
X86491000Y-131703000D03*
X83951000Y-131703000D03*
X81411000Y-131703000D03*
X78871000Y-131703000D03*
%TD*%
D11*
%TO.C,R24*%
X218248573Y-137718800D03*
D12*
X210628572Y-137718799D03*
%TD*%
D14*
%TO.C,FB27*%
X167988238Y-60057776D03*
X169888238Y-60057776D03*
%TD*%
D10*
%TO.C,42*%
X185968608Y-86061920D03*
%TD*%
D21*
%TO.C,JB2*%
X237235999Y-122173999D03*
D22*
X237235999Y-119633999D03*
X237235999Y-117093999D03*
X237235999Y-114553999D03*
X237235999Y-112013999D03*
X237235999Y-109473999D03*
X239775999Y-122173999D03*
X239775999Y-119633999D03*
X239775999Y-117093999D03*
X239775999Y-114553999D03*
X239775999Y-112013999D03*
X239775999Y-109473999D03*
%TD*%
D10*
%TO.C,U$112*%
X114168085Y-117688858D03*
%TD*%
D20*
%TO.C,C163*%
X77695999Y-137769599D03*
D11*
X74196000Y-137769600D03*
%TD*%
D15*
%TO.C, 24*%
X72767001Y-131703000D03*
X70227001Y-131703000D03*
X67687001Y-131703000D03*
X65147001Y-131703000D03*
X62607001Y-131703000D03*
X60067001Y-131703000D03*
X57527001Y-131703000D03*
%TD*%
D10*
%TO.C,U$108*%
X92824086Y-117688858D03*
%TD*%
D17*
%TO.C,U11*%
X102371524Y-63359776D03*
%TD*%
D16*
%TO.C,X18*%
X113792713Y-87122062D03*
X117292713Y-87122062D03*
%TD*%
D17*
%TO.C,U20*%
X136940316Y-94996062D03*
%TD*%
D19*
%TO.C,C17*%
X155210308Y-32785296D03*
X155210308Y-30885296D03*
%TD*%
D15*
%TO.C, 2*%
X116342154Y-37423296D03*
X113802154Y-37423296D03*
X111262154Y-37423296D03*
X108722154Y-37423296D03*
X106182154Y-37423296D03*
X103642154Y-37423296D03*
X101102154Y-37423296D03*
%TD*%
D19*
%TO.C,C121*%
X197020995Y-127065000D03*
X197020995Y-125165000D03*
%TD*%
D10*
%TO.C,U$80*%
X121925799Y-86061920D03*
%TD*%
%TO.C,13*%
X209050626Y-23409154D03*
%TD*%
D11*
%TO.C,R22*%
X175576573Y-137718800D03*
D12*
X167956572Y-137718799D03*
%TD*%
D13*
%TO.C,FB18*%
X58097048Y-60057776D03*
X56197048Y-60057776D03*
%TD*%
D14*
%TO.C,C88*%
X184908522Y-91694062D03*
X186808522Y-91694062D03*
%TD*%
D17*
%TO.C,U31*%
X193210995Y-126623000D03*
%TD*%
D20*
%TO.C,C151*%
X153623187Y-75679005D03*
D11*
X150123188Y-75679006D03*
%TD*%
D19*
%TO.C,C113*%
X154332997Y-127065000D03*
X154332997Y-125165000D03*
%TD*%
D20*
%TO.C,C148*%
X89560761Y-75679005D03*
D11*
X86060762Y-75679006D03*
%TD*%
D10*
%TO.C,U$84*%
X130573402Y-86061920D03*
%TD*%
D19*
%TO.C,C74*%
X121434713Y-95438062D03*
X121434713Y-93538062D03*
%TD*%
D15*
%TO.C, 11*%
X131333762Y-68439776D03*
X128793762Y-68439776D03*
X126253762Y-68439776D03*
X123713762Y-68439776D03*
X121173762Y-68439776D03*
X118633762Y-68439776D03*
X116093762Y-68439776D03*
%TD*%
D14*
%TO.C,C92*%
X206256125Y-91694062D03*
X208156125Y-91694062D03*
%TD*%
D11*
%TO.C,R6*%
X216916000Y-43942000D03*
D12*
X209295999Y-43941999D03*
%TD*%
D14*
%TO.C,FB53*%
X109424999Y-123321000D03*
X111324999Y-123321000D03*
%TD*%
D10*
%TO.C,10*%
X179072471Y-23409154D03*
%TD*%
D13*
%TO.C,FB60*%
X170276996Y-123321000D03*
X168376996Y-123321000D03*
%TD*%
D16*
%TO.C,X0*%
X64244000Y-24469296D03*
X67744000Y-24469296D03*
%TD*%
D11*
%TO.C,R16*%
X180848000Y-106527600D03*
D12*
X173227999Y-106527599D03*
%TD*%
D15*
%TO.C, 3*%
X137681231Y-37423296D03*
X135141231Y-37423296D03*
X132601231Y-37423296D03*
X130061231Y-37423296D03*
X127521231Y-37423296D03*
X124981231Y-37423296D03*
X122441231Y-37423296D03*
%TD*%
D16*
%TO.C,X16*%
X71097507Y-87122062D03*
X74597507Y-87122062D03*
%TD*%
D10*
%TO.C,55*%
X144156083Y-117688858D03*
%TD*%
D14*
%TO.C,C128*%
X219827994Y-123321000D03*
X221727994Y-123321000D03*
%TD*%
D19*
%TO.C,C10*%
X114564154Y-32785296D03*
X114564154Y-30885296D03*
%TD*%
D13*
%TO.C,FB30*%
X186150476Y-60057776D03*
X184250476Y-60057776D03*
%TD*%
D14*
%TO.C,C12*%
X113995154Y-29041296D03*
X115895154Y-29041296D03*
%TD*%
D13*
%TO.C,C127*%
X209154994Y-123321000D03*
X207254994Y-123321000D03*
%TD*%
D10*
%TO.C,33*%
X87878196Y-86061920D03*
%TD*%
D13*
%TO.C,FB46*%
X199393125Y-91694062D03*
X197493125Y-91694062D03*
%TD*%
D19*
%TO.C,C13*%
X133871231Y-32785296D03*
X133871231Y-30885296D03*
%TD*%
%TO.C,C57*%
X191550476Y-63801776D03*
X191550476Y-61901776D03*
%TD*%
D10*
%TO.C,53*%
X122812084Y-117688858D03*
%TD*%
%TO.C,U$83*%
X143273402Y-86061920D03*
%TD*%
D14*
%TO.C,FB3*%
X88973077Y-29041296D03*
X90873077Y-29041296D03*
%TD*%
D11*
%TO.C,R7*%
X81280000Y-74930000D03*
D12*
X73659999Y-74929999D03*
%TD*%
D10*
%TO.C,14*%
X221750626Y-23409154D03*
%TD*%
D20*
%TO.C,C141*%
X117329239Y-44576999D03*
D11*
X113829240Y-44577000D03*
%TD*%
D10*
%TO.C,U$67*%
X215415804Y-54425634D03*
%TD*%
D19*
%TO.C,C30*%
X221259540Y-32785296D03*
X221259540Y-30885296D03*
%TD*%
D10*
%TO.C,U$36*%
X209050626Y-23409154D03*
%TD*%
D13*
%TO.C,FB16*%
X213827540Y-29041296D03*
X211927540Y-29041296D03*
%TD*%
D29*
%TO.C,C132*%
X224614000Y-80010000D03*
X221664000Y-80010000D03*
%TD*%
D10*
%TO.C,U$65*%
X181373562Y-54425634D03*
%TD*%
D13*
%TO.C,C87*%
X174235522Y-91694062D03*
X172335522Y-91694062D03*
%TD*%
D21*
%TO.C,JB1*%
X244355933Y-122168213D03*
D22*
X244355933Y-119628213D03*
X244355933Y-117088213D03*
X244355933Y-114548213D03*
X244355933Y-112008213D03*
X244355933Y-109468213D03*
X246895933Y-122168213D03*
X246895933Y-119628213D03*
X246895933Y-117088213D03*
X246895933Y-114548213D03*
X246895933Y-112008213D03*
X246895933Y-109468213D03*
%TD*%
D11*
%TO.C,R2*%
X130098800Y-43942000D03*
D12*
X122478799Y-43941999D03*
%TD*%
D10*
%TO.C,60*%
X199544081Y-117688858D03*
%TD*%
%TO.C,44*%
X207316211Y-86061920D03*
%TD*%
D31*
%TO.C,IC2*%
X230504999Y-62552999D03*
X229234999Y-62552999D03*
X227964999Y-62552999D03*
X226694999Y-62552999D03*
X226694999Y-68002999D03*
X227964999Y-68002999D03*
X229234999Y-68002999D03*
X230504999Y-68002999D03*
%TD*%
D15*
%TO.C, 19*%
X144560316Y-100076062D03*
X142020316Y-100076062D03*
X139480316Y-100076062D03*
X136940316Y-100076062D03*
X134400316Y-100076062D03*
X131860316Y-100076062D03*
X129320316Y-100076062D03*
%TD*%
D19*
%TO.C,C62*%
X214924718Y-63801776D03*
X214924718Y-61901776D03*
%TD*%
D14*
%TO.C,FB29*%
X189330476Y-60057776D03*
X191230476Y-60057776D03*
%TD*%
D13*
%TO.C,FB48*%
X220740731Y-91694062D03*
X218840731Y-91694062D03*
%TD*%
D10*
%TO.C,19*%
X96004610Y-54425634D03*
%TD*%
D13*
%TO.C,FB52*%
X84901000Y-123321000D03*
X83001000Y-123321000D03*
%TD*%
D14*
%TO.C,FB11*%
X174329385Y-29041296D03*
X176229385Y-29041296D03*
%TD*%
D13*
%TO.C,C47*%
X118313762Y-60057776D03*
X116413762Y-60057776D03*
%TD*%
D10*
%TO.C,U$48*%
X108704610Y-54425634D03*
%TD*%
D20*
%TO.C,C150*%
X132269045Y-75679005D03*
D11*
X128769046Y-75679006D03*
%TD*%
D19*
%TO.C,C110*%
X135020998Y-127065000D03*
X135020998Y-125165000D03*
%TD*%
D14*
%TO.C,FB19*%
X82619286Y-60057776D03*
X84519286Y-60057776D03*
%TD*%
D16*
%TO.C,X31*%
X212754994Y-118749000D03*
X216254994Y-118749000D03*
%TD*%
D13*
%TO.C,C31*%
X210017540Y-29041296D03*
X208117540Y-29041296D03*
%TD*%
D10*
%TO.C,31*%
X66530593Y-86061920D03*
%TD*%
D19*
%TO.C,C105*%
X111644999Y-127065000D03*
X111644999Y-125165000D03*
%TD*%
%TO.C,C117*%
X175676996Y-127065000D03*
X175676996Y-125165000D03*
%TD*%
D28*
%TO.C,R27*%
X233553000Y-75122500D03*
X233553000Y-72197500D03*
%TD*%
D13*
%TO.C,C75*%
X110192713Y-91694062D03*
X108292713Y-91694062D03*
%TD*%
D19*
%TO.C,C18*%
X157242308Y-32785296D03*
X157242308Y-30885296D03*
%TD*%
%TO.C,C14*%
X135903231Y-32785296D03*
X135903231Y-30885296D03*
%TD*%
D14*
%TO.C,FB7*%
X131651231Y-29041296D03*
X133551231Y-29041296D03*
%TD*%
D13*
%TO.C,C91*%
X195583125Y-91694062D03*
X193683125Y-91694062D03*
%TD*%
D10*
%TO.C,52*%
X114168085Y-117688858D03*
%TD*%
%TO.C,U$51*%
X130046848Y-54425634D03*
%TD*%
D11*
%TO.C,R9*%
X145135600Y-74879200D03*
D12*
X137515599Y-74879199D03*
%TD*%
D19*
%TO.C,C93*%
X226140731Y-95438062D03*
X226140731Y-93538062D03*
%TD*%
D13*
%TO.C,C63*%
X203682718Y-60057776D03*
X201782718Y-60057776D03*
%TD*%
%TO.C,FB36*%
X92655110Y-91694062D03*
X90755110Y-91694062D03*
%TD*%
D16*
%TO.C,X30*%
X191410995Y-118749000D03*
X194910995Y-118749000D03*
%TD*%
D10*
%TO.C,U$64*%
X194073562Y-54425634D03*
%TD*%
%TO.C,41*%
X173268608Y-86061920D03*
%TD*%
D14*
%TO.C,C104*%
X91764000Y-123321000D03*
X93664000Y-123321000D03*
%TD*%
D13*
%TO.C,FB10*%
X149810308Y-29041296D03*
X147910308Y-29041296D03*
%TD*%
%TO.C,C83*%
X152887919Y-91694062D03*
X150987919Y-91694062D03*
%TD*%
D19*
%TO.C,C1*%
X69854000Y-32785296D03*
X69854000Y-30885296D03*
%TD*%
D17*
%TO.C,U26*%
X86491000Y-126623000D03*
%TD*%
D13*
%TO.C,C11*%
X103322154Y-29041296D03*
X101422154Y-29041296D03*
%TD*%
D19*
%TO.C,C69*%
X98055110Y-95438062D03*
X98055110Y-93538062D03*
%TD*%
D14*
%TO.C,C52*%
X150329000Y-60057776D03*
X152229000Y-60057776D03*
%TD*%
D19*
%TO.C,C9*%
X112532154Y-32785296D03*
X112532154Y-30885296D03*
%TD*%
D10*
%TO.C,56*%
X156856083Y-117688858D03*
%TD*%
D13*
%TO.C,FB50*%
X63557001Y-123321000D03*
X61657001Y-123321000D03*
%TD*%
D10*
%TO.C,39*%
X151921005Y-86061920D03*
%TD*%
D17*
%TO.C,U29*%
X150522997Y-126623000D03*
%TD*%
D14*
%TO.C,FB33*%
X74487507Y-91694062D03*
X76387507Y-91694062D03*
%TD*%
D10*
%TO.C,U$20*%
X123694317Y-23409154D03*
%TD*%
D14*
%TO.C,C20*%
X156673308Y-29041296D03*
X158573308Y-29041296D03*
%TD*%
D19*
%TO.C,C65*%
X76707507Y-95438062D03*
X76707507Y-93538062D03*
%TD*%
D10*
%TO.C,U$33*%
X187711548Y-23409154D03*
%TD*%
%TO.C,U$129*%
X186844081Y-117688858D03*
%TD*%
%TO.C,6*%
X136394317Y-23409154D03*
%TD*%
D20*
%TO.C,C170*%
X226821999Y-137683199D03*
D11*
X223322000Y-137683200D03*
%TD*%
D10*
%TO.C,U$105*%
X71480087Y-117688858D03*
%TD*%
D17*
%TO.C,U15*%
X187740476Y-63359776D03*
%TD*%
D11*
%TO.C,R15*%
X158394400Y-106476800D03*
D12*
X150774399Y-106476799D03*
%TD*%
D10*
%TO.C,8*%
X157733394Y-23409154D03*
%TD*%
%TO.C,43*%
X194616211Y-86061920D03*
%TD*%
D17*
%TO.C,U27*%
X107834999Y-126623000D03*
%TD*%
D19*
%TO.C,C37*%
X84839286Y-63801776D03*
X84839286Y-61901776D03*
%TD*%
D23*
%TO.C,REF\u002A\u002A*%
X245000000Y-24000000D03*
%TD*%
D10*
%TO.C,16*%
X66020134Y-54425634D03*
%TD*%
D20*
%TO.C,C161*%
X209599314Y-107172299D03*
D11*
X206099315Y-107172300D03*
%TD*%
D15*
%TO.C, 8*%
X67307048Y-68439776D03*
X64767048Y-68439776D03*
X62227048Y-68439776D03*
X59687048Y-68439776D03*
X57147048Y-68439776D03*
X54607048Y-68439776D03*
X52067048Y-68439776D03*
%TD*%
D17*
%TO.C,U22*%
X179635522Y-94996062D03*
%TD*%
D10*
%TO.C,U$13*%
X81016163Y-23409154D03*
%TD*%
D28*
%TO.C,R31*%
X233680000Y-34421000D03*
X233680000Y-31496000D03*
%TD*%
%TO.C,R32*%
X225044000Y-59120500D03*
X225044000Y-56195500D03*
%TD*%
D16*
%TO.C,X28*%
X148722997Y-118749000D03*
X152222997Y-118749000D03*
%TD*%
%TO.C,X25*%
X84691000Y-118749000D03*
X88191000Y-118749000D03*
%TD*%
D15*
%TO.C, 4*%
X159020308Y-37423296D03*
X156480308Y-37423296D03*
X153940308Y-37423296D03*
X151400308Y-37423296D03*
X148860308Y-37423296D03*
X146320308Y-37423296D03*
X143780308Y-37423296D03*
%TD*%
D17*
%TO.C,U3*%
X108722154Y-32343296D03*
%TD*%
D14*
%TO.C,C68*%
X78170507Y-91694062D03*
X80070507Y-91694062D03*
%TD*%
D24*
%TO.C,C129*%
X233553000Y-81485000D03*
X233553000Y-78535000D03*
%TD*%
D20*
%TO.C,C159*%
X166891030Y-107172299D03*
D11*
X163391031Y-107172300D03*
%TD*%
D20*
%TO.C,C155*%
X81474462Y-107172299D03*
D11*
X77974463Y-107172300D03*
%TD*%
D19*
%TO.C,C98*%
X70989001Y-127065000D03*
X70989001Y-125165000D03*
%TD*%
D20*
%TO.C,C160*%
X188245172Y-107172299D03*
D11*
X184745173Y-107172300D03*
%TD*%
D17*
%TO.C,U12*%
X123713762Y-63359776D03*
%TD*%
D19*
%TO.C,C34*%
X65529048Y-63801776D03*
X65529048Y-61901776D03*
%TD*%
D17*
%TO.C,U30*%
X171866996Y-126623000D03*
%TD*%
D14*
%TO.C,C100*%
X70420001Y-123321000D03*
X72320001Y-123321000D03*
%TD*%
D13*
%TO.C,FB26*%
X143466000Y-60057776D03*
X141566000Y-60057776D03*
%TD*%
D10*
%TO.C,U$16*%
X115055240Y-23409154D03*
%TD*%
D19*
%TO.C,C85*%
X183445522Y-95438062D03*
X183445522Y-93538062D03*
%TD*%
D10*
%TO.C,U$68*%
X202715804Y-54425634D03*
%TD*%
D19*
%TO.C,C73*%
X119402713Y-95438062D03*
X119402713Y-93538062D03*
%TD*%
D15*
%TO.C, 23*%
X229950731Y-100076062D03*
X227410731Y-100076062D03*
X224870731Y-100076062D03*
X222330731Y-100076062D03*
X219790731Y-100076062D03*
X217250731Y-100076062D03*
X214710731Y-100076062D03*
%TD*%
D16*
%TO.C,X15*%
X207282718Y-55485776D03*
X210782718Y-55485776D03*
%TD*%
D10*
%TO.C,U$121*%
X156856083Y-117688858D03*
%TD*%
D20*
%TO.C,C169*%
X205485999Y-137683199D03*
D11*
X201986000Y-137683200D03*
%TD*%
D13*
%TO.C,FB4*%
X85793077Y-29041296D03*
X83893077Y-29041296D03*
%TD*%
D15*
%TO.C, 9*%
X88649286Y-68439776D03*
X86109286Y-68439776D03*
X83569286Y-68439776D03*
X81029286Y-68439776D03*
X78489286Y-68439776D03*
X75949286Y-68439776D03*
X73409286Y-68439776D03*
%TD*%
D30*
%TO.C,R34*%
X232156000Y-114931000D03*
X232156000Y-117856000D03*
%TD*%
D23*
%TO.C,*%
X245000000Y-81000000D03*
%TD*%
D16*
%TO.C,X8*%
X57887048Y-55485776D03*
X61387048Y-55485776D03*
%TD*%
%TO.C,X2*%
X106922154Y-24469296D03*
X110422154Y-24469296D03*
%TD*%
D19*
%TO.C,C106*%
X113676999Y-127065000D03*
X113676999Y-125165000D03*
%TD*%
D13*
%TO.C,FB42*%
X156697919Y-91694062D03*
X154797919Y-91694062D03*
%TD*%
D10*
%TO.C,U$9*%
X72377086Y-23409154D03*
%TD*%
%TO.C,62*%
X220888080Y-117688858D03*
%TD*%
%TO.C,3*%
X102355240Y-23409154D03*
%TD*%
%TO.C,U$115*%
X135512084Y-117688858D03*
%TD*%
D14*
%TO.C,C32*%
X220690540Y-29041296D03*
X222590540Y-29041296D03*
%TD*%
D13*
%TO.C,C7*%
X81983077Y-29041296D03*
X80083077Y-29041296D03*
%TD*%
D10*
%TO.C,15*%
X53320134Y-54425634D03*
%TD*%
D13*
%TO.C,C43*%
X96971524Y-60057776D03*
X95071524Y-60057776D03*
%TD*%
D19*
%TO.C,C82*%
X164129919Y-95438062D03*
X164129919Y-93538062D03*
%TD*%
D14*
%TO.C,FB57*%
X152112997Y-123321000D03*
X154012997Y-123321000D03*
%TD*%
D18*
%TO.C,C135*%
X233680000Y-25957000D03*
X233680000Y-28907000D03*
%TD*%
D14*
%TO.C,FB1*%
X67634000Y-29041296D03*
X69534000Y-29041296D03*
%TD*%
D15*
%TO.C, 30*%
X200830995Y-131703000D03*
X198290995Y-131703000D03*
X195750995Y-131703000D03*
X193210995Y-131703000D03*
X190670995Y-131703000D03*
X188130995Y-131703000D03*
X185590995Y-131703000D03*
%TD*%
D13*
%TO.C,FB64*%
X212964994Y-123321000D03*
X211064994Y-123321000D03*
%TD*%
D31*
%TO.C,IC1*%
X230504999Y-74744999D03*
X229234999Y-74744999D03*
X227964999Y-74744999D03*
X226694999Y-74744999D03*
X226694999Y-80194999D03*
X227964999Y-80194999D03*
X229234999Y-80194999D03*
X230504999Y-80194999D03*
%TD*%
D16*
%TO.C,X11*%
X121913762Y-55485776D03*
X125413762Y-55485776D03*
%TD*%
D14*
%TO.C,C16*%
X135334231Y-29041296D03*
X137234231Y-29041296D03*
%TD*%
D16*
%TO.C,X12*%
X143256000Y-55485776D03*
X146756000Y-55485776D03*
%TD*%
D10*
%TO.C,U$17*%
X102355240Y-23409154D03*
%TD*%
D16*
%TO.C,X20*%
X156487919Y-87122062D03*
X159987919Y-87122062D03*
%TD*%
D20*
%TO.C,C149*%
X110914903Y-75679005D03*
D11*
X107414904Y-75679006D03*
%TD*%
D13*
%TO.C,C71*%
X88845110Y-91694062D03*
X86945110Y-91694062D03*
%TD*%
D15*
%TO.C, 31*%
X222174994Y-131703000D03*
X219634994Y-131703000D03*
X217094994Y-131703000D03*
X214554994Y-131703000D03*
X212014994Y-131703000D03*
X209474994Y-131703000D03*
X206934994Y-131703000D03*
%TD*%
D27*
%TO.C,R28*%
X224601500Y-74676000D03*
X221676500Y-74676000D03*
%TD*%
D10*
%TO.C,U$26*%
X145033394Y-23409154D03*
%TD*%
%TO.C,U$132*%
X208188080Y-117688858D03*
%TD*%
D13*
%TO.C,FB14*%
X192488462Y-29041296D03*
X190588462Y-29041296D03*
%TD*%
D16*
%TO.C,X29*%
X170066996Y-118749000D03*
X173566996Y-118749000D03*
%TD*%
D14*
%TO.C,C56*%
X171671238Y-60057776D03*
X173571238Y-60057776D03*
%TD*%
D24*
%TO.C,C138*%
X232156000Y-123141000D03*
X232156000Y-120191000D03*
%TD*%
D10*
%TO.C,30*%
X215415804Y-54425634D03*
%TD*%
D17*
%TO.C,U7*%
X194078462Y-32343296D03*
%TD*%
D13*
%TO.C,C119*%
X166466996Y-123321000D03*
X164566996Y-123321000D03*
%TD*%
%TO.C,FB56*%
X127588998Y-123321000D03*
X125688998Y-123321000D03*
%TD*%
D16*
%TO.C,X10*%
X100571524Y-55485776D03*
X104071524Y-55485776D03*
%TD*%
D10*
%TO.C,U$44*%
X87362372Y-54425634D03*
%TD*%
D23*
%TO.C,*%
X53000000Y-81000000D03*
%TD*%
D14*
%TO.C,FB5*%
X110312154Y-29041296D03*
X112212154Y-29041296D03*
%TD*%
D17*
%TO.C,U16*%
X209082718Y-63359776D03*
%TD*%
D10*
%TO.C,24*%
X151389086Y-54425634D03*
%TD*%
D19*
%TO.C,C61*%
X212892718Y-63801776D03*
X212892718Y-61901776D03*
%TD*%
D17*
%TO.C,U25*%
X65147001Y-126623000D03*
%TD*%
D16*
%TO.C,X19*%
X135140316Y-87122062D03*
X138640316Y-87122062D03*
%TD*%
D19*
%TO.C,C118*%
X177708996Y-127065000D03*
X177708996Y-125165000D03*
%TD*%
D14*
%TO.C,C64*%
X214355718Y-60057776D03*
X216255718Y-60057776D03*
%TD*%
D13*
%TO.C,C19*%
X146000308Y-29041296D03*
X144100308Y-29041296D03*
%TD*%
D10*
%TO.C,27*%
X181373562Y-54425634D03*
%TD*%
D19*
%TO.C,C45*%
X127523762Y-63801776D03*
X127523762Y-61901776D03*
%TD*%
D10*
%TO.C,U$49*%
X96004610Y-54425634D03*
%TD*%
D18*
%TO.C,C137*%
X219837000Y-54786000D03*
X219837000Y-57736000D03*
%TD*%
D13*
%TO.C,FB20*%
X79439286Y-60057776D03*
X77539286Y-60057776D03*
%TD*%
D16*
%TO.C,X21*%
X177835522Y-87122062D03*
X181335522Y-87122062D03*
%TD*%
D13*
%TO.C,C99*%
X59747001Y-123321000D03*
X57847001Y-123321000D03*
%TD*%
%TO.C,C23*%
X167339385Y-29041296D03*
X165439385Y-29041296D03*
%TD*%
D17*
%TO.C,U17*%
X72897507Y-94996062D03*
%TD*%
D19*
%TO.C,C6*%
X93225077Y-32785296D03*
X93225077Y-30885296D03*
%TD*%
D14*
%TO.C,C40*%
X86302286Y-60057776D03*
X88202286Y-60057776D03*
%TD*%
%TO.C,C76*%
X120865713Y-91694062D03*
X122765713Y-91694062D03*
%TD*%
D19*
%TO.C,C21*%
X176549385Y-32785296D03*
X176549385Y-30885296D03*
%TD*%
D15*
%TO.C, 0*%
X73664000Y-37423296D03*
X71124000Y-37423296D03*
X68584000Y-37423296D03*
X66044000Y-37423296D03*
X63504000Y-37423296D03*
X60964000Y-37423296D03*
X58424000Y-37423296D03*
%TD*%
D10*
%TO.C,U$12*%
X93716163Y-23409154D03*
%TD*%
D19*
%TO.C,C58*%
X193582476Y-63801776D03*
X193582476Y-61901776D03*
%TD*%
D18*
%TO.C,C130*%
X229616000Y-25957000D03*
X229616000Y-28907000D03*
%TD*%
D21*
%TO.C,JC2*%
X237235999Y-99059999D03*
D22*
X237235999Y-96519999D03*
X237235999Y-93979999D03*
X237235999Y-91439999D03*
X237235999Y-88899999D03*
X237235999Y-86359999D03*
X239775999Y-99059999D03*
X239775999Y-96519999D03*
X239775999Y-93979999D03*
X239775999Y-91439999D03*
X239775999Y-88899999D03*
X239775999Y-86359999D03*
%TD*%
D20*
%TO.C,C168*%
X184149999Y-137683199D03*
D11*
X180650000Y-137683200D03*
%TD*%
D10*
%TO.C,51*%
X101468085Y-117688858D03*
%TD*%
D17*
%TO.C,U24*%
X222330731Y-94996062D03*
%TD*%
D10*
%TO.C,U$77*%
X87878196Y-86061920D03*
%TD*%
%TO.C,22*%
X130046848Y-54425634D03*
%TD*%
D19*
%TO.C,C126*%
X220396994Y-127065000D03*
X220396994Y-125165000D03*
%TD*%
D15*
%TO.C, 6*%
X201698462Y-37423296D03*
X199158462Y-37423296D03*
X196618462Y-37423296D03*
X194078462Y-37423296D03*
X191538462Y-37423296D03*
X188998462Y-37423296D03*
X186458462Y-37423296D03*
%TD*%
D19*
%TO.C,C97*%
X68957001Y-127065000D03*
X68957001Y-125165000D03*
%TD*%
D10*
%TO.C,57*%
X165500082Y-117688858D03*
%TD*%
D11*
%TO.C,R18*%
X223367600Y-106578400D03*
D12*
X215747599Y-106578399D03*
%TD*%
D14*
%TO.C,C120*%
X177139996Y-123321000D03*
X179039996Y-123321000D03*
%TD*%
D20*
%TO.C,C147*%
X68206619Y-75679005D03*
D11*
X64706620Y-75679006D03*
%TD*%
D10*
%TO.C,U$124*%
X178200082Y-117688858D03*
%TD*%
D14*
%TO.C,FB41*%
X159877919Y-91694062D03*
X161777919Y-91694062D03*
%TD*%
M02*
