M48
; DRILL file {KiCad 7.0.0} date mer. 13 mars 2024 15:59:37
; FORMAT={-:-/ absolute / inch / decimal}
; #@! TF.CreationDate,2024-03-13T15:59:37+01:00
; #@! TF.GenerationSoftware,Kicad,Pcbnew,7.0.0
; #@! TF.FileFunction,Plated,1,2,PTH
FMAT,2
INCH
; #@! TA.AperFunction,Plated,PTH,ViaDrill
T1C0.0197
; #@! TA.AperFunction,Plated,PTH,ComponentDrill
T2C0.0315
; #@! TA.AperFunction,Plated,PTH,ComponentDrill
T3C0.0394
; #@! TA.AperFunction,Plated,PTH,ComponentDrill
T4C0.0598
; #@! TA.AperFunction,Plated,PTH,ComponentDrill
T5C0.0984
; #@! TA.AperFunction,Plated,PTH,ComponentDrill
T6C0.1260
%
G90
G05
T1
X2.059Y-2.43
X2.2747Y-4.92
X2.31Y-1.208
X2.339Y-2.485
X2.439Y-2.425
X2.5547Y-4.975
X2.58Y-3.675
X2.59Y-1.263
X2.629Y-2.2972
X2.6547Y-4.915
X2.69Y-1.203
X2.8447Y-4.7872
X2.86Y-3.73
X2.88Y-1.0752
X2.8912Y-2.8781
X2.9Y-2.429
X2.96Y-3.67
X2.9952Y-2.8166
X3.115Y-4.922
X3.126Y-5.3666
X3.142Y-1.6574
X3.15Y-1.208
X3.15Y-3.5422
X3.18Y-2.484
X3.208Y-5.3046
X3.246Y-1.596
X3.28Y-2.424
X3.395Y-4.977
X3.4112Y-4.1235
X3.42Y-3.675
X3.43Y-1.263
X3.47Y-2.2962
X3.495Y-4.917
X3.5152Y-4.0621
X3.53Y-1.203
X3.685Y-4.7892
X3.7Y-3.73
X3.72Y-1.0752
X3.7312Y-2.8781
X3.74Y-2.43
X3.8Y-3.67
X3.8312Y-2.8166
X3.956Y-4.921
X3.966Y-5.3666
X3.982Y-1.6574
X3.99Y-3.5422
X3.991Y-1.209
X4.02Y-2.485
X4.048Y-5.3046
X4.082Y-1.596
X4.12Y-2.425
X4.236Y-4.976
X4.2512Y-4.1235
X4.26Y-3.675
X4.271Y-1.264
X4.31Y-2.2972
X4.336Y-4.916
X4.3512Y-4.0621
X4.371Y-1.204
X4.526Y-4.7882
X4.54Y-3.73
X4.561Y-1.0762
X4.5732Y-2.8781
X4.581Y-2.429
X4.64Y-3.67
X4.6712Y-2.8166
X4.797Y-4.92
X4.808Y-5.3666
X4.824Y-1.6574
X4.83Y-1.208
X4.83Y-3.5422
X4.861Y-2.484
X4.888Y-5.3046
X4.922Y-1.596
X4.961Y-2.424
X5.077Y-4.975
X5.0932Y-4.1235
X5.101Y-3.675
X5.11Y-1.263
X5.151Y-2.2962
X5.177Y-4.915
X5.1912Y-4.0621
X5.21Y-1.203
X5.367Y-4.7872
X5.381Y-3.73
X5.4Y-1.0752
X5.4112Y-2.8781
X5.42Y-2.43
X5.481Y-3.67
X5.5092Y-2.8166
X5.634Y-5.3666
X5.635Y-4.92
X5.662Y-1.6574
X5.671Y-1.208
X5.671Y-3.5422
X5.7Y-2.485
X5.73Y-5.3046
X5.76Y-1.596
X5.8Y-2.425
X5.915Y-4.975
X5.9312Y-4.1235
X5.942Y-3.675
X5.951Y-1.263
X5.99Y-2.2972
X6.015Y-4.915
X6.0292Y-4.0621
X6.051Y-1.203
X6.205Y-4.7872
X6.222Y-3.73
X6.241Y-1.0752
X6.2512Y-2.8781
X6.261Y-2.429
X6.322Y-3.67
X6.3772Y-2.8166
X6.476Y-4.919
X6.488Y-5.3666
X6.502Y-1.6574
X6.51Y-1.208
X6.512Y-3.5422
X6.541Y-2.484
X6.57Y-5.3046
X6.628Y-1.596
X6.641Y-2.424
X6.756Y-4.974
X6.7712Y-4.1235
X6.782Y-3.675
X6.79Y-1.263
X6.831Y-2.2962
X6.856Y-4.914
X6.89Y-1.203
X6.8972Y-4.0621
X7.046Y-4.7862
X7.062Y-3.73
X7.08Y-1.0752
X7.0912Y-2.8781
X7.101Y-2.429
X7.162Y-3.67
X7.1912Y-2.8166
X7.316Y-4.92
X7.322Y-5.3666
X7.342Y-1.6574
X7.351Y-1.208
X7.352Y-3.5422
X7.381Y-2.484
X7.406Y-5.3046
X7.442Y-1.596
X7.481Y-2.424
X7.596Y-4.975
X7.6112Y-4.1235
X7.623Y-3.675
X7.631Y-1.263
X7.671Y-2.2962
X7.696Y-4.915
X7.7112Y-4.0621
X7.731Y-1.203
X7.886Y-4.7872
X7.903Y-3.73
X7.921Y-1.0752
X7.9312Y-2.8781
X7.941Y-2.429
X8.003Y-3.67
X8.0292Y-2.8161
X8.156Y-4.92
X8.17Y-5.3666
X8.182Y-1.6574
X8.191Y-1.208
X8.193Y-3.5422
X8.221Y-2.484
X8.248Y-5.304
X8.28Y-1.5954
X8.321Y-2.424
X8.416Y-3.847
X8.436Y-4.975
X8.4512Y-4.1235
X8.463Y-3.675
X8.471Y-1.263
X8.511Y-2.2962
X8.536Y-4.915
X8.5492Y-4.0615
X8.571Y-1.203
X8.63Y-2.855
X8.645Y-1.98
X8.664Y-2.098
X8.726Y-4.7872
X8.743Y-3.73
X8.761Y-1.0752
X8.799Y-3.214
X8.815Y-2.671
X8.843Y-3.67
X8.86Y-1.52
X8.868Y-1.911
X8.877Y-2.606
X8.88Y-3.23
X8.96Y-4.904
X8.973Y-3.085
X9.033Y-3.5422
X9.04Y-0.96
X9.08Y-3.085
X9.0894Y-2.8
X9.12Y-2.55
X9.14Y-4.905
X9.2Y-0.962
X9.2Y-1.917
X9.219Y-3.269
T2
X2.5475Y-2.9795
X2.6853Y-2.9795
X2.8Y-1.755
X2.9Y-2.95
X2.9211Y-5.424
X2.9378Y-1.755
X3.0589Y-5.424
X3.0699Y-4.2194
X3.15Y-1.73
X3.2Y-2.95
X3.2077Y-4.2194
X3.278Y-5.422
X3.3882Y-2.9795
X3.42Y-4.194
X3.45Y-1.73
X3.526Y-2.9795
X3.578Y-5.422
X3.6408Y-1.755
X3.72Y-4.194
X3.76Y-5.424
X3.7785Y-1.755
X3.8978Y-5.424
X3.9106Y-4.2194
X4.0484Y-4.2194
X4.2289Y-2.9795
X4.3667Y-2.9795
X4.4815Y-1.755
X4.572Y-2.95
X4.6Y-5.4206
X4.6193Y-1.755
X4.7378Y-5.4206
X4.7513Y-4.2194
X4.822Y-1.73
X4.872Y-2.95
X4.8891Y-4.2194
X4.9325Y-5.422
X5.0696Y-2.9795
X5.092Y-4.196
X5.122Y-1.73
X5.2074Y-2.9795
X5.2325Y-5.422
X5.3222Y-1.755
X5.392Y-4.196
X5.414Y-2.948
X5.44Y-5.4206
X5.46Y-1.755
X5.5778Y-5.4206
X5.592Y-4.2194
X5.664Y-1.73
X5.714Y-2.948
X5.7298Y-4.2194
X5.7725Y-5.422
X5.9104Y-2.9795
X5.936Y-4.192
X5.964Y-1.73
X6.0482Y-2.9795
X6.0725Y-5.422
X6.1629Y-1.755
X6.236Y-4.192
X6.28Y-5.4206
X6.2908Y-2.95
X6.3007Y-1.755
X6.4178Y-5.4206
X6.4327Y-4.2194
X6.542Y-1.73
X6.5705Y-4.2194
X6.5908Y-2.95
X6.6125Y-5.422
X6.7511Y-2.9795
X6.82Y-4.194
X6.842Y-1.73
X6.8889Y-2.9795
X6.9125Y-5.422
X7.0036Y-1.755
X7.1122Y-5.4206
X7.12Y-4.194
X7.1414Y-1.755
X7.146Y-2.948
X7.25Y-5.4206
X7.2734Y-4.2194
X7.398Y-1.73
X7.4112Y-4.2194
X7.446Y-2.948
X7.4525Y-5.422
X7.5918Y-2.9795
X7.652Y-4.194
X7.698Y-1.73
X7.7296Y-2.9795
X7.7525Y-5.422
X7.8443Y-1.755
X7.952Y-4.194
X7.9522Y-5.4206
X7.9821Y-1.755
X7.99Y-2.948
X8.09Y-5.4206
X8.1141Y-4.2194
X8.24Y-1.73
X8.2519Y-4.2194
X8.29Y-2.948
X8.2925Y-5.422
X8.4325Y-2.9795
X8.494Y-4.196
X8.54Y-1.73
X8.5703Y-2.9795
X8.5925Y-5.422
X8.685Y-1.755
X8.7922Y-5.4206
X8.794Y-4.196
X8.8228Y-1.755
X8.93Y-5.4206
X8.9411Y-4.2194
X9.0789Y-4.2194
T3
X2.0499Y-2.6945
X2.1499Y-2.6945
X2.2499Y-2.6945
X2.2648Y-5.1852
X2.279Y-2.1845
X2.3002Y-1.4734
X2.3499Y-2.6945
X2.3648Y-5.1852
X2.4002Y-1.4734
X2.4168Y-2.1845
X2.4499Y-2.6945
X2.4648Y-5.1852
X2.494Y-4.6752
X2.5002Y-1.4734
X2.5293Y-0.9634
X2.5499Y-2.6945
X2.5648Y-5.1852
X2.57Y-3.94
X2.6002Y-1.4734
X2.6318Y-4.6752
X2.6499Y-2.6945
X2.6648Y-5.1852
X2.6671Y-0.9634
X2.67Y-3.94
X2.7002Y-1.4734
X2.7648Y-5.1852
X2.77Y-3.94
X2.7991Y-3.43
X2.8002Y-1.4734
X2.8648Y-5.1852
X2.87Y-3.94
X2.8901Y-2.6945
X2.9002Y-1.4734
X2.9369Y-3.43
X2.97Y-3.94
X2.9901Y-2.6945
X3.07Y-3.94
X3.0901Y-2.6945
X3.1052Y-5.1852
X3.1193Y-2.1845
X3.1403Y-1.4734
X3.17Y-3.94
X3.1901Y-2.6945
X3.2052Y-5.1852
X3.2403Y-1.4734
X3.2571Y-2.1845
X3.2901Y-2.6945
X3.3052Y-5.1852
X3.3343Y-4.6752
X3.3403Y-1.4734
X3.3694Y-0.9634
X3.3901Y-2.6945
X3.4052Y-5.1852
X3.4104Y-3.94
X3.4403Y-1.4734
X3.4721Y-4.6752
X3.4901Y-2.6945
X3.5052Y-5.1852
X3.5072Y-0.9634
X3.5104Y-3.94
X3.5403Y-1.4734
X3.6052Y-5.1852
X3.6104Y-3.94
X3.6396Y-3.43
X3.6403Y-1.4734
X3.7052Y-5.1852
X3.7104Y-3.94
X3.7304Y-2.6945
X3.7403Y-1.4734
X3.7774Y-3.43
X3.8104Y-3.94
X3.8304Y-2.6945
X3.9104Y-3.94
X3.9304Y-2.6945
X3.9455Y-5.1852
X3.9595Y-2.1845
X3.9804Y-1.4734
X4.0104Y-3.94
X4.0304Y-2.6945
X4.0455Y-5.1852
X4.0804Y-1.4734
X4.0973Y-2.1845
X4.1304Y-2.6945
X4.1455Y-5.1852
X4.1746Y-4.6752
X4.1804Y-1.4734
X4.2095Y-0.9634
X4.2304Y-2.6945
X4.2455Y-5.1852
X4.2509Y-3.94
X4.2804Y-1.4734
X4.3124Y-4.6752
X4.3304Y-2.6945
X4.3455Y-5.1852
X4.3473Y-0.9634
X4.3509Y-3.94
X4.3804Y-1.4734
X4.4455Y-5.1852
X4.4509Y-3.94
X4.48Y-3.43
X4.4804Y-1.4734
X4.5455Y-5.1852
X4.5509Y-3.94
X4.5706Y-2.6945
X4.5804Y-1.4734
X4.6178Y-3.43
X4.6509Y-3.94
X4.6706Y-2.6945
X4.7509Y-3.94
X4.7706Y-2.6945
X4.7858Y-5.1852
X4.7998Y-2.1845
X4.8205Y-1.4734
X4.8509Y-3.94
X4.8706Y-2.6945
X4.8858Y-5.1852
X4.9205Y-1.4734
X4.9375Y-2.1845
X4.9706Y-2.6945
X4.9858Y-5.1852
X5.0149Y-4.6752
X5.0205Y-1.4734
X5.0497Y-0.9634
X5.0706Y-2.6945
X5.0858Y-5.1852
X5.0914Y-3.94
X5.1205Y-1.4734
X5.1527Y-4.6752
X5.1706Y-2.6945
X5.1858Y-5.1852
X5.1875Y-0.9634
X5.1914Y-3.94
X5.2205Y-1.4734
X5.2858Y-5.1852
X5.2914Y-3.94
X5.3205Y-3.43
X5.3205Y-1.4734
X5.3858Y-5.1852
X5.3914Y-3.94
X5.4109Y-2.6945
X5.4205Y-1.4734
X5.4583Y-3.43
X5.4914Y-3.94
X5.5109Y-2.6945
X5.5914Y-3.94
X5.6109Y-2.6945
X5.6261Y-5.1852
X5.64Y-2.1845
X5.6606Y-1.4734
X5.6914Y-3.94
X5.7109Y-2.6945
X5.7261Y-5.1852
X5.7606Y-1.4734
X5.7778Y-2.1845
X5.8109Y-2.6945
X5.8261Y-5.1852
X5.8552Y-4.6752
X5.8606Y-1.4734
X5.8898Y-0.9634
X5.9109Y-2.6945
X5.9261Y-5.1852
X5.9318Y-3.94
X5.9606Y-1.4734
X5.993Y-4.6752
X6.0109Y-2.6945
X6.0261Y-5.1852
X6.0276Y-0.9634
X6.0318Y-3.94
X6.0606Y-1.4734
X6.1261Y-5.1852
X6.1318Y-3.94
X6.1606Y-1.4734
X6.1609Y-3.43
X6.2261Y-5.1852
X6.2318Y-3.94
X6.2511Y-2.6945
X6.2606Y-1.4734
X6.2987Y-3.43
X6.3318Y-3.94
X6.3511Y-2.6945
X6.4318Y-3.94
X6.4511Y-2.6945
X6.4664Y-5.1852
X6.4802Y-2.1845
X6.5008Y-1.4734
X6.5318Y-3.94
X6.5511Y-2.6945
X6.5664Y-5.1852
X6.6008Y-1.4734
X6.618Y-2.1845
X6.6511Y-2.6945
X6.6664Y-5.1852
X6.6956Y-4.6752
X6.7008Y-1.4734
X6.7299Y-0.9634
X6.7511Y-2.6945
X6.7664Y-5.1852
X6.7723Y-3.94
X6.8008Y-1.4734
X6.8333Y-4.6752
X6.8511Y-2.6945
X6.8664Y-5.1852
X6.8677Y-0.9634
X6.8723Y-3.94
X6.9008Y-1.4734
X6.9664Y-5.1852
X6.9723Y-3.94
X7.0008Y-1.4734
X7.0014Y-3.43
X7.0664Y-5.1852
X7.0723Y-3.94
X7.0914Y-2.6945
X7.1008Y-1.4734
X7.1392Y-3.43
X7.1723Y-3.94
X7.1914Y-2.6945
X7.2723Y-3.94
X7.2914Y-2.6945
X7.3067Y-5.1852
X7.3205Y-2.1845
X7.3409Y-1.4734
X7.3723Y-3.94
X7.3914Y-2.6945
X7.4067Y-5.1852
X7.4409Y-1.4734
X7.4583Y-2.1845
X7.4914Y-2.6945
X7.5067Y-5.1852
X7.5359Y-4.6752
X7.5409Y-1.4734
X7.57Y-0.9634
X7.5914Y-2.6945
X7.6067Y-5.1852
X7.6127Y-3.94
X7.6409Y-1.4734
X7.6737Y-4.6752
X7.6914Y-2.6945
X7.7067Y-5.1852
X7.7078Y-0.9634
X7.7127Y-3.94
X7.7409Y-1.4734
X7.8067Y-5.1852
X7.8127Y-3.94
X7.8409Y-1.4734
X7.8419Y-3.43
X7.9067Y-5.1852
X7.9127Y-3.94
X7.9316Y-2.6945
X7.9409Y-1.4734
X7.9797Y-3.43
X8.0127Y-3.94
X8.0316Y-2.6945
X8.1127Y-3.94
X8.1316Y-2.6945
X8.147Y-5.1852
X8.1607Y-2.1845
X8.181Y-1.4734
X8.2127Y-3.94
X8.2316Y-2.6945
X8.247Y-5.1852
X8.281Y-1.4734
X8.2985Y-2.1845
X8.3316Y-2.6945
X8.347Y-5.1852
X8.3762Y-4.6752
X8.381Y-1.4734
X8.4101Y-0.9634
X8.4316Y-2.6945
X8.447Y-5.1852
X8.4532Y-3.94
X8.481Y-1.4734
X8.514Y-4.6752
X8.5316Y-2.6945
X8.547Y-5.1852
X8.5479Y-0.9634
X8.5532Y-3.94
X8.581Y-1.4734
X8.647Y-5.1852
X8.6532Y-3.94
X8.681Y-1.4734
X8.6823Y-3.43
X8.747Y-5.1852
X8.7532Y-3.94
X8.781Y-1.4734
X8.8201Y-3.43
X8.8532Y-3.94
X8.9532Y-3.94
X9.0532Y-3.94
X9.34Y-1.58
X9.34Y-1.68
X9.34Y-1.78
X9.34Y-1.88
X9.34Y-1.98
X9.34Y-2.08
X9.34Y-2.49
X9.34Y-2.59
X9.34Y-2.69
X9.34Y-2.79
X9.34Y-2.89
X9.34Y-2.99
X9.34Y-3.4
X9.34Y-3.5
X9.34Y-3.6
X9.34Y-3.7
X9.34Y-3.8
X9.34Y-3.9
X9.34Y-4.31
X9.34Y-4.41
X9.34Y-4.51
X9.34Y-4.61
X9.34Y-4.71
X9.34Y-4.81
X9.44Y-1.58
X9.44Y-1.68
X9.44Y-1.78
X9.44Y-1.88
X9.44Y-1.98
X9.44Y-2.08
X9.44Y-2.49
X9.44Y-2.59
X9.44Y-2.69
X9.44Y-2.79
X9.44Y-2.89
X9.44Y-2.99
X9.44Y-3.4
X9.44Y-3.5
X9.44Y-3.6
X9.44Y-3.7
X9.44Y-3.8
X9.44Y-3.9
X9.44Y-4.31
X9.44Y-4.41
X9.44Y-4.51
X9.44Y-4.61
X9.44Y-4.71
X9.44Y-4.81
X9.6203Y-1.5798
X9.6203Y-1.6798
X9.6203Y-1.7798
X9.6203Y-1.8798
X9.6203Y-1.9798
X9.6203Y-2.0798
X9.6203Y-2.4898
X9.6203Y-2.5898
X9.6203Y-2.6898
X9.6203Y-2.7898
X9.6203Y-2.8898
X9.6203Y-2.9898
X9.6203Y-3.3998
X9.6203Y-3.4998
X9.6203Y-3.5998
X9.6203Y-3.6998
X9.6203Y-3.7998
X9.6203Y-3.8998
X9.6203Y-4.3098
X9.6203Y-4.4098
X9.6203Y-4.5098
X9.6203Y-4.6098
X9.6203Y-4.7098
X9.6203Y-4.8098
X9.7203Y-1.5798
X9.7203Y-1.6798
X9.7203Y-1.7798
X9.7203Y-1.8798
X9.7203Y-1.9798
X9.7203Y-2.0798
X9.7203Y-2.4898
X9.7203Y-2.5898
X9.7203Y-2.6898
X9.7203Y-2.7898
X9.7203Y-2.8898
X9.7203Y-2.9898
X9.7203Y-3.3998
X9.7203Y-3.4998
X9.7203Y-3.5998
X9.7203Y-3.6998
X9.7203Y-3.7998
X9.7203Y-3.8998
X9.7203Y-4.3098
X9.7203Y-4.4098
X9.7203Y-4.5098
X9.7203Y-4.6098
X9.7203Y-4.7098
X9.7203Y-4.8098
T4
X2.09Y-3.69
X2.09Y-3.89
T5
X2.0992Y-2.1427
X2.0992Y-2.1427
X2.3142Y-4.6334
X2.3142Y-4.6334
X2.3495Y-0.9216
X2.3495Y-0.9216
X2.5992Y-2.1427
X2.5992Y-2.1427
X2.6193Y-3.3883
X2.6193Y-3.3883
X2.8142Y-4.6334
X2.8142Y-4.6334
X2.8495Y-0.9216
X2.8495Y-0.9216
X2.9395Y-2.1427
X2.9395Y-2.1427
X3.1193Y-3.3883
X3.1193Y-3.3883
X3.1545Y-4.6334
X3.1545Y-4.6334
X3.1896Y-0.9216
X3.1896Y-0.9216
X3.4395Y-2.1427
X3.4395Y-2.1427
X3.4598Y-3.3883
X3.4598Y-3.3883
X3.6545Y-4.6334
X3.6545Y-4.6334
X3.6896Y-0.9216
X3.6896Y-0.9216
X3.7797Y-2.1427
X3.7797Y-2.1427
X3.9598Y-3.3883
X3.9598Y-3.3883
X3.9948Y-4.6334
X3.9948Y-4.6334
X4.0297Y-0.9216
X4.0297Y-0.9216
X4.2797Y-2.1427
X4.2797Y-2.1427
X4.3002Y-3.3883
X4.3002Y-3.3883
X4.4948Y-4.6334
X4.4948Y-4.6334
X4.5297Y-0.9216
X4.5297Y-0.9216
X4.62Y-2.1427
X4.62Y-2.1427
X4.8002Y-3.3883
X4.8002Y-3.3883
X4.8351Y-4.6334
X4.8351Y-4.6334
X4.8699Y-0.9216
X4.8699Y-0.9216
X5.12Y-2.1427
X5.12Y-2.1427
X5.1407Y-3.3883
X5.1407Y-3.3883
X5.3351Y-4.6334
X5.3351Y-4.6334
X5.3699Y-0.9216
X5.3699Y-0.9216
X5.4602Y-2.1427
X5.4602Y-2.1427
X5.6407Y-3.3883
X5.6407Y-3.3883
X5.6754Y-4.6334
X5.6754Y-4.6334
X5.71Y-0.9216
X5.71Y-0.9216
X5.9602Y-2.1427
X5.9602Y-2.1427
X5.9811Y-3.3883
X5.9811Y-3.3883
X6.1754Y-4.6334
X6.1754Y-4.6334
X6.21Y-0.9216
X6.21Y-0.9216
X6.3004Y-2.1427
X6.3004Y-2.1427
X6.4811Y-3.3883
X6.4811Y-3.3883
X6.5158Y-4.6334
X6.5158Y-4.6334
X6.5501Y-0.9216
X6.5501Y-0.9216
X6.8004Y-2.1427
X6.8004Y-2.1427
X6.8216Y-3.3883
X6.8216Y-3.3883
X7.0158Y-4.6334
X7.0158Y-4.6334
X7.0501Y-0.9216
X7.0501Y-0.9216
X7.1407Y-2.1427
X7.1407Y-2.1427
X7.3216Y-3.3883
X7.3216Y-3.3883
X7.3561Y-4.6334
X7.3561Y-4.6334
X7.3902Y-0.9216
X7.3902Y-0.9216
X7.6407Y-2.1427
X7.6407Y-2.1427
X7.6621Y-3.3883
X7.6621Y-3.3883
X7.8561Y-4.6334
X7.8561Y-4.6334
X7.8902Y-0.9216
X7.8902Y-0.9216
X7.9809Y-2.1427
X7.9809Y-2.1427
X8.1621Y-3.3883
X8.1621Y-3.3883
X8.1964Y-4.6334
X8.1964Y-4.6334
X8.2303Y-0.9216
X8.2303Y-0.9216
X8.4809Y-2.1427
X8.4809Y-2.1427
X8.5025Y-3.3883
X8.5025Y-3.3883
X8.6964Y-4.6334
X8.6964Y-4.6334
X8.7303Y-0.9216
X8.7303Y-0.9216
X9.0025Y-3.3883
X9.0025Y-3.3883
T6
X2.0866Y-0.9449
X2.0866Y-3.189
X2.0866Y-5.4331
X2.0866Y-5.4331
X9.6457Y-0.9449
X9.6457Y-3.189
X9.6457Y-5.4331
T0
M30
