%TF.GenerationSoftware,KiCad,Pcbnew,7.0.0*%
%TF.CreationDate,2024-03-13T15:59:32+01:00*%
%TF.ProjectId,TDM_board,54444d5f-626f-4617-9264-2e6b69636164,rev?*%
%TF.SameCoordinates,Original*%
%TF.FileFunction,Paste,Top*%
%TF.FilePolarity,Positive*%
%FSLAX46Y46*%
G04 Gerber Fmt 4.6, Leading zero omitted, Abs format (unit mm)*
G04 Created by KiCad (PCBNEW 7.0.0) date 2024-03-13 15:59:32*
%MOMM*%
%LPD*%
G01*
G04 APERTURE LIST*
G04 Aperture macros list*
%AMRoundRect*
0 Rectangle with rounded corners*
0 $1 Rounding radius*
0 $2 $3 $4 $5 $6 $7 $8 $9 X,Y pos of 4 corners*
0 Add a 4 corners polygon primitive as box body*
4,1,4,$2,$3,$4,$5,$6,$7,$8,$9,$2,$3,0*
0 Add four circle primitives for the rounded corners*
1,1,$1+$1,$2,$3*
1,1,$1+$1,$4,$5*
1,1,$1+$1,$6,$7*
1,1,$1+$1,$8,$9*
0 Add four rect primitives between the rounded corners*
20,1,$1+$1,$2,$3,$4,$5,0*
20,1,$1+$1,$4,$5,$6,$7,0*
20,1,$1+$1,$6,$7,$8,$9,0*
20,1,$1+$1,$8,$9,$2,$3,0*%
G04 Aperture macros list end*
%ADD10R,1.240000X1.500000*%
%ADD11R,0.280000X0.800000*%
%ADD12R,0.800000X0.280000*%
%ADD13RoundRect,0.250000X-0.650000X0.325000X-0.650000X-0.325000X0.650000X-0.325000X0.650000X0.325000X0*%
%ADD14R,1.500000X1.240000*%
%ADD15RoundRect,0.250000X0.650000X-0.325000X0.650000X0.325000X-0.650000X0.325000X-0.650000X-0.325000X0*%
%ADD16RoundRect,0.250000X0.312500X0.625000X-0.312500X0.625000X-0.312500X-0.625000X0.312500X-0.625000X0*%
%ADD17RoundRect,0.250000X0.625000X-0.312500X0.625000X0.312500X-0.625000X0.312500X-0.625000X-0.312500X0*%
%ADD18RoundRect,0.250000X0.325000X0.650000X-0.325000X0.650000X-0.325000X-0.650000X0.325000X-0.650000X0*%
%ADD19RoundRect,0.250000X-0.625000X0.312500X-0.625000X-0.312500X0.625000X-0.312500X0.625000X0.312500X0*%
%ADD20R,0.700000X1.550000*%
G04 APERTURE END LIST*
%TO.C,U21*%
G36*
X158859419Y-95567562D02*
G01*
X157716419Y-95567562D01*
X157716419Y-94424562D01*
X158859419Y-94424562D01*
X158859419Y-95567562D01*
G37*
%TO.C,U19*%
G36*
X116164213Y-95567562D02*
G01*
X115021213Y-95567562D01*
X115021213Y-94424562D01*
X116164213Y-94424562D01*
X116164213Y-95567562D01*
G37*
%TO.C,U18*%
G36*
X94816610Y-95567562D02*
G01*
X93673610Y-95567562D01*
X93673610Y-94424562D01*
X94816610Y-94424562D01*
X94816610Y-95567562D01*
G37*
%TO.C,U2*%
G36*
X87954577Y-32914796D02*
G01*
X86811577Y-32914796D01*
X86811577Y-31771796D01*
X87954577Y-31771796D01*
X87954577Y-32914796D01*
G37*
%TO.C,U32*%
G36*
X215126494Y-127194500D02*
G01*
X213983494Y-127194500D01*
X213983494Y-126051500D01*
X215126494Y-126051500D01*
X215126494Y-127194500D01*
G37*
%TO.C,U14*%
G36*
X166969738Y-63931276D02*
G01*
X165826738Y-63931276D01*
X165826738Y-62788276D01*
X166969738Y-62788276D01*
X166969738Y-63931276D01*
G37*
%TO.C,U4*%
G36*
X130632731Y-32914796D02*
G01*
X129489731Y-32914796D01*
X129489731Y-31771796D01*
X130632731Y-31771796D01*
X130632731Y-32914796D01*
G37*
%TO.C,U13*%
G36*
X145627500Y-63931276D02*
G01*
X144484500Y-63931276D01*
X144484500Y-62788276D01*
X145627500Y-62788276D01*
X145627500Y-63931276D01*
G37*
%TO.C,U10*%
G36*
X81600786Y-63931276D02*
G01*
X80457786Y-63931276D01*
X80457786Y-62788276D01*
X81600786Y-62788276D01*
X81600786Y-63931276D01*
G37*
%TO.C,U28*%
G36*
X129750498Y-127194500D02*
G01*
X128607498Y-127194500D01*
X128607498Y-126051500D01*
X129750498Y-126051500D01*
X129750498Y-127194500D01*
G37*
%TO.C,U5*%
G36*
X151971808Y-32914796D02*
G01*
X150828808Y-32914796D01*
X150828808Y-31771796D01*
X151971808Y-31771796D01*
X151971808Y-32914796D01*
G37*
%TO.C,U1*%
G36*
X66615500Y-32914796D02*
G01*
X65472500Y-32914796D01*
X65472500Y-31771796D01*
X66615500Y-31771796D01*
X66615500Y-32914796D01*
G37*
%TO.C,U6*%
G36*
X173310885Y-32914796D02*
G01*
X172167885Y-32914796D01*
X172167885Y-31771796D01*
X173310885Y-31771796D01*
X173310885Y-32914796D01*
G37*
%TO.C,U9*%
G36*
X60258548Y-63931276D02*
G01*
X59115548Y-63931276D01*
X59115548Y-62788276D01*
X60258548Y-62788276D01*
X60258548Y-63931276D01*
G37*
%TO.C,U8*%
G36*
X215989040Y-32914796D02*
G01*
X214846040Y-32914796D01*
X214846040Y-31771796D01*
X215989040Y-31771796D01*
X215989040Y-32914796D01*
G37*
%TO.C,U23*%
G36*
X201554625Y-95567562D02*
G01*
X200411625Y-95567562D01*
X200411625Y-94424562D01*
X201554625Y-94424562D01*
X201554625Y-95567562D01*
G37*
%TO.C,U11*%
G36*
X102943024Y-63931276D02*
G01*
X101800024Y-63931276D01*
X101800024Y-62788276D01*
X102943024Y-62788276D01*
X102943024Y-63931276D01*
G37*
%TO.C,U20*%
G36*
X137511816Y-95567562D02*
G01*
X136368816Y-95567562D01*
X136368816Y-94424562D01*
X137511816Y-94424562D01*
X137511816Y-95567562D01*
G37*
%TO.C,U31*%
G36*
X193782495Y-127194500D02*
G01*
X192639495Y-127194500D01*
X192639495Y-126051500D01*
X193782495Y-126051500D01*
X193782495Y-127194500D01*
G37*
%TO.C,U26*%
G36*
X87062500Y-127194500D02*
G01*
X85919500Y-127194500D01*
X85919500Y-126051500D01*
X87062500Y-126051500D01*
X87062500Y-127194500D01*
G37*
%TO.C,U29*%
G36*
X151094497Y-127194500D02*
G01*
X149951497Y-127194500D01*
X149951497Y-126051500D01*
X151094497Y-126051500D01*
X151094497Y-127194500D01*
G37*
%TO.C,U15*%
G36*
X188311976Y-63931276D02*
G01*
X187168976Y-63931276D01*
X187168976Y-62788276D01*
X188311976Y-62788276D01*
X188311976Y-63931276D01*
G37*
%TO.C,U27*%
G36*
X108406499Y-127194500D02*
G01*
X107263499Y-127194500D01*
X107263499Y-126051500D01*
X108406499Y-126051500D01*
X108406499Y-127194500D01*
G37*
%TO.C,U22*%
G36*
X180207022Y-95567562D02*
G01*
X179064022Y-95567562D01*
X179064022Y-94424562D01*
X180207022Y-94424562D01*
X180207022Y-95567562D01*
G37*
%TO.C,U3*%
G36*
X109293654Y-32914796D02*
G01*
X108150654Y-32914796D01*
X108150654Y-31771796D01*
X109293654Y-31771796D01*
X109293654Y-32914796D01*
G37*
%TO.C,U12*%
G36*
X124285262Y-63931276D02*
G01*
X123142262Y-63931276D01*
X123142262Y-62788276D01*
X124285262Y-62788276D01*
X124285262Y-63931276D01*
G37*
%TO.C,U30*%
G36*
X172438496Y-127194500D02*
G01*
X171295496Y-127194500D01*
X171295496Y-126051500D01*
X172438496Y-126051500D01*
X172438496Y-127194500D01*
G37*
%TO.C,U7*%
G36*
X194649962Y-32914796D02*
G01*
X193506962Y-32914796D01*
X193506962Y-31771796D01*
X194649962Y-31771796D01*
X194649962Y-32914796D01*
G37*
%TO.C,U16*%
G36*
X209654218Y-63931276D02*
G01*
X208511218Y-63931276D01*
X208511218Y-62788276D01*
X209654218Y-62788276D01*
X209654218Y-63931276D01*
G37*
%TO.C,U25*%
G36*
X65718501Y-127194500D02*
G01*
X64575501Y-127194500D01*
X64575501Y-126051500D01*
X65718501Y-126051500D01*
X65718501Y-127194500D01*
G37*
%TO.C,U17*%
G36*
X73469007Y-95567562D02*
G01*
X72326007Y-95567562D01*
X72326007Y-94424562D01*
X73469007Y-94424562D01*
X73469007Y-95567562D01*
G37*
%TO.C,U24*%
G36*
X222902231Y-95567562D02*
G01*
X221759231Y-95567562D01*
X221759231Y-94424562D01*
X222902231Y-94424562D01*
X222902231Y-95567562D01*
G37*
%TD*%
D10*
%TO.C,FB62*%
X191620994Y-123320999D03*
X189720994Y-123320999D03*
%TD*%
%TO.C,FB63*%
X216144993Y-123320999D03*
X218044993Y-123320999D03*
%TD*%
D11*
%TO.C,U21*%
X157537918Y-96496061D03*
X158037918Y-96496061D03*
X158537918Y-96496061D03*
X159037918Y-96496061D03*
D12*
X159787918Y-95746061D03*
X159787918Y-95246061D03*
X159787918Y-94746061D03*
X159787918Y-94246061D03*
D11*
X159037918Y-93496061D03*
X158537918Y-93496061D03*
X158037918Y-93496061D03*
X157537918Y-93496061D03*
D12*
X156787918Y-94246061D03*
X156787918Y-94746061D03*
X156787918Y-95246061D03*
X156787918Y-95746061D03*
%TD*%
D13*
%TO.C,C136*%
X225044000Y-50087000D03*
X225044000Y-53037000D03*
%TD*%
D14*
%TO.C,C90*%
X206825124Y-95438061D03*
X206825124Y-93538061D03*
%TD*%
D10*
%TO.C,C59*%
X182340475Y-60057775D03*
X180440475Y-60057775D03*
%TD*%
D14*
%TO.C,C33*%
X63497047Y-63801775D03*
X63497047Y-61901775D03*
%TD*%
D10*
%TO.C,FB58*%
X148932996Y-123320999D03*
X147032996Y-123320999D03*
%TD*%
%TO.C,FB9*%
X152990307Y-29041295D03*
X154890307Y-29041295D03*
%TD*%
D11*
%TO.C,U19*%
X114842712Y-96496061D03*
X115342712Y-96496061D03*
X115842712Y-96496061D03*
X116342712Y-96496061D03*
D12*
X117092712Y-95746061D03*
X117092712Y-95246061D03*
X117092712Y-94746061D03*
X117092712Y-94246061D03*
D11*
X116342712Y-93496061D03*
X115842712Y-93496061D03*
X115342712Y-93496061D03*
X114842712Y-93496061D03*
D12*
X114092712Y-94246061D03*
X114092712Y-94746061D03*
X114092712Y-95246061D03*
X114092712Y-95746061D03*
%TD*%
D11*
%TO.C,U18*%
X93495109Y-96496061D03*
X93995109Y-96496061D03*
X94495109Y-96496061D03*
X94995109Y-96496061D03*
D12*
X95745109Y-95746061D03*
X95745109Y-95246061D03*
X95745109Y-94746061D03*
X95745109Y-94246061D03*
D11*
X94995109Y-93496061D03*
X94495109Y-93496061D03*
X93995109Y-93496061D03*
X93495109Y-93496061D03*
D12*
X92745109Y-94246061D03*
X92745109Y-94746061D03*
X92745109Y-95246061D03*
X92745109Y-95746061D03*
%TD*%
D14*
%TO.C,C50*%
X150897999Y-63801775D03*
X150897999Y-61901775D03*
%TD*%
D10*
%TO.C,FB40*%
X135350315Y-91694061D03*
X133450315Y-91694061D03*
%TD*%
D11*
%TO.C,U2*%
X86633076Y-33843295D03*
X87133076Y-33843295D03*
X87633076Y-33843295D03*
X88133076Y-33843295D03*
D12*
X88883076Y-33093295D03*
X88883076Y-32593295D03*
X88883076Y-32093295D03*
X88883076Y-31593295D03*
D11*
X88133076Y-30843295D03*
X87633076Y-30843295D03*
X87133076Y-30843295D03*
X86633076Y-30843295D03*
D12*
X85883076Y-31593295D03*
X85883076Y-32093295D03*
X85883076Y-32593295D03*
X85883076Y-33093295D03*
%TD*%
D10*
%TO.C,FB39*%
X138530315Y-91694061D03*
X140430315Y-91694061D03*
%TD*%
%TO.C,FB47*%
X223920730Y-91694061D03*
X225820730Y-91694061D03*
%TD*%
D14*
%TO.C,C49*%
X148865999Y-63801775D03*
X148865999Y-61901775D03*
%TD*%
D10*
%TO.C,FB31*%
X210672717Y-60057775D03*
X212572717Y-60057775D03*
%TD*%
D11*
%TO.C,U32*%
X213804993Y-128122999D03*
X214304993Y-128122999D03*
X214804993Y-128122999D03*
X215304993Y-128122999D03*
D12*
X216054993Y-127372999D03*
X216054993Y-126872999D03*
X216054993Y-126372999D03*
X216054993Y-125872999D03*
D11*
X215304993Y-125122999D03*
X214804993Y-125122999D03*
X214304993Y-125122999D03*
X213804993Y-125122999D03*
D12*
X213054993Y-125872999D03*
X213054993Y-126372999D03*
X213054993Y-126872999D03*
X213054993Y-127372999D03*
%TD*%
D11*
%TO.C,U14*%
X165648237Y-64859775D03*
X166148237Y-64859775D03*
X166648237Y-64859775D03*
X167148237Y-64859775D03*
D12*
X167898237Y-64109775D03*
X167898237Y-63609775D03*
X167898237Y-63109775D03*
X167898237Y-62609775D03*
D11*
X167148237Y-61859775D03*
X166648237Y-61859775D03*
X166148237Y-61859775D03*
X165648237Y-61859775D03*
D12*
X164898237Y-62609775D03*
X164898237Y-63109775D03*
X164898237Y-63609775D03*
X164898237Y-64109775D03*
%TD*%
D10*
%TO.C,C123*%
X187810994Y-123320999D03*
X185910994Y-123320999D03*
%TD*%
D14*
%TO.C,C70*%
X100087109Y-95438061D03*
X100087109Y-93538061D03*
%TD*%
D10*
%TO.C,FB35*%
X95835109Y-91694061D03*
X97735109Y-91694061D03*
%TD*%
D14*
%TO.C,C77*%
X140750315Y-95438061D03*
X140750315Y-93538061D03*
%TD*%
D15*
%TO.C,C133*%
X227584000Y-123141000D03*
X227584000Y-120191000D03*
%TD*%
D11*
%TO.C,U4*%
X129311230Y-33843295D03*
X129811230Y-33843295D03*
X130311230Y-33843295D03*
X130811230Y-33843295D03*
D12*
X131561230Y-33093295D03*
X131561230Y-32593295D03*
X131561230Y-32093295D03*
X131561230Y-31593295D03*
D11*
X130811230Y-30843295D03*
X130311230Y-30843295D03*
X129811230Y-30843295D03*
X129311230Y-30843295D03*
D12*
X128561230Y-31593295D03*
X128561230Y-32093295D03*
X128561230Y-32593295D03*
X128561230Y-33093295D03*
%TD*%
D10*
%TO.C,C48*%
X128986761Y-60057775D03*
X130886761Y-60057775D03*
%TD*%
%TO.C,C27*%
X188678461Y-29041295D03*
X186778461Y-29041295D03*
%TD*%
%TO.C,C15*%
X124661230Y-29041295D03*
X122761230Y-29041295D03*
%TD*%
%TO.C,FB15*%
X217007539Y-29041295D03*
X218907539Y-29041295D03*
%TD*%
D14*
%TO.C,C102*%
X92332999Y-127064999D03*
X92332999Y-125164999D03*
%TD*%
%TO.C,C2*%
X71885999Y-32785295D03*
X71885999Y-30885295D03*
%TD*%
D10*
%TO.C,FB21*%
X103961523Y-60057775D03*
X105861523Y-60057775D03*
%TD*%
D11*
%TO.C,U13*%
X144305999Y-64859775D03*
X144805999Y-64859775D03*
X145305999Y-64859775D03*
X145805999Y-64859775D03*
D12*
X146555999Y-64109775D03*
X146555999Y-63609775D03*
X146555999Y-63109775D03*
X146555999Y-62609775D03*
D11*
X145805999Y-61859775D03*
X145305999Y-61859775D03*
X144805999Y-61859775D03*
X144305999Y-61859775D03*
D12*
X143555999Y-62609775D03*
X143555999Y-63109775D03*
X143555999Y-63609775D03*
X143555999Y-64109775D03*
%TD*%
D10*
%TO.C,C124*%
X198483994Y-123320999D03*
X200383994Y-123320999D03*
%TD*%
%TO.C,FB8*%
X128471230Y-29041295D03*
X126571230Y-29041295D03*
%TD*%
%TO.C,C72*%
X99518109Y-91694061D03*
X101418109Y-91694061D03*
%TD*%
D11*
%TO.C,U10*%
X80279285Y-64859775D03*
X80779285Y-64859775D03*
X81279285Y-64859775D03*
X81779285Y-64859775D03*
D12*
X82529285Y-64109775D03*
X82529285Y-63609775D03*
X82529285Y-63109775D03*
X82529285Y-62609775D03*
D11*
X81779285Y-61859775D03*
X81279285Y-61859775D03*
X80779285Y-61859775D03*
X80279285Y-61859775D03*
D12*
X79529285Y-62609775D03*
X79529285Y-63109775D03*
X79529285Y-63609775D03*
X79529285Y-64109775D03*
%TD*%
D10*
%TO.C,FB32*%
X207492717Y-60057775D03*
X205592717Y-60057775D03*
%TD*%
D11*
%TO.C,U28*%
X128428997Y-128122999D03*
X128928997Y-128122999D03*
X129428997Y-128122999D03*
X129928997Y-128122999D03*
D12*
X130678997Y-127372999D03*
X130678997Y-126872999D03*
X130678997Y-126372999D03*
X130678997Y-125872999D03*
D11*
X129928997Y-125122999D03*
X129428997Y-125122999D03*
X128928997Y-125122999D03*
X128428997Y-125122999D03*
D12*
X127678997Y-125872999D03*
X127678997Y-126372999D03*
X127678997Y-126872999D03*
X127678997Y-127372999D03*
%TD*%
D10*
%TO.C,C28*%
X199351461Y-29041295D03*
X201251461Y-29041295D03*
%TD*%
%TO.C,C51*%
X139655999Y-60057775D03*
X137755999Y-60057775D03*
%TD*%
%TO.C,FB28*%
X164808237Y-60057775D03*
X162908237Y-60057775D03*
%TD*%
D11*
%TO.C,U5*%
X150650307Y-33843295D03*
X151150307Y-33843295D03*
X151650307Y-33843295D03*
X152150307Y-33843295D03*
D12*
X152900307Y-33093295D03*
X152900307Y-32593295D03*
X152900307Y-32093295D03*
X152900307Y-31593295D03*
D11*
X152150307Y-30843295D03*
X151650307Y-30843295D03*
X151150307Y-30843295D03*
X150650307Y-30843295D03*
D12*
X149900307Y-31593295D03*
X149900307Y-32093295D03*
X149900307Y-32593295D03*
X149900307Y-33093295D03*
%TD*%
D14*
%TO.C,C81*%
X162097918Y-95438061D03*
X162097918Y-93538061D03*
%TD*%
%TO.C,C46*%
X129555761Y-63801775D03*
X129555761Y-61901775D03*
%TD*%
%TO.C,C22*%
X178581384Y-32785295D03*
X178581384Y-30885295D03*
%TD*%
D10*
%TO.C,C80*%
X142213315Y-91694061D03*
X144113315Y-91694061D03*
%TD*%
%TO.C,FB12*%
X171149384Y-29041295D03*
X169249384Y-29041295D03*
%TD*%
D14*
%TO.C,C89*%
X204793124Y-95438061D03*
X204793124Y-93538061D03*
%TD*%
D16*
%TO.C,R33*%
X222823500Y-62484000D03*
X219898500Y-62484000D03*
%TD*%
D10*
%TO.C,FB25*%
X146645999Y-60057775D03*
X148545999Y-60057775D03*
%TD*%
%TO.C,C107*%
X102434998Y-123320999D03*
X100534998Y-123320999D03*
%TD*%
D11*
%TO.C,U1*%
X65293999Y-33843295D03*
X65793999Y-33843295D03*
X66293999Y-33843295D03*
X66793999Y-33843295D03*
D12*
X67543999Y-33093295D03*
X67543999Y-32593295D03*
X67543999Y-32093295D03*
X67543999Y-31593295D03*
D11*
X66793999Y-30843295D03*
X66293999Y-30843295D03*
X65793999Y-30843295D03*
X65293999Y-30843295D03*
D12*
X64543999Y-31593295D03*
X64543999Y-32093295D03*
X64543999Y-32593295D03*
X64543999Y-33093295D03*
%TD*%
D17*
%TO.C,R25*%
X229616000Y-34421000D03*
X229616000Y-31496000D03*
%TD*%
D13*
%TO.C,C134*%
X232410000Y-50087000D03*
X232410000Y-53037000D03*
%TD*%
D10*
%TO.C,FB61*%
X194800994Y-123320999D03*
X196700994Y-123320999D03*
%TD*%
%TO.C,C35*%
X54287047Y-60057775D03*
X52387047Y-60057775D03*
%TD*%
D14*
%TO.C,C125*%
X218364993Y-127064999D03*
X218364993Y-125164999D03*
%TD*%
D10*
%TO.C,FB34*%
X71307506Y-91694061D03*
X69407506Y-91694061D03*
%TD*%
%TO.C,FB2*%
X64453999Y-29041295D03*
X62553999Y-29041295D03*
%TD*%
D14*
%TO.C,C114*%
X156364996Y-127064999D03*
X156364996Y-125164999D03*
%TD*%
D10*
%TO.C,C3*%
X60643999Y-29041295D03*
X58743999Y-29041295D03*
%TD*%
%TO.C,FB6*%
X107132153Y-29041295D03*
X105232153Y-29041295D03*
%TD*%
%TO.C,FB51*%
X88080999Y-123320999D03*
X89980999Y-123320999D03*
%TD*%
D14*
%TO.C,C78*%
X142782315Y-95438061D03*
X142782315Y-93538061D03*
%TD*%
D10*
%TO.C,C115*%
X145122996Y-123320999D03*
X143222996Y-123320999D03*
%TD*%
D16*
%TO.C,R26*%
X222823500Y-69977000D03*
X219898500Y-69977000D03*
%TD*%
D10*
%TO.C,C8*%
X92656076Y-29041295D03*
X94556076Y-29041295D03*
%TD*%
%TO.C,C44*%
X107644523Y-60057775D03*
X109544523Y-60057775D03*
%TD*%
%TO.C,FB59*%
X173456995Y-123320999D03*
X175356995Y-123320999D03*
%TD*%
%TO.C,FB37*%
X117182712Y-91694061D03*
X119082712Y-91694061D03*
%TD*%
D14*
%TO.C,C25*%
X197888461Y-32785295D03*
X197888461Y-30885295D03*
%TD*%
D10*
%TO.C,FB22*%
X100781523Y-60057775D03*
X98881523Y-60057775D03*
%TD*%
%TO.C,FB17*%
X61277047Y-60057775D03*
X63177047Y-60057775D03*
%TD*%
%TO.C,C95*%
X216930730Y-91694061D03*
X215030730Y-91694061D03*
%TD*%
%TO.C,C60*%
X193013475Y-60057775D03*
X194913475Y-60057775D03*
%TD*%
%TO.C,FB44*%
X178045521Y-91694061D03*
X176145521Y-91694061D03*
%TD*%
D14*
%TO.C,C26*%
X199920461Y-32785295D03*
X199920461Y-30885295D03*
%TD*%
D10*
%TO.C,C116*%
X155795996Y-123320999D03*
X157695996Y-123320999D03*
%TD*%
D14*
%TO.C,C109*%
X132988997Y-127064999D03*
X132988997Y-125164999D03*
%TD*%
D10*
%TO.C,FB23*%
X125303761Y-60057775D03*
X127203761Y-60057775D03*
%TD*%
%TO.C,C103*%
X81090999Y-123320999D03*
X79190999Y-123320999D03*
%TD*%
D14*
%TO.C,C101*%
X90300999Y-127064999D03*
X90300999Y-125164999D03*
%TD*%
D11*
%TO.C,U6*%
X171989384Y-33843295D03*
X172489384Y-33843295D03*
X172989384Y-33843295D03*
X173489384Y-33843295D03*
D12*
X174239384Y-33093295D03*
X174239384Y-32593295D03*
X174239384Y-32093295D03*
X174239384Y-31593295D03*
D11*
X173489384Y-30843295D03*
X172989384Y-30843295D03*
X172489384Y-30843295D03*
X171989384Y-30843295D03*
D12*
X171239384Y-31593295D03*
X171239384Y-32093295D03*
X171239384Y-32593295D03*
X171239384Y-33093295D03*
%TD*%
D10*
%TO.C,FB43*%
X181225521Y-91694061D03*
X183125521Y-91694061D03*
%TD*%
%TO.C,C111*%
X123778997Y-123320999D03*
X121878997Y-123320999D03*
%TD*%
D14*
%TO.C,C38*%
X86871285Y-63801775D03*
X86871285Y-61901775D03*
%TD*%
%TO.C,C53*%
X170208237Y-63801775D03*
X170208237Y-61901775D03*
%TD*%
D10*
%TO.C,FB54*%
X106244998Y-123320999D03*
X104344998Y-123320999D03*
%TD*%
D14*
%TO.C,C66*%
X78739506Y-95438061D03*
X78739506Y-93538061D03*
%TD*%
%TO.C,C29*%
X219227539Y-32785295D03*
X219227539Y-30885295D03*
%TD*%
D18*
%TO.C,C131*%
X222836000Y-66294000D03*
X219886000Y-66294000D03*
%TD*%
D19*
%TO.C,R30*%
X232410000Y-56195500D03*
X232410000Y-59120500D03*
%TD*%
D14*
%TO.C,C122*%
X199052994Y-127064999D03*
X199052994Y-125164999D03*
%TD*%
D11*
%TO.C,U9*%
X58937047Y-64859775D03*
X59437047Y-64859775D03*
X59937047Y-64859775D03*
X60437047Y-64859775D03*
D12*
X61187047Y-64109775D03*
X61187047Y-63609775D03*
X61187047Y-63109775D03*
X61187047Y-62609775D03*
D11*
X60437047Y-61859775D03*
X59937047Y-61859775D03*
X59437047Y-61859775D03*
X58937047Y-61859775D03*
D12*
X58187047Y-62609775D03*
X58187047Y-63109775D03*
X58187047Y-63609775D03*
X58187047Y-64109775D03*
%TD*%
D11*
%TO.C,U8*%
X214667539Y-33843295D03*
X215167539Y-33843295D03*
X215667539Y-33843295D03*
X216167539Y-33843295D03*
D12*
X216917539Y-33093295D03*
X216917539Y-32593295D03*
X216917539Y-32093295D03*
X216917539Y-31593295D03*
D11*
X216167539Y-30843295D03*
X215667539Y-30843295D03*
X215167539Y-30843295D03*
X214667539Y-30843295D03*
D12*
X213917539Y-31593295D03*
X213917539Y-32093295D03*
X213917539Y-32593295D03*
X213917539Y-33093295D03*
%TD*%
D10*
%TO.C,FB38*%
X114002712Y-91694061D03*
X112102712Y-91694061D03*
%TD*%
%TO.C,FB55*%
X130768997Y-123320999D03*
X132668997Y-123320999D03*
%TD*%
D14*
%TO.C,C42*%
X108213523Y-63801775D03*
X108213523Y-61901775D03*
%TD*%
D19*
%TO.C,R29*%
X227584000Y-114931000D03*
X227584000Y-117856000D03*
%TD*%
D14*
%TO.C,C54*%
X172240237Y-63801775D03*
X172240237Y-61901775D03*
%TD*%
D11*
%TO.C,U23*%
X200233124Y-96496061D03*
X200733124Y-96496061D03*
X201233124Y-96496061D03*
X201733124Y-96496061D03*
D12*
X202483124Y-95746061D03*
X202483124Y-95246061D03*
X202483124Y-94746061D03*
X202483124Y-94246061D03*
D11*
X201733124Y-93496061D03*
X201233124Y-93496061D03*
X200733124Y-93496061D03*
X200233124Y-93496061D03*
D12*
X199483124Y-94246061D03*
X199483124Y-94746061D03*
X199483124Y-95246061D03*
X199483124Y-95746061D03*
%TD*%
D10*
%TO.C,C108*%
X113107998Y-123320999D03*
X115007998Y-123320999D03*
%TD*%
%TO.C,C24*%
X178012384Y-29041295D03*
X179912384Y-29041295D03*
%TD*%
D14*
%TO.C,C41*%
X106181523Y-63801775D03*
X106181523Y-61901775D03*
%TD*%
D10*
%TO.C,C84*%
X163560918Y-91694061D03*
X165460918Y-91694061D03*
%TD*%
%TO.C,C112*%
X134451997Y-123320999D03*
X136351997Y-123320999D03*
%TD*%
%TO.C,FB49*%
X66737000Y-123320999D03*
X68637000Y-123320999D03*
%TD*%
%TO.C,C96*%
X227603730Y-91694061D03*
X229503730Y-91694061D03*
%TD*%
%TO.C,C55*%
X160998237Y-60057775D03*
X159098237Y-60057775D03*
%TD*%
%TO.C,FB45*%
X202573124Y-91694061D03*
X204473124Y-91694061D03*
%TD*%
%TO.C,C39*%
X75629285Y-60057775D03*
X73729285Y-60057775D03*
%TD*%
D14*
%TO.C,C5*%
X91193076Y-32785295D03*
X91193076Y-30885295D03*
%TD*%
D10*
%TO.C,FB24*%
X122123761Y-60057775D03*
X120223761Y-60057775D03*
%TD*%
%TO.C,C67*%
X67497506Y-91694061D03*
X65597506Y-91694061D03*
%TD*%
%TO.C,C4*%
X71316999Y-29041295D03*
X73216999Y-29041295D03*
%TD*%
%TO.C,FB13*%
X195668461Y-29041295D03*
X197568461Y-29041295D03*
%TD*%
%TO.C,C79*%
X131540315Y-91694061D03*
X129640315Y-91694061D03*
%TD*%
D14*
%TO.C,C94*%
X228172730Y-95438061D03*
X228172730Y-93538061D03*
%TD*%
%TO.C,C86*%
X185477521Y-95438061D03*
X185477521Y-93538061D03*
%TD*%
D10*
%TO.C,C36*%
X64960047Y-60057775D03*
X66860047Y-60057775D03*
%TD*%
%TO.C,FB27*%
X167988237Y-60057775D03*
X169888237Y-60057775D03*
%TD*%
D11*
%TO.C,U11*%
X101621523Y-64859775D03*
X102121523Y-64859775D03*
X102621523Y-64859775D03*
X103121523Y-64859775D03*
D12*
X103871523Y-64109775D03*
X103871523Y-63609775D03*
X103871523Y-63109775D03*
X103871523Y-62609775D03*
D11*
X103121523Y-61859775D03*
X102621523Y-61859775D03*
X102121523Y-61859775D03*
X101621523Y-61859775D03*
D12*
X100871523Y-62609775D03*
X100871523Y-63109775D03*
X100871523Y-63609775D03*
X100871523Y-64109775D03*
%TD*%
D11*
%TO.C,U20*%
X136190315Y-96496061D03*
X136690315Y-96496061D03*
X137190315Y-96496061D03*
X137690315Y-96496061D03*
D12*
X138440315Y-95746061D03*
X138440315Y-95246061D03*
X138440315Y-94746061D03*
X138440315Y-94246061D03*
D11*
X137690315Y-93496061D03*
X137190315Y-93496061D03*
X136690315Y-93496061D03*
X136190315Y-93496061D03*
D12*
X135440315Y-94246061D03*
X135440315Y-94746061D03*
X135440315Y-95246061D03*
X135440315Y-95746061D03*
%TD*%
D14*
%TO.C,C17*%
X155210307Y-32785295D03*
X155210307Y-30885295D03*
%TD*%
%TO.C,C121*%
X197020994Y-127064999D03*
X197020994Y-125164999D03*
%TD*%
D10*
%TO.C,FB18*%
X58097047Y-60057775D03*
X56197047Y-60057775D03*
%TD*%
%TO.C,C88*%
X184908521Y-91694061D03*
X186808521Y-91694061D03*
%TD*%
D11*
%TO.C,U31*%
X192460994Y-128122999D03*
X192960994Y-128122999D03*
X193460994Y-128122999D03*
X193960994Y-128122999D03*
D12*
X194710994Y-127372999D03*
X194710994Y-126872999D03*
X194710994Y-126372999D03*
X194710994Y-125872999D03*
D11*
X193960994Y-125122999D03*
X193460994Y-125122999D03*
X192960994Y-125122999D03*
X192460994Y-125122999D03*
D12*
X191710994Y-125872999D03*
X191710994Y-126372999D03*
X191710994Y-126872999D03*
X191710994Y-127372999D03*
%TD*%
D14*
%TO.C,C113*%
X154332996Y-127064999D03*
X154332996Y-125164999D03*
%TD*%
%TO.C,C74*%
X121434712Y-95438061D03*
X121434712Y-93538061D03*
%TD*%
D10*
%TO.C,C92*%
X206256124Y-91694061D03*
X208156124Y-91694061D03*
%TD*%
%TO.C,FB53*%
X109424998Y-123320999D03*
X111324998Y-123320999D03*
%TD*%
%TO.C,FB60*%
X170276995Y-123320999D03*
X168376995Y-123320999D03*
%TD*%
%TO.C,C128*%
X219827993Y-123320999D03*
X221727993Y-123320999D03*
%TD*%
D14*
%TO.C,C10*%
X114564153Y-32785295D03*
X114564153Y-30885295D03*
%TD*%
D10*
%TO.C,FB30*%
X186150475Y-60057775D03*
X184250475Y-60057775D03*
%TD*%
%TO.C,C12*%
X113995153Y-29041295D03*
X115895153Y-29041295D03*
%TD*%
%TO.C,C127*%
X209154993Y-123320999D03*
X207254993Y-123320999D03*
%TD*%
%TO.C,FB46*%
X199393124Y-91694061D03*
X197493124Y-91694061D03*
%TD*%
D14*
%TO.C,C13*%
X133871230Y-32785295D03*
X133871230Y-30885295D03*
%TD*%
%TO.C,C57*%
X191550475Y-63801775D03*
X191550475Y-61901775D03*
%TD*%
D10*
%TO.C,FB3*%
X88973076Y-29041295D03*
X90873076Y-29041295D03*
%TD*%
D14*
%TO.C,C30*%
X221259539Y-32785295D03*
X221259539Y-30885295D03*
%TD*%
D10*
%TO.C,FB16*%
X213827539Y-29041295D03*
X211927539Y-29041295D03*
%TD*%
D18*
%TO.C,C132*%
X224614000Y-80010000D03*
X221664000Y-80010000D03*
%TD*%
D10*
%TO.C,C87*%
X174235521Y-91694061D03*
X172335521Y-91694061D03*
%TD*%
D20*
%TO.C,IC2*%
X230504999Y-62552999D03*
X229234999Y-62552999D03*
X227964999Y-62552999D03*
X226694999Y-62552999D03*
X226694999Y-68002999D03*
X227964999Y-68002999D03*
X229234999Y-68002999D03*
X230504999Y-68002999D03*
%TD*%
D14*
%TO.C,C62*%
X214924717Y-63801775D03*
X214924717Y-61901775D03*
%TD*%
D10*
%TO.C,FB29*%
X189330475Y-60057775D03*
X191230475Y-60057775D03*
%TD*%
%TO.C,FB48*%
X220740730Y-91694061D03*
X218840730Y-91694061D03*
%TD*%
%TO.C,FB52*%
X84900999Y-123320999D03*
X83000999Y-123320999D03*
%TD*%
%TO.C,FB11*%
X174329384Y-29041295D03*
X176229384Y-29041295D03*
%TD*%
%TO.C,C47*%
X118313761Y-60057775D03*
X116413761Y-60057775D03*
%TD*%
D14*
%TO.C,C110*%
X135020997Y-127064999D03*
X135020997Y-125164999D03*
%TD*%
D10*
%TO.C,FB19*%
X82619285Y-60057775D03*
X84519285Y-60057775D03*
%TD*%
%TO.C,C31*%
X210017539Y-29041295D03*
X208117539Y-29041295D03*
%TD*%
D14*
%TO.C,C105*%
X111644998Y-127064999D03*
X111644998Y-125164999D03*
%TD*%
%TO.C,C117*%
X175676995Y-127064999D03*
X175676995Y-125164999D03*
%TD*%
D17*
%TO.C,R27*%
X233553000Y-75122500D03*
X233553000Y-72197500D03*
%TD*%
D10*
%TO.C,C75*%
X110192712Y-91694061D03*
X108292712Y-91694061D03*
%TD*%
D14*
%TO.C,C18*%
X157242307Y-32785295D03*
X157242307Y-30885295D03*
%TD*%
%TO.C,C14*%
X135903230Y-32785295D03*
X135903230Y-30885295D03*
%TD*%
D10*
%TO.C,FB7*%
X131651230Y-29041295D03*
X133551230Y-29041295D03*
%TD*%
%TO.C,C91*%
X195583124Y-91694061D03*
X193683124Y-91694061D03*
%TD*%
D14*
%TO.C,C93*%
X226140730Y-95438061D03*
X226140730Y-93538061D03*
%TD*%
D10*
%TO.C,C63*%
X203682717Y-60057775D03*
X201782717Y-60057775D03*
%TD*%
%TO.C,FB36*%
X92655109Y-91694061D03*
X90755109Y-91694061D03*
%TD*%
%TO.C,C104*%
X91763999Y-123320999D03*
X93663999Y-123320999D03*
%TD*%
%TO.C,FB10*%
X149810307Y-29041295D03*
X147910307Y-29041295D03*
%TD*%
%TO.C,C83*%
X152887918Y-91694061D03*
X150987918Y-91694061D03*
%TD*%
D14*
%TO.C,C1*%
X69853999Y-32785295D03*
X69853999Y-30885295D03*
%TD*%
D11*
%TO.C,U26*%
X85740999Y-128122999D03*
X86240999Y-128122999D03*
X86740999Y-128122999D03*
X87240999Y-128122999D03*
D12*
X87990999Y-127372999D03*
X87990999Y-126872999D03*
X87990999Y-126372999D03*
X87990999Y-125872999D03*
D11*
X87240999Y-125122999D03*
X86740999Y-125122999D03*
X86240999Y-125122999D03*
X85740999Y-125122999D03*
D12*
X84990999Y-125872999D03*
X84990999Y-126372999D03*
X84990999Y-126872999D03*
X84990999Y-127372999D03*
%TD*%
D10*
%TO.C,C11*%
X103322153Y-29041295D03*
X101422153Y-29041295D03*
%TD*%
D14*
%TO.C,C69*%
X98055109Y-95438061D03*
X98055109Y-93538061D03*
%TD*%
D10*
%TO.C,C52*%
X150328999Y-60057775D03*
X152228999Y-60057775D03*
%TD*%
D14*
%TO.C,C9*%
X112532153Y-32785295D03*
X112532153Y-30885295D03*
%TD*%
D10*
%TO.C,FB50*%
X63557000Y-123320999D03*
X61657000Y-123320999D03*
%TD*%
D11*
%TO.C,U29*%
X149772996Y-128122999D03*
X150272996Y-128122999D03*
X150772996Y-128122999D03*
X151272996Y-128122999D03*
D12*
X152022996Y-127372999D03*
X152022996Y-126872999D03*
X152022996Y-126372999D03*
X152022996Y-125872999D03*
D11*
X151272996Y-125122999D03*
X150772996Y-125122999D03*
X150272996Y-125122999D03*
X149772996Y-125122999D03*
D12*
X149022996Y-125872999D03*
X149022996Y-126372999D03*
X149022996Y-126872999D03*
X149022996Y-127372999D03*
%TD*%
D10*
%TO.C,FB33*%
X74487506Y-91694061D03*
X76387506Y-91694061D03*
%TD*%
%TO.C,C20*%
X156673307Y-29041295D03*
X158573307Y-29041295D03*
%TD*%
D14*
%TO.C,C65*%
X76707506Y-95438061D03*
X76707506Y-93538061D03*
%TD*%
D11*
%TO.C,U15*%
X186990475Y-64859775D03*
X187490475Y-64859775D03*
X187990475Y-64859775D03*
X188490475Y-64859775D03*
D12*
X189240475Y-64109775D03*
X189240475Y-63609775D03*
X189240475Y-63109775D03*
X189240475Y-62609775D03*
D11*
X188490475Y-61859775D03*
X187990475Y-61859775D03*
X187490475Y-61859775D03*
X186990475Y-61859775D03*
D12*
X186240475Y-62609775D03*
X186240475Y-63109775D03*
X186240475Y-63609775D03*
X186240475Y-64109775D03*
%TD*%
D11*
%TO.C,U27*%
X107084998Y-128122999D03*
X107584998Y-128122999D03*
X108084998Y-128122999D03*
X108584998Y-128122999D03*
D12*
X109334998Y-127372999D03*
X109334998Y-126872999D03*
X109334998Y-126372999D03*
X109334998Y-125872999D03*
D11*
X108584998Y-125122999D03*
X108084998Y-125122999D03*
X107584998Y-125122999D03*
X107084998Y-125122999D03*
D12*
X106334998Y-125872999D03*
X106334998Y-126372999D03*
X106334998Y-126872999D03*
X106334998Y-127372999D03*
%TD*%
D14*
%TO.C,C37*%
X84839285Y-63801775D03*
X84839285Y-61901775D03*
%TD*%
D11*
%TO.C,U22*%
X178885521Y-96496061D03*
X179385521Y-96496061D03*
X179885521Y-96496061D03*
X180385521Y-96496061D03*
D12*
X181135521Y-95746061D03*
X181135521Y-95246061D03*
X181135521Y-94746061D03*
X181135521Y-94246061D03*
D11*
X180385521Y-93496061D03*
X179885521Y-93496061D03*
X179385521Y-93496061D03*
X178885521Y-93496061D03*
D12*
X178135521Y-94246061D03*
X178135521Y-94746061D03*
X178135521Y-95246061D03*
X178135521Y-95746061D03*
%TD*%
D17*
%TO.C,R31*%
X233680000Y-34421000D03*
X233680000Y-31496000D03*
%TD*%
%TO.C,R32*%
X225044000Y-59120500D03*
X225044000Y-56195500D03*
%TD*%
D11*
%TO.C,U3*%
X107972153Y-33843295D03*
X108472153Y-33843295D03*
X108972153Y-33843295D03*
X109472153Y-33843295D03*
D12*
X110222153Y-33093295D03*
X110222153Y-32593295D03*
X110222153Y-32093295D03*
X110222153Y-31593295D03*
D11*
X109472153Y-30843295D03*
X108972153Y-30843295D03*
X108472153Y-30843295D03*
X107972153Y-30843295D03*
D12*
X107222153Y-31593295D03*
X107222153Y-32093295D03*
X107222153Y-32593295D03*
X107222153Y-33093295D03*
%TD*%
D10*
%TO.C,C68*%
X78170506Y-91694061D03*
X80070506Y-91694061D03*
%TD*%
D15*
%TO.C,C129*%
X233553000Y-81485000D03*
X233553000Y-78535000D03*
%TD*%
D14*
%TO.C,C98*%
X70989000Y-127064999D03*
X70989000Y-125164999D03*
%TD*%
D11*
%TO.C,U12*%
X122963761Y-64859775D03*
X123463761Y-64859775D03*
X123963761Y-64859775D03*
X124463761Y-64859775D03*
D12*
X125213761Y-64109775D03*
X125213761Y-63609775D03*
X125213761Y-63109775D03*
X125213761Y-62609775D03*
D11*
X124463761Y-61859775D03*
X123963761Y-61859775D03*
X123463761Y-61859775D03*
X122963761Y-61859775D03*
D12*
X122213761Y-62609775D03*
X122213761Y-63109775D03*
X122213761Y-63609775D03*
X122213761Y-64109775D03*
%TD*%
D14*
%TO.C,C34*%
X65529047Y-63801775D03*
X65529047Y-61901775D03*
%TD*%
D11*
%TO.C,U30*%
X171116995Y-128122999D03*
X171616995Y-128122999D03*
X172116995Y-128122999D03*
X172616995Y-128122999D03*
D12*
X173366995Y-127372999D03*
X173366995Y-126872999D03*
X173366995Y-126372999D03*
X173366995Y-125872999D03*
D11*
X172616995Y-125122999D03*
X172116995Y-125122999D03*
X171616995Y-125122999D03*
X171116995Y-125122999D03*
D12*
X170366995Y-125872999D03*
X170366995Y-126372999D03*
X170366995Y-126872999D03*
X170366995Y-127372999D03*
%TD*%
D10*
%TO.C,C100*%
X70420000Y-123320999D03*
X72320000Y-123320999D03*
%TD*%
%TO.C,FB26*%
X143465999Y-60057775D03*
X141565999Y-60057775D03*
%TD*%
D14*
%TO.C,C85*%
X183445521Y-95438061D03*
X183445521Y-93538061D03*
%TD*%
%TO.C,C73*%
X119402712Y-95438061D03*
X119402712Y-93538061D03*
%TD*%
D10*
%TO.C,FB4*%
X85793076Y-29041295D03*
X83893076Y-29041295D03*
%TD*%
D19*
%TO.C,R34*%
X232156000Y-114931000D03*
X232156000Y-117856000D03*
%TD*%
D14*
%TO.C,C106*%
X113676998Y-127064999D03*
X113676998Y-125164999D03*
%TD*%
D10*
%TO.C,FB42*%
X156697918Y-91694061D03*
X154797918Y-91694061D03*
%TD*%
%TO.C,C32*%
X220690539Y-29041295D03*
X222590539Y-29041295D03*
%TD*%
%TO.C,C7*%
X81983076Y-29041295D03*
X80083076Y-29041295D03*
%TD*%
%TO.C,C43*%
X96971523Y-60057775D03*
X95071523Y-60057775D03*
%TD*%
D14*
%TO.C,C82*%
X164129918Y-95438061D03*
X164129918Y-93538061D03*
%TD*%
D10*
%TO.C,FB57*%
X152112996Y-123320999D03*
X154012996Y-123320999D03*
%TD*%
D13*
%TO.C,C135*%
X233680000Y-25957000D03*
X233680000Y-28907000D03*
%TD*%
D10*
%TO.C,FB1*%
X67633999Y-29041295D03*
X69533999Y-29041295D03*
%TD*%
%TO.C,FB64*%
X212964993Y-123320999D03*
X211064993Y-123320999D03*
%TD*%
D20*
%TO.C,IC1*%
X230504999Y-74744999D03*
X229234999Y-74744999D03*
X227964999Y-74744999D03*
X226694999Y-74744999D03*
X226694999Y-80194999D03*
X227964999Y-80194999D03*
X229234999Y-80194999D03*
X230504999Y-80194999D03*
%TD*%
D10*
%TO.C,C16*%
X135334230Y-29041295D03*
X137234230Y-29041295D03*
%TD*%
%TO.C,C71*%
X88845109Y-91694061D03*
X86945109Y-91694061D03*
%TD*%
D16*
%TO.C,R28*%
X224601500Y-74676000D03*
X221676500Y-74676000D03*
%TD*%
D10*
%TO.C,FB14*%
X192488461Y-29041295D03*
X190588461Y-29041295D03*
%TD*%
%TO.C,C56*%
X171671237Y-60057775D03*
X173571237Y-60057775D03*
%TD*%
D15*
%TO.C,C138*%
X232156000Y-123141000D03*
X232156000Y-120191000D03*
%TD*%
D11*
%TO.C,U7*%
X193328461Y-33843295D03*
X193828461Y-33843295D03*
X194328461Y-33843295D03*
X194828461Y-33843295D03*
D12*
X195578461Y-33093295D03*
X195578461Y-32593295D03*
X195578461Y-32093295D03*
X195578461Y-31593295D03*
D11*
X194828461Y-30843295D03*
X194328461Y-30843295D03*
X193828461Y-30843295D03*
X193328461Y-30843295D03*
D12*
X192578461Y-31593295D03*
X192578461Y-32093295D03*
X192578461Y-32593295D03*
X192578461Y-33093295D03*
%TD*%
D10*
%TO.C,C119*%
X166466995Y-123320999D03*
X164566995Y-123320999D03*
%TD*%
%TO.C,FB56*%
X127588997Y-123320999D03*
X125688997Y-123320999D03*
%TD*%
%TO.C,FB5*%
X110312153Y-29041295D03*
X112212153Y-29041295D03*
%TD*%
D11*
%TO.C,U16*%
X208332717Y-64859775D03*
X208832717Y-64859775D03*
X209332717Y-64859775D03*
X209832717Y-64859775D03*
D12*
X210582717Y-64109775D03*
X210582717Y-63609775D03*
X210582717Y-63109775D03*
X210582717Y-62609775D03*
D11*
X209832717Y-61859775D03*
X209332717Y-61859775D03*
X208832717Y-61859775D03*
X208332717Y-61859775D03*
D12*
X207582717Y-62609775D03*
X207582717Y-63109775D03*
X207582717Y-63609775D03*
X207582717Y-64109775D03*
%TD*%
D14*
%TO.C,C61*%
X212892717Y-63801775D03*
X212892717Y-61901775D03*
%TD*%
D11*
%TO.C,U25*%
X64397000Y-128122999D03*
X64897000Y-128122999D03*
X65397000Y-128122999D03*
X65897000Y-128122999D03*
D12*
X66647000Y-127372999D03*
X66647000Y-126872999D03*
X66647000Y-126372999D03*
X66647000Y-125872999D03*
D11*
X65897000Y-125122999D03*
X65397000Y-125122999D03*
X64897000Y-125122999D03*
X64397000Y-125122999D03*
D12*
X63647000Y-125872999D03*
X63647000Y-126372999D03*
X63647000Y-126872999D03*
X63647000Y-127372999D03*
%TD*%
D14*
%TO.C,C118*%
X177708995Y-127064999D03*
X177708995Y-125164999D03*
%TD*%
D10*
%TO.C,C64*%
X214355717Y-60057775D03*
X216255717Y-60057775D03*
%TD*%
%TO.C,C19*%
X146000307Y-29041295D03*
X144100307Y-29041295D03*
%TD*%
D14*
%TO.C,C45*%
X127523761Y-63801775D03*
X127523761Y-61901775D03*
%TD*%
D13*
%TO.C,C137*%
X219837000Y-54786000D03*
X219837000Y-57736000D03*
%TD*%
D10*
%TO.C,FB20*%
X79439285Y-60057775D03*
X77539285Y-60057775D03*
%TD*%
%TO.C,C99*%
X59747000Y-123320999D03*
X57847000Y-123320999D03*
%TD*%
%TO.C,C23*%
X167339384Y-29041295D03*
X165439384Y-29041295D03*
%TD*%
D11*
%TO.C,U17*%
X72147506Y-96496061D03*
X72647506Y-96496061D03*
X73147506Y-96496061D03*
X73647506Y-96496061D03*
D12*
X74397506Y-95746061D03*
X74397506Y-95246061D03*
X74397506Y-94746061D03*
X74397506Y-94246061D03*
D11*
X73647506Y-93496061D03*
X73147506Y-93496061D03*
X72647506Y-93496061D03*
X72147506Y-93496061D03*
D12*
X71397506Y-94246061D03*
X71397506Y-94746061D03*
X71397506Y-95246061D03*
X71397506Y-95746061D03*
%TD*%
D14*
%TO.C,C6*%
X93225076Y-32785295D03*
X93225076Y-30885295D03*
%TD*%
D10*
%TO.C,C40*%
X86302285Y-60057775D03*
X88202285Y-60057775D03*
%TD*%
%TO.C,C76*%
X120865712Y-91694061D03*
X122765712Y-91694061D03*
%TD*%
D14*
%TO.C,C21*%
X176549384Y-32785295D03*
X176549384Y-30885295D03*
%TD*%
%TO.C,C58*%
X193582475Y-63801775D03*
X193582475Y-61901775D03*
%TD*%
D13*
%TO.C,C130*%
X229616000Y-25957000D03*
X229616000Y-28907000D03*
%TD*%
D11*
%TO.C,U24*%
X221580730Y-96496061D03*
X222080730Y-96496061D03*
X222580730Y-96496061D03*
X223080730Y-96496061D03*
D12*
X223830730Y-95746061D03*
X223830730Y-95246061D03*
X223830730Y-94746061D03*
X223830730Y-94246061D03*
D11*
X223080730Y-93496061D03*
X222580730Y-93496061D03*
X222080730Y-93496061D03*
X221580730Y-93496061D03*
D12*
X220830730Y-94246061D03*
X220830730Y-94746061D03*
X220830730Y-95246061D03*
X220830730Y-95746061D03*
%TD*%
D14*
%TO.C,C126*%
X220396993Y-127064999D03*
X220396993Y-125164999D03*
%TD*%
%TO.C,C97*%
X68957000Y-127064999D03*
X68957000Y-125164999D03*
%TD*%
D10*
%TO.C,C120*%
X177139995Y-123320999D03*
X179039995Y-123320999D03*
%TD*%
%TO.C,FB41*%
X159877918Y-91694061D03*
X161777918Y-91694061D03*
%TD*%
M02*
